<?xml version="1.0" encoding="utf-8" standalone="no"?>
<!DOCTYPE svg PUBLIC "-//W3C//DTD SVG 1.1//EN"
  "http://www.w3.org/Graphics/SVG/1.1/DTD/svg11.dtd">
<svg xmlns:xlink="http://www.w3.org/1999/xlink" width="728.39952pt" height="346.79952pt" viewBox="0 0 728.39952 346.79952" xmlns="http://www.w3.org/2000/svg" version="1.1">
 <metadata>
  <rdf:RDF xmlns:dc="http://purl.org/dc/elements/1.1/" xmlns:cc="http://creativecommons.org/ns#" xmlns:rdf="http://www.w3.org/1999/02/22-rdf-syntax-ns#">
   <cc:Work>
    <dc:type rdf:resource="http://purl.org/dc/dcmitype/StillImage"/>
    <dc:format>image/svg+xml</dc:format>
    <dc:creator>
     <cc:Agent>
      <dc:title>QMLforArtemisIV make_research_figures.py</dc:title>
     </cc:Agent>
    </dc:creator>
   </cc:Work>
  </rdf:RDF>
 </metadata>
 <defs>
  <style type="text/css">*{stroke-linejoin: round; stroke-linecap: butt}</style>
 </defs>
 <g id="figure_1">
  <g id="patch_1">
   <path d="M 0 346.79952
L 728.39952 346.79952
L 728.39952 0
L 0 0
z
" style="fill: #ffffff"/>
  </g>
  <g id="axes_1">
   <g id="patch_2">
    <path d="M 39.653281 295.594051
L 721.19952 295.594051
L 721.19952 22.318125
L 39.653281 22.318125
z
" style="fill: #ffffff"/>
   </g>
   <g id="matplotlib.axis_1">
    <g id="xtick_1">
     <g id="line2d_1">
      <path d="M 88.462512 295.594051
L 88.462512 22.318125
" clip-path="url(#p09cda64721)" style="fill: none; stroke: #d7dce1; stroke-width: 0.6; stroke-linecap: square"/>
     </g>
     <g id="line2d_2">
      <defs>
       <path id="m4fb4cdcd68" d="M 0 0
L 0 3.5
" style="stroke: #000000; stroke-width: 0.8"/>
      </defs>
      <g>
       <use xlink:href="#m4fb4cdcd68" x="88.462512" y="295.594051" style="stroke: #000000; stroke-width: 0.8"/>
      </g>
     </g>
     <g id="text_1">
      <!-- G01 -->
      <g transform="translate(79.249465 309.431942) scale(0.09 -0.09)">
       <defs>
        <path id="DejaVuSans-2a" d="M 3809 666
L 3809 1919
L 2778 1919
L 2778 2438
L 4434 2438
L 4434 434
Q 4069 175 3628 42
Q 3188 -91 2688 -91
Q 1594 -91 976 548
Q 359 1188 359 2328
Q 359 3472 976 4111
Q 1594 4750 2688 4750
Q 3144 4750 3555 4637
Q 3966 4525 4313 4306
L 4313 3634
Q 3963 3931 3569 4081
Q 3175 4231 2741 4231
Q 1884 4231 1454 3753
Q 1025 3275 1025 2328
Q 1025 1384 1454 906
Q 1884 428 2741 428
Q 3075 428 3337 486
Q 3600 544 3809 666
z
" transform="scale(0.015625)"/>
        <path id="DejaVuSans-13" d="M 2034 4250
Q 1547 4250 1301 3770
Q 1056 3291 1056 2328
Q 1056 1369 1301 889
Q 1547 409 2034 409
Q 2525 409 2770 889
Q 3016 1369 3016 2328
Q 3016 3291 2770 3770
Q 2525 4250 2034 4250
z
M 2034 4750
Q 2819 4750 3233 4129
Q 3647 3509 3647 2328
Q 3647 1150 3233 529
Q 2819 -91 2034 -91
Q 1250 -91 836 529
Q 422 1150 422 2328
Q 422 3509 836 4129
Q 1250 4750 2034 4750
z
" transform="scale(0.015625)"/>
        <path id="DejaVuSans-14" d="M 794 531
L 1825 531
L 1825 4091
L 703 3866
L 703 4441
L 1819 4666
L 2450 4666
L 2450 531
L 3481 531
L 3481 0
L 794 0
L 794 531
z
" transform="scale(0.015625)"/>
       </defs>
       <use xlink:href="#DejaVuSans-2a"/>
       <use xlink:href="#DejaVuSans-13" transform="translate(77.484375 0)"/>
       <use xlink:href="#DejaVuSans-14" transform="translate(141.109375 0)"/>
      </g>
     </g>
    </g>
    <g id="xtick_2">
     <g id="line2d_3">
      <path d="M 133.037151 295.594051
L 133.037151 22.318125
" clip-path="url(#p09cda64721)" style="fill: none; stroke: #d7dce1; stroke-width: 0.6; stroke-linecap: square"/>
     </g>
     <g id="line2d_4">
      <g>
       <use xlink:href="#m4fb4cdcd68" x="133.037151" y="295.594051" style="stroke: #000000; stroke-width: 0.8"/>
      </g>
     </g>
     <g id="text_2">
      <!-- G02 -->
      <g transform="translate(123.824104 309.431942) scale(0.09 -0.09)">
       <defs>
        <path id="DejaVuSans-15" d="M 1228 531
L 3431 531
L 3431 0
L 469 0
L 469 531
Q 828 903 1448 1529
Q 2069 2156 2228 2338
Q 2531 2678 2651 2914
Q 2772 3150 2772 3378
Q 2772 3750 2511 3984
Q 2250 4219 1831 4219
Q 1534 4219 1204 4116
Q 875 4013 500 3803
L 500 4441
Q 881 4594 1212 4672
Q 1544 4750 1819 4750
Q 2544 4750 2975 4387
Q 3406 4025 3406 3419
Q 3406 3131 3298 2873
Q 3191 2616 2906 2266
Q 2828 2175 2409 1742
Q 1991 1309 1228 531
z
" transform="scale(0.015625)"/>
       </defs>
       <use xlink:href="#DejaVuSans-2a"/>
       <use xlink:href="#DejaVuSans-13" transform="translate(77.484375 0)"/>
       <use xlink:href="#DejaVuSans-15" transform="translate(141.109375 0)"/>
      </g>
     </g>
    </g>
    <g id="xtick_3">
     <g id="line2d_5">
      <path d="M 177.611791 295.594051
L 177.611791 22.318125
" clip-path="url(#p09cda64721)" style="fill: none; stroke: #d7dce1; stroke-width: 0.6; stroke-linecap: square"/>
     </g>
     <g id="line2d_6">
      <g>
       <use xlink:href="#m4fb4cdcd68" x="177.611791" y="295.594051" style="stroke: #000000; stroke-width: 0.8"/>
      </g>
     </g>
     <g id="text_3">
      <!-- G03 -->
      <g transform="translate(168.398744 309.431942) scale(0.09 -0.09)">
       <defs>
        <path id="DejaVuSans-16" d="M 2597 2516
Q 3050 2419 3304 2112
Q 3559 1806 3559 1356
Q 3559 666 3084 287
Q 2609 -91 1734 -91
Q 1441 -91 1130 -33
Q 819 25 488 141
L 488 750
Q 750 597 1062 519
Q 1375 441 1716 441
Q 2309 441 2620 675
Q 2931 909 2931 1356
Q 2931 1769 2642 2001
Q 2353 2234 1838 2234
L 1294 2234
L 1294 2753
L 1863 2753
Q 2328 2753 2575 2939
Q 2822 3125 2822 3475
Q 2822 3834 2567 4026
Q 2313 4219 1838 4219
Q 1578 4219 1281 4162
Q 984 4106 628 3988
L 628 4550
Q 988 4650 1302 4700
Q 1616 4750 1894 4750
Q 2613 4750 3031 4423
Q 3450 4097 3450 3541
Q 3450 3153 3228 2886
Q 3006 2619 2597 2516
z
" transform="scale(0.015625)"/>
       </defs>
       <use xlink:href="#DejaVuSans-2a"/>
       <use xlink:href="#DejaVuSans-13" transform="translate(77.484375 0)"/>
       <use xlink:href="#DejaVuSans-16" transform="translate(141.109375 0)"/>
      </g>
     </g>
    </g>
    <g id="xtick_4">
     <g id="line2d_7">
      <path d="M 222.18643 295.594051
L 222.18643 22.318125
" clip-path="url(#p09cda64721)" style="fill: none; stroke: #d7dce1; stroke-width: 0.6; stroke-linecap: square"/>
     </g>
     <g id="line2d_8">
      <g>
       <use xlink:href="#m4fb4cdcd68" x="222.18643" y="295.594051" style="stroke: #000000; stroke-width: 0.8"/>
      </g>
     </g>
     <g id="text_4">
      <!-- G04 -->
      <g transform="translate(212.973383 309.431942) scale(0.09 -0.09)">
       <defs>
        <path id="DejaVuSans-17" d="M 2419 4116
L 825 1625
L 2419 1625
L 2419 4116
z
M 2253 4666
L 3047 4666
L 3047 1625
L 3713 1625
L 3713 1100
L 3047 1100
L 3047 0
L 2419 0
L 2419 1100
L 313 1100
L 313 1709
L 2253 4666
z
" transform="scale(0.015625)"/>
       </defs>
       <use xlink:href="#DejaVuSans-2a"/>
       <use xlink:href="#DejaVuSans-13" transform="translate(77.484375 0)"/>
       <use xlink:href="#DejaVuSans-17" transform="translate(141.109375 0)"/>
      </g>
     </g>
    </g>
    <g id="xtick_5">
     <g id="line2d_9">
      <path d="M 266.76107 295.594051
L 266.76107 22.318125
" clip-path="url(#p09cda64721)" style="fill: none; stroke: #d7dce1; stroke-width: 0.6; stroke-linecap: square"/>
     </g>
     <g id="line2d_10">
      <g>
       <use xlink:href="#m4fb4cdcd68" x="266.76107" y="295.594051" style="stroke: #000000; stroke-width: 0.8"/>
      </g>
     </g>
     <g id="text_5">
      <!-- G05 -->
      <g transform="translate(257.548023 309.431942) scale(0.09 -0.09)">
       <defs>
        <path id="DejaVuSans-18" d="M 691 4666
L 3169 4666
L 3169 4134
L 1269 4134
L 1269 2991
Q 1406 3038 1543 3061
Q 1681 3084 1819 3084
Q 2600 3084 3056 2656
Q 3513 2228 3513 1497
Q 3513 744 3044 326
Q 2575 -91 1722 -91
Q 1428 -91 1123 -41
Q 819 9 494 109
L 494 744
Q 775 591 1075 516
Q 1375 441 1709 441
Q 2250 441 2565 725
Q 2881 1009 2881 1497
Q 2881 1984 2565 2268
Q 2250 2553 1709 2553
Q 1456 2553 1204 2497
Q 953 2441 691 2322
L 691 4666
z
" transform="scale(0.015625)"/>
       </defs>
       <use xlink:href="#DejaVuSans-2a"/>
       <use xlink:href="#DejaVuSans-13" transform="translate(77.484375 0)"/>
       <use xlink:href="#DejaVuSans-18" transform="translate(141.109375 0)"/>
      </g>
     </g>
    </g>
    <g id="xtick_6">
     <g id="line2d_11">
      <path d="M 311.335709 295.594051
L 311.335709 22.318125
" clip-path="url(#p09cda64721)" style="fill: none; stroke: #d7dce1; stroke-width: 0.6; stroke-linecap: square"/>
     </g>
     <g id="line2d_12">
      <g>
       <use xlink:href="#m4fb4cdcd68" x="311.335709" y="295.594051" style="stroke: #000000; stroke-width: 0.8"/>
      </g>
     </g>
     <g id="text_6">
      <!-- G06 -->
      <g transform="translate(302.122662 309.431942) scale(0.09 -0.09)">
       <defs>
        <path id="DejaVuSans-19" d="M 2113 2584
Q 1688 2584 1439 2293
Q 1191 2003 1191 1497
Q 1191 994 1439 701
Q 1688 409 2113 409
Q 2538 409 2786 701
Q 3034 994 3034 1497
Q 3034 2003 2786 2293
Q 2538 2584 2113 2584
z
M 3366 4563
L 3366 3988
Q 3128 4100 2886 4159
Q 2644 4219 2406 4219
Q 1781 4219 1451 3797
Q 1122 3375 1075 2522
Q 1259 2794 1537 2939
Q 1816 3084 2150 3084
Q 2853 3084 3261 2657
Q 3669 2231 3669 1497
Q 3669 778 3244 343
Q 2819 -91 2113 -91
Q 1303 -91 875 529
Q 447 1150 447 2328
Q 447 3434 972 4092
Q 1497 4750 2381 4750
Q 2619 4750 2861 4703
Q 3103 4656 3366 4563
z
" transform="scale(0.015625)"/>
       </defs>
       <use xlink:href="#DejaVuSans-2a"/>
       <use xlink:href="#DejaVuSans-13" transform="translate(77.484375 0)"/>
       <use xlink:href="#DejaVuSans-19" transform="translate(141.109375 0)"/>
      </g>
     </g>
    </g>
    <g id="xtick_7">
     <g id="line2d_13">
      <path d="M 355.910349 295.594051
L 355.910349 22.318125
" clip-path="url(#p09cda64721)" style="fill: none; stroke: #d7dce1; stroke-width: 0.6; stroke-linecap: square"/>
     </g>
     <g id="line2d_14">
      <g>
       <use xlink:href="#m4fb4cdcd68" x="355.910349" y="295.594051" style="stroke: #000000; stroke-width: 0.8"/>
      </g>
     </g>
     <g id="text_7">
      <!-- G07 -->
      <g transform="translate(346.697302 309.431942) scale(0.09 -0.09)">
       <defs>
        <path id="DejaVuSans-1a" d="M 525 4666
L 3525 4666
L 3525 4397
L 1831 0
L 1172 0
L 2766 4134
L 525 4134
L 525 4666
z
" transform="scale(0.015625)"/>
       </defs>
       <use xlink:href="#DejaVuSans-2a"/>
       <use xlink:href="#DejaVuSans-13" transform="translate(77.484375 0)"/>
       <use xlink:href="#DejaVuSans-1a" transform="translate(141.109375 0)"/>
      </g>
     </g>
    </g>
    <g id="xtick_8">
     <g id="line2d_15">
      <path d="M 400.484988 295.594051
L 400.484988 22.318125
" clip-path="url(#p09cda64721)" style="fill: none; stroke: #d7dce1; stroke-width: 0.6; stroke-linecap: square"/>
     </g>
     <g id="line2d_16">
      <g>
       <use xlink:href="#m4fb4cdcd68" x="400.484988" y="295.594051" style="stroke: #000000; stroke-width: 0.8"/>
      </g>
     </g>
     <g id="text_8">
      <!-- G08 -->
      <g transform="translate(391.271942 309.431942) scale(0.09 -0.09)">
       <defs>
        <path id="DejaVuSans-1b" d="M 2034 2216
Q 1584 2216 1326 1975
Q 1069 1734 1069 1313
Q 1069 891 1326 650
Q 1584 409 2034 409
Q 2484 409 2743 651
Q 3003 894 3003 1313
Q 3003 1734 2745 1975
Q 2488 2216 2034 2216
z
M 1403 2484
Q 997 2584 770 2862
Q 544 3141 544 3541
Q 544 4100 942 4425
Q 1341 4750 2034 4750
Q 2731 4750 3128 4425
Q 3525 4100 3525 3541
Q 3525 3141 3298 2862
Q 3072 2584 2669 2484
Q 3125 2378 3379 2068
Q 3634 1759 3634 1313
Q 3634 634 3220 271
Q 2806 -91 2034 -91
Q 1263 -91 848 271
Q 434 634 434 1313
Q 434 1759 690 2068
Q 947 2378 1403 2484
z
M 1172 3481
Q 1172 3119 1398 2916
Q 1625 2713 2034 2713
Q 2441 2713 2670 2916
Q 2900 3119 2900 3481
Q 2900 3844 2670 4047
Q 2441 4250 2034 4250
Q 1625 4250 1398 4047
Q 1172 3844 1172 3481
z
" transform="scale(0.015625)"/>
       </defs>
       <use xlink:href="#DejaVuSans-2a"/>
       <use xlink:href="#DejaVuSans-13" transform="translate(77.484375 0)"/>
       <use xlink:href="#DejaVuSans-1b" transform="translate(141.109375 0)"/>
      </g>
     </g>
    </g>
    <g id="xtick_9">
     <g id="line2d_17">
      <path d="M 445.059628 295.594051
L 445.059628 22.318125
" clip-path="url(#p09cda64721)" style="fill: none; stroke: #d7dce1; stroke-width: 0.6; stroke-linecap: square"/>
     </g>
     <g id="line2d_18">
      <g>
       <use xlink:href="#m4fb4cdcd68" x="445.059628" y="295.594051" style="stroke: #000000; stroke-width: 0.8"/>
      </g>
     </g>
     <g id="text_9">
      <!-- G09 -->
      <g transform="translate(435.846581 309.431942) scale(0.09 -0.09)">
       <defs>
        <path id="DejaVuSans-1c" d="M 703 97
L 703 672
Q 941 559 1184 500
Q 1428 441 1663 441
Q 2288 441 2617 861
Q 2947 1281 2994 2138
Q 2813 1869 2534 1725
Q 2256 1581 1919 1581
Q 1219 1581 811 2004
Q 403 2428 403 3163
Q 403 3881 828 4315
Q 1253 4750 1959 4750
Q 2769 4750 3195 4129
Q 3622 3509 3622 2328
Q 3622 1225 3098 567
Q 2575 -91 1691 -91
Q 1453 -91 1209 -44
Q 966 3 703 97
z
M 1959 2075
Q 2384 2075 2632 2365
Q 2881 2656 2881 3163
Q 2881 3666 2632 3958
Q 2384 4250 1959 4250
Q 1534 4250 1286 3958
Q 1038 3666 1038 3163
Q 1038 2656 1286 2365
Q 1534 2075 1959 2075
z
" transform="scale(0.015625)"/>
       </defs>
       <use xlink:href="#DejaVuSans-2a"/>
       <use xlink:href="#DejaVuSans-13" transform="translate(77.484375 0)"/>
       <use xlink:href="#DejaVuSans-1c" transform="translate(141.109375 0)"/>
      </g>
     </g>
    </g>
    <g id="xtick_10">
     <g id="line2d_19">
      <path d="M 489.634268 295.594051
L 489.634268 22.318125
" clip-path="url(#p09cda64721)" style="fill: none; stroke: #d7dce1; stroke-width: 0.6; stroke-linecap: square"/>
     </g>
     <g id="line2d_20">
      <g>
       <use xlink:href="#m4fb4cdcd68" x="489.634268" y="295.594051" style="stroke: #000000; stroke-width: 0.8"/>
      </g>
     </g>
     <g id="text_10">
      <!-- G10 -->
      <g transform="translate(480.421221 309.431942) scale(0.09 -0.09)">
       <use xlink:href="#DejaVuSans-2a"/>
       <use xlink:href="#DejaVuSans-14" transform="translate(77.484375 0)"/>
       <use xlink:href="#DejaVuSans-13" transform="translate(141.109375 0)"/>
      </g>
     </g>
    </g>
    <g id="xtick_11">
     <g id="line2d_21">
      <path d="M 534.208907 295.594051
L 534.208907 22.318125
" clip-path="url(#p09cda64721)" style="fill: none; stroke: #d7dce1; stroke-width: 0.6; stroke-linecap: square"/>
     </g>
     <g id="line2d_22">
      <g>
       <use xlink:href="#m4fb4cdcd68" x="534.208907" y="295.594051" style="stroke: #000000; stroke-width: 0.8"/>
      </g>
     </g>
     <g id="text_11">
      <!-- G11 -->
      <g transform="translate(524.99586 309.431942) scale(0.09 -0.09)">
       <use xlink:href="#DejaVuSans-2a"/>
       <use xlink:href="#DejaVuSans-14" transform="translate(77.484375 0)"/>
       <use xlink:href="#DejaVuSans-14" transform="translate(141.109375 0)"/>
      </g>
     </g>
    </g>
    <g id="xtick_12">
     <g id="line2d_23">
      <path d="M 578.783547 295.594051
L 578.783547 22.318125
" clip-path="url(#p09cda64721)" style="fill: none; stroke: #d7dce1; stroke-width: 0.6; stroke-linecap: square"/>
     </g>
     <g id="line2d_24">
      <g>
       <use xlink:href="#m4fb4cdcd68" x="578.783547" y="295.594051" style="stroke: #000000; stroke-width: 0.8"/>
      </g>
     </g>
     <g id="text_12">
      <!-- G12 -->
      <g transform="translate(569.5705 309.431942) scale(0.09 -0.09)">
       <use xlink:href="#DejaVuSans-2a"/>
       <use xlink:href="#DejaVuSans-14" transform="translate(77.484375 0)"/>
       <use xlink:href="#DejaVuSans-15" transform="translate(141.109375 0)"/>
      </g>
     </g>
    </g>
    <g id="xtick_13">
     <g id="line2d_25">
      <path d="M 623.358186 295.594051
L 623.358186 22.318125
" clip-path="url(#p09cda64721)" style="fill: none; stroke: #d7dce1; stroke-width: 0.6; stroke-linecap: square"/>
     </g>
     <g id="line2d_26">
      <g>
       <use xlink:href="#m4fb4cdcd68" x="623.358186" y="295.594051" style="stroke: #000000; stroke-width: 0.8"/>
      </g>
     </g>
     <g id="text_13">
      <!-- G13 -->
      <g transform="translate(614.145139 309.431942) scale(0.09 -0.09)">
       <use xlink:href="#DejaVuSans-2a"/>
       <use xlink:href="#DejaVuSans-14" transform="translate(77.484375 0)"/>
       <use xlink:href="#DejaVuSans-16" transform="translate(141.109375 0)"/>
      </g>
     </g>
    </g>
    <g id="xtick_14">
     <g id="line2d_27">
      <path d="M 667.932826 295.594051
L 667.932826 22.318125
" clip-path="url(#p09cda64721)" style="fill: none; stroke: #d7dce1; stroke-width: 0.6; stroke-linecap: square"/>
     </g>
     <g id="line2d_28">
      <g>
       <use xlink:href="#m4fb4cdcd68" x="667.932826" y="295.594051" style="stroke: #000000; stroke-width: 0.8"/>
      </g>
     </g>
     <g id="text_14">
      <!-- G14 -->
      <g transform="translate(658.719779 309.431942) scale(0.09 -0.09)">
       <use xlink:href="#DejaVuSans-2a"/>
       <use xlink:href="#DejaVuSans-14" transform="translate(77.484375 0)"/>
       <use xlink:href="#DejaVuSans-17" transform="translate(141.109375 0)"/>
      </g>
     </g>
    </g>
    <g id="text_15">
     <!-- G01 serial qualification; G02-G12 development; G13-G14 calibration (hatched) -->
     <g transform="translate(182.762338 324.193465) scale(0.1 -0.1)">
      <defs>
       <path id="DejaVuSans-3" transform="scale(0.015625)"/>
       <path id="DejaVuSans-56" d="M 2834 3397
L 2834 2853
Q 2591 2978 2328 3040
Q 2066 3103 1784 3103
Q 1356 3103 1142 2972
Q 928 2841 928 2578
Q 928 2378 1081 2264
Q 1234 2150 1697 2047
L 1894 2003
Q 2506 1872 2764 1633
Q 3022 1394 3022 966
Q 3022 478 2636 193
Q 2250 -91 1575 -91
Q 1294 -91 989 -36
Q 684 19 347 128
L 347 722
Q 666 556 975 473
Q 1284 391 1588 391
Q 1994 391 2212 530
Q 2431 669 2431 922
Q 2431 1156 2273 1281
Q 2116 1406 1581 1522
L 1381 1569
Q 847 1681 609 1914
Q 372 2147 372 2553
Q 372 3047 722 3315
Q 1072 3584 1716 3584
Q 2034 3584 2315 3537
Q 2597 3491 2834 3397
z
" transform="scale(0.015625)"/>
       <path id="DejaVuSans-48" d="M 3597 1894
L 3597 1613
L 953 1613
Q 991 1019 1311 708
Q 1631 397 2203 397
Q 2534 397 2845 478
Q 3156 559 3463 722
L 3463 178
Q 3153 47 2828 -22
Q 2503 -91 2169 -91
Q 1331 -91 842 396
Q 353 884 353 1716
Q 353 2575 817 3079
Q 1281 3584 2069 3584
Q 2775 3584 3186 3129
Q 3597 2675 3597 1894
z
M 3022 2063
Q 3016 2534 2758 2815
Q 2500 3097 2075 3097
Q 1594 3097 1305 2825
Q 1016 2553 972 2059
L 3022 2063
z
" transform="scale(0.015625)"/>
       <path id="DejaVuSans-55" d="M 2631 2963
Q 2534 3019 2420 3045
Q 2306 3072 2169 3072
Q 1681 3072 1420 2755
Q 1159 2438 1159 1844
L 1159 0
L 581 0
L 581 3500
L 1159 3500
L 1159 2956
Q 1341 3275 1631 3429
Q 1922 3584 2338 3584
Q 2397 3584 2469 3576
Q 2541 3569 2628 3553
L 2631 2963
z
" transform="scale(0.015625)"/>
       <path id="DejaVuSans-4c" d="M 603 3500
L 1178 3500
L 1178 0
L 603 0
L 603 3500
z
M 603 4863
L 1178 4863
L 1178 4134
L 603 4134
L 603 4863
z
" transform="scale(0.015625)"/>
       <path id="DejaVuSans-44" d="M 2194 1759
Q 1497 1759 1228 1600
Q 959 1441 959 1056
Q 959 750 1161 570
Q 1363 391 1709 391
Q 2188 391 2477 730
Q 2766 1069 2766 1631
L 2766 1759
L 2194 1759
z
M 3341 1997
L 3341 0
L 2766 0
L 2766 531
Q 2569 213 2275 61
Q 1981 -91 1556 -91
Q 1019 -91 701 211
Q 384 513 384 1019
Q 384 1609 779 1909
Q 1175 2209 1959 2209
L 2766 2209
L 2766 2266
Q 2766 2663 2505 2880
Q 2244 3097 1772 3097
Q 1472 3097 1187 3025
Q 903 2953 641 2809
L 641 3341
Q 956 3463 1253 3523
Q 1550 3584 1831 3584
Q 2591 3584 2966 3190
Q 3341 2797 3341 1997
z
" transform="scale(0.015625)"/>
       <path id="DejaVuSans-4f" d="M 603 4863
L 1178 4863
L 1178 0
L 603 0
L 603 4863
z
" transform="scale(0.015625)"/>
       <path id="DejaVuSans-54" d="M 947 1747
Q 947 1113 1208 752
Q 1469 391 1925 391
Q 2381 391 2643 752
Q 2906 1113 2906 1747
Q 2906 2381 2643 2742
Q 2381 3103 1925 3103
Q 1469 3103 1208 2742
Q 947 2381 947 1747
z
M 2906 525
Q 2725 213 2448 61
Q 2172 -91 1784 -91
Q 1150 -91 751 415
Q 353 922 353 1747
Q 353 2572 751 3078
Q 1150 3584 1784 3584
Q 2172 3584 2448 3432
Q 2725 3281 2906 2969
L 2906 3500
L 3481 3500
L 3481 -1331
L 2906 -1331
L 2906 525
z
" transform="scale(0.015625)"/>
       <path id="DejaVuSans-58" d="M 544 1381
L 544 3500
L 1119 3500
L 1119 1403
Q 1119 906 1312 657
Q 1506 409 1894 409
Q 2359 409 2629 706
Q 2900 1003 2900 1516
L 2900 3500
L 3475 3500
L 3475 0
L 2900 0
L 2900 538
Q 2691 219 2414 64
Q 2138 -91 1772 -91
Q 1169 -91 856 284
Q 544 659 544 1381
z
M 1991 3584
L 1991 3584
z
" transform="scale(0.015625)"/>
       <path id="DejaVuSans-13af" d="M 3431 3500
L 3431 0
L 2853 0
L 2853 3053
L 1275 3053
L 1275 0
L 697 0
L 697 3053
L 147 3053
L 147 3500
L 697 3500
L 697 3744
Q 697 4316 967 4589
Q 1238 4863 1797 4863
L 2375 4863
L 2375 4384
L 1825 4384
Q 1516 4384 1395 4259
Q 1275 4134 1275 3809
L 1275 3500
L 3431 3500
z
M 2853 4856
L 3431 4856
L 3431 4128
L 2853 4128
L 2853 4856
z
" transform="scale(0.015625)"/>
       <path id="DejaVuSans-46" d="M 3122 3366
L 3122 2828
Q 2878 2963 2633 3030
Q 2388 3097 2138 3097
Q 1578 3097 1268 2742
Q 959 2388 959 1747
Q 959 1106 1268 751
Q 1578 397 2138 397
Q 2388 397 2633 464
Q 2878 531 3122 666
L 3122 134
Q 2881 22 2623 -34
Q 2366 -91 2075 -91
Q 1284 -91 818 406
Q 353 903 353 1747
Q 353 2603 823 3093
Q 1294 3584 2113 3584
Q 2378 3584 2631 3529
Q 2884 3475 3122 3366
z
" transform="scale(0.015625)"/>
       <path id="DejaVuSans-57" d="M 1172 4494
L 1172 3500
L 2356 3500
L 2356 3053
L 1172 3053
L 1172 1153
Q 1172 725 1289 603
Q 1406 481 1766 481
L 2356 481
L 2356 0
L 1766 0
Q 1100 0 847 248
Q 594 497 594 1153
L 594 3053
L 172 3053
L 172 3500
L 594 3500
L 594 4494
L 1172 4494
z
" transform="scale(0.015625)"/>
       <path id="DejaVuSans-52" d="M 1959 3097
Q 1497 3097 1228 2736
Q 959 2375 959 1747
Q 959 1119 1226 758
Q 1494 397 1959 397
Q 2419 397 2687 759
Q 2956 1122 2956 1747
Q 2956 2369 2687 2733
Q 2419 3097 1959 3097
z
M 1959 3584
Q 2709 3584 3137 3096
Q 3566 2609 3566 1747
Q 3566 888 3137 398
Q 2709 -91 1959 -91
Q 1206 -91 779 398
Q 353 888 353 1747
Q 353 2609 779 3096
Q 1206 3584 1959 3584
z
" transform="scale(0.015625)"/>
       <path id="DejaVuSans-51" d="M 3513 2113
L 3513 0
L 2938 0
L 2938 2094
Q 2938 2591 2744 2837
Q 2550 3084 2163 3084
Q 1697 3084 1428 2787
Q 1159 2491 1159 1978
L 1159 0
L 581 0
L 581 3500
L 1159 3500
L 1159 2956
Q 1366 3272 1645 3428
Q 1925 3584 2291 3584
Q 2894 3584 3203 3211
Q 3513 2838 3513 2113
z
" transform="scale(0.015625)"/>
       <path id="DejaVuSans-1e" d="M 750 3309
L 1409 3309
L 1409 2516
L 750 2516
L 750 3309
z
M 750 794
L 1409 794
L 1409 256
L 897 -744
L 494 -744
L 750 256
L 750 794
z
" transform="scale(0.015625)"/>
       <path id="DejaVuSans-10" d="M 313 2009
L 1997 2009
L 1997 1497
L 313 1497
L 313 2009
z
" transform="scale(0.015625)"/>
       <path id="DejaVuSans-47" d="M 2906 2969
L 2906 4863
L 3481 4863
L 3481 0
L 2906 0
L 2906 525
Q 2725 213 2448 61
Q 2172 -91 1784 -91
Q 1150 -91 751 415
Q 353 922 353 1747
Q 353 2572 751 3078
Q 1150 3584 1784 3584
Q 2172 3584 2448 3432
Q 2725 3281 2906 2969
z
M 947 1747
Q 947 1113 1208 752
Q 1469 391 1925 391
Q 2381 391 2643 752
Q 2906 1113 2906 1747
Q 2906 2381 2643 2742
Q 2381 3103 1925 3103
Q 1469 3103 1208 2742
Q 947 2381 947 1747
z
" transform="scale(0.015625)"/>
       <path id="DejaVuSans-59" d="M 191 3500
L 800 3500
L 1894 563
L 2988 3500
L 3597 3500
L 2284 0
L 1503 0
L 191 3500
z
" transform="scale(0.015625)"/>
       <path id="DejaVuSans-53" d="M 1159 525
L 1159 -1331
L 581 -1331
L 581 3500
L 1159 3500
L 1159 2969
Q 1341 3281 1617 3432
Q 1894 3584 2278 3584
Q 2916 3584 3314 3078
Q 3713 2572 3713 1747
Q 3713 922 3314 415
Q 2916 -91 2278 -91
Q 1894 -91 1617 61
Q 1341 213 1159 525
z
M 3116 1747
Q 3116 2381 2855 2742
Q 2594 3103 2138 3103
Q 1681 3103 1420 2742
Q 1159 2381 1159 1747
Q 1159 1113 1420 752
Q 1681 391 2138 391
Q 2594 391 2855 752
Q 3116 1113 3116 1747
z
" transform="scale(0.015625)"/>
       <path id="DejaVuSans-50" d="M 3328 2828
Q 3544 3216 3844 3400
Q 4144 3584 4550 3584
Q 5097 3584 5394 3201
Q 5691 2819 5691 2113
L 5691 0
L 5113 0
L 5113 2094
Q 5113 2597 4934 2840
Q 4756 3084 4391 3084
Q 3944 3084 3684 2787
Q 3425 2491 3425 1978
L 3425 0
L 2847 0
L 2847 2094
Q 2847 2600 2669 2842
Q 2491 3084 2119 3084
Q 1678 3084 1418 2786
Q 1159 2488 1159 1978
L 1159 0
L 581 0
L 581 3500
L 1159 3500
L 1159 2956
Q 1356 3278 1631 3431
Q 1906 3584 2284 3584
Q 2666 3584 2933 3390
Q 3200 3197 3328 2828
z
" transform="scale(0.015625)"/>
       <path id="DejaVuSans-45" d="M 3116 1747
Q 3116 2381 2855 2742
Q 2594 3103 2138 3103
Q 1681 3103 1420 2742
Q 1159 2381 1159 1747
Q 1159 1113 1420 752
Q 1681 391 2138 391
Q 2594 391 2855 752
Q 3116 1113 3116 1747
z
M 1159 2969
Q 1341 3281 1617 3432
Q 1894 3584 2278 3584
Q 2916 3584 3314 3078
Q 3713 2572 3713 1747
Q 3713 922 3314 415
Q 2916 -91 2278 -91
Q 1894 -91 1617 61
Q 1341 213 1159 525
L 1159 0
L 581 0
L 581 4863
L 1159 4863
L 1159 2969
z
" transform="scale(0.015625)"/>
       <path id="DejaVuSans-b" d="M 1984 4856
Q 1566 4138 1362 3434
Q 1159 2731 1159 2009
Q 1159 1288 1364 580
Q 1569 -128 1984 -844
L 1484 -844
Q 1016 -109 783 600
Q 550 1309 550 2009
Q 550 2706 781 3412
Q 1013 4119 1484 4856
L 1984 4856
z
" transform="scale(0.015625)"/>
       <path id="DejaVuSans-4b" d="M 3513 2113
L 3513 0
L 2938 0
L 2938 2094
Q 2938 2591 2744 2837
Q 2550 3084 2163 3084
Q 1697 3084 1428 2787
Q 1159 2491 1159 1978
L 1159 0
L 581 0
L 581 4863
L 1159 4863
L 1159 2956
Q 1366 3272 1645 3428
Q 1925 3584 2291 3584
Q 2894 3584 3203 3211
Q 3513 2838 3513 2113
z
" transform="scale(0.015625)"/>
       <path id="DejaVuSans-c" d="M 513 4856
L 1013 4856
Q 1481 4119 1714 3412
Q 1947 2706 1947 2009
Q 1947 1309 1714 600
Q 1481 -109 1013 -844
L 513 -844
Q 928 -128 1133 580
Q 1338 1288 1338 2009
Q 1338 2731 1133 3434
Q 928 4138 513 4856
z
" transform="scale(0.015625)"/>
      </defs>
      <use xlink:href="#DejaVuSans-2a"/>
      <use xlink:href="#DejaVuSans-13" transform="translate(77.484375 0)"/>
      <use xlink:href="#DejaVuSans-14" transform="translate(141.109375 0)"/>
      <use xlink:href="#DejaVuSans-3" transform="translate(204.734375 0)"/>
      <use xlink:href="#DejaVuSans-56" transform="translate(236.515625 0)"/>
      <use xlink:href="#DejaVuSans-48" transform="translate(288.609375 0)"/>
      <use xlink:href="#DejaVuSans-55" transform="translate(350.140625 0)"/>
      <use xlink:href="#DejaVuSans-4c" transform="translate(391.25 0)"/>
      <use xlink:href="#DejaVuSans-44" transform="translate(419.03125 0)"/>
      <use xlink:href="#DejaVuSans-4f" transform="translate(480.3125 0)"/>
      <use xlink:href="#DejaVuSans-3" transform="translate(508.09375 0)"/>
      <use xlink:href="#DejaVuSans-54" transform="translate(539.875 0)"/>
      <use xlink:href="#DejaVuSans-58" transform="translate(603.359375 0)"/>
      <use xlink:href="#DejaVuSans-44" transform="translate(666.734375 0)"/>
      <use xlink:href="#DejaVuSans-4f" transform="translate(728.015625 0)"/>
      <use xlink:href="#DejaVuSans-4c" transform="translate(755.796875 0)"/>
      <use xlink:href="#DejaVuSans-13af" transform="translate(783.578125 0)"/>
      <use xlink:href="#DejaVuSans-46" transform="translate(846.5625 0)"/>
      <use xlink:href="#DejaVuSans-44" transform="translate(901.546875 0)"/>
      <use xlink:href="#DejaVuSans-57" transform="translate(962.828125 0)"/>
      <use xlink:href="#DejaVuSans-4c" transform="translate(1002.03125 0)"/>
      <use xlink:href="#DejaVuSans-52" transform="translate(1029.8125 0)"/>
      <use xlink:href="#DejaVuSans-51" transform="translate(1091 0)"/>
      <use xlink:href="#DejaVuSans-1e" transform="translate(1154.375 0)"/>
      <use xlink:href="#DejaVuSans-3" transform="translate(1188.0625 0)"/>
      <use xlink:href="#DejaVuSans-2a" transform="translate(1219.84375 0)"/>
      <use xlink:href="#DejaVuSans-13" transform="translate(1297.328125 0)"/>
      <use xlink:href="#DejaVuSans-15" transform="translate(1360.953125 0)"/>
      <use xlink:href="#DejaVuSans-10" transform="translate(1424.578125 0)"/>
      <use xlink:href="#DejaVuSans-2a" transform="translate(1464.3125 0)"/>
      <use xlink:href="#DejaVuSans-14" transform="translate(1541.796875 0)"/>
      <use xlink:href="#DejaVuSans-15" transform="translate(1605.421875 0)"/>
      <use xlink:href="#DejaVuSans-3" transform="translate(1669.046875 0)"/>
      <use xlink:href="#DejaVuSans-47" transform="translate(1700.828125 0)"/>
      <use xlink:href="#DejaVuSans-48" transform="translate(1764.3125 0)"/>
      <use xlink:href="#DejaVuSans-59" transform="translate(1825.84375 0)"/>
      <use xlink:href="#DejaVuSans-48" transform="translate(1885.03125 0)"/>
      <use xlink:href="#DejaVuSans-4f" transform="translate(1946.5625 0)"/>
      <use xlink:href="#DejaVuSans-52" transform="translate(1974.34375 0)"/>
      <use xlink:href="#DejaVuSans-53" transform="translate(2035.53125 0)"/>
      <use xlink:href="#DejaVuSans-50" transform="translate(2099.015625 0)"/>
      <use xlink:href="#DejaVuSans-48" transform="translate(2196.421875 0)"/>
      <use xlink:href="#DejaVuSans-51" transform="translate(2257.953125 0)"/>
      <use xlink:href="#DejaVuSans-57" transform="translate(2321.328125 0)"/>
      <use xlink:href="#DejaVuSans-1e" transform="translate(2360.53125 0)"/>
      <use xlink:href="#DejaVuSans-3" transform="translate(2394.21875 0)"/>
      <use xlink:href="#DejaVuSans-2a" transform="translate(2426 0)"/>
      <use xlink:href="#DejaVuSans-14" transform="translate(2503.484375 0)"/>
      <use xlink:href="#DejaVuSans-16" transform="translate(2567.109375 0)"/>
      <use xlink:href="#DejaVuSans-10" transform="translate(2630.734375 0)"/>
      <use xlink:href="#DejaVuSans-2a" transform="translate(2670.46875 0)"/>
      <use xlink:href="#DejaVuSans-14" transform="translate(2747.953125 0)"/>
      <use xlink:href="#DejaVuSans-17" transform="translate(2811.578125 0)"/>
      <use xlink:href="#DejaVuSans-3" transform="translate(2875.203125 0)"/>
      <use xlink:href="#DejaVuSans-46" transform="translate(2906.984375 0)"/>
      <use xlink:href="#DejaVuSans-44" transform="translate(2961.96875 0)"/>
      <use xlink:href="#DejaVuSans-4f" transform="translate(3023.25 0)"/>
      <use xlink:href="#DejaVuSans-4c" transform="translate(3051.03125 0)"/>
      <use xlink:href="#DejaVuSans-45" transform="translate(3078.8125 0)"/>
      <use xlink:href="#DejaVuSans-55" transform="translate(3142.296875 0)"/>
      <use xlink:href="#DejaVuSans-44" transform="translate(3183.40625 0)"/>
      <use xlink:href="#DejaVuSans-57" transform="translate(3244.6875 0)"/>
      <use xlink:href="#DejaVuSans-4c" transform="translate(3283.890625 0)"/>
      <use xlink:href="#DejaVuSans-52" transform="translate(3311.671875 0)"/>
      <use xlink:href="#DejaVuSans-51" transform="translate(3372.859375 0)"/>
      <use xlink:href="#DejaVuSans-3" transform="translate(3436.234375 0)"/>
      <use xlink:href="#DejaVuSans-b" transform="translate(3468.015625 0)"/>
      <use xlink:href="#DejaVuSans-4b" transform="translate(3507.03125 0)"/>
      <use xlink:href="#DejaVuSans-44" transform="translate(3570.40625 0)"/>
      <use xlink:href="#DejaVuSans-57" transform="translate(3631.6875 0)"/>
      <use xlink:href="#DejaVuSans-46" transform="translate(3670.890625 0)"/>
      <use xlink:href="#DejaVuSans-4b" transform="translate(3725.875 0)"/>
      <use xlink:href="#DejaVuSans-48" transform="translate(3789.25 0)"/>
      <use xlink:href="#DejaVuSans-47" transform="translate(3850.78125 0)"/>
      <use xlink:href="#DejaVuSans-c" transform="translate(3914.265625 0)"/>
     </g>
     <!-- G02-G14: 4.33 worker-h in 2.22 wall-h at effective concurrency 1.96 -->
     <g transform="translate(209.895151 336.1962) scale(0.1 -0.1)">
      <defs>
       <path id="DejaVuSans-1d" d="M 750 794
L 1409 794
L 1409 0
L 750 0
L 750 794
z
M 750 3309
L 1409 3309
L 1409 2516
L 750 2516
L 750 3309
z
" transform="scale(0.015625)"/>
       <path id="DejaVuSans-11" d="M 684 794
L 1344 794
L 1344 0
L 684 0
L 684 794
z
" transform="scale(0.015625)"/>
       <path id="DejaVuSans-5a" d="M 269 3500
L 844 3500
L 1563 769
L 2278 3500
L 2956 3500
L 3675 769
L 4391 3500
L 4966 3500
L 4050 0
L 3372 0
L 2619 2869
L 1863 0
L 1184 0
L 269 3500
z
" transform="scale(0.015625)"/>
       <path id="DejaVuSans-4e" d="M 581 4863
L 1159 4863
L 1159 1991
L 2875 3500
L 3609 3500
L 1753 1863
L 3688 0
L 2938 0
L 1159 1709
L 1159 0
L 581 0
L 581 4863
z
" transform="scale(0.015625)"/>
       <path id="DejaVuSans-13ae" d="M 4531 4863
L 4531 4384
L 3981 4384
Q 3672 4384 3551 4259
Q 3431 4134 3431 3809
L 3431 3500
L 4378 3500
L 4378 3053
L 3431 3053
L 3431 0
L 2853 0
L 2853 3053
L 1275 3053
L 1275 0
L 697 0
L 697 3053
L 147 3053
L 147 3500
L 697 3500
L 697 3744
Q 697 4328 969 4595
Q 1241 4863 1831 4863
L 2375 4863
L 2375 4384
L 1825 4384
Q 1516 4384 1394 4259
Q 1275 4134 1275 3809
L 1275 3500
L 2853 3500
L 2853 3744
Q 2853 4328 3125 4595
Q 3397 4863 3988 4863
L 4531 4863
z
" transform="scale(0.015625)"/>
       <path id="DejaVuSans-5c" d="M 2059 -325
Q 1816 -950 1584 -1140
Q 1353 -1331 966 -1331
L 506 -1331
L 506 -850
L 844 -850
Q 1081 -850 1212 -737
Q 1344 -625 1503 -206
L 1606 56
L 191 3500
L 800 3500
L 1894 763
L 2988 3500
L 3597 3500
L 2059 -325
z
" transform="scale(0.015625)"/>
      </defs>
      <use xlink:href="#DejaVuSans-2a"/>
      <use xlink:href="#DejaVuSans-13" transform="translate(77.484375 0)"/>
      <use xlink:href="#DejaVuSans-15" transform="translate(141.109375 0)"/>
      <use xlink:href="#DejaVuSans-10" transform="translate(204.734375 0)"/>
      <use xlink:href="#DejaVuSans-2a" transform="translate(244.46875 0)"/>
      <use xlink:href="#DejaVuSans-14" transform="translate(321.953125 0)"/>
      <use xlink:href="#DejaVuSans-17" transform="translate(385.578125 0)"/>
      <use xlink:href="#DejaVuSans-1d" transform="translate(449.203125 0)"/>
      <use xlink:href="#DejaVuSans-3" transform="translate(482.890625 0)"/>
      <use xlink:href="#DejaVuSans-17" transform="translate(514.671875 0)"/>
      <use xlink:href="#DejaVuSans-11" transform="translate(578.296875 0)"/>
      <use xlink:href="#DejaVuSans-16" transform="translate(610.078125 0)"/>
      <use xlink:href="#DejaVuSans-16" transform="translate(673.703125 0)"/>
      <use xlink:href="#DejaVuSans-3" transform="translate(737.328125 0)"/>
      <use xlink:href="#DejaVuSans-5a" transform="translate(769.109375 0)"/>
      <use xlink:href="#DejaVuSans-52" transform="translate(850.890625 0)"/>
      <use xlink:href="#DejaVuSans-55" transform="translate(912.078125 0)"/>
      <use xlink:href="#DejaVuSans-4e" transform="translate(953.1875 0)"/>
      <use xlink:href="#DejaVuSans-48" transform="translate(1007.53125 0)"/>
      <use xlink:href="#DejaVuSans-55" transform="translate(1069.0625 0)"/>
      <use xlink:href="#DejaVuSans-10" transform="translate(1103.78125 0)"/>
      <use xlink:href="#DejaVuSans-4b" transform="translate(1139.859375 0)"/>
      <use xlink:href="#DejaVuSans-3" transform="translate(1203.234375 0)"/>
      <use xlink:href="#DejaVuSans-4c" transform="translate(1235.015625 0)"/>
      <use xlink:href="#DejaVuSans-51" transform="translate(1262.796875 0)"/>
      <use xlink:href="#DejaVuSans-3" transform="translate(1326.171875 0)"/>
      <use xlink:href="#DejaVuSans-15" transform="translate(1357.953125 0)"/>
      <use xlink:href="#DejaVuSans-11" transform="translate(1421.578125 0)"/>
      <use xlink:href="#DejaVuSans-15" transform="translate(1453.359375 0)"/>
      <use xlink:href="#DejaVuSans-15" transform="translate(1516.984375 0)"/>
      <use xlink:href="#DejaVuSans-3" transform="translate(1580.609375 0)"/>
      <use xlink:href="#DejaVuSans-5a" transform="translate(1612.390625 0)"/>
      <use xlink:href="#DejaVuSans-44" transform="translate(1694.171875 0)"/>
      <use xlink:href="#DejaVuSans-4f" transform="translate(1755.453125 0)"/>
      <use xlink:href="#DejaVuSans-4f" transform="translate(1783.234375 0)"/>
      <use xlink:href="#DejaVuSans-10" transform="translate(1811.015625 0)"/>
      <use xlink:href="#DejaVuSans-4b" transform="translate(1847.09375 0)"/>
      <use xlink:href="#DejaVuSans-3" transform="translate(1910.46875 0)"/>
      <use xlink:href="#DejaVuSans-44" transform="translate(1942.25 0)"/>
      <use xlink:href="#DejaVuSans-57" transform="translate(2003.53125 0)"/>
      <use xlink:href="#DejaVuSans-3" transform="translate(2042.734375 0)"/>
      <use xlink:href="#DejaVuSans-48" transform="translate(2074.515625 0)"/>
      <use xlink:href="#DejaVuSans-13ae" transform="translate(2136.046875 0)"/>
      <use xlink:href="#DejaVuSans-48" transform="translate(2204.9375 0)"/>
      <use xlink:href="#DejaVuSans-46" transform="translate(2266.46875 0)"/>
      <use xlink:href="#DejaVuSans-57" transform="translate(2321.453125 0)"/>
      <use xlink:href="#DejaVuSans-4c" transform="translate(2360.65625 0)"/>
      <use xlink:href="#DejaVuSans-59" transform="translate(2388.4375 0)"/>
      <use xlink:href="#DejaVuSans-48" transform="translate(2447.625 0)"/>
      <use xlink:href="#DejaVuSans-3" transform="translate(2509.15625 0)"/>
      <use xlink:href="#DejaVuSans-46" transform="translate(2540.9375 0)"/>
      <use xlink:href="#DejaVuSans-52" transform="translate(2595.921875 0)"/>
      <use xlink:href="#DejaVuSans-51" transform="translate(2657.109375 0)"/>
      <use xlink:href="#DejaVuSans-46" transform="translate(2720.484375 0)"/>
      <use xlink:href="#DejaVuSans-58" transform="translate(2775.46875 0)"/>
      <use xlink:href="#DejaVuSans-55" transform="translate(2838.84375 0)"/>
      <use xlink:href="#DejaVuSans-55" transform="translate(2878.203125 0)"/>
      <use xlink:href="#DejaVuSans-48" transform="translate(2917.109375 0)"/>
      <use xlink:href="#DejaVuSans-51" transform="translate(2978.640625 0)"/>
      <use xlink:href="#DejaVuSans-46" transform="translate(3042.015625 0)"/>
      <use xlink:href="#DejaVuSans-5c" transform="translate(3097 0)"/>
      <use xlink:href="#DejaVuSans-3" transform="translate(3156.1875 0)"/>
      <use xlink:href="#DejaVuSans-14" transform="translate(3187.96875 0)"/>
      <use xlink:href="#DejaVuSans-11" transform="translate(3251.59375 0)"/>
      <use xlink:href="#DejaVuSans-1c" transform="translate(3283.375 0)"/>
      <use xlink:href="#DejaVuSans-19" transform="translate(3347 0)"/>
     </g>
    </g>
   </g>
   <g id="matplotlib.axis_2">
    <g id="ytick_1">
     <g id="line2d_29">
      <path d="M 39.653281 295.594051
L 721.19952 295.594051
" clip-path="url(#p09cda64721)" style="fill: none; stroke: #d7dce1; stroke-width: 0.6; stroke-linecap: square"/>
     </g>
     <g id="line2d_30">
      <defs>
       <path id="m12a980ddc3" d="M 0 0
L -3.5 0
" style="stroke: #000000; stroke-width: 0.8"/>
      </defs>
      <g>
       <use xlink:href="#m12a980ddc3" x="39.653281" y="295.594051" style="stroke: #000000; stroke-width: 0.8"/>
      </g>
     </g>
     <g id="text_16">
      <!-- 0 -->
      <g transform="translate(26.927031 299.012997) scale(0.09 -0.09)">
       <use xlink:href="#DejaVuSans-13"/>
      </g>
     </g>
    </g>
    <g id="ytick_2">
     <g id="line2d_31">
      <path d="M 39.653281 258.271688
L 721.19952 258.271688
" clip-path="url(#p09cda64721)" style="fill: none; stroke: #d7dce1; stroke-width: 0.6; stroke-linecap: square"/>
     </g>
     <g id="line2d_32">
      <g>
       <use xlink:href="#m12a980ddc3" x="39.653281" y="258.271688" style="stroke: #000000; stroke-width: 0.8"/>
      </g>
     </g>
     <g id="text_17">
      <!-- 5 -->
      <g transform="translate(26.927031 261.690633) scale(0.09 -0.09)">
       <use xlink:href="#DejaVuSans-18"/>
      </g>
     </g>
    </g>
    <g id="ytick_3">
     <g id="line2d_33">
      <path d="M 39.653281 220.949324
L 721.19952 220.949324
" clip-path="url(#p09cda64721)" style="fill: none; stroke: #d7dce1; stroke-width: 0.6; stroke-linecap: square"/>
     </g>
     <g id="line2d_34">
      <g>
       <use xlink:href="#m12a980ddc3" x="39.653281" y="220.949324" style="stroke: #000000; stroke-width: 0.8"/>
      </g>
     </g>
     <g id="text_18">
      <!-- 10 -->
      <g transform="translate(21.200781 224.368269) scale(0.09 -0.09)">
       <use xlink:href="#DejaVuSans-14"/>
       <use xlink:href="#DejaVuSans-13" transform="translate(63.625 0)"/>
      </g>
     </g>
    </g>
    <g id="ytick_4">
     <g id="line2d_35">
      <path d="M 39.653281 183.62696
L 721.19952 183.62696
" clip-path="url(#p09cda64721)" style="fill: none; stroke: #d7dce1; stroke-width: 0.6; stroke-linecap: square"/>
     </g>
     <g id="line2d_36">
      <g>
       <use xlink:href="#m12a980ddc3" x="39.653281" y="183.62696" style="stroke: #000000; stroke-width: 0.8"/>
      </g>
     </g>
     <g id="text_19">
      <!-- 15 -->
      <g transform="translate(21.200781 187.045906) scale(0.09 -0.09)">
       <use xlink:href="#DejaVuSans-14"/>
       <use xlink:href="#DejaVuSans-18" transform="translate(63.625 0)"/>
      </g>
     </g>
    </g>
    <g id="ytick_5">
     <g id="line2d_37">
      <path d="M 39.653281 146.304597
L 721.19952 146.304597
" clip-path="url(#p09cda64721)" style="fill: none; stroke: #d7dce1; stroke-width: 0.6; stroke-linecap: square"/>
     </g>
     <g id="line2d_38">
      <g>
       <use xlink:href="#m12a980ddc3" x="39.653281" y="146.304597" style="stroke: #000000; stroke-width: 0.8"/>
      </g>
     </g>
     <g id="text_20">
      <!-- 20 -->
      <g transform="translate(21.200781 149.723542) scale(0.09 -0.09)">
       <use xlink:href="#DejaVuSans-15"/>
       <use xlink:href="#DejaVuSans-13" transform="translate(63.625 0)"/>
      </g>
     </g>
    </g>
    <g id="ytick_6">
     <g id="line2d_39">
      <path d="M 39.653281 108.982233
L 721.19952 108.982233
" clip-path="url(#p09cda64721)" style="fill: none; stroke: #d7dce1; stroke-width: 0.6; stroke-linecap: square"/>
     </g>
     <g id="line2d_40">
      <g>
       <use xlink:href="#m12a980ddc3" x="39.653281" y="108.982233" style="stroke: #000000; stroke-width: 0.8"/>
      </g>
     </g>
     <g id="text_21">
      <!-- 25 -->
      <g transform="translate(21.200781 112.401179) scale(0.09 -0.09)">
       <use xlink:href="#DejaVuSans-15"/>
       <use xlink:href="#DejaVuSans-18" transform="translate(63.625 0)"/>
      </g>
     </g>
    </g>
    <g id="ytick_7">
     <g id="line2d_41">
      <path d="M 39.653281 71.65987
L 721.19952 71.65987
" clip-path="url(#p09cda64721)" style="fill: none; stroke: #d7dce1; stroke-width: 0.6; stroke-linecap: square"/>
     </g>
     <g id="line2d_42">
      <g>
       <use xlink:href="#m12a980ddc3" x="39.653281" y="71.65987" style="stroke: #000000; stroke-width: 0.8"/>
      </g>
     </g>
     <g id="text_22">
      <!-- 30 -->
      <g transform="translate(21.200781 75.078815) scale(0.09 -0.09)">
       <use xlink:href="#DejaVuSans-16"/>
       <use xlink:href="#DejaVuSans-13" transform="translate(63.625 0)"/>
      </g>
     </g>
    </g>
    <g id="ytick_8">
     <g id="line2d_43">
      <path d="M 39.653281 34.337506
L 721.19952 34.337506
" clip-path="url(#p09cda64721)" style="fill: none; stroke: #d7dce1; stroke-width: 0.6; stroke-linecap: square"/>
     </g>
     <g id="line2d_44">
      <g>
       <use xlink:href="#m12a980ddc3" x="39.653281" y="34.337506" style="stroke: #000000; stroke-width: 0.8"/>
      </g>
     </g>
     <g id="text_23">
      <!-- 35 -->
      <g transform="translate(21.200781 37.756451) scale(0.09 -0.09)">
       <use xlink:href="#DejaVuSans-16"/>
       <use xlink:href="#DejaVuSans-18" transform="translate(63.625 0)"/>
      </g>
     </g>
    </g>
    <g id="text_24">
     <!-- Wall time per 250-row group (min) -->
     <g transform="translate(14.798438 245.263119) rotate(-90) scale(0.1 -0.1)">
      <defs>
       <path id="DejaVuSans-3a" d="M 213 4666
L 850 4666
L 1831 722
L 2809 4666
L 3519 4666
L 4500 722
L 5478 4666
L 6119 4666
L 4947 0
L 4153 0
L 3169 4050
L 2175 0
L 1381 0
L 213 4666
z
" transform="scale(0.015625)"/>
       <path id="DejaVuSans-4a" d="M 2906 1791
Q 2906 2416 2648 2759
Q 2391 3103 1925 3103
Q 1463 3103 1205 2759
Q 947 2416 947 1791
Q 947 1169 1205 825
Q 1463 481 1925 481
Q 2391 481 2648 825
Q 2906 1169 2906 1791
z
M 3481 434
Q 3481 -459 3084 -895
Q 2688 -1331 1869 -1331
Q 1566 -1331 1297 -1286
Q 1028 -1241 775 -1147
L 775 -588
Q 1028 -725 1275 -790
Q 1522 -856 1778 -856
Q 2344 -856 2625 -561
Q 2906 -266 2906 331
L 2906 616
Q 2728 306 2450 153
Q 2172 0 1784 0
Q 1141 0 747 490
Q 353 981 353 1791
Q 353 2603 747 3093
Q 1141 3584 1784 3584
Q 2172 3584 2450 3431
Q 2728 3278 2906 2969
L 2906 3500
L 3481 3500
L 3481 434
z
" transform="scale(0.015625)"/>
      </defs>
      <use xlink:href="#DejaVuSans-3a"/>
      <use xlink:href="#DejaVuSans-44" transform="translate(92.484375 0)"/>
      <use xlink:href="#DejaVuSans-4f" transform="translate(153.765625 0)"/>
      <use xlink:href="#DejaVuSans-4f" transform="translate(181.546875 0)"/>
      <use xlink:href="#DejaVuSans-3" transform="translate(209.328125 0)"/>
      <use xlink:href="#DejaVuSans-57" transform="translate(241.109375 0)"/>
      <use xlink:href="#DejaVuSans-4c" transform="translate(280.3125 0)"/>
      <use xlink:href="#DejaVuSans-50" transform="translate(308.09375 0)"/>
      <use xlink:href="#DejaVuSans-48" transform="translate(405.5 0)"/>
      <use xlink:href="#DejaVuSans-3" transform="translate(467.03125 0)"/>
      <use xlink:href="#DejaVuSans-53" transform="translate(498.8125 0)"/>
      <use xlink:href="#DejaVuSans-48" transform="translate(562.296875 0)"/>
      <use xlink:href="#DejaVuSans-55" transform="translate(623.828125 0)"/>
      <use xlink:href="#DejaVuSans-3" transform="translate(664.9375 0)"/>
      <use xlink:href="#DejaVuSans-15" transform="translate(696.71875 0)"/>
      <use xlink:href="#DejaVuSans-18" transform="translate(760.34375 0)"/>
      <use xlink:href="#DejaVuSans-13" transform="translate(823.96875 0)"/>
      <use xlink:href="#DejaVuSans-10" transform="translate(887.59375 0)"/>
      <use xlink:href="#DejaVuSans-55" transform="translate(923.671875 0)"/>
      <use xlink:href="#DejaVuSans-52" transform="translate(962.578125 0)"/>
      <use xlink:href="#DejaVuSans-5a" transform="translate(1023.765625 0)"/>
      <use xlink:href="#DejaVuSans-3" transform="translate(1105.546875 0)"/>
      <use xlink:href="#DejaVuSans-4a" transform="translate(1137.328125 0)"/>
      <use xlink:href="#DejaVuSans-55" transform="translate(1200.8125 0)"/>
      <use xlink:href="#DejaVuSans-52" transform="translate(1239.71875 0)"/>
      <use xlink:href="#DejaVuSans-58" transform="translate(1300.90625 0)"/>
      <use xlink:href="#DejaVuSans-53" transform="translate(1364.28125 0)"/>
      <use xlink:href="#DejaVuSans-3" transform="translate(1427.765625 0)"/>
      <use xlink:href="#DejaVuSans-b" transform="translate(1459.546875 0)"/>
      <use xlink:href="#DejaVuSans-50" transform="translate(1498.5625 0)"/>
      <use xlink:href="#DejaVuSans-4c" transform="translate(1595.96875 0)"/>
      <use xlink:href="#DejaVuSans-51" transform="translate(1623.75 0)"/>
      <use xlink:href="#DejaVuSans-c" transform="translate(1687.125 0)"/>
     </g>
    </g>
   </g>
   <g id="patch_3">
    <path d="M 70.632656 295.594051
L 106.292367 295.594051
L 106.292367 239.506625
L 70.632656 239.506625
z
" clip-path="url(#p09cda64721)" style="fill: #0072b2; stroke: #1f2937; stroke-width: 0.5; stroke-linejoin: miter"/>
   </g>
   <g id="patch_4">
    <path d="M 115.207295 295.594051
L 150.867007 295.594051
L 150.867007 66.831102
L 115.207295 66.831102
z
" clip-path="url(#p09cda64721)" style="fill: #0072b2; stroke: #1f2937; stroke-width: 0.5; stroke-linejoin: miter"/>
   </g>
   <g id="patch_5">
    <path d="M 159.781935 295.594051
L 195.441646 295.594051
L 195.441646 87.624013
L 159.781935 87.624013
z
" clip-path="url(#p09cda64721)" style="fill: #0072b2; stroke: #1f2937; stroke-width: 0.5; stroke-linejoin: miter"/>
   </g>
   <g id="patch_6">
    <path d="M 204.356574 295.594051
L 240.016286 295.594051
L 240.016286 103.550834
L 204.356574 103.550834
z
" clip-path="url(#p09cda64721)" style="fill: #0072b2; stroke: #1f2937; stroke-width: 0.5; stroke-linejoin: miter"/>
   </g>
   <g id="patch_7">
    <path d="M 248.931214 295.594051
L 284.590926 295.594051
L 284.590926 121.131036
L 248.931214 121.131036
z
" clip-path="url(#p09cda64721)" style="fill: #0072b2; stroke: #1f2937; stroke-width: 0.5; stroke-linejoin: miter"/>
   </g>
   <g id="patch_8">
    <path d="M 293.505853 295.594051
L 329.165565 295.594051
L 329.165565 260.995101
L 293.505853 260.995101
z
" clip-path="url(#p09cda64721)" style="fill: #0072b2; stroke: #1f2937; stroke-width: 0.5; stroke-linejoin: miter"/>
   </g>
   <g id="patch_9">
    <path d="M 338.080493 295.594051
L 373.740205 295.594051
L 373.740205 228.555373
L 338.080493 228.555373
z
" clip-path="url(#p09cda64721)" style="fill: #0072b2; stroke: #1f2937; stroke-width: 0.5; stroke-linejoin: miter"/>
   </g>
   <g id="patch_10">
    <path d="M 382.655133 295.594051
L 418.314844 295.594051
L 418.314844 248.04959
L 382.655133 248.04959
z
" clip-path="url(#p09cda64721)" style="fill: #0072b2; stroke: #1f2937; stroke-width: 0.5; stroke-linejoin: miter"/>
   </g>
   <g id="patch_11">
    <path d="M 427.229772 295.594051
L 462.889484 295.594051
L 462.889484 57.962811
L 427.229772 57.962811
z
" clip-path="url(#p09cda64721)" style="fill: #0072b2; stroke: #1f2937; stroke-width: 0.5; stroke-linejoin: miter"/>
   </g>
   <g id="patch_12">
    <path d="M 471.804412 295.594051
L 507.464123 295.594051
L 507.464123 70.286282
L 471.804412 70.286282
z
" clip-path="url(#p09cda64721)" style="fill: #0072b2; stroke: #1f2937; stroke-width: 0.5; stroke-linejoin: miter"/>
   </g>
   <g id="patch_13">
    <path d="M 516.379051 295.594051
L 552.038763 295.594051
L 552.038763 101.333139
L 516.379051 101.333139
z
" clip-path="url(#p09cda64721)" style="fill: #0072b2; stroke: #1f2937; stroke-width: 0.5; stroke-linejoin: miter"/>
   </g>
   <g id="patch_14">
    <path d="M 560.953691 295.594051
L 596.613402 295.594051
L 596.613402 205.920603
L 560.953691 205.920603
z
" clip-path="url(#p09cda64721)" style="fill: #0072b2; stroke: #1f2937; stroke-width: 0.5; stroke-linejoin: miter"/>
   </g>
   <g id="patch_15">
    <path d="M 605.52833 295.594051
L 641.188042 295.594051
L 641.188042 101.566653
L 605.52833 101.566653
z
" clip-path="url(#p09cda64721)" style="fill: url(#h337b84edc6); stroke: #1f2937; stroke-width: 0.5; stroke-linejoin: miter"/>
   </g>
   <g id="patch_16">
    <path d="M 650.10297 295.594051
L 685.762682 295.594051
L 685.762682 247.639417
L 650.10297 247.639417
z
" clip-path="url(#p09cda64721)" style="fill: url(#h337b84edc6); stroke: #1f2937; stroke-width: 0.5; stroke-linejoin: miter"/>
   </g>
   <g id="LineCollection_1">
    <path d="M 110.749831 79.085623
L 690.220146 79.085623
" clip-path="url(#p09cda64721)" style="fill: none; stroke-dasharray: 3.7,1.6; stroke-dashoffset: 0; stroke: #5b6573"/>
   </g>
   <g id="patch_17">
    <path d="M 39.653281 295.594051
L 39.653281 22.318125
" style="fill: none; stroke: #000000; stroke-width: 0.8; stroke-linejoin: miter; stroke-linecap: square"/>
   </g>
   <g id="patch_18">
    <path d="M 39.653281 295.594051
L 721.19952 295.594051
" style="fill: none; stroke: #000000; stroke-width: 0.8; stroke-linejoin: miter; stroke-linecap: square"/>
   </g>
   <g id="text_25">
    <!-- 7.5 -->
    <g style="fill: #1f2937" transform="translate(82.896418 234.824985) scale(0.07 -0.07)">
     <use xlink:href="#DejaVuSans-1a"/>
     <use xlink:href="#DejaVuSans-11" transform="translate(63.625 0)"/>
     <use xlink:href="#DejaVuSans-18" transform="translate(95.40625 0)"/>
    </g>
   </g>
   <g id="text_26">
    <!-- 30.6 -->
    <g style="fill: #1f2937" transform="translate(125.244182 62.149462) scale(0.07 -0.07)">
     <use xlink:href="#DejaVuSans-16"/>
     <use xlink:href="#DejaVuSans-13" transform="translate(63.625 0)"/>
     <use xlink:href="#DejaVuSans-11" transform="translate(127.25 0)"/>
     <use xlink:href="#DejaVuSans-19" transform="translate(159.03125 0)"/>
    </g>
   </g>
   <g id="text_27">
    <!-- 27.9 -->
    <g style="fill: #1f2937" transform="translate(169.818822 82.942372) scale(0.07 -0.07)">
     <use xlink:href="#DejaVuSans-15"/>
     <use xlink:href="#DejaVuSans-1a" transform="translate(63.625 0)"/>
     <use xlink:href="#DejaVuSans-11" transform="translate(127.25 0)"/>
     <use xlink:href="#DejaVuSans-1c" transform="translate(159.03125 0)"/>
    </g>
   </g>
   <g id="text_28">
    <!-- 25.7 -->
    <g style="fill: #1f2937" transform="translate(214.393461 98.869193) scale(0.07 -0.07)">
     <use xlink:href="#DejaVuSans-15"/>
     <use xlink:href="#DejaVuSans-18" transform="translate(63.625 0)"/>
     <use xlink:href="#DejaVuSans-11" transform="translate(127.25 0)"/>
     <use xlink:href="#DejaVuSans-1a" transform="translate(159.03125 0)"/>
    </g>
   </g>
   <g id="text_29">
    <!-- 23.4 -->
    <g style="fill: #1f2937" transform="translate(258.968101 116.449395) scale(0.07 -0.07)">
     <use xlink:href="#DejaVuSans-15"/>
     <use xlink:href="#DejaVuSans-16" transform="translate(63.625 0)"/>
     <use xlink:href="#DejaVuSans-11" transform="translate(127.25 0)"/>
     <use xlink:href="#DejaVuSans-17" transform="translate(159.03125 0)"/>
    </g>
   </g>
   <g id="text_30">
    <!-- 4.6 -->
    <g style="fill: #1f2937" transform="translate(305.769616 256.31346) scale(0.07 -0.07)">
     <use xlink:href="#DejaVuSans-17"/>
     <use xlink:href="#DejaVuSans-11" transform="translate(63.625 0)"/>
     <use xlink:href="#DejaVuSans-19" transform="translate(95.40625 0)"/>
    </g>
   </g>
   <g id="text_31">
    <!-- 9.0 -->
    <g style="fill: #1f2937" transform="translate(350.344255 223.873732) scale(0.07 -0.07)">
     <use xlink:href="#DejaVuSans-1c"/>
     <use xlink:href="#DejaVuSans-11" transform="translate(63.625 0)"/>
     <use xlink:href="#DejaVuSans-13" transform="translate(95.40625 0)"/>
    </g>
   </g>
   <g id="text_32">
    <!-- 6.4 -->
    <g style="fill: #1f2937" transform="translate(394.918895 243.367949) scale(0.07 -0.07)">
     <use xlink:href="#DejaVuSans-19"/>
     <use xlink:href="#DejaVuSans-11" transform="translate(63.625 0)"/>
     <use xlink:href="#DejaVuSans-17" transform="translate(95.40625 0)"/>
    </g>
   </g>
   <g id="text_33">
    <!-- 31.8 -->
    <g style="fill: #1f2937" transform="translate(437.266659 53.28117) scale(0.07 -0.07)">
     <use xlink:href="#DejaVuSans-16"/>
     <use xlink:href="#DejaVuSans-14" transform="translate(63.625 0)"/>
     <use xlink:href="#DejaVuSans-11" transform="translate(127.25 0)"/>
     <use xlink:href="#DejaVuSans-1b" transform="translate(159.03125 0)"/>
    </g>
   </g>
   <g id="text_34">
    <!-- 30.2 -->
    <g style="fill: #1f2937" transform="translate(481.841299 65.604642) scale(0.07 -0.07)">
     <use xlink:href="#DejaVuSans-16"/>
     <use xlink:href="#DejaVuSans-13" transform="translate(63.625 0)"/>
     <use xlink:href="#DejaVuSans-11" transform="translate(127.25 0)"/>
     <use xlink:href="#DejaVuSans-15" transform="translate(159.03125 0)"/>
    </g>
   </g>
   <g id="text_35">
    <!-- 26.0 -->
    <g style="fill: #1f2937" transform="translate(526.415938 96.651499) scale(0.07 -0.07)">
     <use xlink:href="#DejaVuSans-15"/>
     <use xlink:href="#DejaVuSans-19" transform="translate(63.625 0)"/>
     <use xlink:href="#DejaVuSans-11" transform="translate(127.25 0)"/>
     <use xlink:href="#DejaVuSans-13" transform="translate(159.03125 0)"/>
    </g>
   </g>
   <g id="text_36">
    <!-- 12.0 -->
    <g style="fill: #1f2937" transform="translate(570.990578 201.238963) scale(0.07 -0.07)">
     <use xlink:href="#DejaVuSans-14"/>
     <use xlink:href="#DejaVuSans-15" transform="translate(63.625 0)"/>
     <use xlink:href="#DejaVuSans-11" transform="translate(127.25 0)"/>
     <use xlink:href="#DejaVuSans-13" transform="translate(159.03125 0)"/>
    </g>
   </g>
   <g id="text_37">
    <!-- 26.0 -->
    <g style="fill: #1f2937" transform="translate(615.565217 96.885012) scale(0.07 -0.07)">
     <use xlink:href="#DejaVuSans-15"/>
     <use xlink:href="#DejaVuSans-19" transform="translate(63.625 0)"/>
     <use xlink:href="#DejaVuSans-11" transform="translate(127.25 0)"/>
     <use xlink:href="#DejaVuSans-13" transform="translate(159.03125 0)"/>
    </g>
   </g>
   <g id="text_38">
    <!-- 6.4 -->
    <g style="fill: #1f2937" transform="translate(662.366732 242.957776) scale(0.07 -0.07)">
     <use xlink:href="#DejaVuSans-19"/>
     <use xlink:href="#DejaVuSans-11" transform="translate(63.625 0)"/>
     <use xlink:href="#DejaVuSans-17" transform="translate(95.40625 0)"/>
    </g>
   </g>
   <g id="text_39">
    <!-- D003-v1 F2 generation runtime on the reference laptop -->
    <g transform="translate(213.151088 16.318125) scale(0.12 -0.12)">
     <defs>
      <path id="DejaVuSans-27" d="M 1259 4147
L 1259 519
L 2022 519
Q 2988 519 3436 956
Q 3884 1394 3884 2338
Q 3884 3275 3436 3711
Q 2988 4147 2022 4147
L 1259 4147
z
M 628 4666
L 1925 4666
Q 3281 4666 3915 4102
Q 4550 3538 4550 2338
Q 4550 1131 3912 565
Q 3275 0 1925 0
L 628 0
L 628 4666
z
" transform="scale(0.015625)"/>
      <path id="DejaVuSans-29" d="M 628 4666
L 3309 4666
L 3309 4134
L 1259 4134
L 1259 2759
L 3109 2759
L 3109 2228
L 1259 2228
L 1259 0
L 628 0
L 628 4666
z
" transform="scale(0.015625)"/>
      <path id="DejaVuSans-49" d="M 2375 4863
L 2375 4384
L 1825 4384
Q 1516 4384 1395 4259
Q 1275 4134 1275 3809
L 1275 3500
L 2222 3500
L 2222 3053
L 1275 3053
L 1275 0
L 697 0
L 697 3053
L 147 3053
L 147 3500
L 697 3500
L 697 3744
Q 697 4328 969 4595
Q 1241 4863 1831 4863
L 2375 4863
z
" transform="scale(0.015625)"/>
     </defs>
     <use xlink:href="#DejaVuSans-27"/>
     <use xlink:href="#DejaVuSans-13" transform="translate(77 0)"/>
     <use xlink:href="#DejaVuSans-13" transform="translate(140.625 0)"/>
     <use xlink:href="#DejaVuSans-16" transform="translate(204.25 0)"/>
     <use xlink:href="#DejaVuSans-10" transform="translate(267.875 0)"/>
     <use xlink:href="#DejaVuSans-59" transform="translate(301.265625 0)"/>
     <use xlink:href="#DejaVuSans-14" transform="translate(360.453125 0)"/>
     <use xlink:href="#DejaVuSans-3" transform="translate(424.078125 0)"/>
     <use xlink:href="#DejaVuSans-29" transform="translate(455.859375 0)"/>
     <use xlink:href="#DejaVuSans-15" transform="translate(513.375 0)"/>
     <use xlink:href="#DejaVuSans-3" transform="translate(577 0)"/>
     <use xlink:href="#DejaVuSans-4a" transform="translate(608.78125 0)"/>
     <use xlink:href="#DejaVuSans-48" transform="translate(672.265625 0)"/>
     <use xlink:href="#DejaVuSans-51" transform="translate(733.796875 0)"/>
     <use xlink:href="#DejaVuSans-48" transform="translate(797.171875 0)"/>
     <use xlink:href="#DejaVuSans-55" transform="translate(858.703125 0)"/>
     <use xlink:href="#DejaVuSans-44" transform="translate(899.8125 0)"/>
     <use xlink:href="#DejaVuSans-57" transform="translate(961.09375 0)"/>
     <use xlink:href="#DejaVuSans-4c" transform="translate(1000.296875 0)"/>
     <use xlink:href="#DejaVuSans-52" transform="translate(1028.078125 0)"/>
     <use xlink:href="#DejaVuSans-51" transform="translate(1089.265625 0)"/>
     <use xlink:href="#DejaVuSans-3" transform="translate(1152.640625 0)"/>
     <use xlink:href="#DejaVuSans-55" transform="translate(1184.421875 0)"/>
     <use xlink:href="#DejaVuSans-58" transform="translate(1225.53125 0)"/>
     <use xlink:href="#DejaVuSans-51" transform="translate(1288.90625 0)"/>
     <use xlink:href="#DejaVuSans-57" transform="translate(1352.28125 0)"/>
     <use xlink:href="#DejaVuSans-4c" transform="translate(1391.484375 0)"/>
     <use xlink:href="#DejaVuSans-50" transform="translate(1419.265625 0)"/>
     <use xlink:href="#DejaVuSans-48" transform="translate(1516.671875 0)"/>
     <use xlink:href="#DejaVuSans-3" transform="translate(1578.203125 0)"/>
     <use xlink:href="#DejaVuSans-52" transform="translate(1609.984375 0)"/>
     <use xlink:href="#DejaVuSans-51" transform="translate(1671.171875 0)"/>
     <use xlink:href="#DejaVuSans-3" transform="translate(1734.546875 0)"/>
     <use xlink:href="#DejaVuSans-57" transform="translate(1766.328125 0)"/>
     <use xlink:href="#DejaVuSans-4b" transform="translate(1805.53125 0)"/>
     <use xlink:href="#DejaVuSans-48" transform="translate(1868.90625 0)"/>
     <use xlink:href="#DejaVuSans-3" transform="translate(1930.4375 0)"/>
     <use xlink:href="#DejaVuSans-55" transform="translate(1962.21875 0)"/>
     <use xlink:href="#DejaVuSans-48" transform="translate(2001.125 0)"/>
     <use xlink:href="#DejaVuSans-49" transform="translate(2062.65625 0)"/>
     <use xlink:href="#DejaVuSans-48" transform="translate(2097.859375 0)"/>
     <use xlink:href="#DejaVuSans-55" transform="translate(2159.390625 0)"/>
     <use xlink:href="#DejaVuSans-48" transform="translate(2198.296875 0)"/>
     <use xlink:href="#DejaVuSans-51" transform="translate(2259.828125 0)"/>
     <use xlink:href="#DejaVuSans-46" transform="translate(2323.203125 0)"/>
     <use xlink:href="#DejaVuSans-48" transform="translate(2378.1875 0)"/>
     <use xlink:href="#DejaVuSans-3" transform="translate(2439.71875 0)"/>
     <use xlink:href="#DejaVuSans-4f" transform="translate(2471.5 0)"/>
     <use xlink:href="#DejaVuSans-44" transform="translate(2499.28125 0)"/>
     <use xlink:href="#DejaVuSans-53" transform="translate(2560.5625 0)"/>
     <use xlink:href="#DejaVuSans-57" transform="translate(2624.046875 0)"/>
     <use xlink:href="#DejaVuSans-52" transform="translate(2663.25 0)"/>
     <use xlink:href="#DejaVuSans-53" transform="translate(2724.4375 0)"/>
    </g>
   </g>
   <g id="legend_1">
    <g id="line2d_45">
     <path d="M 47.753281 34.106719
L 65.753281 34.106719
" style="fill: none; stroke-dasharray: 3.7,1.6; stroke-dashoffset: 0; stroke: #5b6573"/>
    </g>
    <g id="text_40">
     <!-- Pre-scale-up projection: 29.0 min/group -->
     <g transform="translate(72.953281 37.256719) scale(0.09 -0.09)">
      <defs>
       <path id="DejaVuSans-33" d="M 1259 4147
L 1259 2394
L 2053 2394
Q 2494 2394 2734 2622
Q 2975 2850 2975 3272
Q 2975 3691 2734 3919
Q 2494 4147 2053 4147
L 1259 4147
z
M 628 4666
L 2053 4666
Q 2838 4666 3239 4311
Q 3641 3956 3641 3272
Q 3641 2581 3239 2228
Q 2838 1875 2053 1875
L 1259 1875
L 1259 0
L 628 0
L 628 4666
z
" transform="scale(0.015625)"/>
       <path id="DejaVuSans-4d" d="M 603 3500
L 1178 3500
L 1178 -63
Q 1178 -731 923 -1031
Q 669 -1331 103 -1331
L -116 -1331
L -116 -844
L 38 -844
Q 366 -844 484 -692
Q 603 -541 603 -63
L 603 3500
z
M 603 4863
L 1178 4863
L 1178 4134
L 603 4134
L 603 4863
z
" transform="scale(0.015625)"/>
       <path id="DejaVuSans-12" d="M 1625 4666
L 2156 4666
L 531 -594
L 0 -594
L 1625 4666
z
" transform="scale(0.015625)"/>
      </defs>
      <use xlink:href="#DejaVuSans-33"/>
      <use xlink:href="#DejaVuSans-55" transform="translate(58.546875 0)"/>
      <use xlink:href="#DejaVuSans-48" transform="translate(97.453125 0)"/>
      <use xlink:href="#DejaVuSans-10" transform="translate(158.984375 0)"/>
      <use xlink:href="#DejaVuSans-56" transform="translate(195.0625 0)"/>
      <use xlink:href="#DejaVuSans-46" transform="translate(247.15625 0)"/>
      <use xlink:href="#DejaVuSans-44" transform="translate(302.140625 0)"/>
      <use xlink:href="#DejaVuSans-4f" transform="translate(363.421875 0)"/>
      <use xlink:href="#DejaVuSans-48" transform="translate(391.203125 0)"/>
      <use xlink:href="#DejaVuSans-10" transform="translate(452.734375 0)"/>
      <use xlink:href="#DejaVuSans-58" transform="translate(488.8125 0)"/>
      <use xlink:href="#DejaVuSans-53" transform="translate(552.1875 0)"/>
      <use xlink:href="#DejaVuSans-3" transform="translate(615.671875 0)"/>
      <use xlink:href="#DejaVuSans-53" transform="translate(647.453125 0)"/>
      <use xlink:href="#DejaVuSans-55" transform="translate(710.9375 0)"/>
      <use xlink:href="#DejaVuSans-52" transform="translate(749.84375 0)"/>
      <use xlink:href="#DejaVuSans-4d" transform="translate(811.03125 0)"/>
      <use xlink:href="#DejaVuSans-48" transform="translate(838.8125 0)"/>
      <use xlink:href="#DejaVuSans-46" transform="translate(900.34375 0)"/>
      <use xlink:href="#DejaVuSans-57" transform="translate(955.328125 0)"/>
      <use xlink:href="#DejaVuSans-4c" transform="translate(994.53125 0)"/>
      <use xlink:href="#DejaVuSans-52" transform="translate(1022.3125 0)"/>
      <use xlink:href="#DejaVuSans-51" transform="translate(1083.5 0)"/>
      <use xlink:href="#DejaVuSans-1d" transform="translate(1146.875 0)"/>
      <use xlink:href="#DejaVuSans-3" transform="translate(1180.5625 0)"/>
      <use xlink:href="#DejaVuSans-15" transform="translate(1212.34375 0)"/>
      <use xlink:href="#DejaVuSans-1c" transform="translate(1275.96875 0)"/>
      <use xlink:href="#DejaVuSans-11" transform="translate(1339.59375 0)"/>
      <use xlink:href="#DejaVuSans-13" transform="translate(1371.375 0)"/>
      <use xlink:href="#DejaVuSans-3" transform="translate(1435 0)"/>
      <use xlink:href="#DejaVuSans-50" transform="translate(1466.78125 0)"/>
      <use xlink:href="#DejaVuSans-4c" transform="translate(1564.1875 0)"/>
      <use xlink:href="#DejaVuSans-51" transform="translate(1591.96875 0)"/>
      <use xlink:href="#DejaVuSans-12" transform="translate(1655.34375 0)"/>
      <use xlink:href="#DejaVuSans-4a" transform="translate(1689.03125 0)"/>
      <use xlink:href="#DejaVuSans-55" transform="translate(1752.515625 0)"/>
      <use xlink:href="#DejaVuSans-52" transform="translate(1791.421875 0)"/>
      <use xlink:href="#DejaVuSans-58" transform="translate(1852.609375 0)"/>
      <use xlink:href="#DejaVuSans-53" transform="translate(1915.984375 0)"/>
     </g>
    </g>
   </g>
  </g>
 </g>
 <defs>
  <clipPath id="p09cda64721">
   <rect x="39.653281" y="22.318125" width="681.546239" height="273.275926"/>
  </clipPath>
 </defs>
 <defs>
  <pattern id="h337b84edc6" patternUnits="userSpaceOnUse" x="0" y="0" width="72" height="72">
   <rect x="0" y="0" width="73" height="73" fill="#cc79a7"/>
   <path d="M -36 36
L 36 -36
M -30 42
L 42 -30
M -24 48
L 48 -24
M -18 54
L 54 -18
M -12 60
L 60 -12
M -6 66
L 66 -6
M 0 72
L 72 0
M 6 78
L 78 6
M 12 84
L 84 12
M 18 90
L 90 18
M 24 96
L 96 24
M 30 102
L 102 30
M 36 108
L 108 36
" style="fill: #1f2937; stroke: #1f2937; stroke-width: 1.0; stroke-linecap: butt; stroke-linejoin: miter"/>
  </pattern>
 </defs>
</svg>
