<?xml version="1.0" encoding="utf-8" standalone="no"?>
<!DOCTYPE svg PUBLIC "-//W3C//DTD SVG 1.1//EN"
  "http://www.w3.org/Graphics/SVG/1.1/DTD/svg11.dtd">
<svg xmlns:xlink="http://www.w3.org/1999/xlink" width="526.79952pt" height="310.795831pt" viewBox="0 0 526.79952 310.795831" xmlns="http://www.w3.org/2000/svg" version="1.1">
 <metadata>
  <rdf:RDF xmlns:dc="http://purl.org/dc/elements/1.1/" xmlns:cc="http://creativecommons.org/ns#" xmlns:rdf="http://www.w3.org/1999/02/22-rdf-syntax-ns#">
   <cc:Work>
    <dc:type rdf:resource="http://purl.org/dc/dcmitype/StillImage"/>
    <dc:format>image/svg+xml</dc:format>
    <dc:creator>
     <cc:Agent>
      <dc:title>QMLforArtemisIV make_research_figures.py</dc:title>
     </cc:Agent>
    </dc:creator>
   </cc:Work>
  </rdf:RDF>
 </metadata>
 <defs>
  <style type="text/css">*{stroke-linejoin: round; stroke-linecap: butt}</style>
 </defs>
 <g id="figure_1">
  <g id="patch_1">
   <path d="M 0 310.795831
L 526.79952 310.795831
L 526.79952 0
L 0 0
z
" style="fill: #ffffff"/>
  </g>
  <g id="axes_1">
   <g id="patch_2">
    <path d="M 39.653281 258.09331
L 519.59952 258.09331
L 519.59952 22.318125
L 39.653281 22.318125
z
" style="fill: #ffffff"/>
   </g>
   <g id="matplotlib.axis_1">
    <g id="xtick_1">
     <g id="line2d_1">
      <path d="M 158.427855 258.09331
L 158.427855 22.318125
" clip-path="url(#p4d5b41b3e7)" style="fill: none; stroke: #d7dce1; stroke-width: 0.6; stroke-linecap: square"/>
     </g>
     <g id="line2d_2">
      <defs>
       <path id="m4fb4cdcd68" d="M 0 0
L 0 3.5
" style="stroke: #000000; stroke-width: 0.8"/>
      </defs>
      <g>
       <use xlink:href="#m4fb4cdcd68" x="158.427855" y="258.09331" style="stroke: #000000; stroke-width: 0.8"/>
      </g>
     </g>
     <g id="text_1">
      <!-- Pre-D003 invalid -->
      <g transform="translate(121.285277 271.931904) scale(0.09 -0.09)">
       <defs>
        <path id="DejaVuSans-33" d="M 1259 4147
L 1259 2394
L 2053 2394
Q 2494 2394 2734 2622
Q 2975 2850 2975 3272
Q 2975 3691 2734 3919
Q 2494 4147 2053 4147
L 1259 4147
z
M 628 4666
L 2053 4666
Q 2838 4666 3239 4311
Q 3641 3956 3641 3272
Q 3641 2581 3239 2228
Q 2838 1875 2053 1875
L 1259 1875
L 1259 0
L 628 0
L 628 4666
z
" transform="scale(0.015625)"/>
        <path id="DejaVuSans-55" d="M 2631 2963
Q 2534 3019 2420 3045
Q 2306 3072 2169 3072
Q 1681 3072 1420 2755
Q 1159 2438 1159 1844
L 1159 0
L 581 0
L 581 3500
L 1159 3500
L 1159 2956
Q 1341 3275 1631 3429
Q 1922 3584 2338 3584
Q 2397 3584 2469 3576
Q 2541 3569 2628 3553
L 2631 2963
z
" transform="scale(0.015625)"/>
        <path id="DejaVuSans-48" d="M 3597 1894
L 3597 1613
L 953 1613
Q 991 1019 1311 708
Q 1631 397 2203 397
Q 2534 397 2845 478
Q 3156 559 3463 722
L 3463 178
Q 3153 47 2828 -22
Q 2503 -91 2169 -91
Q 1331 -91 842 396
Q 353 884 353 1716
Q 353 2575 817 3079
Q 1281 3584 2069 3584
Q 2775 3584 3186 3129
Q 3597 2675 3597 1894
z
M 3022 2063
Q 3016 2534 2758 2815
Q 2500 3097 2075 3097
Q 1594 3097 1305 2825
Q 1016 2553 972 2059
L 3022 2063
z
" transform="scale(0.015625)"/>
        <path id="DejaVuSans-10" d="M 313 2009
L 1997 2009
L 1997 1497
L 313 1497
L 313 2009
z
" transform="scale(0.015625)"/>
        <path id="DejaVuSans-27" d="M 1259 4147
L 1259 519
L 2022 519
Q 2988 519 3436 956
Q 3884 1394 3884 2338
Q 3884 3275 3436 3711
Q 2988 4147 2022 4147
L 1259 4147
z
M 628 4666
L 1925 4666
Q 3281 4666 3915 4102
Q 4550 3538 4550 2338
Q 4550 1131 3912 565
Q 3275 0 1925 0
L 628 0
L 628 4666
z
" transform="scale(0.015625)"/>
        <path id="DejaVuSans-13" d="M 2034 4250
Q 1547 4250 1301 3770
Q 1056 3291 1056 2328
Q 1056 1369 1301 889
Q 1547 409 2034 409
Q 2525 409 2770 889
Q 3016 1369 3016 2328
Q 3016 3291 2770 3770
Q 2525 4250 2034 4250
z
M 2034 4750
Q 2819 4750 3233 4129
Q 3647 3509 3647 2328
Q 3647 1150 3233 529
Q 2819 -91 2034 -91
Q 1250 -91 836 529
Q 422 1150 422 2328
Q 422 3509 836 4129
Q 1250 4750 2034 4750
z
" transform="scale(0.015625)"/>
        <path id="DejaVuSans-16" d="M 2597 2516
Q 3050 2419 3304 2112
Q 3559 1806 3559 1356
Q 3559 666 3084 287
Q 2609 -91 1734 -91
Q 1441 -91 1130 -33
Q 819 25 488 141
L 488 750
Q 750 597 1062 519
Q 1375 441 1716 441
Q 2309 441 2620 675
Q 2931 909 2931 1356
Q 2931 1769 2642 2001
Q 2353 2234 1838 2234
L 1294 2234
L 1294 2753
L 1863 2753
Q 2328 2753 2575 2939
Q 2822 3125 2822 3475
Q 2822 3834 2567 4026
Q 2313 4219 1838 4219
Q 1578 4219 1281 4162
Q 984 4106 628 3988
L 628 4550
Q 988 4650 1302 4700
Q 1616 4750 1894 4750
Q 2613 4750 3031 4423
Q 3450 4097 3450 3541
Q 3450 3153 3228 2886
Q 3006 2619 2597 2516
z
" transform="scale(0.015625)"/>
        <path id="DejaVuSans-3" transform="scale(0.015625)"/>
        <path id="DejaVuSans-4c" d="M 603 3500
L 1178 3500
L 1178 0
L 603 0
L 603 3500
z
M 603 4863
L 1178 4863
L 1178 4134
L 603 4134
L 603 4863
z
" transform="scale(0.015625)"/>
        <path id="DejaVuSans-51" d="M 3513 2113
L 3513 0
L 2938 0
L 2938 2094
Q 2938 2591 2744 2837
Q 2550 3084 2163 3084
Q 1697 3084 1428 2787
Q 1159 2491 1159 1978
L 1159 0
L 581 0
L 581 3500
L 1159 3500
L 1159 2956
Q 1366 3272 1645 3428
Q 1925 3584 2291 3584
Q 2894 3584 3203 3211
Q 3513 2838 3513 2113
z
" transform="scale(0.015625)"/>
        <path id="DejaVuSans-59" d="M 191 3500
L 800 3500
L 1894 563
L 2988 3500
L 3597 3500
L 2284 0
L 1503 0
L 191 3500
z
" transform="scale(0.015625)"/>
        <path id="DejaVuSans-44" d="M 2194 1759
Q 1497 1759 1228 1600
Q 959 1441 959 1056
Q 959 750 1161 570
Q 1363 391 1709 391
Q 2188 391 2477 730
Q 2766 1069 2766 1631
L 2766 1759
L 2194 1759
z
M 3341 1997
L 3341 0
L 2766 0
L 2766 531
Q 2569 213 2275 61
Q 1981 -91 1556 -91
Q 1019 -91 701 211
Q 384 513 384 1019
Q 384 1609 779 1909
Q 1175 2209 1959 2209
L 2766 2209
L 2766 2266
Q 2766 2663 2505 2880
Q 2244 3097 1772 3097
Q 1472 3097 1187 3025
Q 903 2953 641 2809
L 641 3341
Q 956 3463 1253 3523
Q 1550 3584 1831 3584
Q 2591 3584 2966 3190
Q 3341 2797 3341 1997
z
" transform="scale(0.015625)"/>
        <path id="DejaVuSans-4f" d="M 603 4863
L 1178 4863
L 1178 0
L 603 0
L 603 4863
z
" transform="scale(0.015625)"/>
        <path id="DejaVuSans-47" d="M 2906 2969
L 2906 4863
L 3481 4863
L 3481 0
L 2906 0
L 2906 525
Q 2725 213 2448 61
Q 2172 -91 1784 -91
Q 1150 -91 751 415
Q 353 922 353 1747
Q 353 2572 751 3078
Q 1150 3584 1784 3584
Q 2172 3584 2448 3432
Q 2725 3281 2906 2969
z
M 947 1747
Q 947 1113 1208 752
Q 1469 391 1925 391
Q 2381 391 2643 752
Q 2906 1113 2906 1747
Q 2906 2381 2643 2742
Q 2381 3103 1925 3103
Q 1469 3103 1208 2742
Q 947 2381 947 1747
z
" transform="scale(0.015625)"/>
       </defs>
       <use xlink:href="#DejaVuSans-33"/>
       <use xlink:href="#DejaVuSans-55" transform="translate(58.546875 0)"/>
       <use xlink:href="#DejaVuSans-48" transform="translate(97.453125 0)"/>
       <use xlink:href="#DejaVuSans-10" transform="translate(158.984375 0)"/>
       <use xlink:href="#DejaVuSans-27" transform="translate(195.0625 0)"/>
       <use xlink:href="#DejaVuSans-13" transform="translate(272.0625 0)"/>
       <use xlink:href="#DejaVuSans-13" transform="translate(335.6875 0)"/>
       <use xlink:href="#DejaVuSans-16" transform="translate(399.3125 0)"/>
       <use xlink:href="#DejaVuSans-3" transform="translate(462.9375 0)"/>
       <use xlink:href="#DejaVuSans-4c" transform="translate(494.71875 0)"/>
       <use xlink:href="#DejaVuSans-51" transform="translate(522.5 0)"/>
       <use xlink:href="#DejaVuSans-59" transform="translate(585.875 0)"/>
       <use xlink:href="#DejaVuSans-44" transform="translate(645.0625 0)"/>
       <use xlink:href="#DejaVuSans-4f" transform="translate(706.34375 0)"/>
       <use xlink:href="#DejaVuSans-4c" transform="translate(734.125 0)"/>
       <use xlink:href="#DejaVuSans-47" transform="translate(761.90625 0)"/>
      </g>
     </g>
    </g>
    <g id="xtick_2">
     <g id="line2d_3">
      <path d="M 400.824946 258.09331
L 400.824946 22.318125
" clip-path="url(#p4d5b41b3e7)" style="fill: none; stroke: #d7dce1; stroke-width: 0.6; stroke-linecap: square"/>
     </g>
     <g id="line2d_4">
      <g>
       <use xlink:href="#m4fb4cdcd68" x="400.824946" y="258.09331" style="stroke: #000000; stroke-width: 0.8"/>
      </g>
     </g>
     <g id="text_2">
      <!-- D003-v1 valid -->
      <g transform="translate(369.533071 271.931904) scale(0.09 -0.09)">
       <defs>
        <path id="DejaVuSans-14" d="M 794 531
L 1825 531
L 1825 4091
L 703 3866
L 703 4441
L 1819 4666
L 2450 4666
L 2450 531
L 3481 531
L 3481 0
L 794 0
L 794 531
z
" transform="scale(0.015625)"/>
       </defs>
       <use xlink:href="#DejaVuSans-27"/>
       <use xlink:href="#DejaVuSans-13" transform="translate(77 0)"/>
       <use xlink:href="#DejaVuSans-13" transform="translate(140.625 0)"/>
       <use xlink:href="#DejaVuSans-16" transform="translate(204.25 0)"/>
       <use xlink:href="#DejaVuSans-10" transform="translate(267.875 0)"/>
       <use xlink:href="#DejaVuSans-59" transform="translate(301.265625 0)"/>
       <use xlink:href="#DejaVuSans-14" transform="translate(360.453125 0)"/>
       <use xlink:href="#DejaVuSans-3" transform="translate(424.078125 0)"/>
       <use xlink:href="#DejaVuSans-59" transform="translate(455.859375 0)"/>
       <use xlink:href="#DejaVuSans-44" transform="translate(515.046875 0)"/>
       <use xlink:href="#DejaVuSans-4f" transform="translate(576.328125 0)"/>
       <use xlink:href="#DejaVuSans-4c" transform="translate(604.109375 0)"/>
       <use xlink:href="#DejaVuSans-47" transform="translate(631.890625 0)"/>
      </g>
     </g>
    </g>
   </g>
   <g id="matplotlib.axis_2">
    <g id="ytick_1">
     <g id="line2d_5">
      <path d="M 39.653281 258.09331
L 519.59952 258.09331
" clip-path="url(#p4d5b41b3e7)" style="fill: none; stroke: #d7dce1; stroke-width: 0.6; stroke-linecap: square"/>
     </g>
     <g id="line2d_6">
      <defs>
       <path id="m12a980ddc3" d="M 0 0
L -3.5 0
" style="stroke: #000000; stroke-width: 0.8"/>
      </defs>
      <g>
       <use xlink:href="#m12a980ddc3" x="39.653281" y="258.09331" style="stroke: #000000; stroke-width: 0.8"/>
      </g>
     </g>
     <g id="text_3">
      <!-- 0 -->
      <g transform="translate(26.927031 261.512255) scale(0.09 -0.09)">
       <use xlink:href="#DejaVuSans-13"/>
      </g>
     </g>
    </g>
    <g id="ytick_2">
     <g id="line2d_7">
      <path d="M 39.653281 217.944586
L 519.59952 217.944586
" clip-path="url(#p4d5b41b3e7)" style="fill: none; stroke: #d7dce1; stroke-width: 0.6; stroke-linecap: square"/>
     </g>
     <g id="line2d_8">
      <g>
       <use xlink:href="#m12a980ddc3" x="39.653281" y="217.944586" style="stroke: #000000; stroke-width: 0.8"/>
      </g>
     </g>
     <g id="text_4">
      <!-- 10 -->
      <g transform="translate(21.200781 221.363532) scale(0.09 -0.09)">
       <use xlink:href="#DejaVuSans-14"/>
       <use xlink:href="#DejaVuSans-13" transform="translate(63.625 0)"/>
      </g>
     </g>
    </g>
    <g id="ytick_3">
     <g id="line2d_9">
      <path d="M 39.653281 177.795863
L 519.59952 177.795863
" clip-path="url(#p4d5b41b3e7)" style="fill: none; stroke: #d7dce1; stroke-width: 0.6; stroke-linecap: square"/>
     </g>
     <g id="line2d_10">
      <g>
       <use xlink:href="#m12a980ddc3" x="39.653281" y="177.795863" style="stroke: #000000; stroke-width: 0.8"/>
      </g>
     </g>
     <g id="text_5">
      <!-- 20 -->
      <g transform="translate(21.200781 181.214808) scale(0.09 -0.09)">
       <defs>
        <path id="DejaVuSans-15" d="M 1228 531
L 3431 531
L 3431 0
L 469 0
L 469 531
Q 828 903 1448 1529
Q 2069 2156 2228 2338
Q 2531 2678 2651 2914
Q 2772 3150 2772 3378
Q 2772 3750 2511 3984
Q 2250 4219 1831 4219
Q 1534 4219 1204 4116
Q 875 4013 500 3803
L 500 4441
Q 881 4594 1212 4672
Q 1544 4750 1819 4750
Q 2544 4750 2975 4387
Q 3406 4025 3406 3419
Q 3406 3131 3298 2873
Q 3191 2616 2906 2266
Q 2828 2175 2409 1742
Q 1991 1309 1228 531
z
" transform="scale(0.015625)"/>
       </defs>
       <use xlink:href="#DejaVuSans-15"/>
       <use xlink:href="#DejaVuSans-13" transform="translate(63.625 0)"/>
      </g>
     </g>
    </g>
    <g id="ytick_4">
     <g id="line2d_11">
      <path d="M 39.653281 137.64714
L 519.59952 137.64714
" clip-path="url(#p4d5b41b3e7)" style="fill: none; stroke: #d7dce1; stroke-width: 0.6; stroke-linecap: square"/>
     </g>
     <g id="line2d_12">
      <g>
       <use xlink:href="#m12a980ddc3" x="39.653281" y="137.64714" style="stroke: #000000; stroke-width: 0.8"/>
      </g>
     </g>
     <g id="text_6">
      <!-- 30 -->
      <g transform="translate(21.200781 141.066085) scale(0.09 -0.09)">
       <use xlink:href="#DejaVuSans-16"/>
       <use xlink:href="#DejaVuSans-13" transform="translate(63.625 0)"/>
      </g>
     </g>
    </g>
    <g id="ytick_5">
     <g id="line2d_13">
      <path d="M 39.653281 97.498416
L 519.59952 97.498416
" clip-path="url(#p4d5b41b3e7)" style="fill: none; stroke: #d7dce1; stroke-width: 0.6; stroke-linecap: square"/>
     </g>
     <g id="line2d_14">
      <g>
       <use xlink:href="#m12a980ddc3" x="39.653281" y="97.498416" style="stroke: #000000; stroke-width: 0.8"/>
      </g>
     </g>
     <g id="text_7">
      <!-- 40 -->
      <g transform="translate(21.200781 100.917362) scale(0.09 -0.09)">
       <defs>
        <path id="DejaVuSans-17" d="M 2419 4116
L 825 1625
L 2419 1625
L 2419 4116
z
M 2253 4666
L 3047 4666
L 3047 1625
L 3713 1625
L 3713 1100
L 3047 1100
L 3047 0
L 2419 0
L 2419 1100
L 313 1100
L 313 1709
L 2253 4666
z
" transform="scale(0.015625)"/>
       </defs>
       <use xlink:href="#DejaVuSans-17"/>
       <use xlink:href="#DejaVuSans-13" transform="translate(63.625 0)"/>
      </g>
     </g>
    </g>
    <g id="ytick_6">
     <g id="line2d_15">
      <path d="M 39.653281 57.349693
L 519.59952 57.349693
" clip-path="url(#p4d5b41b3e7)" style="fill: none; stroke: #d7dce1; stroke-width: 0.6; stroke-linecap: square"/>
     </g>
     <g id="line2d_16">
      <g>
       <use xlink:href="#m12a980ddc3" x="39.653281" y="57.349693" style="stroke: #000000; stroke-width: 0.8"/>
      </g>
     </g>
     <g id="text_8">
      <!-- 50 -->
      <g transform="translate(21.200781 60.768638) scale(0.09 -0.09)">
       <defs>
        <path id="DejaVuSans-18" d="M 691 4666
L 3169 4666
L 3169 4134
L 1269 4134
L 1269 2991
Q 1406 3038 1543 3061
Q 1681 3084 1819 3084
Q 2600 3084 3056 2656
Q 3513 2228 3513 1497
Q 3513 744 3044 326
Q 2575 -91 1722 -91
Q 1428 -91 1123 -41
Q 819 9 494 109
L 494 744
Q 775 591 1075 516
Q 1375 441 1709 441
Q 2250 441 2565 725
Q 2881 1009 2881 1497
Q 2881 1984 2565 2268
Q 2250 2553 1709 2553
Q 1456 2553 1204 2497
Q 953 2441 691 2322
L 691 4666
z
" transform="scale(0.015625)"/>
       </defs>
       <use xlink:href="#DejaVuSans-18"/>
       <use xlink:href="#DejaVuSans-13" transform="translate(63.625 0)"/>
      </g>
     </g>
    </g>
    <g id="text_9">
     <!-- Wall time (s per 500 rows) -->
     <g transform="translate(14.798438 205.968217) rotate(-90) scale(0.1 -0.1)">
      <defs>
       <path id="DejaVuSans-3a" d="M 213 4666
L 850 4666
L 1831 722
L 2809 4666
L 3519 4666
L 4500 722
L 5478 4666
L 6119 4666
L 4947 0
L 4153 0
L 3169 4050
L 2175 0
L 1381 0
L 213 4666
z
" transform="scale(0.015625)"/>
       <path id="DejaVuSans-57" d="M 1172 4494
L 1172 3500
L 2356 3500
L 2356 3053
L 1172 3053
L 1172 1153
Q 1172 725 1289 603
Q 1406 481 1766 481
L 2356 481
L 2356 0
L 1766 0
Q 1100 0 847 248
Q 594 497 594 1153
L 594 3053
L 172 3053
L 172 3500
L 594 3500
L 594 4494
L 1172 4494
z
" transform="scale(0.015625)"/>
       <path id="DejaVuSans-50" d="M 3328 2828
Q 3544 3216 3844 3400
Q 4144 3584 4550 3584
Q 5097 3584 5394 3201
Q 5691 2819 5691 2113
L 5691 0
L 5113 0
L 5113 2094
Q 5113 2597 4934 2840
Q 4756 3084 4391 3084
Q 3944 3084 3684 2787
Q 3425 2491 3425 1978
L 3425 0
L 2847 0
L 2847 2094
Q 2847 2600 2669 2842
Q 2491 3084 2119 3084
Q 1678 3084 1418 2786
Q 1159 2488 1159 1978
L 1159 0
L 581 0
L 581 3500
L 1159 3500
L 1159 2956
Q 1356 3278 1631 3431
Q 1906 3584 2284 3584
Q 2666 3584 2933 3390
Q 3200 3197 3328 2828
z
" transform="scale(0.015625)"/>
       <path id="DejaVuSans-b" d="M 1984 4856
Q 1566 4138 1362 3434
Q 1159 2731 1159 2009
Q 1159 1288 1364 580
Q 1569 -128 1984 -844
L 1484 -844
Q 1016 -109 783 600
Q 550 1309 550 2009
Q 550 2706 781 3412
Q 1013 4119 1484 4856
L 1984 4856
z
" transform="scale(0.015625)"/>
       <path id="DejaVuSans-56" d="M 2834 3397
L 2834 2853
Q 2591 2978 2328 3040
Q 2066 3103 1784 3103
Q 1356 3103 1142 2972
Q 928 2841 928 2578
Q 928 2378 1081 2264
Q 1234 2150 1697 2047
L 1894 2003
Q 2506 1872 2764 1633
Q 3022 1394 3022 966
Q 3022 478 2636 193
Q 2250 -91 1575 -91
Q 1294 -91 989 -36
Q 684 19 347 128
L 347 722
Q 666 556 975 473
Q 1284 391 1588 391
Q 1994 391 2212 530
Q 2431 669 2431 922
Q 2431 1156 2273 1281
Q 2116 1406 1581 1522
L 1381 1569
Q 847 1681 609 1914
Q 372 2147 372 2553
Q 372 3047 722 3315
Q 1072 3584 1716 3584
Q 2034 3584 2315 3537
Q 2597 3491 2834 3397
z
" transform="scale(0.015625)"/>
       <path id="DejaVuSans-53" d="M 1159 525
L 1159 -1331
L 581 -1331
L 581 3500
L 1159 3500
L 1159 2969
Q 1341 3281 1617 3432
Q 1894 3584 2278 3584
Q 2916 3584 3314 3078
Q 3713 2572 3713 1747
Q 3713 922 3314 415
Q 2916 -91 2278 -91
Q 1894 -91 1617 61
Q 1341 213 1159 525
z
M 3116 1747
Q 3116 2381 2855 2742
Q 2594 3103 2138 3103
Q 1681 3103 1420 2742
Q 1159 2381 1159 1747
Q 1159 1113 1420 752
Q 1681 391 2138 391
Q 2594 391 2855 752
Q 3116 1113 3116 1747
z
" transform="scale(0.015625)"/>
       <path id="DejaVuSans-52" d="M 1959 3097
Q 1497 3097 1228 2736
Q 959 2375 959 1747
Q 959 1119 1226 758
Q 1494 397 1959 397
Q 2419 397 2687 759
Q 2956 1122 2956 1747
Q 2956 2369 2687 2733
Q 2419 3097 1959 3097
z
M 1959 3584
Q 2709 3584 3137 3096
Q 3566 2609 3566 1747
Q 3566 888 3137 398
Q 2709 -91 1959 -91
Q 1206 -91 779 398
Q 353 888 353 1747
Q 353 2609 779 3096
Q 1206 3584 1959 3584
z
" transform="scale(0.015625)"/>
       <path id="DejaVuSans-5a" d="M 269 3500
L 844 3500
L 1563 769
L 2278 3500
L 2956 3500
L 3675 769
L 4391 3500
L 4966 3500
L 4050 0
L 3372 0
L 2619 2869
L 1863 0
L 1184 0
L 269 3500
z
" transform="scale(0.015625)"/>
       <path id="DejaVuSans-c" d="M 513 4856
L 1013 4856
Q 1481 4119 1714 3412
Q 1947 2706 1947 2009
Q 1947 1309 1714 600
Q 1481 -109 1013 -844
L 513 -844
Q 928 -128 1133 580
Q 1338 1288 1338 2009
Q 1338 2731 1133 3434
Q 928 4138 513 4856
z
" transform="scale(0.015625)"/>
      </defs>
      <use xlink:href="#DejaVuSans-3a"/>
      <use xlink:href="#DejaVuSans-44" transform="translate(92.484375 0)"/>
      <use xlink:href="#DejaVuSans-4f" transform="translate(153.765625 0)"/>
      <use xlink:href="#DejaVuSans-4f" transform="translate(181.546875 0)"/>
      <use xlink:href="#DejaVuSans-3" transform="translate(209.328125 0)"/>
      <use xlink:href="#DejaVuSans-57" transform="translate(241.109375 0)"/>
      <use xlink:href="#DejaVuSans-4c" transform="translate(280.3125 0)"/>
      <use xlink:href="#DejaVuSans-50" transform="translate(308.09375 0)"/>
      <use xlink:href="#DejaVuSans-48" transform="translate(405.5 0)"/>
      <use xlink:href="#DejaVuSans-3" transform="translate(467.03125 0)"/>
      <use xlink:href="#DejaVuSans-b" transform="translate(498.8125 0)"/>
      <use xlink:href="#DejaVuSans-56" transform="translate(537.828125 0)"/>
      <use xlink:href="#DejaVuSans-3" transform="translate(589.921875 0)"/>
      <use xlink:href="#DejaVuSans-53" transform="translate(621.703125 0)"/>
      <use xlink:href="#DejaVuSans-48" transform="translate(685.1875 0)"/>
      <use xlink:href="#DejaVuSans-55" transform="translate(746.71875 0)"/>
      <use xlink:href="#DejaVuSans-3" transform="translate(787.828125 0)"/>
      <use xlink:href="#DejaVuSans-18" transform="translate(819.609375 0)"/>
      <use xlink:href="#DejaVuSans-13" transform="translate(883.234375 0)"/>
      <use xlink:href="#DejaVuSans-13" transform="translate(946.859375 0)"/>
      <use xlink:href="#DejaVuSans-3" transform="translate(1010.484375 0)"/>
      <use xlink:href="#DejaVuSans-55" transform="translate(1042.265625 0)"/>
      <use xlink:href="#DejaVuSans-52" transform="translate(1081.171875 0)"/>
      <use xlink:href="#DejaVuSans-5a" transform="translate(1142.359375 0)"/>
      <use xlink:href="#DejaVuSans-56" transform="translate(1224.140625 0)"/>
      <use xlink:href="#DejaVuSans-c" transform="translate(1276.234375 0)"/>
     </g>
    </g>
   </g>
   <g id="patch_3">
    <path d="M 61.469019 258.09331
L 255.386692 258.09331
L 255.386692 72.686505
L 61.469019 72.686505
z
" clip-path="url(#p4d5b41b3e7)" style="fill: #d55e00"/>
   </g>
   <g id="patch_4">
    <path d="M 303.86611 258.09331
L 497.783782 258.09331
L 497.783782 33.545515
L 303.86611 33.545515
z
" clip-path="url(#p4d5b41b3e7)" style="fill: #009e73"/>
   </g>
   <g id="patch_5">
    <path d="M 39.653281 258.09331
L 39.653281 22.318125
" style="fill: none; stroke: #000000; stroke-width: 0.8; stroke-linejoin: miter; stroke-linecap: square"/>
   </g>
   <g id="patch_6">
    <path d="M 39.653281 258.09331
L 519.59952 258.09331
" style="fill: none; stroke: #000000; stroke-width: 0.8; stroke-linejoin: miter; stroke-linecap: square"/>
   </g>
   <g id="text_10">
    <!-- 46.2 s -->
    <g transform="translate(143.080746 67.686505) scale(0.09 -0.09)">
     <defs>
      <path id="DejaVuSans-Bold-17" d="M 2356 3675
L 1038 1722
L 2356 1722
L 2356 3675
z
M 2156 4666
L 3494 4666
L 3494 1722
L 4159 1722
L 4159 850
L 3494 850
L 3494 0
L 2356 0
L 2356 850
L 288 850
L 288 1881
L 2156 4666
z
" transform="scale(0.015625)"/>
      <path id="DejaVuSans-Bold-19" d="M 2316 2303
Q 2000 2303 1842 2098
Q 1684 1894 1684 1484
Q 1684 1075 1842 870
Q 2000 666 2316 666
Q 2634 666 2792 870
Q 2950 1075 2950 1484
Q 2950 1894 2792 2098
Q 2634 2303 2316 2303
z
M 3803 4544
L 3803 3681
Q 3506 3822 3243 3889
Q 2981 3956 2731 3956
Q 2194 3956 1894 3657
Q 1594 3359 1544 2772
Q 1750 2925 1990 3001
Q 2231 3078 2516 3078
Q 3231 3078 3670 2659
Q 4109 2241 4109 1563
Q 4109 813 3618 361
Q 3128 -91 2303 -91
Q 1394 -91 895 523
Q 397 1138 397 2266
Q 397 3422 980 4083
Q 1563 4744 2578 4744
Q 2900 4744 3203 4694
Q 3506 4644 3803 4544
z
" transform="scale(0.015625)"/>
      <path id="DejaVuSans-Bold-11" d="M 653 1209
L 1778 1209
L 1778 0
L 653 0
L 653 1209
z
" transform="scale(0.015625)"/>
      <path id="DejaVuSans-Bold-15" d="M 1844 884
L 3897 884
L 3897 0
L 506 0
L 506 884
L 2209 2388
Q 2438 2594 2547 2791
Q 2656 2988 2656 3200
Q 2656 3528 2436 3728
Q 2216 3928 1850 3928
Q 1569 3928 1234 3808
Q 900 3688 519 3450
L 519 4475
Q 925 4609 1322 4679
Q 1719 4750 2100 4750
Q 2938 4750 3402 4381
Q 3866 4013 3866 3353
Q 3866 2972 3669 2642
Q 3472 2313 2841 1759
L 1844 884
z
" transform="scale(0.015625)"/>
      <path id="DejaVuSans-Bold-3" transform="scale(0.015625)"/>
      <path id="DejaVuSans-Bold-56" d="M 3272 3391
L 3272 2541
Q 2913 2691 2578 2766
Q 2244 2841 1947 2841
Q 1628 2841 1473 2761
Q 1319 2681 1319 2516
Q 1319 2381 1436 2309
Q 1553 2238 1856 2203
L 2053 2175
Q 2913 2066 3209 1816
Q 3506 1566 3506 1031
Q 3506 472 3093 190
Q 2681 -91 1863 -91
Q 1516 -91 1145 -36
Q 775 19 384 128
L 384 978
Q 719 816 1070 734
Q 1422 653 1784 653
Q 2113 653 2278 743
Q 2444 834 2444 1013
Q 2444 1163 2330 1236
Q 2216 1309 1875 1350
L 1678 1375
Q 931 1469 631 1722
Q 331 1975 331 2491
Q 331 3047 712 3315
Q 1094 3584 1881 3584
Q 2191 3584 2531 3537
Q 2872 3491 3272 3391
z
" transform="scale(0.015625)"/>
     </defs>
     <use xlink:href="#DejaVuSans-Bold-17"/>
     <use xlink:href="#DejaVuSans-Bold-19" transform="translate(69.578125 0)"/>
     <use xlink:href="#DejaVuSans-Bold-11" transform="translate(139.15625 0)"/>
     <use xlink:href="#DejaVuSans-Bold-15" transform="translate(177.140625 0)"/>
     <use xlink:href="#DejaVuSans-Bold-3" transform="translate(246.71875 0)"/>
     <use xlink:href="#DejaVuSans-Bold-56" transform="translate(281.53125 0)"/>
    </g>
   </g>
   <g id="text_11">
    <!-- 55.9 s -->
    <g transform="translate(385.477836 28.545515) scale(0.09 -0.09)">
     <defs>
      <path id="DejaVuSans-Bold-18" d="M 678 4666
L 3669 4666
L 3669 3781
L 1638 3781
L 1638 3059
Q 1775 3097 1914 3117
Q 2053 3138 2203 3138
Q 3056 3138 3531 2711
Q 4006 2284 4006 1522
Q 4006 766 3489 337
Q 2972 -91 2053 -91
Q 1656 -91 1267 -14
Q 878 63 494 219
L 494 1166
Q 875 947 1217 837
Q 1559 728 1863 728
Q 2300 728 2551 942
Q 2803 1156 2803 1522
Q 2803 1891 2551 2103
Q 2300 2316 1863 2316
Q 1603 2316 1309 2248
Q 1016 2181 678 2041
L 678 4666
z
" transform="scale(0.015625)"/>
      <path id="DejaVuSans-Bold-1c" d="M 641 103
L 641 966
Q 928 831 1190 764
Q 1453 697 1709 697
Q 2247 697 2547 995
Q 2847 1294 2900 1881
Q 2688 1725 2447 1647
Q 2206 1569 1925 1569
Q 1209 1569 770 1986
Q 331 2403 331 3084
Q 331 3838 820 4291
Q 1309 4744 2131 4744
Q 3044 4744 3544 4128
Q 4044 3513 4044 2388
Q 4044 1231 3459 570
Q 2875 -91 1856 -91
Q 1528 -91 1228 -42
Q 928 6 641 103
z
M 2125 2350
Q 2441 2350 2600 2554
Q 2759 2759 2759 3169
Q 2759 3575 2600 3781
Q 2441 3988 2125 3988
Q 1809 3988 1650 3781
Q 1491 3575 1491 3169
Q 1491 2759 1650 2554
Q 1809 2350 2125 2350
z
" transform="scale(0.015625)"/>
     </defs>
     <use xlink:href="#DejaVuSans-Bold-18"/>
     <use xlink:href="#DejaVuSans-Bold-18" transform="translate(69.578125 0)"/>
     <use xlink:href="#DejaVuSans-Bold-11" transform="translate(139.15625 0)"/>
     <use xlink:href="#DejaVuSans-Bold-1c" transform="translate(177.140625 0)"/>
     <use xlink:href="#DejaVuSans-Bold-3" transform="translate(246.71875 0)"/>
     <use xlink:href="#DejaVuSans-Bold-56" transform="translate(281.53125 0)"/>
    </g>
   </g>
   <g id="text_12">
    <!-- Valid run includes numerical targeting, independent propagation, -->
    <g style="fill: #5b6573" transform="translate(132.403276 289.730382) scale(0.09 -0.09)">
     <defs>
      <path id="DejaVuSans-39" d="M 1831 0
L 50 4666
L 709 4666
L 2188 738
L 3669 4666
L 4325 4666
L 2547 0
L 1831 0
z
" transform="scale(0.015625)"/>
      <path id="DejaVuSans-58" d="M 544 1381
L 544 3500
L 1119 3500
L 1119 1403
Q 1119 906 1312 657
Q 1506 409 1894 409
Q 2359 409 2629 706
Q 2900 1003 2900 1516
L 2900 3500
L 3475 3500
L 3475 0
L 2900 0
L 2900 538
Q 2691 219 2414 64
Q 2138 -91 1772 -91
Q 1169 -91 856 284
Q 544 659 544 1381
z
M 1991 3584
L 1991 3584
z
" transform="scale(0.015625)"/>
      <path id="DejaVuSans-46" d="M 3122 3366
L 3122 2828
Q 2878 2963 2633 3030
Q 2388 3097 2138 3097
Q 1578 3097 1268 2742
Q 959 2388 959 1747
Q 959 1106 1268 751
Q 1578 397 2138 397
Q 2388 397 2633 464
Q 2878 531 3122 666
L 3122 134
Q 2881 22 2623 -34
Q 2366 -91 2075 -91
Q 1284 -91 818 406
Q 353 903 353 1747
Q 353 2603 823 3093
Q 1294 3584 2113 3584
Q 2378 3584 2631 3529
Q 2884 3475 3122 3366
z
" transform="scale(0.015625)"/>
      <path id="DejaVuSans-4a" d="M 2906 1791
Q 2906 2416 2648 2759
Q 2391 3103 1925 3103
Q 1463 3103 1205 2759
Q 947 2416 947 1791
Q 947 1169 1205 825
Q 1463 481 1925 481
Q 2391 481 2648 825
Q 2906 1169 2906 1791
z
M 3481 434
Q 3481 -459 3084 -895
Q 2688 -1331 1869 -1331
Q 1566 -1331 1297 -1286
Q 1028 -1241 775 -1147
L 775 -588
Q 1028 -725 1275 -790
Q 1522 -856 1778 -856
Q 2344 -856 2625 -561
Q 2906 -266 2906 331
L 2906 616
Q 2728 306 2450 153
Q 2172 0 1784 0
Q 1141 0 747 490
Q 353 981 353 1791
Q 353 2603 747 3093
Q 1141 3584 1784 3584
Q 2172 3584 2450 3431
Q 2728 3278 2906 2969
L 2906 3500
L 3481 3500
L 3481 434
z
" transform="scale(0.015625)"/>
      <path id="DejaVuSans-f" d="M 750 794
L 1409 794
L 1409 256
L 897 -744
L 494 -744
L 750 256
L 750 794
z
" transform="scale(0.015625)"/>
     </defs>
     <use xlink:href="#DejaVuSans-39"/>
     <use xlink:href="#DejaVuSans-44" transform="translate(60.640625 0)"/>
     <use xlink:href="#DejaVuSans-4f" transform="translate(121.921875 0)"/>
     <use xlink:href="#DejaVuSans-4c" transform="translate(149.703125 0)"/>
     <use xlink:href="#DejaVuSans-47" transform="translate(177.484375 0)"/>
     <use xlink:href="#DejaVuSans-3" transform="translate(240.96875 0)"/>
     <use xlink:href="#DejaVuSans-55" transform="translate(272.75 0)"/>
     <use xlink:href="#DejaVuSans-58" transform="translate(313.859375 0)"/>
     <use xlink:href="#DejaVuSans-51" transform="translate(377.234375 0)"/>
     <use xlink:href="#DejaVuSans-3" transform="translate(440.609375 0)"/>
     <use xlink:href="#DejaVuSans-4c" transform="translate(472.390625 0)"/>
     <use xlink:href="#DejaVuSans-51" transform="translate(500.171875 0)"/>
     <use xlink:href="#DejaVuSans-46" transform="translate(563.546875 0)"/>
     <use xlink:href="#DejaVuSans-4f" transform="translate(618.53125 0)"/>
     <use xlink:href="#DejaVuSans-58" transform="translate(646.3125 0)"/>
     <use xlink:href="#DejaVuSans-47" transform="translate(709.6875 0)"/>
     <use xlink:href="#DejaVuSans-48" transform="translate(773.171875 0)"/>
     <use xlink:href="#DejaVuSans-56" transform="translate(834.703125 0)"/>
     <use xlink:href="#DejaVuSans-3" transform="translate(886.796875 0)"/>
     <use xlink:href="#DejaVuSans-51" transform="translate(918.578125 0)"/>
     <use xlink:href="#DejaVuSans-58" transform="translate(981.953125 0)"/>
     <use xlink:href="#DejaVuSans-50" transform="translate(1045.328125 0)"/>
     <use xlink:href="#DejaVuSans-48" transform="translate(1142.734375 0)"/>
     <use xlink:href="#DejaVuSans-55" transform="translate(1204.265625 0)"/>
     <use xlink:href="#DejaVuSans-4c" transform="translate(1245.375 0)"/>
     <use xlink:href="#DejaVuSans-46" transform="translate(1273.15625 0)"/>
     <use xlink:href="#DejaVuSans-44" transform="translate(1328.140625 0)"/>
     <use xlink:href="#DejaVuSans-4f" transform="translate(1389.421875 0)"/>
     <use xlink:href="#DejaVuSans-3" transform="translate(1417.203125 0)"/>
     <use xlink:href="#DejaVuSans-57" transform="translate(1448.984375 0)"/>
     <use xlink:href="#DejaVuSans-44" transform="translate(1488.1875 0)"/>
     <use xlink:href="#DejaVuSans-55" transform="translate(1549.46875 0)"/>
     <use xlink:href="#DejaVuSans-4a" transform="translate(1588.828125 0)"/>
     <use xlink:href="#DejaVuSans-48" transform="translate(1652.3125 0)"/>
     <use xlink:href="#DejaVuSans-57" transform="translate(1713.84375 0)"/>
     <use xlink:href="#DejaVuSans-4c" transform="translate(1753.046875 0)"/>
     <use xlink:href="#DejaVuSans-51" transform="translate(1780.828125 0)"/>
     <use xlink:href="#DejaVuSans-4a" transform="translate(1844.203125 0)"/>
     <use xlink:href="#DejaVuSans-f" transform="translate(1907.6875 0)"/>
     <use xlink:href="#DejaVuSans-3" transform="translate(1939.46875 0)"/>
     <use xlink:href="#DejaVuSans-4c" transform="translate(1971.25 0)"/>
     <use xlink:href="#DejaVuSans-51" transform="translate(1999.03125 0)"/>
     <use xlink:href="#DejaVuSans-47" transform="translate(2062.40625 0)"/>
     <use xlink:href="#DejaVuSans-48" transform="translate(2125.890625 0)"/>
     <use xlink:href="#DejaVuSans-53" transform="translate(2187.421875 0)"/>
     <use xlink:href="#DejaVuSans-48" transform="translate(2250.90625 0)"/>
     <use xlink:href="#DejaVuSans-51" transform="translate(2312.4375 0)"/>
     <use xlink:href="#DejaVuSans-47" transform="translate(2375.8125 0)"/>
     <use xlink:href="#DejaVuSans-48" transform="translate(2439.296875 0)"/>
     <use xlink:href="#DejaVuSans-51" transform="translate(2500.828125 0)"/>
     <use xlink:href="#DejaVuSans-57" transform="translate(2564.203125 0)"/>
     <use xlink:href="#DejaVuSans-3" transform="translate(2603.40625 0)"/>
     <use xlink:href="#DejaVuSans-53" transform="translate(2635.1875 0)"/>
     <use xlink:href="#DejaVuSans-55" transform="translate(2698.671875 0)"/>
     <use xlink:href="#DejaVuSans-52" transform="translate(2737.578125 0)"/>
     <use xlink:href="#DejaVuSans-53" transform="translate(2798.765625 0)"/>
     <use xlink:href="#DejaVuSans-44" transform="translate(2862.25 0)"/>
     <use xlink:href="#DejaVuSans-4a" transform="translate(2923.53125 0)"/>
     <use xlink:href="#DejaVuSans-44" transform="translate(2987.015625 0)"/>
     <use xlink:href="#DejaVuSans-57" transform="translate(3048.296875 0)"/>
     <use xlink:href="#DejaVuSans-4c" transform="translate(3087.5 0)"/>
     <use xlink:href="#DejaVuSans-52" transform="translate(3115.28125 0)"/>
     <use xlink:href="#DejaVuSans-51" transform="translate(3176.46875 0)"/>
     <use xlink:href="#DejaVuSans-f" transform="translate(3239.84375 0)"/>
    </g>
    <!-- schema/relationship checks, and lunar-constraint sampling. -->
    <g style="fill: #5b6573" transform="translate(145.403354 300.532843) scale(0.09 -0.09)">
     <defs>
      <path id="DejaVuSans-4b" d="M 3513 2113
L 3513 0
L 2938 0
L 2938 2094
Q 2938 2591 2744 2837
Q 2550 3084 2163 3084
Q 1697 3084 1428 2787
Q 1159 2491 1159 1978
L 1159 0
L 581 0
L 581 4863
L 1159 4863
L 1159 2956
Q 1366 3272 1645 3428
Q 1925 3584 2291 3584
Q 2894 3584 3203 3211
Q 3513 2838 3513 2113
z
" transform="scale(0.015625)"/>
      <path id="DejaVuSans-12" d="M 1625 4666
L 2156 4666
L 531 -594
L 0 -594
L 1625 4666
z
" transform="scale(0.015625)"/>
      <path id="DejaVuSans-4e" d="M 581 4863
L 1159 4863
L 1159 1991
L 2875 3500
L 3609 3500
L 1753 1863
L 3688 0
L 2938 0
L 1159 1709
L 1159 0
L 581 0
L 581 4863
z
" transform="scale(0.015625)"/>
      <path id="DejaVuSans-11" d="M 684 794
L 1344 794
L 1344 0
L 684 0
L 684 794
z
" transform="scale(0.015625)"/>
     </defs>
     <use xlink:href="#DejaVuSans-56"/>
     <use xlink:href="#DejaVuSans-46" transform="translate(52.09375 0)"/>
     <use xlink:href="#DejaVuSans-4b" transform="translate(107.078125 0)"/>
     <use xlink:href="#DejaVuSans-48" transform="translate(170.453125 0)"/>
     <use xlink:href="#DejaVuSans-50" transform="translate(231.984375 0)"/>
     <use xlink:href="#DejaVuSans-44" transform="translate(329.390625 0)"/>
     <use xlink:href="#DejaVuSans-12" transform="translate(390.671875 0)"/>
     <use xlink:href="#DejaVuSans-55" transform="translate(424.359375 0)"/>
     <use xlink:href="#DejaVuSans-48" transform="translate(463.265625 0)"/>
     <use xlink:href="#DejaVuSans-4f" transform="translate(524.796875 0)"/>
     <use xlink:href="#DejaVuSans-44" transform="translate(552.578125 0)"/>
     <use xlink:href="#DejaVuSans-57" transform="translate(613.859375 0)"/>
     <use xlink:href="#DejaVuSans-4c" transform="translate(653.0625 0)"/>
     <use xlink:href="#DejaVuSans-52" transform="translate(680.84375 0)"/>
     <use xlink:href="#DejaVuSans-51" transform="translate(742.03125 0)"/>
     <use xlink:href="#DejaVuSans-56" transform="translate(805.40625 0)"/>
     <use xlink:href="#DejaVuSans-4b" transform="translate(857.5 0)"/>
     <use xlink:href="#DejaVuSans-4c" transform="translate(920.875 0)"/>
     <use xlink:href="#DejaVuSans-53" transform="translate(948.65625 0)"/>
     <use xlink:href="#DejaVuSans-3" transform="translate(1012.140625 0)"/>
     <use xlink:href="#DejaVuSans-46" transform="translate(1043.921875 0)"/>
     <use xlink:href="#DejaVuSans-4b" transform="translate(1098.90625 0)"/>
     <use xlink:href="#DejaVuSans-48" transform="translate(1162.28125 0)"/>
     <use xlink:href="#DejaVuSans-46" transform="translate(1223.8125 0)"/>
     <use xlink:href="#DejaVuSans-4e" transform="translate(1278.796875 0)"/>
     <use xlink:href="#DejaVuSans-56" transform="translate(1336.703125 0)"/>
     <use xlink:href="#DejaVuSans-f" transform="translate(1388.796875 0)"/>
     <use xlink:href="#DejaVuSans-3" transform="translate(1420.578125 0)"/>
     <use xlink:href="#DejaVuSans-44" transform="translate(1452.359375 0)"/>
     <use xlink:href="#DejaVuSans-51" transform="translate(1513.640625 0)"/>
     <use xlink:href="#DejaVuSans-47" transform="translate(1577.015625 0)"/>
     <use xlink:href="#DejaVuSans-3" transform="translate(1640.5 0)"/>
     <use xlink:href="#DejaVuSans-4f" transform="translate(1672.28125 0)"/>
     <use xlink:href="#DejaVuSans-58" transform="translate(1700.0625 0)"/>
     <use xlink:href="#DejaVuSans-51" transform="translate(1763.4375 0)"/>
     <use xlink:href="#DejaVuSans-44" transform="translate(1826.8125 0)"/>
     <use xlink:href="#DejaVuSans-55" transform="translate(1888.09375 0)"/>
     <use xlink:href="#DejaVuSans-10" transform="translate(1922.8125 0)"/>
     <use xlink:href="#DejaVuSans-46" transform="translate(1958.890625 0)"/>
     <use xlink:href="#DejaVuSans-52" transform="translate(2013.875 0)"/>
     <use xlink:href="#DejaVuSans-51" transform="translate(2075.0625 0)"/>
     <use xlink:href="#DejaVuSans-56" transform="translate(2138.4375 0)"/>
     <use xlink:href="#DejaVuSans-57" transform="translate(2190.53125 0)"/>
     <use xlink:href="#DejaVuSans-55" transform="translate(2229.734375 0)"/>
     <use xlink:href="#DejaVuSans-44" transform="translate(2270.84375 0)"/>
     <use xlink:href="#DejaVuSans-4c" transform="translate(2332.125 0)"/>
     <use xlink:href="#DejaVuSans-51" transform="translate(2359.90625 0)"/>
     <use xlink:href="#DejaVuSans-57" transform="translate(2423.28125 0)"/>
     <use xlink:href="#DejaVuSans-3" transform="translate(2462.484375 0)"/>
     <use xlink:href="#DejaVuSans-56" transform="translate(2494.265625 0)"/>
     <use xlink:href="#DejaVuSans-44" transform="translate(2546.359375 0)"/>
     <use xlink:href="#DejaVuSans-50" transform="translate(2607.640625 0)"/>
     <use xlink:href="#DejaVuSans-53" transform="translate(2705.046875 0)"/>
     <use xlink:href="#DejaVuSans-4f" transform="translate(2768.53125 0)"/>
     <use xlink:href="#DejaVuSans-4c" transform="translate(2796.3125 0)"/>
     <use xlink:href="#DejaVuSans-51" transform="translate(2824.09375 0)"/>
     <use xlink:href="#DejaVuSans-4a" transform="translate(2887.46875 0)"/>
     <use xlink:href="#DejaVuSans-11" transform="translate(2950.953125 0)"/>
    </g>
   </g>
   <g id="text_13">
    <!-- F0 G01 runtime on the reference laptop -->
    <g transform="translate(160.050151 16.318125) scale(0.12 -0.12)">
     <defs>
      <path id="DejaVuSans-29" d="M 628 4666
L 3309 4666
L 3309 4134
L 1259 4134
L 1259 2759
L 3109 2759
L 3109 2228
L 1259 2228
L 1259 0
L 628 0
L 628 4666
z
" transform="scale(0.015625)"/>
      <path id="DejaVuSans-2a" d="M 3809 666
L 3809 1919
L 2778 1919
L 2778 2438
L 4434 2438
L 4434 434
Q 4069 175 3628 42
Q 3188 -91 2688 -91
Q 1594 -91 976 548
Q 359 1188 359 2328
Q 359 3472 976 4111
Q 1594 4750 2688 4750
Q 3144 4750 3555 4637
Q 3966 4525 4313 4306
L 4313 3634
Q 3963 3931 3569 4081
Q 3175 4231 2741 4231
Q 1884 4231 1454 3753
Q 1025 3275 1025 2328
Q 1025 1384 1454 906
Q 1884 428 2741 428
Q 3075 428 3337 486
Q 3600 544 3809 666
z
" transform="scale(0.015625)"/>
      <path id="DejaVuSans-49" d="M 2375 4863
L 2375 4384
L 1825 4384
Q 1516 4384 1395 4259
Q 1275 4134 1275 3809
L 1275 3500
L 2222 3500
L 2222 3053
L 1275 3053
L 1275 0
L 697 0
L 697 3053
L 147 3053
L 147 3500
L 697 3500
L 697 3744
Q 697 4328 969 4595
Q 1241 4863 1831 4863
L 2375 4863
z
" transform="scale(0.015625)"/>
     </defs>
     <use xlink:href="#DejaVuSans-29"/>
     <use xlink:href="#DejaVuSans-13" transform="translate(57.515625 0)"/>
     <use xlink:href="#DejaVuSans-3" transform="translate(121.140625 0)"/>
     <use xlink:href="#DejaVuSans-2a" transform="translate(152.921875 0)"/>
     <use xlink:href="#DejaVuSans-13" transform="translate(230.40625 0)"/>
     <use xlink:href="#DejaVuSans-14" transform="translate(294.03125 0)"/>
     <use xlink:href="#DejaVuSans-3" transform="translate(357.65625 0)"/>
     <use xlink:href="#DejaVuSans-55" transform="translate(389.4375 0)"/>
     <use xlink:href="#DejaVuSans-58" transform="translate(430.546875 0)"/>
     <use xlink:href="#DejaVuSans-51" transform="translate(493.921875 0)"/>
     <use xlink:href="#DejaVuSans-57" transform="translate(557.296875 0)"/>
     <use xlink:href="#DejaVuSans-4c" transform="translate(596.5 0)"/>
     <use xlink:href="#DejaVuSans-50" transform="translate(624.28125 0)"/>
     <use xlink:href="#DejaVuSans-48" transform="translate(721.6875 0)"/>
     <use xlink:href="#DejaVuSans-3" transform="translate(783.21875 0)"/>
     <use xlink:href="#DejaVuSans-52" transform="translate(815 0)"/>
     <use xlink:href="#DejaVuSans-51" transform="translate(876.1875 0)"/>
     <use xlink:href="#DejaVuSans-3" transform="translate(939.5625 0)"/>
     <use xlink:href="#DejaVuSans-57" transform="translate(971.34375 0)"/>
     <use xlink:href="#DejaVuSans-4b" transform="translate(1010.546875 0)"/>
     <use xlink:href="#DejaVuSans-48" transform="translate(1073.921875 0)"/>
     <use xlink:href="#DejaVuSans-3" transform="translate(1135.453125 0)"/>
     <use xlink:href="#DejaVuSans-55" transform="translate(1167.234375 0)"/>
     <use xlink:href="#DejaVuSans-48" transform="translate(1206.140625 0)"/>
     <use xlink:href="#DejaVuSans-49" transform="translate(1267.671875 0)"/>
     <use xlink:href="#DejaVuSans-48" transform="translate(1302.875 0)"/>
     <use xlink:href="#DejaVuSans-55" transform="translate(1364.40625 0)"/>
     <use xlink:href="#DejaVuSans-48" transform="translate(1403.3125 0)"/>
     <use xlink:href="#DejaVuSans-51" transform="translate(1464.84375 0)"/>
     <use xlink:href="#DejaVuSans-46" transform="translate(1528.21875 0)"/>
     <use xlink:href="#DejaVuSans-48" transform="translate(1583.203125 0)"/>
     <use xlink:href="#DejaVuSans-3" transform="translate(1644.734375 0)"/>
     <use xlink:href="#DejaVuSans-4f" transform="translate(1676.515625 0)"/>
     <use xlink:href="#DejaVuSans-44" transform="translate(1704.296875 0)"/>
     <use xlink:href="#DejaVuSans-53" transform="translate(1765.578125 0)"/>
     <use xlink:href="#DejaVuSans-57" transform="translate(1829.0625 0)"/>
     <use xlink:href="#DejaVuSans-52" transform="translate(1868.265625 0)"/>
     <use xlink:href="#DejaVuSans-53" transform="translate(1929.453125 0)"/>
    </g>
   </g>
  </g>
 </g>
 <defs>
  <clipPath id="p4d5b41b3e7">
   <rect x="39.653281" y="22.318125" width="479.946239" height="235.775185"/>
  </clipPath>
 </defs>
</svg>
