<?xml version="1.0" encoding="utf-8" standalone="no"?>
<!DOCTYPE svg PUBLIC "-//W3C//DTD SVG 1.1//EN"
  "http://www.w3.org/Graphics/SVG/1.1/DTD/svg11.dtd">
<svg xmlns:xlink="http://www.w3.org/1999/xlink" width="685.19952pt" height="274.79952pt" viewBox="0 0 685.19952 274.79952" xmlns="http://www.w3.org/2000/svg" version="1.1">
 <metadata>
  <rdf:RDF xmlns:dc="http://purl.org/dc/elements/1.1/" xmlns:cc="http://creativecommons.org/ns#" xmlns:rdf="http://www.w3.org/1999/02/22-rdf-syntax-ns#">
   <cc:Work>
    <dc:type rdf:resource="http://purl.org/dc/dcmitype/StillImage"/>
    <dc:format>image/svg+xml</dc:format>
    <dc:creator>
     <cc:Agent>
      <dc:title>QMLforArtemisIV make_research_figures.py</dc:title>
     </cc:Agent>
    </dc:creator>
   </cc:Work>
  </rdf:RDF>
 </metadata>
 <defs>
  <style type="text/css">*{stroke-linejoin: round; stroke-linecap: butt}</style>
 </defs>
 <g id="figure_1">
  <g id="patch_1">
   <path d="M 0 274.79952
L 685.19952 274.79952
L 685.19952 0
L 0 0
z
" style="fill: #ffffff"/>
  </g>
  <g id="axes_1">
   <g id="table_1">
    <g id="patch_2">
     <path d="M 7.2 91.829844
L 228.563842 91.829844
L 228.563842 48.863923
L 7.2 48.863923
z
" style="fill: #e8edf2; stroke: #c8d0d8; stroke-width: 0.6; stroke-linejoin: miter"/>
    </g>
    <g id="text_1">
     <!-- Audit measure -->
     <g style="fill: #1f2937" transform="translate(16.054554 72.555223) scale(0.085 -0.085)">
      <defs>
       <path id="DejaVuSans-Bold-24" d="M 3419 850
L 1538 850
L 1241 0
L 31 0
L 1759 4666
L 3194 4666
L 4922 0
L 3713 0
L 3419 850
z
M 1838 1716
L 3116 1716
L 2478 3572
L 1838 1716
z
" transform="scale(0.015625)"/>
       <path id="DejaVuSans-Bold-58" d="M 500 1363
L 500 3500
L 1625 3500
L 1625 3150
Q 1625 2866 1622 2436
Q 1619 2006 1619 1863
Q 1619 1441 1641 1255
Q 1663 1069 1716 984
Q 1784 875 1895 815
Q 2006 756 2150 756
Q 2500 756 2700 1025
Q 2900 1294 2900 1772
L 2900 3500
L 4019 3500
L 4019 0
L 2900 0
L 2900 506
Q 2647 200 2364 54
Q 2081 -91 1741 -91
Q 1134 -91 817 281
Q 500 653 500 1363
z
" transform="scale(0.015625)"/>
       <path id="DejaVuSans-Bold-47" d="M 2919 2988
L 2919 4863
L 4044 4863
L 4044 0
L 2919 0
L 2919 506
Q 2688 197 2409 53
Q 2131 -91 1766 -91
Q 1119 -91 703 423
Q 288 938 288 1747
Q 288 2556 703 3070
Q 1119 3584 1766 3584
Q 2128 3584 2408 3439
Q 2688 3294 2919 2988
z
M 2181 722
Q 2541 722 2730 984
Q 2919 1247 2919 1747
Q 2919 2247 2730 2509
Q 2541 2772 2181 2772
Q 1825 2772 1636 2509
Q 1447 2247 1447 1747
Q 1447 1247 1636 984
Q 1825 722 2181 722
z
" transform="scale(0.015625)"/>
       <path id="DejaVuSans-Bold-4c" d="M 538 3500
L 1656 3500
L 1656 0
L 538 0
L 538 3500
z
M 538 4863
L 1656 4863
L 1656 3950
L 538 3950
L 538 4863
z
" transform="scale(0.015625)"/>
       <path id="DejaVuSans-Bold-57" d="M 1759 4494
L 1759 3500
L 2913 3500
L 2913 2700
L 1759 2700
L 1759 1216
Q 1759 972 1856 886
Q 1953 800 2241 800
L 2816 800
L 2816 0
L 1856 0
Q 1194 0 917 276
Q 641 553 641 1216
L 641 2700
L 84 2700
L 84 3500
L 641 3500
L 641 4494
L 1759 4494
z
" transform="scale(0.015625)"/>
       <path id="DejaVuSans-Bold-3" transform="scale(0.015625)"/>
       <path id="DejaVuSans-Bold-50" d="M 3781 2919
Q 3994 3244 4286 3414
Q 4578 3584 4928 3584
Q 5531 3584 5847 3212
Q 6163 2841 6163 2131
L 6163 0
L 5038 0
L 5038 1825
Q 5041 1866 5042 1909
Q 5044 1953 5044 2034
Q 5044 2406 4934 2573
Q 4825 2741 4581 2741
Q 4263 2741 4089 2478
Q 3916 2216 3909 1719
L 3909 0
L 2784 0
L 2784 1825
Q 2784 2406 2684 2573
Q 2584 2741 2328 2741
Q 2006 2741 1831 2477
Q 1656 2213 1656 1722
L 1656 0
L 531 0
L 531 3500
L 1656 3500
L 1656 2988
Q 1863 3284 2130 3434
Q 2397 3584 2719 3584
Q 3081 3584 3359 3409
Q 3638 3234 3781 2919
z
" transform="scale(0.015625)"/>
       <path id="DejaVuSans-Bold-48" d="M 4031 1759
L 4031 1441
L 1416 1441
Q 1456 1047 1700 850
Q 1944 653 2381 653
Q 2734 653 3104 758
Q 3475 863 3866 1075
L 3866 213
Q 3469 63 3072 -14
Q 2675 -91 2278 -91
Q 1328 -91 801 392
Q 275 875 275 1747
Q 275 2603 792 3093
Q 1309 3584 2216 3584
Q 3041 3584 3536 3087
Q 4031 2591 4031 1759
z
M 2881 2131
Q 2881 2450 2695 2645
Q 2509 2841 2209 2841
Q 1884 2841 1681 2658
Q 1478 2475 1428 2131
L 2881 2131
z
" transform="scale(0.015625)"/>
       <path id="DejaVuSans-Bold-44" d="M 2106 1575
Q 1756 1575 1579 1456
Q 1403 1338 1403 1106
Q 1403 894 1545 773
Q 1688 653 1941 653
Q 2256 653 2472 879
Q 2688 1106 2688 1447
L 2688 1575
L 2106 1575
z
M 3816 1997
L 3816 0
L 2688 0
L 2688 519
Q 2463 200 2181 54
Q 1900 -91 1497 -91
Q 953 -91 614 226
Q 275 544 275 1050
Q 275 1666 698 1953
Q 1122 2241 2028 2241
L 2688 2241
L 2688 2328
Q 2688 2594 2478 2717
Q 2269 2841 1825 2841
Q 1466 2841 1156 2769
Q 847 2697 581 2553
L 581 3406
Q 941 3494 1303 3539
Q 1666 3584 2028 3584
Q 2975 3584 3395 3211
Q 3816 2838 3816 1997
z
" transform="scale(0.015625)"/>
       <path id="DejaVuSans-Bold-56" d="M 3272 3391
L 3272 2541
Q 2913 2691 2578 2766
Q 2244 2841 1947 2841
Q 1628 2841 1473 2761
Q 1319 2681 1319 2516
Q 1319 2381 1436 2309
Q 1553 2238 1856 2203
L 2053 2175
Q 2913 2066 3209 1816
Q 3506 1566 3506 1031
Q 3506 472 3093 190
Q 2681 -91 1863 -91
Q 1516 -91 1145 -36
Q 775 19 384 128
L 384 978
Q 719 816 1070 734
Q 1422 653 1784 653
Q 2113 653 2278 743
Q 2444 834 2444 1013
Q 2444 1163 2330 1236
Q 2216 1309 1875 1350
L 1678 1375
Q 931 1469 631 1722
Q 331 1975 331 2491
Q 331 3047 712 3315
Q 1094 3584 1881 3584
Q 2191 3584 2531 3537
Q 2872 3491 3272 3391
z
" transform="scale(0.015625)"/>
       <path id="DejaVuSans-Bold-55" d="M 3138 2547
Q 2991 2616 2845 2648
Q 2700 2681 2553 2681
Q 2122 2681 1889 2404
Q 1656 2128 1656 1613
L 1656 0
L 538 0
L 538 3500
L 1656 3500
L 1656 2925
Q 1872 3269 2151 3426
Q 2431 3584 2822 3584
Q 2878 3584 2943 3579
Q 3009 3575 3134 3559
L 3138 2547
z
" transform="scale(0.015625)"/>
      </defs>
      <use xlink:href="#DejaVuSans-Bold-24"/>
      <use xlink:href="#DejaVuSans-Bold-58" transform="translate(77.390625 0)"/>
      <use xlink:href="#DejaVuSans-Bold-47" transform="translate(148.578125 0)"/>
      <use xlink:href="#DejaVuSans-Bold-4c" transform="translate(220.15625 0)"/>
      <use xlink:href="#DejaVuSans-Bold-57" transform="translate(254.4375 0)"/>
      <use xlink:href="#DejaVuSans-Bold-3" transform="translate(302.234375 0)"/>
      <use xlink:href="#DejaVuSans-Bold-50" transform="translate(337.046875 0)"/>
      <use xlink:href="#DejaVuSans-Bold-48" transform="translate(441.25 0)"/>
      <use xlink:href="#DejaVuSans-Bold-44" transform="translate(509.078125 0)"/>
      <use xlink:href="#DejaVuSans-Bold-56" transform="translate(576.5625 0)"/>
      <use xlink:href="#DejaVuSans-Bold-58" transform="translate(636.078125 0)"/>
      <use xlink:href="#DejaVuSans-Bold-55" transform="translate(707.265625 0)"/>
      <use xlink:href="#DejaVuSans-Bold-48" transform="translate(756.578125 0)"/>
     </g>
    </g>
    <g id="patch_3">
     <path d="M 228.563842 91.829844
L 349.307755 91.829844
L 349.307755 48.863923
L 228.563842 48.863923
z
" style="fill: #e8edf2; stroke: #c8d0d8; stroke-width: 0.6; stroke-linejoin: miter"/>
    </g>
    <g id="text_2">
     <!-- Pre-D003 -->
     <g style="fill: #1f2937" transform="translate(233.393598 72.554891) scale(0.085 -0.085)">
      <defs>
       <path id="DejaVuSans-Bold-33" d="M 588 4666
L 2584 4666
Q 3475 4666 3951 4270
Q 4428 3875 4428 3144
Q 4428 2409 3951 2014
Q 3475 1619 2584 1619
L 1791 1619
L 1791 0
L 588 0
L 588 4666
z
M 1791 3794
L 1791 2491
L 2456 2491
Q 2806 2491 2997 2661
Q 3188 2831 3188 3144
Q 3188 3456 2997 3625
Q 2806 3794 2456 3794
L 1791 3794
z
" transform="scale(0.015625)"/>
       <path id="DejaVuSans-Bold-10" d="M 347 2297
L 2309 2297
L 2309 1388
L 347 1388
L 347 2297
z
" transform="scale(0.015625)"/>
       <path id="DejaVuSans-Bold-27" d="M 1791 3756
L 1791 909
L 2222 909
Q 2959 909 3348 1275
Q 3738 1641 3738 2338
Q 3738 3031 3350 3393
Q 2963 3756 2222 3756
L 1791 3756
z
M 588 4666
L 1856 4666
Q 2919 4666 3439 4514
Q 3959 4363 4331 4000
Q 4659 3684 4818 3271
Q 4978 2859 4978 2338
Q 4978 1809 4818 1395
Q 4659 981 4331 666
Q 3956 303 3431 151
Q 2906 0 1856 0
L 588 0
L 588 4666
z
" transform="scale(0.015625)"/>
       <path id="DejaVuSans-Bold-13" d="M 2944 2338
Q 2944 3213 2780 3570
Q 2616 3928 2228 3928
Q 1841 3928 1675 3570
Q 1509 3213 1509 2338
Q 1509 1453 1675 1090
Q 1841 728 2228 728
Q 2613 728 2778 1090
Q 2944 1453 2944 2338
z
M 4147 2328
Q 4147 1169 3647 539
Q 3147 -91 2228 -91
Q 1306 -91 806 539
Q 306 1169 306 2328
Q 306 3491 806 4120
Q 1306 4750 2228 4750
Q 3147 4750 3647 4120
Q 4147 3491 4147 2328
z
" transform="scale(0.015625)"/>
       <path id="DejaVuSans-Bold-16" d="M 2981 2516
Q 3453 2394 3698 2092
Q 3944 1791 3944 1325
Q 3944 631 3412 270
Q 2881 -91 1863 -91
Q 1503 -91 1142 -33
Q 781 25 428 141
L 428 1069
Q 766 900 1098 814
Q 1431 728 1753 728
Q 2231 728 2486 893
Q 2741 1059 2741 1369
Q 2741 1688 2480 1852
Q 2219 2016 1709 2016
L 1228 2016
L 1228 2791
L 1734 2791
Q 2188 2791 2409 2933
Q 2631 3075 2631 3366
Q 2631 3634 2415 3781
Q 2200 3928 1806 3928
Q 1516 3928 1219 3862
Q 922 3797 628 3669
L 628 4550
Q 984 4650 1334 4700
Q 1684 4750 2022 4750
Q 2931 4750 3382 4451
Q 3834 4153 3834 3553
Q 3834 3144 3618 2883
Q 3403 2622 2981 2516
z
" transform="scale(0.015625)"/>
      </defs>
      <use xlink:href="#DejaVuSans-Bold-33"/>
      <use xlink:href="#DejaVuSans-Bold-55" transform="translate(73.296875 0)"/>
      <use xlink:href="#DejaVuSans-Bold-48" transform="translate(122.609375 0)"/>
      <use xlink:href="#DejaVuSans-Bold-10" transform="translate(190.4375 0)"/>
      <use xlink:href="#DejaVuSans-Bold-27" transform="translate(231.9375 0)"/>
      <use xlink:href="#DejaVuSans-Bold-13" transform="translate(314.953125 0)"/>
      <use xlink:href="#DejaVuSans-Bold-13" transform="translate(384.53125 0)"/>
      <use xlink:href="#DejaVuSans-Bold-16" transform="translate(454.109375 0)"/>
     </g>
    </g>
    <g id="patch_4">
     <path d="M 349.307755 91.829844
L 470.051669 91.829844
L 470.051669 48.863923
L 349.307755 48.863923
z
" style="fill: #e8edf2; stroke: #c8d0d8; stroke-width: 0.6; stroke-linejoin: miter"/>
    </g>
    <g id="text_3">
     <!-- D003-v1 -->
     <g style="fill: #1f2937" transform="translate(354.137512 72.554891) scale(0.085 -0.085)">
      <defs>
       <path id="DejaVuSans-Bold-59" d="M 97 3500
L 1216 3500
L 2088 1081
L 2956 3500
L 4078 3500
L 2700 0
L 1472 0
L 97 3500
z
" transform="scale(0.015625)"/>
       <path id="DejaVuSans-Bold-14" d="M 750 831
L 1813 831
L 1813 3847
L 722 3622
L 722 4441
L 1806 4666
L 2950 4666
L 2950 831
L 4013 831
L 4013 0
L 750 0
L 750 831
z
" transform="scale(0.015625)"/>
      </defs>
      <use xlink:href="#DejaVuSans-Bold-27"/>
      <use xlink:href="#DejaVuSans-Bold-13" transform="translate(83.015625 0)"/>
      <use xlink:href="#DejaVuSans-Bold-13" transform="translate(152.59375 0)"/>
      <use xlink:href="#DejaVuSans-Bold-16" transform="translate(222.171875 0)"/>
      <use xlink:href="#DejaVuSans-Bold-10" transform="translate(291.75 0)"/>
      <use xlink:href="#DejaVuSans-Bold-59" transform="translate(333.25 0)"/>
      <use xlink:href="#DejaVuSans-Bold-14" transform="translate(398.4375 0)"/>
     </g>
    </g>
    <g id="patch_5">
     <path d="M 470.051669 91.829844
L 677.99952 91.829844
L 677.99952 48.863923
L 470.051669 48.863923
z
" style="fill: #e8edf2; stroke: #c8d0d8; stroke-width: 0.6; stroke-linejoin: miter"/>
    </g>
    <g id="text_4">
     <!-- Interpretation -->
     <g style="fill: #1f2937" transform="translate(478.369583 72.555223) scale(0.085 -0.085)">
      <defs>
       <path id="DejaVuSans-Bold-2c" d="M 588 4666
L 1791 4666
L 1791 0
L 588 0
L 588 4666
z
" transform="scale(0.015625)"/>
       <path id="DejaVuSans-Bold-51" d="M 4056 2131
L 4056 0
L 2931 0
L 2931 347
L 2931 1631
Q 2931 2084 2911 2256
Q 2891 2428 2841 2509
Q 2775 2619 2662 2680
Q 2550 2741 2406 2741
Q 2056 2741 1856 2470
Q 1656 2200 1656 1722
L 1656 0
L 538 0
L 538 3500
L 1656 3500
L 1656 2988
Q 1909 3294 2193 3439
Q 2478 3584 2822 3584
Q 3428 3584 3742 3212
Q 4056 2841 4056 2131
z
" transform="scale(0.015625)"/>
       <path id="DejaVuSans-Bold-53" d="M 1656 506
L 1656 -1331
L 538 -1331
L 538 3500
L 1656 3500
L 1656 2988
Q 1888 3294 2169 3439
Q 2450 3584 2816 3584
Q 3463 3584 3878 3070
Q 4294 2556 4294 1747
Q 4294 938 3878 423
Q 3463 -91 2816 -91
Q 2450 -91 2169 54
Q 1888 200 1656 506
z
M 2400 2772
Q 2041 2772 1848 2508
Q 1656 2244 1656 1747
Q 1656 1250 1848 986
Q 2041 722 2400 722
Q 2759 722 2948 984
Q 3138 1247 3138 1747
Q 3138 2247 2948 2509
Q 2759 2772 2400 2772
z
" transform="scale(0.015625)"/>
       <path id="DejaVuSans-Bold-52" d="M 2203 2784
Q 1831 2784 1636 2517
Q 1441 2250 1441 1747
Q 1441 1244 1636 976
Q 1831 709 2203 709
Q 2569 709 2762 976
Q 2956 1244 2956 1747
Q 2956 2250 2762 2517
Q 2569 2784 2203 2784
z
M 2203 3584
Q 3106 3584 3614 3096
Q 4122 2609 4122 1747
Q 4122 884 3614 396
Q 3106 -91 2203 -91
Q 1297 -91 786 396
Q 275 884 275 1747
Q 275 2609 786 3096
Q 1297 3584 2203 3584
z
" transform="scale(0.015625)"/>
      </defs>
      <use xlink:href="#DejaVuSans-Bold-2c"/>
      <use xlink:href="#DejaVuSans-Bold-51" transform="translate(37.203125 0)"/>
      <use xlink:href="#DejaVuSans-Bold-57" transform="translate(108.390625 0)"/>
      <use xlink:href="#DejaVuSans-Bold-48" transform="translate(156.1875 0)"/>
      <use xlink:href="#DejaVuSans-Bold-55" transform="translate(224.015625 0)"/>
      <use xlink:href="#DejaVuSans-Bold-53" transform="translate(273.328125 0)"/>
      <use xlink:href="#DejaVuSans-Bold-55" transform="translate(344.90625 0)"/>
      <use xlink:href="#DejaVuSans-Bold-48" transform="translate(394.21875 0)"/>
      <use xlink:href="#DejaVuSans-Bold-57" transform="translate(462.046875 0)"/>
      <use xlink:href="#DejaVuSans-Bold-44" transform="translate(509.84375 0)"/>
      <use xlink:href="#DejaVuSans-Bold-57" transform="translate(577.328125 0)"/>
      <use xlink:href="#DejaVuSans-Bold-4c" transform="translate(625.125 0)"/>
      <use xlink:href="#DejaVuSans-Bold-52" transform="translate(659.40625 0)"/>
      <use xlink:href="#DejaVuSans-Bold-51" transform="translate(728.109375 0)"/>
     </g>
    </g>
    <g id="patch_6">
     <path d="M 7.2 134.795765
L 228.563842 134.795765
L 228.563842 91.829844
L 7.2 91.829844
z
" style="fill: #ffffff; stroke: #c8d0d8; stroke-width: 0.6; stroke-linejoin: miter"/>
    </g>
    <g id="text_5">
     <!-- Schema-invalid rows -->
     <g style="fill: #1f2937" transform="translate(16.054554 115.521144) scale(0.085 -0.085)">
      <defs>
       <path id="DejaVuSans-36" d="M 3425 4513
L 3425 3897
Q 3066 4069 2747 4153
Q 2428 4238 2131 4238
Q 1616 4238 1336 4038
Q 1056 3838 1056 3469
Q 1056 3159 1242 3001
Q 1428 2844 1947 2747
L 2328 2669
Q 3034 2534 3370 2195
Q 3706 1856 3706 1288
Q 3706 609 3251 259
Q 2797 -91 1919 -91
Q 1588 -91 1214 -16
Q 841 59 441 206
L 441 856
Q 825 641 1194 531
Q 1563 422 1919 422
Q 2459 422 2753 634
Q 3047 847 3047 1241
Q 3047 1584 2836 1778
Q 2625 1972 2144 2069
L 1759 2144
Q 1053 2284 737 2584
Q 422 2884 422 3419
Q 422 4038 858 4394
Q 1294 4750 2059 4750
Q 2388 4750 2728 4690
Q 3069 4631 3425 4513
z
" transform="scale(0.015625)"/>
       <path id="DejaVuSans-46" d="M 3122 3366
L 3122 2828
Q 2878 2963 2633 3030
Q 2388 3097 2138 3097
Q 1578 3097 1268 2742
Q 959 2388 959 1747
Q 959 1106 1268 751
Q 1578 397 2138 397
Q 2388 397 2633 464
Q 2878 531 3122 666
L 3122 134
Q 2881 22 2623 -34
Q 2366 -91 2075 -91
Q 1284 -91 818 406
Q 353 903 353 1747
Q 353 2603 823 3093
Q 1294 3584 2113 3584
Q 2378 3584 2631 3529
Q 2884 3475 3122 3366
z
" transform="scale(0.015625)"/>
       <path id="DejaVuSans-4b" d="M 3513 2113
L 3513 0
L 2938 0
L 2938 2094
Q 2938 2591 2744 2837
Q 2550 3084 2163 3084
Q 1697 3084 1428 2787
Q 1159 2491 1159 1978
L 1159 0
L 581 0
L 581 4863
L 1159 4863
L 1159 2956
Q 1366 3272 1645 3428
Q 1925 3584 2291 3584
Q 2894 3584 3203 3211
Q 3513 2838 3513 2113
z
" transform="scale(0.015625)"/>
       <path id="DejaVuSans-48" d="M 3597 1894
L 3597 1613
L 953 1613
Q 991 1019 1311 708
Q 1631 397 2203 397
Q 2534 397 2845 478
Q 3156 559 3463 722
L 3463 178
Q 3153 47 2828 -22
Q 2503 -91 2169 -91
Q 1331 -91 842 396
Q 353 884 353 1716
Q 353 2575 817 3079
Q 1281 3584 2069 3584
Q 2775 3584 3186 3129
Q 3597 2675 3597 1894
z
M 3022 2063
Q 3016 2534 2758 2815
Q 2500 3097 2075 3097
Q 1594 3097 1305 2825
Q 1016 2553 972 2059
L 3022 2063
z
" transform="scale(0.015625)"/>
       <path id="DejaVuSans-50" d="M 3328 2828
Q 3544 3216 3844 3400
Q 4144 3584 4550 3584
Q 5097 3584 5394 3201
Q 5691 2819 5691 2113
L 5691 0
L 5113 0
L 5113 2094
Q 5113 2597 4934 2840
Q 4756 3084 4391 3084
Q 3944 3084 3684 2787
Q 3425 2491 3425 1978
L 3425 0
L 2847 0
L 2847 2094
Q 2847 2600 2669 2842
Q 2491 3084 2119 3084
Q 1678 3084 1418 2786
Q 1159 2488 1159 1978
L 1159 0
L 581 0
L 581 3500
L 1159 3500
L 1159 2956
Q 1356 3278 1631 3431
Q 1906 3584 2284 3584
Q 2666 3584 2933 3390
Q 3200 3197 3328 2828
z
" transform="scale(0.015625)"/>
       <path id="DejaVuSans-44" d="M 2194 1759
Q 1497 1759 1228 1600
Q 959 1441 959 1056
Q 959 750 1161 570
Q 1363 391 1709 391
Q 2188 391 2477 730
Q 2766 1069 2766 1631
L 2766 1759
L 2194 1759
z
M 3341 1997
L 3341 0
L 2766 0
L 2766 531
Q 2569 213 2275 61
Q 1981 -91 1556 -91
Q 1019 -91 701 211
Q 384 513 384 1019
Q 384 1609 779 1909
Q 1175 2209 1959 2209
L 2766 2209
L 2766 2266
Q 2766 2663 2505 2880
Q 2244 3097 1772 3097
Q 1472 3097 1187 3025
Q 903 2953 641 2809
L 641 3341
Q 956 3463 1253 3523
Q 1550 3584 1831 3584
Q 2591 3584 2966 3190
Q 3341 2797 3341 1997
z
" transform="scale(0.015625)"/>
       <path id="DejaVuSans-10" d="M 313 2009
L 1997 2009
L 1997 1497
L 313 1497
L 313 2009
z
" transform="scale(0.015625)"/>
       <path id="DejaVuSans-4c" d="M 603 3500
L 1178 3500
L 1178 0
L 603 0
L 603 3500
z
M 603 4863
L 1178 4863
L 1178 4134
L 603 4134
L 603 4863
z
" transform="scale(0.015625)"/>
       <path id="DejaVuSans-51" d="M 3513 2113
L 3513 0
L 2938 0
L 2938 2094
Q 2938 2591 2744 2837
Q 2550 3084 2163 3084
Q 1697 3084 1428 2787
Q 1159 2491 1159 1978
L 1159 0
L 581 0
L 581 3500
L 1159 3500
L 1159 2956
Q 1366 3272 1645 3428
Q 1925 3584 2291 3584
Q 2894 3584 3203 3211
Q 3513 2838 3513 2113
z
" transform="scale(0.015625)"/>
       <path id="DejaVuSans-59" d="M 191 3500
L 800 3500
L 1894 563
L 2988 3500
L 3597 3500
L 2284 0
L 1503 0
L 191 3500
z
" transform="scale(0.015625)"/>
       <path id="DejaVuSans-4f" d="M 603 4863
L 1178 4863
L 1178 0
L 603 0
L 603 4863
z
" transform="scale(0.015625)"/>
       <path id="DejaVuSans-47" d="M 2906 2969
L 2906 4863
L 3481 4863
L 3481 0
L 2906 0
L 2906 525
Q 2725 213 2448 61
Q 2172 -91 1784 -91
Q 1150 -91 751 415
Q 353 922 353 1747
Q 353 2572 751 3078
Q 1150 3584 1784 3584
Q 2172 3584 2448 3432
Q 2725 3281 2906 2969
z
M 947 1747
Q 947 1113 1208 752
Q 1469 391 1925 391
Q 2381 391 2643 752
Q 2906 1113 2906 1747
Q 2906 2381 2643 2742
Q 2381 3103 1925 3103
Q 1469 3103 1208 2742
Q 947 2381 947 1747
z
" transform="scale(0.015625)"/>
       <path id="DejaVuSans-3" transform="scale(0.015625)"/>
       <path id="DejaVuSans-55" d="M 2631 2963
Q 2534 3019 2420 3045
Q 2306 3072 2169 3072
Q 1681 3072 1420 2755
Q 1159 2438 1159 1844
L 1159 0
L 581 0
L 581 3500
L 1159 3500
L 1159 2956
Q 1341 3275 1631 3429
Q 1922 3584 2338 3584
Q 2397 3584 2469 3576
Q 2541 3569 2628 3553
L 2631 2963
z
" transform="scale(0.015625)"/>
       <path id="DejaVuSans-52" d="M 1959 3097
Q 1497 3097 1228 2736
Q 959 2375 959 1747
Q 959 1119 1226 758
Q 1494 397 1959 397
Q 2419 397 2687 759
Q 2956 1122 2956 1747
Q 2956 2369 2687 2733
Q 2419 3097 1959 3097
z
M 1959 3584
Q 2709 3584 3137 3096
Q 3566 2609 3566 1747
Q 3566 888 3137 398
Q 2709 -91 1959 -91
Q 1206 -91 779 398
Q 353 888 353 1747
Q 353 2609 779 3096
Q 1206 3584 1959 3584
z
" transform="scale(0.015625)"/>
       <path id="DejaVuSans-5a" d="M 269 3500
L 844 3500
L 1563 769
L 2278 3500
L 2956 3500
L 3675 769
L 4391 3500
L 4966 3500
L 4050 0
L 3372 0
L 2619 2869
L 1863 0
L 1184 0
L 269 3500
z
" transform="scale(0.015625)"/>
       <path id="DejaVuSans-56" d="M 2834 3397
L 2834 2853
Q 2591 2978 2328 3040
Q 2066 3103 1784 3103
Q 1356 3103 1142 2972
Q 928 2841 928 2578
Q 928 2378 1081 2264
Q 1234 2150 1697 2047
L 1894 2003
Q 2506 1872 2764 1633
Q 3022 1394 3022 966
Q 3022 478 2636 193
Q 2250 -91 1575 -91
Q 1294 -91 989 -36
Q 684 19 347 128
L 347 722
Q 666 556 975 473
Q 1284 391 1588 391
Q 1994 391 2212 530
Q 2431 669 2431 922
Q 2431 1156 2273 1281
Q 2116 1406 1581 1522
L 1381 1569
Q 847 1681 609 1914
Q 372 2147 372 2553
Q 372 3047 722 3315
Q 1072 3584 1716 3584
Q 2034 3584 2315 3537
Q 2597 3491 2834 3397
z
" transform="scale(0.015625)"/>
      </defs>
      <use xlink:href="#DejaVuSans-36"/>
      <use xlink:href="#DejaVuSans-46" transform="translate(63.484375 0)"/>
      <use xlink:href="#DejaVuSans-4b" transform="translate(118.46875 0)"/>
      <use xlink:href="#DejaVuSans-48" transform="translate(181.84375 0)"/>
      <use xlink:href="#DejaVuSans-50" transform="translate(243.375 0)"/>
      <use xlink:href="#DejaVuSans-44" transform="translate(340.78125 0)"/>
      <use xlink:href="#DejaVuSans-10" transform="translate(402.0625 0)"/>
      <use xlink:href="#DejaVuSans-4c" transform="translate(438.140625 0)"/>
      <use xlink:href="#DejaVuSans-51" transform="translate(465.921875 0)"/>
      <use xlink:href="#DejaVuSans-59" transform="translate(529.296875 0)"/>
      <use xlink:href="#DejaVuSans-44" transform="translate(588.484375 0)"/>
      <use xlink:href="#DejaVuSans-4f" transform="translate(649.765625 0)"/>
      <use xlink:href="#DejaVuSans-4c" transform="translate(677.546875 0)"/>
      <use xlink:href="#DejaVuSans-47" transform="translate(705.328125 0)"/>
      <use xlink:href="#DejaVuSans-3" transform="translate(768.8125 0)"/>
      <use xlink:href="#DejaVuSans-55" transform="translate(800.59375 0)"/>
      <use xlink:href="#DejaVuSans-52" transform="translate(839.5 0)"/>
      <use xlink:href="#DejaVuSans-5a" transform="translate(900.6875 0)"/>
      <use xlink:href="#DejaVuSans-56" transform="translate(982.46875 0)"/>
     </g>
    </g>
    <g id="patch_7">
     <path d="M 228.563842 134.795765
L 349.307755 134.795765
L 349.307755 91.829844
L 228.563842 91.829844
z
" style="fill: #ffffff; stroke: #c8d0d8; stroke-width: 0.6; stroke-linejoin: miter"/>
    </g>
    <g id="text_6">
     <!-- 7000/7000 (100%) -->
     <g style="fill: #1f2937" transform="translate(233.393598 115.520812) scale(0.085 -0.085)">
      <defs>
       <path id="DejaVuSans-1a" d="M 525 4666
L 3525 4666
L 3525 4397
L 1831 0
L 1172 0
L 2766 4134
L 525 4134
L 525 4666
z
" transform="scale(0.015625)"/>
       <path id="DejaVuSans-13" d="M 2034 4250
Q 1547 4250 1301 3770
Q 1056 3291 1056 2328
Q 1056 1369 1301 889
Q 1547 409 2034 409
Q 2525 409 2770 889
Q 3016 1369 3016 2328
Q 3016 3291 2770 3770
Q 2525 4250 2034 4250
z
M 2034 4750
Q 2819 4750 3233 4129
Q 3647 3509 3647 2328
Q 3647 1150 3233 529
Q 2819 -91 2034 -91
Q 1250 -91 836 529
Q 422 1150 422 2328
Q 422 3509 836 4129
Q 1250 4750 2034 4750
z
" transform="scale(0.015625)"/>
       <path id="DejaVuSans-12" d="M 1625 4666
L 2156 4666
L 531 -594
L 0 -594
L 1625 4666
z
" transform="scale(0.015625)"/>
       <path id="DejaVuSans-b" d="M 1984 4856
Q 1566 4138 1362 3434
Q 1159 2731 1159 2009
Q 1159 1288 1364 580
Q 1569 -128 1984 -844
L 1484 -844
Q 1016 -109 783 600
Q 550 1309 550 2009
Q 550 2706 781 3412
Q 1013 4119 1484 4856
L 1984 4856
z
" transform="scale(0.015625)"/>
       <path id="DejaVuSans-14" d="M 794 531
L 1825 531
L 1825 4091
L 703 3866
L 703 4441
L 1819 4666
L 2450 4666
L 2450 531
L 3481 531
L 3481 0
L 794 0
L 794 531
z
" transform="scale(0.015625)"/>
       <path id="DejaVuSans-8" d="M 4653 2053
Q 4381 2053 4226 1822
Q 4072 1591 4072 1178
Q 4072 772 4226 539
Q 4381 306 4653 306
Q 4919 306 5073 539
Q 5228 772 5228 1178
Q 5228 1588 5073 1820
Q 4919 2053 4653 2053
z
M 4653 2450
Q 5147 2450 5437 2106
Q 5728 1763 5728 1178
Q 5728 594 5436 251
Q 5144 -91 4653 -91
Q 4153 -91 3862 251
Q 3572 594 3572 1178
Q 3572 1766 3864 2108
Q 4156 2450 4653 2450
z
M 1428 4353
Q 1159 4353 1004 4120
Q 850 3888 850 3481
Q 850 3069 1003 2837
Q 1156 2606 1428 2606
Q 1700 2606 1854 2837
Q 2009 3069 2009 3481
Q 2009 3884 1853 4118
Q 1697 4353 1428 4353
z
M 4250 4750
L 4750 4750
L 1831 -91
L 1331 -91
L 4250 4750
z
M 1428 4750
Q 1922 4750 2215 4408
Q 2509 4066 2509 3481
Q 2509 2891 2217 2550
Q 1925 2209 1428 2209
Q 931 2209 642 2551
Q 353 2894 353 3481
Q 353 4063 643 4406
Q 934 4750 1428 4750
z
" transform="scale(0.015625)"/>
       <path id="DejaVuSans-c" d="M 513 4856
L 1013 4856
Q 1481 4119 1714 3412
Q 1947 2706 1947 2009
Q 1947 1309 1714 600
Q 1481 -109 1013 -844
L 513 -844
Q 928 -128 1133 580
Q 1338 1288 1338 2009
Q 1338 2731 1133 3434
Q 928 4138 513 4856
z
" transform="scale(0.015625)"/>
      </defs>
      <use xlink:href="#DejaVuSans-1a"/>
      <use xlink:href="#DejaVuSans-13" transform="translate(63.625 0)"/>
      <use xlink:href="#DejaVuSans-13" transform="translate(127.25 0)"/>
      <use xlink:href="#DejaVuSans-13" transform="translate(190.875 0)"/>
      <use xlink:href="#DejaVuSans-12" transform="translate(254.5 0)"/>
      <use xlink:href="#DejaVuSans-1a" transform="translate(288.1875 0)"/>
      <use xlink:href="#DejaVuSans-13" transform="translate(351.8125 0)"/>
      <use xlink:href="#DejaVuSans-13" transform="translate(415.4375 0)"/>
      <use xlink:href="#DejaVuSans-13" transform="translate(479.0625 0)"/>
      <use xlink:href="#DejaVuSans-3" transform="translate(542.6875 0)"/>
      <use xlink:href="#DejaVuSans-b" transform="translate(574.46875 0)"/>
      <use xlink:href="#DejaVuSans-14" transform="translate(613.484375 0)"/>
      <use xlink:href="#DejaVuSans-13" transform="translate(677.109375 0)"/>
      <use xlink:href="#DejaVuSans-13" transform="translate(740.734375 0)"/>
      <use xlink:href="#DejaVuSans-8" transform="translate(804.359375 0)"/>
      <use xlink:href="#DejaVuSans-c" transform="translate(899.375 0)"/>
     </g>
    </g>
    <g id="patch_8">
     <path d="M 349.307755 134.795765
L 470.051669 134.795765
L 470.051669 91.829844
L 349.307755 91.829844
z
" style="fill: #ffffff; stroke: #c8d0d8; stroke-width: 0.6; stroke-linejoin: miter"/>
    </g>
    <g id="text_7">
     <!-- 0/7000 (0%) -->
     <g style="fill: #1f2937" transform="translate(354.137512 115.520812) scale(0.085 -0.085)">
      <use xlink:href="#DejaVuSans-13"/>
      <use xlink:href="#DejaVuSans-12" transform="translate(63.625 0)"/>
      <use xlink:href="#DejaVuSans-1a" transform="translate(97.3125 0)"/>
      <use xlink:href="#DejaVuSans-13" transform="translate(160.9375 0)"/>
      <use xlink:href="#DejaVuSans-13" transform="translate(224.5625 0)"/>
      <use xlink:href="#DejaVuSans-13" transform="translate(288.1875 0)"/>
      <use xlink:href="#DejaVuSans-3" transform="translate(351.8125 0)"/>
      <use xlink:href="#DejaVuSans-b" transform="translate(383.59375 0)"/>
      <use xlink:href="#DejaVuSans-13" transform="translate(422.609375 0)"/>
      <use xlink:href="#DejaVuSans-8" transform="translate(486.234375 0)"/>
      <use xlink:href="#DejaVuSans-c" transform="translate(581.25 0)"/>
     </g>
    </g>
    <g id="patch_9">
     <path d="M 470.051669 134.795765
L 677.99952 134.795765
L 677.99952 91.829844
L 470.051669 91.829844
z
" style="fill: #ffffff; stroke: #c8d0d8; stroke-width: 0.6; stroke-linejoin: miter"/>
    </g>
    <g id="text_8">
     <!-- All recorded schema failures removed -->
     <g style="fill: #1f2937" transform="translate(478.369583 115.521144) scale(0.085 -0.085)">
      <defs>
       <path id="DejaVuSans-24" d="M 2188 4044
L 1331 1722
L 3047 1722
L 2188 4044
z
M 1831 4666
L 2547 4666
L 4325 0
L 3669 0
L 3244 1197
L 1141 1197
L 716 0
L 50 0
L 1831 4666
z
" transform="scale(0.015625)"/>
       <path id="DejaVuSans-49" d="M 2375 4863
L 2375 4384
L 1825 4384
Q 1516 4384 1395 4259
Q 1275 4134 1275 3809
L 1275 3500
L 2222 3500
L 2222 3053
L 1275 3053
L 1275 0
L 697 0
L 697 3053
L 147 3053
L 147 3500
L 697 3500
L 697 3744
Q 697 4328 969 4595
Q 1241 4863 1831 4863
L 2375 4863
z
" transform="scale(0.015625)"/>
       <path id="DejaVuSans-58" d="M 544 1381
L 544 3500
L 1119 3500
L 1119 1403
Q 1119 906 1312 657
Q 1506 409 1894 409
Q 2359 409 2629 706
Q 2900 1003 2900 1516
L 2900 3500
L 3475 3500
L 3475 0
L 2900 0
L 2900 538
Q 2691 219 2414 64
Q 2138 -91 1772 -91
Q 1169 -91 856 284
Q 544 659 544 1381
z
M 1991 3584
L 1991 3584
z
" transform="scale(0.015625)"/>
      </defs>
      <use xlink:href="#DejaVuSans-24"/>
      <use xlink:href="#DejaVuSans-4f" transform="translate(68.40625 0)"/>
      <use xlink:href="#DejaVuSans-4f" transform="translate(96.1875 0)"/>
      <use xlink:href="#DejaVuSans-3" transform="translate(123.96875 0)"/>
      <use xlink:href="#DejaVuSans-55" transform="translate(155.75 0)"/>
      <use xlink:href="#DejaVuSans-48" transform="translate(194.65625 0)"/>
      <use xlink:href="#DejaVuSans-46" transform="translate(256.1875 0)"/>
      <use xlink:href="#DejaVuSans-52" transform="translate(311.171875 0)"/>
      <use xlink:href="#DejaVuSans-55" transform="translate(372.359375 0)"/>
      <use xlink:href="#DejaVuSans-47" transform="translate(411.71875 0)"/>
      <use xlink:href="#DejaVuSans-48" transform="translate(475.203125 0)"/>
      <use xlink:href="#DejaVuSans-47" transform="translate(536.734375 0)"/>
      <use xlink:href="#DejaVuSans-3" transform="translate(600.21875 0)"/>
      <use xlink:href="#DejaVuSans-56" transform="translate(632 0)"/>
      <use xlink:href="#DejaVuSans-46" transform="translate(684.09375 0)"/>
      <use xlink:href="#DejaVuSans-4b" transform="translate(739.078125 0)"/>
      <use xlink:href="#DejaVuSans-48" transform="translate(802.453125 0)"/>
      <use xlink:href="#DejaVuSans-50" transform="translate(863.984375 0)"/>
      <use xlink:href="#DejaVuSans-44" transform="translate(961.390625 0)"/>
      <use xlink:href="#DejaVuSans-3" transform="translate(1022.671875 0)"/>
      <use xlink:href="#DejaVuSans-49" transform="translate(1054.453125 0)"/>
      <use xlink:href="#DejaVuSans-44" transform="translate(1089.65625 0)"/>
      <use xlink:href="#DejaVuSans-4c" transform="translate(1150.9375 0)"/>
      <use xlink:href="#DejaVuSans-4f" transform="translate(1178.71875 0)"/>
      <use xlink:href="#DejaVuSans-58" transform="translate(1206.5 0)"/>
      <use xlink:href="#DejaVuSans-55" transform="translate(1269.875 0)"/>
      <use xlink:href="#DejaVuSans-48" transform="translate(1308.78125 0)"/>
      <use xlink:href="#DejaVuSans-56" transform="translate(1370.3125 0)"/>
      <use xlink:href="#DejaVuSans-3" transform="translate(1422.40625 0)"/>
      <use xlink:href="#DejaVuSans-55" transform="translate(1454.1875 0)"/>
      <use xlink:href="#DejaVuSans-48" transform="translate(1493.09375 0)"/>
      <use xlink:href="#DejaVuSans-50" transform="translate(1554.625 0)"/>
      <use xlink:href="#DejaVuSans-52" transform="translate(1652.03125 0)"/>
      <use xlink:href="#DejaVuSans-59" transform="translate(1713.21875 0)"/>
      <use xlink:href="#DejaVuSans-48" transform="translate(1772.40625 0)"/>
      <use xlink:href="#DejaVuSans-47" transform="translate(1833.9375 0)"/>
     </g>
    </g>
    <g id="patch_10">
     <path d="M 7.2 177.761686
L 228.563842 177.761686
L 228.563842 134.795765
L 7.2 134.795765
z
" style="fill: #ffffff; stroke: #c8d0d8; stroke-width: 0.6; stroke-linejoin: miter"/>
    </g>
    <g id="text_9">
     <!-- Relationship-error rows -->
     <g style="fill: #1f2937" transform="translate(16.054554 158.487065) scale(0.085 -0.085)">
      <defs>
       <path id="DejaVuSans-35" d="M 2841 2188
Q 3044 2119 3236 1894
Q 3428 1669 3622 1275
L 4263 0
L 3584 0
L 2988 1197
Q 2756 1666 2539 1819
Q 2322 1972 1947 1972
L 1259 1972
L 1259 0
L 628 0
L 628 4666
L 2053 4666
Q 2853 4666 3247 4331
Q 3641 3997 3641 3322
Q 3641 2881 3436 2590
Q 3231 2300 2841 2188
z
M 1259 4147
L 1259 2491
L 2053 2491
Q 2509 2491 2742 2702
Q 2975 2913 2975 3322
Q 2975 3731 2742 3939
Q 2509 4147 2053 4147
L 1259 4147
z
" transform="scale(0.015625)"/>
       <path id="DejaVuSans-57" d="M 1172 4494
L 1172 3500
L 2356 3500
L 2356 3053
L 1172 3053
L 1172 1153
Q 1172 725 1289 603
Q 1406 481 1766 481
L 2356 481
L 2356 0
L 1766 0
Q 1100 0 847 248
Q 594 497 594 1153
L 594 3053
L 172 3053
L 172 3500
L 594 3500
L 594 4494
L 1172 4494
z
" transform="scale(0.015625)"/>
       <path id="DejaVuSans-53" d="M 1159 525
L 1159 -1331
L 581 -1331
L 581 3500
L 1159 3500
L 1159 2969
Q 1341 3281 1617 3432
Q 1894 3584 2278 3584
Q 2916 3584 3314 3078
Q 3713 2572 3713 1747
Q 3713 922 3314 415
Q 2916 -91 2278 -91
Q 1894 -91 1617 61
Q 1341 213 1159 525
z
M 3116 1747
Q 3116 2381 2855 2742
Q 2594 3103 2138 3103
Q 1681 3103 1420 2742
Q 1159 2381 1159 1747
Q 1159 1113 1420 752
Q 1681 391 2138 391
Q 2594 391 2855 752
Q 3116 1113 3116 1747
z
" transform="scale(0.015625)"/>
      </defs>
      <use xlink:href="#DejaVuSans-35"/>
      <use xlink:href="#DejaVuSans-48" transform="translate(65 0)"/>
      <use xlink:href="#DejaVuSans-4f" transform="translate(126.53125 0)"/>
      <use xlink:href="#DejaVuSans-44" transform="translate(154.3125 0)"/>
      <use xlink:href="#DejaVuSans-57" transform="translate(215.59375 0)"/>
      <use xlink:href="#DejaVuSans-4c" transform="translate(254.796875 0)"/>
      <use xlink:href="#DejaVuSans-52" transform="translate(282.578125 0)"/>
      <use xlink:href="#DejaVuSans-51" transform="translate(343.765625 0)"/>
      <use xlink:href="#DejaVuSans-56" transform="translate(407.140625 0)"/>
      <use xlink:href="#DejaVuSans-4b" transform="translate(459.234375 0)"/>
      <use xlink:href="#DejaVuSans-4c" transform="translate(522.609375 0)"/>
      <use xlink:href="#DejaVuSans-53" transform="translate(550.390625 0)"/>
      <use xlink:href="#DejaVuSans-10" transform="translate(613.875 0)"/>
      <use xlink:href="#DejaVuSans-48" transform="translate(649.953125 0)"/>
      <use xlink:href="#DejaVuSans-55" transform="translate(711.484375 0)"/>
      <use xlink:href="#DejaVuSans-55" transform="translate(750.84375 0)"/>
      <use xlink:href="#DejaVuSans-52" transform="translate(789.75 0)"/>
      <use xlink:href="#DejaVuSans-55" transform="translate(850.9375 0)"/>
      <use xlink:href="#DejaVuSans-3" transform="translate(892.046875 0)"/>
      <use xlink:href="#DejaVuSans-55" transform="translate(923.828125 0)"/>
      <use xlink:href="#DejaVuSans-52" transform="translate(962.734375 0)"/>
      <use xlink:href="#DejaVuSans-5a" transform="translate(1023.921875 0)"/>
      <use xlink:href="#DejaVuSans-56" transform="translate(1105.703125 0)"/>
     </g>
    </g>
    <g id="patch_11">
     <path d="M 228.563842 177.761686
L 349.307755 177.761686
L 349.307755 134.795765
L 228.563842 134.795765
z
" style="fill: #ffffff; stroke: #c8d0d8; stroke-width: 0.6; stroke-linejoin: miter"/>
    </g>
    <g id="text_10">
     <!-- 7000/7000 (100%) -->
     <g style="fill: #1f2937" transform="translate(233.393598 158.486733) scale(0.085 -0.085)">
      <use xlink:href="#DejaVuSans-1a"/>
      <use xlink:href="#DejaVuSans-13" transform="translate(63.625 0)"/>
      <use xlink:href="#DejaVuSans-13" transform="translate(127.25 0)"/>
      <use xlink:href="#DejaVuSans-13" transform="translate(190.875 0)"/>
      <use xlink:href="#DejaVuSans-12" transform="translate(254.5 0)"/>
      <use xlink:href="#DejaVuSans-1a" transform="translate(288.1875 0)"/>
      <use xlink:href="#DejaVuSans-13" transform="translate(351.8125 0)"/>
      <use xlink:href="#DejaVuSans-13" transform="translate(415.4375 0)"/>
      <use xlink:href="#DejaVuSans-13" transform="translate(479.0625 0)"/>
      <use xlink:href="#DejaVuSans-3" transform="translate(542.6875 0)"/>
      <use xlink:href="#DejaVuSans-b" transform="translate(574.46875 0)"/>
      <use xlink:href="#DejaVuSans-14" transform="translate(613.484375 0)"/>
      <use xlink:href="#DejaVuSans-13" transform="translate(677.109375 0)"/>
      <use xlink:href="#DejaVuSans-13" transform="translate(740.734375 0)"/>
      <use xlink:href="#DejaVuSans-8" transform="translate(804.359375 0)"/>
      <use xlink:href="#DejaVuSans-c" transform="translate(899.375 0)"/>
     </g>
    </g>
    <g id="patch_12">
     <path d="M 349.307755 177.761686
L 470.051669 177.761686
L 470.051669 134.795765
L 349.307755 134.795765
z
" style="fill: #ffffff; stroke: #c8d0d8; stroke-width: 0.6; stroke-linejoin: miter"/>
    </g>
    <g id="text_11">
     <!-- 0/7000 (0%) -->
     <g style="fill: #1f2937" transform="translate(354.137512 158.486733) scale(0.085 -0.085)">
      <use xlink:href="#DejaVuSans-13"/>
      <use xlink:href="#DejaVuSans-12" transform="translate(63.625 0)"/>
      <use xlink:href="#DejaVuSans-1a" transform="translate(97.3125 0)"/>
      <use xlink:href="#DejaVuSans-13" transform="translate(160.9375 0)"/>
      <use xlink:href="#DejaVuSans-13" transform="translate(224.5625 0)"/>
      <use xlink:href="#DejaVuSans-13" transform="translate(288.1875 0)"/>
      <use xlink:href="#DejaVuSans-3" transform="translate(351.8125 0)"/>
      <use xlink:href="#DejaVuSans-b" transform="translate(383.59375 0)"/>
      <use xlink:href="#DejaVuSans-13" transform="translate(422.609375 0)"/>
      <use xlink:href="#DejaVuSans-8" transform="translate(486.234375 0)"/>
      <use xlink:href="#DejaVuSans-c" transform="translate(581.25 0)"/>
     </g>
    </g>
    <g id="patch_13">
     <path d="M 470.051669 177.761686
L 677.99952 177.761686
L 677.99952 134.795765
L 470.051669 134.795765
z
" style="fill: #ffffff; stroke: #c8d0d8; stroke-width: 0.6; stroke-linejoin: miter"/>
    </g>
    <g id="text_12">
     <!-- All relationship failures removed -->
     <g style="fill: #1f2937" transform="translate(478.369583 158.487065) scale(0.085 -0.085)">
      <use xlink:href="#DejaVuSans-24"/>
      <use xlink:href="#DejaVuSans-4f" transform="translate(68.40625 0)"/>
      <use xlink:href="#DejaVuSans-4f" transform="translate(96.1875 0)"/>
      <use xlink:href="#DejaVuSans-3" transform="translate(123.96875 0)"/>
      <use xlink:href="#DejaVuSans-55" transform="translate(155.75 0)"/>
      <use xlink:href="#DejaVuSans-48" transform="translate(194.65625 0)"/>
      <use xlink:href="#DejaVuSans-4f" transform="translate(256.1875 0)"/>
      <use xlink:href="#DejaVuSans-44" transform="translate(283.96875 0)"/>
      <use xlink:href="#DejaVuSans-57" transform="translate(345.25 0)"/>
      <use xlink:href="#DejaVuSans-4c" transform="translate(384.453125 0)"/>
      <use xlink:href="#DejaVuSans-52" transform="translate(412.234375 0)"/>
      <use xlink:href="#DejaVuSans-51" transform="translate(473.421875 0)"/>
      <use xlink:href="#DejaVuSans-56" transform="translate(536.796875 0)"/>
      <use xlink:href="#DejaVuSans-4b" transform="translate(588.890625 0)"/>
      <use xlink:href="#DejaVuSans-4c" transform="translate(652.265625 0)"/>
      <use xlink:href="#DejaVuSans-53" transform="translate(680.046875 0)"/>
      <use xlink:href="#DejaVuSans-3" transform="translate(743.53125 0)"/>
      <use xlink:href="#DejaVuSans-49" transform="translate(775.3125 0)"/>
      <use xlink:href="#DejaVuSans-44" transform="translate(810.515625 0)"/>
      <use xlink:href="#DejaVuSans-4c" transform="translate(871.796875 0)"/>
      <use xlink:href="#DejaVuSans-4f" transform="translate(899.578125 0)"/>
      <use xlink:href="#DejaVuSans-58" transform="translate(927.359375 0)"/>
      <use xlink:href="#DejaVuSans-55" transform="translate(990.734375 0)"/>
      <use xlink:href="#DejaVuSans-48" transform="translate(1029.640625 0)"/>
      <use xlink:href="#DejaVuSans-56" transform="translate(1091.171875 0)"/>
      <use xlink:href="#DejaVuSans-3" transform="translate(1143.265625 0)"/>
      <use xlink:href="#DejaVuSans-55" transform="translate(1175.046875 0)"/>
      <use xlink:href="#DejaVuSans-48" transform="translate(1213.953125 0)"/>
      <use xlink:href="#DejaVuSans-50" transform="translate(1275.484375 0)"/>
      <use xlink:href="#DejaVuSans-52" transform="translate(1372.890625 0)"/>
      <use xlink:href="#DejaVuSans-59" transform="translate(1434.078125 0)"/>
      <use xlink:href="#DejaVuSans-48" transform="translate(1493.265625 0)"/>
      <use xlink:href="#DejaVuSans-47" transform="translate(1554.796875 0)"/>
     </g>
    </g>
    <g id="patch_14">
     <path d="M 7.2 220.727606
L 228.563842 220.727606
L 228.563842 177.761686
L 7.2 177.761686
z
" style="fill: #ffffff; stroke: #c8d0d8; stroke-width: 0.6; stroke-linejoin: miter"/>
    </g>
    <g id="text_13">
     <!-- Uncertainty-nonconformant groups -->
     <g style="fill: #1f2937" transform="translate(16.054554 201.452986) scale(0.085 -0.085)">
      <defs>
       <path id="DejaVuSans-38" d="M 556 4666
L 1191 4666
L 1191 1831
Q 1191 1081 1462 751
Q 1734 422 2344 422
Q 2950 422 3222 751
Q 3494 1081 3494 1831
L 3494 4666
L 4128 4666
L 4128 1753
Q 4128 841 3676 375
Q 3225 -91 2344 -91
Q 1459 -91 1007 375
Q 556 841 556 1753
L 556 4666
z
" transform="scale(0.015625)"/>
       <path id="DejaVuSans-5c" d="M 2059 -325
Q 1816 -950 1584 -1140
Q 1353 -1331 966 -1331
L 506 -1331
L 506 -850
L 844 -850
Q 1081 -850 1212 -737
Q 1344 -625 1503 -206
L 1606 56
L 191 3500
L 800 3500
L 1894 763
L 2988 3500
L 3597 3500
L 2059 -325
z
" transform="scale(0.015625)"/>
       <path id="DejaVuSans-4a" d="M 2906 1791
Q 2906 2416 2648 2759
Q 2391 3103 1925 3103
Q 1463 3103 1205 2759
Q 947 2416 947 1791
Q 947 1169 1205 825
Q 1463 481 1925 481
Q 2391 481 2648 825
Q 2906 1169 2906 1791
z
M 3481 434
Q 3481 -459 3084 -895
Q 2688 -1331 1869 -1331
Q 1566 -1331 1297 -1286
Q 1028 -1241 775 -1147
L 775 -588
Q 1028 -725 1275 -790
Q 1522 -856 1778 -856
Q 2344 -856 2625 -561
Q 2906 -266 2906 331
L 2906 616
Q 2728 306 2450 153
Q 2172 0 1784 0
Q 1141 0 747 490
Q 353 981 353 1791
Q 353 2603 747 3093
Q 1141 3584 1784 3584
Q 2172 3584 2450 3431
Q 2728 3278 2906 2969
L 2906 3500
L 3481 3500
L 3481 434
z
" transform="scale(0.015625)"/>
      </defs>
      <use xlink:href="#DejaVuSans-38"/>
      <use xlink:href="#DejaVuSans-51" transform="translate(73.1875 0)"/>
      <use xlink:href="#DejaVuSans-46" transform="translate(136.5625 0)"/>
      <use xlink:href="#DejaVuSans-48" transform="translate(191.546875 0)"/>
      <use xlink:href="#DejaVuSans-55" transform="translate(253.078125 0)"/>
      <use xlink:href="#DejaVuSans-57" transform="translate(294.1875 0)"/>
      <use xlink:href="#DejaVuSans-44" transform="translate(333.390625 0)"/>
      <use xlink:href="#DejaVuSans-4c" transform="translate(394.671875 0)"/>
      <use xlink:href="#DejaVuSans-51" transform="translate(422.453125 0)"/>
      <use xlink:href="#DejaVuSans-57" transform="translate(485.828125 0)"/>
      <use xlink:href="#DejaVuSans-5c" transform="translate(525.03125 0)"/>
      <use xlink:href="#DejaVuSans-10" transform="translate(582.46875 0)"/>
      <use xlink:href="#DejaVuSans-51" transform="translate(618.546875 0)"/>
      <use xlink:href="#DejaVuSans-52" transform="translate(681.921875 0)"/>
      <use xlink:href="#DejaVuSans-51" transform="translate(743.109375 0)"/>
      <use xlink:href="#DejaVuSans-46" transform="translate(806.484375 0)"/>
      <use xlink:href="#DejaVuSans-52" transform="translate(861.46875 0)"/>
      <use xlink:href="#DejaVuSans-51" transform="translate(922.65625 0)"/>
      <use xlink:href="#DejaVuSans-49" transform="translate(986.03125 0)"/>
      <use xlink:href="#DejaVuSans-52" transform="translate(1021.234375 0)"/>
      <use xlink:href="#DejaVuSans-55" transform="translate(1082.421875 0)"/>
      <use xlink:href="#DejaVuSans-50" transform="translate(1121.78125 0)"/>
      <use xlink:href="#DejaVuSans-44" transform="translate(1219.1875 0)"/>
      <use xlink:href="#DejaVuSans-51" transform="translate(1280.46875 0)"/>
      <use xlink:href="#DejaVuSans-57" transform="translate(1343.84375 0)"/>
      <use xlink:href="#DejaVuSans-3" transform="translate(1383.046875 0)"/>
      <use xlink:href="#DejaVuSans-4a" transform="translate(1414.828125 0)"/>
      <use xlink:href="#DejaVuSans-55" transform="translate(1478.3125 0)"/>
      <use xlink:href="#DejaVuSans-52" transform="translate(1517.21875 0)"/>
      <use xlink:href="#DejaVuSans-58" transform="translate(1578.40625 0)"/>
      <use xlink:href="#DejaVuSans-53" transform="translate(1641.78125 0)"/>
      <use xlink:href="#DejaVuSans-56" transform="translate(1705.265625 0)"/>
     </g>
    </g>
    <g id="patch_15">
     <path d="M 228.563842 220.727606
L 349.307755 220.727606
L 349.307755 177.761686
L 228.563842 177.761686
z
" style="fill: #ffffff; stroke: #c8d0d8; stroke-width: 0.6; stroke-linejoin: miter"/>
    </g>
    <g id="text_14">
     <!-- 12/14 (86%) -->
     <g style="fill: #1f2937" transform="translate(233.393598 201.452654) scale(0.085 -0.085)">
      <defs>
       <path id="DejaVuSans-15" d="M 1228 531
L 3431 531
L 3431 0
L 469 0
L 469 531
Q 828 903 1448 1529
Q 2069 2156 2228 2338
Q 2531 2678 2651 2914
Q 2772 3150 2772 3378
Q 2772 3750 2511 3984
Q 2250 4219 1831 4219
Q 1534 4219 1204 4116
Q 875 4013 500 3803
L 500 4441
Q 881 4594 1212 4672
Q 1544 4750 1819 4750
Q 2544 4750 2975 4387
Q 3406 4025 3406 3419
Q 3406 3131 3298 2873
Q 3191 2616 2906 2266
Q 2828 2175 2409 1742
Q 1991 1309 1228 531
z
" transform="scale(0.015625)"/>
       <path id="DejaVuSans-17" d="M 2419 4116
L 825 1625
L 2419 1625
L 2419 4116
z
M 2253 4666
L 3047 4666
L 3047 1625
L 3713 1625
L 3713 1100
L 3047 1100
L 3047 0
L 2419 0
L 2419 1100
L 313 1100
L 313 1709
L 2253 4666
z
" transform="scale(0.015625)"/>
       <path id="DejaVuSans-1b" d="M 2034 2216
Q 1584 2216 1326 1975
Q 1069 1734 1069 1313
Q 1069 891 1326 650
Q 1584 409 2034 409
Q 2484 409 2743 651
Q 3003 894 3003 1313
Q 3003 1734 2745 1975
Q 2488 2216 2034 2216
z
M 1403 2484
Q 997 2584 770 2862
Q 544 3141 544 3541
Q 544 4100 942 4425
Q 1341 4750 2034 4750
Q 2731 4750 3128 4425
Q 3525 4100 3525 3541
Q 3525 3141 3298 2862
Q 3072 2584 2669 2484
Q 3125 2378 3379 2068
Q 3634 1759 3634 1313
Q 3634 634 3220 271
Q 2806 -91 2034 -91
Q 1263 -91 848 271
Q 434 634 434 1313
Q 434 1759 690 2068
Q 947 2378 1403 2484
z
M 1172 3481
Q 1172 3119 1398 2916
Q 1625 2713 2034 2713
Q 2441 2713 2670 2916
Q 2900 3119 2900 3481
Q 2900 3844 2670 4047
Q 2441 4250 2034 4250
Q 1625 4250 1398 4047
Q 1172 3844 1172 3481
z
" transform="scale(0.015625)"/>
       <path id="DejaVuSans-19" d="M 2113 2584
Q 1688 2584 1439 2293
Q 1191 2003 1191 1497
Q 1191 994 1439 701
Q 1688 409 2113 409
Q 2538 409 2786 701
Q 3034 994 3034 1497
Q 3034 2003 2786 2293
Q 2538 2584 2113 2584
z
M 3366 4563
L 3366 3988
Q 3128 4100 2886 4159
Q 2644 4219 2406 4219
Q 1781 4219 1451 3797
Q 1122 3375 1075 2522
Q 1259 2794 1537 2939
Q 1816 3084 2150 3084
Q 2853 3084 3261 2657
Q 3669 2231 3669 1497
Q 3669 778 3244 343
Q 2819 -91 2113 -91
Q 1303 -91 875 529
Q 447 1150 447 2328
Q 447 3434 972 4092
Q 1497 4750 2381 4750
Q 2619 4750 2861 4703
Q 3103 4656 3366 4563
z
" transform="scale(0.015625)"/>
      </defs>
      <use xlink:href="#DejaVuSans-14"/>
      <use xlink:href="#DejaVuSans-15" transform="translate(63.625 0)"/>
      <use xlink:href="#DejaVuSans-12" transform="translate(127.25 0)"/>
      <use xlink:href="#DejaVuSans-14" transform="translate(160.9375 0)"/>
      <use xlink:href="#DejaVuSans-17" transform="translate(224.5625 0)"/>
      <use xlink:href="#DejaVuSans-3" transform="translate(288.1875 0)"/>
      <use xlink:href="#DejaVuSans-b" transform="translate(319.96875 0)"/>
      <use xlink:href="#DejaVuSans-1b" transform="translate(358.984375 0)"/>
      <use xlink:href="#DejaVuSans-19" transform="translate(422.609375 0)"/>
      <use xlink:href="#DejaVuSans-8" transform="translate(486.234375 0)"/>
      <use xlink:href="#DejaVuSans-c" transform="translate(581.25 0)"/>
     </g>
    </g>
    <g id="patch_16">
     <path d="M 349.307755 220.727606
L 470.051669 220.727606
L 470.051669 177.761686
L 349.307755 177.761686
z
" style="fill: #ffffff; stroke: #c8d0d8; stroke-width: 0.6; stroke-linejoin: miter"/>
    </g>
    <g id="text_15">
     <!-- 0/14 (0%) -->
     <g style="fill: #1f2937" transform="translate(354.137512 201.452654) scale(0.085 -0.085)">
      <use xlink:href="#DejaVuSans-13"/>
      <use xlink:href="#DejaVuSans-12" transform="translate(63.625 0)"/>
      <use xlink:href="#DejaVuSans-14" transform="translate(97.3125 0)"/>
      <use xlink:href="#DejaVuSans-17" transform="translate(160.9375 0)"/>
      <use xlink:href="#DejaVuSans-3" transform="translate(224.5625 0)"/>
      <use xlink:href="#DejaVuSans-b" transform="translate(256.34375 0)"/>
      <use xlink:href="#DejaVuSans-13" transform="translate(295.359375 0)"/>
      <use xlink:href="#DejaVuSans-8" transform="translate(358.984375 0)"/>
      <use xlink:href="#DejaVuSans-c" transform="translate(454 0)"/>
     </g>
    </g>
    <g id="patch_17">
     <path d="M 470.051669 220.727606
L 677.99952 220.727606
L 677.99952 177.761686
L 470.051669 177.761686
z
" style="fill: #ffffff; stroke: #c8d0d8; stroke-width: 0.6; stroke-linejoin: miter"/>
    </g>
    <g id="text_16">
     <!-- All groups conform to frozen uncertainty scales -->
     <g style="fill: #1f2937" transform="translate(478.369583 201.452986) scale(0.085 -0.085)">
      <defs>
       <path id="DejaVuSans-5d" d="M 353 3500
L 3084 3500
L 3084 2975
L 922 459
L 3084 459
L 3084 0
L 275 0
L 275 525
L 2438 3041
L 353 3041
L 353 3500
z
" transform="scale(0.015625)"/>
      </defs>
      <use xlink:href="#DejaVuSans-24"/>
      <use xlink:href="#DejaVuSans-4f" transform="translate(68.40625 0)"/>
      <use xlink:href="#DejaVuSans-4f" transform="translate(96.1875 0)"/>
      <use xlink:href="#DejaVuSans-3" transform="translate(123.96875 0)"/>
      <use xlink:href="#DejaVuSans-4a" transform="translate(155.75 0)"/>
      <use xlink:href="#DejaVuSans-55" transform="translate(219.234375 0)"/>
      <use xlink:href="#DejaVuSans-52" transform="translate(258.140625 0)"/>
      <use xlink:href="#DejaVuSans-58" transform="translate(319.328125 0)"/>
      <use xlink:href="#DejaVuSans-53" transform="translate(382.703125 0)"/>
      <use xlink:href="#DejaVuSans-56" transform="translate(446.1875 0)"/>
      <use xlink:href="#DejaVuSans-3" transform="translate(498.28125 0)"/>
      <use xlink:href="#DejaVuSans-46" transform="translate(530.0625 0)"/>
      <use xlink:href="#DejaVuSans-52" transform="translate(585.046875 0)"/>
      <use xlink:href="#DejaVuSans-51" transform="translate(646.234375 0)"/>
      <use xlink:href="#DejaVuSans-49" transform="translate(709.609375 0)"/>
      <use xlink:href="#DejaVuSans-52" transform="translate(744.8125 0)"/>
      <use xlink:href="#DejaVuSans-55" transform="translate(806 0)"/>
      <use xlink:href="#DejaVuSans-50" transform="translate(845.359375 0)"/>
      <use xlink:href="#DejaVuSans-3" transform="translate(942.765625 0)"/>
      <use xlink:href="#DejaVuSans-57" transform="translate(974.546875 0)"/>
      <use xlink:href="#DejaVuSans-52" transform="translate(1013.75 0)"/>
      <use xlink:href="#DejaVuSans-3" transform="translate(1074.9375 0)"/>
      <use xlink:href="#DejaVuSans-49" transform="translate(1106.71875 0)"/>
      <use xlink:href="#DejaVuSans-55" transform="translate(1141.921875 0)"/>
      <use xlink:href="#DejaVuSans-52" transform="translate(1180.828125 0)"/>
      <use xlink:href="#DejaVuSans-5d" transform="translate(1242.015625 0)"/>
      <use xlink:href="#DejaVuSans-48" transform="translate(1294.5 0)"/>
      <use xlink:href="#DejaVuSans-51" transform="translate(1356.03125 0)"/>
      <use xlink:href="#DejaVuSans-3" transform="translate(1419.40625 0)"/>
      <use xlink:href="#DejaVuSans-58" transform="translate(1451.1875 0)"/>
      <use xlink:href="#DejaVuSans-51" transform="translate(1514.5625 0)"/>
      <use xlink:href="#DejaVuSans-46" transform="translate(1577.9375 0)"/>
      <use xlink:href="#DejaVuSans-48" transform="translate(1632.921875 0)"/>
      <use xlink:href="#DejaVuSans-55" transform="translate(1694.453125 0)"/>
      <use xlink:href="#DejaVuSans-57" transform="translate(1735.5625 0)"/>
      <use xlink:href="#DejaVuSans-44" transform="translate(1774.765625 0)"/>
      <use xlink:href="#DejaVuSans-4c" transform="translate(1836.046875 0)"/>
      <use xlink:href="#DejaVuSans-51" transform="translate(1863.828125 0)"/>
      <use xlink:href="#DejaVuSans-57" transform="translate(1927.203125 0)"/>
      <use xlink:href="#DejaVuSans-5c" transform="translate(1966.40625 0)"/>
      <use xlink:href="#DejaVuSans-3" transform="translate(2025.59375 0)"/>
      <use xlink:href="#DejaVuSans-56" transform="translate(2057.375 0)"/>
      <use xlink:href="#DejaVuSans-46" transform="translate(2109.46875 0)"/>
      <use xlink:href="#DejaVuSans-44" transform="translate(2164.453125 0)"/>
      <use xlink:href="#DejaVuSans-4f" transform="translate(2225.734375 0)"/>
      <use xlink:href="#DejaVuSans-48" transform="translate(2253.515625 0)"/>
      <use xlink:href="#DejaVuSans-56" transform="translate(2315.046875 0)"/>
     </g>
    </g>
   </g>
   <g id="text_17">
    <!-- All unlocked F0 payloads before and after D003 repair -->
    <g style="fill: #1f2937" transform="translate(7.2 21.526115) scale(0.12 -0.12)">
     <defs>
      <path id="DejaVuSans-Bold-4f" d="M 538 4863
L 1656 4863
L 1656 0
L 538 0
L 538 4863
z
" transform="scale(0.015625)"/>
      <path id="DejaVuSans-Bold-46" d="M 3366 3391
L 3366 2478
Q 3138 2634 2908 2709
Q 2678 2784 2431 2784
Q 1963 2784 1702 2511
Q 1441 2238 1441 1747
Q 1441 1256 1702 982
Q 1963 709 2431 709
Q 2694 709 2930 787
Q 3166 866 3366 1019
L 3366 103
Q 3103 6 2833 -42
Q 2563 -91 2291 -91
Q 1344 -91 809 395
Q 275 881 275 1747
Q 275 2613 809 3098
Q 1344 3584 2291 3584
Q 2566 3584 2833 3536
Q 3100 3488 3366 3391
z
" transform="scale(0.015625)"/>
      <path id="DejaVuSans-Bold-4e" d="M 538 4863
L 1656 4863
L 1656 2216
L 2944 3500
L 4244 3500
L 2534 1894
L 4378 0
L 3022 0
L 1656 1459
L 1656 0
L 538 0
L 538 4863
z
" transform="scale(0.015625)"/>
      <path id="DejaVuSans-Bold-29" d="M 588 4666
L 3834 4666
L 3834 3756
L 1791 3756
L 1791 2888
L 3713 2888
L 3713 1978
L 1791 1978
L 1791 0
L 588 0
L 588 4666
z
" transform="scale(0.015625)"/>
      <path id="DejaVuSans-Bold-5c" d="M 78 3500
L 1197 3500
L 2138 1125
L 2938 3500
L 4056 3500
L 2584 -331
Q 2363 -916 2067 -1148
Q 1772 -1381 1288 -1381
L 641 -1381
L 641 -647
L 991 -647
Q 1275 -647 1404 -556
Q 1534 -466 1606 -231
L 1638 -134
L 78 3500
z
" transform="scale(0.015625)"/>
      <path id="DejaVuSans-Bold-45" d="M 2400 722
Q 2759 722 2948 984
Q 3138 1247 3138 1747
Q 3138 2247 2948 2509
Q 2759 2772 2400 2772
Q 2041 2772 1848 2508
Q 1656 2244 1656 1747
Q 1656 1250 1848 986
Q 2041 722 2400 722
z
M 1656 2988
Q 1888 3294 2169 3439
Q 2450 3584 2816 3584
Q 3463 3584 3878 3070
Q 4294 2556 4294 1747
Q 4294 938 3878 423
Q 3463 -91 2816 -91
Q 2450 -91 2169 54
Q 1888 200 1656 506
L 1656 0
L 538 0
L 538 4863
L 1656 4863
L 1656 2988
z
" transform="scale(0.015625)"/>
      <path id="DejaVuSans-Bold-49" d="M 2841 4863
L 2841 4128
L 2222 4128
Q 1984 4128 1890 4042
Q 1797 3956 1797 3744
L 1797 3500
L 2753 3500
L 2753 2700
L 1797 2700
L 1797 0
L 678 0
L 678 2700
L 122 2700
L 122 3500
L 678 3500
L 678 3744
Q 678 4316 997 4589
Q 1316 4863 1984 4863
L 2841 4863
z
" transform="scale(0.015625)"/>
     </defs>
     <use xlink:href="#DejaVuSans-Bold-24"/>
     <use xlink:href="#DejaVuSans-Bold-4f" transform="translate(77.390625 0)"/>
     <use xlink:href="#DejaVuSans-Bold-4f" transform="translate(111.671875 0)"/>
     <use xlink:href="#DejaVuSans-Bold-3" transform="translate(145.953125 0)"/>
     <use xlink:href="#DejaVuSans-Bold-58" transform="translate(180.765625 0)"/>
     <use xlink:href="#DejaVuSans-Bold-51" transform="translate(251.953125 0)"/>
     <use xlink:href="#DejaVuSans-Bold-4f" transform="translate(323.140625 0)"/>
     <use xlink:href="#DejaVuSans-Bold-52" transform="translate(357.421875 0)"/>
     <use xlink:href="#DejaVuSans-Bold-46" transform="translate(426.125 0)"/>
     <use xlink:href="#DejaVuSans-Bold-4e" transform="translate(485.40625 0)"/>
     <use xlink:href="#DejaVuSans-Bold-48" transform="translate(549.21875 0)"/>
     <use xlink:href="#DejaVuSans-Bold-47" transform="translate(617.046875 0)"/>
     <use xlink:href="#DejaVuSans-Bold-3" transform="translate(688.625 0)"/>
     <use xlink:href="#DejaVuSans-Bold-29" transform="translate(723.4375 0)"/>
     <use xlink:href="#DejaVuSans-Bold-13" transform="translate(791.75 0)"/>
     <use xlink:href="#DejaVuSans-Bold-3" transform="translate(861.328125 0)"/>
     <use xlink:href="#DejaVuSans-Bold-53" transform="translate(896.140625 0)"/>
     <use xlink:href="#DejaVuSans-Bold-44" transform="translate(967.71875 0)"/>
     <use xlink:href="#DejaVuSans-Bold-5c" transform="translate(1032.125 0)"/>
     <use xlink:href="#DejaVuSans-Bold-4f" transform="translate(1097.3125 0)"/>
     <use xlink:href="#DejaVuSans-Bold-52" transform="translate(1131.59375 0)"/>
     <use xlink:href="#DejaVuSans-Bold-44" transform="translate(1200.296875 0)"/>
     <use xlink:href="#DejaVuSans-Bold-47" transform="translate(1267.78125 0)"/>
     <use xlink:href="#DejaVuSans-Bold-56" transform="translate(1339.359375 0)"/>
     <use xlink:href="#DejaVuSans-Bold-3" transform="translate(1398.875 0)"/>
     <use xlink:href="#DejaVuSans-Bold-45" transform="translate(1433.6875 0)"/>
     <use xlink:href="#DejaVuSans-Bold-48" transform="translate(1505.265625 0)"/>
     <use xlink:href="#DejaVuSans-Bold-49" transform="translate(1573.09375 0)"/>
     <use xlink:href="#DejaVuSans-Bold-52" transform="translate(1616.59375 0)"/>
     <use xlink:href="#DejaVuSans-Bold-55" transform="translate(1685.296875 0)"/>
     <use xlink:href="#DejaVuSans-Bold-48" transform="translate(1734.609375 0)"/>
     <use xlink:href="#DejaVuSans-Bold-3" transform="translate(1802.4375 0)"/>
     <use xlink:href="#DejaVuSans-Bold-44" transform="translate(1837.25 0)"/>
     <use xlink:href="#DejaVuSans-Bold-51" transform="translate(1904.734375 0)"/>
     <use xlink:href="#DejaVuSans-Bold-47" transform="translate(1975.921875 0)"/>
     <use xlink:href="#DejaVuSans-Bold-3" transform="translate(2047.5 0)"/>
     <use xlink:href="#DejaVuSans-Bold-44" transform="translate(2082.3125 0)"/>
     <use xlink:href="#DejaVuSans-Bold-49" transform="translate(2149.796875 0)"/>
     <use xlink:href="#DejaVuSans-Bold-57" transform="translate(2193.296875 0)"/>
     <use xlink:href="#DejaVuSans-Bold-48" transform="translate(2241.09375 0)"/>
     <use xlink:href="#DejaVuSans-Bold-55" transform="translate(2308.921875 0)"/>
     <use xlink:href="#DejaVuSans-Bold-3" transform="translate(2358.234375 0)"/>
     <use xlink:href="#DejaVuSans-Bold-27" transform="translate(2393.046875 0)"/>
     <use xlink:href="#DejaVuSans-Bold-13" transform="translate(2476.0625 0)"/>
     <use xlink:href="#DejaVuSans-Bold-13" transform="translate(2545.640625 0)"/>
     <use xlink:href="#DejaVuSans-Bold-16" transform="translate(2615.21875 0)"/>
     <use xlink:href="#DejaVuSans-Bold-3" transform="translate(2684.796875 0)"/>
     <use xlink:href="#DejaVuSans-Bold-55" transform="translate(2719.609375 0)"/>
     <use xlink:href="#DejaVuSans-Bold-48" transform="translate(2768.921875 0)"/>
     <use xlink:href="#DejaVuSans-Bold-53" transform="translate(2836.75 0)"/>
     <use xlink:href="#DejaVuSans-Bold-44" transform="translate(2908.328125 0)"/>
     <use xlink:href="#DejaVuSans-Bold-4c" transform="translate(2975.8125 0)"/>
     <use xlink:href="#DejaVuSans-Bold-55" transform="translate(3010.09375 0)"/>
    </g>
   </g>
   <g id="text_18">
    <!-- Exact small-factor conformance table; this establishes payload repair only, not model performance. -->
    <g style="fill: #5b6573" transform="translate(7.2 250.053674) scale(0.08 -0.08)">
     <defs>
      <path id="DejaVuSans-28" d="M 628 4666
L 3578 4666
L 3578 4134
L 1259 4134
L 1259 2753
L 3481 2753
L 3481 2222
L 1259 2222
L 1259 531
L 3634 531
L 3634 0
L 628 0
L 628 4666
z
" transform="scale(0.015625)"/>
      <path id="DejaVuSans-5b" d="M 3513 3500
L 2247 1797
L 3578 0
L 2900 0
L 1881 1375
L 863 0
L 184 0
L 1544 1831
L 300 3500
L 978 3500
L 1906 2253
L 2834 3500
L 3513 3500
z
" transform="scale(0.015625)"/>
      <path id="DejaVuSans-45" d="M 3116 1747
Q 3116 2381 2855 2742
Q 2594 3103 2138 3103
Q 1681 3103 1420 2742
Q 1159 2381 1159 1747
Q 1159 1113 1420 752
Q 1681 391 2138 391
Q 2594 391 2855 752
Q 3116 1113 3116 1747
z
M 1159 2969
Q 1341 3281 1617 3432
Q 1894 3584 2278 3584
Q 2916 3584 3314 3078
Q 3713 2572 3713 1747
Q 3713 922 3314 415
Q 2916 -91 2278 -91
Q 1894 -91 1617 61
Q 1341 213 1159 525
L 1159 0
L 581 0
L 581 4863
L 1159 4863
L 1159 2969
z
" transform="scale(0.015625)"/>
      <path id="DejaVuSans-1e" d="M 750 3309
L 1409 3309
L 1409 2516
L 750 2516
L 750 3309
z
M 750 794
L 1409 794
L 1409 256
L 897 -744
L 494 -744
L 750 256
L 750 794
z
" transform="scale(0.015625)"/>
      <path id="DejaVuSans-f" d="M 750 794
L 1409 794
L 1409 256
L 897 -744
L 494 -744
L 750 256
L 750 794
z
" transform="scale(0.015625)"/>
      <path id="DejaVuSans-11" d="M 684 794
L 1344 794
L 1344 0
L 684 0
L 684 794
z
" transform="scale(0.015625)"/>
     </defs>
     <use xlink:href="#DejaVuSans-28"/>
     <use xlink:href="#DejaVuSans-5b" transform="translate(63.1875 0)"/>
     <use xlink:href="#DejaVuSans-44" transform="translate(122.375 0)"/>
     <use xlink:href="#DejaVuSans-46" transform="translate(183.65625 0)"/>
     <use xlink:href="#DejaVuSans-57" transform="translate(238.640625 0)"/>
     <use xlink:href="#DejaVuSans-3" transform="translate(277.84375 0)"/>
     <use xlink:href="#DejaVuSans-56" transform="translate(309.625 0)"/>
     <use xlink:href="#DejaVuSans-50" transform="translate(361.71875 0)"/>
     <use xlink:href="#DejaVuSans-44" transform="translate(459.125 0)"/>
     <use xlink:href="#DejaVuSans-4f" transform="translate(520.40625 0)"/>
     <use xlink:href="#DejaVuSans-4f" transform="translate(548.1875 0)"/>
     <use xlink:href="#DejaVuSans-10" transform="translate(575.96875 0)"/>
     <use xlink:href="#DejaVuSans-49" transform="translate(612.046875 0)"/>
     <use xlink:href="#DejaVuSans-44" transform="translate(647.25 0)"/>
     <use xlink:href="#DejaVuSans-46" transform="translate(708.53125 0)"/>
     <use xlink:href="#DejaVuSans-57" transform="translate(763.515625 0)"/>
     <use xlink:href="#DejaVuSans-52" transform="translate(802.71875 0)"/>
     <use xlink:href="#DejaVuSans-55" transform="translate(863.90625 0)"/>
     <use xlink:href="#DejaVuSans-3" transform="translate(905.015625 0)"/>
     <use xlink:href="#DejaVuSans-46" transform="translate(936.796875 0)"/>
     <use xlink:href="#DejaVuSans-52" transform="translate(991.78125 0)"/>
     <use xlink:href="#DejaVuSans-51" transform="translate(1052.96875 0)"/>
     <use xlink:href="#DejaVuSans-49" transform="translate(1116.34375 0)"/>
     <use xlink:href="#DejaVuSans-52" transform="translate(1151.546875 0)"/>
     <use xlink:href="#DejaVuSans-55" transform="translate(1212.734375 0)"/>
     <use xlink:href="#DejaVuSans-50" transform="translate(1252.09375 0)"/>
     <use xlink:href="#DejaVuSans-44" transform="translate(1349.5 0)"/>
     <use xlink:href="#DejaVuSans-51" transform="translate(1410.78125 0)"/>
     <use xlink:href="#DejaVuSans-46" transform="translate(1474.15625 0)"/>
     <use xlink:href="#DejaVuSans-48" transform="translate(1529.140625 0)"/>
     <use xlink:href="#DejaVuSans-3" transform="translate(1590.671875 0)"/>
     <use xlink:href="#DejaVuSans-57" transform="translate(1622.453125 0)"/>
     <use xlink:href="#DejaVuSans-44" transform="translate(1661.65625 0)"/>
     <use xlink:href="#DejaVuSans-45" transform="translate(1722.9375 0)"/>
     <use xlink:href="#DejaVuSans-4f" transform="translate(1786.421875 0)"/>
     <use xlink:href="#DejaVuSans-48" transform="translate(1814.203125 0)"/>
     <use xlink:href="#DejaVuSans-1e" transform="translate(1875.734375 0)"/>
     <use xlink:href="#DejaVuSans-3" transform="translate(1909.421875 0)"/>
     <use xlink:href="#DejaVuSans-57" transform="translate(1941.203125 0)"/>
     <use xlink:href="#DejaVuSans-4b" transform="translate(1980.40625 0)"/>
     <use xlink:href="#DejaVuSans-4c" transform="translate(2043.78125 0)"/>
     <use xlink:href="#DejaVuSans-56" transform="translate(2071.5625 0)"/>
     <use xlink:href="#DejaVuSans-3" transform="translate(2123.65625 0)"/>
     <use xlink:href="#DejaVuSans-48" transform="translate(2155.4375 0)"/>
     <use xlink:href="#DejaVuSans-56" transform="translate(2216.96875 0)"/>
     <use xlink:href="#DejaVuSans-57" transform="translate(2269.0625 0)"/>
     <use xlink:href="#DejaVuSans-44" transform="translate(2308.265625 0)"/>
     <use xlink:href="#DejaVuSans-45" transform="translate(2369.546875 0)"/>
     <use xlink:href="#DejaVuSans-4f" transform="translate(2433.03125 0)"/>
     <use xlink:href="#DejaVuSans-4c" transform="translate(2460.8125 0)"/>
     <use xlink:href="#DejaVuSans-56" transform="translate(2488.59375 0)"/>
     <use xlink:href="#DejaVuSans-4b" transform="translate(2540.6875 0)"/>
     <use xlink:href="#DejaVuSans-48" transform="translate(2604.0625 0)"/>
     <use xlink:href="#DejaVuSans-56" transform="translate(2665.59375 0)"/>
     <use xlink:href="#DejaVuSans-3" transform="translate(2717.6875 0)"/>
     <use xlink:href="#DejaVuSans-53" transform="translate(2749.46875 0)"/>
     <use xlink:href="#DejaVuSans-44" transform="translate(2812.953125 0)"/>
     <use xlink:href="#DejaVuSans-5c" transform="translate(2874.234375 0)"/>
     <use xlink:href="#DejaVuSans-4f" transform="translate(2933.421875 0)"/>
     <use xlink:href="#DejaVuSans-52" transform="translate(2961.203125 0)"/>
     <use xlink:href="#DejaVuSans-44" transform="translate(3022.390625 0)"/>
     <use xlink:href="#DejaVuSans-47" transform="translate(3083.671875 0)"/>
     <use xlink:href="#DejaVuSans-3" transform="translate(3147.15625 0)"/>
     <use xlink:href="#DejaVuSans-55" transform="translate(3178.9375 0)"/>
     <use xlink:href="#DejaVuSans-48" transform="translate(3217.84375 0)"/>
     <use xlink:href="#DejaVuSans-53" transform="translate(3279.375 0)"/>
     <use xlink:href="#DejaVuSans-44" transform="translate(3342.859375 0)"/>
     <use xlink:href="#DejaVuSans-4c" transform="translate(3404.140625 0)"/>
     <use xlink:href="#DejaVuSans-55" transform="translate(3431.921875 0)"/>
     <use xlink:href="#DejaVuSans-3" transform="translate(3473.03125 0)"/>
     <use xlink:href="#DejaVuSans-52" transform="translate(3504.8125 0)"/>
     <use xlink:href="#DejaVuSans-51" transform="translate(3566 0)"/>
     <use xlink:href="#DejaVuSans-4f" transform="translate(3629.375 0)"/>
     <use xlink:href="#DejaVuSans-5c" transform="translate(3657.15625 0)"/>
     <use xlink:href="#DejaVuSans-f" transform="translate(3716.34375 0)"/>
     <use xlink:href="#DejaVuSans-3" transform="translate(3748.125 0)"/>
     <use xlink:href="#DejaVuSans-51" transform="translate(3779.90625 0)"/>
     <use xlink:href="#DejaVuSans-52" transform="translate(3843.28125 0)"/>
     <use xlink:href="#DejaVuSans-57" transform="translate(3904.46875 0)"/>
     <use xlink:href="#DejaVuSans-3" transform="translate(3943.671875 0)"/>
     <use xlink:href="#DejaVuSans-50" transform="translate(3975.453125 0)"/>
     <use xlink:href="#DejaVuSans-52" transform="translate(4072.859375 0)"/>
     <use xlink:href="#DejaVuSans-47" transform="translate(4134.046875 0)"/>
     <use xlink:href="#DejaVuSans-48" transform="translate(4197.53125 0)"/>
     <use xlink:href="#DejaVuSans-4f" transform="translate(4259.0625 0)"/>
     <use xlink:href="#DejaVuSans-3" transform="translate(4286.84375 0)"/>
     <use xlink:href="#DejaVuSans-53" transform="translate(4318.625 0)"/>
     <use xlink:href="#DejaVuSans-48" transform="translate(4382.109375 0)"/>
     <use xlink:href="#DejaVuSans-55" transform="translate(4443.640625 0)"/>
     <use xlink:href="#DejaVuSans-49" transform="translate(4484.75 0)"/>
     <use xlink:href="#DejaVuSans-52" transform="translate(4519.953125 0)"/>
     <use xlink:href="#DejaVuSans-55" transform="translate(4581.140625 0)"/>
     <use xlink:href="#DejaVuSans-50" transform="translate(4620.5 0)"/>
     <use xlink:href="#DejaVuSans-44" transform="translate(4717.90625 0)"/>
     <use xlink:href="#DejaVuSans-51" transform="translate(4779.1875 0)"/>
     <use xlink:href="#DejaVuSans-46" transform="translate(4842.5625 0)"/>
     <use xlink:href="#DejaVuSans-48" transform="translate(4897.546875 0)"/>
     <use xlink:href="#DejaVuSans-11" transform="translate(4959.078125 0)"/>
    </g>
   </g>
  </g>
 </g>
</svg>
