<?xml version="1.0" encoding="utf-8" standalone="no"?>
<!DOCTYPE svg PUBLIC "-//W3C//DTD SVG 1.1//EN"
  "http://www.w3.org/Graphics/SVG/1.1/DTD/svg11.dtd">
<svg xmlns:xlink="http://www.w3.org/1999/xlink" width="656.39952pt" height="296.39952pt" viewBox="0 0 656.39952 296.39952" xmlns="http://www.w3.org/2000/svg" version="1.1">
 <metadata>
  <rdf:RDF xmlns:dc="http://purl.org/dc/elements/1.1/" xmlns:cc="http://creativecommons.org/ns#" xmlns:rdf="http://www.w3.org/1999/02/22-rdf-syntax-ns#">
   <cc:Work>
    <dc:type rdf:resource="http://purl.org/dc/dcmitype/StillImage"/>
    <dc:format>image/svg+xml</dc:format>
    <dc:creator>
     <cc:Agent>
      <dc:title>QMLforArtemisIV make_research_figures.py</dc:title>
     </cc:Agent>
    </dc:creator>
   </cc:Work>
  </rdf:RDF>
 </metadata>
 <defs>
  <style type="text/css">*{stroke-linejoin: round; stroke-linecap: butt}</style>
 </defs>
 <g id="figure_1">
  <g id="patch_1">
   <path d="M 0 296.39952
L 656.39952 296.39952
L 656.39952 0
L 0 0
z
" style="fill: #ffffff"/>
  </g>
  <g id="axes_1">
   <g id="patch_2">
    <path d="M 28.385984 117.743812
L 114.41392 117.743812
Q 130.463908 117.743812 130.463908 110.693824
L 130.463908 67.265898
Q 130.463908 60.21591 114.41392 60.21591
L 28.385984 60.21591
Q 12.335996 60.21591 12.335996 67.265898
L 12.335996 110.693824
Q 12.335996 117.743812 28.385984 117.743812
z
" clip-path="url(#pbc033fb6ef)" style="fill: #eaf7f1; stroke: #009e73; stroke-width: 1.1; stroke-linejoin: miter"/>
   </g>
   <g id="patch_3">
    <path d="M 127.968323 88.979861
Q 135.598225 88.979861 142.221897 88.979861
" clip-path="url(#pbc033fb6ef)" style="fill: none; stroke: #5b6573; stroke-width: 0.9; stroke-linecap: round"/>
    <path d="M 138.221897 86.979861
L 142.221897 88.979861
L 138.221897 90.979861
z
" clip-path="url(#pbc033fb6ef)" style="fill: #5b6573; stroke: #5b6573; stroke-width: 0.9; stroke-linecap: round"/>
   </g>
   <g id="patch_4">
    <path d="M 156.785888 117.743812
L 242.813824 117.743812
Q 258.863812 117.743812 258.863812 110.693824
L 258.863812 67.265898
Q 258.863812 60.21591 242.813824 60.21591
L 156.785888 60.21591
Q 140.7359 60.21591 140.7359 67.265898
L 140.7359 110.693824
Q 140.7359 117.743812 156.785888 117.743812
z
" clip-path="url(#pbc033fb6ef)" style="fill: #eaf7f1; stroke: #009e73; stroke-width: 1.1; stroke-linejoin: miter"/>
   </g>
   <g id="patch_5">
    <path d="M 256.368227 88.979861
Q 263.998129 88.979861 270.621801 88.979861
" clip-path="url(#pbc033fb6ef)" style="fill: none; stroke: #5b6573; stroke-width: 0.9; stroke-linecap: round"/>
    <path d="M 266.621801 86.979861
L 270.621801 88.979861
L 266.621801 90.979861
z
" clip-path="url(#pbc033fb6ef)" style="fill: #5b6573; stroke: #5b6573; stroke-width: 0.9; stroke-linecap: round"/>
   </g>
   <g id="patch_6">
    <path d="M 285.185792 117.743812
L 371.213728 117.743812
Q 387.263716 117.743812 387.263716 110.693824
L 387.263716 67.265898
Q 387.263716 60.21591 371.213728 60.21591
L 285.185792 60.21591
Q 269.135804 60.21591 269.135804 67.265898
L 269.135804 110.693824
Q 269.135804 117.743812 285.185792 117.743812
z
" clip-path="url(#pbc033fb6ef)" style="fill: #eaf7f1; stroke: #009e73; stroke-width: 1.1; stroke-linejoin: miter"/>
   </g>
   <g id="patch_7">
    <path d="M 384.768131 88.979861
Q 392.398033 88.979861 399.021705 88.979861
" clip-path="url(#pbc033fb6ef)" style="fill: none; stroke: #5b6573; stroke-width: 0.9; stroke-linecap: round"/>
    <path d="M 395.021705 86.979861
L 399.021705 88.979861
L 395.021705 90.979861
z
" clip-path="url(#pbc033fb6ef)" style="fill: #5b6573; stroke: #5b6573; stroke-width: 0.9; stroke-linecap: round"/>
   </g>
   <g id="patch_8">
    <path d="M 413.585696 117.743812
L 499.613632 117.743812
Q 515.66362 117.743812 515.66362 110.693824
L 515.66362 67.265898
Q 515.66362 60.21591 499.613632 60.21591
L 413.585696 60.21591
Q 397.535708 60.21591 397.535708 67.265898
L 397.535708 110.693824
Q 397.535708 117.743812 413.585696 117.743812
z
" clip-path="url(#pbc033fb6ef)" style="fill: #eaf7f1; stroke: #009e73; stroke-width: 1.1; stroke-linejoin: miter"/>
   </g>
   <g id="patch_9">
    <path d="M 513.168035 88.979861
Q 520.797937 88.979861 527.421609 88.979861
" clip-path="url(#pbc033fb6ef)" style="fill: none; stroke: #5b6573; stroke-width: 0.9; stroke-linecap: round"/>
    <path d="M 523.421609 86.979861
L 527.421609 88.979861
L 523.421609 90.979861
z
" clip-path="url(#pbc033fb6ef)" style="fill: #5b6573; stroke: #5b6573; stroke-width: 0.9; stroke-linecap: round"/>
   </g>
   <g id="patch_10">
    <path d="M 541.9856 117.743812
L 628.013536 117.743812
Q 644.063524 117.743812 644.063524 110.693824
L 644.063524 67.265898
Q 644.063524 60.21591 628.013536 60.21591
L 541.9856 60.21591
Q 525.935612 60.21591 525.935612 67.265898
L 525.935612 110.693824
Q 525.935612 117.743812 541.9856 117.743812
z
" clip-path="url(#pbc033fb6ef)" style="fill: #eaf7f1; stroke: #009e73; stroke-width: 1.1; stroke-linejoin: miter"/>
   </g>
   <g id="patch_11">
    <path d="M 251.159818 138.919456
Q 251.159818 147.351683 251.159818 154.777679
" clip-path="url(#pbc033fb6ef)" style="fill: none; stroke: #5b6573; stroke-width: 0.9; stroke-linecap: round"/>
    <path d="M 253.159818 150.777679
L 251.159818 154.777679
L 249.159818 150.777679
z
" clip-path="url(#pbc033fb6ef)" style="fill: #5b6573; stroke: #5b6573; stroke-width: 0.9; stroke-linecap: round"/>
   </g>
   <g id="patch_12">
    <path d="M 208.14585 213.623649
L 294.173785 213.623649
Q 310.223773 213.623649 310.223773 206.573661
L 310.223773 163.145735
Q 310.223773 156.095747 294.173785 156.095747
L 208.14585 156.095747
Q 192.095862 156.095747 192.095862 163.145735
L 192.095862 206.573661
Q 192.095862 213.623649 208.14585 213.623649
z
" clip-path="url(#pbc033fb6ef)" style="fill: #fff8e5; stroke: #d55e00; stroke-width: 1.1; stroke-linejoin: miter"/>
   </g>
   <g id="patch_13">
    <path d="M 307.732107 184.859698
Q 321.779757 184.859698 334.821176 184.859698
" clip-path="url(#pbc033fb6ef)" style="fill: none; stroke: #5b6573; stroke-width: 0.9; stroke-linecap: round"/>
    <path d="M 330.821176 182.859698
L 334.821176 184.859698
L 330.821176 186.859698
z
" clip-path="url(#pbc033fb6ef)" style="fill: #5b6573; stroke: #5b6573; stroke-width: 0.9; stroke-linecap: round"/>
   </g>
   <g id="patch_14">
    <path d="M 349.385744 213.623649
L 435.41368 213.623649
Q 451.463668 213.623649 451.463668 206.573661
L 451.463668 163.145735
Q 451.463668 156.095747 435.41368 156.095747
L 349.385744 156.095747
Q 333.335756 156.095747 333.335756 163.145735
L 333.335756 206.573661
Q 333.335756 213.623649 349.385744 213.623649
z
" clip-path="url(#pbc033fb6ef)" style="fill: #e8edf2; stroke: #5b6573; stroke-width: 1.1; stroke-linejoin: miter"/>
   </g>
   <g id="patch_15">
    <path d="M 448.972001 184.859698
Q 463.019651 184.859698 476.061071 184.859698
" clip-path="url(#pbc033fb6ef)" style="fill: none; stroke: #5b6573; stroke-width: 0.9; stroke-linecap: round"/>
    <path d="M 472.061071 182.859698
L 476.061071 184.859698
L 472.061071 186.859698
z
" clip-path="url(#pbc033fb6ef)" style="fill: #5b6573; stroke: #5b6573; stroke-width: 0.9; stroke-linecap: round"/>
   </g>
   <g id="patch_16">
    <path d="M 490.625639 213.623649
L 576.653574 213.623649
Q 592.703562 213.623649 592.703562 206.573661
L 592.703562 163.145735
Q 592.703562 156.095747 576.653574 156.095747
L 490.625639 156.095747
Q 474.575651 156.095747 474.575651 163.145735
L 474.575651 206.573661
Q 474.575651 213.623649 490.625639 213.623649
z
" clip-path="url(#pbc033fb6ef)" style="fill: #e8edf2; stroke: #5b6573; stroke-width: 1.1; stroke-linejoin: miter"/>
   </g>
   <g id="line2d_1">
    <path d="M 584.999568 116.051815
L 584.999568 136.919779
L 251.159818 136.919779
" clip-path="url(#pbc033fb6ef)" style="fill: none; stroke: #5b6573; stroke-width: 0.9; stroke-linecap: square"/>
   </g>
   <g id="text_1">
    <!-- Research governance decision diagram through Gate 4 -->
    <g style="fill: #1f2937" transform="translate(7.2 21.958115) scale(0.12 -0.12)">
     <defs>
      <path id="DejaVuSans-Bold-35" d="M 2297 2597
Q 2675 2597 2839 2737
Q 3003 2878 3003 3200
Q 3003 3519 2839 3656
Q 2675 3794 2297 3794
L 1791 3794
L 1791 2597
L 2297 2597
z
M 1791 1766
L 1791 0
L 588 0
L 588 4666
L 2425 4666
Q 3347 4666 3776 4356
Q 4206 4047 4206 3378
Q 4206 2916 3982 2619
Q 3759 2322 3309 2181
Q 3556 2125 3751 1926
Q 3947 1728 4147 1325
L 4800 0
L 3519 0
L 2950 1159
Q 2778 1509 2601 1637
Q 2425 1766 2131 1766
L 1791 1766
z
" transform="scale(0.015625)"/>
      <path id="DejaVuSans-Bold-48" d="M 4031 1759
L 4031 1441
L 1416 1441
Q 1456 1047 1700 850
Q 1944 653 2381 653
Q 2734 653 3104 758
Q 3475 863 3866 1075
L 3866 213
Q 3469 63 3072 -14
Q 2675 -91 2278 -91
Q 1328 -91 801 392
Q 275 875 275 1747
Q 275 2603 792 3093
Q 1309 3584 2216 3584
Q 3041 3584 3536 3087
Q 4031 2591 4031 1759
z
M 2881 2131
Q 2881 2450 2695 2645
Q 2509 2841 2209 2841
Q 1884 2841 1681 2658
Q 1478 2475 1428 2131
L 2881 2131
z
" transform="scale(0.015625)"/>
      <path id="DejaVuSans-Bold-56" d="M 3272 3391
L 3272 2541
Q 2913 2691 2578 2766
Q 2244 2841 1947 2841
Q 1628 2841 1473 2761
Q 1319 2681 1319 2516
Q 1319 2381 1436 2309
Q 1553 2238 1856 2203
L 2053 2175
Q 2913 2066 3209 1816
Q 3506 1566 3506 1031
Q 3506 472 3093 190
Q 2681 -91 1863 -91
Q 1516 -91 1145 -36
Q 775 19 384 128
L 384 978
Q 719 816 1070 734
Q 1422 653 1784 653
Q 2113 653 2278 743
Q 2444 834 2444 1013
Q 2444 1163 2330 1236
Q 2216 1309 1875 1350
L 1678 1375
Q 931 1469 631 1722
Q 331 1975 331 2491
Q 331 3047 712 3315
Q 1094 3584 1881 3584
Q 2191 3584 2531 3537
Q 2872 3491 3272 3391
z
" transform="scale(0.015625)"/>
      <path id="DejaVuSans-Bold-44" d="M 2106 1575
Q 1756 1575 1579 1456
Q 1403 1338 1403 1106
Q 1403 894 1545 773
Q 1688 653 1941 653
Q 2256 653 2472 879
Q 2688 1106 2688 1447
L 2688 1575
L 2106 1575
z
M 3816 1997
L 3816 0
L 2688 0
L 2688 519
Q 2463 200 2181 54
Q 1900 -91 1497 -91
Q 953 -91 614 226
Q 275 544 275 1050
Q 275 1666 698 1953
Q 1122 2241 2028 2241
L 2688 2241
L 2688 2328
Q 2688 2594 2478 2717
Q 2269 2841 1825 2841
Q 1466 2841 1156 2769
Q 847 2697 581 2553
L 581 3406
Q 941 3494 1303 3539
Q 1666 3584 2028 3584
Q 2975 3584 3395 3211
Q 3816 2838 3816 1997
z
" transform="scale(0.015625)"/>
      <path id="DejaVuSans-Bold-55" d="M 3138 2547
Q 2991 2616 2845 2648
Q 2700 2681 2553 2681
Q 2122 2681 1889 2404
Q 1656 2128 1656 1613
L 1656 0
L 538 0
L 538 3500
L 1656 3500
L 1656 2925
Q 1872 3269 2151 3426
Q 2431 3584 2822 3584
Q 2878 3584 2943 3579
Q 3009 3575 3134 3559
L 3138 2547
z
" transform="scale(0.015625)"/>
      <path id="DejaVuSans-Bold-46" d="M 3366 3391
L 3366 2478
Q 3138 2634 2908 2709
Q 2678 2784 2431 2784
Q 1963 2784 1702 2511
Q 1441 2238 1441 1747
Q 1441 1256 1702 982
Q 1963 709 2431 709
Q 2694 709 2930 787
Q 3166 866 3366 1019
L 3366 103
Q 3103 6 2833 -42
Q 2563 -91 2291 -91
Q 1344 -91 809 395
Q 275 881 275 1747
Q 275 2613 809 3098
Q 1344 3584 2291 3584
Q 2566 3584 2833 3536
Q 3100 3488 3366 3391
z
" transform="scale(0.015625)"/>
      <path id="DejaVuSans-Bold-4b" d="M 4056 2131
L 4056 0
L 2931 0
L 2931 347
L 2931 1625
Q 2931 2084 2911 2256
Q 2891 2428 2841 2509
Q 2775 2619 2662 2680
Q 2550 2741 2406 2741
Q 2056 2741 1856 2470
Q 1656 2200 1656 1722
L 1656 0
L 538 0
L 538 4863
L 1656 4863
L 1656 2988
Q 1909 3294 2193 3439
Q 2478 3584 2822 3584
Q 3428 3584 3742 3212
Q 4056 2841 4056 2131
z
" transform="scale(0.015625)"/>
      <path id="DejaVuSans-Bold-3" transform="scale(0.015625)"/>
      <path id="DejaVuSans-Bold-4a" d="M 2919 594
Q 2688 288 2409 144
Q 2131 0 1766 0
Q 1125 0 706 504
Q 288 1009 288 1791
Q 288 2575 706 3076
Q 1125 3578 1766 3578
Q 2131 3578 2409 3434
Q 2688 3291 2919 2981
L 2919 3500
L 4044 3500
L 4044 353
Q 4044 -491 3511 -936
Q 2978 -1381 1966 -1381
Q 1638 -1381 1331 -1331
Q 1025 -1281 716 -1178
L 716 -306
Q 1009 -475 1290 -558
Q 1572 -641 1856 -641
Q 2406 -641 2662 -400
Q 2919 -159 2919 353
L 2919 594
z
M 2181 2772
Q 1834 2772 1640 2515
Q 1447 2259 1447 1791
Q 1447 1309 1634 1061
Q 1822 813 2181 813
Q 2531 813 2725 1069
Q 2919 1325 2919 1791
Q 2919 2259 2725 2515
Q 2531 2772 2181 2772
z
" transform="scale(0.015625)"/>
      <path id="DejaVuSans-Bold-52" d="M 2203 2784
Q 1831 2784 1636 2517
Q 1441 2250 1441 1747
Q 1441 1244 1636 976
Q 1831 709 2203 709
Q 2569 709 2762 976
Q 2956 1244 2956 1747
Q 2956 2250 2762 2517
Q 2569 2784 2203 2784
z
M 2203 3584
Q 3106 3584 3614 3096
Q 4122 2609 4122 1747
Q 4122 884 3614 396
Q 3106 -91 2203 -91
Q 1297 -91 786 396
Q 275 884 275 1747
Q 275 2609 786 3096
Q 1297 3584 2203 3584
z
" transform="scale(0.015625)"/>
      <path id="DejaVuSans-Bold-59" d="M 97 3500
L 1216 3500
L 2088 1081
L 2956 3500
L 4078 3500
L 2700 0
L 1472 0
L 97 3500
z
" transform="scale(0.015625)"/>
      <path id="DejaVuSans-Bold-51" d="M 4056 2131
L 4056 0
L 2931 0
L 2931 347
L 2931 1631
Q 2931 2084 2911 2256
Q 2891 2428 2841 2509
Q 2775 2619 2662 2680
Q 2550 2741 2406 2741
Q 2056 2741 1856 2470
Q 1656 2200 1656 1722
L 1656 0
L 538 0
L 538 3500
L 1656 3500
L 1656 2988
Q 1909 3294 2193 3439
Q 2478 3584 2822 3584
Q 3428 3584 3742 3212
Q 4056 2841 4056 2131
z
" transform="scale(0.015625)"/>
      <path id="DejaVuSans-Bold-47" d="M 2919 2988
L 2919 4863
L 4044 4863
L 4044 0
L 2919 0
L 2919 506
Q 2688 197 2409 53
Q 2131 -91 1766 -91
Q 1119 -91 703 423
Q 288 938 288 1747
Q 288 2556 703 3070
Q 1119 3584 1766 3584
Q 2128 3584 2408 3439
Q 2688 3294 2919 2988
z
M 2181 722
Q 2541 722 2730 984
Q 2919 1247 2919 1747
Q 2919 2247 2730 2509
Q 2541 2772 2181 2772
Q 1825 2772 1636 2509
Q 1447 2247 1447 1747
Q 1447 1247 1636 984
Q 1825 722 2181 722
z
" transform="scale(0.015625)"/>
      <path id="DejaVuSans-Bold-4c" d="M 538 3500
L 1656 3500
L 1656 0
L 538 0
L 538 3500
z
M 538 4863
L 1656 4863
L 1656 3950
L 538 3950
L 538 4863
z
" transform="scale(0.015625)"/>
      <path id="DejaVuSans-Bold-50" d="M 3781 2919
Q 3994 3244 4286 3414
Q 4578 3584 4928 3584
Q 5531 3584 5847 3212
Q 6163 2841 6163 2131
L 6163 0
L 5038 0
L 5038 1825
Q 5041 1866 5042 1909
Q 5044 1953 5044 2034
Q 5044 2406 4934 2573
Q 4825 2741 4581 2741
Q 4263 2741 4089 2478
Q 3916 2216 3909 1719
L 3909 0
L 2784 0
L 2784 1825
Q 2784 2406 2684 2573
Q 2584 2741 2328 2741
Q 2006 2741 1831 2477
Q 1656 2213 1656 1722
L 1656 0
L 531 0
L 531 3500
L 1656 3500
L 1656 2988
Q 1863 3284 2130 3434
Q 2397 3584 2719 3584
Q 3081 3584 3359 3409
Q 3638 3234 3781 2919
z
" transform="scale(0.015625)"/>
      <path id="DejaVuSans-Bold-57" d="M 1759 4494
L 1759 3500
L 2913 3500
L 2913 2700
L 1759 2700
L 1759 1216
Q 1759 972 1856 886
Q 1953 800 2241 800
L 2816 800
L 2816 0
L 1856 0
Q 1194 0 917 276
Q 641 553 641 1216
L 641 2700
L 84 2700
L 84 3500
L 641 3500
L 641 4494
L 1759 4494
z
" transform="scale(0.015625)"/>
      <path id="DejaVuSans-Bold-58" d="M 500 1363
L 500 3500
L 1625 3500
L 1625 3150
Q 1625 2866 1622 2436
Q 1619 2006 1619 1863
Q 1619 1441 1641 1255
Q 1663 1069 1716 984
Q 1784 875 1895 815
Q 2006 756 2150 756
Q 2500 756 2700 1025
Q 2900 1294 2900 1772
L 2900 3500
L 4019 3500
L 4019 0
L 2900 0
L 2900 506
Q 2647 200 2364 54
Q 2081 -91 1741 -91
Q 1134 -91 817 281
Q 500 653 500 1363
z
" transform="scale(0.015625)"/>
      <path id="DejaVuSans-Bold-2a" d="M 4781 347
Q 4331 128 3847 18
Q 3363 -91 2847 -91
Q 1681 -91 1000 561
Q 319 1213 319 2328
Q 319 3456 1012 4103
Q 1706 4750 2913 4750
Q 3378 4750 3804 4662
Q 4231 4575 4609 4403
L 4609 3438
Q 4219 3659 3833 3768
Q 3447 3878 3059 3878
Q 2341 3878 1952 3476
Q 1563 3075 1563 2328
Q 1563 1588 1938 1184
Q 2313 781 3003 781
Q 3191 781 3352 804
Q 3513 828 3641 878
L 3641 1784
L 2906 1784
L 2906 2591
L 4781 2591
L 4781 347
z
" transform="scale(0.015625)"/>
      <path id="DejaVuSans-Bold-17" d="M 2356 3675
L 1038 1722
L 2356 1722
L 2356 3675
z
M 2156 4666
L 3494 4666
L 3494 1722
L 4159 1722
L 4159 850
L 3494 850
L 3494 0
L 2356 0
L 2356 850
L 288 850
L 288 1881
L 2156 4666
z
" transform="scale(0.015625)"/>
     </defs>
     <use xlink:href="#DejaVuSans-Bold-35"/>
     <use xlink:href="#DejaVuSans-Bold-48" transform="translate(77 0)"/>
     <use xlink:href="#DejaVuSans-Bold-56" transform="translate(144.828125 0)"/>
     <use xlink:href="#DejaVuSans-Bold-48" transform="translate(204.34375 0)"/>
     <use xlink:href="#DejaVuSans-Bold-44" transform="translate(272.171875 0)"/>
     <use xlink:href="#DejaVuSans-Bold-55" transform="translate(339.65625 0)"/>
     <use xlink:href="#DejaVuSans-Bold-46" transform="translate(388.96875 0)"/>
     <use xlink:href="#DejaVuSans-Bold-4b" transform="translate(448.25 0)"/>
     <use xlink:href="#DejaVuSans-Bold-3" transform="translate(519.4375 0)"/>
     <use xlink:href="#DejaVuSans-Bold-4a" transform="translate(554.25 0)"/>
     <use xlink:href="#DejaVuSans-Bold-52" transform="translate(625.828125 0)"/>
     <use xlink:href="#DejaVuSans-Bold-59" transform="translate(694.53125 0)"/>
     <use xlink:href="#DejaVuSans-Bold-48" transform="translate(759.71875 0)"/>
     <use xlink:href="#DejaVuSans-Bold-55" transform="translate(827.546875 0)"/>
     <use xlink:href="#DejaVuSans-Bold-51" transform="translate(876.859375 0)"/>
     <use xlink:href="#DejaVuSans-Bold-44" transform="translate(948.046875 0)"/>
     <use xlink:href="#DejaVuSans-Bold-51" transform="translate(1015.53125 0)"/>
     <use xlink:href="#DejaVuSans-Bold-46" transform="translate(1086.71875 0)"/>
     <use xlink:href="#DejaVuSans-Bold-48" transform="translate(1146 0)"/>
     <use xlink:href="#DejaVuSans-Bold-3" transform="translate(1213.828125 0)"/>
     <use xlink:href="#DejaVuSans-Bold-47" transform="translate(1248.640625 0)"/>
     <use xlink:href="#DejaVuSans-Bold-48" transform="translate(1320.21875 0)"/>
     <use xlink:href="#DejaVuSans-Bold-46" transform="translate(1388.046875 0)"/>
     <use xlink:href="#DejaVuSans-Bold-4c" transform="translate(1447.328125 0)"/>
     <use xlink:href="#DejaVuSans-Bold-56" transform="translate(1481.609375 0)"/>
     <use xlink:href="#DejaVuSans-Bold-4c" transform="translate(1541.125 0)"/>
     <use xlink:href="#DejaVuSans-Bold-52" transform="translate(1575.40625 0)"/>
     <use xlink:href="#DejaVuSans-Bold-51" transform="translate(1644.109375 0)"/>
     <use xlink:href="#DejaVuSans-Bold-3" transform="translate(1715.296875 0)"/>
     <use xlink:href="#DejaVuSans-Bold-47" transform="translate(1750.109375 0)"/>
     <use xlink:href="#DejaVuSans-Bold-4c" transform="translate(1821.6875 0)"/>
     <use xlink:href="#DejaVuSans-Bold-44" transform="translate(1855.96875 0)"/>
     <use xlink:href="#DejaVuSans-Bold-4a" transform="translate(1923.453125 0)"/>
     <use xlink:href="#DejaVuSans-Bold-55" transform="translate(1995.03125 0)"/>
     <use xlink:href="#DejaVuSans-Bold-44" transform="translate(2044.34375 0)"/>
     <use xlink:href="#DejaVuSans-Bold-50" transform="translate(2111.828125 0)"/>
     <use xlink:href="#DejaVuSans-Bold-3" transform="translate(2216.03125 0)"/>
     <use xlink:href="#DejaVuSans-Bold-57" transform="translate(2250.84375 0)"/>
     <use xlink:href="#DejaVuSans-Bold-4b" transform="translate(2298.640625 0)"/>
     <use xlink:href="#DejaVuSans-Bold-55" transform="translate(2369.828125 0)"/>
     <use xlink:href="#DejaVuSans-Bold-52" transform="translate(2419.140625 0)"/>
     <use xlink:href="#DejaVuSans-Bold-58" transform="translate(2487.84375 0)"/>
     <use xlink:href="#DejaVuSans-Bold-4a" transform="translate(2559.03125 0)"/>
     <use xlink:href="#DejaVuSans-Bold-4b" transform="translate(2630.609375 0)"/>
     <use xlink:href="#DejaVuSans-Bold-3" transform="translate(2701.796875 0)"/>
     <use xlink:href="#DejaVuSans-Bold-2a" transform="translate(2736.609375 0)"/>
     <use xlink:href="#DejaVuSans-Bold-44" transform="translate(2818.6875 0)"/>
     <use xlink:href="#DejaVuSans-Bold-57" transform="translate(2886.171875 0)"/>
     <use xlink:href="#DejaVuSans-Bold-48" transform="translate(2933.96875 0)"/>
     <use xlink:href="#DejaVuSans-Bold-3" transform="translate(3001.796875 0)"/>
     <use xlink:href="#DejaVuSans-Bold-17" transform="translate(3036.609375 0)"/>
    </g>
   </g>
   <g id="text_2">
    <!-- Gate 0 -->
    <g style="fill: #1f2937" transform="translate(27.743985 80.307778) scale(0.09 -0.09)">
     <defs>
      <path id="DejaVuSans-Bold-13" d="M 2944 2338
Q 2944 3213 2780 3570
Q 2616 3928 2228 3928
Q 1841 3928 1675 3570
Q 1509 3213 1509 2338
Q 1509 1453 1675 1090
Q 1841 728 2228 728
Q 2613 728 2778 1090
Q 2944 1453 2944 2338
z
M 4147 2328
Q 4147 1169 3647 539
Q 3147 -91 2228 -91
Q 1306 -91 806 539
Q 306 1169 306 2328
Q 306 3491 806 4120
Q 1306 4750 2228 4750
Q 3147 4750 3647 4120
Q 4147 3491 4147 2328
z
" transform="scale(0.015625)"/>
     </defs>
     <use xlink:href="#DejaVuSans-Bold-2a"/>
     <use xlink:href="#DejaVuSans-Bold-44" transform="translate(82.078125 0)"/>
     <use xlink:href="#DejaVuSans-Bold-57" transform="translate(149.5625 0)"/>
     <use xlink:href="#DejaVuSans-Bold-48" transform="translate(197.359375 0)"/>
     <use xlink:href="#DejaVuSans-Bold-3" transform="translate(265.1875 0)"/>
     <use xlink:href="#DejaVuSans-Bold-13" transform="translate(300 0)"/>
    </g>
   </g>
   <g id="text_3">
    <!-- Governance -->
    <g style="fill: #1f2937" transform="translate(27.743985 91.673992) scale(0.08 -0.08)">
     <defs>
      <path id="DejaVuSans-2a" d="M 3809 666
L 3809 1919
L 2778 1919
L 2778 2438
L 4434 2438
L 4434 434
Q 4069 175 3628 42
Q 3188 -91 2688 -91
Q 1594 -91 976 548
Q 359 1188 359 2328
Q 359 3472 976 4111
Q 1594 4750 2688 4750
Q 3144 4750 3555 4637
Q 3966 4525 4313 4306
L 4313 3634
Q 3963 3931 3569 4081
Q 3175 4231 2741 4231
Q 1884 4231 1454 3753
Q 1025 3275 1025 2328
Q 1025 1384 1454 906
Q 1884 428 2741 428
Q 3075 428 3337 486
Q 3600 544 3809 666
z
" transform="scale(0.015625)"/>
      <path id="DejaVuSans-52" d="M 1959 3097
Q 1497 3097 1228 2736
Q 959 2375 959 1747
Q 959 1119 1226 758
Q 1494 397 1959 397
Q 2419 397 2687 759
Q 2956 1122 2956 1747
Q 2956 2369 2687 2733
Q 2419 3097 1959 3097
z
M 1959 3584
Q 2709 3584 3137 3096
Q 3566 2609 3566 1747
Q 3566 888 3137 398
Q 2709 -91 1959 -91
Q 1206 -91 779 398
Q 353 888 353 1747
Q 353 2609 779 3096
Q 1206 3584 1959 3584
z
" transform="scale(0.015625)"/>
      <path id="DejaVuSans-59" d="M 191 3500
L 800 3500
L 1894 563
L 2988 3500
L 3597 3500
L 2284 0
L 1503 0
L 191 3500
z
" transform="scale(0.015625)"/>
      <path id="DejaVuSans-48" d="M 3597 1894
L 3597 1613
L 953 1613
Q 991 1019 1311 708
Q 1631 397 2203 397
Q 2534 397 2845 478
Q 3156 559 3463 722
L 3463 178
Q 3153 47 2828 -22
Q 2503 -91 2169 -91
Q 1331 -91 842 396
Q 353 884 353 1716
Q 353 2575 817 3079
Q 1281 3584 2069 3584
Q 2775 3584 3186 3129
Q 3597 2675 3597 1894
z
M 3022 2063
Q 3016 2534 2758 2815
Q 2500 3097 2075 3097
Q 1594 3097 1305 2825
Q 1016 2553 972 2059
L 3022 2063
z
" transform="scale(0.015625)"/>
      <path id="DejaVuSans-55" d="M 2631 2963
Q 2534 3019 2420 3045
Q 2306 3072 2169 3072
Q 1681 3072 1420 2755
Q 1159 2438 1159 1844
L 1159 0
L 581 0
L 581 3500
L 1159 3500
L 1159 2956
Q 1341 3275 1631 3429
Q 1922 3584 2338 3584
Q 2397 3584 2469 3576
Q 2541 3569 2628 3553
L 2631 2963
z
" transform="scale(0.015625)"/>
      <path id="DejaVuSans-51" d="M 3513 2113
L 3513 0
L 2938 0
L 2938 2094
Q 2938 2591 2744 2837
Q 2550 3084 2163 3084
Q 1697 3084 1428 2787
Q 1159 2491 1159 1978
L 1159 0
L 581 0
L 581 3500
L 1159 3500
L 1159 2956
Q 1366 3272 1645 3428
Q 1925 3584 2291 3584
Q 2894 3584 3203 3211
Q 3513 2838 3513 2113
z
" transform="scale(0.015625)"/>
      <path id="DejaVuSans-44" d="M 2194 1759
Q 1497 1759 1228 1600
Q 959 1441 959 1056
Q 959 750 1161 570
Q 1363 391 1709 391
Q 2188 391 2477 730
Q 2766 1069 2766 1631
L 2766 1759
L 2194 1759
z
M 3341 1997
L 3341 0
L 2766 0
L 2766 531
Q 2569 213 2275 61
Q 1981 -91 1556 -91
Q 1019 -91 701 211
Q 384 513 384 1019
Q 384 1609 779 1909
Q 1175 2209 1959 2209
L 2766 2209
L 2766 2266
Q 2766 2663 2505 2880
Q 2244 3097 1772 3097
Q 1472 3097 1187 3025
Q 903 2953 641 2809
L 641 3341
Q 956 3463 1253 3523
Q 1550 3584 1831 3584
Q 2591 3584 2966 3190
Q 3341 2797 3341 1997
z
" transform="scale(0.015625)"/>
      <path id="DejaVuSans-46" d="M 3122 3366
L 3122 2828
Q 2878 2963 2633 3030
Q 2388 3097 2138 3097
Q 1578 3097 1268 2742
Q 959 2388 959 1747
Q 959 1106 1268 751
Q 1578 397 2138 397
Q 2388 397 2633 464
Q 2878 531 3122 666
L 3122 134
Q 2881 22 2623 -34
Q 2366 -91 2075 -91
Q 1284 -91 818 406
Q 353 903 353 1747
Q 353 2603 823 3093
Q 1294 3584 2113 3584
Q 2378 3584 2631 3529
Q 2884 3475 3122 3366
z
" transform="scale(0.015625)"/>
     </defs>
     <use xlink:href="#DejaVuSans-2a"/>
     <use xlink:href="#DejaVuSans-52" transform="translate(77.484375 0)"/>
     <use xlink:href="#DejaVuSans-59" transform="translate(138.671875 0)"/>
     <use xlink:href="#DejaVuSans-48" transform="translate(197.859375 0)"/>
     <use xlink:href="#DejaVuSans-55" transform="translate(259.390625 0)"/>
     <use xlink:href="#DejaVuSans-51" transform="translate(298.75 0)"/>
     <use xlink:href="#DejaVuSans-44" transform="translate(362.125 0)"/>
     <use xlink:href="#DejaVuSans-51" transform="translate(423.40625 0)"/>
     <use xlink:href="#DejaVuSans-46" transform="translate(486.78125 0)"/>
     <use xlink:href="#DejaVuSans-48" transform="translate(541.765625 0)"/>
    </g>
   </g>
   <g id="text_4">
    <!-- 2026-07-10 -->
    <g style="fill: #5b6573" transform="translate(27.743985 105.790071) scale(0.075 -0.075)">
     <defs>
      <path id="DejaVuSans-15" d="M 1228 531
L 3431 531
L 3431 0
L 469 0
L 469 531
Q 828 903 1448 1529
Q 2069 2156 2228 2338
Q 2531 2678 2651 2914
Q 2772 3150 2772 3378
Q 2772 3750 2511 3984
Q 2250 4219 1831 4219
Q 1534 4219 1204 4116
Q 875 4013 500 3803
L 500 4441
Q 881 4594 1212 4672
Q 1544 4750 1819 4750
Q 2544 4750 2975 4387
Q 3406 4025 3406 3419
Q 3406 3131 3298 2873
Q 3191 2616 2906 2266
Q 2828 2175 2409 1742
Q 1991 1309 1228 531
z
" transform="scale(0.015625)"/>
      <path id="DejaVuSans-13" d="M 2034 4250
Q 1547 4250 1301 3770
Q 1056 3291 1056 2328
Q 1056 1369 1301 889
Q 1547 409 2034 409
Q 2525 409 2770 889
Q 3016 1369 3016 2328
Q 3016 3291 2770 3770
Q 2525 4250 2034 4250
z
M 2034 4750
Q 2819 4750 3233 4129
Q 3647 3509 3647 2328
Q 3647 1150 3233 529
Q 2819 -91 2034 -91
Q 1250 -91 836 529
Q 422 1150 422 2328
Q 422 3509 836 4129
Q 1250 4750 2034 4750
z
" transform="scale(0.015625)"/>
      <path id="DejaVuSans-19" d="M 2113 2584
Q 1688 2584 1439 2293
Q 1191 2003 1191 1497
Q 1191 994 1439 701
Q 1688 409 2113 409
Q 2538 409 2786 701
Q 3034 994 3034 1497
Q 3034 2003 2786 2293
Q 2538 2584 2113 2584
z
M 3366 4563
L 3366 3988
Q 3128 4100 2886 4159
Q 2644 4219 2406 4219
Q 1781 4219 1451 3797
Q 1122 3375 1075 2522
Q 1259 2794 1537 2939
Q 1816 3084 2150 3084
Q 2853 3084 3261 2657
Q 3669 2231 3669 1497
Q 3669 778 3244 343
Q 2819 -91 2113 -91
Q 1303 -91 875 529
Q 447 1150 447 2328
Q 447 3434 972 4092
Q 1497 4750 2381 4750
Q 2619 4750 2861 4703
Q 3103 4656 3366 4563
z
" transform="scale(0.015625)"/>
      <path id="DejaVuSans-10" d="M 313 2009
L 1997 2009
L 1997 1497
L 313 1497
L 313 2009
z
" transform="scale(0.015625)"/>
      <path id="DejaVuSans-1a" d="M 525 4666
L 3525 4666
L 3525 4397
L 1831 0
L 1172 0
L 2766 4134
L 525 4134
L 525 4666
z
" transform="scale(0.015625)"/>
      <path id="DejaVuSans-14" d="M 794 531
L 1825 531
L 1825 4091
L 703 3866
L 703 4441
L 1819 4666
L 2450 4666
L 2450 531
L 3481 531
L 3481 0
L 794 0
L 794 531
z
" transform="scale(0.015625)"/>
     </defs>
     <use xlink:href="#DejaVuSans-15"/>
     <use xlink:href="#DejaVuSans-13" transform="translate(63.625 0)"/>
     <use xlink:href="#DejaVuSans-15" transform="translate(127.25 0)"/>
     <use xlink:href="#DejaVuSans-19" transform="translate(190.875 0)"/>
     <use xlink:href="#DejaVuSans-10" transform="translate(254.5 0)"/>
     <use xlink:href="#DejaVuSans-13" transform="translate(290.578125 0)"/>
     <use xlink:href="#DejaVuSans-1a" transform="translate(354.203125 0)"/>
     <use xlink:href="#DejaVuSans-10" transform="translate(417.828125 0)"/>
     <use xlink:href="#DejaVuSans-14" transform="translate(453.90625 0)"/>
     <use xlink:href="#DejaVuSans-13" transform="translate(517.53125 0)"/>
    </g>
   </g>
   <g id="text_5">
    <!-- Gate 1 -->
    <g style="fill: #1f2937" transform="translate(156.143889 80.307778) scale(0.09 -0.09)">
     <defs>
      <path id="DejaVuSans-Bold-14" d="M 750 831
L 1813 831
L 1813 3847
L 722 3622
L 722 4441
L 1806 4666
L 2950 4666
L 2950 831
L 4013 831
L 4013 0
L 750 0
L 750 831
z
" transform="scale(0.015625)"/>
     </defs>
     <use xlink:href="#DejaVuSans-Bold-2a"/>
     <use xlink:href="#DejaVuSans-Bold-44" transform="translate(82.078125 0)"/>
     <use xlink:href="#DejaVuSans-Bold-57" transform="translate(149.5625 0)"/>
     <use xlink:href="#DejaVuSans-Bold-48" transform="translate(197.359375 0)"/>
     <use xlink:href="#DejaVuSans-Bold-3" transform="translate(265.1875 0)"/>
     <use xlink:href="#DejaVuSans-Bold-14" transform="translate(300 0)"/>
    </g>
   </g>
   <g id="text_6">
    <!-- NASA-first scope -->
    <g style="fill: #1f2937" transform="translate(156.143889 91.674617) scale(0.08 -0.08)">
     <defs>
      <path id="DejaVuSans-31" d="M 628 4666
L 1478 4666
L 3547 763
L 3547 4666
L 4159 4666
L 4159 0
L 3309 0
L 1241 3903
L 1241 0
L 628 0
L 628 4666
z
" transform="scale(0.015625)"/>
      <path id="DejaVuSans-24" d="M 2188 4044
L 1331 1722
L 3047 1722
L 2188 4044
z
M 1831 4666
L 2547 4666
L 4325 0
L 3669 0
L 3244 1197
L 1141 1197
L 716 0
L 50 0
L 1831 4666
z
" transform="scale(0.015625)"/>
      <path id="DejaVuSans-36" d="M 3425 4513
L 3425 3897
Q 3066 4069 2747 4153
Q 2428 4238 2131 4238
Q 1616 4238 1336 4038
Q 1056 3838 1056 3469
Q 1056 3159 1242 3001
Q 1428 2844 1947 2747
L 2328 2669
Q 3034 2534 3370 2195
Q 3706 1856 3706 1288
Q 3706 609 3251 259
Q 2797 -91 1919 -91
Q 1588 -91 1214 -16
Q 841 59 441 206
L 441 856
Q 825 641 1194 531
Q 1563 422 1919 422
Q 2459 422 2753 634
Q 3047 847 3047 1241
Q 3047 1584 2836 1778
Q 2625 1972 2144 2069
L 1759 2144
Q 1053 2284 737 2584
Q 422 2884 422 3419
Q 422 4038 858 4394
Q 1294 4750 2059 4750
Q 2388 4750 2728 4690
Q 3069 4631 3425 4513
z
" transform="scale(0.015625)"/>
      <path id="DejaVuSans-13af" d="M 3431 3500
L 3431 0
L 2853 0
L 2853 3053
L 1275 3053
L 1275 0
L 697 0
L 697 3053
L 147 3053
L 147 3500
L 697 3500
L 697 3744
Q 697 4316 967 4589
Q 1238 4863 1797 4863
L 2375 4863
L 2375 4384
L 1825 4384
Q 1516 4384 1395 4259
Q 1275 4134 1275 3809
L 1275 3500
L 3431 3500
z
M 2853 4856
L 3431 4856
L 3431 4128
L 2853 4128
L 2853 4856
z
" transform="scale(0.015625)"/>
      <path id="DejaVuSans-56" d="M 2834 3397
L 2834 2853
Q 2591 2978 2328 3040
Q 2066 3103 1784 3103
Q 1356 3103 1142 2972
Q 928 2841 928 2578
Q 928 2378 1081 2264
Q 1234 2150 1697 2047
L 1894 2003
Q 2506 1872 2764 1633
Q 3022 1394 3022 966
Q 3022 478 2636 193
Q 2250 -91 1575 -91
Q 1294 -91 989 -36
Q 684 19 347 128
L 347 722
Q 666 556 975 473
Q 1284 391 1588 391
Q 1994 391 2212 530
Q 2431 669 2431 922
Q 2431 1156 2273 1281
Q 2116 1406 1581 1522
L 1381 1569
Q 847 1681 609 1914
Q 372 2147 372 2553
Q 372 3047 722 3315
Q 1072 3584 1716 3584
Q 2034 3584 2315 3537
Q 2597 3491 2834 3397
z
" transform="scale(0.015625)"/>
      <path id="DejaVuSans-57" d="M 1172 4494
L 1172 3500
L 2356 3500
L 2356 3053
L 1172 3053
L 1172 1153
Q 1172 725 1289 603
Q 1406 481 1766 481
L 2356 481
L 2356 0
L 1766 0
Q 1100 0 847 248
Q 594 497 594 1153
L 594 3053
L 172 3053
L 172 3500
L 594 3500
L 594 4494
L 1172 4494
z
" transform="scale(0.015625)"/>
      <path id="DejaVuSans-3" transform="scale(0.015625)"/>
      <path id="DejaVuSans-53" d="M 1159 525
L 1159 -1331
L 581 -1331
L 581 3500
L 1159 3500
L 1159 2969
Q 1341 3281 1617 3432
Q 1894 3584 2278 3584
Q 2916 3584 3314 3078
Q 3713 2572 3713 1747
Q 3713 922 3314 415
Q 2916 -91 2278 -91
Q 1894 -91 1617 61
Q 1341 213 1159 525
z
M 3116 1747
Q 3116 2381 2855 2742
Q 2594 3103 2138 3103
Q 1681 3103 1420 2742
Q 1159 2381 1159 1747
Q 1159 1113 1420 752
Q 1681 391 2138 391
Q 2594 391 2855 752
Q 3116 1113 3116 1747
z
" transform="scale(0.015625)"/>
     </defs>
     <use xlink:href="#DejaVuSans-31"/>
     <use xlink:href="#DejaVuSans-24" transform="translate(74.8125 0)"/>
     <use xlink:href="#DejaVuSans-36" transform="translate(143.21875 0)"/>
     <use xlink:href="#DejaVuSans-24" transform="translate(208.5625 0)"/>
     <use xlink:href="#DejaVuSans-10" transform="translate(274.765625 0)"/>
     <use xlink:href="#DejaVuSans-13af" transform="translate(310.84375 0)"/>
     <use xlink:href="#DejaVuSans-55" transform="translate(373.828125 0)"/>
     <use xlink:href="#DejaVuSans-56" transform="translate(414.9375 0)"/>
     <use xlink:href="#DejaVuSans-57" transform="translate(467.03125 0)"/>
     <use xlink:href="#DejaVuSans-3" transform="translate(506.234375 0)"/>
     <use xlink:href="#DejaVuSans-56" transform="translate(538.015625 0)"/>
     <use xlink:href="#DejaVuSans-46" transform="translate(590.109375 0)"/>
     <use xlink:href="#DejaVuSans-52" transform="translate(645.09375 0)"/>
     <use xlink:href="#DejaVuSans-53" transform="translate(706.28125 0)"/>
     <use xlink:href="#DejaVuSans-48" transform="translate(769.765625 0)"/>
    </g>
   </g>
   <g id="text_7">
    <!-- 2026-07-10 -->
    <g style="fill: #5b6573" transform="translate(156.143889 105.790071) scale(0.075 -0.075)">
     <use xlink:href="#DejaVuSans-15"/>
     <use xlink:href="#DejaVuSans-13" transform="translate(63.625 0)"/>
     <use xlink:href="#DejaVuSans-15" transform="translate(127.25 0)"/>
     <use xlink:href="#DejaVuSans-19" transform="translate(190.875 0)"/>
     <use xlink:href="#DejaVuSans-10" transform="translate(254.5 0)"/>
     <use xlink:href="#DejaVuSans-13" transform="translate(290.578125 0)"/>
     <use xlink:href="#DejaVuSans-1a" transform="translate(354.203125 0)"/>
     <use xlink:href="#DejaVuSans-10" transform="translate(417.828125 0)"/>
     <use xlink:href="#DejaVuSans-14" transform="translate(453.90625 0)"/>
     <use xlink:href="#DejaVuSans-13" transform="translate(517.53125 0)"/>
    </g>
   </g>
   <g id="text_8">
    <!-- Gate 2 -->
    <g style="fill: #1f2937" transform="translate(284.543793 80.307778) scale(0.09 -0.09)">
     <defs>
      <path id="DejaVuSans-Bold-15" d="M 1844 884
L 3897 884
L 3897 0
L 506 0
L 506 884
L 2209 2388
Q 2438 2594 2547 2791
Q 2656 2988 2656 3200
Q 2656 3528 2436 3728
Q 2216 3928 1850 3928
Q 1569 3928 1234 3808
Q 900 3688 519 3450
L 519 4475
Q 925 4609 1322 4679
Q 1719 4750 2100 4750
Q 2938 4750 3402 4381
Q 3866 4013 3866 3353
Q 3866 2972 3669 2642
Q 3472 2313 2841 1759
L 1844 884
z
" transform="scale(0.015625)"/>
     </defs>
     <use xlink:href="#DejaVuSans-Bold-2a"/>
     <use xlink:href="#DejaVuSans-Bold-44" transform="translate(82.078125 0)"/>
     <use xlink:href="#DejaVuSans-Bold-57" transform="translate(149.5625 0)"/>
     <use xlink:href="#DejaVuSans-Bold-48" transform="translate(197.359375 0)"/>
     <use xlink:href="#DejaVuSans-Bold-3" transform="translate(265.1875 0)"/>
     <use xlink:href="#DejaVuSans-Bold-15" transform="translate(300 0)"/>
    </g>
   </g>
   <g id="text_9">
    <!-- Data/numeric freeze -->
    <g style="fill: #1f2937" transform="translate(284.543793 91.674617) scale(0.08 -0.08)">
     <defs>
      <path id="DejaVuSans-27" d="M 1259 4147
L 1259 519
L 2022 519
Q 2988 519 3436 956
Q 3884 1394 3884 2338
Q 3884 3275 3436 3711
Q 2988 4147 2022 4147
L 1259 4147
z
M 628 4666
L 1925 4666
Q 3281 4666 3915 4102
Q 4550 3538 4550 2338
Q 4550 1131 3912 565
Q 3275 0 1925 0
L 628 0
L 628 4666
z
" transform="scale(0.015625)"/>
      <path id="DejaVuSans-12" d="M 1625 4666
L 2156 4666
L 531 -594
L 0 -594
L 1625 4666
z
" transform="scale(0.015625)"/>
      <path id="DejaVuSans-58" d="M 544 1381
L 544 3500
L 1119 3500
L 1119 1403
Q 1119 906 1312 657
Q 1506 409 1894 409
Q 2359 409 2629 706
Q 2900 1003 2900 1516
L 2900 3500
L 3475 3500
L 3475 0
L 2900 0
L 2900 538
Q 2691 219 2414 64
Q 2138 -91 1772 -91
Q 1169 -91 856 284
Q 544 659 544 1381
z
M 1991 3584
L 1991 3584
z
" transform="scale(0.015625)"/>
      <path id="DejaVuSans-50" d="M 3328 2828
Q 3544 3216 3844 3400
Q 4144 3584 4550 3584
Q 5097 3584 5394 3201
Q 5691 2819 5691 2113
L 5691 0
L 5113 0
L 5113 2094
Q 5113 2597 4934 2840
Q 4756 3084 4391 3084
Q 3944 3084 3684 2787
Q 3425 2491 3425 1978
L 3425 0
L 2847 0
L 2847 2094
Q 2847 2600 2669 2842
Q 2491 3084 2119 3084
Q 1678 3084 1418 2786
Q 1159 2488 1159 1978
L 1159 0
L 581 0
L 581 3500
L 1159 3500
L 1159 2956
Q 1356 3278 1631 3431
Q 1906 3584 2284 3584
Q 2666 3584 2933 3390
Q 3200 3197 3328 2828
z
" transform="scale(0.015625)"/>
      <path id="DejaVuSans-4c" d="M 603 3500
L 1178 3500
L 1178 0
L 603 0
L 603 3500
z
M 603 4863
L 1178 4863
L 1178 4134
L 603 4134
L 603 4863
z
" transform="scale(0.015625)"/>
      <path id="DejaVuSans-49" d="M 2375 4863
L 2375 4384
L 1825 4384
Q 1516 4384 1395 4259
Q 1275 4134 1275 3809
L 1275 3500
L 2222 3500
L 2222 3053
L 1275 3053
L 1275 0
L 697 0
L 697 3053
L 147 3053
L 147 3500
L 697 3500
L 697 3744
Q 697 4328 969 4595
Q 1241 4863 1831 4863
L 2375 4863
z
" transform="scale(0.015625)"/>
      <path id="DejaVuSans-5d" d="M 353 3500
L 3084 3500
L 3084 2975
L 922 459
L 3084 459
L 3084 0
L 275 0
L 275 525
L 2438 3041
L 353 3041
L 353 3500
z
" transform="scale(0.015625)"/>
     </defs>
     <use xlink:href="#DejaVuSans-27"/>
     <use xlink:href="#DejaVuSans-44" transform="translate(77 0)"/>
     <use xlink:href="#DejaVuSans-57" transform="translate(138.28125 0)"/>
     <use xlink:href="#DejaVuSans-44" transform="translate(177.484375 0)"/>
     <use xlink:href="#DejaVuSans-12" transform="translate(238.765625 0)"/>
     <use xlink:href="#DejaVuSans-51" transform="translate(272.453125 0)"/>
     <use xlink:href="#DejaVuSans-58" transform="translate(335.828125 0)"/>
     <use xlink:href="#DejaVuSans-50" transform="translate(399.203125 0)"/>
     <use xlink:href="#DejaVuSans-48" transform="translate(496.609375 0)"/>
     <use xlink:href="#DejaVuSans-55" transform="translate(558.140625 0)"/>
     <use xlink:href="#DejaVuSans-4c" transform="translate(599.25 0)"/>
     <use xlink:href="#DejaVuSans-46" transform="translate(627.03125 0)"/>
     <use xlink:href="#DejaVuSans-3" transform="translate(682.015625 0)"/>
     <use xlink:href="#DejaVuSans-49" transform="translate(713.796875 0)"/>
     <use xlink:href="#DejaVuSans-55" transform="translate(749 0)"/>
     <use xlink:href="#DejaVuSans-48" transform="translate(787.90625 0)"/>
     <use xlink:href="#DejaVuSans-48" transform="translate(849.4375 0)"/>
     <use xlink:href="#DejaVuSans-5d" transform="translate(910.96875 0)"/>
     <use xlink:href="#DejaVuSans-48" transform="translate(963.453125 0)"/>
    </g>
   </g>
   <g id="text_10">
    <!-- 2026-07-11 -->
    <g style="fill: #5b6573" transform="translate(284.543793 105.790071) scale(0.075 -0.075)">
     <use xlink:href="#DejaVuSans-15"/>
     <use xlink:href="#DejaVuSans-13" transform="translate(63.625 0)"/>
     <use xlink:href="#DejaVuSans-15" transform="translate(127.25 0)"/>
     <use xlink:href="#DejaVuSans-19" transform="translate(190.875 0)"/>
     <use xlink:href="#DejaVuSans-10" transform="translate(254.5 0)"/>
     <use xlink:href="#DejaVuSans-13" transform="translate(290.578125 0)"/>
     <use xlink:href="#DejaVuSans-1a" transform="translate(354.203125 0)"/>
     <use xlink:href="#DejaVuSans-10" transform="translate(417.828125 0)"/>
     <use xlink:href="#DejaVuSans-14" transform="translate(453.90625 0)"/>
     <use xlink:href="#DejaVuSans-14" transform="translate(517.53125 0)"/>
    </g>
   </g>
   <g id="text_11">
    <!-- Gate 3 -->
    <g style="fill: #1f2937" transform="translate(412.943697 80.307778) scale(0.09 -0.09)">
     <defs>
      <path id="DejaVuSans-Bold-16" d="M 2981 2516
Q 3453 2394 3698 2092
Q 3944 1791 3944 1325
Q 3944 631 3412 270
Q 2881 -91 1863 -91
Q 1503 -91 1142 -33
Q 781 25 428 141
L 428 1069
Q 766 900 1098 814
Q 1431 728 1753 728
Q 2231 728 2486 893
Q 2741 1059 2741 1369
Q 2741 1688 2480 1852
Q 2219 2016 1709 2016
L 1228 2016
L 1228 2791
L 1734 2791
Q 2188 2791 2409 2933
Q 2631 3075 2631 3366
Q 2631 3634 2415 3781
Q 2200 3928 1806 3928
Q 1516 3928 1219 3862
Q 922 3797 628 3669
L 628 4550
Q 984 4650 1334 4700
Q 1684 4750 2022 4750
Q 2931 4750 3382 4451
Q 3834 4153 3834 3553
Q 3834 3144 3618 2883
Q 3403 2622 2981 2516
z
" transform="scale(0.015625)"/>
     </defs>
     <use xlink:href="#DejaVuSans-Bold-2a"/>
     <use xlink:href="#DejaVuSans-Bold-44" transform="translate(82.078125 0)"/>
     <use xlink:href="#DejaVuSans-Bold-57" transform="translate(149.5625 0)"/>
     <use xlink:href="#DejaVuSans-Bold-48" transform="translate(197.359375 0)"/>
     <use xlink:href="#DejaVuSans-Bold-3" transform="translate(265.1875 0)"/>
     <use xlink:href="#DejaVuSans-Bold-16" transform="translate(300 0)"/>
    </g>
   </g>
   <g id="text_12">
    <!-- Simulator credibility -->
    <g style="fill: #1f2937" transform="translate(412.943697 91.674617) scale(0.08 -0.08)">
     <defs>
      <path id="DejaVuSans-4f" d="M 603 4863
L 1178 4863
L 1178 0
L 603 0
L 603 4863
z
" transform="scale(0.015625)"/>
      <path id="DejaVuSans-47" d="M 2906 2969
L 2906 4863
L 3481 4863
L 3481 0
L 2906 0
L 2906 525
Q 2725 213 2448 61
Q 2172 -91 1784 -91
Q 1150 -91 751 415
Q 353 922 353 1747
Q 353 2572 751 3078
Q 1150 3584 1784 3584
Q 2172 3584 2448 3432
Q 2725 3281 2906 2969
z
M 947 1747
Q 947 1113 1208 752
Q 1469 391 1925 391
Q 2381 391 2643 752
Q 2906 1113 2906 1747
Q 2906 2381 2643 2742
Q 2381 3103 1925 3103
Q 1469 3103 1208 2742
Q 947 2381 947 1747
z
" transform="scale(0.015625)"/>
      <path id="DejaVuSans-45" d="M 3116 1747
Q 3116 2381 2855 2742
Q 2594 3103 2138 3103
Q 1681 3103 1420 2742
Q 1159 2381 1159 1747
Q 1159 1113 1420 752
Q 1681 391 2138 391
Q 2594 391 2855 752
Q 3116 1113 3116 1747
z
M 1159 2969
Q 1341 3281 1617 3432
Q 1894 3584 2278 3584
Q 2916 3584 3314 3078
Q 3713 2572 3713 1747
Q 3713 922 3314 415
Q 2916 -91 2278 -91
Q 1894 -91 1617 61
Q 1341 213 1159 525
L 1159 0
L 581 0
L 581 4863
L 1159 4863
L 1159 2969
z
" transform="scale(0.015625)"/>
      <path id="DejaVuSans-5c" d="M 2059 -325
Q 1816 -950 1584 -1140
Q 1353 -1331 966 -1331
L 506 -1331
L 506 -850
L 844 -850
Q 1081 -850 1212 -737
Q 1344 -625 1503 -206
L 1606 56
L 191 3500
L 800 3500
L 1894 763
L 2988 3500
L 3597 3500
L 2059 -325
z
" transform="scale(0.015625)"/>
     </defs>
     <use xlink:href="#DejaVuSans-36"/>
     <use xlink:href="#DejaVuSans-4c" transform="translate(63.484375 0)"/>
     <use xlink:href="#DejaVuSans-50" transform="translate(91.265625 0)"/>
     <use xlink:href="#DejaVuSans-58" transform="translate(188.671875 0)"/>
     <use xlink:href="#DejaVuSans-4f" transform="translate(252.046875 0)"/>
     <use xlink:href="#DejaVuSans-44" transform="translate(279.828125 0)"/>
     <use xlink:href="#DejaVuSans-57" transform="translate(341.109375 0)"/>
     <use xlink:href="#DejaVuSans-52" transform="translate(380.3125 0)"/>
     <use xlink:href="#DejaVuSans-55" transform="translate(441.5 0)"/>
     <use xlink:href="#DejaVuSans-3" transform="translate(482.609375 0)"/>
     <use xlink:href="#DejaVuSans-46" transform="translate(514.390625 0)"/>
     <use xlink:href="#DejaVuSans-55" transform="translate(569.375 0)"/>
     <use xlink:href="#DejaVuSans-48" transform="translate(608.28125 0)"/>
     <use xlink:href="#DejaVuSans-47" transform="translate(669.8125 0)"/>
     <use xlink:href="#DejaVuSans-4c" transform="translate(733.296875 0)"/>
     <use xlink:href="#DejaVuSans-45" transform="translate(761.078125 0)"/>
     <use xlink:href="#DejaVuSans-4c" transform="translate(824.5625 0)"/>
     <use xlink:href="#DejaVuSans-4f" transform="translate(852.34375 0)"/>
     <use xlink:href="#DejaVuSans-4c" transform="translate(880.125 0)"/>
     <use xlink:href="#DejaVuSans-57" transform="translate(907.90625 0)"/>
     <use xlink:href="#DejaVuSans-5c" transform="translate(947.109375 0)"/>
    </g>
   </g>
   <g id="text_13">
    <!-- 2026-07-12 -->
    <g style="fill: #5b6573" transform="translate(412.943697 105.790071) scale(0.075 -0.075)">
     <use xlink:href="#DejaVuSans-15"/>
     <use xlink:href="#DejaVuSans-13" transform="translate(63.625 0)"/>
     <use xlink:href="#DejaVuSans-15" transform="translate(127.25 0)"/>
     <use xlink:href="#DejaVuSans-19" transform="translate(190.875 0)"/>
     <use xlink:href="#DejaVuSans-10" transform="translate(254.5 0)"/>
     <use xlink:href="#DejaVuSans-13" transform="translate(290.578125 0)"/>
     <use xlink:href="#DejaVuSans-1a" transform="translate(354.203125 0)"/>
     <use xlink:href="#DejaVuSans-10" transform="translate(417.828125 0)"/>
     <use xlink:href="#DejaVuSans-14" transform="translate(453.90625 0)"/>
     <use xlink:href="#DejaVuSans-15" transform="translate(517.53125 0)"/>
    </g>
   </g>
   <g id="text_14">
    <!-- Gate 4 -->
    <g style="fill: #1f2937" transform="translate(541.343601 80.307778) scale(0.09 -0.09)">
     <use xlink:href="#DejaVuSans-Bold-2a"/>
     <use xlink:href="#DejaVuSans-Bold-44" transform="translate(82.078125 0)"/>
     <use xlink:href="#DejaVuSans-Bold-57" transform="translate(149.5625 0)"/>
     <use xlink:href="#DejaVuSans-Bold-48" transform="translate(197.359375 0)"/>
     <use xlink:href="#DejaVuSans-Bold-3" transform="translate(265.1875 0)"/>
     <use xlink:href="#DejaVuSans-Bold-17" transform="translate(300 0)"/>
    </g>
   </g>
   <g id="text_15">
    <!-- Phase 1 freeze -->
    <g style="fill: #1f2937" transform="translate(541.343601 91.674617) scale(0.08 -0.08)">
     <defs>
      <path id="DejaVuSans-33" d="M 1259 4147
L 1259 2394
L 2053 2394
Q 2494 2394 2734 2622
Q 2975 2850 2975 3272
Q 2975 3691 2734 3919
Q 2494 4147 2053 4147
L 1259 4147
z
M 628 4666
L 2053 4666
Q 2838 4666 3239 4311
Q 3641 3956 3641 3272
Q 3641 2581 3239 2228
Q 2838 1875 2053 1875
L 1259 1875
L 1259 0
L 628 0
L 628 4666
z
" transform="scale(0.015625)"/>
      <path id="DejaVuSans-4b" d="M 3513 2113
L 3513 0
L 2938 0
L 2938 2094
Q 2938 2591 2744 2837
Q 2550 3084 2163 3084
Q 1697 3084 1428 2787
Q 1159 2491 1159 1978
L 1159 0
L 581 0
L 581 4863
L 1159 4863
L 1159 2956
Q 1366 3272 1645 3428
Q 1925 3584 2291 3584
Q 2894 3584 3203 3211
Q 3513 2838 3513 2113
z
" transform="scale(0.015625)"/>
     </defs>
     <use xlink:href="#DejaVuSans-33"/>
     <use xlink:href="#DejaVuSans-4b" transform="translate(60.296875 0)"/>
     <use xlink:href="#DejaVuSans-44" transform="translate(123.671875 0)"/>
     <use xlink:href="#DejaVuSans-56" transform="translate(184.953125 0)"/>
     <use xlink:href="#DejaVuSans-48" transform="translate(237.046875 0)"/>
     <use xlink:href="#DejaVuSans-3" transform="translate(298.578125 0)"/>
     <use xlink:href="#DejaVuSans-14" transform="translate(330.359375 0)"/>
     <use xlink:href="#DejaVuSans-3" transform="translate(393.984375 0)"/>
     <use xlink:href="#DejaVuSans-49" transform="translate(425.765625 0)"/>
     <use xlink:href="#DejaVuSans-55" transform="translate(460.96875 0)"/>
     <use xlink:href="#DejaVuSans-48" transform="translate(499.875 0)"/>
     <use xlink:href="#DejaVuSans-48" transform="translate(561.40625 0)"/>
     <use xlink:href="#DejaVuSans-5d" transform="translate(622.9375 0)"/>
     <use xlink:href="#DejaVuSans-48" transform="translate(675.421875 0)"/>
    </g>
   </g>
   <g id="text_16">
    <!-- 2026-07-12 -->
    <g style="fill: #5b6573" transform="translate(541.343601 105.790071) scale(0.075 -0.075)">
     <use xlink:href="#DejaVuSans-15"/>
     <use xlink:href="#DejaVuSans-13" transform="translate(63.625 0)"/>
     <use xlink:href="#DejaVuSans-15" transform="translate(127.25 0)"/>
     <use xlink:href="#DejaVuSans-19" transform="translate(190.875 0)"/>
     <use xlink:href="#DejaVuSans-10" transform="translate(254.5 0)"/>
     <use xlink:href="#DejaVuSans-13" transform="translate(290.578125 0)"/>
     <use xlink:href="#DejaVuSans-1a" transform="translate(354.203125 0)"/>
     <use xlink:href="#DejaVuSans-10" transform="translate(417.828125 0)"/>
     <use xlink:href="#DejaVuSans-14" transform="translate(453.90625 0)"/>
     <use xlink:href="#DejaVuSans-15" transform="translate(517.53125 0)"/>
    </g>
   </g>
   <g id="text_17">
    <!-- Gate 5 -->
    <g style="fill: #1f2937" transform="translate(207.50385 176.187615) scale(0.09 -0.09)">
     <defs>
      <path id="DejaVuSans-Bold-18" d="M 678 4666
L 3669 4666
L 3669 3781
L 1638 3781
L 1638 3059
Q 1775 3097 1914 3117
Q 2053 3138 2203 3138
Q 3056 3138 3531 2711
Q 4006 2284 4006 1522
Q 4006 766 3489 337
Q 2972 -91 2053 -91
Q 1656 -91 1267 -14
Q 878 63 494 219
L 494 1166
Q 875 947 1217 837
Q 1559 728 1863 728
Q 2300 728 2551 942
Q 2803 1156 2803 1522
Q 2803 1891 2551 2103
Q 2300 2316 1863 2316
Q 1603 2316 1309 2248
Q 1016 2181 678 2041
L 678 4666
z
" transform="scale(0.015625)"/>
     </defs>
     <use xlink:href="#DejaVuSans-Bold-2a"/>
     <use xlink:href="#DejaVuSans-Bold-44" transform="translate(82.078125 0)"/>
     <use xlink:href="#DejaVuSans-Bold-57" transform="translate(149.5625 0)"/>
     <use xlink:href="#DejaVuSans-Bold-48" transform="translate(197.359375 0)"/>
     <use xlink:href="#DejaVuSans-Bold-3" transform="translate(265.1875 0)"/>
     <use xlink:href="#DejaVuSans-Bold-18" transform="translate(300 0)"/>
    </g>
   </g>
   <g id="text_18">
    <!-- Development generation -->
    <g style="fill: #1f2937" transform="translate(207.50385 187.554453) scale(0.08 -0.08)">
     <defs>
      <path id="DejaVuSans-4a" d="M 2906 1791
Q 2906 2416 2648 2759
Q 2391 3103 1925 3103
Q 1463 3103 1205 2759
Q 947 2416 947 1791
Q 947 1169 1205 825
Q 1463 481 1925 481
Q 2391 481 2648 825
Q 2906 1169 2906 1791
z
M 3481 434
Q 3481 -459 3084 -895
Q 2688 -1331 1869 -1331
Q 1566 -1331 1297 -1286
Q 1028 -1241 775 -1147
L 775 -588
Q 1028 -725 1275 -790
Q 1522 -856 1778 -856
Q 2344 -856 2625 -561
Q 2906 -266 2906 331
L 2906 616
Q 2728 306 2450 153
Q 2172 0 1784 0
Q 1141 0 747 490
Q 353 981 353 1791
Q 353 2603 747 3093
Q 1141 3584 1784 3584
Q 2172 3584 2450 3431
Q 2728 3278 2906 2969
L 2906 3500
L 3481 3500
L 3481 434
z
" transform="scale(0.015625)"/>
     </defs>
     <use xlink:href="#DejaVuSans-27"/>
     <use xlink:href="#DejaVuSans-48" transform="translate(77 0)"/>
     <use xlink:href="#DejaVuSans-59" transform="translate(138.53125 0)"/>
     <use xlink:href="#DejaVuSans-48" transform="translate(197.71875 0)"/>
     <use xlink:href="#DejaVuSans-4f" transform="translate(259.25 0)"/>
     <use xlink:href="#DejaVuSans-52" transform="translate(287.03125 0)"/>
     <use xlink:href="#DejaVuSans-53" transform="translate(348.21875 0)"/>
     <use xlink:href="#DejaVuSans-50" transform="translate(411.703125 0)"/>
     <use xlink:href="#DejaVuSans-48" transform="translate(509.109375 0)"/>
     <use xlink:href="#DejaVuSans-51" transform="translate(570.640625 0)"/>
     <use xlink:href="#DejaVuSans-57" transform="translate(634.015625 0)"/>
     <use xlink:href="#DejaVuSans-3" transform="translate(673.21875 0)"/>
     <use xlink:href="#DejaVuSans-4a" transform="translate(705 0)"/>
     <use xlink:href="#DejaVuSans-48" transform="translate(768.484375 0)"/>
     <use xlink:href="#DejaVuSans-51" transform="translate(830.015625 0)"/>
     <use xlink:href="#DejaVuSans-48" transform="translate(893.390625 0)"/>
     <use xlink:href="#DejaVuSans-55" transform="translate(954.921875 0)"/>
     <use xlink:href="#DejaVuSans-44" transform="translate(996.03125 0)"/>
     <use xlink:href="#DejaVuSans-57" transform="translate(1057.3125 0)"/>
     <use xlink:href="#DejaVuSans-4c" transform="translate(1096.515625 0)"/>
     <use xlink:href="#DejaVuSans-52" transform="translate(1124.296875 0)"/>
     <use xlink:href="#DejaVuSans-51" transform="translate(1185.484375 0)"/>
    </g>
   </g>
   <g id="text_19">
    <!-- in progress -->
    <g style="fill: #5b6573" transform="translate(207.50385 201.669908) scale(0.075 -0.075)">
     <use xlink:href="#DejaVuSans-4c"/>
     <use xlink:href="#DejaVuSans-51" transform="translate(27.78125 0)"/>
     <use xlink:href="#DejaVuSans-3" transform="translate(91.15625 0)"/>
     <use xlink:href="#DejaVuSans-53" transform="translate(122.9375 0)"/>
     <use xlink:href="#DejaVuSans-55" transform="translate(186.421875 0)"/>
     <use xlink:href="#DejaVuSans-52" transform="translate(225.328125 0)"/>
     <use xlink:href="#DejaVuSans-4a" transform="translate(286.515625 0)"/>
     <use xlink:href="#DejaVuSans-55" transform="translate(350 0)"/>
     <use xlink:href="#DejaVuSans-48" transform="translate(388.90625 0)"/>
     <use xlink:href="#DejaVuSans-56" transform="translate(450.4375 0)"/>
     <use xlink:href="#DejaVuSans-56" transform="translate(502.53125 0)"/>
    </g>
   </g>
   <g id="text_20">
    <!-- Gate 6 -->
    <g style="fill: #1f2937" transform="translate(348.743745 176.187615) scale(0.09 -0.09)">
     <defs>
      <path id="DejaVuSans-Bold-19" d="M 2316 2303
Q 2000 2303 1842 2098
Q 1684 1894 1684 1484
Q 1684 1075 1842 870
Q 2000 666 2316 666
Q 2634 666 2792 870
Q 2950 1075 2950 1484
Q 2950 1894 2792 2098
Q 2634 2303 2316 2303
z
M 3803 4544
L 3803 3681
Q 3506 3822 3243 3889
Q 2981 3956 2731 3956
Q 2194 3956 1894 3657
Q 1594 3359 1544 2772
Q 1750 2925 1990 3001
Q 2231 3078 2516 3078
Q 3231 3078 3670 2659
Q 4109 2241 4109 1563
Q 4109 813 3618 361
Q 3128 -91 2303 -91
Q 1394 -91 895 523
Q 397 1138 397 2266
Q 397 3422 980 4083
Q 1563 4744 2578 4744
Q 2900 4744 3203 4694
Q 3506 4644 3803 4544
z
" transform="scale(0.015625)"/>
     </defs>
     <use xlink:href="#DejaVuSans-Bold-2a"/>
     <use xlink:href="#DejaVuSans-Bold-44" transform="translate(82.078125 0)"/>
     <use xlink:href="#DejaVuSans-Bold-57" transform="translate(149.5625 0)"/>
     <use xlink:href="#DejaVuSans-Bold-48" transform="translate(197.359375 0)"/>
     <use xlink:href="#DejaVuSans-Bold-3" transform="translate(265.1875 0)"/>
     <use xlink:href="#DejaVuSans-Bold-19" transform="translate(300 0)"/>
    </g>
   </g>
   <g id="text_21">
    <!-- Mission experiment -->
    <g style="fill: #1f2937" transform="translate(348.743745 187.554453) scale(0.08 -0.08)">
     <defs>
      <path id="DejaVuSans-30" d="M 628 4666
L 1569 4666
L 2759 1491
L 3956 4666
L 4897 4666
L 4897 0
L 4281 0
L 4281 4097
L 3078 897
L 2444 897
L 1241 4097
L 1241 0
L 628 0
L 628 4666
z
" transform="scale(0.015625)"/>
      <path id="DejaVuSans-5b" d="M 3513 3500
L 2247 1797
L 3578 0
L 2900 0
L 1881 1375
L 863 0
L 184 0
L 1544 1831
L 300 3500
L 978 3500
L 1906 2253
L 2834 3500
L 3513 3500
z
" transform="scale(0.015625)"/>
     </defs>
     <use xlink:href="#DejaVuSans-30"/>
     <use xlink:href="#DejaVuSans-4c" transform="translate(86.28125 0)"/>
     <use xlink:href="#DejaVuSans-56" transform="translate(114.0625 0)"/>
     <use xlink:href="#DejaVuSans-56" transform="translate(166.15625 0)"/>
     <use xlink:href="#DejaVuSans-4c" transform="translate(218.25 0)"/>
     <use xlink:href="#DejaVuSans-52" transform="translate(246.03125 0)"/>
     <use xlink:href="#DejaVuSans-51" transform="translate(307.21875 0)"/>
     <use xlink:href="#DejaVuSans-3" transform="translate(370.59375 0)"/>
     <use xlink:href="#DejaVuSans-48" transform="translate(402.375 0)"/>
     <use xlink:href="#DejaVuSans-5b" transform="translate(462.15625 0)"/>
     <use xlink:href="#DejaVuSans-53" transform="translate(521.34375 0)"/>
     <use xlink:href="#DejaVuSans-48" transform="translate(584.828125 0)"/>
     <use xlink:href="#DejaVuSans-55" transform="translate(646.359375 0)"/>
     <use xlink:href="#DejaVuSans-4c" transform="translate(687.46875 0)"/>
     <use xlink:href="#DejaVuSans-50" transform="translate(715.25 0)"/>
     <use xlink:href="#DejaVuSans-48" transform="translate(812.65625 0)"/>
     <use xlink:href="#DejaVuSans-51" transform="translate(874.1875 0)"/>
     <use xlink:href="#DejaVuSans-57" transform="translate(937.5625 0)"/>
    </g>
   </g>
   <g id="text_22">
    <!-- not open -->
    <g style="fill: #5b6573" transform="translate(348.743745 201.669908) scale(0.075 -0.075)">
     <use xlink:href="#DejaVuSans-51"/>
     <use xlink:href="#DejaVuSans-52" transform="translate(63.375 0)"/>
     <use xlink:href="#DejaVuSans-57" transform="translate(124.5625 0)"/>
     <use xlink:href="#DejaVuSans-3" transform="translate(163.765625 0)"/>
     <use xlink:href="#DejaVuSans-52" transform="translate(195.546875 0)"/>
     <use xlink:href="#DejaVuSans-53" transform="translate(256.734375 0)"/>
     <use xlink:href="#DejaVuSans-48" transform="translate(320.21875 0)"/>
     <use xlink:href="#DejaVuSans-51" transform="translate(381.75 0)"/>
    </g>
   </g>
   <g id="text_23">
    <!-- Gate 7 -->
    <g style="fill: #1f2937" transform="translate(489.983639 176.187615) scale(0.09 -0.09)">
     <defs>
      <path id="DejaVuSans-Bold-1a" d="M 428 4666
L 3944 4666
L 3944 3988
L 2125 0
L 953 0
L 2675 3781
L 428 3781
L 428 4666
z
" transform="scale(0.015625)"/>
     </defs>
     <use xlink:href="#DejaVuSans-Bold-2a"/>
     <use xlink:href="#DejaVuSans-Bold-44" transform="translate(82.078125 0)"/>
     <use xlink:href="#DejaVuSans-Bold-57" transform="translate(149.5625 0)"/>
     <use xlink:href="#DejaVuSans-Bold-48" transform="translate(197.359375 0)"/>
     <use xlink:href="#DejaVuSans-Bold-3" transform="translate(265.1875 0)"/>
     <use xlink:href="#DejaVuSans-Bold-1a" transform="translate(300 0)"/>
    </g>
   </g>
   <g id="text_24">
    <!-- Claims and release -->
    <g style="fill: #1f2937" transform="translate(489.983639 187.554453) scale(0.08 -0.08)">
     <defs>
      <path id="DejaVuSans-26" d="M 4122 4306
L 4122 3641
Q 3803 3938 3442 4084
Q 3081 4231 2675 4231
Q 1875 4231 1450 3742
Q 1025 3253 1025 2328
Q 1025 1406 1450 917
Q 1875 428 2675 428
Q 3081 428 3442 575
Q 3803 722 4122 1019
L 4122 359
Q 3791 134 3420 21
Q 3050 -91 2638 -91
Q 1578 -91 968 557
Q 359 1206 359 2328
Q 359 3453 968 4101
Q 1578 4750 2638 4750
Q 3056 4750 3426 4639
Q 3797 4528 4122 4306
z
" transform="scale(0.015625)"/>
     </defs>
     <use xlink:href="#DejaVuSans-26"/>
     <use xlink:href="#DejaVuSans-4f" transform="translate(69.828125 0)"/>
     <use xlink:href="#DejaVuSans-44" transform="translate(97.609375 0)"/>
     <use xlink:href="#DejaVuSans-4c" transform="translate(158.890625 0)"/>
     <use xlink:href="#DejaVuSans-50" transform="translate(186.671875 0)"/>
     <use xlink:href="#DejaVuSans-56" transform="translate(284.078125 0)"/>
     <use xlink:href="#DejaVuSans-3" transform="translate(336.171875 0)"/>
     <use xlink:href="#DejaVuSans-44" transform="translate(367.953125 0)"/>
     <use xlink:href="#DejaVuSans-51" transform="translate(429.234375 0)"/>
     <use xlink:href="#DejaVuSans-47" transform="translate(492.609375 0)"/>
     <use xlink:href="#DejaVuSans-3" transform="translate(556.09375 0)"/>
     <use xlink:href="#DejaVuSans-55" transform="translate(587.875 0)"/>
     <use xlink:href="#DejaVuSans-48" transform="translate(626.78125 0)"/>
     <use xlink:href="#DejaVuSans-4f" transform="translate(688.3125 0)"/>
     <use xlink:href="#DejaVuSans-48" transform="translate(716.09375 0)"/>
     <use xlink:href="#DejaVuSans-44" transform="translate(777.625 0)"/>
     <use xlink:href="#DejaVuSans-56" transform="translate(838.90625 0)"/>
     <use xlink:href="#DejaVuSans-48" transform="translate(891 0)"/>
    </g>
   </g>
   <g id="text_25">
    <!-- not open -->
    <g style="fill: #5b6573" transform="translate(489.983639 201.669908) scale(0.075 -0.075)">
     <use xlink:href="#DejaVuSans-51"/>
     <use xlink:href="#DejaVuSans-52" transform="translate(63.375 0)"/>
     <use xlink:href="#DejaVuSans-57" transform="translate(124.5625 0)"/>
     <use xlink:href="#DejaVuSans-3" transform="translate(163.765625 0)"/>
     <use xlink:href="#DejaVuSans-52" transform="translate(195.546875 0)"/>
     <use xlink:href="#DejaVuSans-53" transform="translate(256.734375 0)"/>
     <use xlink:href="#DejaVuSans-48" transform="translate(320.21875 0)"/>
     <use xlink:href="#DejaVuSans-51" transform="translate(381.75 0)"/>
    </g>
   </g>
   <g id="text_26">
    <!-- Diagram only: dates and decision states do not imply scientific success. -->
    <g style="fill: #5b6573" transform="translate(7.2 264.717683) scale(0.08 -0.08)">
     <defs>
      <path id="DejaVuSans-1d" d="M 750 794
L 1409 794
L 1409 0
L 750 0
L 750 794
z
M 750 3309
L 1409 3309
L 1409 2516
L 750 2516
L 750 3309
z
" transform="scale(0.015625)"/>
      <path id="DejaVuSans-11" d="M 684 794
L 1344 794
L 1344 0
L 684 0
L 684 794
z
" transform="scale(0.015625)"/>
     </defs>
     <use xlink:href="#DejaVuSans-27"/>
     <use xlink:href="#DejaVuSans-4c" transform="translate(77 0)"/>
     <use xlink:href="#DejaVuSans-44" transform="translate(104.78125 0)"/>
     <use xlink:href="#DejaVuSans-4a" transform="translate(166.0625 0)"/>
     <use xlink:href="#DejaVuSans-55" transform="translate(229.546875 0)"/>
     <use xlink:href="#DejaVuSans-44" transform="translate(270.65625 0)"/>
     <use xlink:href="#DejaVuSans-50" transform="translate(331.9375 0)"/>
     <use xlink:href="#DejaVuSans-3" transform="translate(429.34375 0)"/>
     <use xlink:href="#DejaVuSans-52" transform="translate(461.125 0)"/>
     <use xlink:href="#DejaVuSans-51" transform="translate(522.3125 0)"/>
     <use xlink:href="#DejaVuSans-4f" transform="translate(585.6875 0)"/>
     <use xlink:href="#DejaVuSans-5c" transform="translate(613.46875 0)"/>
     <use xlink:href="#DejaVuSans-1d" transform="translate(665.375 0)"/>
     <use xlink:href="#DejaVuSans-3" transform="translate(699.0625 0)"/>
     <use xlink:href="#DejaVuSans-47" transform="translate(730.84375 0)"/>
     <use xlink:href="#DejaVuSans-44" transform="translate(794.328125 0)"/>
     <use xlink:href="#DejaVuSans-57" transform="translate(855.609375 0)"/>
     <use xlink:href="#DejaVuSans-48" transform="translate(894.8125 0)"/>
     <use xlink:href="#DejaVuSans-56" transform="translate(956.34375 0)"/>
     <use xlink:href="#DejaVuSans-3" transform="translate(1008.4375 0)"/>
     <use xlink:href="#DejaVuSans-44" transform="translate(1040.21875 0)"/>
     <use xlink:href="#DejaVuSans-51" transform="translate(1101.5 0)"/>
     <use xlink:href="#DejaVuSans-47" transform="translate(1164.875 0)"/>
     <use xlink:href="#DejaVuSans-3" transform="translate(1228.359375 0)"/>
     <use xlink:href="#DejaVuSans-47" transform="translate(1260.140625 0)"/>
     <use xlink:href="#DejaVuSans-48" transform="translate(1323.625 0)"/>
     <use xlink:href="#DejaVuSans-46" transform="translate(1385.15625 0)"/>
     <use xlink:href="#DejaVuSans-4c" transform="translate(1440.140625 0)"/>
     <use xlink:href="#DejaVuSans-56" transform="translate(1467.921875 0)"/>
     <use xlink:href="#DejaVuSans-4c" transform="translate(1520.015625 0)"/>
     <use xlink:href="#DejaVuSans-52" transform="translate(1547.796875 0)"/>
     <use xlink:href="#DejaVuSans-51" transform="translate(1608.984375 0)"/>
     <use xlink:href="#DejaVuSans-3" transform="translate(1672.359375 0)"/>
     <use xlink:href="#DejaVuSans-56" transform="translate(1704.140625 0)"/>
     <use xlink:href="#DejaVuSans-57" transform="translate(1756.234375 0)"/>
     <use xlink:href="#DejaVuSans-44" transform="translate(1795.4375 0)"/>
     <use xlink:href="#DejaVuSans-57" transform="translate(1856.71875 0)"/>
     <use xlink:href="#DejaVuSans-48" transform="translate(1895.921875 0)"/>
     <use xlink:href="#DejaVuSans-56" transform="translate(1957.453125 0)"/>
     <use xlink:href="#DejaVuSans-3" transform="translate(2009.546875 0)"/>
     <use xlink:href="#DejaVuSans-47" transform="translate(2041.328125 0)"/>
     <use xlink:href="#DejaVuSans-52" transform="translate(2104.8125 0)"/>
     <use xlink:href="#DejaVuSans-3" transform="translate(2166 0)"/>
     <use xlink:href="#DejaVuSans-51" transform="translate(2197.78125 0)"/>
     <use xlink:href="#DejaVuSans-52" transform="translate(2261.15625 0)"/>
     <use xlink:href="#DejaVuSans-57" transform="translate(2322.34375 0)"/>
     <use xlink:href="#DejaVuSans-3" transform="translate(2361.546875 0)"/>
     <use xlink:href="#DejaVuSans-4c" transform="translate(2393.328125 0)"/>
     <use xlink:href="#DejaVuSans-50" transform="translate(2421.109375 0)"/>
     <use xlink:href="#DejaVuSans-53" transform="translate(2518.515625 0)"/>
     <use xlink:href="#DejaVuSans-4f" transform="translate(2582 0)"/>
     <use xlink:href="#DejaVuSans-5c" transform="translate(2609.78125 0)"/>
     <use xlink:href="#DejaVuSans-3" transform="translate(2668.96875 0)"/>
     <use xlink:href="#DejaVuSans-56" transform="translate(2700.75 0)"/>
     <use xlink:href="#DejaVuSans-46" transform="translate(2752.84375 0)"/>
     <use xlink:href="#DejaVuSans-4c" transform="translate(2807.828125 0)"/>
     <use xlink:href="#DejaVuSans-48" transform="translate(2835.609375 0)"/>
     <use xlink:href="#DejaVuSans-51" transform="translate(2897.140625 0)"/>
     <use xlink:href="#DejaVuSans-57" transform="translate(2960.515625 0)"/>
     <use xlink:href="#DejaVuSans-4c" transform="translate(2999.71875 0)"/>
     <use xlink:href="#DejaVuSans-13af" transform="translate(3027.5 0)"/>
     <use xlink:href="#DejaVuSans-46" transform="translate(3090.484375 0)"/>
     <use xlink:href="#DejaVuSans-3" transform="translate(3145.46875 0)"/>
     <use xlink:href="#DejaVuSans-56" transform="translate(3177.25 0)"/>
     <use xlink:href="#DejaVuSans-58" transform="translate(3229.34375 0)"/>
     <use xlink:href="#DejaVuSans-46" transform="translate(3292.71875 0)"/>
     <use xlink:href="#DejaVuSans-46" transform="translate(3347.703125 0)"/>
     <use xlink:href="#DejaVuSans-48" transform="translate(3402.6875 0)"/>
     <use xlink:href="#DejaVuSans-56" transform="translate(3464.21875 0)"/>
     <use xlink:href="#DejaVuSans-56" transform="translate(3516.3125 0)"/>
     <use xlink:href="#DejaVuSans-11" transform="translate(3568.40625 0)"/>
    </g>
   </g>
  </g>
 </g>
 <defs>
  <clipPath id="pbc033fb6ef">
   <rect x="7.2" y="7.2" width="641.99952" height="281.99952"/>
  </clipPath>
 </defs>
</svg>
