<?xml version="1.0" encoding="utf-8" standalone="no"?>
<!DOCTYPE svg PUBLIC "-//W3C//DTD SVG 1.1//EN"
  "http://www.w3.org/Graphics/SVG/1.1/DTD/svg11.dtd">
<svg xmlns:xlink="http://www.w3.org/1999/xlink" width="814.79952pt" height="462.014189pt" viewBox="0 0 814.79952 462.014189" xmlns="http://www.w3.org/2000/svg" version="1.1">
 <metadata>
  <rdf:RDF xmlns:dc="http://purl.org/dc/elements/1.1/" xmlns:cc="http://creativecommons.org/ns#" xmlns:rdf="http://www.w3.org/1999/02/22-rdf-syntax-ns#">
   <cc:Work>
    <dc:type rdf:resource="http://purl.org/dc/dcmitype/StillImage"/>
    <dc:format>image/svg+xml</dc:format>
    <dc:creator>
     <cc:Agent>
      <dc:title>QMLforArtemisIV RFIG-030 generator</dc:title>
     </cc:Agent>
    </dc:creator>
   </cc:Work>
  </rdf:RDF>
 </metadata>
 <defs>
  <style type="text/css">*{stroke-linejoin: round; stroke-linecap: butt}</style>
 </defs>
 <g id="figure_1">
  <g id="patch_1">
   <path d="M 0 462.014189
L 814.79952 462.014189
L 814.79952 -0
L 0 -0
z
" style="fill: #ffffff"/>
  </g>
  <g id="axes_1">
   <g id="patch_2">
    <path d="M 119.377813 376.142408
L 807.59952 376.142408
L 807.59952 41.837812
L 119.377813 41.837812
z
" style="fill: #ffffff"/>
   </g>
   <g id="matplotlib.axis_1">
    <g id="xtick_1">
     <g id="line2d_1">
      <path d="M 119.377813 376.142408
L 119.377813 41.837812
" clip-path="url(#p1bd9fe5df1)" style="fill: none; stroke: #d6dce2; stroke-width: 0.7; stroke-linecap: square"/>
     </g>
     <g id="line2d_2">
      <defs>
       <path id="m9c2c88eed3" d="M 0 0
L 0 3.5
" style="stroke: #000000; stroke-width: 0.8"/>
      </defs>
      <g>
       <use xlink:href="#m9c2c88eed3" x="119.377813" y="376.142408" style="stroke: #000000; stroke-width: 0.8"/>
      </g>
     </g>
     <g id="text_1">
      <!-- 0 -->
      <g transform="translate(116.514688 389.980298) scale(0.09 -0.09)">
       <defs>
        <path id="DejaVuSans-13" d="M 2034 4250
Q 1547 4250 1301 3770
Q 1056 3291 1056 2328
Q 1056 1369 1301 889
Q 1547 409 2034 409
Q 2525 409 2770 889
Q 3016 1369 3016 2328
Q 3016 3291 2770 3770
Q 2525 4250 2034 4250
z
M 2034 4750
Q 2819 4750 3233 4129
Q 3647 3509 3647 2328
Q 3647 1150 3233 529
Q 2819 -91 2034 -91
Q 1250 -91 836 529
Q 422 1150 422 2328
Q 422 3509 836 4129
Q 1250 4750 2034 4750
z
" transform="scale(0.015625)"/>
       </defs>
       <use xlink:href="#DejaVuSans-13"/>
      </g>
     </g>
    </g>
    <g id="xtick_2">
     <g id="line2d_3">
      <path d="M 239.068544 376.142408
L 239.068544 41.837812
" clip-path="url(#p1bd9fe5df1)" style="fill: none; stroke: #d6dce2; stroke-width: 0.7; stroke-linecap: square"/>
     </g>
     <g id="line2d_4">
      <g>
       <use xlink:href="#m9c2c88eed3" x="239.068544" y="376.142408" style="stroke: #000000; stroke-width: 0.8"/>
      </g>
     </g>
     <g id="text_2">
      <!-- 20 -->
      <g transform="translate(233.342294 389.980298) scale(0.09 -0.09)">
       <defs>
        <path id="DejaVuSans-15" d="M 1228 531
L 3431 531
L 3431 0
L 469 0
L 469 531
Q 828 903 1448 1529
Q 2069 2156 2228 2338
Q 2531 2678 2651 2914
Q 2772 3150 2772 3378
Q 2772 3750 2511 3984
Q 2250 4219 1831 4219
Q 1534 4219 1204 4116
Q 875 4013 500 3803
L 500 4441
Q 881 4594 1212 4672
Q 1544 4750 1819 4750
Q 2544 4750 2975 4387
Q 3406 4025 3406 3419
Q 3406 3131 3298 2873
Q 3191 2616 2906 2266
Q 2828 2175 2409 1742
Q 1991 1309 1228 531
z
" transform="scale(0.015625)"/>
       </defs>
       <use xlink:href="#DejaVuSans-15"/>
       <use xlink:href="#DejaVuSans-13" transform="translate(63.625 0)"/>
      </g>
     </g>
    </g>
    <g id="xtick_3">
     <g id="line2d_5">
      <path d="M 358.759276 376.142408
L 358.759276 41.837812
" clip-path="url(#p1bd9fe5df1)" style="fill: none; stroke: #d6dce2; stroke-width: 0.7; stroke-linecap: square"/>
     </g>
     <g id="line2d_6">
      <g>
       <use xlink:href="#m9c2c88eed3" x="358.759276" y="376.142408" style="stroke: #000000; stroke-width: 0.8"/>
      </g>
     </g>
     <g id="text_3">
      <!-- 40 -->
      <g transform="translate(353.033026 389.980298) scale(0.09 -0.09)">
       <defs>
        <path id="DejaVuSans-17" d="M 2419 4116
L 825 1625
L 2419 1625
L 2419 4116
z
M 2253 4666
L 3047 4666
L 3047 1625
L 3713 1625
L 3713 1100
L 3047 1100
L 3047 0
L 2419 0
L 2419 1100
L 313 1100
L 313 1709
L 2253 4666
z
" transform="scale(0.015625)"/>
       </defs>
       <use xlink:href="#DejaVuSans-17"/>
       <use xlink:href="#DejaVuSans-13" transform="translate(63.625 0)"/>
      </g>
     </g>
    </g>
    <g id="xtick_4">
     <g id="line2d_7">
      <path d="M 478.450008 376.142408
L 478.450008 41.837812
" clip-path="url(#p1bd9fe5df1)" style="fill: none; stroke: #d6dce2; stroke-width: 0.7; stroke-linecap: square"/>
     </g>
     <g id="line2d_8">
      <g>
       <use xlink:href="#m9c2c88eed3" x="478.450008" y="376.142408" style="stroke: #000000; stroke-width: 0.8"/>
      </g>
     </g>
     <g id="text_4">
      <!-- 60 -->
      <g transform="translate(472.723758 389.980298) scale(0.09 -0.09)">
       <defs>
        <path id="DejaVuSans-19" d="M 2113 2584
Q 1688 2584 1439 2293
Q 1191 2003 1191 1497
Q 1191 994 1439 701
Q 1688 409 2113 409
Q 2538 409 2786 701
Q 3034 994 3034 1497
Q 3034 2003 2786 2293
Q 2538 2584 2113 2584
z
M 3366 4563
L 3366 3988
Q 3128 4100 2886 4159
Q 2644 4219 2406 4219
Q 1781 4219 1451 3797
Q 1122 3375 1075 2522
Q 1259 2794 1537 2939
Q 1816 3084 2150 3084
Q 2853 3084 3261 2657
Q 3669 2231 3669 1497
Q 3669 778 3244 343
Q 2819 -91 2113 -91
Q 1303 -91 875 529
Q 447 1150 447 2328
Q 447 3434 972 4092
Q 1497 4750 2381 4750
Q 2619 4750 2861 4703
Q 3103 4656 3366 4563
z
" transform="scale(0.015625)"/>
       </defs>
       <use xlink:href="#DejaVuSans-19"/>
       <use xlink:href="#DejaVuSans-13" transform="translate(63.625 0)"/>
      </g>
     </g>
    </g>
    <g id="xtick_5">
     <g id="line2d_9">
      <path d="M 598.140739 376.142408
L 598.140739 41.837812
" clip-path="url(#p1bd9fe5df1)" style="fill: none; stroke: #d6dce2; stroke-width: 0.7; stroke-linecap: square"/>
     </g>
     <g id="line2d_10">
      <g>
       <use xlink:href="#m9c2c88eed3" x="598.140739" y="376.142408" style="stroke: #000000; stroke-width: 0.8"/>
      </g>
     </g>
     <g id="text_5">
      <!-- 80 -->
      <g transform="translate(592.414489 389.980298) scale(0.09 -0.09)">
       <defs>
        <path id="DejaVuSans-1b" d="M 2034 2216
Q 1584 2216 1326 1975
Q 1069 1734 1069 1313
Q 1069 891 1326 650
Q 1584 409 2034 409
Q 2484 409 2743 651
Q 3003 894 3003 1313
Q 3003 1734 2745 1975
Q 2488 2216 2034 2216
z
M 1403 2484
Q 997 2584 770 2862
Q 544 3141 544 3541
Q 544 4100 942 4425
Q 1341 4750 2034 4750
Q 2731 4750 3128 4425
Q 3525 4100 3525 3541
Q 3525 3141 3298 2862
Q 3072 2584 2669 2484
Q 3125 2378 3379 2068
Q 3634 1759 3634 1313
Q 3634 634 3220 271
Q 2806 -91 2034 -91
Q 1263 -91 848 271
Q 434 634 434 1313
Q 434 1759 690 2068
Q 947 2378 1403 2484
z
M 1172 3481
Q 1172 3119 1398 2916
Q 1625 2713 2034 2713
Q 2441 2713 2670 2916
Q 2900 3119 2900 3481
Q 2900 3844 2670 4047
Q 2441 4250 2034 4250
Q 1625 4250 1398 4047
Q 1172 3844 1172 3481
z
" transform="scale(0.015625)"/>
       </defs>
       <use xlink:href="#DejaVuSans-1b"/>
       <use xlink:href="#DejaVuSans-13" transform="translate(63.625 0)"/>
      </g>
     </g>
    </g>
    <g id="xtick_6">
     <g id="line2d_11">
      <path d="M 717.831471 376.142408
L 717.831471 41.837812
" clip-path="url(#p1bd9fe5df1)" style="fill: none; stroke: #d6dce2; stroke-width: 0.7; stroke-linecap: square"/>
     </g>
     <g id="line2d_12">
      <g>
       <use xlink:href="#m9c2c88eed3" x="717.831471" y="376.142408" style="stroke: #000000; stroke-width: 0.8"/>
      </g>
     </g>
     <g id="text_6">
      <!-- 100 -->
      <g transform="translate(709.242096 389.980298) scale(0.09 -0.09)">
       <defs>
        <path id="DejaVuSans-14" d="M 794 531
L 1825 531
L 1825 4091
L 703 3866
L 703 4441
L 1819 4666
L 2450 4666
L 2450 531
L 3481 531
L 3481 0
L 794 0
L 794 531
z
" transform="scale(0.015625)"/>
       </defs>
       <use xlink:href="#DejaVuSans-14"/>
       <use xlink:href="#DejaVuSans-13" transform="translate(63.625 0)"/>
       <use xlink:href="#DejaVuSans-13" transform="translate(127.25 0)"/>
      </g>
     </g>
    </g>
    <g id="text_7">
     <!-- Fraction of accepted resource boundary (%) -->
     <g transform="translate(364.624369 402.981002) scale(0.09 -0.09)">
      <defs>
       <path id="DejaVuSans-29" d="M 628 4666
L 3309 4666
L 3309 4134
L 1259 4134
L 1259 2759
L 3109 2759
L 3109 2228
L 1259 2228
L 1259 0
L 628 0
L 628 4666
z
" transform="scale(0.015625)"/>
       <path id="DejaVuSans-55" d="M 2631 2963
Q 2534 3019 2420 3045
Q 2306 3072 2169 3072
Q 1681 3072 1420 2755
Q 1159 2438 1159 1844
L 1159 0
L 581 0
L 581 3500
L 1159 3500
L 1159 2956
Q 1341 3275 1631 3429
Q 1922 3584 2338 3584
Q 2397 3584 2469 3576
Q 2541 3569 2628 3553
L 2631 2963
z
" transform="scale(0.015625)"/>
       <path id="DejaVuSans-44" d="M 2194 1759
Q 1497 1759 1228 1600
Q 959 1441 959 1056
Q 959 750 1161 570
Q 1363 391 1709 391
Q 2188 391 2477 730
Q 2766 1069 2766 1631
L 2766 1759
L 2194 1759
z
M 3341 1997
L 3341 0
L 2766 0
L 2766 531
Q 2569 213 2275 61
Q 1981 -91 1556 -91
Q 1019 -91 701 211
Q 384 513 384 1019
Q 384 1609 779 1909
Q 1175 2209 1959 2209
L 2766 2209
L 2766 2266
Q 2766 2663 2505 2880
Q 2244 3097 1772 3097
Q 1472 3097 1187 3025
Q 903 2953 641 2809
L 641 3341
Q 956 3463 1253 3523
Q 1550 3584 1831 3584
Q 2591 3584 2966 3190
Q 3341 2797 3341 1997
z
" transform="scale(0.015625)"/>
       <path id="DejaVuSans-46" d="M 3122 3366
L 3122 2828
Q 2878 2963 2633 3030
Q 2388 3097 2138 3097
Q 1578 3097 1268 2742
Q 959 2388 959 1747
Q 959 1106 1268 751
Q 1578 397 2138 397
Q 2388 397 2633 464
Q 2878 531 3122 666
L 3122 134
Q 2881 22 2623 -34
Q 2366 -91 2075 -91
Q 1284 -91 818 406
Q 353 903 353 1747
Q 353 2603 823 3093
Q 1294 3584 2113 3584
Q 2378 3584 2631 3529
Q 2884 3475 3122 3366
z
" transform="scale(0.015625)"/>
       <path id="DejaVuSans-57" d="M 1172 4494
L 1172 3500
L 2356 3500
L 2356 3053
L 1172 3053
L 1172 1153
Q 1172 725 1289 603
Q 1406 481 1766 481
L 2356 481
L 2356 0
L 1766 0
Q 1100 0 847 248
Q 594 497 594 1153
L 594 3053
L 172 3053
L 172 3500
L 594 3500
L 594 4494
L 1172 4494
z
" transform="scale(0.015625)"/>
       <path id="DejaVuSans-4c" d="M 603 3500
L 1178 3500
L 1178 0
L 603 0
L 603 3500
z
M 603 4863
L 1178 4863
L 1178 4134
L 603 4134
L 603 4863
z
" transform="scale(0.015625)"/>
       <path id="DejaVuSans-52" d="M 1959 3097
Q 1497 3097 1228 2736
Q 959 2375 959 1747
Q 959 1119 1226 758
Q 1494 397 1959 397
Q 2419 397 2687 759
Q 2956 1122 2956 1747
Q 2956 2369 2687 2733
Q 2419 3097 1959 3097
z
M 1959 3584
Q 2709 3584 3137 3096
Q 3566 2609 3566 1747
Q 3566 888 3137 398
Q 2709 -91 1959 -91
Q 1206 -91 779 398
Q 353 888 353 1747
Q 353 2609 779 3096
Q 1206 3584 1959 3584
z
" transform="scale(0.015625)"/>
       <path id="DejaVuSans-51" d="M 3513 2113
L 3513 0
L 2938 0
L 2938 2094
Q 2938 2591 2744 2837
Q 2550 3084 2163 3084
Q 1697 3084 1428 2787
Q 1159 2491 1159 1978
L 1159 0
L 581 0
L 581 3500
L 1159 3500
L 1159 2956
Q 1366 3272 1645 3428
Q 1925 3584 2291 3584
Q 2894 3584 3203 3211
Q 3513 2838 3513 2113
z
" transform="scale(0.015625)"/>
       <path id="DejaVuSans-3" transform="scale(0.015625)"/>
       <path id="DejaVuSans-49" d="M 2375 4863
L 2375 4384
L 1825 4384
Q 1516 4384 1395 4259
Q 1275 4134 1275 3809
L 1275 3500
L 2222 3500
L 2222 3053
L 1275 3053
L 1275 0
L 697 0
L 697 3053
L 147 3053
L 147 3500
L 697 3500
L 697 3744
Q 697 4328 969 4595
Q 1241 4863 1831 4863
L 2375 4863
z
" transform="scale(0.015625)"/>
       <path id="DejaVuSans-48" d="M 3597 1894
L 3597 1613
L 953 1613
Q 991 1019 1311 708
Q 1631 397 2203 397
Q 2534 397 2845 478
Q 3156 559 3463 722
L 3463 178
Q 3153 47 2828 -22
Q 2503 -91 2169 -91
Q 1331 -91 842 396
Q 353 884 353 1716
Q 353 2575 817 3079
Q 1281 3584 2069 3584
Q 2775 3584 3186 3129
Q 3597 2675 3597 1894
z
M 3022 2063
Q 3016 2534 2758 2815
Q 2500 3097 2075 3097
Q 1594 3097 1305 2825
Q 1016 2553 972 2059
L 3022 2063
z
" transform="scale(0.015625)"/>
       <path id="DejaVuSans-53" d="M 1159 525
L 1159 -1331
L 581 -1331
L 581 3500
L 1159 3500
L 1159 2969
Q 1341 3281 1617 3432
Q 1894 3584 2278 3584
Q 2916 3584 3314 3078
Q 3713 2572 3713 1747
Q 3713 922 3314 415
Q 2916 -91 2278 -91
Q 1894 -91 1617 61
Q 1341 213 1159 525
z
M 3116 1747
Q 3116 2381 2855 2742
Q 2594 3103 2138 3103
Q 1681 3103 1420 2742
Q 1159 2381 1159 1747
Q 1159 1113 1420 752
Q 1681 391 2138 391
Q 2594 391 2855 752
Q 3116 1113 3116 1747
z
" transform="scale(0.015625)"/>
       <path id="DejaVuSans-47" d="M 2906 2969
L 2906 4863
L 3481 4863
L 3481 0
L 2906 0
L 2906 525
Q 2725 213 2448 61
Q 2172 -91 1784 -91
Q 1150 -91 751 415
Q 353 922 353 1747
Q 353 2572 751 3078
Q 1150 3584 1784 3584
Q 2172 3584 2448 3432
Q 2725 3281 2906 2969
z
M 947 1747
Q 947 1113 1208 752
Q 1469 391 1925 391
Q 2381 391 2643 752
Q 2906 1113 2906 1747
Q 2906 2381 2643 2742
Q 2381 3103 1925 3103
Q 1469 3103 1208 2742
Q 947 2381 947 1747
z
" transform="scale(0.015625)"/>
       <path id="DejaVuSans-56" d="M 2834 3397
L 2834 2853
Q 2591 2978 2328 3040
Q 2066 3103 1784 3103
Q 1356 3103 1142 2972
Q 928 2841 928 2578
Q 928 2378 1081 2264
Q 1234 2150 1697 2047
L 1894 2003
Q 2506 1872 2764 1633
Q 3022 1394 3022 966
Q 3022 478 2636 193
Q 2250 -91 1575 -91
Q 1294 -91 989 -36
Q 684 19 347 128
L 347 722
Q 666 556 975 473
Q 1284 391 1588 391
Q 1994 391 2212 530
Q 2431 669 2431 922
Q 2431 1156 2273 1281
Q 2116 1406 1581 1522
L 1381 1569
Q 847 1681 609 1914
Q 372 2147 372 2553
Q 372 3047 722 3315
Q 1072 3584 1716 3584
Q 2034 3584 2315 3537
Q 2597 3491 2834 3397
z
" transform="scale(0.015625)"/>
       <path id="DejaVuSans-58" d="M 544 1381
L 544 3500
L 1119 3500
L 1119 1403
Q 1119 906 1312 657
Q 1506 409 1894 409
Q 2359 409 2629 706
Q 2900 1003 2900 1516
L 2900 3500
L 3475 3500
L 3475 0
L 2900 0
L 2900 538
Q 2691 219 2414 64
Q 2138 -91 1772 -91
Q 1169 -91 856 284
Q 544 659 544 1381
z
M 1991 3584
L 1991 3584
z
" transform="scale(0.015625)"/>
       <path id="DejaVuSans-45" d="M 3116 1747
Q 3116 2381 2855 2742
Q 2594 3103 2138 3103
Q 1681 3103 1420 2742
Q 1159 2381 1159 1747
Q 1159 1113 1420 752
Q 1681 391 2138 391
Q 2594 391 2855 752
Q 3116 1113 3116 1747
z
M 1159 2969
Q 1341 3281 1617 3432
Q 1894 3584 2278 3584
Q 2916 3584 3314 3078
Q 3713 2572 3713 1747
Q 3713 922 3314 415
Q 2916 -91 2278 -91
Q 1894 -91 1617 61
Q 1341 213 1159 525
L 1159 0
L 581 0
L 581 4863
L 1159 4863
L 1159 2969
z
" transform="scale(0.015625)"/>
       <path id="DejaVuSans-5c" d="M 2059 -325
Q 1816 -950 1584 -1140
Q 1353 -1331 966 -1331
L 506 -1331
L 506 -850
L 844 -850
Q 1081 -850 1212 -737
Q 1344 -625 1503 -206
L 1606 56
L 191 3500
L 800 3500
L 1894 763
L 2988 3500
L 3597 3500
L 2059 -325
z
" transform="scale(0.015625)"/>
       <path id="DejaVuSans-b" d="M 1984 4856
Q 1566 4138 1362 3434
Q 1159 2731 1159 2009
Q 1159 1288 1364 580
Q 1569 -128 1984 -844
L 1484 -844
Q 1016 -109 783 600
Q 550 1309 550 2009
Q 550 2706 781 3412
Q 1013 4119 1484 4856
L 1984 4856
z
" transform="scale(0.015625)"/>
       <path id="DejaVuSans-8" d="M 4653 2053
Q 4381 2053 4226 1822
Q 4072 1591 4072 1178
Q 4072 772 4226 539
Q 4381 306 4653 306
Q 4919 306 5073 539
Q 5228 772 5228 1178
Q 5228 1588 5073 1820
Q 4919 2053 4653 2053
z
M 4653 2450
Q 5147 2450 5437 2106
Q 5728 1763 5728 1178
Q 5728 594 5436 251
Q 5144 -91 4653 -91
Q 4153 -91 3862 251
Q 3572 594 3572 1178
Q 3572 1766 3864 2108
Q 4156 2450 4653 2450
z
M 1428 4353
Q 1159 4353 1004 4120
Q 850 3888 850 3481
Q 850 3069 1003 2837
Q 1156 2606 1428 2606
Q 1700 2606 1854 2837
Q 2009 3069 2009 3481
Q 2009 3884 1853 4118
Q 1697 4353 1428 4353
z
M 4250 4750
L 4750 4750
L 1831 -91
L 1331 -91
L 4250 4750
z
M 1428 4750
Q 1922 4750 2215 4408
Q 2509 4066 2509 3481
Q 2509 2891 2217 2550
Q 1925 2209 1428 2209
Q 931 2209 642 2551
Q 353 2894 353 3481
Q 353 4063 643 4406
Q 934 4750 1428 4750
z
" transform="scale(0.015625)"/>
       <path id="DejaVuSans-c" d="M 513 4856
L 1013 4856
Q 1481 4119 1714 3412
Q 1947 2706 1947 2009
Q 1947 1309 1714 600
Q 1481 -109 1013 -844
L 513 -844
Q 928 -128 1133 580
Q 1338 1288 1338 2009
Q 1338 2731 1133 3434
Q 928 4138 513 4856
z
" transform="scale(0.015625)"/>
      </defs>
      <use xlink:href="#DejaVuSans-29"/>
      <use xlink:href="#DejaVuSans-55" transform="translate(50.234375 0)"/>
      <use xlink:href="#DejaVuSans-44" transform="translate(91.34375 0)"/>
      <use xlink:href="#DejaVuSans-46" transform="translate(152.625 0)"/>
      <use xlink:href="#DejaVuSans-57" transform="translate(207.609375 0)"/>
      <use xlink:href="#DejaVuSans-4c" transform="translate(246.8125 0)"/>
      <use xlink:href="#DejaVuSans-52" transform="translate(274.59375 0)"/>
      <use xlink:href="#DejaVuSans-51" transform="translate(335.78125 0)"/>
      <use xlink:href="#DejaVuSans-3" transform="translate(399.15625 0)"/>
      <use xlink:href="#DejaVuSans-52" transform="translate(430.9375 0)"/>
      <use xlink:href="#DejaVuSans-49" transform="translate(492.125 0)"/>
      <use xlink:href="#DejaVuSans-3" transform="translate(527.328125 0)"/>
      <use xlink:href="#DejaVuSans-44" transform="translate(559.109375 0)"/>
      <use xlink:href="#DejaVuSans-46" transform="translate(620.390625 0)"/>
      <use xlink:href="#DejaVuSans-46" transform="translate(675.375 0)"/>
      <use xlink:href="#DejaVuSans-48" transform="translate(730.359375 0)"/>
      <use xlink:href="#DejaVuSans-53" transform="translate(791.890625 0)"/>
      <use xlink:href="#DejaVuSans-57" transform="translate(855.375 0)"/>
      <use xlink:href="#DejaVuSans-48" transform="translate(894.578125 0)"/>
      <use xlink:href="#DejaVuSans-47" transform="translate(956.109375 0)"/>
      <use xlink:href="#DejaVuSans-3" transform="translate(1019.59375 0)"/>
      <use xlink:href="#DejaVuSans-55" transform="translate(1051.375 0)"/>
      <use xlink:href="#DejaVuSans-48" transform="translate(1090.28125 0)"/>
      <use xlink:href="#DejaVuSans-56" transform="translate(1151.8125 0)"/>
      <use xlink:href="#DejaVuSans-52" transform="translate(1203.90625 0)"/>
      <use xlink:href="#DejaVuSans-58" transform="translate(1265.09375 0)"/>
      <use xlink:href="#DejaVuSans-55" transform="translate(1328.46875 0)"/>
      <use xlink:href="#DejaVuSans-46" transform="translate(1367.375 0)"/>
      <use xlink:href="#DejaVuSans-48" transform="translate(1422.359375 0)"/>
      <use xlink:href="#DejaVuSans-3" transform="translate(1483.890625 0)"/>
      <use xlink:href="#DejaVuSans-45" transform="translate(1515.671875 0)"/>
      <use xlink:href="#DejaVuSans-52" transform="translate(1579.15625 0)"/>
      <use xlink:href="#DejaVuSans-58" transform="translate(1640.34375 0)"/>
      <use xlink:href="#DejaVuSans-51" transform="translate(1703.71875 0)"/>
      <use xlink:href="#DejaVuSans-47" transform="translate(1767.09375 0)"/>
      <use xlink:href="#DejaVuSans-44" transform="translate(1830.578125 0)"/>
      <use xlink:href="#DejaVuSans-55" transform="translate(1891.859375 0)"/>
      <use xlink:href="#DejaVuSans-5c" transform="translate(1932.96875 0)"/>
      <use xlink:href="#DejaVuSans-3" transform="translate(1992.15625 0)"/>
      <use xlink:href="#DejaVuSans-b" transform="translate(2023.9375 0)"/>
      <use xlink:href="#DejaVuSans-8" transform="translate(2062.953125 0)"/>
      <use xlink:href="#DejaVuSans-c" transform="translate(2157.96875 0)"/>
     </g>
    </g>
   </g>
   <g id="matplotlib.axis_2">
    <g id="ytick_1">
     <g id="line2d_13"/>
     <g id="text_8">
      <!-- CPU core-hours -->
      <g transform="translate(42.174844 79.696189) scale(0.09 -0.09)">
       <defs>
        <path id="DejaVuSans-26" d="M 4122 4306
L 4122 3641
Q 3803 3938 3442 4084
Q 3081 4231 2675 4231
Q 1875 4231 1450 3742
Q 1025 3253 1025 2328
Q 1025 1406 1450 917
Q 1875 428 2675 428
Q 3081 428 3442 575
Q 3803 722 4122 1019
L 4122 359
Q 3791 134 3420 21
Q 3050 -91 2638 -91
Q 1578 -91 968 557
Q 359 1206 359 2328
Q 359 3453 968 4101
Q 1578 4750 2638 4750
Q 3056 4750 3426 4639
Q 3797 4528 4122 4306
z
" transform="scale(0.015625)"/>
        <path id="DejaVuSans-33" d="M 1259 4147
L 1259 2394
L 2053 2394
Q 2494 2394 2734 2622
Q 2975 2850 2975 3272
Q 2975 3691 2734 3919
Q 2494 4147 2053 4147
L 1259 4147
z
M 628 4666
L 2053 4666
Q 2838 4666 3239 4311
Q 3641 3956 3641 3272
Q 3641 2581 3239 2228
Q 2838 1875 2053 1875
L 1259 1875
L 1259 0
L 628 0
L 628 4666
z
" transform="scale(0.015625)"/>
        <path id="DejaVuSans-38" d="M 556 4666
L 1191 4666
L 1191 1831
Q 1191 1081 1462 751
Q 1734 422 2344 422
Q 2950 422 3222 751
Q 3494 1081 3494 1831
L 3494 4666
L 4128 4666
L 4128 1753
Q 4128 841 3676 375
Q 3225 -91 2344 -91
Q 1459 -91 1007 375
Q 556 841 556 1753
L 556 4666
z
" transform="scale(0.015625)"/>
        <path id="DejaVuSans-10" d="M 313 2009
L 1997 2009
L 1997 1497
L 313 1497
L 313 2009
z
" transform="scale(0.015625)"/>
        <path id="DejaVuSans-4b" d="M 3513 2113
L 3513 0
L 2938 0
L 2938 2094
Q 2938 2591 2744 2837
Q 2550 3084 2163 3084
Q 1697 3084 1428 2787
Q 1159 2491 1159 1978
L 1159 0
L 581 0
L 581 4863
L 1159 4863
L 1159 2956
Q 1366 3272 1645 3428
Q 1925 3584 2291 3584
Q 2894 3584 3203 3211
Q 3513 2838 3513 2113
z
" transform="scale(0.015625)"/>
       </defs>
       <use xlink:href="#DejaVuSans-26"/>
       <use xlink:href="#DejaVuSans-33" transform="translate(69.828125 0)"/>
       <use xlink:href="#DejaVuSans-38" transform="translate(130.125 0)"/>
       <use xlink:href="#DejaVuSans-3" transform="translate(203.3125 0)"/>
       <use xlink:href="#DejaVuSans-46" transform="translate(235.09375 0)"/>
       <use xlink:href="#DejaVuSans-52" transform="translate(290.078125 0)"/>
       <use xlink:href="#DejaVuSans-55" transform="translate(351.265625 0)"/>
       <use xlink:href="#DejaVuSans-48" transform="translate(390.171875 0)"/>
       <use xlink:href="#DejaVuSans-10" transform="translate(451.703125 0)"/>
       <use xlink:href="#DejaVuSans-4b" transform="translate(487.78125 0)"/>
       <use xlink:href="#DejaVuSans-52" transform="translate(551.15625 0)"/>
       <use xlink:href="#DejaVuSans-58" transform="translate(612.34375 0)"/>
       <use xlink:href="#DejaVuSans-55" transform="translate(675.71875 0)"/>
       <use xlink:href="#DejaVuSans-56" transform="translate(716.828125 0)"/>
      </g>
     </g>
    </g>
    <g id="ytick_2">
     <g id="line2d_14"/>
     <g id="text_9">
      <!-- Sequential wall time -->
      <g transform="translate(19.493438 146.052798) scale(0.09 -0.09)">
       <defs>
        <path id="DejaVuSans-36" d="M 3425 4513
L 3425 3897
Q 3066 4069 2747 4153
Q 2428 4238 2131 4238
Q 1616 4238 1336 4038
Q 1056 3838 1056 3469
Q 1056 3159 1242 3001
Q 1428 2844 1947 2747
L 2328 2669
Q 3034 2534 3370 2195
Q 3706 1856 3706 1288
Q 3706 609 3251 259
Q 2797 -91 1919 -91
Q 1588 -91 1214 -16
Q 841 59 441 206
L 441 856
Q 825 641 1194 531
Q 1563 422 1919 422
Q 2459 422 2753 634
Q 3047 847 3047 1241
Q 3047 1584 2836 1778
Q 2625 1972 2144 2069
L 1759 2144
Q 1053 2284 737 2584
Q 422 2884 422 3419
Q 422 4038 858 4394
Q 1294 4750 2059 4750
Q 2388 4750 2728 4690
Q 3069 4631 3425 4513
z
" transform="scale(0.015625)"/>
        <path id="DejaVuSans-54" d="M 947 1747
Q 947 1113 1208 752
Q 1469 391 1925 391
Q 2381 391 2643 752
Q 2906 1113 2906 1747
Q 2906 2381 2643 2742
Q 2381 3103 1925 3103
Q 1469 3103 1208 2742
Q 947 2381 947 1747
z
M 2906 525
Q 2725 213 2448 61
Q 2172 -91 1784 -91
Q 1150 -91 751 415
Q 353 922 353 1747
Q 353 2572 751 3078
Q 1150 3584 1784 3584
Q 2172 3584 2448 3432
Q 2725 3281 2906 2969
L 2906 3500
L 3481 3500
L 3481 -1331
L 2906 -1331
L 2906 525
z
" transform="scale(0.015625)"/>
        <path id="DejaVuSans-4f" d="M 603 4863
L 1178 4863
L 1178 0
L 603 0
L 603 4863
z
" transform="scale(0.015625)"/>
        <path id="DejaVuSans-5a" d="M 269 3500
L 844 3500
L 1563 769
L 2278 3500
L 2956 3500
L 3675 769
L 4391 3500
L 4966 3500
L 4050 0
L 3372 0
L 2619 2869
L 1863 0
L 1184 0
L 269 3500
z
" transform="scale(0.015625)"/>
        <path id="DejaVuSans-50" d="M 3328 2828
Q 3544 3216 3844 3400
Q 4144 3584 4550 3584
Q 5097 3584 5394 3201
Q 5691 2819 5691 2113
L 5691 0
L 5113 0
L 5113 2094
Q 5113 2597 4934 2840
Q 4756 3084 4391 3084
Q 3944 3084 3684 2787
Q 3425 2491 3425 1978
L 3425 0
L 2847 0
L 2847 2094
Q 2847 2600 2669 2842
Q 2491 3084 2119 3084
Q 1678 3084 1418 2786
Q 1159 2488 1159 1978
L 1159 0
L 581 0
L 581 3500
L 1159 3500
L 1159 2956
Q 1356 3278 1631 3431
Q 1906 3584 2284 3584
Q 2666 3584 2933 3390
Q 3200 3197 3328 2828
z
" transform="scale(0.015625)"/>
       </defs>
       <use xlink:href="#DejaVuSans-36"/>
       <use xlink:href="#DejaVuSans-48" transform="translate(63.484375 0)"/>
       <use xlink:href="#DejaVuSans-54" transform="translate(125.015625 0)"/>
       <use xlink:href="#DejaVuSans-58" transform="translate(188.5 0)"/>
       <use xlink:href="#DejaVuSans-48" transform="translate(251.875 0)"/>
       <use xlink:href="#DejaVuSans-51" transform="translate(313.40625 0)"/>
       <use xlink:href="#DejaVuSans-57" transform="translate(376.78125 0)"/>
       <use xlink:href="#DejaVuSans-4c" transform="translate(415.984375 0)"/>
       <use xlink:href="#DejaVuSans-44" transform="translate(443.765625 0)"/>
       <use xlink:href="#DejaVuSans-4f" transform="translate(505.046875 0)"/>
       <use xlink:href="#DejaVuSans-3" transform="translate(532.828125 0)"/>
       <use xlink:href="#DejaVuSans-5a" transform="translate(564.609375 0)"/>
       <use xlink:href="#DejaVuSans-44" transform="translate(646.390625 0)"/>
       <use xlink:href="#DejaVuSans-4f" transform="translate(707.671875 0)"/>
       <use xlink:href="#DejaVuSans-4f" transform="translate(735.453125 0)"/>
       <use xlink:href="#DejaVuSans-3" transform="translate(763.234375 0)"/>
       <use xlink:href="#DejaVuSans-57" transform="translate(795.015625 0)"/>
       <use xlink:href="#DejaVuSans-4c" transform="translate(834.21875 0)"/>
       <use xlink:href="#DejaVuSans-50" transform="translate(862 0)"/>
       <use xlink:href="#DejaVuSans-48" transform="translate(959.40625 0)"/>
      </g>
     </g>
    </g>
    <g id="ytick_3">
     <g id="line2d_15"/>
     <g id="text_10">
      <!-- New artifacts -->
      <g transform="translate(51.793594 212.409407) scale(0.09 -0.09)">
       <defs>
        <path id="DejaVuSans-31" d="M 628 4666
L 1478 4666
L 3547 763
L 3547 4666
L 4159 4666
L 4159 0
L 3309 0
L 1241 3903
L 1241 0
L 628 0
L 628 4666
z
" transform="scale(0.015625)"/>
       </defs>
       <use xlink:href="#DejaVuSans-31"/>
       <use xlink:href="#DejaVuSans-48" transform="translate(74.8125 0)"/>
       <use xlink:href="#DejaVuSans-5a" transform="translate(136.34375 0)"/>
       <use xlink:href="#DejaVuSans-3" transform="translate(218.125 0)"/>
       <use xlink:href="#DejaVuSans-44" transform="translate(249.90625 0)"/>
       <use xlink:href="#DejaVuSans-55" transform="translate(311.1875 0)"/>
       <use xlink:href="#DejaVuSans-57" transform="translate(352.296875 0)"/>
       <use xlink:href="#DejaVuSans-4c" transform="translate(391.5 0)"/>
       <use xlink:href="#DejaVuSans-49" transform="translate(419.28125 0)"/>
       <use xlink:href="#DejaVuSans-44" transform="translate(454.484375 0)"/>
       <use xlink:href="#DejaVuSans-46" transform="translate(515.765625 0)"/>
       <use xlink:href="#DejaVuSans-57" transform="translate(570.75 0)"/>
       <use xlink:href="#DejaVuSans-56" transform="translate(609.953125 0)"/>
      </g>
     </g>
    </g>
    <g id="ytick_4">
     <g id="line2d_16"/>
     <g id="text_11">
      <!-- Peak process memory -->
      <g transform="translate(12.096563 278.766016) scale(0.09 -0.09)">
       <defs>
        <path id="DejaVuSans-4e" d="M 581 4863
L 1159 4863
L 1159 1991
L 2875 3500
L 3609 3500
L 1753 1863
L 3688 0
L 2938 0
L 1159 1709
L 1159 0
L 581 0
L 581 4863
z
" transform="scale(0.015625)"/>
       </defs>
       <use xlink:href="#DejaVuSans-33"/>
       <use xlink:href="#DejaVuSans-48" transform="translate(56.734375 0)"/>
       <use xlink:href="#DejaVuSans-44" transform="translate(118.265625 0)"/>
       <use xlink:href="#DejaVuSans-4e" transform="translate(179.546875 0)"/>
       <use xlink:href="#DejaVuSans-3" transform="translate(237.453125 0)"/>
       <use xlink:href="#DejaVuSans-53" transform="translate(269.234375 0)"/>
       <use xlink:href="#DejaVuSans-55" transform="translate(332.71875 0)"/>
       <use xlink:href="#DejaVuSans-52" transform="translate(371.625 0)"/>
       <use xlink:href="#DejaVuSans-46" transform="translate(432.8125 0)"/>
       <use xlink:href="#DejaVuSans-48" transform="translate(487.796875 0)"/>
       <use xlink:href="#DejaVuSans-56" transform="translate(549.328125 0)"/>
       <use xlink:href="#DejaVuSans-56" transform="translate(601.421875 0)"/>
       <use xlink:href="#DejaVuSans-3" transform="translate(653.515625 0)"/>
       <use xlink:href="#DejaVuSans-50" transform="translate(685.296875 0)"/>
       <use xlink:href="#DejaVuSans-48" transform="translate(782.703125 0)"/>
       <use xlink:href="#DejaVuSans-50" transform="translate(844.234375 0)"/>
       <use xlink:href="#DejaVuSans-52" transform="translate(941.640625 0)"/>
       <use xlink:href="#DejaVuSans-55" transform="translate(1002.828125 0)"/>
       <use xlink:href="#DejaVuSans-5c" transform="translate(1043.9375 0)"/>
      </g>
     </g>
    </g>
    <g id="ytick_5">
     <g id="line2d_17"/>
     <g id="text_12">
      <!-- Free disk after artifacts -->
      <g transform="translate(7.2 345.122625) scale(0.09 -0.09)">
       <use xlink:href="#DejaVuSans-29"/>
       <use xlink:href="#DejaVuSans-55" transform="translate(50.234375 0)"/>
       <use xlink:href="#DejaVuSans-48" transform="translate(89.140625 0)"/>
       <use xlink:href="#DejaVuSans-48" transform="translate(150.671875 0)"/>
       <use xlink:href="#DejaVuSans-3" transform="translate(212.203125 0)"/>
       <use xlink:href="#DejaVuSans-47" transform="translate(243.984375 0)"/>
       <use xlink:href="#DejaVuSans-4c" transform="translate(307.46875 0)"/>
       <use xlink:href="#DejaVuSans-56" transform="translate(335.25 0)"/>
       <use xlink:href="#DejaVuSans-4e" transform="translate(387.34375 0)"/>
       <use xlink:href="#DejaVuSans-3" transform="translate(445.25 0)"/>
       <use xlink:href="#DejaVuSans-44" transform="translate(477.03125 0)"/>
       <use xlink:href="#DejaVuSans-49" transform="translate(538.3125 0)"/>
       <use xlink:href="#DejaVuSans-57" transform="translate(571.765625 0)"/>
       <use xlink:href="#DejaVuSans-48" transform="translate(610.96875 0)"/>
       <use xlink:href="#DejaVuSans-55" transform="translate(672.5 0)"/>
       <use xlink:href="#DejaVuSans-3" transform="translate(713.609375 0)"/>
       <use xlink:href="#DejaVuSans-44" transform="translate(745.390625 0)"/>
       <use xlink:href="#DejaVuSans-55" transform="translate(806.671875 0)"/>
       <use xlink:href="#DejaVuSans-57" transform="translate(847.78125 0)"/>
       <use xlink:href="#DejaVuSans-4c" transform="translate(886.984375 0)"/>
       <use xlink:href="#DejaVuSans-49" transform="translate(914.765625 0)"/>
       <use xlink:href="#DejaVuSans-44" transform="translate(949.96875 0)"/>
       <use xlink:href="#DejaVuSans-46" transform="translate(1011.25 0)"/>
       <use xlink:href="#DejaVuSans-57" transform="translate(1066.234375 0)"/>
       <use xlink:href="#DejaVuSans-56" transform="translate(1105.4375 0)"/>
      </g>
     </g>
    </g>
   </g>
   <g id="line2d_18">
    <path d="M 717.831471 376.142408
L 717.831471 41.837812
" clip-path="url(#p1bd9fe5df1)" style="fill: none; stroke-dasharray: 5.55,2.4; stroke-dashoffset: 0; stroke: #d55e00; stroke-width: 1.5"/>
   </g>
   <g id="patch_3">
    <path d="M 119.377813 376.142408
L 807.59952 376.142408
" style="fill: none; stroke: #000000; stroke-width: 0.8; stroke-linejoin: miter; stroke-linecap: square"/>
   </g>
   <g id="patch_4">
    <path d="M 119.377813 57.033476
L 123.650594 57.033476
L 123.650594 95.520309
L 119.377813 95.520309
z
" clip-path="url(#p1bd9fe5df1)" style="fill: #0072b2; stroke: #1f2937; stroke-width: 0.6; stroke-linejoin: miter"/>
   </g>
   <g id="patch_5">
    <path d="M 119.377813 123.390085
L 128.447023 123.390085
L 128.447023 161.876918
L 119.377813 161.876918
z
" clip-path="url(#p1bd9fe5df1)" style="fill: #0072b2; stroke: #1f2937; stroke-width: 0.6; stroke-linejoin: miter"/>
   </g>
   <g id="patch_6">
    <path d="M 119.377813 189.746694
L 154.260823 189.746694
L 154.260823 228.233527
L 119.377813 228.233527
z
" clip-path="url(#p1bd9fe5df1)" style="fill: #0072b2; stroke: #1f2937; stroke-width: 0.6; stroke-linejoin: miter"/>
   </g>
   <g id="patch_7">
    <path d="M 119.377813 256.103302
L 124.39957 256.103302
L 124.39957 294.590136
L 119.377813 294.590136
z
" clip-path="url(#p1bd9fe5df1)" style="fill: #0072b2; stroke: #1f2937; stroke-width: 0.6; stroke-linejoin: miter"/>
   </g>
   <g id="patch_8">
    <path d="M 119.377813 322.459911
L 342.089018 322.459911
L 342.089018 360.946744
L 119.377813 360.946744
z
" clip-path="url(#p1bd9fe5df1)" style="fill: #0072b2; stroke: #1f2937; stroke-width: 0.6; stroke-linejoin: miter"/>
   </g>
   <g id="text_13">
    <!-- 100% accepted boundary -->
    <g style="fill: #d55e00" transform="translate(659.306534 26.530212) scale(0.082 -0.082)">
     <defs>
      <path id="DejaVuSans-Bold-14" d="M 750 831
L 1813 831
L 1813 3847
L 722 3622
L 722 4441
L 1806 4666
L 2950 4666
L 2950 831
L 4013 831
L 4013 0
L 750 0
L 750 831
z
" transform="scale(0.015625)"/>
      <path id="DejaVuSans-Bold-13" d="M 2944 2338
Q 2944 3213 2780 3570
Q 2616 3928 2228 3928
Q 1841 3928 1675 3570
Q 1509 3213 1509 2338
Q 1509 1453 1675 1090
Q 1841 728 2228 728
Q 2613 728 2778 1090
Q 2944 1453 2944 2338
z
M 4147 2328
Q 4147 1169 3647 539
Q 3147 -91 2228 -91
Q 1306 -91 806 539
Q 306 1169 306 2328
Q 306 3491 806 4120
Q 1306 4750 2228 4750
Q 3147 4750 3647 4120
Q 4147 3491 4147 2328
z
" transform="scale(0.015625)"/>
      <path id="DejaVuSans-Bold-8" d="M 4959 1925
Q 4738 1925 4616 1733
Q 4494 1541 4494 1184
Q 4494 825 4614 633
Q 4734 441 4959 441
Q 5184 441 5303 633
Q 5422 825 5422 1184
Q 5422 1541 5301 1733
Q 5181 1925 4959 1925
z
M 4959 2450
Q 5541 2450 5875 2112
Q 6209 1775 6209 1184
Q 6209 594 5875 251
Q 5541 -91 4959 -91
Q 4378 -91 4042 251
Q 3706 594 3706 1184
Q 3706 1772 4042 2111
Q 4378 2450 4959 2450
z
M 2094 -91
L 1403 -91
L 4319 4750
L 5013 4750
L 2094 -91
z
M 1453 4750
Q 2034 4750 2367 4411
Q 2700 4072 2700 3481
Q 2700 2891 2367 2550
Q 2034 2209 1453 2209
Q 872 2209 539 2550
Q 206 2891 206 3481
Q 206 4072 539 4411
Q 872 4750 1453 4750
z
M 1453 4225
Q 1228 4225 1106 4031
Q 984 3838 984 3481
Q 984 3122 1106 2926
Q 1228 2731 1453 2731
Q 1678 2731 1798 2926
Q 1919 3122 1919 3481
Q 1919 3838 1797 4031
Q 1675 4225 1453 4225
z
" transform="scale(0.015625)"/>
      <path id="DejaVuSans-Bold-3" transform="scale(0.015625)"/>
      <path id="DejaVuSans-Bold-44" d="M 2106 1575
Q 1756 1575 1579 1456
Q 1403 1338 1403 1106
Q 1403 894 1545 773
Q 1688 653 1941 653
Q 2256 653 2472 879
Q 2688 1106 2688 1447
L 2688 1575
L 2106 1575
z
M 3816 1997
L 3816 0
L 2688 0
L 2688 519
Q 2463 200 2181 54
Q 1900 -91 1497 -91
Q 953 -91 614 226
Q 275 544 275 1050
Q 275 1666 698 1953
Q 1122 2241 2028 2241
L 2688 2241
L 2688 2328
Q 2688 2594 2478 2717
Q 2269 2841 1825 2841
Q 1466 2841 1156 2769
Q 847 2697 581 2553
L 581 3406
Q 941 3494 1303 3539
Q 1666 3584 2028 3584
Q 2975 3584 3395 3211
Q 3816 2838 3816 1997
z
" transform="scale(0.015625)"/>
      <path id="DejaVuSans-Bold-46" d="M 3366 3391
L 3366 2478
Q 3138 2634 2908 2709
Q 2678 2784 2431 2784
Q 1963 2784 1702 2511
Q 1441 2238 1441 1747
Q 1441 1256 1702 982
Q 1963 709 2431 709
Q 2694 709 2930 787
Q 3166 866 3366 1019
L 3366 103
Q 3103 6 2833 -42
Q 2563 -91 2291 -91
Q 1344 -91 809 395
Q 275 881 275 1747
Q 275 2613 809 3098
Q 1344 3584 2291 3584
Q 2566 3584 2833 3536
Q 3100 3488 3366 3391
z
" transform="scale(0.015625)"/>
      <path id="DejaVuSans-Bold-48" d="M 4031 1759
L 4031 1441
L 1416 1441
Q 1456 1047 1700 850
Q 1944 653 2381 653
Q 2734 653 3104 758
Q 3475 863 3866 1075
L 3866 213
Q 3469 63 3072 -14
Q 2675 -91 2278 -91
Q 1328 -91 801 392
Q 275 875 275 1747
Q 275 2603 792 3093
Q 1309 3584 2216 3584
Q 3041 3584 3536 3087
Q 4031 2591 4031 1759
z
M 2881 2131
Q 2881 2450 2695 2645
Q 2509 2841 2209 2841
Q 1884 2841 1681 2658
Q 1478 2475 1428 2131
L 2881 2131
z
" transform="scale(0.015625)"/>
      <path id="DejaVuSans-Bold-53" d="M 1656 506
L 1656 -1331
L 538 -1331
L 538 3500
L 1656 3500
L 1656 2988
Q 1888 3294 2169 3439
Q 2450 3584 2816 3584
Q 3463 3584 3878 3070
Q 4294 2556 4294 1747
Q 4294 938 3878 423
Q 3463 -91 2816 -91
Q 2450 -91 2169 54
Q 1888 200 1656 506
z
M 2400 2772
Q 2041 2772 1848 2508
Q 1656 2244 1656 1747
Q 1656 1250 1848 986
Q 2041 722 2400 722
Q 2759 722 2948 984
Q 3138 1247 3138 1747
Q 3138 2247 2948 2509
Q 2759 2772 2400 2772
z
" transform="scale(0.015625)"/>
      <path id="DejaVuSans-Bold-57" d="M 1759 4494
L 1759 3500
L 2913 3500
L 2913 2700
L 1759 2700
L 1759 1216
Q 1759 972 1856 886
Q 1953 800 2241 800
L 2816 800
L 2816 0
L 1856 0
Q 1194 0 917 276
Q 641 553 641 1216
L 641 2700
L 84 2700
L 84 3500
L 641 3500
L 641 4494
L 1759 4494
z
" transform="scale(0.015625)"/>
      <path id="DejaVuSans-Bold-47" d="M 2919 2988
L 2919 4863
L 4044 4863
L 4044 0
L 2919 0
L 2919 506
Q 2688 197 2409 53
Q 2131 -91 1766 -91
Q 1119 -91 703 423
Q 288 938 288 1747
Q 288 2556 703 3070
Q 1119 3584 1766 3584
Q 2128 3584 2408 3439
Q 2688 3294 2919 2988
z
M 2181 722
Q 2541 722 2730 984
Q 2919 1247 2919 1747
Q 2919 2247 2730 2509
Q 2541 2772 2181 2772
Q 1825 2772 1636 2509
Q 1447 2247 1447 1747
Q 1447 1247 1636 984
Q 1825 722 2181 722
z
" transform="scale(0.015625)"/>
      <path id="DejaVuSans-Bold-45" d="M 2400 722
Q 2759 722 2948 984
Q 3138 1247 3138 1747
Q 3138 2247 2948 2509
Q 2759 2772 2400 2772
Q 2041 2772 1848 2508
Q 1656 2244 1656 1747
Q 1656 1250 1848 986
Q 2041 722 2400 722
z
M 1656 2988
Q 1888 3294 2169 3439
Q 2450 3584 2816 3584
Q 3463 3584 3878 3070
Q 4294 2556 4294 1747
Q 4294 938 3878 423
Q 3463 -91 2816 -91
Q 2450 -91 2169 54
Q 1888 200 1656 506
L 1656 0
L 538 0
L 538 4863
L 1656 4863
L 1656 2988
z
" transform="scale(0.015625)"/>
      <path id="DejaVuSans-Bold-52" d="M 2203 2784
Q 1831 2784 1636 2517
Q 1441 2250 1441 1747
Q 1441 1244 1636 976
Q 1831 709 2203 709
Q 2569 709 2762 976
Q 2956 1244 2956 1747
Q 2956 2250 2762 2517
Q 2569 2784 2203 2784
z
M 2203 3584
Q 3106 3584 3614 3096
Q 4122 2609 4122 1747
Q 4122 884 3614 396
Q 3106 -91 2203 -91
Q 1297 -91 786 396
Q 275 884 275 1747
Q 275 2609 786 3096
Q 1297 3584 2203 3584
z
" transform="scale(0.015625)"/>
      <path id="DejaVuSans-Bold-58" d="M 500 1363
L 500 3500
L 1625 3500
L 1625 3150
Q 1625 2866 1622 2436
Q 1619 2006 1619 1863
Q 1619 1441 1641 1255
Q 1663 1069 1716 984
Q 1784 875 1895 815
Q 2006 756 2150 756
Q 2500 756 2700 1025
Q 2900 1294 2900 1772
L 2900 3500
L 4019 3500
L 4019 0
L 2900 0
L 2900 506
Q 2647 200 2364 54
Q 2081 -91 1741 -91
Q 1134 -91 817 281
Q 500 653 500 1363
z
" transform="scale(0.015625)"/>
      <path id="DejaVuSans-Bold-51" d="M 4056 2131
L 4056 0
L 2931 0
L 2931 347
L 2931 1631
Q 2931 2084 2911 2256
Q 2891 2428 2841 2509
Q 2775 2619 2662 2680
Q 2550 2741 2406 2741
Q 2056 2741 1856 2470
Q 1656 2200 1656 1722
L 1656 0
L 538 0
L 538 3500
L 1656 3500
L 1656 2988
Q 1909 3294 2193 3439
Q 2478 3584 2822 3584
Q 3428 3584 3742 3212
Q 4056 2841 4056 2131
z
" transform="scale(0.015625)"/>
      <path id="DejaVuSans-Bold-55" d="M 3138 2547
Q 2991 2616 2845 2648
Q 2700 2681 2553 2681
Q 2122 2681 1889 2404
Q 1656 2128 1656 1613
L 1656 0
L 538 0
L 538 3500
L 1656 3500
L 1656 2925
Q 1872 3269 2151 3426
Q 2431 3584 2822 3584
Q 2878 3584 2943 3579
Q 3009 3575 3134 3559
L 3138 2547
z
" transform="scale(0.015625)"/>
      <path id="DejaVuSans-Bold-5c" d="M 78 3500
L 1197 3500
L 2138 1125
L 2938 3500
L 4056 3500
L 2584 -331
Q 2363 -916 2067 -1148
Q 1772 -1381 1288 -1381
L 641 -1381
L 641 -647
L 991 -647
Q 1275 -647 1404 -556
Q 1534 -466 1606 -231
L 1638 -134
L 78 3500
z
" transform="scale(0.015625)"/>
     </defs>
     <use xlink:href="#DejaVuSans-Bold-14"/>
     <use xlink:href="#DejaVuSans-Bold-13" transform="translate(69.578125 0)"/>
     <use xlink:href="#DejaVuSans-Bold-13" transform="translate(139.15625 0)"/>
     <use xlink:href="#DejaVuSans-Bold-8" transform="translate(208.734375 0)"/>
     <use xlink:href="#DejaVuSans-Bold-3" transform="translate(308.9375 0)"/>
     <use xlink:href="#DejaVuSans-Bold-44" transform="translate(343.75 0)"/>
     <use xlink:href="#DejaVuSans-Bold-46" transform="translate(411.234375 0)"/>
     <use xlink:href="#DejaVuSans-Bold-46" transform="translate(470.515625 0)"/>
     <use xlink:href="#DejaVuSans-Bold-48" transform="translate(529.796875 0)"/>
     <use xlink:href="#DejaVuSans-Bold-53" transform="translate(597.625 0)"/>
     <use xlink:href="#DejaVuSans-Bold-57" transform="translate(669.203125 0)"/>
     <use xlink:href="#DejaVuSans-Bold-48" transform="translate(717 0)"/>
     <use xlink:href="#DejaVuSans-Bold-47" transform="translate(784.828125 0)"/>
     <use xlink:href="#DejaVuSans-Bold-3" transform="translate(856.40625 0)"/>
     <use xlink:href="#DejaVuSans-Bold-45" transform="translate(891.21875 0)"/>
     <use xlink:href="#DejaVuSans-Bold-52" transform="translate(962.796875 0)"/>
     <use xlink:href="#DejaVuSans-Bold-58" transform="translate(1031.5 0)"/>
     <use xlink:href="#DejaVuSans-Bold-51" transform="translate(1102.6875 0)"/>
     <use xlink:href="#DejaVuSans-Bold-47" transform="translate(1173.875 0)"/>
     <use xlink:href="#DejaVuSans-Bold-44" transform="translate(1245.453125 0)"/>
     <use xlink:href="#DejaVuSans-Bold-55" transform="translate(1312.9375 0)"/>
     <use xlink:href="#DejaVuSans-Bold-5c" transform="translate(1362.25 0)"/>
    </g>
   </g>
   <g id="text_14">
    <!-- PASS  1.7849 / 250.0 core-h maximum -->
    <g style="fill: #1f2937" transform="translate(134.42276 78.459252) scale(0.084 -0.084)">
     <defs>
      <path id="DejaVuSans-Bold-33" d="M 588 4666
L 2584 4666
Q 3475 4666 3951 4270
Q 4428 3875 4428 3144
Q 4428 2409 3951 2014
Q 3475 1619 2584 1619
L 1791 1619
L 1791 0
L 588 0
L 588 4666
z
M 1791 3794
L 1791 2491
L 2456 2491
Q 2806 2491 2997 2661
Q 3188 2831 3188 3144
Q 3188 3456 2997 3625
Q 2806 3794 2456 3794
L 1791 3794
z
" transform="scale(0.015625)"/>
      <path id="DejaVuSans-Bold-24" d="M 3419 850
L 1538 850
L 1241 0
L 31 0
L 1759 4666
L 3194 4666
L 4922 0
L 3713 0
L 3419 850
z
M 1838 1716
L 3116 1716
L 2478 3572
L 1838 1716
z
" transform="scale(0.015625)"/>
      <path id="DejaVuSans-Bold-36" d="M 3834 4519
L 3834 3531
Q 3450 3703 3084 3790
Q 2719 3878 2394 3878
Q 1963 3878 1756 3759
Q 1550 3641 1550 3391
Q 1550 3203 1689 3098
Q 1828 2994 2194 2919
L 2706 2816
Q 3484 2659 3812 2340
Q 4141 2022 4141 1434
Q 4141 663 3683 286
Q 3225 -91 2284 -91
Q 1841 -91 1394 -6
Q 947 78 500 244
L 500 1259
Q 947 1022 1364 901
Q 1781 781 2169 781
Q 2563 781 2772 912
Q 2981 1044 2981 1288
Q 2981 1506 2839 1625
Q 2697 1744 2272 1838
L 1806 1941
Q 1106 2091 782 2419
Q 459 2747 459 3303
Q 459 4000 909 4375
Q 1359 4750 2203 4750
Q 2588 4750 2994 4692
Q 3400 4634 3834 4519
z
" transform="scale(0.015625)"/>
      <path id="DejaVuSans-Bold-11" d="M 653 1209
L 1778 1209
L 1778 0
L 653 0
L 653 1209
z
" transform="scale(0.015625)"/>
      <path id="DejaVuSans-Bold-1a" d="M 428 4666
L 3944 4666
L 3944 3988
L 2125 0
L 953 0
L 2675 3781
L 428 3781
L 428 4666
z
" transform="scale(0.015625)"/>
      <path id="DejaVuSans-Bold-1b" d="M 2228 2088
Q 1891 2088 1709 1903
Q 1528 1719 1528 1375
Q 1528 1031 1709 848
Q 1891 666 2228 666
Q 2563 666 2741 848
Q 2919 1031 2919 1375
Q 2919 1722 2741 1905
Q 2563 2088 2228 2088
z
M 1350 2484
Q 925 2613 709 2878
Q 494 3144 494 3541
Q 494 4131 934 4440
Q 1375 4750 2228 4750
Q 3075 4750 3515 4442
Q 3956 4134 3956 3541
Q 3956 3144 3739 2878
Q 3522 2613 3097 2484
Q 3572 2353 3814 2058
Q 4056 1763 4056 1313
Q 4056 619 3595 264
Q 3134 -91 2228 -91
Q 1319 -91 855 264
Q 391 619 391 1313
Q 391 1763 633 2058
Q 875 2353 1350 2484
z
M 1631 3419
Q 1631 3141 1786 2991
Q 1941 2841 2228 2841
Q 2509 2841 2662 2991
Q 2816 3141 2816 3419
Q 2816 3697 2662 3845
Q 2509 3994 2228 3994
Q 1941 3994 1786 3844
Q 1631 3694 1631 3419
z
" transform="scale(0.015625)"/>
      <path id="DejaVuSans-Bold-17" d="M 2356 3675
L 1038 1722
L 2356 1722
L 2356 3675
z
M 2156 4666
L 3494 4666
L 3494 1722
L 4159 1722
L 4159 850
L 3494 850
L 3494 0
L 2356 0
L 2356 850
L 288 850
L 288 1881
L 2156 4666
z
" transform="scale(0.015625)"/>
      <path id="DejaVuSans-Bold-1c" d="M 641 103
L 641 966
Q 928 831 1190 764
Q 1453 697 1709 697
Q 2247 697 2547 995
Q 2847 1294 2900 1881
Q 2688 1725 2447 1647
Q 2206 1569 1925 1569
Q 1209 1569 770 1986
Q 331 2403 331 3084
Q 331 3838 820 4291
Q 1309 4744 2131 4744
Q 3044 4744 3544 4128
Q 4044 3513 4044 2388
Q 4044 1231 3459 570
Q 2875 -91 1856 -91
Q 1528 -91 1228 -42
Q 928 6 641 103
z
M 2125 2350
Q 2441 2350 2600 2554
Q 2759 2759 2759 3169
Q 2759 3575 2600 3781
Q 2441 3988 2125 3988
Q 1809 3988 1650 3781
Q 1491 3575 1491 3169
Q 1491 2759 1650 2554
Q 1809 2350 2125 2350
z
" transform="scale(0.015625)"/>
      <path id="DejaVuSans-Bold-12" d="M 1644 4666
L 2338 4666
L 691 -594
L 0 -594
L 1644 4666
z
" transform="scale(0.015625)"/>
      <path id="DejaVuSans-Bold-15" d="M 1844 884
L 3897 884
L 3897 0
L 506 0
L 506 884
L 2209 2388
Q 2438 2594 2547 2791
Q 2656 2988 2656 3200
Q 2656 3528 2436 3728
Q 2216 3928 1850 3928
Q 1569 3928 1234 3808
Q 900 3688 519 3450
L 519 4475
Q 925 4609 1322 4679
Q 1719 4750 2100 4750
Q 2938 4750 3402 4381
Q 3866 4013 3866 3353
Q 3866 2972 3669 2642
Q 3472 2313 2841 1759
L 1844 884
z
" transform="scale(0.015625)"/>
      <path id="DejaVuSans-Bold-18" d="M 678 4666
L 3669 4666
L 3669 3781
L 1638 3781
L 1638 3059
Q 1775 3097 1914 3117
Q 2053 3138 2203 3138
Q 3056 3138 3531 2711
Q 4006 2284 4006 1522
Q 4006 766 3489 337
Q 2972 -91 2053 -91
Q 1656 -91 1267 -14
Q 878 63 494 219
L 494 1166
Q 875 947 1217 837
Q 1559 728 1863 728
Q 2300 728 2551 942
Q 2803 1156 2803 1522
Q 2803 1891 2551 2103
Q 2300 2316 1863 2316
Q 1603 2316 1309 2248
Q 1016 2181 678 2041
L 678 4666
z
" transform="scale(0.015625)"/>
      <path id="DejaVuSans-Bold-10" d="M 347 2297
L 2309 2297
L 2309 1388
L 347 1388
L 347 2297
z
" transform="scale(0.015625)"/>
      <path id="DejaVuSans-Bold-4b" d="M 4056 2131
L 4056 0
L 2931 0
L 2931 347
L 2931 1625
Q 2931 2084 2911 2256
Q 2891 2428 2841 2509
Q 2775 2619 2662 2680
Q 2550 2741 2406 2741
Q 2056 2741 1856 2470
Q 1656 2200 1656 1722
L 1656 0
L 538 0
L 538 4863
L 1656 4863
L 1656 2988
Q 1909 3294 2193 3439
Q 2478 3584 2822 3584
Q 3428 3584 3742 3212
Q 4056 2841 4056 2131
z
" transform="scale(0.015625)"/>
      <path id="DejaVuSans-Bold-50" d="M 3781 2919
Q 3994 3244 4286 3414
Q 4578 3584 4928 3584
Q 5531 3584 5847 3212
Q 6163 2841 6163 2131
L 6163 0
L 5038 0
L 5038 1825
Q 5041 1866 5042 1909
Q 5044 1953 5044 2034
Q 5044 2406 4934 2573
Q 4825 2741 4581 2741
Q 4263 2741 4089 2478
Q 3916 2216 3909 1719
L 3909 0
L 2784 0
L 2784 1825
Q 2784 2406 2684 2573
Q 2584 2741 2328 2741
Q 2006 2741 1831 2477
Q 1656 2213 1656 1722
L 1656 0
L 531 0
L 531 3500
L 1656 3500
L 1656 2988
Q 1863 3284 2130 3434
Q 2397 3584 2719 3584
Q 3081 3584 3359 3409
Q 3638 3234 3781 2919
z
" transform="scale(0.015625)"/>
      <path id="DejaVuSans-Bold-5b" d="M 1422 1791
L 159 3500
L 1344 3500
L 2059 2463
L 2784 3500
L 3969 3500
L 2706 1797
L 4031 0
L 2847 0
L 2059 1106
L 1281 0
L 97 0
L 1422 1791
z
" transform="scale(0.015625)"/>
      <path id="DejaVuSans-Bold-4c" d="M 538 3500
L 1656 3500
L 1656 0
L 538 0
L 538 3500
z
M 538 4863
L 1656 4863
L 1656 3950
L 538 3950
L 538 4863
z
" transform="scale(0.015625)"/>
     </defs>
     <use xlink:href="#DejaVuSans-Bold-33"/>
     <use xlink:href="#DejaVuSans-Bold-24" transform="translate(64.125 0)"/>
     <use xlink:href="#DejaVuSans-Bold-36" transform="translate(141.515625 0)"/>
     <use xlink:href="#DejaVuSans-Bold-36" transform="translate(209.046875 0)"/>
     <use xlink:href="#DejaVuSans-Bold-3" transform="translate(281.0625 0)"/>
     <use xlink:href="#DejaVuSans-Bold-3" transform="translate(315.875 0)"/>
     <use xlink:href="#DejaVuSans-Bold-14" transform="translate(350.6875 0)"/>
     <use xlink:href="#DejaVuSans-Bold-11" transform="translate(420.265625 0)"/>
     <use xlink:href="#DejaVuSans-Bold-1a" transform="translate(458.25 0)"/>
     <use xlink:href="#DejaVuSans-Bold-1b" transform="translate(527.828125 0)"/>
     <use xlink:href="#DejaVuSans-Bold-17" transform="translate(597.40625 0)"/>
     <use xlink:href="#DejaVuSans-Bold-1c" transform="translate(666.984375 0)"/>
     <use xlink:href="#DejaVuSans-Bold-3" transform="translate(736.5625 0)"/>
     <use xlink:href="#DejaVuSans-Bold-12" transform="translate(771.375 0)"/>
     <use xlink:href="#DejaVuSans-Bold-3" transform="translate(807.90625 0)"/>
     <use xlink:href="#DejaVuSans-Bold-15" transform="translate(842.71875 0)"/>
     <use xlink:href="#DejaVuSans-Bold-18" transform="translate(912.296875 0)"/>
     <use xlink:href="#DejaVuSans-Bold-13" transform="translate(981.875 0)"/>
     <use xlink:href="#DejaVuSans-Bold-11" transform="translate(1051.453125 0)"/>
     <use xlink:href="#DejaVuSans-Bold-13" transform="translate(1089.4375 0)"/>
     <use xlink:href="#DejaVuSans-Bold-3" transform="translate(1159.015625 0)"/>
     <use xlink:href="#DejaVuSans-Bold-46" transform="translate(1193.828125 0)"/>
     <use xlink:href="#DejaVuSans-Bold-52" transform="translate(1253.109375 0)"/>
     <use xlink:href="#DejaVuSans-Bold-55" transform="translate(1321.8125 0)"/>
     <use xlink:href="#DejaVuSans-Bold-48" transform="translate(1371.125 0)"/>
     <use xlink:href="#DejaVuSans-Bold-10" transform="translate(1438.953125 0)"/>
     <use xlink:href="#DejaVuSans-Bold-4b" transform="translate(1480.453125 0)"/>
     <use xlink:href="#DejaVuSans-Bold-3" transform="translate(1551.640625 0)"/>
     <use xlink:href="#DejaVuSans-Bold-50" transform="translate(1586.453125 0)"/>
     <use xlink:href="#DejaVuSans-Bold-44" transform="translate(1690.65625 0)"/>
     <use xlink:href="#DejaVuSans-Bold-5b" transform="translate(1758.140625 0)"/>
     <use xlink:href="#DejaVuSans-Bold-4c" transform="translate(1822.640625 0)"/>
     <use xlink:href="#DejaVuSans-Bold-50" transform="translate(1856.921875 0)"/>
     <use xlink:href="#DejaVuSans-Bold-58" transform="translate(1961.125 0)"/>
     <use xlink:href="#DejaVuSans-Bold-50" transform="translate(2032.3125 0)"/>
    </g>
   </g>
   <g id="text_15">
    <!-- PASS  0.0758 / 5.0 days maximum -->
    <g style="fill: #1f2937" transform="translate(139.219189 144.815861) scale(0.084 -0.084)">
     <defs>
      <path id="DejaVuSans-Bold-56" d="M 3272 3391
L 3272 2541
Q 2913 2691 2578 2766
Q 2244 2841 1947 2841
Q 1628 2841 1473 2761
Q 1319 2681 1319 2516
Q 1319 2381 1436 2309
Q 1553 2238 1856 2203
L 2053 2175
Q 2913 2066 3209 1816
Q 3506 1566 3506 1031
Q 3506 472 3093 190
Q 2681 -91 1863 -91
Q 1516 -91 1145 -36
Q 775 19 384 128
L 384 978
Q 719 816 1070 734
Q 1422 653 1784 653
Q 2113 653 2278 743
Q 2444 834 2444 1013
Q 2444 1163 2330 1236
Q 2216 1309 1875 1350
L 1678 1375
Q 931 1469 631 1722
Q 331 1975 331 2491
Q 331 3047 712 3315
Q 1094 3584 1881 3584
Q 2191 3584 2531 3537
Q 2872 3491 3272 3391
z
" transform="scale(0.015625)"/>
     </defs>
     <use xlink:href="#DejaVuSans-Bold-33"/>
     <use xlink:href="#DejaVuSans-Bold-24" transform="translate(64.125 0)"/>
     <use xlink:href="#DejaVuSans-Bold-36" transform="translate(141.515625 0)"/>
     <use xlink:href="#DejaVuSans-Bold-36" transform="translate(209.046875 0)"/>
     <use xlink:href="#DejaVuSans-Bold-3" transform="translate(281.0625 0)"/>
     <use xlink:href="#DejaVuSans-Bold-3" transform="translate(315.875 0)"/>
     <use xlink:href="#DejaVuSans-Bold-13" transform="translate(350.6875 0)"/>
     <use xlink:href="#DejaVuSans-Bold-11" transform="translate(420.265625 0)"/>
     <use xlink:href="#DejaVuSans-Bold-13" transform="translate(458.25 0)"/>
     <use xlink:href="#DejaVuSans-Bold-1a" transform="translate(527.828125 0)"/>
     <use xlink:href="#DejaVuSans-Bold-18" transform="translate(597.40625 0)"/>
     <use xlink:href="#DejaVuSans-Bold-1b" transform="translate(666.984375 0)"/>
     <use xlink:href="#DejaVuSans-Bold-3" transform="translate(736.5625 0)"/>
     <use xlink:href="#DejaVuSans-Bold-12" transform="translate(771.375 0)"/>
     <use xlink:href="#DejaVuSans-Bold-3" transform="translate(807.90625 0)"/>
     <use xlink:href="#DejaVuSans-Bold-18" transform="translate(842.71875 0)"/>
     <use xlink:href="#DejaVuSans-Bold-11" transform="translate(912.296875 0)"/>
     <use xlink:href="#DejaVuSans-Bold-13" transform="translate(950.28125 0)"/>
     <use xlink:href="#DejaVuSans-Bold-3" transform="translate(1019.859375 0)"/>
     <use xlink:href="#DejaVuSans-Bold-47" transform="translate(1054.671875 0)"/>
     <use xlink:href="#DejaVuSans-Bold-44" transform="translate(1126.25 0)"/>
     <use xlink:href="#DejaVuSans-Bold-5c" transform="translate(1190.65625 0)"/>
     <use xlink:href="#DejaVuSans-Bold-56" transform="translate(1255.84375 0)"/>
     <use xlink:href="#DejaVuSans-Bold-3" transform="translate(1315.359375 0)"/>
     <use xlink:href="#DejaVuSans-Bold-50" transform="translate(1350.171875 0)"/>
     <use xlink:href="#DejaVuSans-Bold-44" transform="translate(1454.375 0)"/>
     <use xlink:href="#DejaVuSans-Bold-5b" transform="translate(1521.859375 0)"/>
     <use xlink:href="#DejaVuSans-Bold-4c" transform="translate(1586.359375 0)"/>
     <use xlink:href="#DejaVuSans-Bold-50" transform="translate(1620.640625 0)"/>
     <use xlink:href="#DejaVuSans-Bold-58" transform="translate(1724.84375 0)"/>
     <use xlink:href="#DejaVuSans-Bold-50" transform="translate(1796.03125 0)"/>
    </g>
   </g>
   <g id="text_16">
    <!-- PASS  1.1658 / 20.0 GiB maximum -->
    <g style="fill: #1f2937" transform="translate(165.032989 211.17247) scale(0.084 -0.084)">
     <defs>
      <path id="DejaVuSans-24" d="M 2188 4044
L 1331 1722
L 3047 1722
L 2188 4044
z
M 1831 4666
L 2547 4666
L 4325 0
L 3669 0
L 3244 1197
L 1141 1197
L 716 0
L 50 0
L 1831 4666
z
" transform="scale(0.015625)"/>
      <path id="DejaVuSans-11" d="M 684 794
L 1344 794
L 1344 0
L 684 0
L 684 794
z
" transform="scale(0.015625)"/>
      <path id="DejaVuSans-18" d="M 691 4666
L 3169 4666
L 3169 4134
L 1269 4134
L 1269 2991
Q 1406 3038 1543 3061
Q 1681 3084 1819 3084
Q 2600 3084 3056 2656
Q 3513 2228 3513 1497
Q 3513 744 3044 326
Q 2575 -91 1722 -91
Q 1428 -91 1123 -41
Q 819 9 494 109
L 494 744
Q 775 591 1075 516
Q 1375 441 1709 441
Q 2250 441 2565 725
Q 2881 1009 2881 1497
Q 2881 1984 2565 2268
Q 2250 2553 1709 2553
Q 1456 2553 1204 2497
Q 953 2441 691 2322
L 691 4666
z
" transform="scale(0.015625)"/>
      <path id="DejaVuSans-12" d="M 1625 4666
L 2156 4666
L 531 -594
L 0 -594
L 1625 4666
z
" transform="scale(0.015625)"/>
      <path id="DejaVuSans-2a" d="M 3809 666
L 3809 1919
L 2778 1919
L 2778 2438
L 4434 2438
L 4434 434
Q 4069 175 3628 42
Q 3188 -91 2688 -91
Q 1594 -91 976 548
Q 359 1188 359 2328
Q 359 3472 976 4111
Q 1594 4750 2688 4750
Q 3144 4750 3555 4637
Q 3966 4525 4313 4306
L 4313 3634
Q 3963 3931 3569 4081
Q 3175 4231 2741 4231
Q 1884 4231 1454 3753
Q 1025 3275 1025 2328
Q 1025 1384 1454 906
Q 1884 428 2741 428
Q 3075 428 3337 486
Q 3600 544 3809 666
z
" transform="scale(0.015625)"/>
      <path id="DejaVuSans-25" d="M 1259 2228
L 1259 519
L 2272 519
Q 2781 519 3026 730
Q 3272 941 3272 1375
Q 3272 1813 3026 2020
Q 2781 2228 2272 2228
L 1259 2228
z
M 1259 4147
L 1259 2741
L 2194 2741
Q 2656 2741 2882 2914
Q 3109 3088 3109 3444
Q 3109 3797 2882 3972
Q 2656 4147 2194 4147
L 1259 4147
z
M 628 4666
L 2241 4666
Q 2963 4666 3353 4366
Q 3744 4066 3744 3513
Q 3744 3084 3544 2831
Q 3344 2578 2956 2516
Q 3422 2416 3680 2098
Q 3938 1781 3938 1306
Q 3938 681 3513 340
Q 3088 0 2303 0
L 628 0
L 628 4666
z
" transform="scale(0.015625)"/>
      <path id="DejaVuSans-5b" d="M 3513 3500
L 2247 1797
L 3578 0
L 2900 0
L 1881 1375
L 863 0
L 184 0
L 1544 1831
L 300 3500
L 978 3500
L 1906 2253
L 2834 3500
L 3513 3500
z
" transform="scale(0.015625)"/>
     </defs>
     <use xlink:href="#DejaVuSans-33"/>
     <use xlink:href="#DejaVuSans-24" transform="translate(53.90625 0)"/>
     <use xlink:href="#DejaVuSans-36" transform="translate(122.3125 0)"/>
     <use xlink:href="#DejaVuSans-36" transform="translate(185.796875 0)"/>
     <use xlink:href="#DejaVuSans-3" transform="translate(249.28125 0)"/>
     <use xlink:href="#DejaVuSans-3" transform="translate(281.0625 0)"/>
     <use xlink:href="#DejaVuSans-14" transform="translate(312.84375 0)"/>
     <use xlink:href="#DejaVuSans-11" transform="translate(376.46875 0)"/>
     <use xlink:href="#DejaVuSans-14" transform="translate(408.25 0)"/>
     <use xlink:href="#DejaVuSans-19" transform="translate(471.875 0)"/>
     <use xlink:href="#DejaVuSans-18" transform="translate(535.5 0)"/>
     <use xlink:href="#DejaVuSans-1b" transform="translate(599.125 0)"/>
     <use xlink:href="#DejaVuSans-3" transform="translate(662.75 0)"/>
     <use xlink:href="#DejaVuSans-12" transform="translate(694.53125 0)"/>
     <use xlink:href="#DejaVuSans-3" transform="translate(728.21875 0)"/>
     <use xlink:href="#DejaVuSans-15" transform="translate(760 0)"/>
     <use xlink:href="#DejaVuSans-13" transform="translate(823.625 0)"/>
     <use xlink:href="#DejaVuSans-11" transform="translate(887.25 0)"/>
     <use xlink:href="#DejaVuSans-13" transform="translate(919.03125 0)"/>
     <use xlink:href="#DejaVuSans-3" transform="translate(982.65625 0)"/>
     <use xlink:href="#DejaVuSans-2a" transform="translate(1014.4375 0)"/>
     <use xlink:href="#DejaVuSans-4c" transform="translate(1091.921875 0)"/>
     <use xlink:href="#DejaVuSans-25" transform="translate(1119.703125 0)"/>
     <use xlink:href="#DejaVuSans-3" transform="translate(1188.3125 0)"/>
     <use xlink:href="#DejaVuSans-50" transform="translate(1220.09375 0)"/>
     <use xlink:href="#DejaVuSans-44" transform="translate(1317.5 0)"/>
     <use xlink:href="#DejaVuSans-5b" transform="translate(1378.78125 0)"/>
     <use xlink:href="#DejaVuSans-4c" transform="translate(1437.96875 0)"/>
     <use xlink:href="#DejaVuSans-50" transform="translate(1465.75 0)"/>
     <use xlink:href="#DejaVuSans-58" transform="translate(1563.15625 0)"/>
     <use xlink:href="#DejaVuSans-50" transform="translate(1626.53125 0)"/>
    </g>
   </g>
   <g id="text_17">
    <!-- PASS  0.2014 / 24.0 GiB maximum -->
    <g style="fill: #1f2937" transform="translate(135.171735 277.529078) scale(0.084 -0.084)">
     <defs>
      <path id="DejaVuSans-Bold-2a" d="M 4781 347
Q 4331 128 3847 18
Q 3363 -91 2847 -91
Q 1681 -91 1000 561
Q 319 1213 319 2328
Q 319 3456 1012 4103
Q 1706 4750 2913 4750
Q 3378 4750 3804 4662
Q 4231 4575 4609 4403
L 4609 3438
Q 4219 3659 3833 3768
Q 3447 3878 3059 3878
Q 2341 3878 1952 3476
Q 1563 3075 1563 2328
Q 1563 1588 1938 1184
Q 2313 781 3003 781
Q 3191 781 3352 804
Q 3513 828 3641 878
L 3641 1784
L 2906 1784
L 2906 2591
L 4781 2591
L 4781 347
z
" transform="scale(0.015625)"/>
      <path id="DejaVuSans-Bold-25" d="M 2456 2859
Q 2741 2859 2887 2984
Q 3034 3109 3034 3353
Q 3034 3594 2887 3720
Q 2741 3847 2456 3847
L 1791 3847
L 1791 2859
L 2456 2859
z
M 2497 819
Q 2859 819 3042 972
Q 3225 1125 3225 1434
Q 3225 1738 3044 1889
Q 2863 2041 2497 2041
L 1791 2041
L 1791 819
L 2497 819
z
M 3616 2497
Q 4003 2384 4215 2081
Q 4428 1778 4428 1338
Q 4428 663 3972 331
Q 3516 0 2584 0
L 588 0
L 588 4666
L 2394 4666
Q 3366 4666 3802 4372
Q 4238 4078 4238 3431
Q 4238 3091 4078 2852
Q 3919 2613 3616 2497
z
" transform="scale(0.015625)"/>
     </defs>
     <use xlink:href="#DejaVuSans-Bold-33"/>
     <use xlink:href="#DejaVuSans-Bold-24" transform="translate(64.125 0)"/>
     <use xlink:href="#DejaVuSans-Bold-36" transform="translate(141.515625 0)"/>
     <use xlink:href="#DejaVuSans-Bold-36" transform="translate(209.046875 0)"/>
     <use xlink:href="#DejaVuSans-Bold-3" transform="translate(281.0625 0)"/>
     <use xlink:href="#DejaVuSans-Bold-3" transform="translate(315.875 0)"/>
     <use xlink:href="#DejaVuSans-Bold-13" transform="translate(350.6875 0)"/>
     <use xlink:href="#DejaVuSans-Bold-11" transform="translate(420.265625 0)"/>
     <use xlink:href="#DejaVuSans-Bold-15" transform="translate(458.25 0)"/>
     <use xlink:href="#DejaVuSans-Bold-13" transform="translate(527.828125 0)"/>
     <use xlink:href="#DejaVuSans-Bold-14" transform="translate(597.40625 0)"/>
     <use xlink:href="#DejaVuSans-Bold-17" transform="translate(666.984375 0)"/>
     <use xlink:href="#DejaVuSans-Bold-3" transform="translate(736.5625 0)"/>
     <use xlink:href="#DejaVuSans-Bold-12" transform="translate(771.375 0)"/>
     <use xlink:href="#DejaVuSans-Bold-3" transform="translate(807.90625 0)"/>
     <use xlink:href="#DejaVuSans-Bold-15" transform="translate(842.71875 0)"/>
     <use xlink:href="#DejaVuSans-Bold-17" transform="translate(912.296875 0)"/>
     <use xlink:href="#DejaVuSans-Bold-11" transform="translate(981.875 0)"/>
     <use xlink:href="#DejaVuSans-Bold-13" transform="translate(1019.859375 0)"/>
     <use xlink:href="#DejaVuSans-Bold-3" transform="translate(1089.4375 0)"/>
     <use xlink:href="#DejaVuSans-Bold-2a" transform="translate(1124.25 0)"/>
     <use xlink:href="#DejaVuSans-Bold-4c" transform="translate(1206.328125 0)"/>
     <use xlink:href="#DejaVuSans-Bold-25" transform="translate(1240.609375 0)"/>
     <use xlink:href="#DejaVuSans-Bold-3" transform="translate(1316.828125 0)"/>
     <use xlink:href="#DejaVuSans-Bold-50" transform="translate(1351.640625 0)"/>
     <use xlink:href="#DejaVuSans-Bold-44" transform="translate(1455.84375 0)"/>
     <use xlink:href="#DejaVuSans-Bold-5b" transform="translate(1523.328125 0)"/>
     <use xlink:href="#DejaVuSans-Bold-4c" transform="translate(1587.828125 0)"/>
     <use xlink:href="#DejaVuSans-Bold-50" transform="translate(1622.109375 0)"/>
     <use xlink:href="#DejaVuSans-Bold-58" transform="translate(1726.3125 0)"/>
     <use xlink:href="#DejaVuSans-Bold-50" transform="translate(1797.5 0)"/>
    </g>
   </g>
   <g id="text_18">
    <!-- PASS  53.7426 / 20.0 GiB minimum -->
    <g style="fill: #1f2937" transform="translate(352.861184 343.885687) scale(0.084 -0.084)">
     <defs>
      <path id="DejaVuSans-16" d="M 2597 2516
Q 3050 2419 3304 2112
Q 3559 1806 3559 1356
Q 3559 666 3084 287
Q 2609 -91 1734 -91
Q 1441 -91 1130 -33
Q 819 25 488 141
L 488 750
Q 750 597 1062 519
Q 1375 441 1716 441
Q 2309 441 2620 675
Q 2931 909 2931 1356
Q 2931 1769 2642 2001
Q 2353 2234 1838 2234
L 1294 2234
L 1294 2753
L 1863 2753
Q 2328 2753 2575 2939
Q 2822 3125 2822 3475
Q 2822 3834 2567 4026
Q 2313 4219 1838 4219
Q 1578 4219 1281 4162
Q 984 4106 628 3988
L 628 4550
Q 988 4650 1302 4700
Q 1616 4750 1894 4750
Q 2613 4750 3031 4423
Q 3450 4097 3450 3541
Q 3450 3153 3228 2886
Q 3006 2619 2597 2516
z
" transform="scale(0.015625)"/>
      <path id="DejaVuSans-1a" d="M 525 4666
L 3525 4666
L 3525 4397
L 1831 0
L 1172 0
L 2766 4134
L 525 4134
L 525 4666
z
" transform="scale(0.015625)"/>
     </defs>
     <use xlink:href="#DejaVuSans-33"/>
     <use xlink:href="#DejaVuSans-24" transform="translate(53.90625 0)"/>
     <use xlink:href="#DejaVuSans-36" transform="translate(122.3125 0)"/>
     <use xlink:href="#DejaVuSans-36" transform="translate(185.796875 0)"/>
     <use xlink:href="#DejaVuSans-3" transform="translate(249.28125 0)"/>
     <use xlink:href="#DejaVuSans-3" transform="translate(281.0625 0)"/>
     <use xlink:href="#DejaVuSans-18" transform="translate(312.84375 0)"/>
     <use xlink:href="#DejaVuSans-16" transform="translate(376.46875 0)"/>
     <use xlink:href="#DejaVuSans-11" transform="translate(440.09375 0)"/>
     <use xlink:href="#DejaVuSans-1a" transform="translate(471.875 0)"/>
     <use xlink:href="#DejaVuSans-17" transform="translate(535.5 0)"/>
     <use xlink:href="#DejaVuSans-15" transform="translate(599.125 0)"/>
     <use xlink:href="#DejaVuSans-19" transform="translate(662.75 0)"/>
     <use xlink:href="#DejaVuSans-3" transform="translate(726.375 0)"/>
     <use xlink:href="#DejaVuSans-12" transform="translate(758.15625 0)"/>
     <use xlink:href="#DejaVuSans-3" transform="translate(791.84375 0)"/>
     <use xlink:href="#DejaVuSans-15" transform="translate(823.625 0)"/>
     <use xlink:href="#DejaVuSans-13" transform="translate(887.25 0)"/>
     <use xlink:href="#DejaVuSans-11" transform="translate(950.875 0)"/>
     <use xlink:href="#DejaVuSans-13" transform="translate(982.65625 0)"/>
     <use xlink:href="#DejaVuSans-3" transform="translate(1046.28125 0)"/>
     <use xlink:href="#DejaVuSans-2a" transform="translate(1078.0625 0)"/>
     <use xlink:href="#DejaVuSans-4c" transform="translate(1155.546875 0)"/>
     <use xlink:href="#DejaVuSans-25" transform="translate(1183.328125 0)"/>
     <use xlink:href="#DejaVuSans-3" transform="translate(1251.9375 0)"/>
     <use xlink:href="#DejaVuSans-50" transform="translate(1283.71875 0)"/>
     <use xlink:href="#DejaVuSans-4c" transform="translate(1381.125 0)"/>
     <use xlink:href="#DejaVuSans-51" transform="translate(1408.90625 0)"/>
     <use xlink:href="#DejaVuSans-4c" transform="translate(1472.28125 0)"/>
     <use xlink:href="#DejaVuSans-50" transform="translate(1500.0625 0)"/>
     <use xlink:href="#DejaVuSans-58" transform="translate(1597.46875 0)"/>
     <use xlink:href="#DejaVuSans-50" transform="translate(1660.84375 0)"/>
    </g>
   </g>
   <g id="text_19">
    <!-- Conservative 477.5-work-unit projection with 25% margin; lower pressure means more headroom -->
    <g style="fill: #5b6573" transform="translate(119.377813 31.318088) scale(0.09 -0.09)">
     <defs>
      <path id="DejaVuSans-59" d="M 191 3500
L 800 3500
L 1894 563
L 2988 3500
L 3597 3500
L 2284 0
L 1503 0
L 191 3500
z
" transform="scale(0.015625)"/>
      <path id="DejaVuSans-4d" d="M 603 3500
L 1178 3500
L 1178 -63
Q 1178 -731 923 -1031
Q 669 -1331 103 -1331
L -116 -1331
L -116 -844
L 38 -844
Q 366 -844 484 -692
Q 603 -541 603 -63
L 603 3500
z
M 603 4863
L 1178 4863
L 1178 4134
L 603 4134
L 603 4863
z
" transform="scale(0.015625)"/>
      <path id="DejaVuSans-4a" d="M 2906 1791
Q 2906 2416 2648 2759
Q 2391 3103 1925 3103
Q 1463 3103 1205 2759
Q 947 2416 947 1791
Q 947 1169 1205 825
Q 1463 481 1925 481
Q 2391 481 2648 825
Q 2906 1169 2906 1791
z
M 3481 434
Q 3481 -459 3084 -895
Q 2688 -1331 1869 -1331
Q 1566 -1331 1297 -1286
Q 1028 -1241 775 -1147
L 775 -588
Q 1028 -725 1275 -790
Q 1522 -856 1778 -856
Q 2344 -856 2625 -561
Q 2906 -266 2906 331
L 2906 616
Q 2728 306 2450 153
Q 2172 0 1784 0
Q 1141 0 747 490
Q 353 981 353 1791
Q 353 2603 747 3093
Q 1141 3584 1784 3584
Q 2172 3584 2450 3431
Q 2728 3278 2906 2969
L 2906 3500
L 3481 3500
L 3481 434
z
" transform="scale(0.015625)"/>
      <path id="DejaVuSans-1e" d="M 750 3309
L 1409 3309
L 1409 2516
L 750 2516
L 750 3309
z
M 750 794
L 1409 794
L 1409 256
L 897 -744
L 494 -744
L 750 256
L 750 794
z
" transform="scale(0.015625)"/>
     </defs>
     <use xlink:href="#DejaVuSans-26"/>
     <use xlink:href="#DejaVuSans-52" transform="translate(69.828125 0)"/>
     <use xlink:href="#DejaVuSans-51" transform="translate(131.015625 0)"/>
     <use xlink:href="#DejaVuSans-56" transform="translate(194.390625 0)"/>
     <use xlink:href="#DejaVuSans-48" transform="translate(246.484375 0)"/>
     <use xlink:href="#DejaVuSans-55" transform="translate(308.015625 0)"/>
     <use xlink:href="#DejaVuSans-59" transform="translate(349.125 0)"/>
     <use xlink:href="#DejaVuSans-44" transform="translate(408.3125 0)"/>
     <use xlink:href="#DejaVuSans-57" transform="translate(469.59375 0)"/>
     <use xlink:href="#DejaVuSans-4c" transform="translate(508.796875 0)"/>
     <use xlink:href="#DejaVuSans-59" transform="translate(536.578125 0)"/>
     <use xlink:href="#DejaVuSans-48" transform="translate(595.765625 0)"/>
     <use xlink:href="#DejaVuSans-3" transform="translate(657.296875 0)"/>
     <use xlink:href="#DejaVuSans-17" transform="translate(689.078125 0)"/>
     <use xlink:href="#DejaVuSans-1a" transform="translate(752.703125 0)"/>
     <use xlink:href="#DejaVuSans-1a" transform="translate(816.328125 0)"/>
     <use xlink:href="#DejaVuSans-11" transform="translate(879.953125 0)"/>
     <use xlink:href="#DejaVuSans-18" transform="translate(911.734375 0)"/>
     <use xlink:href="#DejaVuSans-10" transform="translate(975.359375 0)"/>
     <use xlink:href="#DejaVuSans-5a" transform="translate(1011.4375 0)"/>
     <use xlink:href="#DejaVuSans-52" transform="translate(1093.21875 0)"/>
     <use xlink:href="#DejaVuSans-55" transform="translate(1154.40625 0)"/>
     <use xlink:href="#DejaVuSans-4e" transform="translate(1195.515625 0)"/>
     <use xlink:href="#DejaVuSans-10" transform="translate(1253.421875 0)"/>
     <use xlink:href="#DejaVuSans-58" transform="translate(1289.5 0)"/>
     <use xlink:href="#DejaVuSans-51" transform="translate(1352.875 0)"/>
     <use xlink:href="#DejaVuSans-4c" transform="translate(1416.25 0)"/>
     <use xlink:href="#DejaVuSans-57" transform="translate(1444.03125 0)"/>
     <use xlink:href="#DejaVuSans-3" transform="translate(1483.234375 0)"/>
     <use xlink:href="#DejaVuSans-53" transform="translate(1515.015625 0)"/>
     <use xlink:href="#DejaVuSans-55" transform="translate(1578.5 0)"/>
     <use xlink:href="#DejaVuSans-52" transform="translate(1617.40625 0)"/>
     <use xlink:href="#DejaVuSans-4d" transform="translate(1678.59375 0)"/>
     <use xlink:href="#DejaVuSans-48" transform="translate(1706.375 0)"/>
     <use xlink:href="#DejaVuSans-46" transform="translate(1767.90625 0)"/>
     <use xlink:href="#DejaVuSans-57" transform="translate(1822.890625 0)"/>
     <use xlink:href="#DejaVuSans-4c" transform="translate(1862.09375 0)"/>
     <use xlink:href="#DejaVuSans-52" transform="translate(1889.875 0)"/>
     <use xlink:href="#DejaVuSans-51" transform="translate(1951.0625 0)"/>
     <use xlink:href="#DejaVuSans-3" transform="translate(2014.4375 0)"/>
     <use xlink:href="#DejaVuSans-5a" transform="translate(2046.21875 0)"/>
     <use xlink:href="#DejaVuSans-4c" transform="translate(2128 0)"/>
     <use xlink:href="#DejaVuSans-57" transform="translate(2155.78125 0)"/>
     <use xlink:href="#DejaVuSans-4b" transform="translate(2194.984375 0)"/>
     <use xlink:href="#DejaVuSans-3" transform="translate(2258.359375 0)"/>
     <use xlink:href="#DejaVuSans-15" transform="translate(2290.140625 0)"/>
     <use xlink:href="#DejaVuSans-18" transform="translate(2353.765625 0)"/>
     <use xlink:href="#DejaVuSans-8" transform="translate(2417.390625 0)"/>
     <use xlink:href="#DejaVuSans-3" transform="translate(2512.40625 0)"/>
     <use xlink:href="#DejaVuSans-50" transform="translate(2544.1875 0)"/>
     <use xlink:href="#DejaVuSans-44" transform="translate(2641.59375 0)"/>
     <use xlink:href="#DejaVuSans-55" transform="translate(2702.875 0)"/>
     <use xlink:href="#DejaVuSans-4a" transform="translate(2742.234375 0)"/>
     <use xlink:href="#DejaVuSans-4c" transform="translate(2805.71875 0)"/>
     <use xlink:href="#DejaVuSans-51" transform="translate(2833.5 0)"/>
     <use xlink:href="#DejaVuSans-1e" transform="translate(2896.875 0)"/>
     <use xlink:href="#DejaVuSans-3" transform="translate(2930.5625 0)"/>
     <use xlink:href="#DejaVuSans-4f" transform="translate(2962.34375 0)"/>
     <use xlink:href="#DejaVuSans-52" transform="translate(2990.125 0)"/>
     <use xlink:href="#DejaVuSans-5a" transform="translate(3051.3125 0)"/>
     <use xlink:href="#DejaVuSans-48" transform="translate(3133.09375 0)"/>
     <use xlink:href="#DejaVuSans-55" transform="translate(3194.625 0)"/>
     <use xlink:href="#DejaVuSans-3" transform="translate(3235.734375 0)"/>
     <use xlink:href="#DejaVuSans-53" transform="translate(3267.515625 0)"/>
     <use xlink:href="#DejaVuSans-55" transform="translate(3331 0)"/>
     <use xlink:href="#DejaVuSans-48" transform="translate(3369.90625 0)"/>
     <use xlink:href="#DejaVuSans-56" transform="translate(3431.4375 0)"/>
     <use xlink:href="#DejaVuSans-56" transform="translate(3483.53125 0)"/>
     <use xlink:href="#DejaVuSans-58" transform="translate(3535.625 0)"/>
     <use xlink:href="#DejaVuSans-55" transform="translate(3599 0)"/>
     <use xlink:href="#DejaVuSans-48" transform="translate(3637.90625 0)"/>
     <use xlink:href="#DejaVuSans-3" transform="translate(3699.4375 0)"/>
     <use xlink:href="#DejaVuSans-50" transform="translate(3731.21875 0)"/>
     <use xlink:href="#DejaVuSans-48" transform="translate(3828.625 0)"/>
     <use xlink:href="#DejaVuSans-44" transform="translate(3890.15625 0)"/>
     <use xlink:href="#DejaVuSans-51" transform="translate(3951.4375 0)"/>
     <use xlink:href="#DejaVuSans-56" transform="translate(4014.8125 0)"/>
     <use xlink:href="#DejaVuSans-3" transform="translate(4066.90625 0)"/>
     <use xlink:href="#DejaVuSans-50" transform="translate(4098.6875 0)"/>
     <use xlink:href="#DejaVuSans-52" transform="translate(4196.09375 0)"/>
     <use xlink:href="#DejaVuSans-55" transform="translate(4257.28125 0)"/>
     <use xlink:href="#DejaVuSans-48" transform="translate(4296.1875 0)"/>
     <use xlink:href="#DejaVuSans-3" transform="translate(4357.71875 0)"/>
     <use xlink:href="#DejaVuSans-4b" transform="translate(4389.5 0)"/>
     <use xlink:href="#DejaVuSans-48" transform="translate(4452.875 0)"/>
     <use xlink:href="#DejaVuSans-44" transform="translate(4514.40625 0)"/>
     <use xlink:href="#DejaVuSans-47" transform="translate(4575.6875 0)"/>
     <use xlink:href="#DejaVuSans-55" transform="translate(4639.171875 0)"/>
     <use xlink:href="#DejaVuSans-52" transform="translate(4678.078125 0)"/>
     <use xlink:href="#DejaVuSans-52" transform="translate(4739.265625 0)"/>
     <use xlink:href="#DejaVuSans-50" transform="translate(4800.453125 0)"/>
    </g>
   </g>
   <g id="text_20">
    <!-- Free-disk pressure is minimum required / projected available; all other bars are projected or observed / maximum. -->
    <g style="fill: #5b6573" transform="translate(119.377813 440.586502) scale(0.078 -0.078)">
     <use xlink:href="#DejaVuSans-29"/>
     <use xlink:href="#DejaVuSans-55" transform="translate(50.234375 0)"/>
     <use xlink:href="#DejaVuSans-48" transform="translate(89.140625 0)"/>
     <use xlink:href="#DejaVuSans-48" transform="translate(150.671875 0)"/>
     <use xlink:href="#DejaVuSans-10" transform="translate(212.203125 0)"/>
     <use xlink:href="#DejaVuSans-47" transform="translate(248.28125 0)"/>
     <use xlink:href="#DejaVuSans-4c" transform="translate(311.765625 0)"/>
     <use xlink:href="#DejaVuSans-56" transform="translate(339.546875 0)"/>
     <use xlink:href="#DejaVuSans-4e" transform="translate(391.640625 0)"/>
     <use xlink:href="#DejaVuSans-3" transform="translate(449.546875 0)"/>
     <use xlink:href="#DejaVuSans-53" transform="translate(481.328125 0)"/>
     <use xlink:href="#DejaVuSans-55" transform="translate(544.8125 0)"/>
     <use xlink:href="#DejaVuSans-48" transform="translate(583.71875 0)"/>
     <use xlink:href="#DejaVuSans-56" transform="translate(645.25 0)"/>
     <use xlink:href="#DejaVuSans-56" transform="translate(697.34375 0)"/>
     <use xlink:href="#DejaVuSans-58" transform="translate(749.4375 0)"/>
     <use xlink:href="#DejaVuSans-55" transform="translate(812.8125 0)"/>
     <use xlink:href="#DejaVuSans-48" transform="translate(851.71875 0)"/>
     <use xlink:href="#DejaVuSans-3" transform="translate(913.25 0)"/>
     <use xlink:href="#DejaVuSans-4c" transform="translate(945.03125 0)"/>
     <use xlink:href="#DejaVuSans-56" transform="translate(972.8125 0)"/>
     <use xlink:href="#DejaVuSans-3" transform="translate(1024.90625 0)"/>
     <use xlink:href="#DejaVuSans-50" transform="translate(1056.6875 0)"/>
     <use xlink:href="#DejaVuSans-4c" transform="translate(1154.09375 0)"/>
     <use xlink:href="#DejaVuSans-51" transform="translate(1181.875 0)"/>
     <use xlink:href="#DejaVuSans-4c" transform="translate(1245.25 0)"/>
     <use xlink:href="#DejaVuSans-50" transform="translate(1273.03125 0)"/>
     <use xlink:href="#DejaVuSans-58" transform="translate(1370.4375 0)"/>
     <use xlink:href="#DejaVuSans-50" transform="translate(1433.8125 0)"/>
     <use xlink:href="#DejaVuSans-3" transform="translate(1531.21875 0)"/>
     <use xlink:href="#DejaVuSans-55" transform="translate(1563 0)"/>
     <use xlink:href="#DejaVuSans-48" transform="translate(1601.90625 0)"/>
     <use xlink:href="#DejaVuSans-54" transform="translate(1663.4375 0)"/>
     <use xlink:href="#DejaVuSans-58" transform="translate(1726.921875 0)"/>
     <use xlink:href="#DejaVuSans-4c" transform="translate(1790.296875 0)"/>
     <use xlink:href="#DejaVuSans-55" transform="translate(1818.078125 0)"/>
     <use xlink:href="#DejaVuSans-48" transform="translate(1856.984375 0)"/>
     <use xlink:href="#DejaVuSans-47" transform="translate(1918.515625 0)"/>
     <use xlink:href="#DejaVuSans-3" transform="translate(1982 0)"/>
     <use xlink:href="#DejaVuSans-12" transform="translate(2013.78125 0)"/>
     <use xlink:href="#DejaVuSans-3" transform="translate(2047.46875 0)"/>
     <use xlink:href="#DejaVuSans-53" transform="translate(2079.25 0)"/>
     <use xlink:href="#DejaVuSans-55" transform="translate(2142.734375 0)"/>
     <use xlink:href="#DejaVuSans-52" transform="translate(2181.640625 0)"/>
     <use xlink:href="#DejaVuSans-4d" transform="translate(2242.828125 0)"/>
     <use xlink:href="#DejaVuSans-48" transform="translate(2270.609375 0)"/>
     <use xlink:href="#DejaVuSans-46" transform="translate(2332.140625 0)"/>
     <use xlink:href="#DejaVuSans-57" transform="translate(2387.125 0)"/>
     <use xlink:href="#DejaVuSans-48" transform="translate(2426.328125 0)"/>
     <use xlink:href="#DejaVuSans-47" transform="translate(2487.859375 0)"/>
     <use xlink:href="#DejaVuSans-3" transform="translate(2551.34375 0)"/>
     <use xlink:href="#DejaVuSans-44" transform="translate(2583.125 0)"/>
     <use xlink:href="#DejaVuSans-59" transform="translate(2644.40625 0)"/>
     <use xlink:href="#DejaVuSans-44" transform="translate(2703.59375 0)"/>
     <use xlink:href="#DejaVuSans-4c" transform="translate(2764.875 0)"/>
     <use xlink:href="#DejaVuSans-4f" transform="translate(2792.65625 0)"/>
     <use xlink:href="#DejaVuSans-44" transform="translate(2820.4375 0)"/>
     <use xlink:href="#DejaVuSans-45" transform="translate(2881.71875 0)"/>
     <use xlink:href="#DejaVuSans-4f" transform="translate(2945.203125 0)"/>
     <use xlink:href="#DejaVuSans-48" transform="translate(2972.984375 0)"/>
     <use xlink:href="#DejaVuSans-1e" transform="translate(3034.515625 0)"/>
     <use xlink:href="#DejaVuSans-3" transform="translate(3068.203125 0)"/>
     <use xlink:href="#DejaVuSans-44" transform="translate(3099.984375 0)"/>
     <use xlink:href="#DejaVuSans-4f" transform="translate(3161.265625 0)"/>
     <use xlink:href="#DejaVuSans-4f" transform="translate(3189.046875 0)"/>
     <use xlink:href="#DejaVuSans-3" transform="translate(3216.828125 0)"/>
     <use xlink:href="#DejaVuSans-52" transform="translate(3248.609375 0)"/>
     <use xlink:href="#DejaVuSans-57" transform="translate(3309.796875 0)"/>
     <use xlink:href="#DejaVuSans-4b" transform="translate(3349 0)"/>
     <use xlink:href="#DejaVuSans-48" transform="translate(3412.375 0)"/>
     <use xlink:href="#DejaVuSans-55" transform="translate(3473.90625 0)"/>
     <use xlink:href="#DejaVuSans-3" transform="translate(3515.015625 0)"/>
     <use xlink:href="#DejaVuSans-45" transform="translate(3546.796875 0)"/>
     <use xlink:href="#DejaVuSans-44" transform="translate(3610.28125 0)"/>
     <use xlink:href="#DejaVuSans-55" transform="translate(3671.5625 0)"/>
     <use xlink:href="#DejaVuSans-56" transform="translate(3712.671875 0)"/>
     <use xlink:href="#DejaVuSans-3" transform="translate(3764.765625 0)"/>
     <use xlink:href="#DejaVuSans-44" transform="translate(3796.546875 0)"/>
     <use xlink:href="#DejaVuSans-55" transform="translate(3857.828125 0)"/>
     <use xlink:href="#DejaVuSans-48" transform="translate(3896.734375 0)"/>
     <use xlink:href="#DejaVuSans-3" transform="translate(3958.265625 0)"/>
     <use xlink:href="#DejaVuSans-53" transform="translate(3990.046875 0)"/>
     <use xlink:href="#DejaVuSans-55" transform="translate(4053.53125 0)"/>
     <use xlink:href="#DejaVuSans-52" transform="translate(4092.4375 0)"/>
     <use xlink:href="#DejaVuSans-4d" transform="translate(4153.625 0)"/>
     <use xlink:href="#DejaVuSans-48" transform="translate(4181.40625 0)"/>
     <use xlink:href="#DejaVuSans-46" transform="translate(4242.9375 0)"/>
     <use xlink:href="#DejaVuSans-57" transform="translate(4297.921875 0)"/>
     <use xlink:href="#DejaVuSans-48" transform="translate(4337.125 0)"/>
     <use xlink:href="#DejaVuSans-47" transform="translate(4398.65625 0)"/>
     <use xlink:href="#DejaVuSans-3" transform="translate(4462.140625 0)"/>
     <use xlink:href="#DejaVuSans-52" transform="translate(4493.921875 0)"/>
     <use xlink:href="#DejaVuSans-55" transform="translate(4555.109375 0)"/>
     <use xlink:href="#DejaVuSans-3" transform="translate(4596.21875 0)"/>
     <use xlink:href="#DejaVuSans-52" transform="translate(4628 0)"/>
     <use xlink:href="#DejaVuSans-45" transform="translate(4689.1875 0)"/>
     <use xlink:href="#DejaVuSans-56" transform="translate(4752.671875 0)"/>
     <use xlink:href="#DejaVuSans-48" transform="translate(4804.765625 0)"/>
     <use xlink:href="#DejaVuSans-55" transform="translate(4866.296875 0)"/>
     <use xlink:href="#DejaVuSans-59" transform="translate(4907.40625 0)"/>
     <use xlink:href="#DejaVuSans-48" transform="translate(4966.59375 0)"/>
     <use xlink:href="#DejaVuSans-47" transform="translate(5028.125 0)"/>
     <use xlink:href="#DejaVuSans-3" transform="translate(5091.609375 0)"/>
     <use xlink:href="#DejaVuSans-12" transform="translate(5123.390625 0)"/>
     <use xlink:href="#DejaVuSans-3" transform="translate(5157.078125 0)"/>
     <use xlink:href="#DejaVuSans-50" transform="translate(5188.859375 0)"/>
     <use xlink:href="#DejaVuSans-44" transform="translate(5286.265625 0)"/>
     <use xlink:href="#DejaVuSans-5b" transform="translate(5347.546875 0)"/>
     <use xlink:href="#DejaVuSans-4c" transform="translate(5406.734375 0)"/>
     <use xlink:href="#DejaVuSans-50" transform="translate(5434.515625 0)"/>
     <use xlink:href="#DejaVuSans-58" transform="translate(5531.921875 0)"/>
     <use xlink:href="#DejaVuSans-50" transform="translate(5595.296875 0)"/>
     <use xlink:href="#DejaVuSans-11" transform="translate(5692.703125 0)"/>
    </g>
    <!-- Source commit 882bfd58; synthetic rows only; development/calibration/final reads = 0; GPU and Gate 6 runs = 0. -->
    <g style="fill: #5b6573" transform="translate(119.377813 451.506502) scale(0.078 -0.078)">
     <defs>
      <path id="DejaVuSans-13af" d="M 3431 3500
L 3431 0
L 2853 0
L 2853 3053
L 1275 3053
L 1275 0
L 697 0
L 697 3053
L 147 3053
L 147 3500
L 697 3500
L 697 3744
Q 697 4316 967 4589
Q 1238 4863 1797 4863
L 2375 4863
L 2375 4384
L 1825 4384
Q 1516 4384 1395 4259
Q 1275 4134 1275 3809
L 1275 3500
L 3431 3500
z
M 2853 4856
L 3431 4856
L 3431 4128
L 2853 4128
L 2853 4856
z
" transform="scale(0.015625)"/>
      <path id="DejaVuSans-20" d="M 678 2906
L 4684 2906
L 4684 2381
L 678 2381
L 678 2906
z
M 678 1631
L 4684 1631
L 4684 1100
L 678 1100
L 678 1631
z
" transform="scale(0.015625)"/>
     </defs>
     <use xlink:href="#DejaVuSans-36"/>
     <use xlink:href="#DejaVuSans-52" transform="translate(63.484375 0)"/>
     <use xlink:href="#DejaVuSans-58" transform="translate(124.671875 0)"/>
     <use xlink:href="#DejaVuSans-55" transform="translate(188.046875 0)"/>
     <use xlink:href="#DejaVuSans-46" transform="translate(226.953125 0)"/>
     <use xlink:href="#DejaVuSans-48" transform="translate(281.9375 0)"/>
     <use xlink:href="#DejaVuSans-3" transform="translate(343.46875 0)"/>
     <use xlink:href="#DejaVuSans-46" transform="translate(375.25 0)"/>
     <use xlink:href="#DejaVuSans-52" transform="translate(430.234375 0)"/>
     <use xlink:href="#DejaVuSans-50" transform="translate(491.421875 0)"/>
     <use xlink:href="#DejaVuSans-50" transform="translate(588.828125 0)"/>
     <use xlink:href="#DejaVuSans-4c" transform="translate(686.234375 0)"/>
     <use xlink:href="#DejaVuSans-57" transform="translate(714.015625 0)"/>
     <use xlink:href="#DejaVuSans-3" transform="translate(753.21875 0)"/>
     <use xlink:href="#DejaVuSans-1b" transform="translate(785 0)"/>
     <use xlink:href="#DejaVuSans-1b" transform="translate(848.625 0)"/>
     <use xlink:href="#DejaVuSans-15" transform="translate(912.25 0)"/>
     <use xlink:href="#DejaVuSans-45" transform="translate(975.875 0)"/>
     <use xlink:href="#DejaVuSans-49" transform="translate(1039.359375 0)"/>
     <use xlink:href="#DejaVuSans-47" transform="translate(1074.5625 0)"/>
     <use xlink:href="#DejaVuSans-18" transform="translate(1138.046875 0)"/>
     <use xlink:href="#DejaVuSans-1b" transform="translate(1201.671875 0)"/>
     <use xlink:href="#DejaVuSans-1e" transform="translate(1265.296875 0)"/>
     <use xlink:href="#DejaVuSans-3" transform="translate(1298.984375 0)"/>
     <use xlink:href="#DejaVuSans-56" transform="translate(1330.765625 0)"/>
     <use xlink:href="#DejaVuSans-5c" transform="translate(1382.859375 0)"/>
     <use xlink:href="#DejaVuSans-51" transform="translate(1442.046875 0)"/>
     <use xlink:href="#DejaVuSans-57" transform="translate(1505.421875 0)"/>
     <use xlink:href="#DejaVuSans-4b" transform="translate(1544.625 0)"/>
     <use xlink:href="#DejaVuSans-48" transform="translate(1608 0)"/>
     <use xlink:href="#DejaVuSans-57" transform="translate(1669.53125 0)"/>
     <use xlink:href="#DejaVuSans-4c" transform="translate(1708.734375 0)"/>
     <use xlink:href="#DejaVuSans-46" transform="translate(1736.515625 0)"/>
     <use xlink:href="#DejaVuSans-3" transform="translate(1791.5 0)"/>
     <use xlink:href="#DejaVuSans-55" transform="translate(1823.28125 0)"/>
     <use xlink:href="#DejaVuSans-52" transform="translate(1862.1875 0)"/>
     <use xlink:href="#DejaVuSans-5a" transform="translate(1923.375 0)"/>
     <use xlink:href="#DejaVuSans-56" transform="translate(2005.15625 0)"/>
     <use xlink:href="#DejaVuSans-3" transform="translate(2057.25 0)"/>
     <use xlink:href="#DejaVuSans-52" transform="translate(2089.03125 0)"/>
     <use xlink:href="#DejaVuSans-51" transform="translate(2150.21875 0)"/>
     <use xlink:href="#DejaVuSans-4f" transform="translate(2213.59375 0)"/>
     <use xlink:href="#DejaVuSans-5c" transform="translate(2241.375 0)"/>
     <use xlink:href="#DejaVuSans-1e" transform="translate(2300.5625 0)"/>
     <use xlink:href="#DejaVuSans-3" transform="translate(2334.25 0)"/>
     <use xlink:href="#DejaVuSans-47" transform="translate(2366.03125 0)"/>
     <use xlink:href="#DejaVuSans-48" transform="translate(2429.515625 0)"/>
     <use xlink:href="#DejaVuSans-59" transform="translate(2491.046875 0)"/>
     <use xlink:href="#DejaVuSans-48" transform="translate(2550.234375 0)"/>
     <use xlink:href="#DejaVuSans-4f" transform="translate(2611.765625 0)"/>
     <use xlink:href="#DejaVuSans-52" transform="translate(2639.546875 0)"/>
     <use xlink:href="#DejaVuSans-53" transform="translate(2700.734375 0)"/>
     <use xlink:href="#DejaVuSans-50" transform="translate(2764.21875 0)"/>
     <use xlink:href="#DejaVuSans-48" transform="translate(2861.625 0)"/>
     <use xlink:href="#DejaVuSans-51" transform="translate(2923.15625 0)"/>
     <use xlink:href="#DejaVuSans-57" transform="translate(2986.53125 0)"/>
     <use xlink:href="#DejaVuSans-12" transform="translate(3025.734375 0)"/>
     <use xlink:href="#DejaVuSans-46" transform="translate(3059.421875 0)"/>
     <use xlink:href="#DejaVuSans-44" transform="translate(3114.40625 0)"/>
     <use xlink:href="#DejaVuSans-4f" transform="translate(3175.6875 0)"/>
     <use xlink:href="#DejaVuSans-4c" transform="translate(3203.46875 0)"/>
     <use xlink:href="#DejaVuSans-45" transform="translate(3231.25 0)"/>
     <use xlink:href="#DejaVuSans-55" transform="translate(3294.734375 0)"/>
     <use xlink:href="#DejaVuSans-44" transform="translate(3335.84375 0)"/>
     <use xlink:href="#DejaVuSans-57" transform="translate(3397.125 0)"/>
     <use xlink:href="#DejaVuSans-4c" transform="translate(3436.328125 0)"/>
     <use xlink:href="#DejaVuSans-52" transform="translate(3464.109375 0)"/>
     <use xlink:href="#DejaVuSans-51" transform="translate(3525.296875 0)"/>
     <use xlink:href="#DejaVuSans-12" transform="translate(3588.671875 0)"/>
     <use xlink:href="#DejaVuSans-13af" transform="translate(3622.359375 0)"/>
     <use xlink:href="#DejaVuSans-51" transform="translate(3685.34375 0)"/>
     <use xlink:href="#DejaVuSans-44" transform="translate(3748.71875 0)"/>
     <use xlink:href="#DejaVuSans-4f" transform="translate(3810 0)"/>
     <use xlink:href="#DejaVuSans-3" transform="translate(3837.78125 0)"/>
     <use xlink:href="#DejaVuSans-55" transform="translate(3869.5625 0)"/>
     <use xlink:href="#DejaVuSans-48" transform="translate(3908.46875 0)"/>
     <use xlink:href="#DejaVuSans-44" transform="translate(3970 0)"/>
     <use xlink:href="#DejaVuSans-47" transform="translate(4031.28125 0)"/>
     <use xlink:href="#DejaVuSans-56" transform="translate(4094.765625 0)"/>
     <use xlink:href="#DejaVuSans-3" transform="translate(4146.859375 0)"/>
     <use xlink:href="#DejaVuSans-20" transform="translate(4178.640625 0)"/>
     <use xlink:href="#DejaVuSans-3" transform="translate(4262.4375 0)"/>
     <use xlink:href="#DejaVuSans-13" transform="translate(4294.21875 0)"/>
     <use xlink:href="#DejaVuSans-1e" transform="translate(4357.84375 0)"/>
     <use xlink:href="#DejaVuSans-3" transform="translate(4391.53125 0)"/>
     <use xlink:href="#DejaVuSans-2a" transform="translate(4423.3125 0)"/>
     <use xlink:href="#DejaVuSans-33" transform="translate(4500.796875 0)"/>
     <use xlink:href="#DejaVuSans-38" transform="translate(4561.09375 0)"/>
     <use xlink:href="#DejaVuSans-3" transform="translate(4634.28125 0)"/>
     <use xlink:href="#DejaVuSans-44" transform="translate(4666.0625 0)"/>
     <use xlink:href="#DejaVuSans-51" transform="translate(4727.34375 0)"/>
     <use xlink:href="#DejaVuSans-47" transform="translate(4790.71875 0)"/>
     <use xlink:href="#DejaVuSans-3" transform="translate(4854.203125 0)"/>
     <use xlink:href="#DejaVuSans-2a" transform="translate(4885.984375 0)"/>
     <use xlink:href="#DejaVuSans-44" transform="translate(4963.46875 0)"/>
     <use xlink:href="#DejaVuSans-57" transform="translate(5024.75 0)"/>
     <use xlink:href="#DejaVuSans-48" transform="translate(5063.953125 0)"/>
     <use xlink:href="#DejaVuSans-3" transform="translate(5125.484375 0)"/>
     <use xlink:href="#DejaVuSans-19" transform="translate(5157.265625 0)"/>
     <use xlink:href="#DejaVuSans-3" transform="translate(5220.890625 0)"/>
     <use xlink:href="#DejaVuSans-55" transform="translate(5252.671875 0)"/>
     <use xlink:href="#DejaVuSans-58" transform="translate(5293.78125 0)"/>
     <use xlink:href="#DejaVuSans-51" transform="translate(5357.15625 0)"/>
     <use xlink:href="#DejaVuSans-56" transform="translate(5420.53125 0)"/>
     <use xlink:href="#DejaVuSans-3" transform="translate(5472.625 0)"/>
     <use xlink:href="#DejaVuSans-20" transform="translate(5504.40625 0)"/>
     <use xlink:href="#DejaVuSans-3" transform="translate(5588.203125 0)"/>
     <use xlink:href="#DejaVuSans-13" transform="translate(5619.984375 0)"/>
     <use xlink:href="#DejaVuSans-11" transform="translate(5683.609375 0)"/>
    </g>
   </g>
   <g id="text_21">
    <!-- D010 synthetic compute admission: PASS -->
    <g style="fill: #1f2937" transform="translate(119.377813 17.837812) scale(0.14 -0.14)">
     <defs>
      <path id="DejaVuSans-Bold-27" d="M 1791 3756
L 1791 909
L 2222 909
Q 2959 909 3348 1275
Q 3738 1641 3738 2338
Q 3738 3031 3350 3393
Q 2963 3756 2222 3756
L 1791 3756
z
M 588 4666
L 1856 4666
Q 2919 4666 3439 4514
Q 3959 4363 4331 4000
Q 4659 3684 4818 3271
Q 4978 2859 4978 2338
Q 4978 1809 4818 1395
Q 4659 981 4331 666
Q 3956 303 3431 151
Q 2906 0 1856 0
L 588 0
L 588 4666
z
" transform="scale(0.015625)"/>
      <path id="DejaVuSans-Bold-1d" d="M 716 3500
L 1844 3500
L 1844 2291
L 716 2291
L 716 3500
z
M 716 1209
L 1844 1209
L 1844 0
L 716 0
L 716 1209
z
" transform="scale(0.015625)"/>
     </defs>
     <use xlink:href="#DejaVuSans-Bold-27"/>
     <use xlink:href="#DejaVuSans-Bold-13" transform="translate(83.015625 0)"/>
     <use xlink:href="#DejaVuSans-Bold-14" transform="translate(152.59375 0)"/>
     <use xlink:href="#DejaVuSans-Bold-13" transform="translate(222.171875 0)"/>
     <use xlink:href="#DejaVuSans-Bold-3" transform="translate(291.75 0)"/>
     <use xlink:href="#DejaVuSans-Bold-56" transform="translate(326.5625 0)"/>
     <use xlink:href="#DejaVuSans-Bold-5c" transform="translate(386.078125 0)"/>
     <use xlink:href="#DejaVuSans-Bold-51" transform="translate(451.265625 0)"/>
     <use xlink:href="#DejaVuSans-Bold-57" transform="translate(522.453125 0)"/>
     <use xlink:href="#DejaVuSans-Bold-4b" transform="translate(570.25 0)"/>
     <use xlink:href="#DejaVuSans-Bold-48" transform="translate(641.4375 0)"/>
     <use xlink:href="#DejaVuSans-Bold-57" transform="translate(709.265625 0)"/>
     <use xlink:href="#DejaVuSans-Bold-4c" transform="translate(757.0625 0)"/>
     <use xlink:href="#DejaVuSans-Bold-46" transform="translate(791.34375 0)"/>
     <use xlink:href="#DejaVuSans-Bold-3" transform="translate(850.625 0)"/>
     <use xlink:href="#DejaVuSans-Bold-46" transform="translate(885.4375 0)"/>
     <use xlink:href="#DejaVuSans-Bold-52" transform="translate(944.71875 0)"/>
     <use xlink:href="#DejaVuSans-Bold-50" transform="translate(1013.421875 0)"/>
     <use xlink:href="#DejaVuSans-Bold-53" transform="translate(1117.625 0)"/>
     <use xlink:href="#DejaVuSans-Bold-58" transform="translate(1189.203125 0)"/>
     <use xlink:href="#DejaVuSans-Bold-57" transform="translate(1260.390625 0)"/>
     <use xlink:href="#DejaVuSans-Bold-48" transform="translate(1308.1875 0)"/>
     <use xlink:href="#DejaVuSans-Bold-3" transform="translate(1376.015625 0)"/>
     <use xlink:href="#DejaVuSans-Bold-44" transform="translate(1410.828125 0)"/>
     <use xlink:href="#DejaVuSans-Bold-47" transform="translate(1478.3125 0)"/>
     <use xlink:href="#DejaVuSans-Bold-50" transform="translate(1549.890625 0)"/>
     <use xlink:href="#DejaVuSans-Bold-4c" transform="translate(1654.09375 0)"/>
     <use xlink:href="#DejaVuSans-Bold-56" transform="translate(1688.375 0)"/>
     <use xlink:href="#DejaVuSans-Bold-56" transform="translate(1747.890625 0)"/>
     <use xlink:href="#DejaVuSans-Bold-4c" transform="translate(1807.40625 0)"/>
     <use xlink:href="#DejaVuSans-Bold-52" transform="translate(1841.6875 0)"/>
     <use xlink:href="#DejaVuSans-Bold-51" transform="translate(1910.390625 0)"/>
     <use xlink:href="#DejaVuSans-Bold-1d" transform="translate(1981.578125 0)"/>
     <use xlink:href="#DejaVuSans-Bold-3" transform="translate(2021.5625 0)"/>
     <use xlink:href="#DejaVuSans-Bold-33" transform="translate(2056.375 0)"/>
     <use xlink:href="#DejaVuSans-Bold-24" transform="translate(2120.5 0)"/>
     <use xlink:href="#DejaVuSans-Bold-36" transform="translate(2197.890625 0)"/>
     <use xlink:href="#DejaVuSans-Bold-36" transform="translate(2265.421875 0)"/>
    </g>
   </g>
  </g>
 </g>
 <defs>
  <clipPath id="p1bd9fe5df1">
   <rect x="119.377813" y="41.837812" width="688.221707" height="334.304595"/>
  </clipPath>
 </defs>
</svg>
