<?xml version="1.0" encoding="utf-8" standalone="no"?>
<!DOCTYPE svg PUBLIC "-//W3C//DTD SVG 1.1//EN"
  "http://www.w3.org/Graphics/SVG/1.1/DTD/svg11.dtd">
<svg xmlns:xlink="http://www.w3.org/1999/xlink" width="872.39952pt" height="417.193588pt" viewBox="0 0 872.39952 417.193588" xmlns="http://www.w3.org/2000/svg" version="1.1">
 <metadata>
  <rdf:RDF xmlns:dc="http://purl.org/dc/elements/1.1/" xmlns:cc="http://creativecommons.org/ns#" xmlns:rdf="http://www.w3.org/1999/02/22-rdf-syntax-ns#">
   <cc:Work>
    <dc:type rdf:resource="http://purl.org/dc/dcmitype/StillImage"/>
    <dc:format>image/svg+xml</dc:format>
    <dc:creator>
     <cc:Agent>
      <dc:title>QMLforArtemisIV D011 figure generator</dc:title>
     </cc:Agent>
    </dc:creator>
   </cc:Work>
  </rdf:RDF>
 </metadata>
 <defs>
  <style type="text/css">*{stroke-linejoin: round; stroke-linecap: butt}</style>
 </defs>
 <g id="figure_1">
  <g id="patch_1">
   <path d="M 0 417.193588
L 872.39952 417.193588
L 872.39952 0
L 0 0
z
" style="fill: #ffffff"/>
  </g>
  <g id="axes_1">
   <g id="patch_2">
    <path d="M 41.513516 363.443336
L 431.87976 363.443336
L 431.87976 42.407964
L 41.513516 42.407964
z
" style="fill: #ffffff"/>
   </g>
   <g id="patch_3">
    <path d="M 59.257436 363.443336
L 93.600507 363.443336
L 93.600507 315.715239
L 59.257436 315.715239
z
" clip-path="url(#p744f7622ad)" style="fill: #0072b2; stroke: #17202a; stroke-width: 0.6; stroke-linejoin: miter"/>
   </g>
   <g id="patch_4">
    <path d="M 154.654856 363.443336
L 188.997928 363.443336
L 188.997928 136.098122
L 154.654856 136.098122
z
" clip-path="url(#p744f7622ad)" style="fill: #0072b2; stroke: #17202a; stroke-width: 0.6; stroke-linejoin: miter"/>
   </g>
   <g id="patch_5">
    <path d="M 250.052277 363.443336
L 284.395348 363.443336
L 284.395348 330.159716
L 250.052277 330.159716
z
" clip-path="url(#p744f7622ad)" style="fill: #0072b2; stroke: #17202a; stroke-width: 0.6; stroke-linejoin: miter"/>
   </g>
   <g id="patch_6">
    <path d="M 345.449697 363.443336
L 379.792768 363.443336
L 379.792768 283.722009
L 345.449697 283.722009
z
" clip-path="url(#p744f7622ad)" style="fill: #0072b2; stroke: #17202a; stroke-width: 0.6; stroke-linejoin: miter"/>
   </g>
   <g id="patch_7">
    <path d="M 93.600507 363.443336
L 127.943579 363.443336
L 127.943579 330.959034
L 93.600507 330.959034
z
" clip-path="url(#p744f7622ad)" style="fill: url(#h0443fc1153); stroke: #17202a; stroke-width: 0.6; stroke-linejoin: miter"/>
   </g>
   <g id="patch_8">
    <path d="M 188.997928 363.443336
L 223.340999 363.443336
L 223.340999 84.18413
L 188.997928 84.18413
z
" clip-path="url(#p744f7622ad)" style="fill: url(#h0443fc1153); stroke: #17202a; stroke-width: 0.6; stroke-linejoin: miter"/>
   </g>
   <g id="patch_9">
    <path d="M 284.395348 363.443336
L 318.738419 363.443336
L 318.738419 264.593447
L 284.395348 264.593447
z
" clip-path="url(#p744f7622ad)" style="fill: url(#h0443fc1153); stroke: #17202a; stroke-width: 0.6; stroke-linejoin: miter"/>
   </g>
   <g id="patch_10">
    <path d="M 379.792768 363.443336
L 414.13584 363.443336
L 414.13584 140.851918
L 379.792768 140.851918
z
" clip-path="url(#p744f7622ad)" style="fill: url(#h0443fc1153); stroke: #17202a; stroke-width: 0.6; stroke-linejoin: miter"/>
   </g>
   <g id="matplotlib.axis_1">
    <g id="xtick_1">
     <g id="line2d_1">
      <defs>
       <path id="ma726762a11" d="M 0 0
L 0 3.5
" style="stroke: #17202a; stroke-width: 0.8"/>
      </defs>
      <g>
       <use xlink:href="#ma726762a11" x="93.600507" y="363.443336" style="fill: #17202a; stroke: #17202a; stroke-width: 0.8"/>
      </g>
     </g>
     <g id="text_1">
      <!-- Brier -->
      <g style="fill: #17202a" transform="translate(72.106778 382.307369) rotate(-14) scale(0.09 -0.09)">
       <defs>
        <path id="DejaVuSans-25" d="M 1259 2228
L 1259 519
L 2272 519
Q 2781 519 3026 730
Q 3272 941 3272 1375
Q 3272 1813 3026 2020
Q 2781 2228 2272 2228
L 1259 2228
z
M 1259 4147
L 1259 2741
L 2194 2741
Q 2656 2741 2882 2914
Q 3109 3088 3109 3444
Q 3109 3797 2882 3972
Q 2656 4147 2194 4147
L 1259 4147
z
M 628 4666
L 2241 4666
Q 2963 4666 3353 4366
Q 3744 4066 3744 3513
Q 3744 3084 3544 2831
Q 3344 2578 2956 2516
Q 3422 2416 3680 2098
Q 3938 1781 3938 1306
Q 3938 681 3513 340
Q 3088 0 2303 0
L 628 0
L 628 4666
z
" transform="scale(0.015625)"/>
        <path id="DejaVuSans-55" d="M 2631 2963
Q 2534 3019 2420 3045
Q 2306 3072 2169 3072
Q 1681 3072 1420 2755
Q 1159 2438 1159 1844
L 1159 0
L 581 0
L 581 3500
L 1159 3500
L 1159 2956
Q 1341 3275 1631 3429
Q 1922 3584 2338 3584
Q 2397 3584 2469 3576
Q 2541 3569 2628 3553
L 2631 2963
z
" transform="scale(0.015625)"/>
        <path id="DejaVuSans-4c" d="M 603 3500
L 1178 3500
L 1178 0
L 603 0
L 603 3500
z
M 603 4863
L 1178 4863
L 1178 4134
L 603 4134
L 603 4863
z
" transform="scale(0.015625)"/>
        <path id="DejaVuSans-48" d="M 3597 1894
L 3597 1613
L 953 1613
Q 991 1019 1311 708
Q 1631 397 2203 397
Q 2534 397 2845 478
Q 3156 559 3463 722
L 3463 178
Q 3153 47 2828 -22
Q 2503 -91 2169 -91
Q 1331 -91 842 396
Q 353 884 353 1716
Q 353 2575 817 3079
Q 1281 3584 2069 3584
Q 2775 3584 3186 3129
Q 3597 2675 3597 1894
z
M 3022 2063
Q 3016 2534 2758 2815
Q 2500 3097 2075 3097
Q 1594 3097 1305 2825
Q 1016 2553 972 2059
L 3022 2063
z
" transform="scale(0.015625)"/>
       </defs>
       <use xlink:href="#DejaVuSans-25"/>
       <use xlink:href="#DejaVuSans-55" transform="translate(68.609375 0)"/>
       <use xlink:href="#DejaVuSans-4c" transform="translate(109.71875 0)"/>
       <use xlink:href="#DejaVuSans-48" transform="translate(137.5 0)"/>
       <use xlink:href="#DejaVuSans-55" transform="translate(199.03125 0)"/>
      </g>
     </g>
    </g>
    <g id="xtick_2">
     <g id="line2d_2">
      <g>
       <use xlink:href="#ma726762a11" x="188.997928" y="363.443336" style="fill: #17202a; stroke: #17202a; stroke-width: 0.8"/>
      </g>
     </g>
     <g id="text_2">
      <!-- AUROC -->
      <g style="fill: #17202a" transform="translate(157.070032 384.908217) rotate(-14) scale(0.09 -0.09)">
       <defs>
        <path id="DejaVuSans-24" d="M 2188 4044
L 1331 1722
L 3047 1722
L 2188 4044
z
M 1831 4666
L 2547 4666
L 4325 0
L 3669 0
L 3244 1197
L 1141 1197
L 716 0
L 50 0
L 1831 4666
z
" transform="scale(0.015625)"/>
        <path id="DejaVuSans-38" d="M 556 4666
L 1191 4666
L 1191 1831
Q 1191 1081 1462 751
Q 1734 422 2344 422
Q 2950 422 3222 751
Q 3494 1081 3494 1831
L 3494 4666
L 4128 4666
L 4128 1753
Q 4128 841 3676 375
Q 3225 -91 2344 -91
Q 1459 -91 1007 375
Q 556 841 556 1753
L 556 4666
z
" transform="scale(0.015625)"/>
        <path id="DejaVuSans-35" d="M 2841 2188
Q 3044 2119 3236 1894
Q 3428 1669 3622 1275
L 4263 0
L 3584 0
L 2988 1197
Q 2756 1666 2539 1819
Q 2322 1972 1947 1972
L 1259 1972
L 1259 0
L 628 0
L 628 4666
L 2053 4666
Q 2853 4666 3247 4331
Q 3641 3997 3641 3322
Q 3641 2881 3436 2590
Q 3231 2300 2841 2188
z
M 1259 4147
L 1259 2491
L 2053 2491
Q 2509 2491 2742 2702
Q 2975 2913 2975 3322
Q 2975 3731 2742 3939
Q 2509 4147 2053 4147
L 1259 4147
z
" transform="scale(0.015625)"/>
        <path id="DejaVuSans-32" d="M 2522 4238
Q 1834 4238 1429 3725
Q 1025 3213 1025 2328
Q 1025 1447 1429 934
Q 1834 422 2522 422
Q 3209 422 3611 934
Q 4013 1447 4013 2328
Q 4013 3213 3611 3725
Q 3209 4238 2522 4238
z
M 2522 4750
Q 3503 4750 4090 4092
Q 4678 3434 4678 2328
Q 4678 1225 4090 567
Q 3503 -91 2522 -91
Q 1538 -91 948 565
Q 359 1222 359 2328
Q 359 3434 948 4092
Q 1538 4750 2522 4750
z
" transform="scale(0.015625)"/>
        <path id="DejaVuSans-26" d="M 4122 4306
L 4122 3641
Q 3803 3938 3442 4084
Q 3081 4231 2675 4231
Q 1875 4231 1450 3742
Q 1025 3253 1025 2328
Q 1025 1406 1450 917
Q 1875 428 2675 428
Q 3081 428 3442 575
Q 3803 722 4122 1019
L 4122 359
Q 3791 134 3420 21
Q 3050 -91 2638 -91
Q 1578 -91 968 557
Q 359 1206 359 2328
Q 359 3453 968 4101
Q 1578 4750 2638 4750
Q 3056 4750 3426 4639
Q 3797 4528 4122 4306
z
" transform="scale(0.015625)"/>
       </defs>
       <use xlink:href="#DejaVuSans-24"/>
       <use xlink:href="#DejaVuSans-38" transform="translate(68.40625 0)"/>
       <use xlink:href="#DejaVuSans-35" transform="translate(141.59375 0)"/>
       <use xlink:href="#DejaVuSans-32" transform="translate(211.078125 0)"/>
       <use xlink:href="#DejaVuSans-26" transform="translate(289.796875 0)"/>
      </g>
     </g>
    </g>
    <g id="xtick_3">
     <g id="line2d_3">
      <g>
       <use xlink:href="#ma726762a11" x="284.395348" y="363.443336" style="fill: #17202a; stroke: #17202a; stroke-width: 0.8"/>
      </g>
     </g>
     <g id="text_3">
      <!-- Recall @ 0.5 -->
      <g style="fill: #17202a" transform="translate(229.646552 390.598789) rotate(-14) scale(0.09 -0.09)">
       <defs>
        <path id="DejaVuSans-46" d="M 3122 3366
L 3122 2828
Q 2878 2963 2633 3030
Q 2388 3097 2138 3097
Q 1578 3097 1268 2742
Q 959 2388 959 1747
Q 959 1106 1268 751
Q 1578 397 2138 397
Q 2388 397 2633 464
Q 2878 531 3122 666
L 3122 134
Q 2881 22 2623 -34
Q 2366 -91 2075 -91
Q 1284 -91 818 406
Q 353 903 353 1747
Q 353 2603 823 3093
Q 1294 3584 2113 3584
Q 2378 3584 2631 3529
Q 2884 3475 3122 3366
z
" transform="scale(0.015625)"/>
        <path id="DejaVuSans-44" d="M 2194 1759
Q 1497 1759 1228 1600
Q 959 1441 959 1056
Q 959 750 1161 570
Q 1363 391 1709 391
Q 2188 391 2477 730
Q 2766 1069 2766 1631
L 2766 1759
L 2194 1759
z
M 3341 1997
L 3341 0
L 2766 0
L 2766 531
Q 2569 213 2275 61
Q 1981 -91 1556 -91
Q 1019 -91 701 211
Q 384 513 384 1019
Q 384 1609 779 1909
Q 1175 2209 1959 2209
L 2766 2209
L 2766 2266
Q 2766 2663 2505 2880
Q 2244 3097 1772 3097
Q 1472 3097 1187 3025
Q 903 2953 641 2809
L 641 3341
Q 956 3463 1253 3523
Q 1550 3584 1831 3584
Q 2591 3584 2966 3190
Q 3341 2797 3341 1997
z
" transform="scale(0.015625)"/>
        <path id="DejaVuSans-4f" d="M 603 4863
L 1178 4863
L 1178 0
L 603 0
L 603 4863
z
" transform="scale(0.015625)"/>
        <path id="DejaVuSans-3" transform="scale(0.015625)"/>
        <path id="DejaVuSans-23" d="M 2381 1678
Q 2381 1231 2603 976
Q 2825 722 3213 722
Q 3597 722 3817 978
Q 4038 1234 4038 1678
Q 4038 2116 3813 2373
Q 3588 2631 3206 2631
Q 2828 2631 2604 2375
Q 2381 2119 2381 1678
z
M 4084 744
Q 3897 503 3655 389
Q 3413 275 3091 275
Q 2553 275 2217 664
Q 1881 1053 1881 1678
Q 1881 2303 2218 2693
Q 2556 3084 3091 3084
Q 3413 3084 3656 2967
Q 3900 2850 4084 2613
L 4084 3022
L 4531 3022
L 4531 722
Q 4988 791 5245 1139
Q 5503 1488 5503 2041
Q 5503 2375 5404 2669
Q 5306 2963 5106 3213
Q 4781 3622 4314 3839
Q 3847 4056 3297 4056
Q 2913 4056 2559 3954
Q 2206 3853 1906 3653
Q 1416 3334 1139 2817
Q 863 2300 863 1697
Q 863 1200 1042 765
Q 1222 331 1563 0
Q 1891 -325 2322 -495
Q 2753 -666 3244 -666
Q 3647 -666 4036 -530
Q 4425 -394 4750 -141
L 5031 -488
Q 4641 -791 4180 -952
Q 3719 -1113 3244 -1113
Q 2666 -1113 2153 -908
Q 1641 -703 1241 -313
Q 841 78 631 592
Q 422 1106 422 1697
Q 422 2266 634 2781
Q 847 3297 1241 3688
Q 1644 4084 2172 4295
Q 2700 4506 3291 4506
Q 3953 4506 4520 4234
Q 5088 3963 5472 3463
Q 5706 3156 5829 2797
Q 5953 2438 5953 2053
Q 5953 1231 5456 756
Q 4959 281 4084 263
L 4084 744
z
" transform="scale(0.015625)"/>
        <path id="DejaVuSans-13" d="M 2034 4250
Q 1547 4250 1301 3770
Q 1056 3291 1056 2328
Q 1056 1369 1301 889
Q 1547 409 2034 409
Q 2525 409 2770 889
Q 3016 1369 3016 2328
Q 3016 3291 2770 3770
Q 2525 4250 2034 4250
z
M 2034 4750
Q 2819 4750 3233 4129
Q 3647 3509 3647 2328
Q 3647 1150 3233 529
Q 2819 -91 2034 -91
Q 1250 -91 836 529
Q 422 1150 422 2328
Q 422 3509 836 4129
Q 1250 4750 2034 4750
z
" transform="scale(0.015625)"/>
        <path id="DejaVuSans-11" d="M 684 794
L 1344 794
L 1344 0
L 684 0
L 684 794
z
" transform="scale(0.015625)"/>
        <path id="DejaVuSans-18" d="M 691 4666
L 3169 4666
L 3169 4134
L 1269 4134
L 1269 2991
Q 1406 3038 1543 3061
Q 1681 3084 1819 3084
Q 2600 3084 3056 2656
Q 3513 2228 3513 1497
Q 3513 744 3044 326
Q 2575 -91 1722 -91
Q 1428 -91 1123 -41
Q 819 9 494 109
L 494 744
Q 775 591 1075 516
Q 1375 441 1709 441
Q 2250 441 2565 725
Q 2881 1009 2881 1497
Q 2881 1984 2565 2268
Q 2250 2553 1709 2553
Q 1456 2553 1204 2497
Q 953 2441 691 2322
L 691 4666
z
" transform="scale(0.015625)"/>
       </defs>
       <use xlink:href="#DejaVuSans-35"/>
       <use xlink:href="#DejaVuSans-48" transform="translate(65 0)"/>
       <use xlink:href="#DejaVuSans-46" transform="translate(126.53125 0)"/>
       <use xlink:href="#DejaVuSans-44" transform="translate(181.515625 0)"/>
       <use xlink:href="#DejaVuSans-4f" transform="translate(242.796875 0)"/>
       <use xlink:href="#DejaVuSans-4f" transform="translate(270.578125 0)"/>
       <use xlink:href="#DejaVuSans-3" transform="translate(298.359375 0)"/>
       <use xlink:href="#DejaVuSans-23" transform="translate(330.140625 0)"/>
       <use xlink:href="#DejaVuSans-3" transform="translate(430.140625 0)"/>
       <use xlink:href="#DejaVuSans-13" transform="translate(461.921875 0)"/>
       <use xlink:href="#DejaVuSans-11" transform="translate(525.546875 0)"/>
       <use xlink:href="#DejaVuSans-18" transform="translate(557.328125 0)"/>
      </g>
     </g>
    </g>
    <g id="xtick_4">
     <g id="line2d_4">
      <g>
       <use xlink:href="#ma726762a11" x="379.792768" y="363.443336" style="fill: #17202a; stroke: #17202a; stroke-width: 0.8"/>
      </g>
     </g>
     <g id="text_4">
      <!-- Precision @ 0.5 -->
      <g style="fill: #17202a" transform="translate(312.134642 393.817446) rotate(-14) scale(0.09 -0.09)">
       <defs>
        <path id="DejaVuSans-33" d="M 1259 4147
L 1259 2394
L 2053 2394
Q 2494 2394 2734 2622
Q 2975 2850 2975 3272
Q 2975 3691 2734 3919
Q 2494 4147 2053 4147
L 1259 4147
z
M 628 4666
L 2053 4666
Q 2838 4666 3239 4311
Q 3641 3956 3641 3272
Q 3641 2581 3239 2228
Q 2838 1875 2053 1875
L 1259 1875
L 1259 0
L 628 0
L 628 4666
z
" transform="scale(0.015625)"/>
        <path id="DejaVuSans-56" d="M 2834 3397
L 2834 2853
Q 2591 2978 2328 3040
Q 2066 3103 1784 3103
Q 1356 3103 1142 2972
Q 928 2841 928 2578
Q 928 2378 1081 2264
Q 1234 2150 1697 2047
L 1894 2003
Q 2506 1872 2764 1633
Q 3022 1394 3022 966
Q 3022 478 2636 193
Q 2250 -91 1575 -91
Q 1294 -91 989 -36
Q 684 19 347 128
L 347 722
Q 666 556 975 473
Q 1284 391 1588 391
Q 1994 391 2212 530
Q 2431 669 2431 922
Q 2431 1156 2273 1281
Q 2116 1406 1581 1522
L 1381 1569
Q 847 1681 609 1914
Q 372 2147 372 2553
Q 372 3047 722 3315
Q 1072 3584 1716 3584
Q 2034 3584 2315 3537
Q 2597 3491 2834 3397
z
" transform="scale(0.015625)"/>
        <path id="DejaVuSans-52" d="M 1959 3097
Q 1497 3097 1228 2736
Q 959 2375 959 1747
Q 959 1119 1226 758
Q 1494 397 1959 397
Q 2419 397 2687 759
Q 2956 1122 2956 1747
Q 2956 2369 2687 2733
Q 2419 3097 1959 3097
z
M 1959 3584
Q 2709 3584 3137 3096
Q 3566 2609 3566 1747
Q 3566 888 3137 398
Q 2709 -91 1959 -91
Q 1206 -91 779 398
Q 353 888 353 1747
Q 353 2609 779 3096
Q 1206 3584 1959 3584
z
" transform="scale(0.015625)"/>
        <path id="DejaVuSans-51" d="M 3513 2113
L 3513 0
L 2938 0
L 2938 2094
Q 2938 2591 2744 2837
Q 2550 3084 2163 3084
Q 1697 3084 1428 2787
Q 1159 2491 1159 1978
L 1159 0
L 581 0
L 581 3500
L 1159 3500
L 1159 2956
Q 1366 3272 1645 3428
Q 1925 3584 2291 3584
Q 2894 3584 3203 3211
Q 3513 2838 3513 2113
z
" transform="scale(0.015625)"/>
       </defs>
       <use xlink:href="#DejaVuSans-33"/>
       <use xlink:href="#DejaVuSans-55" transform="translate(58.546875 0)"/>
       <use xlink:href="#DejaVuSans-48" transform="translate(97.453125 0)"/>
       <use xlink:href="#DejaVuSans-46" transform="translate(158.984375 0)"/>
       <use xlink:href="#DejaVuSans-4c" transform="translate(213.96875 0)"/>
       <use xlink:href="#DejaVuSans-56" transform="translate(241.75 0)"/>
       <use xlink:href="#DejaVuSans-4c" transform="translate(293.84375 0)"/>
       <use xlink:href="#DejaVuSans-52" transform="translate(321.625 0)"/>
       <use xlink:href="#DejaVuSans-51" transform="translate(382.8125 0)"/>
       <use xlink:href="#DejaVuSans-3" transform="translate(446.1875 0)"/>
       <use xlink:href="#DejaVuSans-23" transform="translate(477.96875 0)"/>
       <use xlink:href="#DejaVuSans-3" transform="translate(577.96875 0)"/>
       <use xlink:href="#DejaVuSans-13" transform="translate(609.75 0)"/>
       <use xlink:href="#DejaVuSans-11" transform="translate(673.375 0)"/>
       <use xlink:href="#DejaVuSans-18" transform="translate(705.15625 0)"/>
      </g>
     </g>
    </g>
   </g>
   <g id="matplotlib.axis_2">
    <g id="ytick_1">
     <g id="line2d_5">
      <path d="M 41.513516 363.443336
L 431.87976 363.443336
" clip-path="url(#p744f7622ad)" style="fill: none; stroke: #d9e1e8; stroke-width: 0.7; stroke-linecap: square"/>
     </g>
     <g id="line2d_6">
      <defs>
       <path id="mf4507a83ab" d="M 0 0
L -3.5 0
" style="stroke: #17202a; stroke-width: 0.8"/>
      </defs>
      <g>
       <use xlink:href="#mf4507a83ab" x="41.513516" y="363.443336" style="fill: #17202a; stroke: #17202a; stroke-width: 0.8"/>
      </g>
     </g>
     <g id="text_5">
      <!-- 0.0 -->
      <g style="fill: #17202a" transform="translate(20.200703 366.862282) scale(0.09 -0.09)">
       <use xlink:href="#DejaVuSans-13"/>
       <use xlink:href="#DejaVuSans-11" transform="translate(63.625 0)"/>
       <use xlink:href="#DejaVuSans-13" transform="translate(95.40625 0)"/>
      </g>
     </g>
    </g>
    <g id="ytick_2">
     <g id="line2d_7">
      <path d="M 41.513516 302.293742
L 431.87976 302.293742
" clip-path="url(#p744f7622ad)" style="fill: none; stroke: #d9e1e8; stroke-width: 0.7; stroke-linecap: square"/>
     </g>
     <g id="line2d_8">
      <g>
       <use xlink:href="#mf4507a83ab" x="41.513516" y="302.293742" style="fill: #17202a; stroke: #17202a; stroke-width: 0.8"/>
      </g>
     </g>
     <g id="text_6">
      <!-- 0.2 -->
      <g style="fill: #17202a" transform="translate(20.200703 305.712687) scale(0.09 -0.09)">
       <defs>
        <path id="DejaVuSans-15" d="M 1228 531
L 3431 531
L 3431 0
L 469 0
L 469 531
Q 828 903 1448 1529
Q 2069 2156 2228 2338
Q 2531 2678 2651 2914
Q 2772 3150 2772 3378
Q 2772 3750 2511 3984
Q 2250 4219 1831 4219
Q 1534 4219 1204 4116
Q 875 4013 500 3803
L 500 4441
Q 881 4594 1212 4672
Q 1544 4750 1819 4750
Q 2544 4750 2975 4387
Q 3406 4025 3406 3419
Q 3406 3131 3298 2873
Q 3191 2616 2906 2266
Q 2828 2175 2409 1742
Q 1991 1309 1228 531
z
" transform="scale(0.015625)"/>
       </defs>
       <use xlink:href="#DejaVuSans-13"/>
       <use xlink:href="#DejaVuSans-11" transform="translate(63.625 0)"/>
       <use xlink:href="#DejaVuSans-15" transform="translate(95.40625 0)"/>
      </g>
     </g>
    </g>
    <g id="ytick_3">
     <g id="line2d_9">
      <path d="M 41.513516 241.144147
L 431.87976 241.144147
" clip-path="url(#p744f7622ad)" style="fill: none; stroke: #d9e1e8; stroke-width: 0.7; stroke-linecap: square"/>
     </g>
     <g id="line2d_10">
      <g>
       <use xlink:href="#mf4507a83ab" x="41.513516" y="241.144147" style="fill: #17202a; stroke: #17202a; stroke-width: 0.8"/>
      </g>
     </g>
     <g id="text_7">
      <!-- 0.4 -->
      <g style="fill: #17202a" transform="translate(20.200703 244.563092) scale(0.09 -0.09)">
       <defs>
        <path id="DejaVuSans-17" d="M 2419 4116
L 825 1625
L 2419 1625
L 2419 4116
z
M 2253 4666
L 3047 4666
L 3047 1625
L 3713 1625
L 3713 1100
L 3047 1100
L 3047 0
L 2419 0
L 2419 1100
L 313 1100
L 313 1709
L 2253 4666
z
" transform="scale(0.015625)"/>
       </defs>
       <use xlink:href="#DejaVuSans-13"/>
       <use xlink:href="#DejaVuSans-11" transform="translate(63.625 0)"/>
       <use xlink:href="#DejaVuSans-17" transform="translate(95.40625 0)"/>
      </g>
     </g>
    </g>
    <g id="ytick_4">
     <g id="line2d_11">
      <path d="M 41.513516 179.994552
L 431.87976 179.994552
" clip-path="url(#p744f7622ad)" style="fill: none; stroke: #d9e1e8; stroke-width: 0.7; stroke-linecap: square"/>
     </g>
     <g id="line2d_12">
      <g>
       <use xlink:href="#mf4507a83ab" x="41.513516" y="179.994552" style="fill: #17202a; stroke: #17202a; stroke-width: 0.8"/>
      </g>
     </g>
     <g id="text_8">
      <!-- 0.6 -->
      <g style="fill: #17202a" transform="translate(20.200703 183.413498) scale(0.09 -0.09)">
       <defs>
        <path id="DejaVuSans-19" d="M 2113 2584
Q 1688 2584 1439 2293
Q 1191 2003 1191 1497
Q 1191 994 1439 701
Q 1688 409 2113 409
Q 2538 409 2786 701
Q 3034 994 3034 1497
Q 3034 2003 2786 2293
Q 2538 2584 2113 2584
z
M 3366 4563
L 3366 3988
Q 3128 4100 2886 4159
Q 2644 4219 2406 4219
Q 1781 4219 1451 3797
Q 1122 3375 1075 2522
Q 1259 2794 1537 2939
Q 1816 3084 2150 3084
Q 2853 3084 3261 2657
Q 3669 2231 3669 1497
Q 3669 778 3244 343
Q 2819 -91 2113 -91
Q 1303 -91 875 529
Q 447 1150 447 2328
Q 447 3434 972 4092
Q 1497 4750 2381 4750
Q 2619 4750 2861 4703
Q 3103 4656 3366 4563
z
" transform="scale(0.015625)"/>
       </defs>
       <use xlink:href="#DejaVuSans-13"/>
       <use xlink:href="#DejaVuSans-11" transform="translate(63.625 0)"/>
       <use xlink:href="#DejaVuSans-19" transform="translate(95.40625 0)"/>
      </g>
     </g>
    </g>
    <g id="ytick_5">
     <g id="line2d_13">
      <path d="M 41.513516 118.844958
L 431.87976 118.844958
" clip-path="url(#p744f7622ad)" style="fill: none; stroke: #d9e1e8; stroke-width: 0.7; stroke-linecap: square"/>
     </g>
     <g id="line2d_14">
      <g>
       <use xlink:href="#mf4507a83ab" x="41.513516" y="118.844958" style="fill: #17202a; stroke: #17202a; stroke-width: 0.8"/>
      </g>
     </g>
     <g id="text_9">
      <!-- 0.8 -->
      <g style="fill: #17202a" transform="translate(20.200703 122.263903) scale(0.09 -0.09)">
       <defs>
        <path id="DejaVuSans-1b" d="M 2034 2216
Q 1584 2216 1326 1975
Q 1069 1734 1069 1313
Q 1069 891 1326 650
Q 1584 409 2034 409
Q 2484 409 2743 651
Q 3003 894 3003 1313
Q 3003 1734 2745 1975
Q 2488 2216 2034 2216
z
M 1403 2484
Q 997 2584 770 2862
Q 544 3141 544 3541
Q 544 4100 942 4425
Q 1341 4750 2034 4750
Q 2731 4750 3128 4425
Q 3525 4100 3525 3541
Q 3525 3141 3298 2862
Q 3072 2584 2669 2484
Q 3125 2378 3379 2068
Q 3634 1759 3634 1313
Q 3634 634 3220 271
Q 2806 -91 2034 -91
Q 1263 -91 848 271
Q 434 634 434 1313
Q 434 1759 690 2068
Q 947 2378 1403 2484
z
M 1172 3481
Q 1172 3119 1398 2916
Q 1625 2713 2034 2713
Q 2441 2713 2670 2916
Q 2900 3119 2900 3481
Q 2900 3844 2670 4047
Q 2441 4250 2034 4250
Q 1625 4250 1398 4047
Q 1172 3844 1172 3481
z
" transform="scale(0.015625)"/>
       </defs>
       <use xlink:href="#DejaVuSans-13"/>
       <use xlink:href="#DejaVuSans-11" transform="translate(63.625 0)"/>
       <use xlink:href="#DejaVuSans-1b" transform="translate(95.40625 0)"/>
      </g>
     </g>
    </g>
    <g id="ytick_6">
     <g id="line2d_15">
      <path d="M 41.513516 57.695363
L 431.87976 57.695363
" clip-path="url(#p744f7622ad)" style="fill: none; stroke: #d9e1e8; stroke-width: 0.7; stroke-linecap: square"/>
     </g>
     <g id="line2d_16">
      <g>
       <use xlink:href="#mf4507a83ab" x="41.513516" y="57.695363" style="fill: #17202a; stroke: #17202a; stroke-width: 0.8"/>
      </g>
     </g>
     <g id="text_10">
      <!-- 1.0 -->
      <g style="fill: #17202a" transform="translate(20.200703 61.114308) scale(0.09 -0.09)">
       <defs>
        <path id="DejaVuSans-14" d="M 794 531
L 1825 531
L 1825 4091
L 703 3866
L 703 4441
L 1819 4666
L 2450 4666
L 2450 531
L 3481 531
L 3481 0
L 794 0
L 794 531
z
" transform="scale(0.015625)"/>
       </defs>
       <use xlink:href="#DejaVuSans-14"/>
       <use xlink:href="#DejaVuSans-11" transform="translate(63.625 0)"/>
       <use xlink:href="#DejaVuSans-13" transform="translate(95.40625 0)"/>
      </g>
     </g>
    </g>
    <g id="text_11">
     <!-- Mean across 20 selected seeds -->
     <g transform="translate(14.038594 273.137604) rotate(-90) scale(0.09 -0.09)">
      <defs>
       <path id="DejaVuSans-30" d="M 628 4666
L 1569 4666
L 2759 1491
L 3956 4666
L 4897 4666
L 4897 0
L 4281 0
L 4281 4097
L 3078 897
L 2444 897
L 1241 4097
L 1241 0
L 628 0
L 628 4666
z
" transform="scale(0.015625)"/>
       <path id="DejaVuSans-57" d="M 1172 4494
L 1172 3500
L 2356 3500
L 2356 3053
L 1172 3053
L 1172 1153
Q 1172 725 1289 603
Q 1406 481 1766 481
L 2356 481
L 2356 0
L 1766 0
Q 1100 0 847 248
Q 594 497 594 1153
L 594 3053
L 172 3053
L 172 3500
L 594 3500
L 594 4494
L 1172 4494
z
" transform="scale(0.015625)"/>
       <path id="DejaVuSans-47" d="M 2906 2969
L 2906 4863
L 3481 4863
L 3481 0
L 2906 0
L 2906 525
Q 2725 213 2448 61
Q 2172 -91 1784 -91
Q 1150 -91 751 415
Q 353 922 353 1747
Q 353 2572 751 3078
Q 1150 3584 1784 3584
Q 2172 3584 2448 3432
Q 2725 3281 2906 2969
z
M 947 1747
Q 947 1113 1208 752
Q 1469 391 1925 391
Q 2381 391 2643 752
Q 2906 1113 2906 1747
Q 2906 2381 2643 2742
Q 2381 3103 1925 3103
Q 1469 3103 1208 2742
Q 947 2381 947 1747
z
" transform="scale(0.015625)"/>
      </defs>
      <use xlink:href="#DejaVuSans-30"/>
      <use xlink:href="#DejaVuSans-48" transform="translate(86.28125 0)"/>
      <use xlink:href="#DejaVuSans-44" transform="translate(147.8125 0)"/>
      <use xlink:href="#DejaVuSans-51" transform="translate(209.09375 0)"/>
      <use xlink:href="#DejaVuSans-3" transform="translate(272.46875 0)"/>
      <use xlink:href="#DejaVuSans-44" transform="translate(304.25 0)"/>
      <use xlink:href="#DejaVuSans-46" transform="translate(365.53125 0)"/>
      <use xlink:href="#DejaVuSans-55" transform="translate(420.515625 0)"/>
      <use xlink:href="#DejaVuSans-52" transform="translate(459.421875 0)"/>
      <use xlink:href="#DejaVuSans-56" transform="translate(520.609375 0)"/>
      <use xlink:href="#DejaVuSans-56" transform="translate(572.703125 0)"/>
      <use xlink:href="#DejaVuSans-3" transform="translate(624.796875 0)"/>
      <use xlink:href="#DejaVuSans-15" transform="translate(656.578125 0)"/>
      <use xlink:href="#DejaVuSans-13" transform="translate(720.203125 0)"/>
      <use xlink:href="#DejaVuSans-3" transform="translate(783.828125 0)"/>
      <use xlink:href="#DejaVuSans-56" transform="translate(815.609375 0)"/>
      <use xlink:href="#DejaVuSans-48" transform="translate(867.703125 0)"/>
      <use xlink:href="#DejaVuSans-4f" transform="translate(929.234375 0)"/>
      <use xlink:href="#DejaVuSans-48" transform="translate(957.015625 0)"/>
      <use xlink:href="#DejaVuSans-46" transform="translate(1018.546875 0)"/>
      <use xlink:href="#DejaVuSans-57" transform="translate(1073.53125 0)"/>
      <use xlink:href="#DejaVuSans-48" transform="translate(1112.734375 0)"/>
      <use xlink:href="#DejaVuSans-47" transform="translate(1174.265625 0)"/>
      <use xlink:href="#DejaVuSans-3" transform="translate(1237.75 0)"/>
      <use xlink:href="#DejaVuSans-56" transform="translate(1269.53125 0)"/>
      <use xlink:href="#DejaVuSans-48" transform="translate(1321.625 0)"/>
      <use xlink:href="#DejaVuSans-48" transform="translate(1383.15625 0)"/>
      <use xlink:href="#DejaVuSans-47" transform="translate(1444.6875 0)"/>
      <use xlink:href="#DejaVuSans-56" transform="translate(1508.171875 0)"/>
     </g>
    </g>
   </g>
   <g id="patch_11">
    <path d="M 41.513516 363.443336
L 41.513516 42.407964
" style="fill: none; stroke: #000000; stroke-width: 0.8; stroke-linejoin: miter; stroke-linecap: square"/>
   </g>
   <g id="patch_12">
    <path d="M 41.513516 363.443336
L 431.87976 363.443336
" style="fill: none; stroke: #000000; stroke-width: 0.8; stroke-linejoin: miter; stroke-linecap: square"/>
   </g>
   <g id="text_12">
    <!-- Predictive endpoints -->
    <g transform="translate(41.513516 36.407964) scale(0.108 -0.108)">
     <defs>
      <path id="DejaVuSans-Bold-33" d="M 588 4666
L 2584 4666
Q 3475 4666 3951 4270
Q 4428 3875 4428 3144
Q 4428 2409 3951 2014
Q 3475 1619 2584 1619
L 1791 1619
L 1791 0
L 588 0
L 588 4666
z
M 1791 3794
L 1791 2491
L 2456 2491
Q 2806 2491 2997 2661
Q 3188 2831 3188 3144
Q 3188 3456 2997 3625
Q 2806 3794 2456 3794
L 1791 3794
z
" transform="scale(0.015625)"/>
      <path id="DejaVuSans-Bold-55" d="M 3138 2547
Q 2991 2616 2845 2648
Q 2700 2681 2553 2681
Q 2122 2681 1889 2404
Q 1656 2128 1656 1613
L 1656 0
L 538 0
L 538 3500
L 1656 3500
L 1656 2925
Q 1872 3269 2151 3426
Q 2431 3584 2822 3584
Q 2878 3584 2943 3579
Q 3009 3575 3134 3559
L 3138 2547
z
" transform="scale(0.015625)"/>
      <path id="DejaVuSans-Bold-48" d="M 4031 1759
L 4031 1441
L 1416 1441
Q 1456 1047 1700 850
Q 1944 653 2381 653
Q 2734 653 3104 758
Q 3475 863 3866 1075
L 3866 213
Q 3469 63 3072 -14
Q 2675 -91 2278 -91
Q 1328 -91 801 392
Q 275 875 275 1747
Q 275 2603 792 3093
Q 1309 3584 2216 3584
Q 3041 3584 3536 3087
Q 4031 2591 4031 1759
z
M 2881 2131
Q 2881 2450 2695 2645
Q 2509 2841 2209 2841
Q 1884 2841 1681 2658
Q 1478 2475 1428 2131
L 2881 2131
z
" transform="scale(0.015625)"/>
      <path id="DejaVuSans-Bold-47" d="M 2919 2988
L 2919 4863
L 4044 4863
L 4044 0
L 2919 0
L 2919 506
Q 2688 197 2409 53
Q 2131 -91 1766 -91
Q 1119 -91 703 423
Q 288 938 288 1747
Q 288 2556 703 3070
Q 1119 3584 1766 3584
Q 2128 3584 2408 3439
Q 2688 3294 2919 2988
z
M 2181 722
Q 2541 722 2730 984
Q 2919 1247 2919 1747
Q 2919 2247 2730 2509
Q 2541 2772 2181 2772
Q 1825 2772 1636 2509
Q 1447 2247 1447 1747
Q 1447 1247 1636 984
Q 1825 722 2181 722
z
" transform="scale(0.015625)"/>
      <path id="DejaVuSans-Bold-4c" d="M 538 3500
L 1656 3500
L 1656 0
L 538 0
L 538 3500
z
M 538 4863
L 1656 4863
L 1656 3950
L 538 3950
L 538 4863
z
" transform="scale(0.015625)"/>
      <path id="DejaVuSans-Bold-46" d="M 3366 3391
L 3366 2478
Q 3138 2634 2908 2709
Q 2678 2784 2431 2784
Q 1963 2784 1702 2511
Q 1441 2238 1441 1747
Q 1441 1256 1702 982
Q 1963 709 2431 709
Q 2694 709 2930 787
Q 3166 866 3366 1019
L 3366 103
Q 3103 6 2833 -42
Q 2563 -91 2291 -91
Q 1344 -91 809 395
Q 275 881 275 1747
Q 275 2613 809 3098
Q 1344 3584 2291 3584
Q 2566 3584 2833 3536
Q 3100 3488 3366 3391
z
" transform="scale(0.015625)"/>
      <path id="DejaVuSans-Bold-57" d="M 1759 4494
L 1759 3500
L 2913 3500
L 2913 2700
L 1759 2700
L 1759 1216
Q 1759 972 1856 886
Q 1953 800 2241 800
L 2816 800
L 2816 0
L 1856 0
Q 1194 0 917 276
Q 641 553 641 1216
L 641 2700
L 84 2700
L 84 3500
L 641 3500
L 641 4494
L 1759 4494
z
" transform="scale(0.015625)"/>
      <path id="DejaVuSans-Bold-59" d="M 97 3500
L 1216 3500
L 2088 1081
L 2956 3500
L 4078 3500
L 2700 0
L 1472 0
L 97 3500
z
" transform="scale(0.015625)"/>
      <path id="DejaVuSans-Bold-3" transform="scale(0.015625)"/>
      <path id="DejaVuSans-Bold-51" d="M 4056 2131
L 4056 0
L 2931 0
L 2931 347
L 2931 1631
Q 2931 2084 2911 2256
Q 2891 2428 2841 2509
Q 2775 2619 2662 2680
Q 2550 2741 2406 2741
Q 2056 2741 1856 2470
Q 1656 2200 1656 1722
L 1656 0
L 538 0
L 538 3500
L 1656 3500
L 1656 2988
Q 1909 3294 2193 3439
Q 2478 3584 2822 3584
Q 3428 3584 3742 3212
Q 4056 2841 4056 2131
z
" transform="scale(0.015625)"/>
      <path id="DejaVuSans-Bold-53" d="M 1656 506
L 1656 -1331
L 538 -1331
L 538 3500
L 1656 3500
L 1656 2988
Q 1888 3294 2169 3439
Q 2450 3584 2816 3584
Q 3463 3584 3878 3070
Q 4294 2556 4294 1747
Q 4294 938 3878 423
Q 3463 -91 2816 -91
Q 2450 -91 2169 54
Q 1888 200 1656 506
z
M 2400 2772
Q 2041 2772 1848 2508
Q 1656 2244 1656 1747
Q 1656 1250 1848 986
Q 2041 722 2400 722
Q 2759 722 2948 984
Q 3138 1247 3138 1747
Q 3138 2247 2948 2509
Q 2759 2772 2400 2772
z
" transform="scale(0.015625)"/>
      <path id="DejaVuSans-Bold-52" d="M 2203 2784
Q 1831 2784 1636 2517
Q 1441 2250 1441 1747
Q 1441 1244 1636 976
Q 1831 709 2203 709
Q 2569 709 2762 976
Q 2956 1244 2956 1747
Q 2956 2250 2762 2517
Q 2569 2784 2203 2784
z
M 2203 3584
Q 3106 3584 3614 3096
Q 4122 2609 4122 1747
Q 4122 884 3614 396
Q 3106 -91 2203 -91
Q 1297 -91 786 396
Q 275 884 275 1747
Q 275 2609 786 3096
Q 1297 3584 2203 3584
z
" transform="scale(0.015625)"/>
      <path id="DejaVuSans-Bold-56" d="M 3272 3391
L 3272 2541
Q 2913 2691 2578 2766
Q 2244 2841 1947 2841
Q 1628 2841 1473 2761
Q 1319 2681 1319 2516
Q 1319 2381 1436 2309
Q 1553 2238 1856 2203
L 2053 2175
Q 2913 2066 3209 1816
Q 3506 1566 3506 1031
Q 3506 472 3093 190
Q 2681 -91 1863 -91
Q 1516 -91 1145 -36
Q 775 19 384 128
L 384 978
Q 719 816 1070 734
Q 1422 653 1784 653
Q 2113 653 2278 743
Q 2444 834 2444 1013
Q 2444 1163 2330 1236
Q 2216 1309 1875 1350
L 1678 1375
Q 931 1469 631 1722
Q 331 1975 331 2491
Q 331 3047 712 3315
Q 1094 3584 1881 3584
Q 2191 3584 2531 3537
Q 2872 3491 3272 3391
z
" transform="scale(0.015625)"/>
     </defs>
     <use xlink:href="#DejaVuSans-Bold-33"/>
     <use xlink:href="#DejaVuSans-Bold-55" transform="translate(73.296875 0)"/>
     <use xlink:href="#DejaVuSans-Bold-48" transform="translate(122.609375 0)"/>
     <use xlink:href="#DejaVuSans-Bold-47" transform="translate(190.4375 0)"/>
     <use xlink:href="#DejaVuSans-Bold-4c" transform="translate(262.015625 0)"/>
     <use xlink:href="#DejaVuSans-Bold-46" transform="translate(296.296875 0)"/>
     <use xlink:href="#DejaVuSans-Bold-57" transform="translate(355.578125 0)"/>
     <use xlink:href="#DejaVuSans-Bold-4c" transform="translate(403.375 0)"/>
     <use xlink:href="#DejaVuSans-Bold-59" transform="translate(437.65625 0)"/>
     <use xlink:href="#DejaVuSans-Bold-48" transform="translate(502.84375 0)"/>
     <use xlink:href="#DejaVuSans-Bold-3" transform="translate(570.671875 0)"/>
     <use xlink:href="#DejaVuSans-Bold-48" transform="translate(605.484375 0)"/>
     <use xlink:href="#DejaVuSans-Bold-51" transform="translate(673.3125 0)"/>
     <use xlink:href="#DejaVuSans-Bold-47" transform="translate(744.5 0)"/>
     <use xlink:href="#DejaVuSans-Bold-53" transform="translate(816.078125 0)"/>
     <use xlink:href="#DejaVuSans-Bold-52" transform="translate(887.65625 0)"/>
     <use xlink:href="#DejaVuSans-Bold-4c" transform="translate(956.359375 0)"/>
     <use xlink:href="#DejaVuSans-Bold-51" transform="translate(990.640625 0)"/>
     <use xlink:href="#DejaVuSans-Bold-57" transform="translate(1061.828125 0)"/>
     <use xlink:href="#DejaVuSans-Bold-56" transform="translate(1109.625 0)"/>
    </g>
   </g>
   <g id="legend_1">
    <g id="patch_13">
     <path d="M 361.471635 57.346558
L 379.471635 57.346558
L 379.471635 51.046558
L 361.471635 51.046558
z
" style="fill: #0072b2; stroke: #17202a; stroke-width: 0.6; stroke-linejoin: miter"/>
    </g>
    <g id="text_13">
     <!-- FQK -->
     <g transform="translate(386.671635 57.346558) scale(0.09 -0.09)">
      <defs>
       <path id="DejaVuSans-29" d="M 628 4666
L 3309 4666
L 3309 4134
L 1259 4134
L 1259 2759
L 3109 2759
L 3109 2228
L 1259 2228
L 1259 0
L 628 0
L 628 4666
z
" transform="scale(0.015625)"/>
       <path id="DejaVuSans-34" d="M 2522 4238
Q 1834 4238 1429 3725
Q 1025 3213 1025 2328
Q 1025 1447 1429 934
Q 1834 422 2522 422
Q 3209 422 3611 934
Q 4013 1447 4013 2328
Q 4013 3213 3611 3725
Q 3209 4238 2522 4238
z
M 3406 84
L 4238 -825
L 3475 -825
L 2784 -78
Q 2681 -84 2626 -87
Q 2572 -91 2522 -91
Q 1538 -91 948 567
Q 359 1225 359 2328
Q 359 3434 948 4092
Q 1538 4750 2522 4750
Q 3503 4750 4090 4092
Q 4678 3434 4678 2328
Q 4678 1516 4351 937
Q 4025 359 3406 84
z
" transform="scale(0.015625)"/>
       <path id="DejaVuSans-2e" d="M 628 4666
L 1259 4666
L 1259 2694
L 3353 4666
L 4166 4666
L 1850 2491
L 4331 0
L 3500 0
L 1259 2247
L 1259 0
L 628 0
L 628 4666
z
" transform="scale(0.015625)"/>
      </defs>
      <use xlink:href="#DejaVuSans-29"/>
      <use xlink:href="#DejaVuSans-34" transform="translate(57.515625 0)"/>
      <use xlink:href="#DejaVuSans-2e" transform="translate(136.234375 0)"/>
     </g>
    </g>
    <g id="patch_14">
     <path d="M 361.471635 70.847261
L 379.471635 70.847261
L 379.471635 64.547261
L 361.471635 64.547261
z
" style="fill: url(#h0443fc1153); stroke: #17202a; stroke-width: 0.6; stroke-linejoin: miter"/>
    </g>
    <g id="text_14">
     <!-- C02-T02 -->
     <g transform="translate(386.671635 70.847261) scale(0.09 -0.09)">
      <defs>
       <path id="DejaVuSans-10" d="M 313 2009
L 1997 2009
L 1997 1497
L 313 1497
L 313 2009
z
" transform="scale(0.015625)"/>
       <path id="DejaVuSans-37" d="M -19 4666
L 3928 4666
L 3928 4134
L 2272 4134
L 2272 0
L 1638 0
L 1638 4134
L -19 4134
L -19 4666
z
" transform="scale(0.015625)"/>
      </defs>
      <use xlink:href="#DejaVuSans-26"/>
      <use xlink:href="#DejaVuSans-13" transform="translate(69.828125 0)"/>
      <use xlink:href="#DejaVuSans-15" transform="translate(133.453125 0)"/>
      <use xlink:href="#DejaVuSans-10" transform="translate(197.078125 0)"/>
      <use xlink:href="#DejaVuSans-37" transform="translate(223.984375 0)"/>
      <use xlink:href="#DejaVuSans-13" transform="translate(285.0625 0)"/>
      <use xlink:href="#DejaVuSans-15" transform="translate(348.6875 0)"/>
     </g>
    </g>
   </g>
  </g>
  <g id="axes_2">
   <g id="patch_15">
    <path d="M 474.833276 363.443336
L 865.19952 363.443336
L 865.19952 42.407964
L 474.833276 42.407964
z
" style="fill: #ffffff"/>
   </g>
   <g id="patch_16">
    <path d="M 492.577196 363.443336
L 566.854071 363.443336
L 566.854071 84.282143
L 492.577196 84.282143
z
" clip-path="url(#p161cf78aab)" style="fill: #0072b2; stroke: #17202a; stroke-width: 0.6; stroke-linejoin: miter"/>
   </g>
   <g id="patch_17">
    <path d="M 698.901849 363.443336
L 773.178725 363.443336
L 773.178725 335.973139
L 698.901849 335.973139
z
" clip-path="url(#p161cf78aab)" style="fill: #0072b2; stroke: #17202a; stroke-width: 0.6; stroke-linejoin: miter"/>
   </g>
   <g id="patch_18">
    <path d="M 566.854071 363.443336
L 641.130946 363.443336
L 641.130946 151.459951
L 566.854071 151.459951
z
" clip-path="url(#p161cf78aab)" style="fill: url(#h0443fc1153); stroke: #17202a; stroke-width: 0.6; stroke-linejoin: miter"/>
   </g>
   <g id="patch_19">
    <path d="M 773.178725 363.443336
L 847.4556 363.443336
L 847.4556 352.690429
L 773.178725 352.690429
z
" clip-path="url(#p161cf78aab)" style="fill: url(#h0443fc1153); stroke: #17202a; stroke-width: 0.6; stroke-linejoin: miter"/>
   </g>
   <g id="matplotlib.axis_3">
    <g id="xtick_5">
     <g id="line2d_17">
      <g>
       <use xlink:href="#ma726762a11" x="566.854071" y="363.443336" style="fill: #17202a; stroke: #17202a; stroke-width: 0.8"/>
      </g>
     </g>
     <g id="text_15">
      <!-- False-negative rate -->
      <g style="fill: #17202a" transform="translate(481.946236 395.084658) rotate(-12) scale(0.09 -0.09)">
       <defs>
        <path id="DejaVuSans-4a" d="M 2906 1791
Q 2906 2416 2648 2759
Q 2391 3103 1925 3103
Q 1463 3103 1205 2759
Q 947 2416 947 1791
Q 947 1169 1205 825
Q 1463 481 1925 481
Q 2391 481 2648 825
Q 2906 1169 2906 1791
z
M 3481 434
Q 3481 -459 3084 -895
Q 2688 -1331 1869 -1331
Q 1566 -1331 1297 -1286
Q 1028 -1241 775 -1147
L 775 -588
Q 1028 -725 1275 -790
Q 1522 -856 1778 -856
Q 2344 -856 2625 -561
Q 2906 -266 2906 331
L 2906 616
Q 2728 306 2450 153
Q 2172 0 1784 0
Q 1141 0 747 490
Q 353 981 353 1791
Q 353 2603 747 3093
Q 1141 3584 1784 3584
Q 2172 3584 2450 3431
Q 2728 3278 2906 2969
L 2906 3500
L 3481 3500
L 3481 434
z
" transform="scale(0.015625)"/>
        <path id="DejaVuSans-59" d="M 191 3500
L 800 3500
L 1894 563
L 2988 3500
L 3597 3500
L 2284 0
L 1503 0
L 191 3500
z
" transform="scale(0.015625)"/>
       </defs>
       <use xlink:href="#DejaVuSans-29"/>
       <use xlink:href="#DejaVuSans-44" transform="translate(48.34375 0)"/>
       <use xlink:href="#DejaVuSans-4f" transform="translate(109.625 0)"/>
       <use xlink:href="#DejaVuSans-56" transform="translate(137.40625 0)"/>
       <use xlink:href="#DejaVuSans-48" transform="translate(189.5 0)"/>
       <use xlink:href="#DejaVuSans-10" transform="translate(251.03125 0)"/>
       <use xlink:href="#DejaVuSans-51" transform="translate(287.109375 0)"/>
       <use xlink:href="#DejaVuSans-48" transform="translate(350.484375 0)"/>
       <use xlink:href="#DejaVuSans-4a" transform="translate(412.015625 0)"/>
       <use xlink:href="#DejaVuSans-44" transform="translate(475.5 0)"/>
       <use xlink:href="#DejaVuSans-57" transform="translate(536.78125 0)"/>
       <use xlink:href="#DejaVuSans-4c" transform="translate(575.984375 0)"/>
       <use xlink:href="#DejaVuSans-59" transform="translate(603.765625 0)"/>
       <use xlink:href="#DejaVuSans-48" transform="translate(662.953125 0)"/>
       <use xlink:href="#DejaVuSans-3" transform="translate(724.484375 0)"/>
       <use xlink:href="#DejaVuSans-55" transform="translate(756.265625 0)"/>
       <use xlink:href="#DejaVuSans-44" transform="translate(797.375 0)"/>
       <use xlink:href="#DejaVuSans-57" transform="translate(858.65625 0)"/>
       <use xlink:href="#DejaVuSans-48" transform="translate(897.859375 0)"/>
      </g>
     </g>
    </g>
    <g id="xtick_6">
     <g id="line2d_18">
      <g>
       <use xlink:href="#ma726762a11" x="773.178725" y="363.443336" style="fill: #17202a; stroke: #17202a; stroke-width: 0.8"/>
      </g>
     </g>
     <g id="text_16">
      <!-- False-positive rate -->
      <g style="fill: #17202a" transform="translate(692.243391 394.240277) rotate(-12) scale(0.09 -0.09)">
       <defs>
        <path id="DejaVuSans-53" d="M 1159 525
L 1159 -1331
L 581 -1331
L 581 3500
L 1159 3500
L 1159 2969
Q 1341 3281 1617 3432
Q 1894 3584 2278 3584
Q 2916 3584 3314 3078
Q 3713 2572 3713 1747
Q 3713 922 3314 415
Q 2916 -91 2278 -91
Q 1894 -91 1617 61
Q 1341 213 1159 525
z
M 3116 1747
Q 3116 2381 2855 2742
Q 2594 3103 2138 3103
Q 1681 3103 1420 2742
Q 1159 2381 1159 1747
Q 1159 1113 1420 752
Q 1681 391 2138 391
Q 2594 391 2855 752
Q 3116 1113 3116 1747
z
" transform="scale(0.015625)"/>
       </defs>
       <use xlink:href="#DejaVuSans-29"/>
       <use xlink:href="#DejaVuSans-44" transform="translate(48.34375 0)"/>
       <use xlink:href="#DejaVuSans-4f" transform="translate(109.625 0)"/>
       <use xlink:href="#DejaVuSans-56" transform="translate(137.40625 0)"/>
       <use xlink:href="#DejaVuSans-48" transform="translate(189.5 0)"/>
       <use xlink:href="#DejaVuSans-10" transform="translate(251.03125 0)"/>
       <use xlink:href="#DejaVuSans-53" transform="translate(287.109375 0)"/>
       <use xlink:href="#DejaVuSans-52" transform="translate(350.59375 0)"/>
       <use xlink:href="#DejaVuSans-56" transform="translate(411.78125 0)"/>
       <use xlink:href="#DejaVuSans-4c" transform="translate(463.875 0)"/>
       <use xlink:href="#DejaVuSans-57" transform="translate(491.65625 0)"/>
       <use xlink:href="#DejaVuSans-4c" transform="translate(530.859375 0)"/>
       <use xlink:href="#DejaVuSans-59" transform="translate(558.640625 0)"/>
       <use xlink:href="#DejaVuSans-48" transform="translate(617.828125 0)"/>
       <use xlink:href="#DejaVuSans-3" transform="translate(679.359375 0)"/>
       <use xlink:href="#DejaVuSans-55" transform="translate(711.140625 0)"/>
       <use xlink:href="#DejaVuSans-44" transform="translate(752.25 0)"/>
       <use xlink:href="#DejaVuSans-57" transform="translate(813.53125 0)"/>
       <use xlink:href="#DejaVuSans-48" transform="translate(852.734375 0)"/>
      </g>
     </g>
    </g>
   </g>
   <g id="matplotlib.axis_4">
    <g id="ytick_7">
     <g id="line2d_19">
      <path d="M 474.833276 363.443336
L 865.19952 363.443336
" clip-path="url(#p161cf78aab)" style="fill: none; stroke: #d9e1e8; stroke-width: 0.7; stroke-linecap: square"/>
     </g>
     <g id="line2d_20">
      <g>
       <use xlink:href="#mf4507a83ab" x="474.833276" y="363.443336" style="fill: #17202a; stroke: #17202a; stroke-width: 0.8"/>
      </g>
     </g>
     <g id="text_17">
      <!-- 0.0 -->
      <g style="fill: #17202a" transform="translate(453.520463 366.862282) scale(0.09 -0.09)">
       <use xlink:href="#DejaVuSans-13"/>
       <use xlink:href="#DejaVuSans-11" transform="translate(63.625 0)"/>
       <use xlink:href="#DejaVuSans-13" transform="translate(95.40625 0)"/>
      </g>
     </g>
    </g>
    <g id="ytick_8">
     <g id="line2d_21">
      <path d="M 474.833276 300.79076
L 865.19952 300.79076
" clip-path="url(#p161cf78aab)" style="fill: none; stroke: #d9e1e8; stroke-width: 0.7; stroke-linecap: square"/>
     </g>
     <g id="line2d_22">
      <g>
       <use xlink:href="#mf4507a83ab" x="474.833276" y="300.79076" style="fill: #17202a; stroke: #17202a; stroke-width: 0.8"/>
      </g>
     </g>
     <g id="text_18">
      <!-- 0.2 -->
      <g style="fill: #17202a" transform="translate(453.520463 304.209705) scale(0.09 -0.09)">
       <use xlink:href="#DejaVuSans-13"/>
       <use xlink:href="#DejaVuSans-11" transform="translate(63.625 0)"/>
       <use xlink:href="#DejaVuSans-15" transform="translate(95.40625 0)"/>
      </g>
     </g>
    </g>
    <g id="ytick_9">
     <g id="line2d_23">
      <path d="M 474.833276 238.138183
L 865.19952 238.138183
" clip-path="url(#p161cf78aab)" style="fill: none; stroke: #d9e1e8; stroke-width: 0.7; stroke-linecap: square"/>
     </g>
     <g id="line2d_24">
      <g>
       <use xlink:href="#mf4507a83ab" x="474.833276" y="238.138183" style="fill: #17202a; stroke: #17202a; stroke-width: 0.8"/>
      </g>
     </g>
     <g id="text_19">
      <!-- 0.4 -->
      <g style="fill: #17202a" transform="translate(453.520463 241.557128) scale(0.09 -0.09)">
       <use xlink:href="#DejaVuSans-13"/>
       <use xlink:href="#DejaVuSans-11" transform="translate(63.625 0)"/>
       <use xlink:href="#DejaVuSans-17" transform="translate(95.40625 0)"/>
      </g>
     </g>
    </g>
    <g id="ytick_10">
     <g id="line2d_25">
      <path d="M 474.833276 175.485606
L 865.19952 175.485606
" clip-path="url(#p161cf78aab)" style="fill: none; stroke: #d9e1e8; stroke-width: 0.7; stroke-linecap: square"/>
     </g>
     <g id="line2d_26">
      <g>
       <use xlink:href="#mf4507a83ab" x="474.833276" y="175.485606" style="fill: #17202a; stroke: #17202a; stroke-width: 0.8"/>
      </g>
     </g>
     <g id="text_20">
      <!-- 0.6 -->
      <g style="fill: #17202a" transform="translate(453.520463 178.904551) scale(0.09 -0.09)">
       <use xlink:href="#DejaVuSans-13"/>
       <use xlink:href="#DejaVuSans-11" transform="translate(63.625 0)"/>
       <use xlink:href="#DejaVuSans-19" transform="translate(95.40625 0)"/>
      </g>
     </g>
    </g>
    <g id="ytick_11">
     <g id="line2d_27">
      <path d="M 474.833276 112.833029
L 865.19952 112.833029
" clip-path="url(#p161cf78aab)" style="fill: none; stroke: #d9e1e8; stroke-width: 0.7; stroke-linecap: square"/>
     </g>
     <g id="line2d_28">
      <g>
       <use xlink:href="#mf4507a83ab" x="474.833276" y="112.833029" style="fill: #17202a; stroke: #17202a; stroke-width: 0.8"/>
      </g>
     </g>
     <g id="text_21">
      <!-- 0.8 -->
      <g style="fill: #17202a" transform="translate(453.520463 116.251975) scale(0.09 -0.09)">
       <use xlink:href="#DejaVuSans-13"/>
       <use xlink:href="#DejaVuSans-11" transform="translate(63.625 0)"/>
       <use xlink:href="#DejaVuSans-1b" transform="translate(95.40625 0)"/>
      </g>
     </g>
    </g>
    <g id="ytick_12">
     <g id="line2d_29">
      <path d="M 474.833276 50.180453
L 865.19952 50.180453
" clip-path="url(#p161cf78aab)" style="fill: none; stroke: #d9e1e8; stroke-width: 0.7; stroke-linecap: square"/>
     </g>
     <g id="line2d_30">
      <g>
       <use xlink:href="#mf4507a83ab" x="474.833276" y="50.180453" style="fill: #17202a; stroke: #17202a; stroke-width: 0.8"/>
      </g>
     </g>
     <g id="text_22">
      <!-- 1.0 -->
      <g style="fill: #17202a" transform="translate(453.520463 53.599398) scale(0.09 -0.09)">
       <use xlink:href="#DejaVuSans-14"/>
       <use xlink:href="#DejaVuSans-11" transform="translate(63.625 0)"/>
       <use xlink:href="#DejaVuSans-13" transform="translate(95.40625 0)"/>
      </g>
     </g>
    </g>
    <g id="text_23">
     <!-- Rate at frozen threshold 0.5 -->
     <g transform="translate(447.358354 265.905963) rotate(-90) scale(0.09 -0.09)">
      <defs>
       <path id="DejaVuSans-49" d="M 2375 4863
L 2375 4384
L 1825 4384
Q 1516 4384 1395 4259
Q 1275 4134 1275 3809
L 1275 3500
L 2222 3500
L 2222 3053
L 1275 3053
L 1275 0
L 697 0
L 697 3053
L 147 3053
L 147 3500
L 697 3500
L 697 3744
Q 697 4328 969 4595
Q 1241 4863 1831 4863
L 2375 4863
z
" transform="scale(0.015625)"/>
       <path id="DejaVuSans-5d" d="M 353 3500
L 3084 3500
L 3084 2975
L 922 459
L 3084 459
L 3084 0
L 275 0
L 275 525
L 2438 3041
L 353 3041
L 353 3500
z
" transform="scale(0.015625)"/>
       <path id="DejaVuSans-4b" d="M 3513 2113
L 3513 0
L 2938 0
L 2938 2094
Q 2938 2591 2744 2837
Q 2550 3084 2163 3084
Q 1697 3084 1428 2787
Q 1159 2491 1159 1978
L 1159 0
L 581 0
L 581 4863
L 1159 4863
L 1159 2956
Q 1366 3272 1645 3428
Q 1925 3584 2291 3584
Q 2894 3584 3203 3211
Q 3513 2838 3513 2113
z
" transform="scale(0.015625)"/>
      </defs>
      <use xlink:href="#DejaVuSans-35"/>
      <use xlink:href="#DejaVuSans-44" transform="translate(67.28125 0)"/>
      <use xlink:href="#DejaVuSans-57" transform="translate(128.5625 0)"/>
      <use xlink:href="#DejaVuSans-48" transform="translate(167.765625 0)"/>
      <use xlink:href="#DejaVuSans-3" transform="translate(229.296875 0)"/>
      <use xlink:href="#DejaVuSans-44" transform="translate(261.078125 0)"/>
      <use xlink:href="#DejaVuSans-57" transform="translate(322.359375 0)"/>
      <use xlink:href="#DejaVuSans-3" transform="translate(361.5625 0)"/>
      <use xlink:href="#DejaVuSans-49" transform="translate(393.34375 0)"/>
      <use xlink:href="#DejaVuSans-55" transform="translate(428.546875 0)"/>
      <use xlink:href="#DejaVuSans-52" transform="translate(467.453125 0)"/>
      <use xlink:href="#DejaVuSans-5d" transform="translate(528.640625 0)"/>
      <use xlink:href="#DejaVuSans-48" transform="translate(581.125 0)"/>
      <use xlink:href="#DejaVuSans-51" transform="translate(642.65625 0)"/>
      <use xlink:href="#DejaVuSans-3" transform="translate(706.03125 0)"/>
      <use xlink:href="#DejaVuSans-57" transform="translate(737.8125 0)"/>
      <use xlink:href="#DejaVuSans-4b" transform="translate(777.015625 0)"/>
      <use xlink:href="#DejaVuSans-55" transform="translate(840.390625 0)"/>
      <use xlink:href="#DejaVuSans-48" transform="translate(879.296875 0)"/>
      <use xlink:href="#DejaVuSans-56" transform="translate(940.828125 0)"/>
      <use xlink:href="#DejaVuSans-4b" transform="translate(992.921875 0)"/>
      <use xlink:href="#DejaVuSans-52" transform="translate(1056.296875 0)"/>
      <use xlink:href="#DejaVuSans-4f" transform="translate(1117.484375 0)"/>
      <use xlink:href="#DejaVuSans-47" transform="translate(1145.265625 0)"/>
      <use xlink:href="#DejaVuSans-3" transform="translate(1208.75 0)"/>
      <use xlink:href="#DejaVuSans-13" transform="translate(1240.53125 0)"/>
      <use xlink:href="#DejaVuSans-11" transform="translate(1304.15625 0)"/>
      <use xlink:href="#DejaVuSans-18" transform="translate(1335.9375 0)"/>
     </g>
    </g>
   </g>
   <g id="patch_20">
    <path d="M 474.833276 363.443336
L 474.833276 42.407964
" style="fill: none; stroke: #000000; stroke-width: 0.8; stroke-linejoin: miter; stroke-linecap: square"/>
   </g>
   <g id="patch_21">
    <path d="M 474.833276 363.443336
L 865.19952 363.443336
" style="fill: none; stroke: #000000; stroke-width: 0.8; stroke-linejoin: miter; stroke-linecap: square"/>
   </g>
   <g id="text_24">
    <!-- Safety-filter consequences -->
    <g transform="translate(474.833276 36.407964) scale(0.108 -0.108)">
     <defs>
      <path id="DejaVuSans-Bold-36" d="M 3834 4519
L 3834 3531
Q 3450 3703 3084 3790
Q 2719 3878 2394 3878
Q 1963 3878 1756 3759
Q 1550 3641 1550 3391
Q 1550 3203 1689 3098
Q 1828 2994 2194 2919
L 2706 2816
Q 3484 2659 3812 2340
Q 4141 2022 4141 1434
Q 4141 663 3683 286
Q 3225 -91 2284 -91
Q 1841 -91 1394 -6
Q 947 78 500 244
L 500 1259
Q 947 1022 1364 901
Q 1781 781 2169 781
Q 2563 781 2772 912
Q 2981 1044 2981 1288
Q 2981 1506 2839 1625
Q 2697 1744 2272 1838
L 1806 1941
Q 1106 2091 782 2419
Q 459 2747 459 3303
Q 459 4000 909 4375
Q 1359 4750 2203 4750
Q 2588 4750 2994 4692
Q 3400 4634 3834 4519
z
" transform="scale(0.015625)"/>
      <path id="DejaVuSans-Bold-44" d="M 2106 1575
Q 1756 1575 1579 1456
Q 1403 1338 1403 1106
Q 1403 894 1545 773
Q 1688 653 1941 653
Q 2256 653 2472 879
Q 2688 1106 2688 1447
L 2688 1575
L 2106 1575
z
M 3816 1997
L 3816 0
L 2688 0
L 2688 519
Q 2463 200 2181 54
Q 1900 -91 1497 -91
Q 953 -91 614 226
Q 275 544 275 1050
Q 275 1666 698 1953
Q 1122 2241 2028 2241
L 2688 2241
L 2688 2328
Q 2688 2594 2478 2717
Q 2269 2841 1825 2841
Q 1466 2841 1156 2769
Q 847 2697 581 2553
L 581 3406
Q 941 3494 1303 3539
Q 1666 3584 2028 3584
Q 2975 3584 3395 3211
Q 3816 2838 3816 1997
z
" transform="scale(0.015625)"/>
      <path id="DejaVuSans-Bold-49" d="M 2841 4863
L 2841 4128
L 2222 4128
Q 1984 4128 1890 4042
Q 1797 3956 1797 3744
L 1797 3500
L 2753 3500
L 2753 2700
L 1797 2700
L 1797 0
L 678 0
L 678 2700
L 122 2700
L 122 3500
L 678 3500
L 678 3744
Q 678 4316 997 4589
Q 1316 4863 1984 4863
L 2841 4863
z
" transform="scale(0.015625)"/>
      <path id="DejaVuSans-Bold-5c" d="M 78 3500
L 1197 3500
L 2138 1125
L 2938 3500
L 4056 3500
L 2584 -331
Q 2363 -916 2067 -1148
Q 1772 -1381 1288 -1381
L 641 -1381
L 641 -647
L 991 -647
Q 1275 -647 1404 -556
Q 1534 -466 1606 -231
L 1638 -134
L 78 3500
z
" transform="scale(0.015625)"/>
      <path id="DejaVuSans-Bold-10" d="M 347 2297
L 2309 2297
L 2309 1388
L 347 1388
L 347 2297
z
" transform="scale(0.015625)"/>
      <path id="DejaVuSans-Bold-13ab" d="M 3078 4863
L 4206 4863
L 4206 3950
L 3078 3950
L 3078 4863
z
M 2847 4863
L 2847 4128
L 2228 4128
Q 1994 4128 1903 4042
Q 1813 3956 1813 3744
L 1813 3500
L 4206 3500
L 4206 0
L 3078 0
L 3078 2700
L 1813 2700
L 1813 0
L 684 0
L 684 2700
L 134 2700
L 134 3500
L 684 3500
L 684 3744
Q 684 4316 1003 4589
Q 1322 4863 1991 4863
L 2847 4863
z
" transform="scale(0.015625)"/>
      <path id="DejaVuSans-Bold-4f" d="M 538 4863
L 1656 4863
L 1656 0
L 538 0
L 538 4863
z
" transform="scale(0.015625)"/>
      <path id="DejaVuSans-Bold-54" d="M 2181 2772
Q 1825 2772 1636 2509
Q 1447 2247 1447 1747
Q 1447 1247 1636 984
Q 1825 722 2181 722
Q 2541 722 2730 984
Q 2919 1247 2919 1747
Q 2919 2247 2730 2509
Q 2541 2772 2181 2772
z
M 2919 506
Q 2688 197 2409 53
Q 2131 -91 1766 -91
Q 1119 -91 703 423
Q 288 938 288 1747
Q 288 2556 703 3067
Q 1119 3578 1766 3578
Q 2131 3578 2409 3434
Q 2688 3291 2919 2981
L 2919 3500
L 4044 3500
L 4044 -1331
L 2919 -1331
L 2919 506
z
" transform="scale(0.015625)"/>
      <path id="DejaVuSans-Bold-58" d="M 500 1363
L 500 3500
L 1625 3500
L 1625 3150
Q 1625 2866 1622 2436
Q 1619 2006 1619 1863
Q 1619 1441 1641 1255
Q 1663 1069 1716 984
Q 1784 875 1895 815
Q 2006 756 2150 756
Q 2500 756 2700 1025
Q 2900 1294 2900 1772
L 2900 3500
L 4019 3500
L 4019 0
L 2900 0
L 2900 506
Q 2647 200 2364 54
Q 2081 -91 1741 -91
Q 1134 -91 817 281
Q 500 653 500 1363
z
" transform="scale(0.015625)"/>
     </defs>
     <use xlink:href="#DejaVuSans-Bold-36"/>
     <use xlink:href="#DejaVuSans-Bold-44" transform="translate(72.015625 0)"/>
     <use xlink:href="#DejaVuSans-Bold-49" transform="translate(139.5 0)"/>
     <use xlink:href="#DejaVuSans-Bold-48" transform="translate(183 0)"/>
     <use xlink:href="#DejaVuSans-Bold-57" transform="translate(250.828125 0)"/>
     <use xlink:href="#DejaVuSans-Bold-5c" transform="translate(298.625 0)"/>
     <use xlink:href="#DejaVuSans-Bold-10" transform="translate(363.8125 0)"/>
     <use xlink:href="#DejaVuSans-Bold-13ab" transform="translate(405.3125 0)"/>
     <use xlink:href="#DejaVuSans-Bold-4f" transform="translate(479.4375 0)"/>
     <use xlink:href="#DejaVuSans-Bold-57" transform="translate(513.71875 0)"/>
     <use xlink:href="#DejaVuSans-Bold-48" transform="translate(561.515625 0)"/>
     <use xlink:href="#DejaVuSans-Bold-55" transform="translate(629.34375 0)"/>
     <use xlink:href="#DejaVuSans-Bold-3" transform="translate(678.65625 0)"/>
     <use xlink:href="#DejaVuSans-Bold-46" transform="translate(713.46875 0)"/>
     <use xlink:href="#DejaVuSans-Bold-52" transform="translate(772.75 0)"/>
     <use xlink:href="#DejaVuSans-Bold-51" transform="translate(841.453125 0)"/>
     <use xlink:href="#DejaVuSans-Bold-56" transform="translate(912.640625 0)"/>
     <use xlink:href="#DejaVuSans-Bold-48" transform="translate(972.15625 0)"/>
     <use xlink:href="#DejaVuSans-Bold-54" transform="translate(1039.984375 0)"/>
     <use xlink:href="#DejaVuSans-Bold-58" transform="translate(1111.5625 0)"/>
     <use xlink:href="#DejaVuSans-Bold-48" transform="translate(1182.75 0)"/>
     <use xlink:href="#DejaVuSans-Bold-51" transform="translate(1250.578125 0)"/>
     <use xlink:href="#DejaVuSans-Bold-46" transform="translate(1321.765625 0)"/>
     <use xlink:href="#DejaVuSans-Bold-48" transform="translate(1381.046875 0)"/>
     <use xlink:href="#DejaVuSans-Bold-56" transform="translate(1448.875 0)"/>
    </g>
   </g>
  </g>
  <g id="text_25">
   <!-- D011 feasibility-only quantum-kernel evidence -->
   <g style="fill: #17202a" transform="translate(12.83976 18.597656) scale(0.15 -0.15)">
    <defs>
     <path id="DejaVuSans-Bold-27" d="M 1791 3756
L 1791 909
L 2222 909
Q 2959 909 3348 1275
Q 3738 1641 3738 2338
Q 3738 3031 3350 3393
Q 2963 3756 2222 3756
L 1791 3756
z
M 588 4666
L 1856 4666
Q 2919 4666 3439 4514
Q 3959 4363 4331 4000
Q 4659 3684 4818 3271
Q 4978 2859 4978 2338
Q 4978 1809 4818 1395
Q 4659 981 4331 666
Q 3956 303 3431 151
Q 2906 0 1856 0
L 588 0
L 588 4666
z
" transform="scale(0.015625)"/>
     <path id="DejaVuSans-Bold-13" d="M 2944 2338
Q 2944 3213 2780 3570
Q 2616 3928 2228 3928
Q 1841 3928 1675 3570
Q 1509 3213 1509 2338
Q 1509 1453 1675 1090
Q 1841 728 2228 728
Q 2613 728 2778 1090
Q 2944 1453 2944 2338
z
M 4147 2328
Q 4147 1169 3647 539
Q 3147 -91 2228 -91
Q 1306 -91 806 539
Q 306 1169 306 2328
Q 306 3491 806 4120
Q 1306 4750 2228 4750
Q 3147 4750 3647 4120
Q 4147 3491 4147 2328
z
" transform="scale(0.015625)"/>
     <path id="DejaVuSans-Bold-14" d="M 750 831
L 1813 831
L 1813 3847
L 722 3622
L 722 4441
L 1806 4666
L 2950 4666
L 2950 831
L 4013 831
L 4013 0
L 750 0
L 750 831
z
" transform="scale(0.015625)"/>
     <path id="DejaVuSans-Bold-45" d="M 2400 722
Q 2759 722 2948 984
Q 3138 1247 3138 1747
Q 3138 2247 2948 2509
Q 2759 2772 2400 2772
Q 2041 2772 1848 2508
Q 1656 2244 1656 1747
Q 1656 1250 1848 986
Q 2041 722 2400 722
z
M 1656 2988
Q 1888 3294 2169 3439
Q 2450 3584 2816 3584
Q 3463 3584 3878 3070
Q 4294 2556 4294 1747
Q 4294 938 3878 423
Q 3463 -91 2816 -91
Q 2450 -91 2169 54
Q 1888 200 1656 506
L 1656 0
L 538 0
L 538 4863
L 1656 4863
L 1656 2988
z
" transform="scale(0.015625)"/>
     <path id="DejaVuSans-Bold-50" d="M 3781 2919
Q 3994 3244 4286 3414
Q 4578 3584 4928 3584
Q 5531 3584 5847 3212
Q 6163 2841 6163 2131
L 6163 0
L 5038 0
L 5038 1825
Q 5041 1866 5042 1909
Q 5044 1953 5044 2034
Q 5044 2406 4934 2573
Q 4825 2741 4581 2741
Q 4263 2741 4089 2478
Q 3916 2216 3909 1719
L 3909 0
L 2784 0
L 2784 1825
Q 2784 2406 2684 2573
Q 2584 2741 2328 2741
Q 2006 2741 1831 2477
Q 1656 2213 1656 1722
L 1656 0
L 531 0
L 531 3500
L 1656 3500
L 1656 2988
Q 1863 3284 2130 3434
Q 2397 3584 2719 3584
Q 3081 3584 3359 3409
Q 3638 3234 3781 2919
z
" transform="scale(0.015625)"/>
     <path id="DejaVuSans-Bold-4e" d="M 538 4863
L 1656 4863
L 1656 2216
L 2944 3500
L 4244 3500
L 2534 1894
L 4378 0
L 3022 0
L 1656 1459
L 1656 0
L 538 0
L 538 4863
z
" transform="scale(0.015625)"/>
    </defs>
    <use xlink:href="#DejaVuSans-Bold-27"/>
    <use xlink:href="#DejaVuSans-Bold-13" transform="translate(83.015625 0)"/>
    <use xlink:href="#DejaVuSans-Bold-14" transform="translate(152.59375 0)"/>
    <use xlink:href="#DejaVuSans-Bold-14" transform="translate(222.171875 0)"/>
    <use xlink:href="#DejaVuSans-Bold-3" transform="translate(291.75 0)"/>
    <use xlink:href="#DejaVuSans-Bold-49" transform="translate(326.5625 0)"/>
    <use xlink:href="#DejaVuSans-Bold-48" transform="translate(370.0625 0)"/>
    <use xlink:href="#DejaVuSans-Bold-44" transform="translate(437.890625 0)"/>
    <use xlink:href="#DejaVuSans-Bold-56" transform="translate(505.375 0)"/>
    <use xlink:href="#DejaVuSans-Bold-4c" transform="translate(564.890625 0)"/>
    <use xlink:href="#DejaVuSans-Bold-45" transform="translate(599.171875 0)"/>
    <use xlink:href="#DejaVuSans-Bold-4c" transform="translate(670.75 0)"/>
    <use xlink:href="#DejaVuSans-Bold-4f" transform="translate(705.03125 0)"/>
    <use xlink:href="#DejaVuSans-Bold-4c" transform="translate(739.3125 0)"/>
    <use xlink:href="#DejaVuSans-Bold-57" transform="translate(773.59375 0)"/>
    <use xlink:href="#DejaVuSans-Bold-5c" transform="translate(821.390625 0)"/>
    <use xlink:href="#DejaVuSans-Bold-10" transform="translate(886.578125 0)"/>
    <use xlink:href="#DejaVuSans-Bold-52" transform="translate(928.078125 0)"/>
    <use xlink:href="#DejaVuSans-Bold-51" transform="translate(996.78125 0)"/>
    <use xlink:href="#DejaVuSans-Bold-4f" transform="translate(1067.96875 0)"/>
    <use xlink:href="#DejaVuSans-Bold-5c" transform="translate(1102.25 0)"/>
    <use xlink:href="#DejaVuSans-Bold-3" transform="translate(1167.4375 0)"/>
    <use xlink:href="#DejaVuSans-Bold-54" transform="translate(1202.25 0)"/>
    <use xlink:href="#DejaVuSans-Bold-58" transform="translate(1273.828125 0)"/>
    <use xlink:href="#DejaVuSans-Bold-44" transform="translate(1345.015625 0)"/>
    <use xlink:href="#DejaVuSans-Bold-51" transform="translate(1412.5 0)"/>
    <use xlink:href="#DejaVuSans-Bold-57" transform="translate(1483.6875 0)"/>
    <use xlink:href="#DejaVuSans-Bold-58" transform="translate(1531.484375 0)"/>
    <use xlink:href="#DejaVuSans-Bold-50" transform="translate(1602.671875 0)"/>
    <use xlink:href="#DejaVuSans-Bold-10" transform="translate(1706.875 0)"/>
    <use xlink:href="#DejaVuSans-Bold-4e" transform="translate(1748.375 0)"/>
    <use xlink:href="#DejaVuSans-Bold-48" transform="translate(1812.1875 0)"/>
    <use xlink:href="#DejaVuSans-Bold-55" transform="translate(1880.015625 0)"/>
    <use xlink:href="#DejaVuSans-Bold-51" transform="translate(1929.328125 0)"/>
    <use xlink:href="#DejaVuSans-Bold-48" transform="translate(2000.515625 0)"/>
    <use xlink:href="#DejaVuSans-Bold-4f" transform="translate(2068.34375 0)"/>
    <use xlink:href="#DejaVuSans-Bold-3" transform="translate(2102.625 0)"/>
    <use xlink:href="#DejaVuSans-Bold-48" transform="translate(2137.4375 0)"/>
    <use xlink:href="#DejaVuSans-Bold-59" transform="translate(2205.265625 0)"/>
    <use xlink:href="#DejaVuSans-Bold-4c" transform="translate(2270.453125 0)"/>
    <use xlink:href="#DejaVuSans-Bold-47" transform="translate(2304.734375 0)"/>
    <use xlink:href="#DejaVuSans-Bold-48" transform="translate(2376.3125 0)"/>
    <use xlink:href="#DejaVuSans-Bold-51" transform="translate(2444.140625 0)"/>
    <use xlink:href="#DejaVuSans-Bold-46" transform="translate(2515.328125 0)"/>
    <use xlink:href="#DejaVuSans-Bold-48" transform="translate(2574.609375 0)"/>
   </g>
  </g>
  <g id="text_26">
   <!-- Development-only result: valid_exploratory_negative. Sensitivities are report-only and do not alter this decision. -->
   <g style="fill: #68737d" transform="translate(12.83976 408.11976) scale(0.078 -0.078)">
    <defs>
     <path id="DejaVuSans-27" d="M 1259 4147
L 1259 519
L 2022 519
Q 2988 519 3436 956
Q 3884 1394 3884 2338
Q 3884 3275 3436 3711
Q 2988 4147 2022 4147
L 1259 4147
z
M 628 4666
L 1925 4666
Q 3281 4666 3915 4102
Q 4550 3538 4550 2338
Q 4550 1131 3912 565
Q 3275 0 1925 0
L 628 0
L 628 4666
z
" transform="scale(0.015625)"/>
     <path id="DejaVuSans-50" d="M 3328 2828
Q 3544 3216 3844 3400
Q 4144 3584 4550 3584
Q 5097 3584 5394 3201
Q 5691 2819 5691 2113
L 5691 0
L 5113 0
L 5113 2094
Q 5113 2597 4934 2840
Q 4756 3084 4391 3084
Q 3944 3084 3684 2787
Q 3425 2491 3425 1978
L 3425 0
L 2847 0
L 2847 2094
Q 2847 2600 2669 2842
Q 2491 3084 2119 3084
Q 1678 3084 1418 2786
Q 1159 2488 1159 1978
L 1159 0
L 581 0
L 581 3500
L 1159 3500
L 1159 2956
Q 1356 3278 1631 3431
Q 1906 3584 2284 3584
Q 2666 3584 2933 3390
Q 3200 3197 3328 2828
z
" transform="scale(0.015625)"/>
     <path id="DejaVuSans-5c" d="M 2059 -325
Q 1816 -950 1584 -1140
Q 1353 -1331 966 -1331
L 506 -1331
L 506 -850
L 844 -850
Q 1081 -850 1212 -737
Q 1344 -625 1503 -206
L 1606 56
L 191 3500
L 800 3500
L 1894 763
L 2988 3500
L 3597 3500
L 2059 -325
z
" transform="scale(0.015625)"/>
     <path id="DejaVuSans-58" d="M 544 1381
L 544 3500
L 1119 3500
L 1119 1403
Q 1119 906 1312 657
Q 1506 409 1894 409
Q 2359 409 2629 706
Q 2900 1003 2900 1516
L 2900 3500
L 3475 3500
L 3475 0
L 2900 0
L 2900 538
Q 2691 219 2414 64
Q 2138 -91 1772 -91
Q 1169 -91 856 284
Q 544 659 544 1381
z
M 1991 3584
L 1991 3584
z
" transform="scale(0.015625)"/>
     <path id="DejaVuSans-1d" d="M 750 794
L 1409 794
L 1409 0
L 750 0
L 750 794
z
M 750 3309
L 1409 3309
L 1409 2516
L 750 2516
L 750 3309
z
" transform="scale(0.015625)"/>
     <path id="DejaVuSans-42" d="M 3263 -1063
L 3263 -1509
L -63 -1509
L -63 -1063
L 3263 -1063
z
" transform="scale(0.015625)"/>
     <path id="DejaVuSans-5b" d="M 3513 3500
L 2247 1797
L 3578 0
L 2900 0
L 1881 1375
L 863 0
L 184 0
L 1544 1831
L 300 3500
L 978 3500
L 1906 2253
L 2834 3500
L 3513 3500
z
" transform="scale(0.015625)"/>
     <path id="DejaVuSans-36" d="M 3425 4513
L 3425 3897
Q 3066 4069 2747 4153
Q 2428 4238 2131 4238
Q 1616 4238 1336 4038
Q 1056 3838 1056 3469
Q 1056 3159 1242 3001
Q 1428 2844 1947 2747
L 2328 2669
Q 3034 2534 3370 2195
Q 3706 1856 3706 1288
Q 3706 609 3251 259
Q 2797 -91 1919 -91
Q 1588 -91 1214 -16
Q 841 59 441 206
L 441 856
Q 825 641 1194 531
Q 1563 422 1919 422
Q 2459 422 2753 634
Q 3047 847 3047 1241
Q 3047 1584 2836 1778
Q 2625 1972 2144 2069
L 1759 2144
Q 1053 2284 737 2584
Q 422 2884 422 3419
Q 422 4038 858 4394
Q 1294 4750 2059 4750
Q 2388 4750 2728 4690
Q 3069 4631 3425 4513
z
" transform="scale(0.015625)"/>
    </defs>
    <use xlink:href="#DejaVuSans-27"/>
    <use xlink:href="#DejaVuSans-48" transform="translate(77 0)"/>
    <use xlink:href="#DejaVuSans-59" transform="translate(138.53125 0)"/>
    <use xlink:href="#DejaVuSans-48" transform="translate(197.71875 0)"/>
    <use xlink:href="#DejaVuSans-4f" transform="translate(259.25 0)"/>
    <use xlink:href="#DejaVuSans-52" transform="translate(287.03125 0)"/>
    <use xlink:href="#DejaVuSans-53" transform="translate(348.21875 0)"/>
    <use xlink:href="#DejaVuSans-50" transform="translate(411.703125 0)"/>
    <use xlink:href="#DejaVuSans-48" transform="translate(509.109375 0)"/>
    <use xlink:href="#DejaVuSans-51" transform="translate(570.640625 0)"/>
    <use xlink:href="#DejaVuSans-57" transform="translate(634.015625 0)"/>
    <use xlink:href="#DejaVuSans-10" transform="translate(673.21875 0)"/>
    <use xlink:href="#DejaVuSans-52" transform="translate(711.15625 0)"/>
    <use xlink:href="#DejaVuSans-51" transform="translate(772.34375 0)"/>
    <use xlink:href="#DejaVuSans-4f" transform="translate(835.71875 0)"/>
    <use xlink:href="#DejaVuSans-5c" transform="translate(863.5 0)"/>
    <use xlink:href="#DejaVuSans-3" transform="translate(922.6875 0)"/>
    <use xlink:href="#DejaVuSans-55" transform="translate(954.46875 0)"/>
    <use xlink:href="#DejaVuSans-48" transform="translate(993.375 0)"/>
    <use xlink:href="#DejaVuSans-56" transform="translate(1054.90625 0)"/>
    <use xlink:href="#DejaVuSans-58" transform="translate(1107 0)"/>
    <use xlink:href="#DejaVuSans-4f" transform="translate(1170.375 0)"/>
    <use xlink:href="#DejaVuSans-57" transform="translate(1198.15625 0)"/>
    <use xlink:href="#DejaVuSans-1d" transform="translate(1237.359375 0)"/>
    <use xlink:href="#DejaVuSans-3" transform="translate(1271.046875 0)"/>
    <use xlink:href="#DejaVuSans-59" transform="translate(1302.828125 0)"/>
    <use xlink:href="#DejaVuSans-44" transform="translate(1362.015625 0)"/>
    <use xlink:href="#DejaVuSans-4f" transform="translate(1423.296875 0)"/>
    <use xlink:href="#DejaVuSans-4c" transform="translate(1451.078125 0)"/>
    <use xlink:href="#DejaVuSans-47" transform="translate(1478.859375 0)"/>
    <use xlink:href="#DejaVuSans-42" transform="translate(1542.34375 0)"/>
    <use xlink:href="#DejaVuSans-48" transform="translate(1592.34375 0)"/>
    <use xlink:href="#DejaVuSans-5b" transform="translate(1652.125 0)"/>
    <use xlink:href="#DejaVuSans-53" transform="translate(1711.3125 0)"/>
    <use xlink:href="#DejaVuSans-4f" transform="translate(1774.796875 0)"/>
    <use xlink:href="#DejaVuSans-52" transform="translate(1802.578125 0)"/>
    <use xlink:href="#DejaVuSans-55" transform="translate(1863.765625 0)"/>
    <use xlink:href="#DejaVuSans-44" transform="translate(1904.875 0)"/>
    <use xlink:href="#DejaVuSans-57" transform="translate(1966.15625 0)"/>
    <use xlink:href="#DejaVuSans-52" transform="translate(2005.359375 0)"/>
    <use xlink:href="#DejaVuSans-55" transform="translate(2066.546875 0)"/>
    <use xlink:href="#DejaVuSans-5c" transform="translate(2107.65625 0)"/>
    <use xlink:href="#DejaVuSans-42" transform="translate(2166.84375 0)"/>
    <use xlink:href="#DejaVuSans-51" transform="translate(2216.84375 0)"/>
    <use xlink:href="#DejaVuSans-48" transform="translate(2280.21875 0)"/>
    <use xlink:href="#DejaVuSans-4a" transform="translate(2341.75 0)"/>
    <use xlink:href="#DejaVuSans-44" transform="translate(2405.234375 0)"/>
    <use xlink:href="#DejaVuSans-57" transform="translate(2466.515625 0)"/>
    <use xlink:href="#DejaVuSans-4c" transform="translate(2505.71875 0)"/>
    <use xlink:href="#DejaVuSans-59" transform="translate(2533.5 0)"/>
    <use xlink:href="#DejaVuSans-48" transform="translate(2592.6875 0)"/>
    <use xlink:href="#DejaVuSans-11" transform="translate(2654.21875 0)"/>
    <use xlink:href="#DejaVuSans-3" transform="translate(2686 0)"/>
    <use xlink:href="#DejaVuSans-36" transform="translate(2717.78125 0)"/>
    <use xlink:href="#DejaVuSans-48" transform="translate(2781.265625 0)"/>
    <use xlink:href="#DejaVuSans-51" transform="translate(2842.796875 0)"/>
    <use xlink:href="#DejaVuSans-56" transform="translate(2906.171875 0)"/>
    <use xlink:href="#DejaVuSans-4c" transform="translate(2958.265625 0)"/>
    <use xlink:href="#DejaVuSans-57" transform="translate(2986.046875 0)"/>
    <use xlink:href="#DejaVuSans-4c" transform="translate(3025.25 0)"/>
    <use xlink:href="#DejaVuSans-59" transform="translate(3053.03125 0)"/>
    <use xlink:href="#DejaVuSans-4c" transform="translate(3112.21875 0)"/>
    <use xlink:href="#DejaVuSans-57" transform="translate(3140 0)"/>
    <use xlink:href="#DejaVuSans-4c" transform="translate(3179.203125 0)"/>
    <use xlink:href="#DejaVuSans-48" transform="translate(3206.984375 0)"/>
    <use xlink:href="#DejaVuSans-56" transform="translate(3268.515625 0)"/>
    <use xlink:href="#DejaVuSans-3" transform="translate(3320.609375 0)"/>
    <use xlink:href="#DejaVuSans-44" transform="translate(3352.390625 0)"/>
    <use xlink:href="#DejaVuSans-55" transform="translate(3413.671875 0)"/>
    <use xlink:href="#DejaVuSans-48" transform="translate(3452.578125 0)"/>
    <use xlink:href="#DejaVuSans-3" transform="translate(3514.109375 0)"/>
    <use xlink:href="#DejaVuSans-55" transform="translate(3545.890625 0)"/>
    <use xlink:href="#DejaVuSans-48" transform="translate(3584.796875 0)"/>
    <use xlink:href="#DejaVuSans-53" transform="translate(3646.328125 0)"/>
    <use xlink:href="#DejaVuSans-52" transform="translate(3709.8125 0)"/>
    <use xlink:href="#DejaVuSans-55" transform="translate(3771 0)"/>
    <use xlink:href="#DejaVuSans-57" transform="translate(3812.109375 0)"/>
    <use xlink:href="#DejaVuSans-10" transform="translate(3851.3125 0)"/>
    <use xlink:href="#DejaVuSans-52" transform="translate(3889.25 0)"/>
    <use xlink:href="#DejaVuSans-51" transform="translate(3950.4375 0)"/>
    <use xlink:href="#DejaVuSans-4f" transform="translate(4013.8125 0)"/>
    <use xlink:href="#DejaVuSans-5c" transform="translate(4041.59375 0)"/>
    <use xlink:href="#DejaVuSans-3" transform="translate(4100.78125 0)"/>
    <use xlink:href="#DejaVuSans-44" transform="translate(4132.5625 0)"/>
    <use xlink:href="#DejaVuSans-51" transform="translate(4193.84375 0)"/>
    <use xlink:href="#DejaVuSans-47" transform="translate(4257.21875 0)"/>
    <use xlink:href="#DejaVuSans-3" transform="translate(4320.703125 0)"/>
    <use xlink:href="#DejaVuSans-47" transform="translate(4352.484375 0)"/>
    <use xlink:href="#DejaVuSans-52" transform="translate(4415.96875 0)"/>
    <use xlink:href="#DejaVuSans-3" transform="translate(4477.15625 0)"/>
    <use xlink:href="#DejaVuSans-51" transform="translate(4508.9375 0)"/>
    <use xlink:href="#DejaVuSans-52" transform="translate(4572.3125 0)"/>
    <use xlink:href="#DejaVuSans-57" transform="translate(4633.5 0)"/>
    <use xlink:href="#DejaVuSans-3" transform="translate(4672.703125 0)"/>
    <use xlink:href="#DejaVuSans-44" transform="translate(4704.484375 0)"/>
    <use xlink:href="#DejaVuSans-4f" transform="translate(4765.765625 0)"/>
    <use xlink:href="#DejaVuSans-57" transform="translate(4793.546875 0)"/>
    <use xlink:href="#DejaVuSans-48" transform="translate(4832.75 0)"/>
    <use xlink:href="#DejaVuSans-55" transform="translate(4894.28125 0)"/>
    <use xlink:href="#DejaVuSans-3" transform="translate(4935.390625 0)"/>
    <use xlink:href="#DejaVuSans-57" transform="translate(4967.171875 0)"/>
    <use xlink:href="#DejaVuSans-4b" transform="translate(5006.375 0)"/>
    <use xlink:href="#DejaVuSans-4c" transform="translate(5069.75 0)"/>
    <use xlink:href="#DejaVuSans-56" transform="translate(5097.53125 0)"/>
    <use xlink:href="#DejaVuSans-3" transform="translate(5149.625 0)"/>
    <use xlink:href="#DejaVuSans-47" transform="translate(5181.40625 0)"/>
    <use xlink:href="#DejaVuSans-48" transform="translate(5244.890625 0)"/>
    <use xlink:href="#DejaVuSans-46" transform="translate(5306.421875 0)"/>
    <use xlink:href="#DejaVuSans-4c" transform="translate(5361.40625 0)"/>
    <use xlink:href="#DejaVuSans-56" transform="translate(5389.1875 0)"/>
    <use xlink:href="#DejaVuSans-4c" transform="translate(5441.28125 0)"/>
    <use xlink:href="#DejaVuSans-52" transform="translate(5469.0625 0)"/>
    <use xlink:href="#DejaVuSans-51" transform="translate(5530.25 0)"/>
    <use xlink:href="#DejaVuSans-11" transform="translate(5593.625 0)"/>
   </g>
  </g>
 </g>
 <defs>
  <clipPath id="p744f7622ad">
   <rect x="41.513516" y="42.407964" width="390.366244" height="321.035372"/>
  </clipPath>
  <clipPath id="p161cf78aab">
   <rect x="474.833276" y="42.407964" width="390.366244" height="321.035372"/>
  </clipPath>
 </defs>
 <defs>
  <pattern id="h0443fc1153" patternUnits="userSpaceOnUse" x="0" y="0" width="72" height="72">
   <rect x="0" y="0" width="73" height="73" fill="#f9e8be"/>
   <path d="M -36 36
L 36 -36
M -30 42
L 42 -30
M -24 48
L 48 -24
M -18 54
L 54 -18
M -12 60
L 60 -12
M -6 66
L 66 -6
M 0 72
L 72 0
M 6 78
L 78 6
M 12 84
L 84 12
M 18 90
L 90 18
M 24 96
L 96 24
M 30 102
L 102 30
M 36 108
L 108 36
" style="fill: #17202a; stroke: #17202a; stroke-width: 1.0; stroke-linecap: butt; stroke-linejoin: miter"/>
  </pattern>
 </defs>
</svg>
