<?xml version="1.0" encoding="utf-8" standalone="no"?>
<!DOCTYPE svg PUBLIC "-//W3C//DTD SVG 1.1//EN"
  "http://www.w3.org/Graphics/SVG/1.1/DTD/svg11.dtd">
<svg xmlns:xlink="http://www.w3.org/1999/xlink" width="901.19952pt" height="417.193588pt" viewBox="0 0 901.19952 417.193588" xmlns="http://www.w3.org/2000/svg" version="1.1">
 <metadata>
  <rdf:RDF xmlns:dc="http://purl.org/dc/elements/1.1/" xmlns:cc="http://creativecommons.org/ns#" xmlns:rdf="http://www.w3.org/1999/02/22-rdf-syntax-ns#">
   <cc:Work>
    <dc:type rdf:resource="http://purl.org/dc/dcmitype/StillImage"/>
    <dc:format>image/svg+xml</dc:format>
    <dc:creator>
     <cc:Agent>
      <dc:title>QMLforArtemisIV D011 figure generator</dc:title>
     </cc:Agent>
    </dc:creator>
   </cc:Work>
  </rdf:RDF>
 </metadata>
 <defs>
  <style type="text/css">*{stroke-linejoin: round; stroke-linecap: butt}</style>
 </defs>
 <g id="figure_1">
  <g id="patch_1">
   <path d="M 0 417.193588
L 901.19952 417.193588
L 901.19952 0
L 0 0
z
" style="fill: #ffffff"/>
  </g>
  <g id="axes_1">
   <g id="patch_2">
    <path d="M 41.513516 368.198817
L 443.272635 368.198817
L 443.272635 42.407964
L 41.513516 42.407964
z
" style="fill: #ffffff"/>
   </g>
   <g id="matplotlib.axis_1">
    <g id="xtick_1">
     <g id="line2d_1">
      <defs>
       <path id="ma726762a11" d="M 0 0
L 0 3.5
" style="stroke: #17202a; stroke-width: 0.8"/>
      </defs>
      <g>
       <use xlink:href="#ma726762a11" x="59.775294" y="368.198817" style="fill: #17202a; stroke: #17202a; stroke-width: 0.8"/>
      </g>
     </g>
     <g id="text_1">
      <!-- 128 -->
      <g style="fill: #17202a" transform="translate(51.185919 382.036707) scale(0.09 -0.09)">
       <defs>
        <path id="DejaVuSans-14" d="M 794 531
L 1825 531
L 1825 4091
L 703 3866
L 703 4441
L 1819 4666
L 2450 4666
L 2450 531
L 3481 531
L 3481 0
L 794 0
L 794 531
z
" transform="scale(0.015625)"/>
        <path id="DejaVuSans-15" d="M 1228 531
L 3431 531
L 3431 0
L 469 0
L 469 531
Q 828 903 1448 1529
Q 2069 2156 2228 2338
Q 2531 2678 2651 2914
Q 2772 3150 2772 3378
Q 2772 3750 2511 3984
Q 2250 4219 1831 4219
Q 1534 4219 1204 4116
Q 875 4013 500 3803
L 500 4441
Q 881 4594 1212 4672
Q 1544 4750 1819 4750
Q 2544 4750 2975 4387
Q 3406 4025 3406 3419
Q 3406 3131 3298 2873
Q 3191 2616 2906 2266
Q 2828 2175 2409 1742
Q 1991 1309 1228 531
z
" transform="scale(0.015625)"/>
        <path id="DejaVuSans-1b" d="M 2034 2216
Q 1584 2216 1326 1975
Q 1069 1734 1069 1313
Q 1069 891 1326 650
Q 1584 409 2034 409
Q 2484 409 2743 651
Q 3003 894 3003 1313
Q 3003 1734 2745 1975
Q 2488 2216 2034 2216
z
M 1403 2484
Q 997 2584 770 2862
Q 544 3141 544 3541
Q 544 4100 942 4425
Q 1341 4750 2034 4750
Q 2731 4750 3128 4425
Q 3525 4100 3525 3541
Q 3525 3141 3298 2862
Q 3072 2584 2669 2484
Q 3125 2378 3379 2068
Q 3634 1759 3634 1313
Q 3634 634 3220 271
Q 2806 -91 2034 -91
Q 1263 -91 848 271
Q 434 634 434 1313
Q 434 1759 690 2068
Q 947 2378 1403 2484
z
M 1172 3481
Q 1172 3119 1398 2916
Q 1625 2713 2034 2713
Q 2441 2713 2670 2916
Q 2900 3119 2900 3481
Q 2900 3844 2670 4047
Q 2441 4250 2034 4250
Q 1625 4250 1398 4047
Q 1172 3844 1172 3481
z
" transform="scale(0.015625)"/>
       </defs>
       <use xlink:href="#DejaVuSans-14"/>
       <use xlink:href="#DejaVuSans-15" transform="translate(63.625 0)"/>
       <use xlink:href="#DejaVuSans-1b" transform="translate(127.25 0)"/>
      </g>
     </g>
    </g>
    <g id="xtick_2">
     <g id="line2d_2">
      <g>
       <use xlink:href="#ma726762a11" x="181.520481" y="368.198817" style="fill: #17202a; stroke: #17202a; stroke-width: 0.8"/>
      </g>
     </g>
     <g id="text_2">
      <!-- 256 -->
      <g style="fill: #17202a" transform="translate(172.931106 382.036707) scale(0.09 -0.09)">
       <defs>
        <path id="DejaVuSans-18" d="M 691 4666
L 3169 4666
L 3169 4134
L 1269 4134
L 1269 2991
Q 1406 3038 1543 3061
Q 1681 3084 1819 3084
Q 2600 3084 3056 2656
Q 3513 2228 3513 1497
Q 3513 744 3044 326
Q 2575 -91 1722 -91
Q 1428 -91 1123 -41
Q 819 9 494 109
L 494 744
Q 775 591 1075 516
Q 1375 441 1709 441
Q 2250 441 2565 725
Q 2881 1009 2881 1497
Q 2881 1984 2565 2268
Q 2250 2553 1709 2553
Q 1456 2553 1204 2497
Q 953 2441 691 2322
L 691 4666
z
" transform="scale(0.015625)"/>
        <path id="DejaVuSans-19" d="M 2113 2584
Q 1688 2584 1439 2293
Q 1191 2003 1191 1497
Q 1191 994 1439 701
Q 1688 409 2113 409
Q 2538 409 2786 701
Q 3034 994 3034 1497
Q 3034 2003 2786 2293
Q 2538 2584 2113 2584
z
M 3366 4563
L 3366 3988
Q 3128 4100 2886 4159
Q 2644 4219 2406 4219
Q 1781 4219 1451 3797
Q 1122 3375 1075 2522
Q 1259 2794 1537 2939
Q 1816 3084 2150 3084
Q 2853 3084 3261 2657
Q 3669 2231 3669 1497
Q 3669 778 3244 343
Q 2819 -91 2113 -91
Q 1303 -91 875 529
Q 447 1150 447 2328
Q 447 3434 972 4092
Q 1497 4750 2381 4750
Q 2619 4750 2861 4703
Q 3103 4656 3366 4563
z
" transform="scale(0.015625)"/>
       </defs>
       <use xlink:href="#DejaVuSans-15"/>
       <use xlink:href="#DejaVuSans-18" transform="translate(63.625 0)"/>
       <use xlink:href="#DejaVuSans-19" transform="translate(127.25 0)"/>
      </g>
     </g>
    </g>
    <g id="xtick_3">
     <g id="line2d_3">
      <g>
       <use xlink:href="#ma726762a11" x="303.265669" y="368.198817" style="fill: #17202a; stroke: #17202a; stroke-width: 0.8"/>
      </g>
     </g>
     <g id="text_3">
      <!-- 512 -->
      <g style="fill: #17202a" transform="translate(294.676294 382.036707) scale(0.09 -0.09)">
       <use xlink:href="#DejaVuSans-18"/>
       <use xlink:href="#DejaVuSans-14" transform="translate(63.625 0)"/>
       <use xlink:href="#DejaVuSans-15" transform="translate(127.25 0)"/>
      </g>
     </g>
    </g>
    <g id="xtick_4">
     <g id="line2d_4">
      <g>
       <use xlink:href="#ma726762a11" x="425.010857" y="368.198817" style="fill: #17202a; stroke: #17202a; stroke-width: 0.8"/>
      </g>
     </g>
     <g id="text_4">
      <!-- 1,024 -->
      <g style="fill: #17202a" transform="translate(412.128201 382.036707) scale(0.09 -0.09)">
       <defs>
        <path id="DejaVuSans-f" d="M 750 794
L 1409 794
L 1409 256
L 897 -744
L 494 -744
L 750 256
L 750 794
z
" transform="scale(0.015625)"/>
        <path id="DejaVuSans-13" d="M 2034 4250
Q 1547 4250 1301 3770
Q 1056 3291 1056 2328
Q 1056 1369 1301 889
Q 1547 409 2034 409
Q 2525 409 2770 889
Q 3016 1369 3016 2328
Q 3016 3291 2770 3770
Q 2525 4250 2034 4250
z
M 2034 4750
Q 2819 4750 3233 4129
Q 3647 3509 3647 2328
Q 3647 1150 3233 529
Q 2819 -91 2034 -91
Q 1250 -91 836 529
Q 422 1150 422 2328
Q 422 3509 836 4129
Q 1250 4750 2034 4750
z
" transform="scale(0.015625)"/>
        <path id="DejaVuSans-17" d="M 2419 4116
L 825 1625
L 2419 1625
L 2419 4116
z
M 2253 4666
L 3047 4666
L 3047 1625
L 3713 1625
L 3713 1100
L 3047 1100
L 3047 0
L 2419 0
L 2419 1100
L 313 1100
L 313 1709
L 2253 4666
z
" transform="scale(0.015625)"/>
       </defs>
       <use xlink:href="#DejaVuSans-14"/>
       <use xlink:href="#DejaVuSans-f" transform="translate(63.625 0)"/>
       <use xlink:href="#DejaVuSans-13" transform="translate(95.40625 0)"/>
       <use xlink:href="#DejaVuSans-15" transform="translate(159.03125 0)"/>
       <use xlink:href="#DejaVuSans-17" transform="translate(222.65625 0)"/>
      </g>
     </g>
    </g>
    <g id="text_5">
     <!-- Training rows per grouped fold -->
     <g transform="translate(173.772997 395.037411) scale(0.09 -0.09)">
      <defs>
       <path id="DejaVuSans-37" d="M -19 4666
L 3928 4666
L 3928 4134
L 2272 4134
L 2272 0
L 1638 0
L 1638 4134
L -19 4134
L -19 4666
z
" transform="scale(0.015625)"/>
       <path id="DejaVuSans-55" d="M 2631 2963
Q 2534 3019 2420 3045
Q 2306 3072 2169 3072
Q 1681 3072 1420 2755
Q 1159 2438 1159 1844
L 1159 0
L 581 0
L 581 3500
L 1159 3500
L 1159 2956
Q 1341 3275 1631 3429
Q 1922 3584 2338 3584
Q 2397 3584 2469 3576
Q 2541 3569 2628 3553
L 2631 2963
z
" transform="scale(0.015625)"/>
       <path id="DejaVuSans-44" d="M 2194 1759
Q 1497 1759 1228 1600
Q 959 1441 959 1056
Q 959 750 1161 570
Q 1363 391 1709 391
Q 2188 391 2477 730
Q 2766 1069 2766 1631
L 2766 1759
L 2194 1759
z
M 3341 1997
L 3341 0
L 2766 0
L 2766 531
Q 2569 213 2275 61
Q 1981 -91 1556 -91
Q 1019 -91 701 211
Q 384 513 384 1019
Q 384 1609 779 1909
Q 1175 2209 1959 2209
L 2766 2209
L 2766 2266
Q 2766 2663 2505 2880
Q 2244 3097 1772 3097
Q 1472 3097 1187 3025
Q 903 2953 641 2809
L 641 3341
Q 956 3463 1253 3523
Q 1550 3584 1831 3584
Q 2591 3584 2966 3190
Q 3341 2797 3341 1997
z
" transform="scale(0.015625)"/>
       <path id="DejaVuSans-4c" d="M 603 3500
L 1178 3500
L 1178 0
L 603 0
L 603 3500
z
M 603 4863
L 1178 4863
L 1178 4134
L 603 4134
L 603 4863
z
" transform="scale(0.015625)"/>
       <path id="DejaVuSans-51" d="M 3513 2113
L 3513 0
L 2938 0
L 2938 2094
Q 2938 2591 2744 2837
Q 2550 3084 2163 3084
Q 1697 3084 1428 2787
Q 1159 2491 1159 1978
L 1159 0
L 581 0
L 581 3500
L 1159 3500
L 1159 2956
Q 1366 3272 1645 3428
Q 1925 3584 2291 3584
Q 2894 3584 3203 3211
Q 3513 2838 3513 2113
z
" transform="scale(0.015625)"/>
       <path id="DejaVuSans-4a" d="M 2906 1791
Q 2906 2416 2648 2759
Q 2391 3103 1925 3103
Q 1463 3103 1205 2759
Q 947 2416 947 1791
Q 947 1169 1205 825
Q 1463 481 1925 481
Q 2391 481 2648 825
Q 2906 1169 2906 1791
z
M 3481 434
Q 3481 -459 3084 -895
Q 2688 -1331 1869 -1331
Q 1566 -1331 1297 -1286
Q 1028 -1241 775 -1147
L 775 -588
Q 1028 -725 1275 -790
Q 1522 -856 1778 -856
Q 2344 -856 2625 -561
Q 2906 -266 2906 331
L 2906 616
Q 2728 306 2450 153
Q 2172 0 1784 0
Q 1141 0 747 490
Q 353 981 353 1791
Q 353 2603 747 3093
Q 1141 3584 1784 3584
Q 2172 3584 2450 3431
Q 2728 3278 2906 2969
L 2906 3500
L 3481 3500
L 3481 434
z
" transform="scale(0.015625)"/>
       <path id="DejaVuSans-3" transform="scale(0.015625)"/>
       <path id="DejaVuSans-52" d="M 1959 3097
Q 1497 3097 1228 2736
Q 959 2375 959 1747
Q 959 1119 1226 758
Q 1494 397 1959 397
Q 2419 397 2687 759
Q 2956 1122 2956 1747
Q 2956 2369 2687 2733
Q 2419 3097 1959 3097
z
M 1959 3584
Q 2709 3584 3137 3096
Q 3566 2609 3566 1747
Q 3566 888 3137 398
Q 2709 -91 1959 -91
Q 1206 -91 779 398
Q 353 888 353 1747
Q 353 2609 779 3096
Q 1206 3584 1959 3584
z
" transform="scale(0.015625)"/>
       <path id="DejaVuSans-5a" d="M 269 3500
L 844 3500
L 1563 769
L 2278 3500
L 2956 3500
L 3675 769
L 4391 3500
L 4966 3500
L 4050 0
L 3372 0
L 2619 2869
L 1863 0
L 1184 0
L 269 3500
z
" transform="scale(0.015625)"/>
       <path id="DejaVuSans-56" d="M 2834 3397
L 2834 2853
Q 2591 2978 2328 3040
Q 2066 3103 1784 3103
Q 1356 3103 1142 2972
Q 928 2841 928 2578
Q 928 2378 1081 2264
Q 1234 2150 1697 2047
L 1894 2003
Q 2506 1872 2764 1633
Q 3022 1394 3022 966
Q 3022 478 2636 193
Q 2250 -91 1575 -91
Q 1294 -91 989 -36
Q 684 19 347 128
L 347 722
Q 666 556 975 473
Q 1284 391 1588 391
Q 1994 391 2212 530
Q 2431 669 2431 922
Q 2431 1156 2273 1281
Q 2116 1406 1581 1522
L 1381 1569
Q 847 1681 609 1914
Q 372 2147 372 2553
Q 372 3047 722 3315
Q 1072 3584 1716 3584
Q 2034 3584 2315 3537
Q 2597 3491 2834 3397
z
" transform="scale(0.015625)"/>
       <path id="DejaVuSans-53" d="M 1159 525
L 1159 -1331
L 581 -1331
L 581 3500
L 1159 3500
L 1159 2969
Q 1341 3281 1617 3432
Q 1894 3584 2278 3584
Q 2916 3584 3314 3078
Q 3713 2572 3713 1747
Q 3713 922 3314 415
Q 2916 -91 2278 -91
Q 1894 -91 1617 61
Q 1341 213 1159 525
z
M 3116 1747
Q 3116 2381 2855 2742
Q 2594 3103 2138 3103
Q 1681 3103 1420 2742
Q 1159 2381 1159 1747
Q 1159 1113 1420 752
Q 1681 391 2138 391
Q 2594 391 2855 752
Q 3116 1113 3116 1747
z
" transform="scale(0.015625)"/>
       <path id="DejaVuSans-48" d="M 3597 1894
L 3597 1613
L 953 1613
Q 991 1019 1311 708
Q 1631 397 2203 397
Q 2534 397 2845 478
Q 3156 559 3463 722
L 3463 178
Q 3153 47 2828 -22
Q 2503 -91 2169 -91
Q 1331 -91 842 396
Q 353 884 353 1716
Q 353 2575 817 3079
Q 1281 3584 2069 3584
Q 2775 3584 3186 3129
Q 3597 2675 3597 1894
z
M 3022 2063
Q 3016 2534 2758 2815
Q 2500 3097 2075 3097
Q 1594 3097 1305 2825
Q 1016 2553 972 2059
L 3022 2063
z
" transform="scale(0.015625)"/>
       <path id="DejaVuSans-58" d="M 544 1381
L 544 3500
L 1119 3500
L 1119 1403
Q 1119 906 1312 657
Q 1506 409 1894 409
Q 2359 409 2629 706
Q 2900 1003 2900 1516
L 2900 3500
L 3475 3500
L 3475 0
L 2900 0
L 2900 538
Q 2691 219 2414 64
Q 2138 -91 1772 -91
Q 1169 -91 856 284
Q 544 659 544 1381
z
M 1991 3584
L 1991 3584
z
" transform="scale(0.015625)"/>
       <path id="DejaVuSans-47" d="M 2906 2969
L 2906 4863
L 3481 4863
L 3481 0
L 2906 0
L 2906 525
Q 2725 213 2448 61
Q 2172 -91 1784 -91
Q 1150 -91 751 415
Q 353 922 353 1747
Q 353 2572 751 3078
Q 1150 3584 1784 3584
Q 2172 3584 2448 3432
Q 2725 3281 2906 2969
z
M 947 1747
Q 947 1113 1208 752
Q 1469 391 1925 391
Q 2381 391 2643 752
Q 2906 1113 2906 1747
Q 2906 2381 2643 2742
Q 2381 3103 1925 3103
Q 1469 3103 1208 2742
Q 947 2381 947 1747
z
" transform="scale(0.015625)"/>
       <path id="DejaVuSans-49" d="M 2375 4863
L 2375 4384
L 1825 4384
Q 1516 4384 1395 4259
Q 1275 4134 1275 3809
L 1275 3500
L 2222 3500
L 2222 3053
L 1275 3053
L 1275 0
L 697 0
L 697 3053
L 147 3053
L 147 3500
L 697 3500
L 697 3744
Q 697 4328 969 4595
Q 1241 4863 1831 4863
L 2375 4863
z
" transform="scale(0.015625)"/>
       <path id="DejaVuSans-4f" d="M 603 4863
L 1178 4863
L 1178 0
L 603 0
L 603 4863
z
" transform="scale(0.015625)"/>
      </defs>
      <use xlink:href="#DejaVuSans-37"/>
      <use xlink:href="#DejaVuSans-55" transform="translate(46.375 0)"/>
      <use xlink:href="#DejaVuSans-44" transform="translate(87.484375 0)"/>
      <use xlink:href="#DejaVuSans-4c" transform="translate(148.765625 0)"/>
      <use xlink:href="#DejaVuSans-51" transform="translate(176.546875 0)"/>
      <use xlink:href="#DejaVuSans-4c" transform="translate(239.921875 0)"/>
      <use xlink:href="#DejaVuSans-51" transform="translate(267.703125 0)"/>
      <use xlink:href="#DejaVuSans-4a" transform="translate(331.078125 0)"/>
      <use xlink:href="#DejaVuSans-3" transform="translate(394.5625 0)"/>
      <use xlink:href="#DejaVuSans-55" transform="translate(426.34375 0)"/>
      <use xlink:href="#DejaVuSans-52" transform="translate(465.25 0)"/>
      <use xlink:href="#DejaVuSans-5a" transform="translate(526.4375 0)"/>
      <use xlink:href="#DejaVuSans-56" transform="translate(608.21875 0)"/>
      <use xlink:href="#DejaVuSans-3" transform="translate(660.3125 0)"/>
      <use xlink:href="#DejaVuSans-53" transform="translate(692.09375 0)"/>
      <use xlink:href="#DejaVuSans-48" transform="translate(755.578125 0)"/>
      <use xlink:href="#DejaVuSans-55" transform="translate(817.109375 0)"/>
      <use xlink:href="#DejaVuSans-3" transform="translate(858.21875 0)"/>
      <use xlink:href="#DejaVuSans-4a" transform="translate(890 0)"/>
      <use xlink:href="#DejaVuSans-55" transform="translate(953.484375 0)"/>
      <use xlink:href="#DejaVuSans-52" transform="translate(992.390625 0)"/>
      <use xlink:href="#DejaVuSans-58" transform="translate(1053.578125 0)"/>
      <use xlink:href="#DejaVuSans-53" transform="translate(1116.953125 0)"/>
      <use xlink:href="#DejaVuSans-48" transform="translate(1180.4375 0)"/>
      <use xlink:href="#DejaVuSans-47" transform="translate(1241.96875 0)"/>
      <use xlink:href="#DejaVuSans-3" transform="translate(1305.453125 0)"/>
      <use xlink:href="#DejaVuSans-49" transform="translate(1337.234375 0)"/>
      <use xlink:href="#DejaVuSans-52" transform="translate(1372.4375 0)"/>
      <use xlink:href="#DejaVuSans-4f" transform="translate(1433.625 0)"/>
      <use xlink:href="#DejaVuSans-47" transform="translate(1461.40625 0)"/>
     </g>
    </g>
   </g>
   <g id="matplotlib.axis_2">
    <g id="ytick_1">
     <g id="line2d_5">
      <path d="M 41.513516 355.395785
L 443.272635 355.395785
" clip-path="url(#pc8bb6915dc)" style="fill: none; stroke: #d9e1e8; stroke-width: 0.7; stroke-linecap: square"/>
     </g>
     <g id="line2d_6">
      <defs>
       <path id="mf4507a83ab" d="M 0 0
L -3.5 0
" style="stroke: #17202a; stroke-width: 0.8"/>
      </defs>
      <g>
       <use xlink:href="#mf4507a83ab" x="41.513516" y="355.395785" style="fill: #17202a; stroke: #17202a; stroke-width: 0.8"/>
      </g>
     </g>
     <g id="text_6">
      <!-- 0.0 -->
      <g style="fill: #17202a" transform="translate(20.200703 358.81473) scale(0.09 -0.09)">
       <defs>
        <path id="DejaVuSans-11" d="M 684 794
L 1344 794
L 1344 0
L 684 0
L 684 794
z
" transform="scale(0.015625)"/>
       </defs>
       <use xlink:href="#DejaVuSans-13"/>
       <use xlink:href="#DejaVuSans-11" transform="translate(63.625 0)"/>
       <use xlink:href="#DejaVuSans-13" transform="translate(95.40625 0)"/>
      </g>
     </g>
    </g>
    <g id="ytick_2">
     <g id="line2d_7">
      <path d="M 41.513516 283.793798
L 443.272635 283.793798
" clip-path="url(#pc8bb6915dc)" style="fill: none; stroke: #d9e1e8; stroke-width: 0.7; stroke-linecap: square"/>
     </g>
     <g id="line2d_8">
      <g>
       <use xlink:href="#mf4507a83ab" x="41.513516" y="283.793798" style="fill: #17202a; stroke: #17202a; stroke-width: 0.8"/>
      </g>
     </g>
     <g id="text_7">
      <!-- 0.2 -->
      <g style="fill: #17202a" transform="translate(20.200703 287.212744) scale(0.09 -0.09)">
       <use xlink:href="#DejaVuSans-13"/>
       <use xlink:href="#DejaVuSans-11" transform="translate(63.625 0)"/>
       <use xlink:href="#DejaVuSans-15" transform="translate(95.40625 0)"/>
      </g>
     </g>
    </g>
    <g id="ytick_3">
     <g id="line2d_9">
      <path d="M 41.513516 212.191811
L 443.272635 212.191811
" clip-path="url(#pc8bb6915dc)" style="fill: none; stroke: #d9e1e8; stroke-width: 0.7; stroke-linecap: square"/>
     </g>
     <g id="line2d_10">
      <g>
       <use xlink:href="#mf4507a83ab" x="41.513516" y="212.191811" style="fill: #17202a; stroke: #17202a; stroke-width: 0.8"/>
      </g>
     </g>
     <g id="text_8">
      <!-- 0.4 -->
      <g style="fill: #17202a" transform="translate(20.200703 215.610757) scale(0.09 -0.09)">
       <use xlink:href="#DejaVuSans-13"/>
       <use xlink:href="#DejaVuSans-11" transform="translate(63.625 0)"/>
       <use xlink:href="#DejaVuSans-17" transform="translate(95.40625 0)"/>
      </g>
     </g>
    </g>
    <g id="ytick_4">
     <g id="line2d_11">
      <path d="M 41.513516 140.589825
L 443.272635 140.589825
" clip-path="url(#pc8bb6915dc)" style="fill: none; stroke: #d9e1e8; stroke-width: 0.7; stroke-linecap: square"/>
     </g>
     <g id="line2d_12">
      <g>
       <use xlink:href="#mf4507a83ab" x="41.513516" y="140.589825" style="fill: #17202a; stroke: #17202a; stroke-width: 0.8"/>
      </g>
     </g>
     <g id="text_9">
      <!-- 0.6 -->
      <g style="fill: #17202a" transform="translate(20.200703 144.00877) scale(0.09 -0.09)">
       <use xlink:href="#DejaVuSans-13"/>
       <use xlink:href="#DejaVuSans-11" transform="translate(63.625 0)"/>
       <use xlink:href="#DejaVuSans-19" transform="translate(95.40625 0)"/>
      </g>
     </g>
    </g>
    <g id="ytick_5">
     <g id="line2d_13">
      <path d="M 41.513516 68.987838
L 443.272635 68.987838
" clip-path="url(#pc8bb6915dc)" style="fill: none; stroke: #d9e1e8; stroke-width: 0.7; stroke-linecap: square"/>
     </g>
     <g id="line2d_14">
      <g>
       <use xlink:href="#mf4507a83ab" x="41.513516" y="68.987838" style="fill: #17202a; stroke: #17202a; stroke-width: 0.8"/>
      </g>
     </g>
     <g id="text_10">
      <!-- 0.8 -->
      <g style="fill: #17202a" transform="translate(20.200703 72.406783) scale(0.09 -0.09)">
       <use xlink:href="#DejaVuSans-13"/>
       <use xlink:href="#DejaVuSans-11" transform="translate(63.625 0)"/>
       <use xlink:href="#DejaVuSans-1b" transform="translate(95.40625 0)"/>
      </g>
     </g>
    </g>
    <g id="text_11">
     <!-- Best eligible pooled OOF NRMSE -->
     <g transform="translate(14.038594 278.229406) rotate(-90) scale(0.09 -0.09)">
      <defs>
       <path id="DejaVuSans-25" d="M 1259 2228
L 1259 519
L 2272 519
Q 2781 519 3026 730
Q 3272 941 3272 1375
Q 3272 1813 3026 2020
Q 2781 2228 2272 2228
L 1259 2228
z
M 1259 4147
L 1259 2741
L 2194 2741
Q 2656 2741 2882 2914
Q 3109 3088 3109 3444
Q 3109 3797 2882 3972
Q 2656 4147 2194 4147
L 1259 4147
z
M 628 4666
L 2241 4666
Q 2963 4666 3353 4366
Q 3744 4066 3744 3513
Q 3744 3084 3544 2831
Q 3344 2578 2956 2516
Q 3422 2416 3680 2098
Q 3938 1781 3938 1306
Q 3938 681 3513 340
Q 3088 0 2303 0
L 628 0
L 628 4666
z
" transform="scale(0.015625)"/>
       <path id="DejaVuSans-57" d="M 1172 4494
L 1172 3500
L 2356 3500
L 2356 3053
L 1172 3053
L 1172 1153
Q 1172 725 1289 603
Q 1406 481 1766 481
L 2356 481
L 2356 0
L 1766 0
Q 1100 0 847 248
Q 594 497 594 1153
L 594 3053
L 172 3053
L 172 3500
L 594 3500
L 594 4494
L 1172 4494
z
" transform="scale(0.015625)"/>
       <path id="DejaVuSans-45" d="M 3116 1747
Q 3116 2381 2855 2742
Q 2594 3103 2138 3103
Q 1681 3103 1420 2742
Q 1159 2381 1159 1747
Q 1159 1113 1420 752
Q 1681 391 2138 391
Q 2594 391 2855 752
Q 3116 1113 3116 1747
z
M 1159 2969
Q 1341 3281 1617 3432
Q 1894 3584 2278 3584
Q 2916 3584 3314 3078
Q 3713 2572 3713 1747
Q 3713 922 3314 415
Q 2916 -91 2278 -91
Q 1894 -91 1617 61
Q 1341 213 1159 525
L 1159 0
L 581 0
L 581 4863
L 1159 4863
L 1159 2969
z
" transform="scale(0.015625)"/>
       <path id="DejaVuSans-32" d="M 2522 4238
Q 1834 4238 1429 3725
Q 1025 3213 1025 2328
Q 1025 1447 1429 934
Q 1834 422 2522 422
Q 3209 422 3611 934
Q 4013 1447 4013 2328
Q 4013 3213 3611 3725
Q 3209 4238 2522 4238
z
M 2522 4750
Q 3503 4750 4090 4092
Q 4678 3434 4678 2328
Q 4678 1225 4090 567
Q 3503 -91 2522 -91
Q 1538 -91 948 565
Q 359 1222 359 2328
Q 359 3434 948 4092
Q 1538 4750 2522 4750
z
" transform="scale(0.015625)"/>
       <path id="DejaVuSans-29" d="M 628 4666
L 3309 4666
L 3309 4134
L 1259 4134
L 1259 2759
L 3109 2759
L 3109 2228
L 1259 2228
L 1259 0
L 628 0
L 628 4666
z
" transform="scale(0.015625)"/>
       <path id="DejaVuSans-31" d="M 628 4666
L 1478 4666
L 3547 763
L 3547 4666
L 4159 4666
L 4159 0
L 3309 0
L 1241 3903
L 1241 0
L 628 0
L 628 4666
z
" transform="scale(0.015625)"/>
       <path id="DejaVuSans-35" d="M 2841 2188
Q 3044 2119 3236 1894
Q 3428 1669 3622 1275
L 4263 0
L 3584 0
L 2988 1197
Q 2756 1666 2539 1819
Q 2322 1972 1947 1972
L 1259 1972
L 1259 0
L 628 0
L 628 4666
L 2053 4666
Q 2853 4666 3247 4331
Q 3641 3997 3641 3322
Q 3641 2881 3436 2590
Q 3231 2300 2841 2188
z
M 1259 4147
L 1259 2491
L 2053 2491
Q 2509 2491 2742 2702
Q 2975 2913 2975 3322
Q 2975 3731 2742 3939
Q 2509 4147 2053 4147
L 1259 4147
z
" transform="scale(0.015625)"/>
       <path id="DejaVuSans-30" d="M 628 4666
L 1569 4666
L 2759 1491
L 3956 4666
L 4897 4666
L 4897 0
L 4281 0
L 4281 4097
L 3078 897
L 2444 897
L 1241 4097
L 1241 0
L 628 0
L 628 4666
z
" transform="scale(0.015625)"/>
       <path id="DejaVuSans-36" d="M 3425 4513
L 3425 3897
Q 3066 4069 2747 4153
Q 2428 4238 2131 4238
Q 1616 4238 1336 4038
Q 1056 3838 1056 3469
Q 1056 3159 1242 3001
Q 1428 2844 1947 2747
L 2328 2669
Q 3034 2534 3370 2195
Q 3706 1856 3706 1288
Q 3706 609 3251 259
Q 2797 -91 1919 -91
Q 1588 -91 1214 -16
Q 841 59 441 206
L 441 856
Q 825 641 1194 531
Q 1563 422 1919 422
Q 2459 422 2753 634
Q 3047 847 3047 1241
Q 3047 1584 2836 1778
Q 2625 1972 2144 2069
L 1759 2144
Q 1053 2284 737 2584
Q 422 2884 422 3419
Q 422 4038 858 4394
Q 1294 4750 2059 4750
Q 2388 4750 2728 4690
Q 3069 4631 3425 4513
z
" transform="scale(0.015625)"/>
       <path id="DejaVuSans-28" d="M 628 4666
L 3578 4666
L 3578 4134
L 1259 4134
L 1259 2753
L 3481 2753
L 3481 2222
L 1259 2222
L 1259 531
L 3634 531
L 3634 0
L 628 0
L 628 4666
z
" transform="scale(0.015625)"/>
      </defs>
      <use xlink:href="#DejaVuSans-25"/>
      <use xlink:href="#DejaVuSans-48" transform="translate(68.609375 0)"/>
      <use xlink:href="#DejaVuSans-56" transform="translate(130.140625 0)"/>
      <use xlink:href="#DejaVuSans-57" transform="translate(182.234375 0)"/>
      <use xlink:href="#DejaVuSans-3" transform="translate(221.4375 0)"/>
      <use xlink:href="#DejaVuSans-48" transform="translate(253.21875 0)"/>
      <use xlink:href="#DejaVuSans-4f" transform="translate(314.75 0)"/>
      <use xlink:href="#DejaVuSans-4c" transform="translate(342.53125 0)"/>
      <use xlink:href="#DejaVuSans-4a" transform="translate(370.3125 0)"/>
      <use xlink:href="#DejaVuSans-4c" transform="translate(433.796875 0)"/>
      <use xlink:href="#DejaVuSans-45" transform="translate(461.578125 0)"/>
      <use xlink:href="#DejaVuSans-4f" transform="translate(525.0625 0)"/>
      <use xlink:href="#DejaVuSans-48" transform="translate(552.84375 0)"/>
      <use xlink:href="#DejaVuSans-3" transform="translate(614.375 0)"/>
      <use xlink:href="#DejaVuSans-53" transform="translate(646.15625 0)"/>
      <use xlink:href="#DejaVuSans-52" transform="translate(709.640625 0)"/>
      <use xlink:href="#DejaVuSans-52" transform="translate(770.828125 0)"/>
      <use xlink:href="#DejaVuSans-4f" transform="translate(832.015625 0)"/>
      <use xlink:href="#DejaVuSans-48" transform="translate(859.796875 0)"/>
      <use xlink:href="#DejaVuSans-47" transform="translate(921.328125 0)"/>
      <use xlink:href="#DejaVuSans-3" transform="translate(984.8125 0)"/>
      <use xlink:href="#DejaVuSans-32" transform="translate(1016.59375 0)"/>
      <use xlink:href="#DejaVuSans-32" transform="translate(1095.3125 0)"/>
      <use xlink:href="#DejaVuSans-29" transform="translate(1174.03125 0)"/>
      <use xlink:href="#DejaVuSans-3" transform="translate(1231.546875 0)"/>
      <use xlink:href="#DejaVuSans-31" transform="translate(1263.328125 0)"/>
      <use xlink:href="#DejaVuSans-35" transform="translate(1338.140625 0)"/>
      <use xlink:href="#DejaVuSans-30" transform="translate(1407.625 0)"/>
      <use xlink:href="#DejaVuSans-36" transform="translate(1493.90625 0)"/>
      <use xlink:href="#DejaVuSans-28" transform="translate(1557.390625 0)"/>
     </g>
    </g>
   </g>
   <g id="line2d_15">
    <path d="M 59.775294 61.771466
L 181.520481 57.216639
L 303.265669 115.489939
L 425.010857 118.79897
" clip-path="url(#pc8bb6915dc)" style="fill: none; stroke: #0072b2; stroke-width: 1.8; stroke-linecap: square"/>
    <defs>
     <path id="m492ae6e5af" d="M 0 2.75
C 0.729309 2.75 1.428845 2.460243 1.944544 1.944544
C 2.460243 1.428845 2.75 0.729309 2.75 0
C 2.75 -0.729309 2.460243 -1.428845 1.944544 -1.944544
C 1.428845 -2.460243 0.729309 -2.75 0 -2.75
C -0.729309 -2.75 -1.428845 -2.460243 -1.944544 -1.944544
C -2.460243 -1.428845 -2.75 -0.729309 -2.75 0
C -2.75 0.729309 -2.460243 1.428845 -1.944544 1.944544
C -1.428845 2.460243 -0.729309 2.75 0 2.75
z
" style="stroke: #0072b2"/>
    </defs>
    <g clip-path="url(#pc8bb6915dc)">
     <use xlink:href="#m492ae6e5af" x="59.775294" y="61.771466" style="fill: #0072b2; stroke: #0072b2"/>
     <use xlink:href="#m492ae6e5af" x="181.520481" y="57.216639" style="fill: #0072b2; stroke: #0072b2"/>
     <use xlink:href="#m492ae6e5af" x="303.265669" y="115.489939" style="fill: #0072b2; stroke: #0072b2"/>
     <use xlink:href="#m492ae6e5af" x="425.010857" y="118.79897" style="fill: #0072b2; stroke: #0072b2"/>
    </g>
   </g>
   <g id="line2d_16">
    <path d="M 59.775294 143.974854
L 181.520481 140.549395
L 303.265669 167.009141
L 425.010857 157.554987
" clip-path="url(#pc8bb6915dc)" style="fill: none; stroke-dasharray: 6.66,2.88; stroke-dashoffset: 0; stroke: #e69f00; stroke-width: 1.8"/>
    <defs>
     <path id="m7fa80f7f08" d="M -2.75 2.75
L 2.75 2.75
L 2.75 -2.75
L -2.75 -2.75
z
" style="stroke: #e69f00; stroke-linejoin: miter"/>
    </defs>
    <g clip-path="url(#pc8bb6915dc)">
     <use xlink:href="#m7fa80f7f08" x="59.775294" y="143.974854" style="fill: #ffffff; stroke: #e69f00; stroke-linejoin: miter"/>
     <use xlink:href="#m7fa80f7f08" x="181.520481" y="140.549395" style="fill: #ffffff; stroke: #e69f00; stroke-linejoin: miter"/>
     <use xlink:href="#m7fa80f7f08" x="303.265669" y="167.009141" style="fill: #ffffff; stroke: #e69f00; stroke-linejoin: miter"/>
     <use xlink:href="#m7fa80f7f08" x="425.010857" y="157.554987" style="fill: #ffffff; stroke: #e69f00; stroke-linejoin: miter"/>
    </g>
   </g>
   <g id="line2d_17">
    <path d="M 59.775294 352.432451
L 181.520481 353.276774
L 303.265669 353.390142
L 425.010857 352.949571
" clip-path="url(#pc8bb6915dc)" style="fill: none; stroke-dasharray: 1.8,2.97; stroke-dashoffset: 0; stroke: #68737d; stroke-width: 1.8"/>
    <defs>
     <path id="m629a874d28" d="M 0 -2.75
L -2.75 2.75
L 2.75 2.75
z
" style="stroke: #68737d; stroke-linejoin: miter"/>
    </defs>
    <g clip-path="url(#pc8bb6915dc)">
     <use xlink:href="#m629a874d28" x="59.775294" y="352.432451" style="fill: #ffffff; stroke: #68737d; stroke-linejoin: miter"/>
     <use xlink:href="#m629a874d28" x="181.520481" y="353.276774" style="fill: #ffffff; stroke: #68737d; stroke-linejoin: miter"/>
     <use xlink:href="#m629a874d28" x="303.265669" y="353.390142" style="fill: #ffffff; stroke: #68737d; stroke-linejoin: miter"/>
     <use xlink:href="#m629a874d28" x="425.010857" y="352.949571" style="fill: #ffffff; stroke: #68737d; stroke-linejoin: miter"/>
    </g>
   </g>
   <g id="patch_3">
    <path d="M 41.513516 368.198817
L 41.513516 42.407964
" style="fill: none; stroke: #000000; stroke-width: 0.8; stroke-linejoin: miter; stroke-linecap: square"/>
   </g>
   <g id="patch_4">
    <path d="M 41.513516 368.198817
L 443.272635 368.198817
" style="fill: none; stroke: #000000; stroke-width: 0.8; stroke-linejoin: miter; stroke-linecap: square"/>
   </g>
   <g id="text_12">
    <!-- Q01b cost regression -->
    <g style="fill: #17202a" transform="translate(41.513516 36.407964) scale(0.108 -0.108)">
     <defs>
      <path id="DejaVuSans-Bold-34" d="M 2847 -84
L 2753 -84
Q 1600 -84 959 553
Q 319 1191 319 2328
Q 319 3463 958 4106
Q 1597 4750 2719 4750
Q 3853 4750 4486 4112
Q 5119 3475 5119 2328
Q 5119 1541 4783 972
Q 4447 403 3816 116
L 4756 -934
L 3609 -934
L 2847 -84
z
M 2719 3878
Q 2169 3878 1866 3472
Q 1563 3066 1563 2328
Q 1563 1578 1859 1179
Q 2156 781 2719 781
Q 3272 781 3575 1187
Q 3878 1594 3878 2328
Q 3878 3066 3575 3472
Q 3272 3878 2719 3878
z
" transform="scale(0.015625)"/>
      <path id="DejaVuSans-Bold-13" d="M 2944 2338
Q 2944 3213 2780 3570
Q 2616 3928 2228 3928
Q 1841 3928 1675 3570
Q 1509 3213 1509 2338
Q 1509 1453 1675 1090
Q 1841 728 2228 728
Q 2613 728 2778 1090
Q 2944 1453 2944 2338
z
M 4147 2328
Q 4147 1169 3647 539
Q 3147 -91 2228 -91
Q 1306 -91 806 539
Q 306 1169 306 2328
Q 306 3491 806 4120
Q 1306 4750 2228 4750
Q 3147 4750 3647 4120
Q 4147 3491 4147 2328
z
" transform="scale(0.015625)"/>
      <path id="DejaVuSans-Bold-14" d="M 750 831
L 1813 831
L 1813 3847
L 722 3622
L 722 4441
L 1806 4666
L 2950 4666
L 2950 831
L 4013 831
L 4013 0
L 750 0
L 750 831
z
" transform="scale(0.015625)"/>
      <path id="DejaVuSans-Bold-45" d="M 2400 722
Q 2759 722 2948 984
Q 3138 1247 3138 1747
Q 3138 2247 2948 2509
Q 2759 2772 2400 2772
Q 2041 2772 1848 2508
Q 1656 2244 1656 1747
Q 1656 1250 1848 986
Q 2041 722 2400 722
z
M 1656 2988
Q 1888 3294 2169 3439
Q 2450 3584 2816 3584
Q 3463 3584 3878 3070
Q 4294 2556 4294 1747
Q 4294 938 3878 423
Q 3463 -91 2816 -91
Q 2450 -91 2169 54
Q 1888 200 1656 506
L 1656 0
L 538 0
L 538 4863
L 1656 4863
L 1656 2988
z
" transform="scale(0.015625)"/>
      <path id="DejaVuSans-Bold-3" transform="scale(0.015625)"/>
      <path id="DejaVuSans-Bold-46" d="M 3366 3391
L 3366 2478
Q 3138 2634 2908 2709
Q 2678 2784 2431 2784
Q 1963 2784 1702 2511
Q 1441 2238 1441 1747
Q 1441 1256 1702 982
Q 1963 709 2431 709
Q 2694 709 2930 787
Q 3166 866 3366 1019
L 3366 103
Q 3103 6 2833 -42
Q 2563 -91 2291 -91
Q 1344 -91 809 395
Q 275 881 275 1747
Q 275 2613 809 3098
Q 1344 3584 2291 3584
Q 2566 3584 2833 3536
Q 3100 3488 3366 3391
z
" transform="scale(0.015625)"/>
      <path id="DejaVuSans-Bold-52" d="M 2203 2784
Q 1831 2784 1636 2517
Q 1441 2250 1441 1747
Q 1441 1244 1636 976
Q 1831 709 2203 709
Q 2569 709 2762 976
Q 2956 1244 2956 1747
Q 2956 2250 2762 2517
Q 2569 2784 2203 2784
z
M 2203 3584
Q 3106 3584 3614 3096
Q 4122 2609 4122 1747
Q 4122 884 3614 396
Q 3106 -91 2203 -91
Q 1297 -91 786 396
Q 275 884 275 1747
Q 275 2609 786 3096
Q 1297 3584 2203 3584
z
" transform="scale(0.015625)"/>
      <path id="DejaVuSans-Bold-56" d="M 3272 3391
L 3272 2541
Q 2913 2691 2578 2766
Q 2244 2841 1947 2841
Q 1628 2841 1473 2761
Q 1319 2681 1319 2516
Q 1319 2381 1436 2309
Q 1553 2238 1856 2203
L 2053 2175
Q 2913 2066 3209 1816
Q 3506 1566 3506 1031
Q 3506 472 3093 190
Q 2681 -91 1863 -91
Q 1516 -91 1145 -36
Q 775 19 384 128
L 384 978
Q 719 816 1070 734
Q 1422 653 1784 653
Q 2113 653 2278 743
Q 2444 834 2444 1013
Q 2444 1163 2330 1236
Q 2216 1309 1875 1350
L 1678 1375
Q 931 1469 631 1722
Q 331 1975 331 2491
Q 331 3047 712 3315
Q 1094 3584 1881 3584
Q 2191 3584 2531 3537
Q 2872 3491 3272 3391
z
" transform="scale(0.015625)"/>
      <path id="DejaVuSans-Bold-57" d="M 1759 4494
L 1759 3500
L 2913 3500
L 2913 2700
L 1759 2700
L 1759 1216
Q 1759 972 1856 886
Q 1953 800 2241 800
L 2816 800
L 2816 0
L 1856 0
Q 1194 0 917 276
Q 641 553 641 1216
L 641 2700
L 84 2700
L 84 3500
L 641 3500
L 641 4494
L 1759 4494
z
" transform="scale(0.015625)"/>
      <path id="DejaVuSans-Bold-55" d="M 3138 2547
Q 2991 2616 2845 2648
Q 2700 2681 2553 2681
Q 2122 2681 1889 2404
Q 1656 2128 1656 1613
L 1656 0
L 538 0
L 538 3500
L 1656 3500
L 1656 2925
Q 1872 3269 2151 3426
Q 2431 3584 2822 3584
Q 2878 3584 2943 3579
Q 3009 3575 3134 3559
L 3138 2547
z
" transform="scale(0.015625)"/>
      <path id="DejaVuSans-Bold-48" d="M 4031 1759
L 4031 1441
L 1416 1441
Q 1456 1047 1700 850
Q 1944 653 2381 653
Q 2734 653 3104 758
Q 3475 863 3866 1075
L 3866 213
Q 3469 63 3072 -14
Q 2675 -91 2278 -91
Q 1328 -91 801 392
Q 275 875 275 1747
Q 275 2603 792 3093
Q 1309 3584 2216 3584
Q 3041 3584 3536 3087
Q 4031 2591 4031 1759
z
M 2881 2131
Q 2881 2450 2695 2645
Q 2509 2841 2209 2841
Q 1884 2841 1681 2658
Q 1478 2475 1428 2131
L 2881 2131
z
" transform="scale(0.015625)"/>
      <path id="DejaVuSans-Bold-4a" d="M 2919 594
Q 2688 288 2409 144
Q 2131 0 1766 0
Q 1125 0 706 504
Q 288 1009 288 1791
Q 288 2575 706 3076
Q 1125 3578 1766 3578
Q 2131 3578 2409 3434
Q 2688 3291 2919 2981
L 2919 3500
L 4044 3500
L 4044 353
Q 4044 -491 3511 -936
Q 2978 -1381 1966 -1381
Q 1638 -1381 1331 -1331
Q 1025 -1281 716 -1178
L 716 -306
Q 1009 -475 1290 -558
Q 1572 -641 1856 -641
Q 2406 -641 2662 -400
Q 2919 -159 2919 353
L 2919 594
z
M 2181 2772
Q 1834 2772 1640 2515
Q 1447 2259 1447 1791
Q 1447 1309 1634 1061
Q 1822 813 2181 813
Q 2531 813 2725 1069
Q 2919 1325 2919 1791
Q 2919 2259 2725 2515
Q 2531 2772 2181 2772
z
" transform="scale(0.015625)"/>
      <path id="DejaVuSans-Bold-4c" d="M 538 3500
L 1656 3500
L 1656 0
L 538 0
L 538 3500
z
M 538 4863
L 1656 4863
L 1656 3950
L 538 3950
L 538 4863
z
" transform="scale(0.015625)"/>
      <path id="DejaVuSans-Bold-51" d="M 4056 2131
L 4056 0
L 2931 0
L 2931 347
L 2931 1631
Q 2931 2084 2911 2256
Q 2891 2428 2841 2509
Q 2775 2619 2662 2680
Q 2550 2741 2406 2741
Q 2056 2741 1856 2470
Q 1656 2200 1656 1722
L 1656 0
L 538 0
L 538 3500
L 1656 3500
L 1656 2988
Q 1909 3294 2193 3439
Q 2478 3584 2822 3584
Q 3428 3584 3742 3212
Q 4056 2841 4056 2131
z
" transform="scale(0.015625)"/>
     </defs>
     <use xlink:href="#DejaVuSans-Bold-34"/>
     <use xlink:href="#DejaVuSans-Bold-13" transform="translate(85.015625 0)"/>
     <use xlink:href="#DejaVuSans-Bold-14" transform="translate(154.59375 0)"/>
     <use xlink:href="#DejaVuSans-Bold-45" transform="translate(224.171875 0)"/>
     <use xlink:href="#DejaVuSans-Bold-3" transform="translate(295.75 0)"/>
     <use xlink:href="#DejaVuSans-Bold-46" transform="translate(330.5625 0)"/>
     <use xlink:href="#DejaVuSans-Bold-52" transform="translate(389.84375 0)"/>
     <use xlink:href="#DejaVuSans-Bold-56" transform="translate(458.546875 0)"/>
     <use xlink:href="#DejaVuSans-Bold-57" transform="translate(518.0625 0)"/>
     <use xlink:href="#DejaVuSans-Bold-3" transform="translate(565.859375 0)"/>
     <use xlink:href="#DejaVuSans-Bold-55" transform="translate(600.671875 0)"/>
     <use xlink:href="#DejaVuSans-Bold-48" transform="translate(649.984375 0)"/>
     <use xlink:href="#DejaVuSans-Bold-4a" transform="translate(717.8125 0)"/>
     <use xlink:href="#DejaVuSans-Bold-55" transform="translate(789.390625 0)"/>
     <use xlink:href="#DejaVuSans-Bold-48" transform="translate(838.703125 0)"/>
     <use xlink:href="#DejaVuSans-Bold-56" transform="translate(906.53125 0)"/>
     <use xlink:href="#DejaVuSans-Bold-56" transform="translate(966.046875 0)"/>
     <use xlink:href="#DejaVuSans-Bold-4c" transform="translate(1025.5625 0)"/>
     <use xlink:href="#DejaVuSans-Bold-52" transform="translate(1059.84375 0)"/>
     <use xlink:href="#DejaVuSans-Bold-51" transform="translate(1128.546875 0)"/>
    </g>
   </g>
   <g id="legend_1">
    <g id="line2d_18">
     <path d="M 392.116385 52.886714
L 400.116385 52.886714
L 408.116385 52.886714
" style="fill: none; stroke: #0072b2; stroke-width: 1.8; stroke-linecap: square"/>
     <g>
      <use xlink:href="#m492ae6e5af" x="400.116385" y="52.886714" style="fill: #0072b2; stroke: #0072b2"/>
     </g>
    </g>
    <g id="text_13">
     <!-- Q01b -->
     <g transform="translate(414.516385 55.686714) scale(0.08 -0.08)">
      <defs>
       <path id="DejaVuSans-34" d="M 2522 4238
Q 1834 4238 1429 3725
Q 1025 3213 1025 2328
Q 1025 1447 1429 934
Q 1834 422 2522 422
Q 3209 422 3611 934
Q 4013 1447 4013 2328
Q 4013 3213 3611 3725
Q 3209 4238 2522 4238
z
M 3406 84
L 4238 -825
L 3475 -825
L 2784 -78
Q 2681 -84 2626 -87
Q 2572 -91 2522 -91
Q 1538 -91 948 567
Q 359 1225 359 2328
Q 359 3434 948 4092
Q 1538 4750 2522 4750
Q 3503 4750 4090 4092
Q 4678 3434 4678 2328
Q 4678 1516 4351 937
Q 4025 359 3406 84
z
" transform="scale(0.015625)"/>
      </defs>
      <use xlink:href="#DejaVuSans-34"/>
      <use xlink:href="#DejaVuSans-13" transform="translate(78.71875 0)"/>
      <use xlink:href="#DejaVuSans-14" transform="translate(142.34375 0)"/>
      <use xlink:href="#DejaVuSans-45" transform="translate(205.96875 0)"/>
     </g>
    </g>
    <g id="line2d_19">
     <path d="M 392.116385 64.887339
L 400.116385 64.887339
L 408.116385 64.887339
" style="fill: none; stroke-dasharray: 6.66,2.88; stroke-dashoffset: 0; stroke: #e69f00; stroke-width: 1.8"/>
     <g>
      <use xlink:href="#m7fa80f7f08" x="400.116385" y="64.887339" style="fill: #ffffff; stroke: #e69f00; stroke-linejoin: miter"/>
     </g>
    </g>
    <g id="text_14">
     <!-- A02 -->
     <g transform="translate(414.516385 67.687339) scale(0.08 -0.08)">
      <defs>
       <path id="DejaVuSans-24" d="M 2188 4044
L 1331 1722
L 3047 1722
L 2188 4044
z
M 1831 4666
L 2547 4666
L 4325 0
L 3669 0
L 3244 1197
L 1141 1197
L 716 0
L 50 0
L 1831 4666
z
" transform="scale(0.015625)"/>
      </defs>
      <use xlink:href="#DejaVuSans-24"/>
      <use xlink:href="#DejaVuSans-13" transform="translate(68.40625 0)"/>
      <use xlink:href="#DejaVuSans-15" transform="translate(132.03125 0)"/>
     </g>
    </g>
    <g id="line2d_20">
     <path d="M 392.116385 76.887964
L 400.116385 76.887964
L 408.116385 76.887964
" style="fill: none; stroke-dasharray: 1.8,2.97; stroke-dashoffset: 0; stroke: #68737d; stroke-width: 1.8"/>
     <g>
      <use xlink:href="#m629a874d28" x="400.116385" y="76.887964" style="fill: #ffffff; stroke: #68737d; stroke-linejoin: miter"/>
     </g>
    </g>
    <g id="text_15">
     <!-- C06 -->
     <g transform="translate(414.516385 79.687964) scale(0.08 -0.08)">
      <defs>
       <path id="DejaVuSans-26" d="M 4122 4306
L 4122 3641
Q 3803 3938 3442 4084
Q 3081 4231 2675 4231
Q 1875 4231 1450 3742
Q 1025 3253 1025 2328
Q 1025 1406 1450 917
Q 1875 428 2675 428
Q 3081 428 3442 575
Q 3803 722 4122 1019
L 4122 359
Q 3791 134 3420 21
Q 3050 -91 2638 -91
Q 1578 -91 968 557
Q 359 1206 359 2328
Q 359 3453 968 4101
Q 1578 4750 2638 4750
Q 3056 4750 3426 4639
Q 3797 4528 4122 4306
z
" transform="scale(0.015625)"/>
      </defs>
      <use xlink:href="#DejaVuSans-26"/>
      <use xlink:href="#DejaVuSans-13" transform="translate(69.828125 0)"/>
      <use xlink:href="#DejaVuSans-19" transform="translate(133.453125 0)"/>
     </g>
    </g>
   </g>
  </g>
  <g id="axes_2">
   <g id="patch_5">
    <path d="M 492.240401 368.198817
L 893.99952 368.198817
L 893.99952 42.407964
L 492.240401 42.407964
z
" style="fill: #ffffff"/>
   </g>
   <g id="matplotlib.axis_3">
    <g id="xtick_5">
     <g id="line2d_21">
      <g>
       <use xlink:href="#ma726762a11" x="510.502179" y="368.198817" style="fill: #17202a; stroke: #17202a; stroke-width: 0.8"/>
      </g>
     </g>
     <g id="text_16">
      <!-- 128 -->
      <g style="fill: #17202a" transform="translate(501.912804 382.036707) scale(0.09 -0.09)">
       <use xlink:href="#DejaVuSans-14"/>
       <use xlink:href="#DejaVuSans-15" transform="translate(63.625 0)"/>
       <use xlink:href="#DejaVuSans-1b" transform="translate(127.25 0)"/>
      </g>
     </g>
    </g>
    <g id="xtick_6">
     <g id="line2d_22">
      <g>
       <use xlink:href="#ma726762a11" x="632.247366" y="368.198817" style="fill: #17202a; stroke: #17202a; stroke-width: 0.8"/>
      </g>
     </g>
     <g id="text_17">
      <!-- 256 -->
      <g style="fill: #17202a" transform="translate(623.657991 382.036707) scale(0.09 -0.09)">
       <use xlink:href="#DejaVuSans-15"/>
       <use xlink:href="#DejaVuSans-18" transform="translate(63.625 0)"/>
       <use xlink:href="#DejaVuSans-19" transform="translate(127.25 0)"/>
      </g>
     </g>
    </g>
    <g id="xtick_7">
     <g id="line2d_23">
      <g>
       <use xlink:href="#ma726762a11" x="753.992554" y="368.198817" style="fill: #17202a; stroke: #17202a; stroke-width: 0.8"/>
      </g>
     </g>
     <g id="text_18">
      <!-- 512 -->
      <g style="fill: #17202a" transform="translate(745.403179 382.036707) scale(0.09 -0.09)">
       <use xlink:href="#DejaVuSans-18"/>
       <use xlink:href="#DejaVuSans-14" transform="translate(63.625 0)"/>
       <use xlink:href="#DejaVuSans-15" transform="translate(127.25 0)"/>
      </g>
     </g>
    </g>
    <g id="xtick_8">
     <g id="line2d_24">
      <g>
       <use xlink:href="#ma726762a11" x="875.737742" y="368.198817" style="fill: #17202a; stroke: #17202a; stroke-width: 0.8"/>
      </g>
     </g>
     <g id="text_19">
      <!-- 1,024 -->
      <g style="fill: #17202a" transform="translate(862.855086 382.036707) scale(0.09 -0.09)">
       <use xlink:href="#DejaVuSans-14"/>
       <use xlink:href="#DejaVuSans-f" transform="translate(63.625 0)"/>
       <use xlink:href="#DejaVuSans-13" transform="translate(95.40625 0)"/>
       <use xlink:href="#DejaVuSans-15" transform="translate(159.03125 0)"/>
       <use xlink:href="#DejaVuSans-17" transform="translate(222.65625 0)"/>
      </g>
     </g>
    </g>
    <g id="text_20">
     <!-- Training rows per grouped fold -->
     <g transform="translate(624.499882 395.037411) scale(0.09 -0.09)">
      <use xlink:href="#DejaVuSans-37"/>
      <use xlink:href="#DejaVuSans-55" transform="translate(46.375 0)"/>
      <use xlink:href="#DejaVuSans-44" transform="translate(87.484375 0)"/>
      <use xlink:href="#DejaVuSans-4c" transform="translate(148.765625 0)"/>
      <use xlink:href="#DejaVuSans-51" transform="translate(176.546875 0)"/>
      <use xlink:href="#DejaVuSans-4c" transform="translate(239.921875 0)"/>
      <use xlink:href="#DejaVuSans-51" transform="translate(267.703125 0)"/>
      <use xlink:href="#DejaVuSans-4a" transform="translate(331.078125 0)"/>
      <use xlink:href="#DejaVuSans-3" transform="translate(394.5625 0)"/>
      <use xlink:href="#DejaVuSans-55" transform="translate(426.34375 0)"/>
      <use xlink:href="#DejaVuSans-52" transform="translate(465.25 0)"/>
      <use xlink:href="#DejaVuSans-5a" transform="translate(526.4375 0)"/>
      <use xlink:href="#DejaVuSans-56" transform="translate(608.21875 0)"/>
      <use xlink:href="#DejaVuSans-3" transform="translate(660.3125 0)"/>
      <use xlink:href="#DejaVuSans-53" transform="translate(692.09375 0)"/>
      <use xlink:href="#DejaVuSans-48" transform="translate(755.578125 0)"/>
      <use xlink:href="#DejaVuSans-55" transform="translate(817.109375 0)"/>
      <use xlink:href="#DejaVuSans-3" transform="translate(858.21875 0)"/>
      <use xlink:href="#DejaVuSans-4a" transform="translate(890 0)"/>
      <use xlink:href="#DejaVuSans-55" transform="translate(953.484375 0)"/>
      <use xlink:href="#DejaVuSans-52" transform="translate(992.390625 0)"/>
      <use xlink:href="#DejaVuSans-58" transform="translate(1053.578125 0)"/>
      <use xlink:href="#DejaVuSans-53" transform="translate(1116.953125 0)"/>
      <use xlink:href="#DejaVuSans-48" transform="translate(1180.4375 0)"/>
      <use xlink:href="#DejaVuSans-47" transform="translate(1241.96875 0)"/>
      <use xlink:href="#DejaVuSans-3" transform="translate(1305.453125 0)"/>
      <use xlink:href="#DejaVuSans-49" transform="translate(1337.234375 0)"/>
      <use xlink:href="#DejaVuSans-52" transform="translate(1372.4375 0)"/>
      <use xlink:href="#DejaVuSans-4f" transform="translate(1433.625 0)"/>
      <use xlink:href="#DejaVuSans-47" transform="translate(1461.40625 0)"/>
     </g>
    </g>
   </g>
   <g id="matplotlib.axis_4">
    <g id="ytick_6">
     <g id="line2d_25">
      <path d="M 492.240401 326.936405
L 893.99952 326.936405
" clip-path="url(#p9f26944bd5)" style="fill: none; stroke: #d9e1e8; stroke-width: 0.7; stroke-linecap: square"/>
     </g>
     <g id="line2d_26">
      <g>
       <use xlink:href="#mf4507a83ab" x="492.240401" y="326.936405" style="fill: #17202a; stroke: #17202a; stroke-width: 0.8"/>
      </g>
     </g>
     <g id="text_21">
      <!-- 0.10 -->
      <g style="fill: #17202a" transform="translate(465.201338 330.355351) scale(0.09 -0.09)">
       <use xlink:href="#DejaVuSans-13"/>
       <use xlink:href="#DejaVuSans-11" transform="translate(63.625 0)"/>
       <use xlink:href="#DejaVuSans-14" transform="translate(95.40625 0)"/>
       <use xlink:href="#DejaVuSans-13" transform="translate(159.03125 0)"/>
      </g>
     </g>
    </g>
    <g id="ytick_7">
     <g id="line2d_27">
      <path d="M 492.240401 271.704368
L 893.99952 271.704368
" clip-path="url(#p9f26944bd5)" style="fill: none; stroke: #d9e1e8; stroke-width: 0.7; stroke-linecap: square"/>
     </g>
     <g id="line2d_28">
      <g>
       <use xlink:href="#mf4507a83ab" x="492.240401" y="271.704368" style="fill: #17202a; stroke: #17202a; stroke-width: 0.8"/>
      </g>
     </g>
     <g id="text_22">
      <!-- 0.12 -->
      <g style="fill: #17202a" transform="translate(465.201338 275.123313) scale(0.09 -0.09)">
       <use xlink:href="#DejaVuSans-13"/>
       <use xlink:href="#DejaVuSans-11" transform="translate(63.625 0)"/>
       <use xlink:href="#DejaVuSans-14" transform="translate(95.40625 0)"/>
       <use xlink:href="#DejaVuSans-15" transform="translate(159.03125 0)"/>
      </g>
     </g>
    </g>
    <g id="ytick_8">
     <g id="line2d_29">
      <path d="M 492.240401 216.47233
L 893.99952 216.47233
" clip-path="url(#p9f26944bd5)" style="fill: none; stroke: #d9e1e8; stroke-width: 0.7; stroke-linecap: square"/>
     </g>
     <g id="line2d_30">
      <g>
       <use xlink:href="#mf4507a83ab" x="492.240401" y="216.47233" style="fill: #17202a; stroke: #17202a; stroke-width: 0.8"/>
      </g>
     </g>
     <g id="text_23">
      <!-- 0.14 -->
      <g style="fill: #17202a" transform="translate(465.201338 219.891276) scale(0.09 -0.09)">
       <use xlink:href="#DejaVuSans-13"/>
       <use xlink:href="#DejaVuSans-11" transform="translate(63.625 0)"/>
       <use xlink:href="#DejaVuSans-14" transform="translate(95.40625 0)"/>
       <use xlink:href="#DejaVuSans-17" transform="translate(159.03125 0)"/>
      </g>
     </g>
    </g>
    <g id="ytick_9">
     <g id="line2d_31">
      <path d="M 492.240401 161.240293
L 893.99952 161.240293
" clip-path="url(#p9f26944bd5)" style="fill: none; stroke: #d9e1e8; stroke-width: 0.7; stroke-linecap: square"/>
     </g>
     <g id="line2d_32">
      <g>
       <use xlink:href="#mf4507a83ab" x="492.240401" y="161.240293" style="fill: #17202a; stroke: #17202a; stroke-width: 0.8"/>
      </g>
     </g>
     <g id="text_24">
      <!-- 0.16 -->
      <g style="fill: #17202a" transform="translate(465.201338 164.659238) scale(0.09 -0.09)">
       <use xlink:href="#DejaVuSans-13"/>
       <use xlink:href="#DejaVuSans-11" transform="translate(63.625 0)"/>
       <use xlink:href="#DejaVuSans-14" transform="translate(95.40625 0)"/>
       <use xlink:href="#DejaVuSans-19" transform="translate(159.03125 0)"/>
      </g>
     </g>
    </g>
    <g id="ytick_10">
     <g id="line2d_33">
      <path d="M 492.240401 106.008255
L 893.99952 106.008255
" clip-path="url(#p9f26944bd5)" style="fill: none; stroke: #d9e1e8; stroke-width: 0.7; stroke-linecap: square"/>
     </g>
     <g id="line2d_34">
      <g>
       <use xlink:href="#mf4507a83ab" x="492.240401" y="106.008255" style="fill: #17202a; stroke: #17202a; stroke-width: 0.8"/>
      </g>
     </g>
     <g id="text_25">
      <!-- 0.18 -->
      <g style="fill: #17202a" transform="translate(465.201338 109.4272) scale(0.09 -0.09)">
       <use xlink:href="#DejaVuSans-13"/>
       <use xlink:href="#DejaVuSans-11" transform="translate(63.625 0)"/>
       <use xlink:href="#DejaVuSans-14" transform="translate(95.40625 0)"/>
       <use xlink:href="#DejaVuSans-1b" transform="translate(159.03125 0)"/>
      </g>
     </g>
    </g>
    <g id="ytick_11">
     <g id="line2d_35">
      <path d="M 492.240401 50.776218
L 893.99952 50.776218
" clip-path="url(#p9f26944bd5)" style="fill: none; stroke: #d9e1e8; stroke-width: 0.7; stroke-linecap: square"/>
     </g>
     <g id="line2d_36">
      <g>
       <use xlink:href="#mf4507a83ab" x="492.240401" y="50.776218" style="fill: #17202a; stroke: #17202a; stroke-width: 0.8"/>
      </g>
     </g>
     <g id="text_26">
      <!-- 0.20 -->
      <g style="fill: #17202a" transform="translate(465.201338 54.195163) scale(0.09 -0.09)">
       <use xlink:href="#DejaVuSans-13"/>
       <use xlink:href="#DejaVuSans-11" transform="translate(63.625 0)"/>
       <use xlink:href="#DejaVuSans-15" transform="translate(95.40625 0)"/>
       <use xlink:href="#DejaVuSans-13" transform="translate(159.03125 0)"/>
      </g>
     </g>
    </g>
    <g id="text_27">
     <!-- Best eligible pooled OOF Brier score -->
     <g transform="translate(459.039229 286.481281) rotate(-90) scale(0.09 -0.09)">
      <defs>
       <path id="DejaVuSans-46" d="M 3122 3366
L 3122 2828
Q 2878 2963 2633 3030
Q 2388 3097 2138 3097
Q 1578 3097 1268 2742
Q 959 2388 959 1747
Q 959 1106 1268 751
Q 1578 397 2138 397
Q 2388 397 2633 464
Q 2878 531 3122 666
L 3122 134
Q 2881 22 2623 -34
Q 2366 -91 2075 -91
Q 1284 -91 818 406
Q 353 903 353 1747
Q 353 2603 823 3093
Q 1294 3584 2113 3584
Q 2378 3584 2631 3529
Q 2884 3475 3122 3366
z
" transform="scale(0.015625)"/>
      </defs>
      <use xlink:href="#DejaVuSans-25"/>
      <use xlink:href="#DejaVuSans-48" transform="translate(68.609375 0)"/>
      <use xlink:href="#DejaVuSans-56" transform="translate(130.140625 0)"/>
      <use xlink:href="#DejaVuSans-57" transform="translate(182.234375 0)"/>
      <use xlink:href="#DejaVuSans-3" transform="translate(221.4375 0)"/>
      <use xlink:href="#DejaVuSans-48" transform="translate(253.21875 0)"/>
      <use xlink:href="#DejaVuSans-4f" transform="translate(314.75 0)"/>
      <use xlink:href="#DejaVuSans-4c" transform="translate(342.53125 0)"/>
      <use xlink:href="#DejaVuSans-4a" transform="translate(370.3125 0)"/>
      <use xlink:href="#DejaVuSans-4c" transform="translate(433.796875 0)"/>
      <use xlink:href="#DejaVuSans-45" transform="translate(461.578125 0)"/>
      <use xlink:href="#DejaVuSans-4f" transform="translate(525.0625 0)"/>
      <use xlink:href="#DejaVuSans-48" transform="translate(552.84375 0)"/>
      <use xlink:href="#DejaVuSans-3" transform="translate(614.375 0)"/>
      <use xlink:href="#DejaVuSans-53" transform="translate(646.15625 0)"/>
      <use xlink:href="#DejaVuSans-52" transform="translate(709.640625 0)"/>
      <use xlink:href="#DejaVuSans-52" transform="translate(770.828125 0)"/>
      <use xlink:href="#DejaVuSans-4f" transform="translate(832.015625 0)"/>
      <use xlink:href="#DejaVuSans-48" transform="translate(859.796875 0)"/>
      <use xlink:href="#DejaVuSans-47" transform="translate(921.328125 0)"/>
      <use xlink:href="#DejaVuSans-3" transform="translate(984.8125 0)"/>
      <use xlink:href="#DejaVuSans-32" transform="translate(1016.59375 0)"/>
      <use xlink:href="#DejaVuSans-32" transform="translate(1095.3125 0)"/>
      <use xlink:href="#DejaVuSans-29" transform="translate(1174.03125 0)"/>
      <use xlink:href="#DejaVuSans-3" transform="translate(1231.546875 0)"/>
      <use xlink:href="#DejaVuSans-25" transform="translate(1263.328125 0)"/>
      <use xlink:href="#DejaVuSans-55" transform="translate(1331.9375 0)"/>
      <use xlink:href="#DejaVuSans-4c" transform="translate(1373.046875 0)"/>
      <use xlink:href="#DejaVuSans-48" transform="translate(1400.828125 0)"/>
      <use xlink:href="#DejaVuSans-55" transform="translate(1462.359375 0)"/>
      <use xlink:href="#DejaVuSans-3" transform="translate(1503.46875 0)"/>
      <use xlink:href="#DejaVuSans-56" transform="translate(1535.25 0)"/>
      <use xlink:href="#DejaVuSans-46" transform="translate(1587.34375 0)"/>
      <use xlink:href="#DejaVuSans-52" transform="translate(1642.328125 0)"/>
      <use xlink:href="#DejaVuSans-55" transform="translate(1703.515625 0)"/>
      <use xlink:href="#DejaVuSans-48" transform="translate(1742.421875 0)"/>
     </g>
    </g>
   </g>
   <g id="line2d_37">
    <path d="M 510.502179 162.349834
L 632.247366 185.472038
L 753.992554 173.598889
L 875.737742 171.733605
" clip-path="url(#p9f26944bd5)" style="fill: none; stroke: #0072b2; stroke-width: 1.8; stroke-linecap: square"/>
    <g clip-path="url(#p9f26944bd5)">
     <use xlink:href="#m492ae6e5af" x="510.502179" y="162.349834" style="fill: #0072b2; stroke: #0072b2"/>
     <use xlink:href="#m492ae6e5af" x="632.247366" y="185.472038" style="fill: #0072b2; stroke: #0072b2"/>
     <use xlink:href="#m492ae6e5af" x="753.992554" y="173.598889" style="fill: #0072b2; stroke: #0072b2"/>
     <use xlink:href="#m492ae6e5af" x="875.737742" y="171.733605" style="fill: #0072b2; stroke: #0072b2"/>
    </g>
   </g>
   <g id="line2d_38">
    <path d="M 510.502179 57.216639
L 632.247366 125.887947
L 753.992554 75.933683
L 875.737742 75.910034
" clip-path="url(#p9f26944bd5)" style="fill: none; stroke-dasharray: 6.66,2.88; stroke-dashoffset: 0; stroke: #e69f00; stroke-width: 1.8"/>
    <g clip-path="url(#p9f26944bd5)">
     <use xlink:href="#m7fa80f7f08" x="510.502179" y="57.216639" style="fill: #ffffff; stroke: #e69f00; stroke-linejoin: miter"/>
     <use xlink:href="#m7fa80f7f08" x="632.247366" y="125.887947" style="fill: #ffffff; stroke: #e69f00; stroke-linejoin: miter"/>
     <use xlink:href="#m7fa80f7f08" x="753.992554" y="75.933683" style="fill: #ffffff; stroke: #e69f00; stroke-linejoin: miter"/>
     <use xlink:href="#m7fa80f7f08" x="875.737742" y="75.910034" style="fill: #ffffff; stroke: #e69f00; stroke-linejoin: miter"/>
    </g>
   </g>
   <g id="line2d_39">
    <path d="M 510.502179 284.921107
L 632.247366 353.390142
L 753.992554 353.261284
L 875.737742 315.045569
" clip-path="url(#p9f26944bd5)" style="fill: none; stroke-dasharray: 1.8,2.97; stroke-dashoffset: 0; stroke: #68737d; stroke-width: 1.8"/>
    <g clip-path="url(#p9f26944bd5)">
     <use xlink:href="#m629a874d28" x="510.502179" y="284.921107" style="fill: #ffffff; stroke: #68737d; stroke-linejoin: miter"/>
     <use xlink:href="#m629a874d28" x="632.247366" y="353.390142" style="fill: #ffffff; stroke: #68737d; stroke-linejoin: miter"/>
     <use xlink:href="#m629a874d28" x="753.992554" y="353.261284" style="fill: #ffffff; stroke: #68737d; stroke-linejoin: miter"/>
     <use xlink:href="#m629a874d28" x="875.737742" y="315.045569" style="fill: #ffffff; stroke: #68737d; stroke-linejoin: miter"/>
    </g>
   </g>
   <g id="patch_6">
    <path d="M 492.240401 368.198817
L 492.240401 42.407964
" style="fill: none; stroke: #000000; stroke-width: 0.8; stroke-linejoin: miter; stroke-linecap: square"/>
   </g>
   <g id="patch_7">
    <path d="M 492.240401 368.198817
L 893.99952 368.198817
" style="fill: none; stroke: #000000; stroke-width: 0.8; stroke-linejoin: miter; stroke-linecap: square"/>
   </g>
   <g id="text_28">
    <!-- FQK feasibility classification -->
    <g style="fill: #17202a" transform="translate(492.240401 36.407964) scale(0.108 -0.108)">
     <defs>
      <path id="DejaVuSans-Bold-29" d="M 588 4666
L 3834 4666
L 3834 3756
L 1791 3756
L 1791 2888
L 3713 2888
L 3713 1978
L 1791 1978
L 1791 0
L 588 0
L 588 4666
z
" transform="scale(0.015625)"/>
      <path id="DejaVuSans-Bold-2e" d="M 588 4666
L 1791 4666
L 1791 2963
L 3525 4666
L 4922 4666
L 2675 2456
L 5153 0
L 3647 0
L 1791 1838
L 1791 0
L 588 0
L 588 4666
z
" transform="scale(0.015625)"/>
      <path id="DejaVuSans-Bold-49" d="M 2841 4863
L 2841 4128
L 2222 4128
Q 1984 4128 1890 4042
Q 1797 3956 1797 3744
L 1797 3500
L 2753 3500
L 2753 2700
L 1797 2700
L 1797 0
L 678 0
L 678 2700
L 122 2700
L 122 3500
L 678 3500
L 678 3744
Q 678 4316 997 4589
Q 1316 4863 1984 4863
L 2841 4863
z
" transform="scale(0.015625)"/>
      <path id="DejaVuSans-Bold-44" d="M 2106 1575
Q 1756 1575 1579 1456
Q 1403 1338 1403 1106
Q 1403 894 1545 773
Q 1688 653 1941 653
Q 2256 653 2472 879
Q 2688 1106 2688 1447
L 2688 1575
L 2106 1575
z
M 3816 1997
L 3816 0
L 2688 0
L 2688 519
Q 2463 200 2181 54
Q 1900 -91 1497 -91
Q 953 -91 614 226
Q 275 544 275 1050
Q 275 1666 698 1953
Q 1122 2241 2028 2241
L 2688 2241
L 2688 2328
Q 2688 2594 2478 2717
Q 2269 2841 1825 2841
Q 1466 2841 1156 2769
Q 847 2697 581 2553
L 581 3406
Q 941 3494 1303 3539
Q 1666 3584 2028 3584
Q 2975 3584 3395 3211
Q 3816 2838 3816 1997
z
" transform="scale(0.015625)"/>
      <path id="DejaVuSans-Bold-4f" d="M 538 4863
L 1656 4863
L 1656 0
L 538 0
L 538 4863
z
" transform="scale(0.015625)"/>
      <path id="DejaVuSans-Bold-5c" d="M 78 3500
L 1197 3500
L 2138 1125
L 2938 3500
L 4056 3500
L 2584 -331
Q 2363 -916 2067 -1148
Q 1772 -1381 1288 -1381
L 641 -1381
L 641 -647
L 991 -647
Q 1275 -647 1404 -556
Q 1534 -466 1606 -231
L 1638 -134
L 78 3500
z
" transform="scale(0.015625)"/>
      <path id="DejaVuSans-Bold-13ab" d="M 3078 4863
L 4206 4863
L 4206 3950
L 3078 3950
L 3078 4863
z
M 2847 4863
L 2847 4128
L 2228 4128
Q 1994 4128 1903 4042
Q 1813 3956 1813 3744
L 1813 3500
L 4206 3500
L 4206 0
L 3078 0
L 3078 2700
L 1813 2700
L 1813 0
L 684 0
L 684 2700
L 134 2700
L 134 3500
L 684 3500
L 684 3744
Q 684 4316 1003 4589
Q 1322 4863 1991 4863
L 2847 4863
z
" transform="scale(0.015625)"/>
     </defs>
     <use xlink:href="#DejaVuSans-Bold-29"/>
     <use xlink:href="#DejaVuSans-Bold-34" transform="translate(68.3125 0)"/>
     <use xlink:href="#DejaVuSans-Bold-2e" transform="translate(153.328125 0)"/>
     <use xlink:href="#DejaVuSans-Bold-3" transform="translate(230.8125 0)"/>
     <use xlink:href="#DejaVuSans-Bold-49" transform="translate(265.625 0)"/>
     <use xlink:href="#DejaVuSans-Bold-48" transform="translate(309.125 0)"/>
     <use xlink:href="#DejaVuSans-Bold-44" transform="translate(376.953125 0)"/>
     <use xlink:href="#DejaVuSans-Bold-56" transform="translate(444.4375 0)"/>
     <use xlink:href="#DejaVuSans-Bold-4c" transform="translate(503.953125 0)"/>
     <use xlink:href="#DejaVuSans-Bold-45" transform="translate(538.234375 0)"/>
     <use xlink:href="#DejaVuSans-Bold-4c" transform="translate(609.8125 0)"/>
     <use xlink:href="#DejaVuSans-Bold-4f" transform="translate(644.09375 0)"/>
     <use xlink:href="#DejaVuSans-Bold-4c" transform="translate(678.375 0)"/>
     <use xlink:href="#DejaVuSans-Bold-57" transform="translate(712.65625 0)"/>
     <use xlink:href="#DejaVuSans-Bold-5c" transform="translate(760.453125 0)"/>
     <use xlink:href="#DejaVuSans-Bold-3" transform="translate(825.640625 0)"/>
     <use xlink:href="#DejaVuSans-Bold-46" transform="translate(860.453125 0)"/>
     <use xlink:href="#DejaVuSans-Bold-4f" transform="translate(919.734375 0)"/>
     <use xlink:href="#DejaVuSans-Bold-44" transform="translate(954.015625 0)"/>
     <use xlink:href="#DejaVuSans-Bold-56" transform="translate(1021.5 0)"/>
     <use xlink:href="#DejaVuSans-Bold-56" transform="translate(1081.015625 0)"/>
     <use xlink:href="#DejaVuSans-Bold-4c" transform="translate(1140.53125 0)"/>
     <use xlink:href="#DejaVuSans-Bold-13ab" transform="translate(1174.8125 0)"/>
     <use xlink:href="#DejaVuSans-Bold-46" transform="translate(1248.9375 0)"/>
     <use xlink:href="#DejaVuSans-Bold-44" transform="translate(1308.21875 0)"/>
     <use xlink:href="#DejaVuSans-Bold-57" transform="translate(1375.703125 0)"/>
     <use xlink:href="#DejaVuSans-Bold-4c" transform="translate(1423.5 0)"/>
     <use xlink:href="#DejaVuSans-Bold-52" transform="translate(1457.78125 0)"/>
     <use xlink:href="#DejaVuSans-Bold-51" transform="translate(1526.484375 0)"/>
    </g>
   </g>
   <g id="legend_2">
    <g id="line2d_40">
     <path d="M 795.52952 192.581203
L 803.52952 192.581203
L 811.52952 192.581203
" style="fill: none; stroke: #0072b2; stroke-width: 1.8; stroke-linecap: square"/>
     <g>
      <use xlink:href="#m492ae6e5af" x="803.52952" y="192.581203" style="fill: #0072b2; stroke: #0072b2"/>
     </g>
    </g>
    <g id="text_29">
     <!-- FQK -->
     <g transform="translate(817.92952 195.381203) scale(0.08 -0.08)">
      <defs>
       <path id="DejaVuSans-2e" d="M 628 4666
L 1259 4666
L 1259 2694
L 3353 4666
L 4166 4666
L 1850 2491
L 4331 0
L 3500 0
L 1259 2247
L 1259 0
L 628 0
L 628 4666
z
" transform="scale(0.015625)"/>
      </defs>
      <use xlink:href="#DejaVuSans-29"/>
      <use xlink:href="#DejaVuSans-34" transform="translate(57.515625 0)"/>
      <use xlink:href="#DejaVuSans-2e" transform="translate(136.234375 0)"/>
     </g>
    </g>
    <g id="line2d_41">
     <path d="M 795.52952 204.581828
L 803.52952 204.581828
L 811.52952 204.581828
" style="fill: none; stroke-dasharray: 6.66,2.88; stroke-dashoffset: 0; stroke: #e69f00; stroke-width: 1.8"/>
     <g>
      <use xlink:href="#m7fa80f7f08" x="803.52952" y="204.581828" style="fill: #ffffff; stroke: #e69f00; stroke-linejoin: miter"/>
     </g>
    </g>
    <g id="text_30">
     <!-- A02 -->
     <g transform="translate(817.92952 207.381828) scale(0.08 -0.08)">
      <use xlink:href="#DejaVuSans-24"/>
      <use xlink:href="#DejaVuSans-13" transform="translate(68.40625 0)"/>
      <use xlink:href="#DejaVuSans-15" transform="translate(132.03125 0)"/>
     </g>
    </g>
    <g id="line2d_42">
     <path d="M 795.52952 216.582453
L 803.52952 216.582453
L 811.52952 216.582453
" style="fill: none; stroke-dasharray: 1.8,2.97; stroke-dashoffset: 0; stroke: #68737d; stroke-width: 1.8"/>
     <g>
      <use xlink:href="#m629a874d28" x="803.52952" y="216.582453" style="fill: #ffffff; stroke: #68737d; stroke-linejoin: miter"/>
     </g>
    </g>
    <g id="text_31">
     <!-- Strongest control -->
     <g transform="translate(817.92952 219.382453) scale(0.08 -0.08)">
      <use xlink:href="#DejaVuSans-36"/>
      <use xlink:href="#DejaVuSans-57" transform="translate(63.484375 0)"/>
      <use xlink:href="#DejaVuSans-55" transform="translate(102.6875 0)"/>
      <use xlink:href="#DejaVuSans-52" transform="translate(141.59375 0)"/>
      <use xlink:href="#DejaVuSans-51" transform="translate(202.78125 0)"/>
      <use xlink:href="#DejaVuSans-4a" transform="translate(266.15625 0)"/>
      <use xlink:href="#DejaVuSans-48" transform="translate(329.640625 0)"/>
      <use xlink:href="#DejaVuSans-56" transform="translate(391.171875 0)"/>
      <use xlink:href="#DejaVuSans-57" transform="translate(443.265625 0)"/>
      <use xlink:href="#DejaVuSans-3" transform="translate(482.46875 0)"/>
      <use xlink:href="#DejaVuSans-46" transform="translate(514.25 0)"/>
      <use xlink:href="#DejaVuSans-52" transform="translate(569.234375 0)"/>
      <use xlink:href="#DejaVuSans-51" transform="translate(630.421875 0)"/>
      <use xlink:href="#DejaVuSans-57" transform="translate(693.796875 0)"/>
      <use xlink:href="#DejaVuSans-55" transform="translate(733 0)"/>
      <use xlink:href="#DejaVuSans-52" transform="translate(771.90625 0)"/>
      <use xlink:href="#DejaVuSans-4f" transform="translate(833.09375 0)"/>
     </g>
    </g>
   </g>
  </g>
  <g id="text_32">
   <!-- D011 development learning curves and matched controls -->
   <g style="fill: #17202a" transform="translate(13.12776 18.597656) scale(0.15 -0.15)">
    <defs>
     <path id="DejaVuSans-Bold-27" d="M 1791 3756
L 1791 909
L 2222 909
Q 2959 909 3348 1275
Q 3738 1641 3738 2338
Q 3738 3031 3350 3393
Q 2963 3756 2222 3756
L 1791 3756
z
M 588 4666
L 1856 4666
Q 2919 4666 3439 4514
Q 3959 4363 4331 4000
Q 4659 3684 4818 3271
Q 4978 2859 4978 2338
Q 4978 1809 4818 1395
Q 4659 981 4331 666
Q 3956 303 3431 151
Q 2906 0 1856 0
L 588 0
L 588 4666
z
" transform="scale(0.015625)"/>
     <path id="DejaVuSans-Bold-47" d="M 2919 2988
L 2919 4863
L 4044 4863
L 4044 0
L 2919 0
L 2919 506
Q 2688 197 2409 53
Q 2131 -91 1766 -91
Q 1119 -91 703 423
Q 288 938 288 1747
Q 288 2556 703 3070
Q 1119 3584 1766 3584
Q 2128 3584 2408 3439
Q 2688 3294 2919 2988
z
M 2181 722
Q 2541 722 2730 984
Q 2919 1247 2919 1747
Q 2919 2247 2730 2509
Q 2541 2772 2181 2772
Q 1825 2772 1636 2509
Q 1447 2247 1447 1747
Q 1447 1247 1636 984
Q 1825 722 2181 722
z
" transform="scale(0.015625)"/>
     <path id="DejaVuSans-Bold-59" d="M 97 3500
L 1216 3500
L 2088 1081
L 2956 3500
L 4078 3500
L 2700 0
L 1472 0
L 97 3500
z
" transform="scale(0.015625)"/>
     <path id="DejaVuSans-Bold-53" d="M 1656 506
L 1656 -1331
L 538 -1331
L 538 3500
L 1656 3500
L 1656 2988
Q 1888 3294 2169 3439
Q 2450 3584 2816 3584
Q 3463 3584 3878 3070
Q 4294 2556 4294 1747
Q 4294 938 3878 423
Q 3463 -91 2816 -91
Q 2450 -91 2169 54
Q 1888 200 1656 506
z
M 2400 2772
Q 2041 2772 1848 2508
Q 1656 2244 1656 1747
Q 1656 1250 1848 986
Q 2041 722 2400 722
Q 2759 722 2948 984
Q 3138 1247 3138 1747
Q 3138 2247 2948 2509
Q 2759 2772 2400 2772
z
" transform="scale(0.015625)"/>
     <path id="DejaVuSans-Bold-50" d="M 3781 2919
Q 3994 3244 4286 3414
Q 4578 3584 4928 3584
Q 5531 3584 5847 3212
Q 6163 2841 6163 2131
L 6163 0
L 5038 0
L 5038 1825
Q 5041 1866 5042 1909
Q 5044 1953 5044 2034
Q 5044 2406 4934 2573
Q 4825 2741 4581 2741
Q 4263 2741 4089 2478
Q 3916 2216 3909 1719
L 3909 0
L 2784 0
L 2784 1825
Q 2784 2406 2684 2573
Q 2584 2741 2328 2741
Q 2006 2741 1831 2477
Q 1656 2213 1656 1722
L 1656 0
L 531 0
L 531 3500
L 1656 3500
L 1656 2988
Q 1863 3284 2130 3434
Q 2397 3584 2719 3584
Q 3081 3584 3359 3409
Q 3638 3234 3781 2919
z
" transform="scale(0.015625)"/>
     <path id="DejaVuSans-Bold-58" d="M 500 1363
L 500 3500
L 1625 3500
L 1625 3150
Q 1625 2866 1622 2436
Q 1619 2006 1619 1863
Q 1619 1441 1641 1255
Q 1663 1069 1716 984
Q 1784 875 1895 815
Q 2006 756 2150 756
Q 2500 756 2700 1025
Q 2900 1294 2900 1772
L 2900 3500
L 4019 3500
L 4019 0
L 2900 0
L 2900 506
Q 2647 200 2364 54
Q 2081 -91 1741 -91
Q 1134 -91 817 281
Q 500 653 500 1363
z
" transform="scale(0.015625)"/>
     <path id="DejaVuSans-Bold-4b" d="M 4056 2131
L 4056 0
L 2931 0
L 2931 347
L 2931 1625
Q 2931 2084 2911 2256
Q 2891 2428 2841 2509
Q 2775 2619 2662 2680
Q 2550 2741 2406 2741
Q 2056 2741 1856 2470
Q 1656 2200 1656 1722
L 1656 0
L 538 0
L 538 4863
L 1656 4863
L 1656 2988
Q 1909 3294 2193 3439
Q 2478 3584 2822 3584
Q 3428 3584 3742 3212
Q 4056 2841 4056 2131
z
" transform="scale(0.015625)"/>
    </defs>
    <use xlink:href="#DejaVuSans-Bold-27"/>
    <use xlink:href="#DejaVuSans-Bold-13" transform="translate(83.015625 0)"/>
    <use xlink:href="#DejaVuSans-Bold-14" transform="translate(152.59375 0)"/>
    <use xlink:href="#DejaVuSans-Bold-14" transform="translate(222.171875 0)"/>
    <use xlink:href="#DejaVuSans-Bold-3" transform="translate(291.75 0)"/>
    <use xlink:href="#DejaVuSans-Bold-47" transform="translate(326.5625 0)"/>
    <use xlink:href="#DejaVuSans-Bold-48" transform="translate(398.140625 0)"/>
    <use xlink:href="#DejaVuSans-Bold-59" transform="translate(465.96875 0)"/>
    <use xlink:href="#DejaVuSans-Bold-48" transform="translate(531.15625 0)"/>
    <use xlink:href="#DejaVuSans-Bold-4f" transform="translate(598.984375 0)"/>
    <use xlink:href="#DejaVuSans-Bold-52" transform="translate(633.265625 0)"/>
    <use xlink:href="#DejaVuSans-Bold-53" transform="translate(701.96875 0)"/>
    <use xlink:href="#DejaVuSans-Bold-50" transform="translate(773.546875 0)"/>
    <use xlink:href="#DejaVuSans-Bold-48" transform="translate(877.75 0)"/>
    <use xlink:href="#DejaVuSans-Bold-51" transform="translate(945.578125 0)"/>
    <use xlink:href="#DejaVuSans-Bold-57" transform="translate(1016.765625 0)"/>
    <use xlink:href="#DejaVuSans-Bold-3" transform="translate(1064.5625 0)"/>
    <use xlink:href="#DejaVuSans-Bold-4f" transform="translate(1099.375 0)"/>
    <use xlink:href="#DejaVuSans-Bold-48" transform="translate(1133.65625 0)"/>
    <use xlink:href="#DejaVuSans-Bold-44" transform="translate(1201.484375 0)"/>
    <use xlink:href="#DejaVuSans-Bold-55" transform="translate(1268.96875 0)"/>
    <use xlink:href="#DejaVuSans-Bold-51" transform="translate(1318.28125 0)"/>
    <use xlink:href="#DejaVuSans-Bold-4c" transform="translate(1389.46875 0)"/>
    <use xlink:href="#DejaVuSans-Bold-51" transform="translate(1423.75 0)"/>
    <use xlink:href="#DejaVuSans-Bold-4a" transform="translate(1494.9375 0)"/>
    <use xlink:href="#DejaVuSans-Bold-3" transform="translate(1566.515625 0)"/>
    <use xlink:href="#DejaVuSans-Bold-46" transform="translate(1601.328125 0)"/>
    <use xlink:href="#DejaVuSans-Bold-58" transform="translate(1660.609375 0)"/>
    <use xlink:href="#DejaVuSans-Bold-55" transform="translate(1731.796875 0)"/>
    <use xlink:href="#DejaVuSans-Bold-59" transform="translate(1781.109375 0)"/>
    <use xlink:href="#DejaVuSans-Bold-48" transform="translate(1846.296875 0)"/>
    <use xlink:href="#DejaVuSans-Bold-56" transform="translate(1914.125 0)"/>
    <use xlink:href="#DejaVuSans-Bold-3" transform="translate(1973.640625 0)"/>
    <use xlink:href="#DejaVuSans-Bold-44" transform="translate(2008.453125 0)"/>
    <use xlink:href="#DejaVuSans-Bold-51" transform="translate(2075.9375 0)"/>
    <use xlink:href="#DejaVuSans-Bold-47" transform="translate(2147.125 0)"/>
    <use xlink:href="#DejaVuSans-Bold-3" transform="translate(2218.703125 0)"/>
    <use xlink:href="#DejaVuSans-Bold-50" transform="translate(2253.515625 0)"/>
    <use xlink:href="#DejaVuSans-Bold-44" transform="translate(2357.71875 0)"/>
    <use xlink:href="#DejaVuSans-Bold-57" transform="translate(2425.203125 0)"/>
    <use xlink:href="#DejaVuSans-Bold-46" transform="translate(2473 0)"/>
    <use xlink:href="#DejaVuSans-Bold-4b" transform="translate(2532.28125 0)"/>
    <use xlink:href="#DejaVuSans-Bold-48" transform="translate(2603.46875 0)"/>
    <use xlink:href="#DejaVuSans-Bold-47" transform="translate(2671.296875 0)"/>
    <use xlink:href="#DejaVuSans-Bold-3" transform="translate(2742.875 0)"/>
    <use xlink:href="#DejaVuSans-Bold-46" transform="translate(2777.6875 0)"/>
    <use xlink:href="#DejaVuSans-Bold-52" transform="translate(2836.96875 0)"/>
    <use xlink:href="#DejaVuSans-Bold-51" transform="translate(2905.671875 0)"/>
    <use xlink:href="#DejaVuSans-Bold-57" transform="translate(2976.859375 0)"/>
    <use xlink:href="#DejaVuSans-Bold-55" transform="translate(3024.65625 0)"/>
    <use xlink:href="#DejaVuSans-Bold-52" transform="translate(3073.96875 0)"/>
    <use xlink:href="#DejaVuSans-Bold-4f" transform="translate(3142.671875 0)"/>
    <use xlink:href="#DejaVuSans-Bold-56" transform="translate(3176.953125 0)"/>
   </g>
  </g>
  <g id="text_33">
   <!-- Each point is the best eligible configuration at that frozen rung; stopped tracks remain absent rather than being plotted as zero. -->
   <g style="fill: #68737d" transform="translate(13.12776 408.11976) scale(0.078 -0.078)">
    <defs>
     <path id="DejaVuSans-4b" d="M 3513 2113
L 3513 0
L 2938 0
L 2938 2094
Q 2938 2591 2744 2837
Q 2550 3084 2163 3084
Q 1697 3084 1428 2787
Q 1159 2491 1159 1978
L 1159 0
L 581 0
L 581 4863
L 1159 4863
L 1159 2956
Q 1366 3272 1645 3428
Q 1925 3584 2291 3584
Q 2894 3584 3203 3211
Q 3513 2838 3513 2113
z
" transform="scale(0.015625)"/>
     <path id="DejaVuSans-13af" d="M 3431 3500
L 3431 0
L 2853 0
L 2853 3053
L 1275 3053
L 1275 0
L 697 0
L 697 3053
L 147 3053
L 147 3500
L 697 3500
L 697 3744
Q 697 4316 967 4589
Q 1238 4863 1797 4863
L 2375 4863
L 2375 4384
L 1825 4384
Q 1516 4384 1395 4259
Q 1275 4134 1275 3809
L 1275 3500
L 3431 3500
z
M 2853 4856
L 3431 4856
L 3431 4128
L 2853 4128
L 2853 4856
z
" transform="scale(0.015625)"/>
     <path id="DejaVuSans-5d" d="M 353 3500
L 3084 3500
L 3084 2975
L 922 459
L 3084 459
L 3084 0
L 275 0
L 275 525
L 2438 3041
L 353 3041
L 353 3500
z
" transform="scale(0.015625)"/>
     <path id="DejaVuSans-1e" d="M 750 3309
L 1409 3309
L 1409 2516
L 750 2516
L 750 3309
z
M 750 794
L 1409 794
L 1409 256
L 897 -744
L 494 -744
L 750 256
L 750 794
z
" transform="scale(0.015625)"/>
     <path id="DejaVuSans-4e" d="M 581 4863
L 1159 4863
L 1159 1991
L 2875 3500
L 3609 3500
L 1753 1863
L 3688 0
L 2938 0
L 1159 1709
L 1159 0
L 581 0
L 581 4863
z
" transform="scale(0.015625)"/>
     <path id="DejaVuSans-50" d="M 3328 2828
Q 3544 3216 3844 3400
Q 4144 3584 4550 3584
Q 5097 3584 5394 3201
Q 5691 2819 5691 2113
L 5691 0
L 5113 0
L 5113 2094
Q 5113 2597 4934 2840
Q 4756 3084 4391 3084
Q 3944 3084 3684 2787
Q 3425 2491 3425 1978
L 3425 0
L 2847 0
L 2847 2094
Q 2847 2600 2669 2842
Q 2491 3084 2119 3084
Q 1678 3084 1418 2786
Q 1159 2488 1159 1978
L 1159 0
L 581 0
L 581 3500
L 1159 3500
L 1159 2956
Q 1356 3278 1631 3431
Q 1906 3584 2284 3584
Q 2666 3584 2933 3390
Q 3200 3197 3328 2828
z
" transform="scale(0.015625)"/>
    </defs>
    <use xlink:href="#DejaVuSans-28"/>
    <use xlink:href="#DejaVuSans-44" transform="translate(63.1875 0)"/>
    <use xlink:href="#DejaVuSans-46" transform="translate(124.46875 0)"/>
    <use xlink:href="#DejaVuSans-4b" transform="translate(179.453125 0)"/>
    <use xlink:href="#DejaVuSans-3" transform="translate(242.828125 0)"/>
    <use xlink:href="#DejaVuSans-53" transform="translate(274.609375 0)"/>
    <use xlink:href="#DejaVuSans-52" transform="translate(338.09375 0)"/>
    <use xlink:href="#DejaVuSans-4c" transform="translate(399.28125 0)"/>
    <use xlink:href="#DejaVuSans-51" transform="translate(427.0625 0)"/>
    <use xlink:href="#DejaVuSans-57" transform="translate(490.4375 0)"/>
    <use xlink:href="#DejaVuSans-3" transform="translate(529.640625 0)"/>
    <use xlink:href="#DejaVuSans-4c" transform="translate(561.421875 0)"/>
    <use xlink:href="#DejaVuSans-56" transform="translate(589.203125 0)"/>
    <use xlink:href="#DejaVuSans-3" transform="translate(641.296875 0)"/>
    <use xlink:href="#DejaVuSans-57" transform="translate(673.078125 0)"/>
    <use xlink:href="#DejaVuSans-4b" transform="translate(712.28125 0)"/>
    <use xlink:href="#DejaVuSans-48" transform="translate(775.65625 0)"/>
    <use xlink:href="#DejaVuSans-3" transform="translate(837.1875 0)"/>
    <use xlink:href="#DejaVuSans-45" transform="translate(868.96875 0)"/>
    <use xlink:href="#DejaVuSans-48" transform="translate(932.453125 0)"/>
    <use xlink:href="#DejaVuSans-56" transform="translate(993.984375 0)"/>
    <use xlink:href="#DejaVuSans-57" transform="translate(1046.078125 0)"/>
    <use xlink:href="#DejaVuSans-3" transform="translate(1085.28125 0)"/>
    <use xlink:href="#DejaVuSans-48" transform="translate(1117.0625 0)"/>
    <use xlink:href="#DejaVuSans-4f" transform="translate(1178.59375 0)"/>
    <use xlink:href="#DejaVuSans-4c" transform="translate(1206.375 0)"/>
    <use xlink:href="#DejaVuSans-4a" transform="translate(1234.15625 0)"/>
    <use xlink:href="#DejaVuSans-4c" transform="translate(1297.640625 0)"/>
    <use xlink:href="#DejaVuSans-45" transform="translate(1325.421875 0)"/>
    <use xlink:href="#DejaVuSans-4f" transform="translate(1388.90625 0)"/>
    <use xlink:href="#DejaVuSans-48" transform="translate(1416.6875 0)"/>
    <use xlink:href="#DejaVuSans-3" transform="translate(1478.21875 0)"/>
    <use xlink:href="#DejaVuSans-46" transform="translate(1510 0)"/>
    <use xlink:href="#DejaVuSans-52" transform="translate(1564.984375 0)"/>
    <use xlink:href="#DejaVuSans-51" transform="translate(1626.171875 0)"/>
    <use xlink:href="#DejaVuSans-13af" transform="translate(1689.546875 0)"/>
    <use xlink:href="#DejaVuSans-4a" transform="translate(1752.53125 0)"/>
    <use xlink:href="#DejaVuSans-58" transform="translate(1816.015625 0)"/>
    <use xlink:href="#DejaVuSans-55" transform="translate(1879.390625 0)"/>
    <use xlink:href="#DejaVuSans-44" transform="translate(1920.5 0)"/>
    <use xlink:href="#DejaVuSans-57" transform="translate(1981.78125 0)"/>
    <use xlink:href="#DejaVuSans-4c" transform="translate(2020.984375 0)"/>
    <use xlink:href="#DejaVuSans-52" transform="translate(2048.765625 0)"/>
    <use xlink:href="#DejaVuSans-51" transform="translate(2109.953125 0)"/>
    <use xlink:href="#DejaVuSans-3" transform="translate(2173.328125 0)"/>
    <use xlink:href="#DejaVuSans-44" transform="translate(2205.109375 0)"/>
    <use xlink:href="#DejaVuSans-57" transform="translate(2266.390625 0)"/>
    <use xlink:href="#DejaVuSans-3" transform="translate(2305.59375 0)"/>
    <use xlink:href="#DejaVuSans-57" transform="translate(2337.375 0)"/>
    <use xlink:href="#DejaVuSans-4b" transform="translate(2376.578125 0)"/>
    <use xlink:href="#DejaVuSans-44" transform="translate(2439.953125 0)"/>
    <use xlink:href="#DejaVuSans-57" transform="translate(2501.234375 0)"/>
    <use xlink:href="#DejaVuSans-3" transform="translate(2540.4375 0)"/>
    <use xlink:href="#DejaVuSans-49" transform="translate(2572.21875 0)"/>
    <use xlink:href="#DejaVuSans-55" transform="translate(2607.421875 0)"/>
    <use xlink:href="#DejaVuSans-52" transform="translate(2646.328125 0)"/>
    <use xlink:href="#DejaVuSans-5d" transform="translate(2707.515625 0)"/>
    <use xlink:href="#DejaVuSans-48" transform="translate(2760 0)"/>
    <use xlink:href="#DejaVuSans-51" transform="translate(2821.53125 0)"/>
    <use xlink:href="#DejaVuSans-3" transform="translate(2884.90625 0)"/>
    <use xlink:href="#DejaVuSans-55" transform="translate(2916.6875 0)"/>
    <use xlink:href="#DejaVuSans-58" transform="translate(2957.796875 0)"/>
    <use xlink:href="#DejaVuSans-51" transform="translate(3021.171875 0)"/>
    <use xlink:href="#DejaVuSans-4a" transform="translate(3084.546875 0)"/>
    <use xlink:href="#DejaVuSans-1e" transform="translate(3148.03125 0)"/>
    <use xlink:href="#DejaVuSans-3" transform="translate(3181.71875 0)"/>
    <use xlink:href="#DejaVuSans-56" transform="translate(3213.5 0)"/>
    <use xlink:href="#DejaVuSans-57" transform="translate(3265.59375 0)"/>
    <use xlink:href="#DejaVuSans-52" transform="translate(3304.796875 0)"/>
    <use xlink:href="#DejaVuSans-53" transform="translate(3365.984375 0)"/>
    <use xlink:href="#DejaVuSans-53" transform="translate(3429.46875 0)"/>
    <use xlink:href="#DejaVuSans-48" transform="translate(3492.953125 0)"/>
    <use xlink:href="#DejaVuSans-47" transform="translate(3554.484375 0)"/>
    <use xlink:href="#DejaVuSans-3" transform="translate(3617.96875 0)"/>
    <use xlink:href="#DejaVuSans-57" transform="translate(3649.75 0)"/>
    <use xlink:href="#DejaVuSans-55" transform="translate(3688.953125 0)"/>
    <use xlink:href="#DejaVuSans-44" transform="translate(3730.0625 0)"/>
    <use xlink:href="#DejaVuSans-46" transform="translate(3791.34375 0)"/>
    <use xlink:href="#DejaVuSans-4e" transform="translate(3846.328125 0)"/>
    <use xlink:href="#DejaVuSans-56" transform="translate(3904.234375 0)"/>
    <use xlink:href="#DejaVuSans-3" transform="translate(3956.328125 0)"/>
    <use xlink:href="#DejaVuSans-55" transform="translate(3988.109375 0)"/>
    <use xlink:href="#DejaVuSans-48" transform="translate(4027.015625 0)"/>
    <use xlink:href="#DejaVuSans-50" transform="translate(4088.546875 0)"/>
    <use xlink:href="#DejaVuSans-44" transform="translate(4185.953125 0)"/>
    <use xlink:href="#DejaVuSans-4c" transform="translate(4247.234375 0)"/>
    <use xlink:href="#DejaVuSans-51" transform="translate(4275.015625 0)"/>
    <use xlink:href="#DejaVuSans-3" transform="translate(4338.390625 0)"/>
    <use xlink:href="#DejaVuSans-44" transform="translate(4370.171875 0)"/>
    <use xlink:href="#DejaVuSans-45" transform="translate(4431.453125 0)"/>
    <use xlink:href="#DejaVuSans-56" transform="translate(4494.9375 0)"/>
    <use xlink:href="#DejaVuSans-48" transform="translate(4547.03125 0)"/>
    <use xlink:href="#DejaVuSans-51" transform="translate(4608.5625 0)"/>
    <use xlink:href="#DejaVuSans-57" transform="translate(4671.9375 0)"/>
    <use xlink:href="#DejaVuSans-3" transform="translate(4711.140625 0)"/>
    <use xlink:href="#DejaVuSans-55" transform="translate(4742.921875 0)"/>
    <use xlink:href="#DejaVuSans-44" transform="translate(4784.03125 0)"/>
    <use xlink:href="#DejaVuSans-57" transform="translate(4845.3125 0)"/>
    <use xlink:href="#DejaVuSans-4b" transform="translate(4884.515625 0)"/>
    <use xlink:href="#DejaVuSans-48" transform="translate(4947.890625 0)"/>
    <use xlink:href="#DejaVuSans-55" transform="translate(5009.421875 0)"/>
    <use xlink:href="#DejaVuSans-3" transform="translate(5050.53125 0)"/>
    <use xlink:href="#DejaVuSans-57" transform="translate(5082.3125 0)"/>
    <use xlink:href="#DejaVuSans-4b" transform="translate(5121.515625 0)"/>
    <use xlink:href="#DejaVuSans-44" transform="translate(5184.890625 0)"/>
    <use xlink:href="#DejaVuSans-51" transform="translate(5246.171875 0)"/>
    <use xlink:href="#DejaVuSans-3" transform="translate(5309.546875 0)"/>
    <use xlink:href="#DejaVuSans-45" transform="translate(5341.328125 0)"/>
    <use xlink:href="#DejaVuSans-48" transform="translate(5404.8125 0)"/>
    <use xlink:href="#DejaVuSans-4c" transform="translate(5466.34375 0)"/>
    <use xlink:href="#DejaVuSans-51" transform="translate(5494.125 0)"/>
    <use xlink:href="#DejaVuSans-4a" transform="translate(5557.5 0)"/>
    <use xlink:href="#DejaVuSans-3" transform="translate(5620.984375 0)"/>
    <use xlink:href="#DejaVuSans-53" transform="translate(5652.765625 0)"/>
    <use xlink:href="#DejaVuSans-4f" transform="translate(5716.25 0)"/>
    <use xlink:href="#DejaVuSans-52" transform="translate(5744.03125 0)"/>
    <use xlink:href="#DejaVuSans-57" transform="translate(5805.21875 0)"/>
    <use xlink:href="#DejaVuSans-57" transform="translate(5844.421875 0)"/>
    <use xlink:href="#DejaVuSans-48" transform="translate(5883.625 0)"/>
    <use xlink:href="#DejaVuSans-47" transform="translate(5945.15625 0)"/>
    <use xlink:href="#DejaVuSans-3" transform="translate(6008.640625 0)"/>
    <use xlink:href="#DejaVuSans-44" transform="translate(6040.421875 0)"/>
    <use xlink:href="#DejaVuSans-56" transform="translate(6101.703125 0)"/>
    <use xlink:href="#DejaVuSans-3" transform="translate(6153.796875 0)"/>
    <use xlink:href="#DejaVuSans-5d" transform="translate(6185.578125 0)"/>
    <use xlink:href="#DejaVuSans-48" transform="translate(6238.0625 0)"/>
    <use xlink:href="#DejaVuSans-55" transform="translate(6299.59375 0)"/>
    <use xlink:href="#DejaVuSans-52" transform="translate(6338.5 0)"/>
    <use xlink:href="#DejaVuSans-11" transform="translate(6397.9375 0)"/>
   </g>
  </g>
 </g>
 <defs>
  <clipPath id="pc8bb6915dc">
   <rect x="41.513516" y="42.407964" width="401.759119" height="325.790852"/>
  </clipPath>
  <clipPath id="p9f26944bd5">
   <rect x="492.240401" y="42.407964" width="401.759119" height="325.790852"/>
  </clipPath>
 </defs>
</svg>
