<?xml version="1.0" encoding="utf-8" standalone="no"?>
<!DOCTYPE svg PUBLIC "-//W3C//DTD SVG 1.1//EN"
  "http://www.w3.org/Graphics/SVG/1.1/DTD/svg11.dtd">
<svg xmlns:xlink="http://www.w3.org/1999/xlink" width="723.7625pt" height="402.48pt" viewBox="0 0 723.7625 402.48" xmlns="http://www.w3.org/2000/svg" version="1.1">
 <metadata>
  <rdf:RDF xmlns:dc="http://purl.org/dc/elements/1.1/" xmlns:cc="http://creativecommons.org/ns#" xmlns:rdf="http://www.w3.org/1999/02/22-rdf-syntax-ns#">
   <cc:Work>
    <dc:type rdf:resource="http://purl.org/dc/dcmitype/StillImage"/>
    <dc:format>image/svg+xml</dc:format>
    <dc:creator>
     <cc:Agent>
      <dc:title>Matplotlib v3.11.0, https://matplotlib.org/</dc:title>
     </cc:Agent>
    </dc:creator>
   </cc:Work>
  </rdf:RDF>
 </metadata>
 <defs>
  <style type="text/css">*{stroke-linejoin: round; stroke-linecap: butt}</style>
 </defs>
 <g id="figure_1">
  <g id="patch_1">
   <path d="M 0 402.48
L 723.7625 402.48
L 723.7625 -0
L 0 -0
z
" style="fill: #ffffff"/>
  </g>
  <g id="axes_1">
   <g id="patch_2">
    <path d="M 50.445 159.32736
L 222.03 159.32736
Q 231.795 159.32736 231.795 153.89424
L 231.795 81.71136
Q 231.795 76.27824 222.03 76.27824
L 50.445 76.27824
Q 40.68 76.27824 40.68 81.71136
L 40.68 153.89424
Q 40.68 159.32736 50.445 159.32736
z
" clip-path="url(#pe4f4aed117)" style="fill: #fbedea; stroke: #b24a3b; stroke-width: 1.2; stroke-linejoin: miter"/>
   </g>
   <g id="patch_3">
    <path d="M 273.645 159.32736
L 445.23 159.32736
Q 454.995 159.32736 454.995 153.89424
L 454.995 81.71136
Q 454.995 76.27824 445.23 76.27824
L 273.645 76.27824
Q 263.88 76.27824 263.88 81.71136
L 263.88 153.89424
Q 263.88 159.32736 273.645 159.32736
z
" clip-path="url(#pe4f4aed117)" style="fill: #e8f4ef; stroke: #1b7f5a; stroke-width: 1.2; stroke-linejoin: miter"/>
   </g>
   <g id="patch_4">
    <path d="M 496.845 159.32736
L 654.48 159.32736
Q 664.245 159.32736 664.245 153.89424
L 664.245 81.71136
Q 664.245 76.27824 654.48 76.27824
L 496.845 76.27824
Q 487.08 76.27824 487.08 81.71136
L 487.08 153.89424
Q 487.08 159.32736 496.845 159.32736
z
" clip-path="url(#pe4f4aed117)" style="fill: #e8f4ef; stroke: #1b7f5a; stroke-width: 1.2; stroke-linejoin: miter"/>
   </g>
   <g id="patch_5">
    <path d="M 99.27 287.39376
L 340.605 287.39376
Q 350.37 287.39376 350.37 281.96064
L 350.37 202.01616
Q 350.37 196.58304 340.605 196.58304
L 99.27 196.58304
Q 89.505 196.58304 89.505 202.01616
L 89.505 281.96064
Q 89.505 287.39376 99.27 287.39376
z
" clip-path="url(#pe4f4aed117)" style="fill: #fff4d6; stroke: #e69f00; stroke-width: 1.2; stroke-linejoin: miter"/>
   </g>
   <g id="patch_6">
    <path d="M 399.195 287.39376
L 619.605 287.39376
Q 629.37 287.39376 629.37 281.96064
L 629.37 202.01616
Q 629.37 196.58304 619.605 196.58304
L 399.195 196.58304
Q 389.43 196.58304 389.43 202.01616
L 389.43 281.96064
Q 389.43 287.39376 399.195 287.39376
z
" clip-path="url(#pe4f4aed117)" style="fill: #f2f4f6; stroke: #68737d; stroke-width: 1.2; stroke-linejoin: miter"/>
   </g>
   <g id="patch_7">
    <path d="M 148.095 372.77136
L 563.805 372.77136
Q 573.57 372.77136 573.57 367.33824
L 573.57 330.08256
Q 573.57 324.64944 563.805 324.64944
L 148.095 324.64944
Q 138.33 324.64944 138.33 330.08256
L 138.33 367.33824
Q 138.33 372.77136 148.095 372.77136
z
" clip-path="url(#pe4f4aed117)" style="fill: #fbedea; stroke: #b24a3b; stroke-width: 1.2; stroke-linejoin: miter"/>
   </g>
   <g id="text_1">
    <!-- D029-C clean reproducibility audit: STOP -->
    <g style="fill: #17202a" transform="translate(21.15 30.9999) scale(0.16 -0.16)">
     <defs>
      <path id="DejaVuSans-Bold-27" d="M 1791 3756
L 1791 909
L 2222 909
Q 2959 909 3348 1275
Q 3738 1641 3738 2338
Q 3738 3031 3350 3393
Q 2963 3756 2222 3756
L 1791 3756
z
M 588 4666
L 1856 4666
Q 2919 4666 3439 4514
Q 3959 4363 4331 4000
Q 4659 3684 4818 3271
Q 4978 2859 4978 2338
Q 4978 1809 4818 1395
Q 4659 981 4331 666
Q 3956 303 3431 151
Q 2906 0 1856 0
L 588 0
L 588 4666
z
" transform="scale(0.015625)"/>
      <path id="DejaVuSans-Bold-13" d="M 2944 2338
Q 2944 3213 2780 3570
Q 2616 3928 2228 3928
Q 1841 3928 1675 3570
Q 1509 3213 1509 2338
Q 1509 1453 1675 1090
Q 1841 728 2228 728
Q 2613 728 2778 1090
Q 2944 1453 2944 2338
z
M 4147 2328
Q 4147 1169 3647 539
Q 3147 -91 2228 -91
Q 1306 -91 806 539
Q 306 1169 306 2328
Q 306 3491 806 4120
Q 1306 4750 2228 4750
Q 3147 4750 3647 4120
Q 4147 3491 4147 2328
z
" transform="scale(0.015625)"/>
      <path id="DejaVuSans-Bold-15" d="M 1844 884
L 3897 884
L 3897 0
L 506 0
L 506 884
L 2209 2388
Q 2438 2594 2547 2791
Q 2656 2988 2656 3200
Q 2656 3528 2436 3728
Q 2216 3928 1850 3928
Q 1569 3928 1234 3808
Q 900 3688 519 3450
L 519 4475
Q 925 4609 1322 4679
Q 1719 4750 2100 4750
Q 2938 4750 3402 4381
Q 3866 4013 3866 3353
Q 3866 2972 3669 2642
Q 3472 2313 2841 1759
L 1844 884
z
" transform="scale(0.015625)"/>
      <path id="DejaVuSans-Bold-1c" d="M 641 103
L 641 966
Q 928 831 1190 764
Q 1453 697 1709 697
Q 2247 697 2547 995
Q 2847 1294 2900 1881
Q 2688 1725 2447 1647
Q 2206 1569 1925 1569
Q 1209 1569 770 1986
Q 331 2403 331 3084
Q 331 3838 820 4291
Q 1309 4744 2131 4744
Q 3044 4744 3544 4128
Q 4044 3513 4044 2388
Q 4044 1231 3459 570
Q 2875 -91 1856 -91
Q 1528 -91 1228 -42
Q 928 6 641 103
z
M 2125 2350
Q 2441 2350 2600 2554
Q 2759 2759 2759 3169
Q 2759 3575 2600 3781
Q 2441 3988 2125 3988
Q 1809 3988 1650 3781
Q 1491 3575 1491 3169
Q 1491 2759 1650 2554
Q 1809 2350 2125 2350
z
" transform="scale(0.015625)"/>
      <path id="DejaVuSans-Bold-10" d="M 347 2297
L 2309 2297
L 2309 1388
L 347 1388
L 347 2297
z
" transform="scale(0.015625)"/>
      <path id="DejaVuSans-Bold-26" d="M 4288 256
Q 3956 84 3597 -3
Q 3238 -91 2847 -91
Q 1681 -91 1000 561
Q 319 1213 319 2328
Q 319 3447 1000 4098
Q 1681 4750 2847 4750
Q 3238 4750 3597 4662
Q 3956 4575 4288 4403
L 4288 3438
Q 3953 3666 3628 3772
Q 3303 3878 2944 3878
Q 2300 3878 1931 3465
Q 1563 3053 1563 2328
Q 1563 1606 1931 1193
Q 2300 781 2944 781
Q 3303 781 3628 887
Q 3953 994 4288 1222
L 4288 256
z
" transform="scale(0.015625)"/>
      <path id="DejaVuSans-Bold-3" transform="scale(0.015625)"/>
      <path id="DejaVuSans-Bold-46" d="M 3366 3391
L 3366 2478
Q 3138 2634 2908 2709
Q 2678 2784 2431 2784
Q 1963 2784 1702 2511
Q 1441 2238 1441 1747
Q 1441 1256 1702 982
Q 1963 709 2431 709
Q 2694 709 2930 787
Q 3166 866 3366 1019
L 3366 103
Q 3103 6 2833 -42
Q 2563 -91 2291 -91
Q 1344 -91 809 395
Q 275 881 275 1747
Q 275 2613 809 3098
Q 1344 3584 2291 3584
Q 2566 3584 2833 3536
Q 3100 3488 3366 3391
z
" transform="scale(0.015625)"/>
      <path id="DejaVuSans-Bold-4f" d="M 538 4863
L 1656 4863
L 1656 0
L 538 0
L 538 4863
z
" transform="scale(0.015625)"/>
      <path id="DejaVuSans-Bold-48" d="M 4031 1759
L 4031 1441
L 1416 1441
Q 1456 1047 1700 850
Q 1944 653 2381 653
Q 2734 653 3104 758
Q 3475 863 3866 1075
L 3866 213
Q 3469 63 3072 -14
Q 2675 -91 2278 -91
Q 1328 -91 801 392
Q 275 875 275 1747
Q 275 2603 792 3093
Q 1309 3584 2216 3584
Q 3041 3584 3536 3087
Q 4031 2591 4031 1759
z
M 2881 2131
Q 2881 2450 2695 2645
Q 2509 2841 2209 2841
Q 1884 2841 1681 2658
Q 1478 2475 1428 2131
L 2881 2131
z
" transform="scale(0.015625)"/>
      <path id="DejaVuSans-Bold-44" d="M 2106 1575
Q 1756 1575 1579 1456
Q 1403 1338 1403 1106
Q 1403 894 1545 773
Q 1688 653 1941 653
Q 2256 653 2472 879
Q 2688 1106 2688 1447
L 2688 1575
L 2106 1575
z
M 3816 1997
L 3816 0
L 2688 0
L 2688 519
Q 2463 200 2181 54
Q 1900 -91 1497 -91
Q 953 -91 614 226
Q 275 544 275 1050
Q 275 1666 698 1953
Q 1122 2241 2028 2241
L 2688 2241
L 2688 2328
Q 2688 2594 2478 2717
Q 2269 2841 1825 2841
Q 1466 2841 1156 2769
Q 847 2697 581 2553
L 581 3406
Q 941 3494 1303 3539
Q 1666 3584 2028 3584
Q 2975 3584 3395 3211
Q 3816 2838 3816 1997
z
" transform="scale(0.015625)"/>
      <path id="DejaVuSans-Bold-51" d="M 4056 2131
L 4056 0
L 2931 0
L 2931 347
L 2931 1631
Q 2931 2084 2911 2256
Q 2891 2428 2841 2509
Q 2775 2619 2662 2680
Q 2550 2741 2406 2741
Q 2056 2741 1856 2470
Q 1656 2200 1656 1722
L 1656 0
L 538 0
L 538 3500
L 1656 3500
L 1656 2988
Q 1909 3294 2193 3439
Q 2478 3584 2822 3584
Q 3428 3584 3742 3212
Q 4056 2841 4056 2131
z
" transform="scale(0.015625)"/>
      <path id="DejaVuSans-Bold-55" d="M 3138 2547
Q 2991 2616 2845 2648
Q 2700 2681 2553 2681
Q 2122 2681 1889 2404
Q 1656 2128 1656 1613
L 1656 0
L 538 0
L 538 3500
L 1656 3500
L 1656 2925
Q 1872 3269 2151 3426
Q 2431 3584 2822 3584
Q 2878 3584 2943 3579
Q 3009 3575 3134 3559
L 3138 2547
z
" transform="scale(0.015625)"/>
      <path id="DejaVuSans-Bold-53" d="M 1656 506
L 1656 -1331
L 538 -1331
L 538 3500
L 1656 3500
L 1656 2988
Q 1888 3294 2169 3439
Q 2450 3584 2816 3584
Q 3463 3584 3878 3070
Q 4294 2556 4294 1747
Q 4294 938 3878 423
Q 3463 -91 2816 -91
Q 2450 -91 2169 54
Q 1888 200 1656 506
z
M 2400 2772
Q 2041 2772 1848 2508
Q 1656 2244 1656 1747
Q 1656 1250 1848 986
Q 2041 722 2400 722
Q 2759 722 2948 984
Q 3138 1247 3138 1747
Q 3138 2247 2948 2509
Q 2759 2772 2400 2772
z
" transform="scale(0.015625)"/>
      <path id="DejaVuSans-Bold-52" d="M 2203 2784
Q 1831 2784 1636 2517
Q 1441 2250 1441 1747
Q 1441 1244 1636 976
Q 1831 709 2203 709
Q 2569 709 2762 976
Q 2956 1244 2956 1747
Q 2956 2250 2762 2517
Q 2569 2784 2203 2784
z
M 2203 3584
Q 3106 3584 3614 3096
Q 4122 2609 4122 1747
Q 4122 884 3614 396
Q 3106 -91 2203 -91
Q 1297 -91 786 396
Q 275 884 275 1747
Q 275 2609 786 3096
Q 1297 3584 2203 3584
z
" transform="scale(0.015625)"/>
      <path id="DejaVuSans-Bold-47" d="M 2919 2988
L 2919 4863
L 4044 4863
L 4044 0
L 2919 0
L 2919 506
Q 2688 197 2409 53
Q 2131 -91 1766 -91
Q 1119 -91 703 423
Q 288 938 288 1747
Q 288 2556 703 3070
Q 1119 3584 1766 3584
Q 2128 3584 2408 3439
Q 2688 3294 2919 2988
z
M 2181 722
Q 2541 722 2730 984
Q 2919 1247 2919 1747
Q 2919 2247 2730 2509
Q 2541 2772 2181 2772
Q 1825 2772 1636 2509
Q 1447 2247 1447 1747
Q 1447 1247 1636 984
Q 1825 722 2181 722
z
" transform="scale(0.015625)"/>
      <path id="DejaVuSans-Bold-58" d="M 500 1363
L 500 3500
L 1625 3500
L 1625 3150
Q 1625 2866 1622 2436
Q 1619 2006 1619 1863
Q 1619 1441 1641 1255
Q 1663 1069 1716 984
Q 1784 875 1895 815
Q 2006 756 2150 756
Q 2500 756 2700 1025
Q 2900 1294 2900 1772
L 2900 3500
L 4019 3500
L 4019 0
L 2900 0
L 2900 506
Q 2647 200 2364 54
Q 2081 -91 1741 -91
Q 1134 -91 817 281
Q 500 653 500 1363
z
" transform="scale(0.015625)"/>
      <path id="DejaVuSans-Bold-4c" d="M 538 3500
L 1656 3500
L 1656 0
L 538 0
L 538 3500
z
M 538 4863
L 1656 4863
L 1656 3950
L 538 3950
L 538 4863
z
" transform="scale(0.015625)"/>
      <path id="DejaVuSans-Bold-45" d="M 2400 722
Q 2759 722 2948 984
Q 3138 1247 3138 1747
Q 3138 2247 2948 2509
Q 2759 2772 2400 2772
Q 2041 2772 1848 2508
Q 1656 2244 1656 1747
Q 1656 1250 1848 986
Q 2041 722 2400 722
z
M 1656 2988
Q 1888 3294 2169 3439
Q 2450 3584 2816 3584
Q 3463 3584 3878 3070
Q 4294 2556 4294 1747
Q 4294 938 3878 423
Q 3463 -91 2816 -91
Q 2450 -91 2169 54
Q 1888 200 1656 506
L 1656 0
L 538 0
L 538 4863
L 1656 4863
L 1656 2988
z
" transform="scale(0.015625)"/>
      <path id="DejaVuSans-Bold-57" d="M 1759 4494
L 1759 3500
L 2913 3500
L 2913 2700
L 1759 2700
L 1759 1216
Q 1759 972 1856 886
Q 1953 800 2241 800
L 2816 800
L 2816 0
L 1856 0
Q 1194 0 917 276
Q 641 553 641 1216
L 641 2700
L 84 2700
L 84 3500
L 641 3500
L 641 4494
L 1759 4494
z
" transform="scale(0.015625)"/>
      <path id="DejaVuSans-Bold-5c" d="M 78 3500
L 1197 3500
L 2138 1125
L 2938 3500
L 4056 3500
L 2584 -331
Q 2363 -916 2067 -1148
Q 1772 -1381 1288 -1381
L 641 -1381
L 641 -647
L 991 -647
Q 1275 -647 1404 -556
Q 1534 -466 1606 -231
L 1638 -134
L 78 3500
z
" transform="scale(0.015625)"/>
      <path id="DejaVuSans-Bold-1d" d="M 716 3500
L 1844 3500
L 1844 2291
L 716 2291
L 716 3500
z
M 716 1209
L 1844 1209
L 1844 0
L 716 0
L 716 1209
z
" transform="scale(0.015625)"/>
      <path id="DejaVuSans-Bold-36" d="M 3834 4519
L 3834 3531
Q 3450 3703 3084 3790
Q 2719 3878 2394 3878
Q 1963 3878 1756 3759
Q 1550 3641 1550 3391
Q 1550 3203 1689 3098
Q 1828 2994 2194 2919
L 2706 2816
Q 3484 2659 3812 2340
Q 4141 2022 4141 1434
Q 4141 663 3683 286
Q 3225 -91 2284 -91
Q 1841 -91 1394 -6
Q 947 78 500 244
L 500 1259
Q 947 1022 1364 901
Q 1781 781 2169 781
Q 2563 781 2772 912
Q 2981 1044 2981 1288
Q 2981 1506 2839 1625
Q 2697 1744 2272 1838
L 1806 1941
Q 1106 2091 782 2419
Q 459 2747 459 3303
Q 459 4000 909 4375
Q 1359 4750 2203 4750
Q 2588 4750 2994 4692
Q 3400 4634 3834 4519
z
" transform="scale(0.015625)"/>
      <path id="DejaVuSans-Bold-37" d="M 31 4666
L 4331 4666
L 4331 3756
L 2784 3756
L 2784 0
L 1581 0
L 1581 3756
L 31 3756
L 31 4666
z
" transform="scale(0.015625)"/>
      <path id="DejaVuSans-Bold-32" d="M 2719 3878
Q 2169 3878 1866 3472
Q 1563 3066 1563 2328
Q 1563 1594 1866 1187
Q 2169 781 2719 781
Q 3272 781 3575 1187
Q 3878 1594 3878 2328
Q 3878 3066 3575 3472
Q 3272 3878 2719 3878
z
M 2719 4750
Q 3844 4750 4481 4106
Q 5119 3463 5119 2328
Q 5119 1197 4481 553
Q 3844 -91 2719 -91
Q 1597 -91 958 553
Q 319 1197 319 2328
Q 319 3463 958 4106
Q 1597 4750 2719 4750
z
" transform="scale(0.015625)"/>
      <path id="DejaVuSans-Bold-33" d="M 588 4666
L 2584 4666
Q 3475 4666 3951 4270
Q 4428 3875 4428 3144
Q 4428 2409 3951 2014
Q 3475 1619 2584 1619
L 1791 1619
L 1791 0
L 588 0
L 588 4666
z
M 1791 3794
L 1791 2491
L 2456 2491
Q 2806 2491 2997 2661
Q 3188 2831 3188 3144
Q 3188 3456 2997 3625
Q 2806 3794 2456 3794
L 1791 3794
z
" transform="scale(0.015625)"/>
     </defs>
     <use xlink:href="#DejaVuSans-Bold-27"/>
     <use xlink:href="#DejaVuSans-Bold-13" transform="translate(83.015625 0)"/>
     <use xlink:href="#DejaVuSans-Bold-15" transform="translate(152.59375 0)"/>
     <use xlink:href="#DejaVuSans-Bold-1c" transform="translate(222.171875 0)"/>
     <use xlink:href="#DejaVuSans-Bold-10" transform="translate(291.75 0)"/>
     <use xlink:href="#DejaVuSans-Bold-26" transform="translate(333.25 0)"/>
     <use xlink:href="#DejaVuSans-Bold-3" transform="translate(406.640625 0)"/>
     <use xlink:href="#DejaVuSans-Bold-46" transform="translate(441.453125 0)"/>
     <use xlink:href="#DejaVuSans-Bold-4f" transform="translate(500.734375 0)"/>
     <use xlink:href="#DejaVuSans-Bold-48" transform="translate(535.015625 0)"/>
     <use xlink:href="#DejaVuSans-Bold-44" transform="translate(602.84375 0)"/>
     <use xlink:href="#DejaVuSans-Bold-51" transform="translate(670.328125 0)"/>
     <use xlink:href="#DejaVuSans-Bold-3" transform="translate(741.515625 0)"/>
     <use xlink:href="#DejaVuSans-Bold-55" transform="translate(776.328125 0)"/>
     <use xlink:href="#DejaVuSans-Bold-48" transform="translate(825.640625 0)"/>
     <use xlink:href="#DejaVuSans-Bold-53" transform="translate(893.46875 0)"/>
     <use xlink:href="#DejaVuSans-Bold-55" transform="translate(965.046875 0)"/>
     <use xlink:href="#DejaVuSans-Bold-52" transform="translate(1014.359375 0)"/>
     <use xlink:href="#DejaVuSans-Bold-47" transform="translate(1083.0625 0)"/>
     <use xlink:href="#DejaVuSans-Bold-58" transform="translate(1154.640625 0)"/>
     <use xlink:href="#DejaVuSans-Bold-46" transform="translate(1225.828125 0)"/>
     <use xlink:href="#DejaVuSans-Bold-4c" transform="translate(1285.109375 0)"/>
     <use xlink:href="#DejaVuSans-Bold-45" transform="translate(1319.390625 0)"/>
     <use xlink:href="#DejaVuSans-Bold-4c" transform="translate(1390.96875 0)"/>
     <use xlink:href="#DejaVuSans-Bold-4f" transform="translate(1425.25 0)"/>
     <use xlink:href="#DejaVuSans-Bold-4c" transform="translate(1459.53125 0)"/>
     <use xlink:href="#DejaVuSans-Bold-57" transform="translate(1493.8125 0)"/>
     <use xlink:href="#DejaVuSans-Bold-5c" transform="translate(1541.609375 0)"/>
     <use xlink:href="#DejaVuSans-Bold-3" transform="translate(1606.796875 0)"/>
     <use xlink:href="#DejaVuSans-Bold-44" transform="translate(1641.609375 0)"/>
     <use xlink:href="#DejaVuSans-Bold-58" transform="translate(1709.09375 0)"/>
     <use xlink:href="#DejaVuSans-Bold-47" transform="translate(1780.28125 0)"/>
     <use xlink:href="#DejaVuSans-Bold-4c" transform="translate(1851.859375 0)"/>
     <use xlink:href="#DejaVuSans-Bold-57" transform="translate(1886.140625 0)"/>
     <use xlink:href="#DejaVuSans-Bold-1d" transform="translate(1933.9375 0)"/>
     <use xlink:href="#DejaVuSans-Bold-3" transform="translate(1973.921875 0)"/>
     <use xlink:href="#DejaVuSans-Bold-36" transform="translate(2008.734375 0)"/>
     <use xlink:href="#DejaVuSans-Bold-37" transform="translate(2080.75 0)"/>
     <use xlink:href="#DejaVuSans-Bold-32" transform="translate(2148.96875 0)"/>
     <use xlink:href="#DejaVuSans-Bold-33" transform="translate(2233.984375 0)"/>
    </g>
   </g>
   <g id="text_2">
    <!-- The clean clone reached lint and compile checks, but pytest failed on byte-provenance/hash portability. -->
    <g style="fill: #68737d" transform="translate(21.15 49.117762) scale(0.092 -0.092)">
     <defs>
      <path id="DejaVuSans-37" d="M -19 4666
L 3928 4666
L 3928 4134
L 2272 4134
L 2272 0
L 1638 0
L 1638 4134
L -19 4134
L -19 4666
z
" transform="scale(0.015625)"/>
      <path id="DejaVuSans-4b" d="M 3513 2113
L 3513 0
L 2938 0
L 2938 2094
Q 2938 2591 2744 2837
Q 2550 3084 2163 3084
Q 1697 3084 1428 2787
Q 1159 2491 1159 1978
L 1159 0
L 581 0
L 581 4863
L 1159 4863
L 1159 2956
Q 1366 3272 1645 3428
Q 1925 3584 2291 3584
Q 2894 3584 3203 3211
Q 3513 2838 3513 2113
z
" transform="scale(0.015625)"/>
      <path id="DejaVuSans-48" d="M 3597 1894
L 3597 1613
L 953 1613
Q 991 1019 1311 708
Q 1631 397 2203 397
Q 2534 397 2845 478
Q 3156 559 3463 722
L 3463 178
Q 3153 47 2828 -22
Q 2503 -91 2169 -91
Q 1331 -91 842 396
Q 353 884 353 1716
Q 353 2575 817 3079
Q 1281 3584 2069 3584
Q 2775 3584 3186 3129
Q 3597 2675 3597 1894
z
M 3022 2063
Q 3016 2534 2758 2815
Q 2500 3097 2075 3097
Q 1594 3097 1305 2825
Q 1016 2553 972 2059
L 3022 2063
z
" transform="scale(0.015625)"/>
      <path id="DejaVuSans-3" transform="scale(0.015625)"/>
      <path id="DejaVuSans-46" d="M 3122 3366
L 3122 2828
Q 2878 2963 2633 3030
Q 2388 3097 2138 3097
Q 1578 3097 1268 2742
Q 959 2388 959 1747
Q 959 1106 1268 751
Q 1578 397 2138 397
Q 2388 397 2633 464
Q 2878 531 3122 666
L 3122 134
Q 2881 22 2623 -34
Q 2366 -91 2075 -91
Q 1284 -91 818 406
Q 353 903 353 1747
Q 353 2603 823 3093
Q 1294 3584 2113 3584
Q 2378 3584 2631 3529
Q 2884 3475 3122 3366
z
" transform="scale(0.015625)"/>
      <path id="DejaVuSans-4f" d="M 603 4863
L 1178 4863
L 1178 0
L 603 0
L 603 4863
z
" transform="scale(0.015625)"/>
      <path id="DejaVuSans-44" d="M 2194 1759
Q 1497 1759 1228 1600
Q 959 1441 959 1056
Q 959 750 1161 570
Q 1363 391 1709 391
Q 2188 391 2477 730
Q 2766 1069 2766 1631
L 2766 1759
L 2194 1759
z
M 3341 1997
L 3341 0
L 2766 0
L 2766 531
Q 2569 213 2275 61
Q 1981 -91 1556 -91
Q 1019 -91 701 211
Q 384 513 384 1019
Q 384 1609 779 1909
Q 1175 2209 1959 2209
L 2766 2209
L 2766 2266
Q 2766 2663 2505 2880
Q 2244 3097 1772 3097
Q 1472 3097 1187 3025
Q 903 2953 641 2809
L 641 3341
Q 956 3463 1253 3523
Q 1550 3584 1831 3584
Q 2591 3584 2966 3190
Q 3341 2797 3341 1997
z
" transform="scale(0.015625)"/>
      <path id="DejaVuSans-51" d="M 3513 2113
L 3513 0
L 2938 0
L 2938 2094
Q 2938 2591 2744 2837
Q 2550 3084 2163 3084
Q 1697 3084 1428 2787
Q 1159 2491 1159 1978
L 1159 0
L 581 0
L 581 3500
L 1159 3500
L 1159 2956
Q 1366 3272 1645 3428
Q 1925 3584 2291 3584
Q 2894 3584 3203 3211
Q 3513 2838 3513 2113
z
" transform="scale(0.015625)"/>
      <path id="DejaVuSans-52" d="M 1959 3097
Q 1497 3097 1228 2736
Q 959 2375 959 1747
Q 959 1119 1226 758
Q 1494 397 1959 397
Q 2419 397 2687 759
Q 2956 1122 2956 1747
Q 2956 2369 2687 2733
Q 2419 3097 1959 3097
z
M 1959 3584
Q 2709 3584 3137 3096
Q 3566 2609 3566 1747
Q 3566 888 3137 398
Q 2709 -91 1959 -91
Q 1206 -91 779 398
Q 353 888 353 1747
Q 353 2609 779 3096
Q 1206 3584 1959 3584
z
" transform="scale(0.015625)"/>
      <path id="DejaVuSans-55" d="M 2631 2963
Q 2534 3019 2420 3045
Q 2306 3072 2169 3072
Q 1681 3072 1420 2755
Q 1159 2438 1159 1844
L 1159 0
L 581 0
L 581 3500
L 1159 3500
L 1159 2956
Q 1341 3275 1631 3429
Q 1922 3584 2338 3584
Q 2397 3584 2469 3576
Q 2541 3569 2628 3553
L 2631 2963
z
" transform="scale(0.015625)"/>
      <path id="DejaVuSans-47" d="M 2906 2969
L 2906 4863
L 3481 4863
L 3481 0
L 2906 0
L 2906 525
Q 2725 213 2448 61
Q 2172 -91 1784 -91
Q 1150 -91 751 415
Q 353 922 353 1747
Q 353 2572 751 3078
Q 1150 3584 1784 3584
Q 2172 3584 2448 3432
Q 2725 3281 2906 2969
z
M 947 1747
Q 947 1113 1208 752
Q 1469 391 1925 391
Q 2381 391 2643 752
Q 2906 1113 2906 1747
Q 2906 2381 2643 2742
Q 2381 3103 1925 3103
Q 1469 3103 1208 2742
Q 947 2381 947 1747
z
" transform="scale(0.015625)"/>
      <path id="DejaVuSans-4c" d="M 603 3500
L 1178 3500
L 1178 0
L 603 0
L 603 3500
z
M 603 4863
L 1178 4863
L 1178 4134
L 603 4134
L 603 4863
z
" transform="scale(0.015625)"/>
      <path id="DejaVuSans-57" d="M 1172 4494
L 1172 3500
L 2356 3500
L 2356 3053
L 1172 3053
L 1172 1153
Q 1172 725 1289 603
Q 1406 481 1766 481
L 2356 481
L 2356 0
L 1766 0
Q 1100 0 847 248
Q 594 497 594 1153
L 594 3053
L 172 3053
L 172 3500
L 594 3500
L 594 4494
L 1172 4494
z
" transform="scale(0.015625)"/>
      <path id="DejaVuSans-50" d="M 3328 2828
Q 3544 3216 3844 3400
Q 4144 3584 4550 3584
Q 5097 3584 5394 3201
Q 5691 2819 5691 2113
L 5691 0
L 5113 0
L 5113 2094
Q 5113 2597 4934 2840
Q 4756 3084 4391 3084
Q 3944 3084 3684 2787
Q 3425 2491 3425 1978
L 3425 0
L 2847 0
L 2847 2094
Q 2847 2600 2669 2842
Q 2491 3084 2119 3084
Q 1678 3084 1418 2786
Q 1159 2488 1159 1978
L 1159 0
L 581 0
L 581 3500
L 1159 3500
L 1159 2956
Q 1356 3278 1631 3431
Q 1906 3584 2284 3584
Q 2666 3584 2933 3390
Q 3200 3197 3328 2828
z
" transform="scale(0.015625)"/>
      <path id="DejaVuSans-53" d="M 1159 525
L 1159 -1331
L 581 -1331
L 581 3500
L 1159 3500
L 1159 2969
Q 1341 3281 1617 3432
Q 1894 3584 2278 3584
Q 2916 3584 3314 3078
Q 3713 2572 3713 1747
Q 3713 922 3314 415
Q 2916 -91 2278 -91
Q 1894 -91 1617 61
Q 1341 213 1159 525
z
M 3116 1747
Q 3116 2381 2855 2742
Q 2594 3103 2138 3103
Q 1681 3103 1420 2742
Q 1159 2381 1159 1747
Q 1159 1113 1420 752
Q 1681 391 2138 391
Q 2594 391 2855 752
Q 3116 1113 3116 1747
z
" transform="scale(0.015625)"/>
      <path id="DejaVuSans-4e" d="M 581 4863
L 1159 4863
L 1159 1991
L 2875 3500
L 3609 3500
L 1753 1863
L 3688 0
L 2938 0
L 1159 1709
L 1159 0
L 581 0
L 581 4863
z
" transform="scale(0.015625)"/>
      <path id="DejaVuSans-56" d="M 2834 3397
L 2834 2853
Q 2591 2978 2328 3040
Q 2066 3103 1784 3103
Q 1356 3103 1142 2972
Q 928 2841 928 2578
Q 928 2378 1081 2264
Q 1234 2150 1697 2047
L 1894 2003
Q 2506 1872 2764 1633
Q 3022 1394 3022 966
Q 3022 478 2636 193
Q 2250 -91 1575 -91
Q 1294 -91 989 -36
Q 684 19 347 128
L 347 722
Q 666 556 975 473
Q 1284 391 1588 391
Q 1994 391 2212 530
Q 2431 669 2431 922
Q 2431 1156 2273 1281
Q 2116 1406 1581 1522
L 1381 1569
Q 847 1681 609 1914
Q 372 2147 372 2553
Q 372 3047 722 3315
Q 1072 3584 1716 3584
Q 2034 3584 2315 3537
Q 2597 3491 2834 3397
z
" transform="scale(0.015625)"/>
      <path id="DejaVuSans-f" d="M 750 794
L 1409 794
L 1409 256
L 897 -744
L 494 -744
L 750 256
L 750 794
z
" transform="scale(0.015625)"/>
      <path id="DejaVuSans-45" d="M 3116 1747
Q 3116 2381 2855 2742
Q 2594 3103 2138 3103
Q 1681 3103 1420 2742
Q 1159 2381 1159 1747
Q 1159 1113 1420 752
Q 1681 391 2138 391
Q 2594 391 2855 752
Q 3116 1113 3116 1747
z
M 1159 2969
Q 1341 3281 1617 3432
Q 1894 3584 2278 3584
Q 2916 3584 3314 3078
Q 3713 2572 3713 1747
Q 3713 922 3314 415
Q 2916 -91 2278 -91
Q 1894 -91 1617 61
Q 1341 213 1159 525
L 1159 0
L 581 0
L 581 4863
L 1159 4863
L 1159 2969
z
" transform="scale(0.015625)"/>
      <path id="DejaVuSans-58" d="M 544 1381
L 544 3500
L 1119 3500
L 1119 1403
Q 1119 906 1312 657
Q 1506 409 1894 409
Q 2359 409 2629 706
Q 2900 1003 2900 1516
L 2900 3500
L 3475 3500
L 3475 0
L 2900 0
L 2900 538
Q 2691 219 2414 64
Q 2138 -91 1772 -91
Q 1169 -91 856 284
Q 544 659 544 1381
z
M 1991 3584
L 1991 3584
z
" transform="scale(0.015625)"/>
      <path id="DejaVuSans-5c" d="M 2059 -325
Q 1816 -950 1584 -1140
Q 1353 -1331 966 -1331
L 506 -1331
L 506 -850
L 844 -850
Q 1081 -850 1212 -737
Q 1344 -625 1503 -206
L 1606 56
L 191 3500
L 800 3500
L 1894 763
L 2988 3500
L 3597 3500
L 2059 -325
z
" transform="scale(0.015625)"/>
      <path id="DejaVuSans-49" d="M 2375 4863
L 2375 4384
L 1825 4384
Q 1516 4384 1395 4259
Q 1275 4134 1275 3809
L 1275 3500
L 2222 3500
L 2222 3053
L 1275 3053
L 1275 0
L 697 0
L 697 3053
L 147 3053
L 147 3500
L 697 3500
L 697 3744
Q 697 4328 969 4595
Q 1241 4863 1831 4863
L 2375 4863
z
" transform="scale(0.015625)"/>
      <path id="DejaVuSans-10" d="M 313 2009
L 1997 2009
L 1997 1497
L 313 1497
L 313 2009
z
" transform="scale(0.015625)"/>
      <path id="DejaVuSans-59" d="M 191 3500
L 800 3500
L 1894 563
L 2988 3500
L 3597 3500
L 2284 0
L 1503 0
L 191 3500
z
" transform="scale(0.015625)"/>
      <path id="DejaVuSans-12" d="M 1625 4666
L 2156 4666
L 531 -594
L 0 -594
L 1625 4666
z
" transform="scale(0.015625)"/>
      <path id="DejaVuSans-11" d="M 684 794
L 1344 794
L 1344 0
L 684 0
L 684 794
z
" transform="scale(0.015625)"/>
     </defs>
     <use xlink:href="#DejaVuSans-37"/>
     <use xlink:href="#DejaVuSans-4b" transform="translate(61.078125 0)"/>
     <use xlink:href="#DejaVuSans-48" transform="translate(124.453125 0)"/>
     <use xlink:href="#DejaVuSans-3" transform="translate(185.984375 0)"/>
     <use xlink:href="#DejaVuSans-46" transform="translate(217.765625 0)"/>
     <use xlink:href="#DejaVuSans-4f" transform="translate(272.75 0)"/>
     <use xlink:href="#DejaVuSans-48" transform="translate(300.53125 0)"/>
     <use xlink:href="#DejaVuSans-44" transform="translate(362.0625 0)"/>
     <use xlink:href="#DejaVuSans-51" transform="translate(423.34375 0)"/>
     <use xlink:href="#DejaVuSans-3" transform="translate(486.71875 0)"/>
     <use xlink:href="#DejaVuSans-46" transform="translate(518.5 0)"/>
     <use xlink:href="#DejaVuSans-4f" transform="translate(573.484375 0)"/>
     <use xlink:href="#DejaVuSans-52" transform="translate(601.265625 0)"/>
     <use xlink:href="#DejaVuSans-51" transform="translate(662.453125 0)"/>
     <use xlink:href="#DejaVuSans-48" transform="translate(725.828125 0)"/>
     <use xlink:href="#DejaVuSans-3" transform="translate(787.359375 0)"/>
     <use xlink:href="#DejaVuSans-55" transform="translate(819.140625 0)"/>
     <use xlink:href="#DejaVuSans-48" transform="translate(858.046875 0)"/>
     <use xlink:href="#DejaVuSans-44" transform="translate(919.578125 0)"/>
     <use xlink:href="#DejaVuSans-46" transform="translate(980.859375 0)"/>
     <use xlink:href="#DejaVuSans-4b" transform="translate(1035.84375 0)"/>
     <use xlink:href="#DejaVuSans-48" transform="translate(1099.21875 0)"/>
     <use xlink:href="#DejaVuSans-47" transform="translate(1160.75 0)"/>
     <use xlink:href="#DejaVuSans-3" transform="translate(1224.234375 0)"/>
     <use xlink:href="#DejaVuSans-4f" transform="translate(1256.015625 0)"/>
     <use xlink:href="#DejaVuSans-4c" transform="translate(1283.796875 0)"/>
     <use xlink:href="#DejaVuSans-51" transform="translate(1311.578125 0)"/>
     <use xlink:href="#DejaVuSans-57" transform="translate(1374.953125 0)"/>
     <use xlink:href="#DejaVuSans-3" transform="translate(1414.15625 0)"/>
     <use xlink:href="#DejaVuSans-44" transform="translate(1445.9375 0)"/>
     <use xlink:href="#DejaVuSans-51" transform="translate(1507.21875 0)"/>
     <use xlink:href="#DejaVuSans-47" transform="translate(1570.59375 0)"/>
     <use xlink:href="#DejaVuSans-3" transform="translate(1634.078125 0)"/>
     <use xlink:href="#DejaVuSans-46" transform="translate(1665.859375 0)"/>
     <use xlink:href="#DejaVuSans-52" transform="translate(1720.84375 0)"/>
     <use xlink:href="#DejaVuSans-50" transform="translate(1782.03125 0)"/>
     <use xlink:href="#DejaVuSans-53" transform="translate(1879.4375 0)"/>
     <use xlink:href="#DejaVuSans-4c" transform="translate(1942.921875 0)"/>
     <use xlink:href="#DejaVuSans-4f" transform="translate(1970.703125 0)"/>
     <use xlink:href="#DejaVuSans-48" transform="translate(1998.484375 0)"/>
     <use xlink:href="#DejaVuSans-3" transform="translate(2060.015625 0)"/>
     <use xlink:href="#DejaVuSans-46" transform="translate(2091.796875 0)"/>
     <use xlink:href="#DejaVuSans-4b" transform="translate(2146.78125 0)"/>
     <use xlink:href="#DejaVuSans-48" transform="translate(2210.15625 0)"/>
     <use xlink:href="#DejaVuSans-46" transform="translate(2271.6875 0)"/>
     <use xlink:href="#DejaVuSans-4e" transform="translate(2326.671875 0)"/>
     <use xlink:href="#DejaVuSans-56" transform="translate(2384.578125 0)"/>
     <use xlink:href="#DejaVuSans-f" transform="translate(2436.671875 0)"/>
     <use xlink:href="#DejaVuSans-3" transform="translate(2468.453125 0)"/>
     <use xlink:href="#DejaVuSans-45" transform="translate(2500.234375 0)"/>
     <use xlink:href="#DejaVuSans-58" transform="translate(2563.71875 0)"/>
     <use xlink:href="#DejaVuSans-57" transform="translate(2627.09375 0)"/>
     <use xlink:href="#DejaVuSans-3" transform="translate(2666.296875 0)"/>
     <use xlink:href="#DejaVuSans-53" transform="translate(2698.078125 0)"/>
     <use xlink:href="#DejaVuSans-5c" transform="translate(2761.5625 0)"/>
     <use xlink:href="#DejaVuSans-57" transform="translate(2820.75 0)"/>
     <use xlink:href="#DejaVuSans-48" transform="translate(2859.953125 0)"/>
     <use xlink:href="#DejaVuSans-56" transform="translate(2921.484375 0)"/>
     <use xlink:href="#DejaVuSans-57" transform="translate(2973.578125 0)"/>
     <use xlink:href="#DejaVuSans-3" transform="translate(3012.78125 0)"/>
     <use xlink:href="#DejaVuSans-49" transform="translate(3044.5625 0)"/>
     <use xlink:href="#DejaVuSans-44" transform="translate(3079.765625 0)"/>
     <use xlink:href="#DejaVuSans-4c" transform="translate(3141.046875 0)"/>
     <use xlink:href="#DejaVuSans-4f" transform="translate(3168.828125 0)"/>
     <use xlink:href="#DejaVuSans-48" transform="translate(3196.609375 0)"/>
     <use xlink:href="#DejaVuSans-47" transform="translate(3258.140625 0)"/>
     <use xlink:href="#DejaVuSans-3" transform="translate(3321.625 0)"/>
     <use xlink:href="#DejaVuSans-52" transform="translate(3353.40625 0)"/>
     <use xlink:href="#DejaVuSans-51" transform="translate(3414.59375 0)"/>
     <use xlink:href="#DejaVuSans-3" transform="translate(3477.96875 0)"/>
     <use xlink:href="#DejaVuSans-45" transform="translate(3509.75 0)"/>
     <use xlink:href="#DejaVuSans-5c" transform="translate(3573.234375 0)"/>
     <use xlink:href="#DejaVuSans-57" transform="translate(3632.421875 0)"/>
     <use xlink:href="#DejaVuSans-48" transform="translate(3671.625 0)"/>
     <use xlink:href="#DejaVuSans-10" transform="translate(3733.15625 0)"/>
     <use xlink:href="#DejaVuSans-53" transform="translate(3769.234375 0)"/>
     <use xlink:href="#DejaVuSans-55" transform="translate(3832.71875 0)"/>
     <use xlink:href="#DejaVuSans-52" transform="translate(3871.625 0)"/>
     <use xlink:href="#DejaVuSans-59" transform="translate(3932.8125 0)"/>
     <use xlink:href="#DejaVuSans-48" transform="translate(3992 0)"/>
     <use xlink:href="#DejaVuSans-51" transform="translate(4053.53125 0)"/>
     <use xlink:href="#DejaVuSans-44" transform="translate(4116.90625 0)"/>
     <use xlink:href="#DejaVuSans-51" transform="translate(4178.1875 0)"/>
     <use xlink:href="#DejaVuSans-46" transform="translate(4241.5625 0)"/>
     <use xlink:href="#DejaVuSans-48" transform="translate(4296.546875 0)"/>
     <use xlink:href="#DejaVuSans-12" transform="translate(4358.078125 0)"/>
     <use xlink:href="#DejaVuSans-4b" transform="translate(4391.765625 0)"/>
     <use xlink:href="#DejaVuSans-44" transform="translate(4455.140625 0)"/>
     <use xlink:href="#DejaVuSans-56" transform="translate(4516.421875 0)"/>
     <use xlink:href="#DejaVuSans-4b" transform="translate(4568.515625 0)"/>
     <use xlink:href="#DejaVuSans-3" transform="translate(4631.890625 0)"/>
     <use xlink:href="#DejaVuSans-53" transform="translate(4663.671875 0)"/>
     <use xlink:href="#DejaVuSans-52" transform="translate(4727.15625 0)"/>
     <use xlink:href="#DejaVuSans-55" transform="translate(4788.34375 0)"/>
     <use xlink:href="#DejaVuSans-57" transform="translate(4829.453125 0)"/>
     <use xlink:href="#DejaVuSans-44" transform="translate(4868.65625 0)"/>
     <use xlink:href="#DejaVuSans-45" transform="translate(4929.9375 0)"/>
     <use xlink:href="#DejaVuSans-4c" transform="translate(4993.421875 0)"/>
     <use xlink:href="#DejaVuSans-4f" transform="translate(5021.203125 0)"/>
     <use xlink:href="#DejaVuSans-4c" transform="translate(5048.984375 0)"/>
     <use xlink:href="#DejaVuSans-57" transform="translate(5076.765625 0)"/>
     <use xlink:href="#DejaVuSans-5c" transform="translate(5115.96875 0)"/>
     <use xlink:href="#DejaVuSans-11" transform="translate(5160.90625 0)"/>
    </g>
   </g>
   <g id="text_3">
    <!-- Pytest -->
    <g style="fill: #17202a" transform="translate(61.605 102.267609) scale(0.102 -0.102)">
     <defs>
      <path id="DejaVuSans-Bold-56" d="M 3272 3391
L 3272 2541
Q 2913 2691 2578 2766
Q 2244 2841 1947 2841
Q 1628 2841 1473 2761
Q 1319 2681 1319 2516
Q 1319 2381 1436 2309
Q 1553 2238 1856 2203
L 2053 2175
Q 2913 2066 3209 1816
Q 3506 1566 3506 1031
Q 3506 472 3093 190
Q 2681 -91 1863 -91
Q 1516 -91 1145 -36
Q 775 19 384 128
L 384 978
Q 719 816 1070 734
Q 1422 653 1784 653
Q 2113 653 2278 743
Q 2444 834 2444 1013
Q 2444 1163 2330 1236
Q 2216 1309 1875 1350
L 1678 1375
Q 931 1469 631 1722
Q 331 1975 331 2491
Q 331 3047 712 3315
Q 1094 3584 1881 3584
Q 2191 3584 2531 3537
Q 2872 3491 3272 3391
z
" transform="scale(0.015625)"/>
     </defs>
     <use xlink:href="#DejaVuSans-Bold-33"/>
     <use xlink:href="#DejaVuSans-Bold-5c" transform="translate(75.15625 0)"/>
     <use xlink:href="#DejaVuSans-Bold-57" transform="translate(140.34375 0)"/>
     <use xlink:href="#DejaVuSans-Bold-48" transform="translate(188.140625 0)"/>
     <use xlink:href="#DejaVuSans-Bold-56" transform="translate(255.96875 0)"/>
     <use xlink:href="#DejaVuSans-Bold-57" transform="translate(315.484375 0)"/>
    </g>
   </g>
   <g id="text_4">
    <!-- 3 failed, 246 passed, 667 subtests passed -->
    <g style="fill: #17202a" transform="translate(61.605 119.84526) scale(0.08 -0.08)">
     <defs>
      <path id="DejaVuSans-16" d="M 2597 2516
Q 3050 2419 3304 2112
Q 3559 1806 3559 1356
Q 3559 666 3084 287
Q 2609 -91 1734 -91
Q 1441 -91 1130 -33
Q 819 25 488 141
L 488 750
Q 750 597 1062 519
Q 1375 441 1716 441
Q 2309 441 2620 675
Q 2931 909 2931 1356
Q 2931 1769 2642 2001
Q 2353 2234 1838 2234
L 1294 2234
L 1294 2753
L 1863 2753
Q 2328 2753 2575 2939
Q 2822 3125 2822 3475
Q 2822 3834 2567 4026
Q 2313 4219 1838 4219
Q 1578 4219 1281 4162
Q 984 4106 628 3988
L 628 4550
Q 988 4650 1302 4700
Q 1616 4750 1894 4750
Q 2613 4750 3031 4423
Q 3450 4097 3450 3541
Q 3450 3153 3228 2886
Q 3006 2619 2597 2516
z
" transform="scale(0.015625)"/>
      <path id="DejaVuSans-15" d="M 1228 531
L 3431 531
L 3431 0
L 469 0
L 469 531
Q 828 903 1448 1529
Q 2069 2156 2228 2338
Q 2531 2678 2651 2914
Q 2772 3150 2772 3378
Q 2772 3750 2511 3984
Q 2250 4219 1831 4219
Q 1534 4219 1204 4116
Q 875 4013 500 3803
L 500 4441
Q 881 4594 1212 4672
Q 1544 4750 1819 4750
Q 2544 4750 2975 4387
Q 3406 4025 3406 3419
Q 3406 3131 3298 2873
Q 3191 2616 2906 2266
Q 2828 2175 2409 1742
Q 1991 1309 1228 531
z
" transform="scale(0.015625)"/>
      <path id="DejaVuSans-17" d="M 2419 4116
L 825 1625
L 2419 1625
L 2419 4116
z
M 2253 4666
L 3047 4666
L 3047 1625
L 3713 1625
L 3713 1100
L 3047 1100
L 3047 0
L 2419 0
L 2419 1100
L 313 1100
L 313 1709
L 2253 4666
z
" transform="scale(0.015625)"/>
      <path id="DejaVuSans-19" d="M 2113 2584
Q 1688 2584 1439 2293
Q 1191 2003 1191 1497
Q 1191 994 1439 701
Q 1688 409 2113 409
Q 2538 409 2786 701
Q 3034 994 3034 1497
Q 3034 2003 2786 2293
Q 2538 2584 2113 2584
z
M 3366 4563
L 3366 3988
Q 3128 4100 2886 4159
Q 2644 4219 2406 4219
Q 1781 4219 1451 3797
Q 1122 3375 1075 2522
Q 1259 2794 1537 2939
Q 1816 3084 2150 3084
Q 2853 3084 3261 2657
Q 3669 2231 3669 1497
Q 3669 778 3244 343
Q 2819 -91 2113 -91
Q 1303 -91 875 529
Q 447 1150 447 2328
Q 447 3434 972 4092
Q 1497 4750 2381 4750
Q 2619 4750 2861 4703
Q 3103 4656 3366 4563
z
" transform="scale(0.015625)"/>
      <path id="DejaVuSans-1a" d="M 525 4666
L 3525 4666
L 3525 4397
L 1831 0
L 1172 0
L 2766 4134
L 525 4134
L 525 4666
z
" transform="scale(0.015625)"/>
     </defs>
     <use xlink:href="#DejaVuSans-16"/>
     <use xlink:href="#DejaVuSans-3" transform="translate(63.625 0)"/>
     <use xlink:href="#DejaVuSans-49" transform="translate(95.40625 0)"/>
     <use xlink:href="#DejaVuSans-44" transform="translate(130.609375 0)"/>
     <use xlink:href="#DejaVuSans-4c" transform="translate(191.890625 0)"/>
     <use xlink:href="#DejaVuSans-4f" transform="translate(219.671875 0)"/>
     <use xlink:href="#DejaVuSans-48" transform="translate(247.453125 0)"/>
     <use xlink:href="#DejaVuSans-47" transform="translate(308.984375 0)"/>
     <use xlink:href="#DejaVuSans-f" transform="translate(372.46875 0)"/>
     <use xlink:href="#DejaVuSans-3" transform="translate(404.25 0)"/>
     <use xlink:href="#DejaVuSans-15" transform="translate(436.03125 0)"/>
     <use xlink:href="#DejaVuSans-17" transform="translate(499.65625 0)"/>
     <use xlink:href="#DejaVuSans-19" transform="translate(563.28125 0)"/>
     <use xlink:href="#DejaVuSans-3" transform="translate(626.90625 0)"/>
     <use xlink:href="#DejaVuSans-53" transform="translate(658.6875 0)"/>
     <use xlink:href="#DejaVuSans-44" transform="translate(722.171875 0)"/>
     <use xlink:href="#DejaVuSans-56" transform="translate(783.453125 0)"/>
     <use xlink:href="#DejaVuSans-56" transform="translate(835.546875 0)"/>
     <use xlink:href="#DejaVuSans-48" transform="translate(887.640625 0)"/>
     <use xlink:href="#DejaVuSans-47" transform="translate(949.171875 0)"/>
     <use xlink:href="#DejaVuSans-f" transform="translate(1012.65625 0)"/>
     <use xlink:href="#DejaVuSans-3" transform="translate(1044.4375 0)"/>
     <use xlink:href="#DejaVuSans-19" transform="translate(1076.21875 0)"/>
     <use xlink:href="#DejaVuSans-19" transform="translate(1139.84375 0)"/>
     <use xlink:href="#DejaVuSans-1a" transform="translate(1203.46875 0)"/>
     <use xlink:href="#DejaVuSans-3" transform="translate(1267.09375 0)"/>
     <use xlink:href="#DejaVuSans-56" transform="translate(1298.875 0)"/>
     <use xlink:href="#DejaVuSans-58" transform="translate(1350.96875 0)"/>
     <use xlink:href="#DejaVuSans-45" transform="translate(1414.34375 0)"/>
     <use xlink:href="#DejaVuSans-57" transform="translate(1477.828125 0)"/>
     <use xlink:href="#DejaVuSans-48" transform="translate(1517.03125 0)"/>
     <use xlink:href="#DejaVuSans-56" transform="translate(1578.5625 0)"/>
     <use xlink:href="#DejaVuSans-57" transform="translate(1630.65625 0)"/>
     <use xlink:href="#DejaVuSans-56" transform="translate(1669.859375 0)"/>
     <use xlink:href="#DejaVuSans-3" transform="translate(1721.953125 0)"/>
     <use xlink:href="#DejaVuSans-53" transform="translate(1753.734375 0)"/>
     <use xlink:href="#DejaVuSans-44" transform="translate(1817.21875 0)"/>
     <use xlink:href="#DejaVuSans-56" transform="translate(1878.5 0)"/>
     <use xlink:href="#DejaVuSans-56" transform="translate(1930.59375 0)"/>
     <use xlink:href="#DejaVuSans-48" transform="translate(1982.6875 0)"/>
     <use xlink:href="#DejaVuSans-47" transform="translate(2044.21875 0)"/>
    </g>
    <!--  -->
    <g style="fill: #17202a" transform="translate(61.605 127.39776) scale(0.08 -0.08)"/>
    <!-- Release readiness: STOP. -->
    <g style="fill: #17202a" transform="translate(61.605 140.14026) scale(0.08 -0.08)">
     <defs>
      <path id="DejaVuSans-35" d="M 2841 2188
Q 3044 2119 3236 1894
Q 3428 1669 3622 1275
L 4263 0
L 3584 0
L 2988 1197
Q 2756 1666 2539 1819
Q 2322 1972 1947 1972
L 1259 1972
L 1259 0
L 628 0
L 628 4666
L 2053 4666
Q 2853 4666 3247 4331
Q 3641 3997 3641 3322
Q 3641 2881 3436 2590
Q 3231 2300 2841 2188
z
M 1259 4147
L 1259 2491
L 2053 2491
Q 2509 2491 2742 2702
Q 2975 2913 2975 3322
Q 2975 3731 2742 3939
Q 2509 4147 2053 4147
L 1259 4147
z
" transform="scale(0.015625)"/>
      <path id="DejaVuSans-1d" d="M 750 794
L 1409 794
L 1409 0
L 750 0
L 750 794
z
M 750 3309
L 1409 3309
L 1409 2516
L 750 2516
L 750 3309
z
" transform="scale(0.015625)"/>
      <path id="DejaVuSans-36" d="M 3425 4513
L 3425 3897
Q 3066 4069 2747 4153
Q 2428 4238 2131 4238
Q 1616 4238 1336 4038
Q 1056 3838 1056 3469
Q 1056 3159 1242 3001
Q 1428 2844 1947 2747
L 2328 2669
Q 3034 2534 3370 2195
Q 3706 1856 3706 1288
Q 3706 609 3251 259
Q 2797 -91 1919 -91
Q 1588 -91 1214 -16
Q 841 59 441 206
L 441 856
Q 825 641 1194 531
Q 1563 422 1919 422
Q 2459 422 2753 634
Q 3047 847 3047 1241
Q 3047 1584 2836 1778
Q 2625 1972 2144 2069
L 1759 2144
Q 1053 2284 737 2584
Q 422 2884 422 3419
Q 422 4038 858 4394
Q 1294 4750 2059 4750
Q 2388 4750 2728 4690
Q 3069 4631 3425 4513
z
" transform="scale(0.015625)"/>
      <path id="DejaVuSans-32" d="M 2522 4238
Q 1834 4238 1429 3725
Q 1025 3213 1025 2328
Q 1025 1447 1429 934
Q 1834 422 2522 422
Q 3209 422 3611 934
Q 4013 1447 4013 2328
Q 4013 3213 3611 3725
Q 3209 4238 2522 4238
z
M 2522 4750
Q 3503 4750 4090 4092
Q 4678 3434 4678 2328
Q 4678 1225 4090 567
Q 3503 -91 2522 -91
Q 1538 -91 948 565
Q 359 1222 359 2328
Q 359 3434 948 4092
Q 1538 4750 2522 4750
z
" transform="scale(0.015625)"/>
      <path id="DejaVuSans-33" d="M 1259 4147
L 1259 2394
L 2053 2394
Q 2494 2394 2734 2622
Q 2975 2850 2975 3272
Q 2975 3691 2734 3919
Q 2494 4147 2053 4147
L 1259 4147
z
M 628 4666
L 2053 4666
Q 2838 4666 3239 4311
Q 3641 3956 3641 3272
Q 3641 2581 3239 2228
Q 2838 1875 2053 1875
L 1259 1875
L 1259 0
L 628 0
L 628 4666
z
" transform="scale(0.015625)"/>
     </defs>
     <use xlink:href="#DejaVuSans-35"/>
     <use xlink:href="#DejaVuSans-48" transform="translate(65 0)"/>
     <use xlink:href="#DejaVuSans-4f" transform="translate(126.53125 0)"/>
     <use xlink:href="#DejaVuSans-48" transform="translate(154.3125 0)"/>
     <use xlink:href="#DejaVuSans-44" transform="translate(215.84375 0)"/>
     <use xlink:href="#DejaVuSans-56" transform="translate(277.125 0)"/>
     <use xlink:href="#DejaVuSans-48" transform="translate(329.21875 0)"/>
     <use xlink:href="#DejaVuSans-3" transform="translate(390.75 0)"/>
     <use xlink:href="#DejaVuSans-55" transform="translate(422.53125 0)"/>
     <use xlink:href="#DejaVuSans-48" transform="translate(461.4375 0)"/>
     <use xlink:href="#DejaVuSans-44" transform="translate(522.96875 0)"/>
     <use xlink:href="#DejaVuSans-47" transform="translate(584.25 0)"/>
     <use xlink:href="#DejaVuSans-4c" transform="translate(647.734375 0)"/>
     <use xlink:href="#DejaVuSans-51" transform="translate(675.515625 0)"/>
     <use xlink:href="#DejaVuSans-48" transform="translate(738.890625 0)"/>
     <use xlink:href="#DejaVuSans-56" transform="translate(800.421875 0)"/>
     <use xlink:href="#DejaVuSans-56" transform="translate(852.515625 0)"/>
     <use xlink:href="#DejaVuSans-1d" transform="translate(904.609375 0)"/>
     <use xlink:href="#DejaVuSans-3" transform="translate(938.296875 0)"/>
     <use xlink:href="#DejaVuSans-36" transform="translate(970.078125 0)"/>
     <use xlink:href="#DejaVuSans-37" transform="translate(1033.5625 0)"/>
     <use xlink:href="#DejaVuSans-32" transform="translate(1094.640625 0)"/>
     <use xlink:href="#DejaVuSans-33" transform="translate(1173.359375 0)"/>
     <use xlink:href="#DejaVuSans-11" transform="translate(1218.078125 0)"/>
    </g>
   </g>
   <g id="text_5">
    <!-- Ruff -->
    <g style="fill: #17202a" transform="translate(284.805 102.268406) scale(0.102 -0.102)">
     <defs>
      <path id="DejaVuSans-Bold-35" d="M 2297 2597
Q 2675 2597 2839 2737
Q 3003 2878 3003 3200
Q 3003 3519 2839 3656
Q 2675 3794 2297 3794
L 1791 3794
L 1791 2597
L 2297 2597
z
M 1791 1766
L 1791 0
L 588 0
L 588 4666
L 2425 4666
Q 3347 4666 3776 4356
Q 4206 4047 4206 3378
Q 4206 2916 3982 2619
Q 3759 2322 3309 2181
Q 3556 2125 3751 1926
Q 3947 1728 4147 1325
L 4800 0
L 3519 0
L 2950 1159
Q 2778 1509 2601 1637
Q 2425 1766 2131 1766
L 1791 1766
z
" transform="scale(0.015625)"/>
      <path id="DejaVuSans-Bold-13aa" d="M 2841 4863
L 2841 4128
L 2222 4128
Q 1984 4128 1891 4044
Q 1797 3956 1797 3744
L 1797 3500
L 3078 3500
L 3078 3744
Q 3078 4316 3397 4588
Q 3716 4863 4384 4863
L 5241 4863
L 5241 4128
L 4622 4128
Q 4384 4128 4291 4044
Q 4197 3956 4197 3744
L 4197 3500
L 5153 3500
L 5153 2700
L 4197 2700
L 4197 0
L 3078 0
L 3078 2700
L 1797 2700
L 1797 0
L 678 0
L 678 2700
L 122 2700
L 122 3500
L 678 3500
L 678 3744
Q 678 4316 997 4588
Q 1316 4863 1984 4863
L 2841 4863
z
" transform="scale(0.015625)"/>
     </defs>
     <use xlink:href="#DejaVuSans-Bold-35"/>
     <use xlink:href="#DejaVuSans-Bold-58" transform="translate(77 0)"/>
     <use xlink:href="#DejaVuSans-Bold-13aa" transform="translate(148.1875 0)"/>
    </g>
   </g>
   <g id="text_6">
    <!-- All checks passed. -->
    <g style="fill: #17202a" transform="translate(284.805 119.84526) scale(0.08 -0.08)">
     <defs>
      <path id="DejaVuSans-24" d="M 2188 4044
L 1331 1722
L 3047 1722
L 2188 4044
z
M 1831 4666
L 2547 4666
L 4325 0
L 3669 0
L 3244 1197
L 1141 1197
L 716 0
L 50 0
L 1831 4666
z
" transform="scale(0.015625)"/>
     </defs>
     <use xlink:href="#DejaVuSans-24"/>
     <use xlink:href="#DejaVuSans-4f" transform="translate(68.40625 0)"/>
     <use xlink:href="#DejaVuSans-4f" transform="translate(96.1875 0)"/>
     <use xlink:href="#DejaVuSans-3" transform="translate(123.96875 0)"/>
     <use xlink:href="#DejaVuSans-46" transform="translate(155.75 0)"/>
     <use xlink:href="#DejaVuSans-4b" transform="translate(210.734375 0)"/>
     <use xlink:href="#DejaVuSans-48" transform="translate(274.109375 0)"/>
     <use xlink:href="#DejaVuSans-46" transform="translate(335.640625 0)"/>
     <use xlink:href="#DejaVuSans-4e" transform="translate(390.625 0)"/>
     <use xlink:href="#DejaVuSans-56" transform="translate(448.53125 0)"/>
     <use xlink:href="#DejaVuSans-3" transform="translate(500.625 0)"/>
     <use xlink:href="#DejaVuSans-53" transform="translate(532.40625 0)"/>
     <use xlink:href="#DejaVuSans-44" transform="translate(595.890625 0)"/>
     <use xlink:href="#DejaVuSans-56" transform="translate(657.171875 0)"/>
     <use xlink:href="#DejaVuSans-56" transform="translate(709.265625 0)"/>
     <use xlink:href="#DejaVuSans-48" transform="translate(761.359375 0)"/>
     <use xlink:href="#DejaVuSans-47" transform="translate(822.890625 0)"/>
     <use xlink:href="#DejaVuSans-11" transform="translate(886.375 0)"/>
    </g>
    <!--  -->
    <g style="fill: #17202a" transform="translate(284.805 127.39776) scale(0.08 -0.08)"/>
    <!-- Lint is not the blocker. -->
    <g style="fill: #17202a" transform="translate(284.805 140.14026) scale(0.08 -0.08)">
     <defs>
      <path id="DejaVuSans-2f" d="M 628 4666
L 1259 4666
L 1259 531
L 3531 531
L 3531 0
L 628 0
L 628 4666
z
" transform="scale(0.015625)"/>
     </defs>
     <use xlink:href="#DejaVuSans-2f"/>
     <use xlink:href="#DejaVuSans-4c" transform="translate(55.71875 0)"/>
     <use xlink:href="#DejaVuSans-51" transform="translate(83.5 0)"/>
     <use xlink:href="#DejaVuSans-57" transform="translate(146.875 0)"/>
     <use xlink:href="#DejaVuSans-3" transform="translate(186.078125 0)"/>
     <use xlink:href="#DejaVuSans-4c" transform="translate(217.859375 0)"/>
     <use xlink:href="#DejaVuSans-56" transform="translate(245.640625 0)"/>
     <use xlink:href="#DejaVuSans-3" transform="translate(297.734375 0)"/>
     <use xlink:href="#DejaVuSans-51" transform="translate(329.515625 0)"/>
     <use xlink:href="#DejaVuSans-52" transform="translate(392.890625 0)"/>
     <use xlink:href="#DejaVuSans-57" transform="translate(454.078125 0)"/>
     <use xlink:href="#DejaVuSans-3" transform="translate(493.28125 0)"/>
     <use xlink:href="#DejaVuSans-57" transform="translate(525.0625 0)"/>
     <use xlink:href="#DejaVuSans-4b" transform="translate(564.265625 0)"/>
     <use xlink:href="#DejaVuSans-48" transform="translate(627.640625 0)"/>
     <use xlink:href="#DejaVuSans-3" transform="translate(689.171875 0)"/>
     <use xlink:href="#DejaVuSans-45" transform="translate(720.953125 0)"/>
     <use xlink:href="#DejaVuSans-4f" transform="translate(784.4375 0)"/>
     <use xlink:href="#DejaVuSans-52" transform="translate(812.21875 0)"/>
     <use xlink:href="#DejaVuSans-46" transform="translate(873.40625 0)"/>
     <use xlink:href="#DejaVuSans-4e" transform="translate(928.390625 0)"/>
     <use xlink:href="#DejaVuSans-48" transform="translate(982.734375 0)"/>
     <use xlink:href="#DejaVuSans-55" transform="translate(1044.265625 0)"/>
     <use xlink:href="#DejaVuSans-11" transform="translate(1076.203125 0)"/>
    </g>
   </g>
   <g id="text_7">
    <!-- Compile -->
    <g style="fill: #17202a" transform="translate(508.005 102.268406) scale(0.102 -0.102)">
     <defs>
      <path id="DejaVuSans-Bold-50" d="M 3781 2919
Q 3994 3244 4286 3414
Q 4578 3584 4928 3584
Q 5531 3584 5847 3212
Q 6163 2841 6163 2131
L 6163 0
L 5038 0
L 5038 1825
Q 5041 1866 5042 1909
Q 5044 1953 5044 2034
Q 5044 2406 4934 2573
Q 4825 2741 4581 2741
Q 4263 2741 4089 2478
Q 3916 2216 3909 1719
L 3909 0
L 2784 0
L 2784 1825
Q 2784 2406 2684 2573
Q 2584 2741 2328 2741
Q 2006 2741 1831 2477
Q 1656 2213 1656 1722
L 1656 0
L 531 0
L 531 3500
L 1656 3500
L 1656 2988
Q 1863 3284 2130 3434
Q 2397 3584 2719 3584
Q 3081 3584 3359 3409
Q 3638 3234 3781 2919
z
" transform="scale(0.015625)"/>
     </defs>
     <use xlink:href="#DejaVuSans-Bold-26"/>
     <use xlink:href="#DejaVuSans-Bold-52" transform="translate(73.390625 0)"/>
     <use xlink:href="#DejaVuSans-Bold-50" transform="translate(142.09375 0)"/>
     <use xlink:href="#DejaVuSans-Bold-53" transform="translate(246.296875 0)"/>
     <use xlink:href="#DejaVuSans-Bold-4c" transform="translate(317.875 0)"/>
     <use xlink:href="#DejaVuSans-Bold-4f" transform="translate(352.15625 0)"/>
     <use xlink:href="#DejaVuSans-Bold-48" transform="translate(386.4375 0)"/>
    </g>
   </g>
   <g id="text_8">
    <!-- compileall passed. -->
    <g style="fill: #17202a" transform="translate(508.005 119.84526) scale(0.08 -0.08)">
     <use xlink:href="#DejaVuSans-46"/>
     <use xlink:href="#DejaVuSans-52" transform="translate(54.984375 0)"/>
     <use xlink:href="#DejaVuSans-50" transform="translate(116.171875 0)"/>
     <use xlink:href="#DejaVuSans-53" transform="translate(213.578125 0)"/>
     <use xlink:href="#DejaVuSans-4c" transform="translate(277.0625 0)"/>
     <use xlink:href="#DejaVuSans-4f" transform="translate(304.84375 0)"/>
     <use xlink:href="#DejaVuSans-48" transform="translate(332.625 0)"/>
     <use xlink:href="#DejaVuSans-44" transform="translate(394.15625 0)"/>
     <use xlink:href="#DejaVuSans-4f" transform="translate(455.4375 0)"/>
     <use xlink:href="#DejaVuSans-4f" transform="translate(483.21875 0)"/>
     <use xlink:href="#DejaVuSans-3" transform="translate(511 0)"/>
     <use xlink:href="#DejaVuSans-53" transform="translate(542.78125 0)"/>
     <use xlink:href="#DejaVuSans-44" transform="translate(606.265625 0)"/>
     <use xlink:href="#DejaVuSans-56" transform="translate(667.546875 0)"/>
     <use xlink:href="#DejaVuSans-56" transform="translate(719.640625 0)"/>
     <use xlink:href="#DejaVuSans-48" transform="translate(771.734375 0)"/>
     <use xlink:href="#DejaVuSans-47" transform="translate(833.265625 0)"/>
     <use xlink:href="#DejaVuSans-11" transform="translate(896.75 0)"/>
    </g>
    <!--  -->
    <g style="fill: #17202a" transform="translate(508.005 127.39776) scale(0.08 -0.08)"/>
    <!-- Python syntax is not -->
    <g style="fill: #17202a" transform="translate(508.005 139.36526) scale(0.08 -0.08)">
     <defs>
      <path id="DejaVuSans-5b" d="M 3513 3500
L 2247 1797
L 3578 0
L 2900 0
L 1881 1375
L 863 0
L 184 0
L 1544 1831
L 300 3500
L 978 3500
L 1906 2253
L 2834 3500
L 3513 3500
z
" transform="scale(0.015625)"/>
     </defs>
     <use xlink:href="#DejaVuSans-33"/>
     <use xlink:href="#DejaVuSans-5c" transform="translate(60.296875 0)"/>
     <use xlink:href="#DejaVuSans-57" transform="translate(119.484375 0)"/>
     <use xlink:href="#DejaVuSans-4b" transform="translate(158.6875 0)"/>
     <use xlink:href="#DejaVuSans-52" transform="translate(222.0625 0)"/>
     <use xlink:href="#DejaVuSans-51" transform="translate(283.25 0)"/>
     <use xlink:href="#DejaVuSans-3" transform="translate(346.625 0)"/>
     <use xlink:href="#DejaVuSans-56" transform="translate(378.40625 0)"/>
     <use xlink:href="#DejaVuSans-5c" transform="translate(430.5 0)"/>
     <use xlink:href="#DejaVuSans-51" transform="translate(489.6875 0)"/>
     <use xlink:href="#DejaVuSans-57" transform="translate(553.0625 0)"/>
     <use xlink:href="#DejaVuSans-44" transform="translate(592.265625 0)"/>
     <use xlink:href="#DejaVuSans-5b" transform="translate(653.546875 0)"/>
     <use xlink:href="#DejaVuSans-3" transform="translate(712.734375 0)"/>
     <use xlink:href="#DejaVuSans-4c" transform="translate(744.515625 0)"/>
     <use xlink:href="#DejaVuSans-56" transform="translate(772.296875 0)"/>
     <use xlink:href="#DejaVuSans-3" transform="translate(824.390625 0)"/>
     <use xlink:href="#DejaVuSans-51" transform="translate(856.171875 0)"/>
     <use xlink:href="#DejaVuSans-52" transform="translate(919.546875 0)"/>
     <use xlink:href="#DejaVuSans-57" transform="translate(980.734375 0)"/>
    </g>
    <!-- the blocker. -->
    <g style="fill: #17202a" transform="translate(508.005 149.90026) scale(0.08 -0.08)">
     <use xlink:href="#DejaVuSans-57"/>
     <use xlink:href="#DejaVuSans-4b" transform="translate(39.203125 0)"/>
     <use xlink:href="#DejaVuSans-48" transform="translate(102.578125 0)"/>
     <use xlink:href="#DejaVuSans-3" transform="translate(164.109375 0)"/>
     <use xlink:href="#DejaVuSans-45" transform="translate(195.890625 0)"/>
     <use xlink:href="#DejaVuSans-4f" transform="translate(259.375 0)"/>
     <use xlink:href="#DejaVuSans-52" transform="translate(287.15625 0)"/>
     <use xlink:href="#DejaVuSans-46" transform="translate(348.34375 0)"/>
     <use xlink:href="#DejaVuSans-4e" transform="translate(403.328125 0)"/>
     <use xlink:href="#DejaVuSans-48" transform="translate(457.671875 0)"/>
     <use xlink:href="#DejaVuSans-55" transform="translate(519.203125 0)"/>
     <use xlink:href="#DejaVuSans-11" transform="translate(551.140625 0)"/>
    </g>
   </g>
   <g id="text_9">
    <!-- Root cause class -->
    <g style="fill: #17202a" transform="translate(110.43 222.573206) scale(0.102 -0.102)">
     <use xlink:href="#DejaVuSans-Bold-35"/>
     <use xlink:href="#DejaVuSans-Bold-52" transform="translate(77 0)"/>
     <use xlink:href="#DejaVuSans-Bold-52" transform="translate(145.703125 0)"/>
     <use xlink:href="#DejaVuSans-Bold-57" transform="translate(214.40625 0)"/>
     <use xlink:href="#DejaVuSans-Bold-3" transform="translate(262.203125 0)"/>
     <use xlink:href="#DejaVuSans-Bold-46" transform="translate(297.015625 0)"/>
     <use xlink:href="#DejaVuSans-Bold-44" transform="translate(356.296875 0)"/>
     <use xlink:href="#DejaVuSans-Bold-58" transform="translate(423.78125 0)"/>
     <use xlink:href="#DejaVuSans-Bold-56" transform="translate(494.96875 0)"/>
     <use xlink:href="#DejaVuSans-Bold-48" transform="translate(554.484375 0)"/>
     <use xlink:href="#DejaVuSans-Bold-3" transform="translate(622.3125 0)"/>
     <use xlink:href="#DejaVuSans-Bold-46" transform="translate(657.125 0)"/>
     <use xlink:href="#DejaVuSans-Bold-4f" transform="translate(716.40625 0)"/>
     <use xlink:href="#DejaVuSans-Bold-44" transform="translate(750.6875 0)"/>
     <use xlink:href="#DejaVuSans-Bold-56" transform="translate(818.171875 0)"/>
     <use xlink:href="#DejaVuSans-Bold-56" transform="translate(877.6875 0)"/>
    </g>
   </g>
   <g id="text_10">
    <!-- Frozen CSV and generator hashes -->
    <g style="fill: #17202a" transform="translate(110.43 240.15006) scale(0.08 -0.08)">
     <defs>
      <path id="DejaVuSans-29" d="M 628 4666
L 3309 4666
L 3309 4134
L 1259 4134
L 1259 2759
L 3109 2759
L 3109 2228
L 1259 2228
L 1259 0
L 628 0
L 628 4666
z
" transform="scale(0.015625)"/>
      <path id="DejaVuSans-5d" d="M 353 3500
L 3084 3500
L 3084 2975
L 922 459
L 3084 459
L 3084 0
L 275 0
L 275 525
L 2438 3041
L 353 3041
L 353 3500
z
" transform="scale(0.015625)"/>
      <path id="DejaVuSans-26" d="M 4122 4306
L 4122 3641
Q 3803 3938 3442 4084
Q 3081 4231 2675 4231
Q 1875 4231 1450 3742
Q 1025 3253 1025 2328
Q 1025 1406 1450 917
Q 1875 428 2675 428
Q 3081 428 3442 575
Q 3803 722 4122 1019
L 4122 359
Q 3791 134 3420 21
Q 3050 -91 2638 -91
Q 1578 -91 968 557
Q 359 1206 359 2328
Q 359 3453 968 4101
Q 1578 4750 2638 4750
Q 3056 4750 3426 4639
Q 3797 4528 4122 4306
z
" transform="scale(0.015625)"/>
      <path id="DejaVuSans-39" d="M 1831 0
L 50 4666
L 709 4666
L 2188 738
L 3669 4666
L 4325 4666
L 2547 0
L 1831 0
z
" transform="scale(0.015625)"/>
      <path id="DejaVuSans-4a" d="M 2906 1791
Q 2906 2416 2648 2759
Q 2391 3103 1925 3103
Q 1463 3103 1205 2759
Q 947 2416 947 1791
Q 947 1169 1205 825
Q 1463 481 1925 481
Q 2391 481 2648 825
Q 2906 1169 2906 1791
z
M 3481 434
Q 3481 -459 3084 -895
Q 2688 -1331 1869 -1331
Q 1566 -1331 1297 -1286
Q 1028 -1241 775 -1147
L 775 -588
Q 1028 -725 1275 -790
Q 1522 -856 1778 -856
Q 2344 -856 2625 -561
Q 2906 -266 2906 331
L 2906 616
Q 2728 306 2450 153
Q 2172 0 1784 0
Q 1141 0 747 490
Q 353 981 353 1791
Q 353 2603 747 3093
Q 1141 3584 1784 3584
Q 2172 3584 2450 3431
Q 2728 3278 2906 2969
L 2906 3500
L 3481 3500
L 3481 434
z
" transform="scale(0.015625)"/>
     </defs>
     <use xlink:href="#DejaVuSans-29"/>
     <use xlink:href="#DejaVuSans-55" transform="translate(50.234375 0)"/>
     <use xlink:href="#DejaVuSans-52" transform="translate(89.140625 0)"/>
     <use xlink:href="#DejaVuSans-5d" transform="translate(150.328125 0)"/>
     <use xlink:href="#DejaVuSans-48" transform="translate(202.8125 0)"/>
     <use xlink:href="#DejaVuSans-51" transform="translate(264.34375 0)"/>
     <use xlink:href="#DejaVuSans-3" transform="translate(327.71875 0)"/>
     <use xlink:href="#DejaVuSans-26" transform="translate(359.5 0)"/>
     <use xlink:href="#DejaVuSans-36" transform="translate(429.328125 0)"/>
     <use xlink:href="#DejaVuSans-39" transform="translate(492.8125 0)"/>
     <use xlink:href="#DejaVuSans-3" transform="translate(561.21875 0)"/>
     <use xlink:href="#DejaVuSans-44" transform="translate(593 0)"/>
     <use xlink:href="#DejaVuSans-51" transform="translate(654.28125 0)"/>
     <use xlink:href="#DejaVuSans-47" transform="translate(717.65625 0)"/>
     <use xlink:href="#DejaVuSans-3" transform="translate(781.140625 0)"/>
     <use xlink:href="#DejaVuSans-4a" transform="translate(812.921875 0)"/>
     <use xlink:href="#DejaVuSans-48" transform="translate(876.40625 0)"/>
     <use xlink:href="#DejaVuSans-51" transform="translate(937.9375 0)"/>
     <use xlink:href="#DejaVuSans-48" transform="translate(1001.3125 0)"/>
     <use xlink:href="#DejaVuSans-55" transform="translate(1062.84375 0)"/>
     <use xlink:href="#DejaVuSans-44" transform="translate(1103.953125 0)"/>
     <use xlink:href="#DejaVuSans-57" transform="translate(1165.234375 0)"/>
     <use xlink:href="#DejaVuSans-52" transform="translate(1204.4375 0)"/>
     <use xlink:href="#DejaVuSans-55" transform="translate(1265.625 0)"/>
     <use xlink:href="#DejaVuSans-3" transform="translate(1306.734375 0)"/>
     <use xlink:href="#DejaVuSans-4b" transform="translate(1338.515625 0)"/>
     <use xlink:href="#DejaVuSans-44" transform="translate(1401.890625 0)"/>
     <use xlink:href="#DejaVuSans-56" transform="translate(1463.171875 0)"/>
     <use xlink:href="#DejaVuSans-4b" transform="translate(1515.265625 0)"/>
     <use xlink:href="#DejaVuSans-48" transform="translate(1578.640625 0)"/>
     <use xlink:href="#DejaVuSans-56" transform="translate(1640.171875 0)"/>
    </g>
    <!-- are not portable under the clean -->
    <g style="fill: #17202a" transform="translate(110.43 249.91006) scale(0.08 -0.08)">
     <use xlink:href="#DejaVuSans-44"/>
     <use xlink:href="#DejaVuSans-55" transform="translate(61.28125 0)"/>
     <use xlink:href="#DejaVuSans-48" transform="translate(100.1875 0)"/>
     <use xlink:href="#DejaVuSans-3" transform="translate(161.71875 0)"/>
     <use xlink:href="#DejaVuSans-51" transform="translate(193.5 0)"/>
     <use xlink:href="#DejaVuSans-52" transform="translate(256.875 0)"/>
     <use xlink:href="#DejaVuSans-57" transform="translate(318.0625 0)"/>
     <use xlink:href="#DejaVuSans-3" transform="translate(357.265625 0)"/>
     <use xlink:href="#DejaVuSans-53" transform="translate(389.046875 0)"/>
     <use xlink:href="#DejaVuSans-52" transform="translate(452.53125 0)"/>
     <use xlink:href="#DejaVuSans-55" transform="translate(513.71875 0)"/>
     <use xlink:href="#DejaVuSans-57" transform="translate(554.828125 0)"/>
     <use xlink:href="#DejaVuSans-44" transform="translate(594.03125 0)"/>
     <use xlink:href="#DejaVuSans-45" transform="translate(655.3125 0)"/>
     <use xlink:href="#DejaVuSans-4f" transform="translate(718.796875 0)"/>
     <use xlink:href="#DejaVuSans-48" transform="translate(746.578125 0)"/>
     <use xlink:href="#DejaVuSans-3" transform="translate(808.109375 0)"/>
     <use xlink:href="#DejaVuSans-58" transform="translate(839.890625 0)"/>
     <use xlink:href="#DejaVuSans-51" transform="translate(903.265625 0)"/>
     <use xlink:href="#DejaVuSans-47" transform="translate(966.640625 0)"/>
     <use xlink:href="#DejaVuSans-48" transform="translate(1030.125 0)"/>
     <use xlink:href="#DejaVuSans-55" transform="translate(1091.65625 0)"/>
     <use xlink:href="#DejaVuSans-3" transform="translate(1132.765625 0)"/>
     <use xlink:href="#DejaVuSans-57" transform="translate(1164.546875 0)"/>
     <use xlink:href="#DejaVuSans-4b" transform="translate(1203.75 0)"/>
     <use xlink:href="#DejaVuSans-48" transform="translate(1267.125 0)"/>
     <use xlink:href="#DejaVuSans-3" transform="translate(1328.65625 0)"/>
     <use xlink:href="#DejaVuSans-46" transform="translate(1360.4375 0)"/>
     <use xlink:href="#DejaVuSans-4f" transform="translate(1415.421875 0)"/>
     <use xlink:href="#DejaVuSans-48" transform="translate(1443.203125 0)"/>
     <use xlink:href="#DejaVuSans-44" transform="translate(1504.734375 0)"/>
     <use xlink:href="#DejaVuSans-51" transform="translate(1566.015625 0)"/>
    </g>
    <!-- clone byte state. -->
    <g style="fill: #17202a" transform="translate(110.43 259.67006) scale(0.08 -0.08)">
     <use xlink:href="#DejaVuSans-46"/>
     <use xlink:href="#DejaVuSans-4f" transform="translate(54.984375 0)"/>
     <use xlink:href="#DejaVuSans-52" transform="translate(82.765625 0)"/>
     <use xlink:href="#DejaVuSans-51" transform="translate(143.953125 0)"/>
     <use xlink:href="#DejaVuSans-48" transform="translate(207.328125 0)"/>
     <use xlink:href="#DejaVuSans-3" transform="translate(268.859375 0)"/>
     <use xlink:href="#DejaVuSans-45" transform="translate(300.640625 0)"/>
     <use xlink:href="#DejaVuSans-5c" transform="translate(364.125 0)"/>
     <use xlink:href="#DejaVuSans-57" transform="translate(423.3125 0)"/>
     <use xlink:href="#DejaVuSans-48" transform="translate(462.515625 0)"/>
     <use xlink:href="#DejaVuSans-3" transform="translate(524.046875 0)"/>
     <use xlink:href="#DejaVuSans-56" transform="translate(555.828125 0)"/>
     <use xlink:href="#DejaVuSans-57" transform="translate(607.921875 0)"/>
     <use xlink:href="#DejaVuSans-44" transform="translate(647.125 0)"/>
     <use xlink:href="#DejaVuSans-57" transform="translate(708.40625 0)"/>
     <use xlink:href="#DejaVuSans-48" transform="translate(747.609375 0)"/>
     <use xlink:href="#DejaVuSans-11" transform="translate(809.140625 0)"/>
    </g>
    <!--  -->
    <g style="fill: #17202a" transform="translate(110.43 267.22256) scale(0.08 -0.08)"/>
    <!-- Gate 5 preflight failed closed. -->
    <g style="fill: #17202a" transform="translate(110.43 279.19006) scale(0.08 -0.08)">
     <defs>
      <path id="DejaVuSans-2a" d="M 3809 666
L 3809 1919
L 2778 1919
L 2778 2438
L 4434 2438
L 4434 434
Q 4069 175 3628 42
Q 3188 -91 2688 -91
Q 1594 -91 976 548
Q 359 1188 359 2328
Q 359 3472 976 4111
Q 1594 4750 2688 4750
Q 3144 4750 3555 4637
Q 3966 4525 4313 4306
L 4313 3634
Q 3963 3931 3569 4081
Q 3175 4231 2741 4231
Q 1884 4231 1454 3753
Q 1025 3275 1025 2328
Q 1025 1384 1454 906
Q 1884 428 2741 428
Q 3075 428 3337 486
Q 3600 544 3809 666
z
" transform="scale(0.015625)"/>
      <path id="DejaVuSans-18" d="M 691 4666
L 3169 4666
L 3169 4134
L 1269 4134
L 1269 2991
Q 1406 3038 1543 3061
Q 1681 3084 1819 3084
Q 2600 3084 3056 2656
Q 3513 2228 3513 1497
Q 3513 744 3044 326
Q 2575 -91 1722 -91
Q 1428 -91 1123 -41
Q 819 9 494 109
L 494 744
Q 775 591 1075 516
Q 1375 441 1709 441
Q 2250 441 2565 725
Q 2881 1009 2881 1497
Q 2881 1984 2565 2268
Q 2250 2553 1709 2553
Q 1456 2553 1204 2497
Q 953 2441 691 2322
L 691 4666
z
" transform="scale(0.015625)"/>
      <path id="DejaVuSans-13b0" d="M 1831 4863
L 3431 4863
L 3431 0
L 2853 0
L 2853 4384
L 1825 4384
Q 1516 4384 1395 4259
Q 1275 4134 1275 3809
L 1275 3500
L 2222 3500
L 2222 3053
L 1275 3053
L 1275 0
L 697 0
L 697 3053
L 147 3053
L 147 3500
L 697 3500
L 697 3744
Q 697 4328 969 4595
Q 1241 4863 1831 4863
z
" transform="scale(0.015625)"/>
     </defs>
     <use xlink:href="#DejaVuSans-2a"/>
     <use xlink:href="#DejaVuSans-44" transform="translate(77.484375 0)"/>
     <use xlink:href="#DejaVuSans-57" transform="translate(138.765625 0)"/>
     <use xlink:href="#DejaVuSans-48" transform="translate(177.96875 0)"/>
     <use xlink:href="#DejaVuSans-3" transform="translate(239.5 0)"/>
     <use xlink:href="#DejaVuSans-18" transform="translate(271.28125 0)"/>
     <use xlink:href="#DejaVuSans-3" transform="translate(334.90625 0)"/>
     <use xlink:href="#DejaVuSans-53" transform="translate(366.6875 0)"/>
     <use xlink:href="#DejaVuSans-55" transform="translate(430.171875 0)"/>
     <use xlink:href="#DejaVuSans-48" transform="translate(469.078125 0)"/>
     <use xlink:href="#DejaVuSans-13b0" transform="translate(530.609375 0)"/>
     <use xlink:href="#DejaVuSans-4c" transform="translate(593.59375 0)"/>
     <use xlink:href="#DejaVuSans-4a" transform="translate(621.375 0)"/>
     <use xlink:href="#DejaVuSans-4b" transform="translate(684.859375 0)"/>
     <use xlink:href="#DejaVuSans-57" transform="translate(748.234375 0)"/>
     <use xlink:href="#DejaVuSans-3" transform="translate(787.4375 0)"/>
     <use xlink:href="#DejaVuSans-49" transform="translate(819.21875 0)"/>
     <use xlink:href="#DejaVuSans-44" transform="translate(854.421875 0)"/>
     <use xlink:href="#DejaVuSans-4c" transform="translate(915.703125 0)"/>
     <use xlink:href="#DejaVuSans-4f" transform="translate(943.484375 0)"/>
     <use xlink:href="#DejaVuSans-48" transform="translate(971.265625 0)"/>
     <use xlink:href="#DejaVuSans-47" transform="translate(1032.796875 0)"/>
     <use xlink:href="#DejaVuSans-3" transform="translate(1096.28125 0)"/>
     <use xlink:href="#DejaVuSans-46" transform="translate(1128.0625 0)"/>
     <use xlink:href="#DejaVuSans-4f" transform="translate(1183.046875 0)"/>
     <use xlink:href="#DejaVuSans-52" transform="translate(1210.828125 0)"/>
     <use xlink:href="#DejaVuSans-56" transform="translate(1272.015625 0)"/>
     <use xlink:href="#DejaVuSans-48" transform="translate(1324.109375 0)"/>
     <use xlink:href="#DejaVuSans-47" transform="translate(1385.640625 0)"/>
     <use xlink:href="#DejaVuSans-11" transform="translate(1449.125 0)"/>
    </g>
   </g>
   <g id="text_11">
    <!-- Next correction -->
    <g style="fill: #17202a" transform="translate(410.355 222.573206) scale(0.102 -0.102)">
     <defs>
      <path id="DejaVuSans-Bold-31" d="M 588 4666
L 1931 4666
L 3628 1466
L 3628 4666
L 4769 4666
L 4769 0
L 3425 0
L 1728 3200
L 1728 0
L 588 0
L 588 4666
z
" transform="scale(0.015625)"/>
      <path id="DejaVuSans-Bold-5b" d="M 1422 1791
L 159 3500
L 1344 3500
L 2059 2463
L 2784 3500
L 3969 3500
L 2706 1797
L 4031 0
L 2847 0
L 2059 1106
L 1281 0
L 97 0
L 1422 1791
z
" transform="scale(0.015625)"/>
     </defs>
     <use xlink:href="#DejaVuSans-Bold-31"/>
     <use xlink:href="#DejaVuSans-Bold-48" transform="translate(83.6875 0)"/>
     <use xlink:href="#DejaVuSans-Bold-5b" transform="translate(151.515625 0)"/>
     <use xlink:href="#DejaVuSans-Bold-57" transform="translate(216.015625 0)"/>
     <use xlink:href="#DejaVuSans-Bold-3" transform="translate(263.8125 0)"/>
     <use xlink:href="#DejaVuSans-Bold-46" transform="translate(298.625 0)"/>
     <use xlink:href="#DejaVuSans-Bold-52" transform="translate(357.90625 0)"/>
     <use xlink:href="#DejaVuSans-Bold-55" transform="translate(426.609375 0)"/>
     <use xlink:href="#DejaVuSans-Bold-55" transform="translate(475.921875 0)"/>
     <use xlink:href="#DejaVuSans-Bold-48" transform="translate(525.234375 0)"/>
     <use xlink:href="#DejaVuSans-Bold-46" transform="translate(593.0625 0)"/>
     <use xlink:href="#DejaVuSans-Bold-57" transform="translate(652.34375 0)"/>
     <use xlink:href="#DejaVuSans-Bold-4c" transform="translate(700.140625 0)"/>
     <use xlink:href="#DejaVuSans-Bold-52" transform="translate(734.421875 0)"/>
     <use xlink:href="#DejaVuSans-Bold-51" transform="translate(803.125 0)"/>
    </g>
   </g>
   <g id="text_12">
    <!-- D030-C should freeze line-ending -->
    <g style="fill: #17202a" transform="translate(410.355 240.15006) scale(0.08 -0.08)">
     <defs>
      <path id="DejaVuSans-27" d="M 1259 4147
L 1259 519
L 2022 519
Q 2988 519 3436 956
Q 3884 1394 3884 2338
Q 3884 3275 3436 3711
Q 2988 4147 2022 4147
L 1259 4147
z
M 628 4666
L 1925 4666
Q 3281 4666 3915 4102
Q 4550 3538 4550 2338
Q 4550 1131 3912 565
Q 3275 0 1925 0
L 628 0
L 628 4666
z
" transform="scale(0.015625)"/>
      <path id="DejaVuSans-13" d="M 2034 4250
Q 1547 4250 1301 3770
Q 1056 3291 1056 2328
Q 1056 1369 1301 889
Q 1547 409 2034 409
Q 2525 409 2770 889
Q 3016 1369 3016 2328
Q 3016 3291 2770 3770
Q 2525 4250 2034 4250
z
M 2034 4750
Q 2819 4750 3233 4129
Q 3647 3509 3647 2328
Q 3647 1150 3233 529
Q 2819 -91 2034 -91
Q 1250 -91 836 529
Q 422 1150 422 2328
Q 422 3509 836 4129
Q 1250 4750 2034 4750
z
" transform="scale(0.015625)"/>
     </defs>
     <use xlink:href="#DejaVuSans-27"/>
     <use xlink:href="#DejaVuSans-13" transform="translate(77 0)"/>
     <use xlink:href="#DejaVuSans-16" transform="translate(140.625 0)"/>
     <use xlink:href="#DejaVuSans-13" transform="translate(204.25 0)"/>
     <use xlink:href="#DejaVuSans-10" transform="translate(267.875 0)"/>
     <use xlink:href="#DejaVuSans-26" transform="translate(303.953125 0)"/>
     <use xlink:href="#DejaVuSans-3" transform="translate(373.78125 0)"/>
     <use xlink:href="#DejaVuSans-56" transform="translate(405.5625 0)"/>
     <use xlink:href="#DejaVuSans-4b" transform="translate(457.65625 0)"/>
     <use xlink:href="#DejaVuSans-52" transform="translate(521.03125 0)"/>
     <use xlink:href="#DejaVuSans-58" transform="translate(582.21875 0)"/>
     <use xlink:href="#DejaVuSans-4f" transform="translate(645.59375 0)"/>
     <use xlink:href="#DejaVuSans-47" transform="translate(673.375 0)"/>
     <use xlink:href="#DejaVuSans-3" transform="translate(736.859375 0)"/>
     <use xlink:href="#DejaVuSans-49" transform="translate(768.640625 0)"/>
     <use xlink:href="#DejaVuSans-55" transform="translate(803.84375 0)"/>
     <use xlink:href="#DejaVuSans-48" transform="translate(842.75 0)"/>
     <use xlink:href="#DejaVuSans-48" transform="translate(904.28125 0)"/>
     <use xlink:href="#DejaVuSans-5d" transform="translate(965.8125 0)"/>
     <use xlink:href="#DejaVuSans-48" transform="translate(1018.296875 0)"/>
     <use xlink:href="#DejaVuSans-3" transform="translate(1079.828125 0)"/>
     <use xlink:href="#DejaVuSans-4f" transform="translate(1111.609375 0)"/>
     <use xlink:href="#DejaVuSans-4c" transform="translate(1139.390625 0)"/>
     <use xlink:href="#DejaVuSans-51" transform="translate(1167.171875 0)"/>
     <use xlink:href="#DejaVuSans-48" transform="translate(1230.546875 0)"/>
     <use xlink:href="#DejaVuSans-10" transform="translate(1292.078125 0)"/>
     <use xlink:href="#DejaVuSans-48" transform="translate(1328.15625 0)"/>
     <use xlink:href="#DejaVuSans-51" transform="translate(1389.6875 0)"/>
     <use xlink:href="#DejaVuSans-47" transform="translate(1453.0625 0)"/>
     <use xlink:href="#DejaVuSans-4c" transform="translate(1516.546875 0)"/>
     <use xlink:href="#DejaVuSans-51" transform="translate(1544.328125 0)"/>
     <use xlink:href="#DejaVuSans-4a" transform="translate(1607.703125 0)"/>
    </g>
    <!-- and byte-provenance behavior, -->
    <g style="fill: #17202a" transform="translate(410.355 249.91006) scale(0.08 -0.08)">
     <use xlink:href="#DejaVuSans-44"/>
     <use xlink:href="#DejaVuSans-51" transform="translate(61.28125 0)"/>
     <use xlink:href="#DejaVuSans-47" transform="translate(124.65625 0)"/>
     <use xlink:href="#DejaVuSans-3" transform="translate(188.140625 0)"/>
     <use xlink:href="#DejaVuSans-45" transform="translate(219.921875 0)"/>
     <use xlink:href="#DejaVuSans-5c" transform="translate(283.40625 0)"/>
     <use xlink:href="#DejaVuSans-57" transform="translate(342.59375 0)"/>
     <use xlink:href="#DejaVuSans-48" transform="translate(381.796875 0)"/>
     <use xlink:href="#DejaVuSans-10" transform="translate(443.328125 0)"/>
     <use xlink:href="#DejaVuSans-53" transform="translate(479.40625 0)"/>
     <use xlink:href="#DejaVuSans-55" transform="translate(542.890625 0)"/>
     <use xlink:href="#DejaVuSans-52" transform="translate(581.796875 0)"/>
     <use xlink:href="#DejaVuSans-59" transform="translate(642.984375 0)"/>
     <use xlink:href="#DejaVuSans-48" transform="translate(702.171875 0)"/>
     <use xlink:href="#DejaVuSans-51" transform="translate(763.703125 0)"/>
     <use xlink:href="#DejaVuSans-44" transform="translate(827.078125 0)"/>
     <use xlink:href="#DejaVuSans-51" transform="translate(888.359375 0)"/>
     <use xlink:href="#DejaVuSans-46" transform="translate(951.734375 0)"/>
     <use xlink:href="#DejaVuSans-48" transform="translate(1006.71875 0)"/>
     <use xlink:href="#DejaVuSans-3" transform="translate(1068.25 0)"/>
     <use xlink:href="#DejaVuSans-45" transform="translate(1100.03125 0)"/>
     <use xlink:href="#DejaVuSans-48" transform="translate(1163.515625 0)"/>
     <use xlink:href="#DejaVuSans-4b" transform="translate(1225.046875 0)"/>
     <use xlink:href="#DejaVuSans-44" transform="translate(1288.421875 0)"/>
     <use xlink:href="#DejaVuSans-59" transform="translate(1349.703125 0)"/>
     <use xlink:href="#DejaVuSans-4c" transform="translate(1408.890625 0)"/>
     <use xlink:href="#DejaVuSans-52" transform="translate(1436.671875 0)"/>
     <use xlink:href="#DejaVuSans-55" transform="translate(1497.859375 0)"/>
     <use xlink:href="#DejaVuSans-f" transform="translate(1538.96875 0)"/>
    </g>
    <!-- then rerun the clean audit. -->
    <g style="fill: #17202a" transform="translate(410.355 260.44506) scale(0.08 -0.08)">
     <use xlink:href="#DejaVuSans-57"/>
     <use xlink:href="#DejaVuSans-4b" transform="translate(39.203125 0)"/>
     <use xlink:href="#DejaVuSans-48" transform="translate(102.578125 0)"/>
     <use xlink:href="#DejaVuSans-51" transform="translate(164.109375 0)"/>
     <use xlink:href="#DejaVuSans-3" transform="translate(227.484375 0)"/>
     <use xlink:href="#DejaVuSans-55" transform="translate(259.265625 0)"/>
     <use xlink:href="#DejaVuSans-48" transform="translate(298.171875 0)"/>
     <use xlink:href="#DejaVuSans-55" transform="translate(359.703125 0)"/>
     <use xlink:href="#DejaVuSans-58" transform="translate(400.8125 0)"/>
     <use xlink:href="#DejaVuSans-51" transform="translate(464.1875 0)"/>
     <use xlink:href="#DejaVuSans-3" transform="translate(527.5625 0)"/>
     <use xlink:href="#DejaVuSans-57" transform="translate(559.34375 0)"/>
     <use xlink:href="#DejaVuSans-4b" transform="translate(598.546875 0)"/>
     <use xlink:href="#DejaVuSans-48" transform="translate(661.921875 0)"/>
     <use xlink:href="#DejaVuSans-3" transform="translate(723.453125 0)"/>
     <use xlink:href="#DejaVuSans-46" transform="translate(755.234375 0)"/>
     <use xlink:href="#DejaVuSans-4f" transform="translate(810.21875 0)"/>
     <use xlink:href="#DejaVuSans-48" transform="translate(838 0)"/>
     <use xlink:href="#DejaVuSans-44" transform="translate(899.53125 0)"/>
     <use xlink:href="#DejaVuSans-51" transform="translate(960.8125 0)"/>
     <use xlink:href="#DejaVuSans-3" transform="translate(1024.1875 0)"/>
     <use xlink:href="#DejaVuSans-44" transform="translate(1055.96875 0)"/>
     <use xlink:href="#DejaVuSans-58" transform="translate(1117.25 0)"/>
     <use xlink:href="#DejaVuSans-47" transform="translate(1180.625 0)"/>
     <use xlink:href="#DejaVuSans-4c" transform="translate(1244.109375 0)"/>
     <use xlink:href="#DejaVuSans-57" transform="translate(1271.890625 0)"/>
     <use xlink:href="#DejaVuSans-11" transform="translate(1311.09375 0)"/>
    </g>
   </g>
   <g id="text_13">
    <!-- Boundary -->
    <g style="fill: #17202a" transform="translate(159.255 350.639606) scale(0.102 -0.102)">
     <defs>
      <path id="DejaVuSans-Bold-25" d="M 2456 2859
Q 2741 2859 2887 2984
Q 3034 3109 3034 3353
Q 3034 3594 2887 3720
Q 2741 3847 2456 3847
L 1791 3847
L 1791 2859
L 2456 2859
z
M 2497 819
Q 2859 819 3042 972
Q 3225 1125 3225 1434
Q 3225 1738 3044 1889
Q 2863 2041 2497 2041
L 1791 2041
L 1791 819
L 2497 819
z
M 3616 2497
Q 4003 2384 4215 2081
Q 4428 1778 4428 1338
Q 4428 663 3972 331
Q 3516 0 2584 0
L 588 0
L 588 4666
L 2394 4666
Q 3366 4666 3802 4372
Q 4238 4078 4238 3431
Q 4238 3091 4078 2852
Q 3919 2613 3616 2497
z
" transform="scale(0.015625)"/>
     </defs>
     <use xlink:href="#DejaVuSans-Bold-25"/>
     <use xlink:href="#DejaVuSans-Bold-52" transform="translate(76.21875 0)"/>
     <use xlink:href="#DejaVuSans-Bold-58" transform="translate(144.921875 0)"/>
     <use xlink:href="#DejaVuSans-Bold-51" transform="translate(216.109375 0)"/>
     <use xlink:href="#DejaVuSans-Bold-47" transform="translate(287.296875 0)"/>
     <use xlink:href="#DejaVuSans-Bold-44" transform="translate(358.875 0)"/>
     <use xlink:href="#DejaVuSans-Bold-55" transform="translate(426.359375 0)"/>
     <use xlink:href="#DejaVuSans-Bold-5c" transform="translate(475.671875 0)"/>
    </g>
   </g>
   <g id="text_14">
    <!-- This STOP is release infrastructure evidence only; it does not change model results or authorize release, correction, locked data, or Gate 6. -->
    <g style="fill: #17202a" transform="translate(159.255 368.21646) scale(0.08 -0.08)">
     <defs>
      <path id="DejaVuSans-1e" d="M 750 3309
L 1409 3309
L 1409 2516
L 750 2516
L 750 3309
z
M 750 794
L 1409 794
L 1409 256
L 897 -744
L 494 -744
L 750 256
L 750 794
z
" transform="scale(0.015625)"/>
     </defs>
     <use xlink:href="#DejaVuSans-37"/>
     <use xlink:href="#DejaVuSans-4b" transform="translate(61.078125 0)"/>
     <use xlink:href="#DejaVuSans-4c" transform="translate(124.453125 0)"/>
     <use xlink:href="#DejaVuSans-56" transform="translate(152.234375 0)"/>
     <use xlink:href="#DejaVuSans-3" transform="translate(204.328125 0)"/>
     <use xlink:href="#DejaVuSans-36" transform="translate(236.109375 0)"/>
     <use xlink:href="#DejaVuSans-37" transform="translate(299.59375 0)"/>
     <use xlink:href="#DejaVuSans-32" transform="translate(360.671875 0)"/>
     <use xlink:href="#DejaVuSans-33" transform="translate(439.390625 0)"/>
     <use xlink:href="#DejaVuSans-3" transform="translate(499.6875 0)"/>
     <use xlink:href="#DejaVuSans-4c" transform="translate(531.46875 0)"/>
     <use xlink:href="#DejaVuSans-56" transform="translate(559.25 0)"/>
     <use xlink:href="#DejaVuSans-3" transform="translate(611.34375 0)"/>
     <use xlink:href="#DejaVuSans-55" transform="translate(643.125 0)"/>
     <use xlink:href="#DejaVuSans-48" transform="translate(682.03125 0)"/>
     <use xlink:href="#DejaVuSans-4f" transform="translate(743.5625 0)"/>
     <use xlink:href="#DejaVuSans-48" transform="translate(771.34375 0)"/>
     <use xlink:href="#DejaVuSans-44" transform="translate(832.875 0)"/>
     <use xlink:href="#DejaVuSans-56" transform="translate(894.15625 0)"/>
     <use xlink:href="#DejaVuSans-48" transform="translate(946.25 0)"/>
     <use xlink:href="#DejaVuSans-3" transform="translate(1007.78125 0)"/>
     <use xlink:href="#DejaVuSans-4c" transform="translate(1039.5625 0)"/>
     <use xlink:href="#DejaVuSans-51" transform="translate(1067.34375 0)"/>
     <use xlink:href="#DejaVuSans-49" transform="translate(1130.71875 0)"/>
     <use xlink:href="#DejaVuSans-55" transform="translate(1165.921875 0)"/>
     <use xlink:href="#DejaVuSans-44" transform="translate(1207.03125 0)"/>
     <use xlink:href="#DejaVuSans-56" transform="translate(1268.3125 0)"/>
     <use xlink:href="#DejaVuSans-57" transform="translate(1320.40625 0)"/>
     <use xlink:href="#DejaVuSans-55" transform="translate(1359.609375 0)"/>
     <use xlink:href="#DejaVuSans-58" transform="translate(1400.71875 0)"/>
     <use xlink:href="#DejaVuSans-46" transform="translate(1464.09375 0)"/>
     <use xlink:href="#DejaVuSans-57" transform="translate(1519.078125 0)"/>
     <use xlink:href="#DejaVuSans-58" transform="translate(1558.28125 0)"/>
     <use xlink:href="#DejaVuSans-55" transform="translate(1621.65625 0)"/>
     <use xlink:href="#DejaVuSans-48" transform="translate(1660.5625 0)"/>
     <use xlink:href="#DejaVuSans-3" transform="translate(1722.09375 0)"/>
     <use xlink:href="#DejaVuSans-48" transform="translate(1753.875 0)"/>
     <use xlink:href="#DejaVuSans-59" transform="translate(1815.40625 0)"/>
     <use xlink:href="#DejaVuSans-4c" transform="translate(1874.59375 0)"/>
     <use xlink:href="#DejaVuSans-47" transform="translate(1902.375 0)"/>
     <use xlink:href="#DejaVuSans-48" transform="translate(1965.859375 0)"/>
     <use xlink:href="#DejaVuSans-51" transform="translate(2027.390625 0)"/>
     <use xlink:href="#DejaVuSans-46" transform="translate(2090.765625 0)"/>
     <use xlink:href="#DejaVuSans-48" transform="translate(2145.75 0)"/>
     <use xlink:href="#DejaVuSans-3" transform="translate(2207.28125 0)"/>
     <use xlink:href="#DejaVuSans-52" transform="translate(2239.0625 0)"/>
     <use xlink:href="#DejaVuSans-51" transform="translate(2300.25 0)"/>
     <use xlink:href="#DejaVuSans-4f" transform="translate(2363.625 0)"/>
     <use xlink:href="#DejaVuSans-5c" transform="translate(2391.40625 0)"/>
     <use xlink:href="#DejaVuSans-1e" transform="translate(2450.59375 0)"/>
     <use xlink:href="#DejaVuSans-3" transform="translate(2484.28125 0)"/>
     <use xlink:href="#DejaVuSans-4c" transform="translate(2516.0625 0)"/>
     <use xlink:href="#DejaVuSans-57" transform="translate(2543.84375 0)"/>
     <use xlink:href="#DejaVuSans-3" transform="translate(2583.046875 0)"/>
     <use xlink:href="#DejaVuSans-47" transform="translate(2614.828125 0)"/>
     <use xlink:href="#DejaVuSans-52" transform="translate(2678.3125 0)"/>
     <use xlink:href="#DejaVuSans-48" transform="translate(2739.5 0)"/>
     <use xlink:href="#DejaVuSans-56" transform="translate(2801.03125 0)"/>
     <use xlink:href="#DejaVuSans-3" transform="translate(2853.125 0)"/>
     <use xlink:href="#DejaVuSans-51" transform="translate(2884.90625 0)"/>
     <use xlink:href="#DejaVuSans-52" transform="translate(2948.28125 0)"/>
     <use xlink:href="#DejaVuSans-57" transform="translate(3009.46875 0)"/>
     <use xlink:href="#DejaVuSans-3" transform="translate(3048.671875 0)"/>
     <use xlink:href="#DejaVuSans-46" transform="translate(3080.453125 0)"/>
     <use xlink:href="#DejaVuSans-4b" transform="translate(3135.4375 0)"/>
     <use xlink:href="#DejaVuSans-44" transform="translate(3198.8125 0)"/>
     <use xlink:href="#DejaVuSans-51" transform="translate(3260.09375 0)"/>
     <use xlink:href="#DejaVuSans-4a" transform="translate(3323.46875 0)"/>
     <use xlink:href="#DejaVuSans-48" transform="translate(3386.953125 0)"/>
     <use xlink:href="#DejaVuSans-3" transform="translate(3448.484375 0)"/>
     <use xlink:href="#DejaVuSans-50" transform="translate(3480.265625 0)"/>
     <use xlink:href="#DejaVuSans-52" transform="translate(3577.671875 0)"/>
     <use xlink:href="#DejaVuSans-47" transform="translate(3638.859375 0)"/>
     <use xlink:href="#DejaVuSans-48" transform="translate(3702.34375 0)"/>
     <use xlink:href="#DejaVuSans-4f" transform="translate(3763.875 0)"/>
     <use xlink:href="#DejaVuSans-3" transform="translate(3791.65625 0)"/>
     <use xlink:href="#DejaVuSans-55" transform="translate(3823.4375 0)"/>
     <use xlink:href="#DejaVuSans-48" transform="translate(3862.34375 0)"/>
     <use xlink:href="#DejaVuSans-56" transform="translate(3923.875 0)"/>
     <use xlink:href="#DejaVuSans-58" transform="translate(3975.96875 0)"/>
     <use xlink:href="#DejaVuSans-4f" transform="translate(4039.34375 0)"/>
     <use xlink:href="#DejaVuSans-57" transform="translate(4067.125 0)"/>
     <use xlink:href="#DejaVuSans-56" transform="translate(4106.328125 0)"/>
     <use xlink:href="#DejaVuSans-3" transform="translate(4158.421875 0)"/>
     <use xlink:href="#DejaVuSans-52" transform="translate(4190.203125 0)"/>
     <use xlink:href="#DejaVuSans-55" transform="translate(4251.390625 0)"/>
     <use xlink:href="#DejaVuSans-3" transform="translate(4292.5 0)"/>
     <use xlink:href="#DejaVuSans-44" transform="translate(4324.28125 0)"/>
     <use xlink:href="#DejaVuSans-58" transform="translate(4385.5625 0)"/>
     <use xlink:href="#DejaVuSans-57" transform="translate(4448.9375 0)"/>
     <use xlink:href="#DejaVuSans-4b" transform="translate(4488.140625 0)"/>
     <use xlink:href="#DejaVuSans-52" transform="translate(4551.515625 0)"/>
     <use xlink:href="#DejaVuSans-55" transform="translate(4612.703125 0)"/>
     <use xlink:href="#DejaVuSans-4c" transform="translate(4653.8125 0)"/>
     <use xlink:href="#DejaVuSans-5d" transform="translate(4681.59375 0)"/>
     <use xlink:href="#DejaVuSans-48" transform="translate(4734.078125 0)"/>
     <use xlink:href="#DejaVuSans-3" transform="translate(4795.609375 0)"/>
     <use xlink:href="#DejaVuSans-55" transform="translate(4827.390625 0)"/>
     <use xlink:href="#DejaVuSans-48" transform="translate(4866.296875 0)"/>
     <use xlink:href="#DejaVuSans-4f" transform="translate(4927.828125 0)"/>
     <use xlink:href="#DejaVuSans-48" transform="translate(4955.609375 0)"/>
     <use xlink:href="#DejaVuSans-44" transform="translate(5017.140625 0)"/>
     <use xlink:href="#DejaVuSans-56" transform="translate(5078.421875 0)"/>
     <use xlink:href="#DejaVuSans-48" transform="translate(5130.515625 0)"/>
     <use xlink:href="#DejaVuSans-f" transform="translate(5192.046875 0)"/>
     <use xlink:href="#DejaVuSans-3" transform="translate(5223.828125 0)"/>
     <use xlink:href="#DejaVuSans-46" transform="translate(5255.609375 0)"/>
     <use xlink:href="#DejaVuSans-52" transform="translate(5310.59375 0)"/>
     <use xlink:href="#DejaVuSans-55" transform="translate(5371.78125 0)"/>
     <use xlink:href="#DejaVuSans-55" transform="translate(5411.140625 0)"/>
     <use xlink:href="#DejaVuSans-48" transform="translate(5450.046875 0)"/>
     <use xlink:href="#DejaVuSans-46" transform="translate(5511.578125 0)"/>
     <use xlink:href="#DejaVuSans-57" transform="translate(5566.5625 0)"/>
     <use xlink:href="#DejaVuSans-4c" transform="translate(5605.765625 0)"/>
     <use xlink:href="#DejaVuSans-52" transform="translate(5633.546875 0)"/>
     <use xlink:href="#DejaVuSans-51" transform="translate(5694.734375 0)"/>
     <use xlink:href="#DejaVuSans-f" transform="translate(5758.109375 0)"/>
     <use xlink:href="#DejaVuSans-3" transform="translate(5789.890625 0)"/>
     <use xlink:href="#DejaVuSans-4f" transform="translate(5821.671875 0)"/>
     <use xlink:href="#DejaVuSans-52" transform="translate(5849.453125 0)"/>
     <use xlink:href="#DejaVuSans-46" transform="translate(5910.640625 0)"/>
     <use xlink:href="#DejaVuSans-4e" transform="translate(5965.625 0)"/>
     <use xlink:href="#DejaVuSans-48" transform="translate(6019.96875 0)"/>
     <use xlink:href="#DejaVuSans-47" transform="translate(6081.5 0)"/>
     <use xlink:href="#DejaVuSans-3" transform="translate(6144.984375 0)"/>
     <use xlink:href="#DejaVuSans-47" transform="translate(6176.765625 0)"/>
     <use xlink:href="#DejaVuSans-44" transform="translate(6240.25 0)"/>
     <use xlink:href="#DejaVuSans-57" transform="translate(6301.53125 0)"/>
     <use xlink:href="#DejaVuSans-44" transform="translate(6340.734375 0)"/>
     <use xlink:href="#DejaVuSans-f" transform="translate(6402.015625 0)"/>
     <use xlink:href="#DejaVuSans-3" transform="translate(6433.796875 0)"/>
     <use xlink:href="#DejaVuSans-52" transform="translate(6465.578125 0)"/>
     <use xlink:href="#DejaVuSans-55" transform="translate(6526.765625 0)"/>
     <use xlink:href="#DejaVuSans-3" transform="translate(6567.875 0)"/>
     <use xlink:href="#DejaVuSans-2a" transform="translate(6599.65625 0)"/>
     <use xlink:href="#DejaVuSans-44" transform="translate(6677.140625 0)"/>
     <use xlink:href="#DejaVuSans-57" transform="translate(6738.421875 0)"/>
     <use xlink:href="#DejaVuSans-48" transform="translate(6777.625 0)"/>
     <use xlink:href="#DejaVuSans-3" transform="translate(6839.15625 0)"/>
     <use xlink:href="#DejaVuSans-19" transform="translate(6870.9375 0)"/>
     <use xlink:href="#DejaVuSans-11" transform="translate(6934.5625 0)"/>
    </g>
   </g>
  </g>
 </g>
 <defs>
  <clipPath id="pe4f4aed117">
   <rect x="7.2" y="7.2" width="697.5" height="388.08"/>
  </clipPath>
 </defs>
</svg>
