<?xml version="1.0" encoding="utf-8" standalone="no"?>
<!DOCTYPE svg PUBLIC "-//W3C//DTD SVG 1.1//EN"
  "http://www.w3.org/Graphics/SVG/1.1/DTD/svg11.dtd">
<svg xmlns:xlink="http://www.w3.org/1999/xlink" width="728.64pt" height="402.48pt" viewBox="0 0 728.64 402.48" xmlns="http://www.w3.org/2000/svg" version="1.1">
 <metadata>
  <rdf:RDF xmlns:dc="http://purl.org/dc/elements/1.1/" xmlns:cc="http://creativecommons.org/ns#" xmlns:rdf="http://www.w3.org/1999/02/22-rdf-syntax-ns#">
   <cc:Work>
    <dc:type rdf:resource="http://purl.org/dc/dcmitype/StillImage"/>
    <dc:format>image/svg+xml</dc:format>
    <dc:creator>
     <cc:Agent>
      <dc:title>Matplotlib v3.11.0, https://matplotlib.org/</dc:title>
     </cc:Agent>
    </dc:creator>
   </cc:Work>
  </rdf:RDF>
 </metadata>
 <defs>
  <style type="text/css">*{stroke-linejoin: round; stroke-linecap: butt}</style>
 </defs>
 <g id="figure_1">
  <g id="patch_1">
   <path d="M 0 402.48
L 728.64 402.48
L 728.64 -0
L 0 -0
z
" style="fill: #ffffff"/>
  </g>
  <g id="axes_1">
   <g id="patch_2">
    <path d="M 44.34048 151.56576
L 220.04352 151.56576
Q 230.04288 151.56576 230.04288 146.13264
L 230.04288 73.94976
Q 230.04288 68.51664 220.04352 68.51664
L 44.34048 68.51664
Q 34.34112 68.51664 34.34112 73.94976
L 34.34112 146.13264
Q 34.34112 151.56576 44.34048 151.56576
z
" clip-path="url(#p72b567b683)" style="fill: #fbedea; stroke: #b24a3b; stroke-width: 1.2; stroke-linejoin: miter"/>
   </g>
   <g id="patch_3">
    <path d="M 280.03968 151.56576
L 455.74272 151.56576
Q 465.74208 151.56576 465.74208 146.13264
L 465.74208 73.94976
Q 465.74208 68.51664 455.74272 68.51664
L 280.03968 68.51664
Q 270.04032 68.51664 270.04032 73.94976
L 270.04032 146.13264
Q 270.04032 151.56576 280.03968 151.56576
z
" clip-path="url(#p72b567b683)" style="fill: #fff4d6; stroke: #e69f00; stroke-width: 1.2; stroke-linejoin: miter"/>
   </g>
   <g id="patch_4">
    <path d="M 515.73888 151.56576
L 670.01472 151.56576
Q 680.01408 151.56576 680.01408 146.13264
L 680.01408 73.94976
Q 680.01408 68.51664 670.01472 68.51664
L 515.73888 68.51664
Q 505.73952 68.51664 505.73952 73.94976
L 505.73952 146.13264
Q 505.73952 151.56576 515.73888 151.56576
z
" clip-path="url(#p72b567b683)" style="fill: #eaf3f8; stroke: #0072b2; stroke-width: 1.2; stroke-linejoin: miter"/>
   </g>
   <g id="patch_5">
    <path d="M 122.90688 275.75136
L 334.32192 275.75136
Q 344.32128 275.75136 344.32128 270.31824
L 344.32128 198.13536
Q 344.32128 192.70224 334.32192 192.70224
L 122.90688 192.70224
Q 112.90752 192.70224 112.90752 198.13536
L 112.90752 270.31824
Q 112.90752 275.75136 122.90688 275.75136
z
" clip-path="url(#p72b567b683)" style="fill: #fbedea; stroke: #b24a3b; stroke-width: 1.2; stroke-linejoin: miter"/>
   </g>
   <g id="patch_6">
    <path d="M 408.60288 275.75136
L 620.01792 275.75136
Q 630.01728 275.75136 630.01728 270.31824
L 630.01728 198.13536
Q 630.01728 192.70224 620.01792 192.70224
L 408.60288 192.70224
Q 398.60352 192.70224 398.60352 198.13536
L 398.60352 270.31824
Q 398.60352 275.75136 408.60288 275.75136
z
" clip-path="url(#p72b567b683)" style="fill: #e8f4ef; stroke: #1b7f5a; stroke-width: 1.2; stroke-linejoin: miter"/>
   </g>
   <g id="patch_7">
    <path d="M 151.47648 368.89056
L 577.16352 368.89056
Q 587.16288 368.89056 587.16288 363.45744
L 587.16288 326.20176
Q 587.16288 320.76864 577.16352 320.76864
L 151.47648 320.76864
Q 141.47712 320.76864 141.47712 326.20176
L 141.47712 363.45744
Q 141.47712 368.89056 151.47648 368.89056
z
" clip-path="url(#p72b567b683)" style="fill: #f2f4f6; stroke: #68737d; stroke-width: 1.2; stroke-linejoin: miter"/>
   </g>
   <g id="text_1">
    <!-- D027-C manuscript results map -->
    <g style="fill: #17202a" transform="translate(21.4848 30.9999) scale(0.16 -0.16)">
     <defs>
      <path id="DejaVuSans-Bold-27" d="M 1791 3756
L 1791 909
L 2222 909
Q 2959 909 3348 1275
Q 3738 1641 3738 2338
Q 3738 3031 3350 3393
Q 2963 3756 2222 3756
L 1791 3756
z
M 588 4666
L 1856 4666
Q 2919 4666 3439 4514
Q 3959 4363 4331 4000
Q 4659 3684 4818 3271
Q 4978 2859 4978 2338
Q 4978 1809 4818 1395
Q 4659 981 4331 666
Q 3956 303 3431 151
Q 2906 0 1856 0
L 588 0
L 588 4666
z
" transform="scale(0.015625)"/>
      <path id="DejaVuSans-Bold-13" d="M 2944 2338
Q 2944 3213 2780 3570
Q 2616 3928 2228 3928
Q 1841 3928 1675 3570
Q 1509 3213 1509 2338
Q 1509 1453 1675 1090
Q 1841 728 2228 728
Q 2613 728 2778 1090
Q 2944 1453 2944 2338
z
M 4147 2328
Q 4147 1169 3647 539
Q 3147 -91 2228 -91
Q 1306 -91 806 539
Q 306 1169 306 2328
Q 306 3491 806 4120
Q 1306 4750 2228 4750
Q 3147 4750 3647 4120
Q 4147 3491 4147 2328
z
" transform="scale(0.015625)"/>
      <path id="DejaVuSans-Bold-15" d="M 1844 884
L 3897 884
L 3897 0
L 506 0
L 506 884
L 2209 2388
Q 2438 2594 2547 2791
Q 2656 2988 2656 3200
Q 2656 3528 2436 3728
Q 2216 3928 1850 3928
Q 1569 3928 1234 3808
Q 900 3688 519 3450
L 519 4475
Q 925 4609 1322 4679
Q 1719 4750 2100 4750
Q 2938 4750 3402 4381
Q 3866 4013 3866 3353
Q 3866 2972 3669 2642
Q 3472 2313 2841 1759
L 1844 884
z
" transform="scale(0.015625)"/>
      <path id="DejaVuSans-Bold-1a" d="M 428 4666
L 3944 4666
L 3944 3988
L 2125 0
L 953 0
L 2675 3781
L 428 3781
L 428 4666
z
" transform="scale(0.015625)"/>
      <path id="DejaVuSans-Bold-10" d="M 347 2297
L 2309 2297
L 2309 1388
L 347 1388
L 347 2297
z
" transform="scale(0.015625)"/>
      <path id="DejaVuSans-Bold-26" d="M 4288 256
Q 3956 84 3597 -3
Q 3238 -91 2847 -91
Q 1681 -91 1000 561
Q 319 1213 319 2328
Q 319 3447 1000 4098
Q 1681 4750 2847 4750
Q 3238 4750 3597 4662
Q 3956 4575 4288 4403
L 4288 3438
Q 3953 3666 3628 3772
Q 3303 3878 2944 3878
Q 2300 3878 1931 3465
Q 1563 3053 1563 2328
Q 1563 1606 1931 1193
Q 2300 781 2944 781
Q 3303 781 3628 887
Q 3953 994 4288 1222
L 4288 256
z
" transform="scale(0.015625)"/>
      <path id="DejaVuSans-Bold-3" transform="scale(0.015625)"/>
      <path id="DejaVuSans-Bold-50" d="M 3781 2919
Q 3994 3244 4286 3414
Q 4578 3584 4928 3584
Q 5531 3584 5847 3212
Q 6163 2841 6163 2131
L 6163 0
L 5038 0
L 5038 1825
Q 5041 1866 5042 1909
Q 5044 1953 5044 2034
Q 5044 2406 4934 2573
Q 4825 2741 4581 2741
Q 4263 2741 4089 2478
Q 3916 2216 3909 1719
L 3909 0
L 2784 0
L 2784 1825
Q 2784 2406 2684 2573
Q 2584 2741 2328 2741
Q 2006 2741 1831 2477
Q 1656 2213 1656 1722
L 1656 0
L 531 0
L 531 3500
L 1656 3500
L 1656 2988
Q 1863 3284 2130 3434
Q 2397 3584 2719 3584
Q 3081 3584 3359 3409
Q 3638 3234 3781 2919
z
" transform="scale(0.015625)"/>
      <path id="DejaVuSans-Bold-44" d="M 2106 1575
Q 1756 1575 1579 1456
Q 1403 1338 1403 1106
Q 1403 894 1545 773
Q 1688 653 1941 653
Q 2256 653 2472 879
Q 2688 1106 2688 1447
L 2688 1575
L 2106 1575
z
M 3816 1997
L 3816 0
L 2688 0
L 2688 519
Q 2463 200 2181 54
Q 1900 -91 1497 -91
Q 953 -91 614 226
Q 275 544 275 1050
Q 275 1666 698 1953
Q 1122 2241 2028 2241
L 2688 2241
L 2688 2328
Q 2688 2594 2478 2717
Q 2269 2841 1825 2841
Q 1466 2841 1156 2769
Q 847 2697 581 2553
L 581 3406
Q 941 3494 1303 3539
Q 1666 3584 2028 3584
Q 2975 3584 3395 3211
Q 3816 2838 3816 1997
z
" transform="scale(0.015625)"/>
      <path id="DejaVuSans-Bold-51" d="M 4056 2131
L 4056 0
L 2931 0
L 2931 347
L 2931 1631
Q 2931 2084 2911 2256
Q 2891 2428 2841 2509
Q 2775 2619 2662 2680
Q 2550 2741 2406 2741
Q 2056 2741 1856 2470
Q 1656 2200 1656 1722
L 1656 0
L 538 0
L 538 3500
L 1656 3500
L 1656 2988
Q 1909 3294 2193 3439
Q 2478 3584 2822 3584
Q 3428 3584 3742 3212
Q 4056 2841 4056 2131
z
" transform="scale(0.015625)"/>
      <path id="DejaVuSans-Bold-58" d="M 500 1363
L 500 3500
L 1625 3500
L 1625 3150
Q 1625 2866 1622 2436
Q 1619 2006 1619 1863
Q 1619 1441 1641 1255
Q 1663 1069 1716 984
Q 1784 875 1895 815
Q 2006 756 2150 756
Q 2500 756 2700 1025
Q 2900 1294 2900 1772
L 2900 3500
L 4019 3500
L 4019 0
L 2900 0
L 2900 506
Q 2647 200 2364 54
Q 2081 -91 1741 -91
Q 1134 -91 817 281
Q 500 653 500 1363
z
" transform="scale(0.015625)"/>
      <path id="DejaVuSans-Bold-56" d="M 3272 3391
L 3272 2541
Q 2913 2691 2578 2766
Q 2244 2841 1947 2841
Q 1628 2841 1473 2761
Q 1319 2681 1319 2516
Q 1319 2381 1436 2309
Q 1553 2238 1856 2203
L 2053 2175
Q 2913 2066 3209 1816
Q 3506 1566 3506 1031
Q 3506 472 3093 190
Q 2681 -91 1863 -91
Q 1516 -91 1145 -36
Q 775 19 384 128
L 384 978
Q 719 816 1070 734
Q 1422 653 1784 653
Q 2113 653 2278 743
Q 2444 834 2444 1013
Q 2444 1163 2330 1236
Q 2216 1309 1875 1350
L 1678 1375
Q 931 1469 631 1722
Q 331 1975 331 2491
Q 331 3047 712 3315
Q 1094 3584 1881 3584
Q 2191 3584 2531 3537
Q 2872 3491 3272 3391
z
" transform="scale(0.015625)"/>
      <path id="DejaVuSans-Bold-46" d="M 3366 3391
L 3366 2478
Q 3138 2634 2908 2709
Q 2678 2784 2431 2784
Q 1963 2784 1702 2511
Q 1441 2238 1441 1747
Q 1441 1256 1702 982
Q 1963 709 2431 709
Q 2694 709 2930 787
Q 3166 866 3366 1019
L 3366 103
Q 3103 6 2833 -42
Q 2563 -91 2291 -91
Q 1344 -91 809 395
Q 275 881 275 1747
Q 275 2613 809 3098
Q 1344 3584 2291 3584
Q 2566 3584 2833 3536
Q 3100 3488 3366 3391
z
" transform="scale(0.015625)"/>
      <path id="DejaVuSans-Bold-55" d="M 3138 2547
Q 2991 2616 2845 2648
Q 2700 2681 2553 2681
Q 2122 2681 1889 2404
Q 1656 2128 1656 1613
L 1656 0
L 538 0
L 538 3500
L 1656 3500
L 1656 2925
Q 1872 3269 2151 3426
Q 2431 3584 2822 3584
Q 2878 3584 2943 3579
Q 3009 3575 3134 3559
L 3138 2547
z
" transform="scale(0.015625)"/>
      <path id="DejaVuSans-Bold-4c" d="M 538 3500
L 1656 3500
L 1656 0
L 538 0
L 538 3500
z
M 538 4863
L 1656 4863
L 1656 3950
L 538 3950
L 538 4863
z
" transform="scale(0.015625)"/>
      <path id="DejaVuSans-Bold-53" d="M 1656 506
L 1656 -1331
L 538 -1331
L 538 3500
L 1656 3500
L 1656 2988
Q 1888 3294 2169 3439
Q 2450 3584 2816 3584
Q 3463 3584 3878 3070
Q 4294 2556 4294 1747
Q 4294 938 3878 423
Q 3463 -91 2816 -91
Q 2450 -91 2169 54
Q 1888 200 1656 506
z
M 2400 2772
Q 2041 2772 1848 2508
Q 1656 2244 1656 1747
Q 1656 1250 1848 986
Q 2041 722 2400 722
Q 2759 722 2948 984
Q 3138 1247 3138 1747
Q 3138 2247 2948 2509
Q 2759 2772 2400 2772
z
" transform="scale(0.015625)"/>
      <path id="DejaVuSans-Bold-57" d="M 1759 4494
L 1759 3500
L 2913 3500
L 2913 2700
L 1759 2700
L 1759 1216
Q 1759 972 1856 886
Q 1953 800 2241 800
L 2816 800
L 2816 0
L 1856 0
Q 1194 0 917 276
Q 641 553 641 1216
L 641 2700
L 84 2700
L 84 3500
L 641 3500
L 641 4494
L 1759 4494
z
" transform="scale(0.015625)"/>
      <path id="DejaVuSans-Bold-48" d="M 4031 1759
L 4031 1441
L 1416 1441
Q 1456 1047 1700 850
Q 1944 653 2381 653
Q 2734 653 3104 758
Q 3475 863 3866 1075
L 3866 213
Q 3469 63 3072 -14
Q 2675 -91 2278 -91
Q 1328 -91 801 392
Q 275 875 275 1747
Q 275 2603 792 3093
Q 1309 3584 2216 3584
Q 3041 3584 3536 3087
Q 4031 2591 4031 1759
z
M 2881 2131
Q 2881 2450 2695 2645
Q 2509 2841 2209 2841
Q 1884 2841 1681 2658
Q 1478 2475 1428 2131
L 2881 2131
z
" transform="scale(0.015625)"/>
      <path id="DejaVuSans-Bold-4f" d="M 538 4863
L 1656 4863
L 1656 0
L 538 0
L 538 4863
z
" transform="scale(0.015625)"/>
     </defs>
     <use xlink:href="#DejaVuSans-Bold-27"/>
     <use xlink:href="#DejaVuSans-Bold-13" transform="translate(83.015625 0)"/>
     <use xlink:href="#DejaVuSans-Bold-15" transform="translate(152.59375 0)"/>
     <use xlink:href="#DejaVuSans-Bold-1a" transform="translate(222.171875 0)"/>
     <use xlink:href="#DejaVuSans-Bold-10" transform="translate(291.75 0)"/>
     <use xlink:href="#DejaVuSans-Bold-26" transform="translate(333.25 0)"/>
     <use xlink:href="#DejaVuSans-Bold-3" transform="translate(406.640625 0)"/>
     <use xlink:href="#DejaVuSans-Bold-50" transform="translate(441.453125 0)"/>
     <use xlink:href="#DejaVuSans-Bold-44" transform="translate(545.65625 0)"/>
     <use xlink:href="#DejaVuSans-Bold-51" transform="translate(613.140625 0)"/>
     <use xlink:href="#DejaVuSans-Bold-58" transform="translate(684.328125 0)"/>
     <use xlink:href="#DejaVuSans-Bold-56" transform="translate(755.515625 0)"/>
     <use xlink:href="#DejaVuSans-Bold-46" transform="translate(815.03125 0)"/>
     <use xlink:href="#DejaVuSans-Bold-55" transform="translate(874.3125 0)"/>
     <use xlink:href="#DejaVuSans-Bold-4c" transform="translate(923.625 0)"/>
     <use xlink:href="#DejaVuSans-Bold-53" transform="translate(957.90625 0)"/>
     <use xlink:href="#DejaVuSans-Bold-57" transform="translate(1029.484375 0)"/>
     <use xlink:href="#DejaVuSans-Bold-3" transform="translate(1077.28125 0)"/>
     <use xlink:href="#DejaVuSans-Bold-55" transform="translate(1112.09375 0)"/>
     <use xlink:href="#DejaVuSans-Bold-48" transform="translate(1161.40625 0)"/>
     <use xlink:href="#DejaVuSans-Bold-56" transform="translate(1229.234375 0)"/>
     <use xlink:href="#DejaVuSans-Bold-58" transform="translate(1288.75 0)"/>
     <use xlink:href="#DejaVuSans-Bold-4f" transform="translate(1359.9375 0)"/>
     <use xlink:href="#DejaVuSans-Bold-57" transform="translate(1394.21875 0)"/>
     <use xlink:href="#DejaVuSans-Bold-56" transform="translate(1442.015625 0)"/>
     <use xlink:href="#DejaVuSans-Bold-3" transform="translate(1501.53125 0)"/>
     <use xlink:href="#DejaVuSans-Bold-50" transform="translate(1536.34375 0)"/>
     <use xlink:href="#DejaVuSans-Bold-44" transform="translate(1640.546875 0)"/>
     <use xlink:href="#DejaVuSans-Bold-53" transform="translate(1708.03125 0)"/>
    </g>
   </g>
   <g id="text_2">
    <!-- Results and Discussion are drafted from closed evidence only; no new experiment or Gate 6 authority is introduced. -->
    <g style="fill: #68737d" transform="translate(21.4848 49.117762) scale(0.092 -0.092)">
     <defs>
      <path id="DejaVuSans-35" d="M 2841 2188
Q 3044 2119 3236 1894
Q 3428 1669 3622 1275
L 4263 0
L 3584 0
L 2988 1197
Q 2756 1666 2539 1819
Q 2322 1972 1947 1972
L 1259 1972
L 1259 0
L 628 0
L 628 4666
L 2053 4666
Q 2853 4666 3247 4331
Q 3641 3997 3641 3322
Q 3641 2881 3436 2590
Q 3231 2300 2841 2188
z
M 1259 4147
L 1259 2491
L 2053 2491
Q 2509 2491 2742 2702
Q 2975 2913 2975 3322
Q 2975 3731 2742 3939
Q 2509 4147 2053 4147
L 1259 4147
z
" transform="scale(0.015625)"/>
      <path id="DejaVuSans-48" d="M 3597 1894
L 3597 1613
L 953 1613
Q 991 1019 1311 708
Q 1631 397 2203 397
Q 2534 397 2845 478
Q 3156 559 3463 722
L 3463 178
Q 3153 47 2828 -22
Q 2503 -91 2169 -91
Q 1331 -91 842 396
Q 353 884 353 1716
Q 353 2575 817 3079
Q 1281 3584 2069 3584
Q 2775 3584 3186 3129
Q 3597 2675 3597 1894
z
M 3022 2063
Q 3016 2534 2758 2815
Q 2500 3097 2075 3097
Q 1594 3097 1305 2825
Q 1016 2553 972 2059
L 3022 2063
z
" transform="scale(0.015625)"/>
      <path id="DejaVuSans-56" d="M 2834 3397
L 2834 2853
Q 2591 2978 2328 3040
Q 2066 3103 1784 3103
Q 1356 3103 1142 2972
Q 928 2841 928 2578
Q 928 2378 1081 2264
Q 1234 2150 1697 2047
L 1894 2003
Q 2506 1872 2764 1633
Q 3022 1394 3022 966
Q 3022 478 2636 193
Q 2250 -91 1575 -91
Q 1294 -91 989 -36
Q 684 19 347 128
L 347 722
Q 666 556 975 473
Q 1284 391 1588 391
Q 1994 391 2212 530
Q 2431 669 2431 922
Q 2431 1156 2273 1281
Q 2116 1406 1581 1522
L 1381 1569
Q 847 1681 609 1914
Q 372 2147 372 2553
Q 372 3047 722 3315
Q 1072 3584 1716 3584
Q 2034 3584 2315 3537
Q 2597 3491 2834 3397
z
" transform="scale(0.015625)"/>
      <path id="DejaVuSans-58" d="M 544 1381
L 544 3500
L 1119 3500
L 1119 1403
Q 1119 906 1312 657
Q 1506 409 1894 409
Q 2359 409 2629 706
Q 2900 1003 2900 1516
L 2900 3500
L 3475 3500
L 3475 0
L 2900 0
L 2900 538
Q 2691 219 2414 64
Q 2138 -91 1772 -91
Q 1169 -91 856 284
Q 544 659 544 1381
z
M 1991 3584
L 1991 3584
z
" transform="scale(0.015625)"/>
      <path id="DejaVuSans-4f" d="M 603 4863
L 1178 4863
L 1178 0
L 603 0
L 603 4863
z
" transform="scale(0.015625)"/>
      <path id="DejaVuSans-57" d="M 1172 4494
L 1172 3500
L 2356 3500
L 2356 3053
L 1172 3053
L 1172 1153
Q 1172 725 1289 603
Q 1406 481 1766 481
L 2356 481
L 2356 0
L 1766 0
Q 1100 0 847 248
Q 594 497 594 1153
L 594 3053
L 172 3053
L 172 3500
L 594 3500
L 594 4494
L 1172 4494
z
" transform="scale(0.015625)"/>
      <path id="DejaVuSans-3" transform="scale(0.015625)"/>
      <path id="DejaVuSans-44" d="M 2194 1759
Q 1497 1759 1228 1600
Q 959 1441 959 1056
Q 959 750 1161 570
Q 1363 391 1709 391
Q 2188 391 2477 730
Q 2766 1069 2766 1631
L 2766 1759
L 2194 1759
z
M 3341 1997
L 3341 0
L 2766 0
L 2766 531
Q 2569 213 2275 61
Q 1981 -91 1556 -91
Q 1019 -91 701 211
Q 384 513 384 1019
Q 384 1609 779 1909
Q 1175 2209 1959 2209
L 2766 2209
L 2766 2266
Q 2766 2663 2505 2880
Q 2244 3097 1772 3097
Q 1472 3097 1187 3025
Q 903 2953 641 2809
L 641 3341
Q 956 3463 1253 3523
Q 1550 3584 1831 3584
Q 2591 3584 2966 3190
Q 3341 2797 3341 1997
z
" transform="scale(0.015625)"/>
      <path id="DejaVuSans-51" d="M 3513 2113
L 3513 0
L 2938 0
L 2938 2094
Q 2938 2591 2744 2837
Q 2550 3084 2163 3084
Q 1697 3084 1428 2787
Q 1159 2491 1159 1978
L 1159 0
L 581 0
L 581 3500
L 1159 3500
L 1159 2956
Q 1366 3272 1645 3428
Q 1925 3584 2291 3584
Q 2894 3584 3203 3211
Q 3513 2838 3513 2113
z
" transform="scale(0.015625)"/>
      <path id="DejaVuSans-47" d="M 2906 2969
L 2906 4863
L 3481 4863
L 3481 0
L 2906 0
L 2906 525
Q 2725 213 2448 61
Q 2172 -91 1784 -91
Q 1150 -91 751 415
Q 353 922 353 1747
Q 353 2572 751 3078
Q 1150 3584 1784 3584
Q 2172 3584 2448 3432
Q 2725 3281 2906 2969
z
M 947 1747
Q 947 1113 1208 752
Q 1469 391 1925 391
Q 2381 391 2643 752
Q 2906 1113 2906 1747
Q 2906 2381 2643 2742
Q 2381 3103 1925 3103
Q 1469 3103 1208 2742
Q 947 2381 947 1747
z
" transform="scale(0.015625)"/>
      <path id="DejaVuSans-27" d="M 1259 4147
L 1259 519
L 2022 519
Q 2988 519 3436 956
Q 3884 1394 3884 2338
Q 3884 3275 3436 3711
Q 2988 4147 2022 4147
L 1259 4147
z
M 628 4666
L 1925 4666
Q 3281 4666 3915 4102
Q 4550 3538 4550 2338
Q 4550 1131 3912 565
Q 3275 0 1925 0
L 628 0
L 628 4666
z
" transform="scale(0.015625)"/>
      <path id="DejaVuSans-4c" d="M 603 3500
L 1178 3500
L 1178 0
L 603 0
L 603 3500
z
M 603 4863
L 1178 4863
L 1178 4134
L 603 4134
L 603 4863
z
" transform="scale(0.015625)"/>
      <path id="DejaVuSans-46" d="M 3122 3366
L 3122 2828
Q 2878 2963 2633 3030
Q 2388 3097 2138 3097
Q 1578 3097 1268 2742
Q 959 2388 959 1747
Q 959 1106 1268 751
Q 1578 397 2138 397
Q 2388 397 2633 464
Q 2878 531 3122 666
L 3122 134
Q 2881 22 2623 -34
Q 2366 -91 2075 -91
Q 1284 -91 818 406
Q 353 903 353 1747
Q 353 2603 823 3093
Q 1294 3584 2113 3584
Q 2378 3584 2631 3529
Q 2884 3475 3122 3366
z
" transform="scale(0.015625)"/>
      <path id="DejaVuSans-52" d="M 1959 3097
Q 1497 3097 1228 2736
Q 959 2375 959 1747
Q 959 1119 1226 758
Q 1494 397 1959 397
Q 2419 397 2687 759
Q 2956 1122 2956 1747
Q 2956 2369 2687 2733
Q 2419 3097 1959 3097
z
M 1959 3584
Q 2709 3584 3137 3096
Q 3566 2609 3566 1747
Q 3566 888 3137 398
Q 2709 -91 1959 -91
Q 1206 -91 779 398
Q 353 888 353 1747
Q 353 2609 779 3096
Q 1206 3584 1959 3584
z
" transform="scale(0.015625)"/>
      <path id="DejaVuSans-55" d="M 2631 2963
Q 2534 3019 2420 3045
Q 2306 3072 2169 3072
Q 1681 3072 1420 2755
Q 1159 2438 1159 1844
L 1159 0
L 581 0
L 581 3500
L 1159 3500
L 1159 2956
Q 1341 3275 1631 3429
Q 1922 3584 2338 3584
Q 2397 3584 2469 3576
Q 2541 3569 2628 3553
L 2631 2963
z
" transform="scale(0.015625)"/>
      <path id="DejaVuSans-49" d="M 2375 4863
L 2375 4384
L 1825 4384
Q 1516 4384 1395 4259
Q 1275 4134 1275 3809
L 1275 3500
L 2222 3500
L 2222 3053
L 1275 3053
L 1275 0
L 697 0
L 697 3053
L 147 3053
L 147 3500
L 697 3500
L 697 3744
Q 697 4328 969 4595
Q 1241 4863 1831 4863
L 2375 4863
z
" transform="scale(0.015625)"/>
      <path id="DejaVuSans-50" d="M 3328 2828
Q 3544 3216 3844 3400
Q 4144 3584 4550 3584
Q 5097 3584 5394 3201
Q 5691 2819 5691 2113
L 5691 0
L 5113 0
L 5113 2094
Q 5113 2597 4934 2840
Q 4756 3084 4391 3084
Q 3944 3084 3684 2787
Q 3425 2491 3425 1978
L 3425 0
L 2847 0
L 2847 2094
Q 2847 2600 2669 2842
Q 2491 3084 2119 3084
Q 1678 3084 1418 2786
Q 1159 2488 1159 1978
L 1159 0
L 581 0
L 581 3500
L 1159 3500
L 1159 2956
Q 1356 3278 1631 3431
Q 1906 3584 2284 3584
Q 2666 3584 2933 3390
Q 3200 3197 3328 2828
z
" transform="scale(0.015625)"/>
      <path id="DejaVuSans-59" d="M 191 3500
L 800 3500
L 1894 563
L 2988 3500
L 3597 3500
L 2284 0
L 1503 0
L 191 3500
z
" transform="scale(0.015625)"/>
      <path id="DejaVuSans-5c" d="M 2059 -325
Q 1816 -950 1584 -1140
Q 1353 -1331 966 -1331
L 506 -1331
L 506 -850
L 844 -850
Q 1081 -850 1212 -737
Q 1344 -625 1503 -206
L 1606 56
L 191 3500
L 800 3500
L 1894 763
L 2988 3500
L 3597 3500
L 2059 -325
z
" transform="scale(0.015625)"/>
      <path id="DejaVuSans-1e" d="M 750 3309
L 1409 3309
L 1409 2516
L 750 2516
L 750 3309
z
M 750 794
L 1409 794
L 1409 256
L 897 -744
L 494 -744
L 750 256
L 750 794
z
" transform="scale(0.015625)"/>
      <path id="DejaVuSans-5a" d="M 269 3500
L 844 3500
L 1563 769
L 2278 3500
L 2956 3500
L 3675 769
L 4391 3500
L 4966 3500
L 4050 0
L 3372 0
L 2619 2869
L 1863 0
L 1184 0
L 269 3500
z
" transform="scale(0.015625)"/>
      <path id="DejaVuSans-5b" d="M 3513 3500
L 2247 1797
L 3578 0
L 2900 0
L 1881 1375
L 863 0
L 184 0
L 1544 1831
L 300 3500
L 978 3500
L 1906 2253
L 2834 3500
L 3513 3500
z
" transform="scale(0.015625)"/>
      <path id="DejaVuSans-53" d="M 1159 525
L 1159 -1331
L 581 -1331
L 581 3500
L 1159 3500
L 1159 2969
Q 1341 3281 1617 3432
Q 1894 3584 2278 3584
Q 2916 3584 3314 3078
Q 3713 2572 3713 1747
Q 3713 922 3314 415
Q 2916 -91 2278 -91
Q 1894 -91 1617 61
Q 1341 213 1159 525
z
M 3116 1747
Q 3116 2381 2855 2742
Q 2594 3103 2138 3103
Q 1681 3103 1420 2742
Q 1159 2381 1159 1747
Q 1159 1113 1420 752
Q 1681 391 2138 391
Q 2594 391 2855 752
Q 3116 1113 3116 1747
z
" transform="scale(0.015625)"/>
      <path id="DejaVuSans-2a" d="M 3809 666
L 3809 1919
L 2778 1919
L 2778 2438
L 4434 2438
L 4434 434
Q 4069 175 3628 42
Q 3188 -91 2688 -91
Q 1594 -91 976 548
Q 359 1188 359 2328
Q 359 3472 976 4111
Q 1594 4750 2688 4750
Q 3144 4750 3555 4637
Q 3966 4525 4313 4306
L 4313 3634
Q 3963 3931 3569 4081
Q 3175 4231 2741 4231
Q 1884 4231 1454 3753
Q 1025 3275 1025 2328
Q 1025 1384 1454 906
Q 1884 428 2741 428
Q 3075 428 3337 486
Q 3600 544 3809 666
z
" transform="scale(0.015625)"/>
      <path id="DejaVuSans-19" d="M 2113 2584
Q 1688 2584 1439 2293
Q 1191 2003 1191 1497
Q 1191 994 1439 701
Q 1688 409 2113 409
Q 2538 409 2786 701
Q 3034 994 3034 1497
Q 3034 2003 2786 2293
Q 2538 2584 2113 2584
z
M 3366 4563
L 3366 3988
Q 3128 4100 2886 4159
Q 2644 4219 2406 4219
Q 1781 4219 1451 3797
Q 1122 3375 1075 2522
Q 1259 2794 1537 2939
Q 1816 3084 2150 3084
Q 2853 3084 3261 2657
Q 3669 2231 3669 1497
Q 3669 778 3244 343
Q 2819 -91 2113 -91
Q 1303 -91 875 529
Q 447 1150 447 2328
Q 447 3434 972 4092
Q 1497 4750 2381 4750
Q 2619 4750 2861 4703
Q 3103 4656 3366 4563
z
" transform="scale(0.015625)"/>
      <path id="DejaVuSans-4b" d="M 3513 2113
L 3513 0
L 2938 0
L 2938 2094
Q 2938 2591 2744 2837
Q 2550 3084 2163 3084
Q 1697 3084 1428 2787
Q 1159 2491 1159 1978
L 1159 0
L 581 0
L 581 4863
L 1159 4863
L 1159 2956
Q 1366 3272 1645 3428
Q 1925 3584 2291 3584
Q 2894 3584 3203 3211
Q 3513 2838 3513 2113
z
" transform="scale(0.015625)"/>
      <path id="DejaVuSans-11" d="M 684 794
L 1344 794
L 1344 0
L 684 0
L 684 794
z
" transform="scale(0.015625)"/>
     </defs>
     <use xlink:href="#DejaVuSans-35"/>
     <use xlink:href="#DejaVuSans-48" transform="translate(65 0)"/>
     <use xlink:href="#DejaVuSans-56" transform="translate(126.53125 0)"/>
     <use xlink:href="#DejaVuSans-58" transform="translate(178.625 0)"/>
     <use xlink:href="#DejaVuSans-4f" transform="translate(242 0)"/>
     <use xlink:href="#DejaVuSans-57" transform="translate(269.78125 0)"/>
     <use xlink:href="#DejaVuSans-56" transform="translate(308.984375 0)"/>
     <use xlink:href="#DejaVuSans-3" transform="translate(361.078125 0)"/>
     <use xlink:href="#DejaVuSans-44" transform="translate(392.859375 0)"/>
     <use xlink:href="#DejaVuSans-51" transform="translate(454.140625 0)"/>
     <use xlink:href="#DejaVuSans-47" transform="translate(517.515625 0)"/>
     <use xlink:href="#DejaVuSans-3" transform="translate(581 0)"/>
     <use xlink:href="#DejaVuSans-27" transform="translate(612.78125 0)"/>
     <use xlink:href="#DejaVuSans-4c" transform="translate(689.78125 0)"/>
     <use xlink:href="#DejaVuSans-56" transform="translate(717.5625 0)"/>
     <use xlink:href="#DejaVuSans-46" transform="translate(769.65625 0)"/>
     <use xlink:href="#DejaVuSans-58" transform="translate(824.640625 0)"/>
     <use xlink:href="#DejaVuSans-56" transform="translate(888.015625 0)"/>
     <use xlink:href="#DejaVuSans-56" transform="translate(940.109375 0)"/>
     <use xlink:href="#DejaVuSans-4c" transform="translate(992.203125 0)"/>
     <use xlink:href="#DejaVuSans-52" transform="translate(1019.984375 0)"/>
     <use xlink:href="#DejaVuSans-51" transform="translate(1081.171875 0)"/>
     <use xlink:href="#DejaVuSans-3" transform="translate(1144.546875 0)"/>
     <use xlink:href="#DejaVuSans-44" transform="translate(1176.328125 0)"/>
     <use xlink:href="#DejaVuSans-55" transform="translate(1237.609375 0)"/>
     <use xlink:href="#DejaVuSans-48" transform="translate(1276.515625 0)"/>
     <use xlink:href="#DejaVuSans-3" transform="translate(1338.046875 0)"/>
     <use xlink:href="#DejaVuSans-47" transform="translate(1369.828125 0)"/>
     <use xlink:href="#DejaVuSans-55" transform="translate(1433.3125 0)"/>
     <use xlink:href="#DejaVuSans-44" transform="translate(1474.421875 0)"/>
     <use xlink:href="#DejaVuSans-49" transform="translate(1535.703125 0)"/>
     <use xlink:href="#DejaVuSans-57" transform="translate(1569.15625 0)"/>
     <use xlink:href="#DejaVuSans-48" transform="translate(1608.359375 0)"/>
     <use xlink:href="#DejaVuSans-47" transform="translate(1669.890625 0)"/>
     <use xlink:href="#DejaVuSans-3" transform="translate(1733.375 0)"/>
     <use xlink:href="#DejaVuSans-49" transform="translate(1765.15625 0)"/>
     <use xlink:href="#DejaVuSans-55" transform="translate(1800.359375 0)"/>
     <use xlink:href="#DejaVuSans-52" transform="translate(1839.265625 0)"/>
     <use xlink:href="#DejaVuSans-50" transform="translate(1900.453125 0)"/>
     <use xlink:href="#DejaVuSans-3" transform="translate(1997.859375 0)"/>
     <use xlink:href="#DejaVuSans-46" transform="translate(2029.640625 0)"/>
     <use xlink:href="#DejaVuSans-4f" transform="translate(2084.625 0)"/>
     <use xlink:href="#DejaVuSans-52" transform="translate(2112.40625 0)"/>
     <use xlink:href="#DejaVuSans-56" transform="translate(2173.59375 0)"/>
     <use xlink:href="#DejaVuSans-48" transform="translate(2225.6875 0)"/>
     <use xlink:href="#DejaVuSans-47" transform="translate(2287.21875 0)"/>
     <use xlink:href="#DejaVuSans-3" transform="translate(2350.703125 0)"/>
     <use xlink:href="#DejaVuSans-48" transform="translate(2382.484375 0)"/>
     <use xlink:href="#DejaVuSans-59" transform="translate(2444.015625 0)"/>
     <use xlink:href="#DejaVuSans-4c" transform="translate(2503.203125 0)"/>
     <use xlink:href="#DejaVuSans-47" transform="translate(2530.984375 0)"/>
     <use xlink:href="#DejaVuSans-48" transform="translate(2594.46875 0)"/>
     <use xlink:href="#DejaVuSans-51" transform="translate(2656 0)"/>
     <use xlink:href="#DejaVuSans-46" transform="translate(2719.375 0)"/>
     <use xlink:href="#DejaVuSans-48" transform="translate(2774.359375 0)"/>
     <use xlink:href="#DejaVuSans-3" transform="translate(2835.890625 0)"/>
     <use xlink:href="#DejaVuSans-52" transform="translate(2867.671875 0)"/>
     <use xlink:href="#DejaVuSans-51" transform="translate(2928.859375 0)"/>
     <use xlink:href="#DejaVuSans-4f" transform="translate(2992.234375 0)"/>
     <use xlink:href="#DejaVuSans-5c" transform="translate(3020.015625 0)"/>
     <use xlink:href="#DejaVuSans-1e" transform="translate(3079.203125 0)"/>
     <use xlink:href="#DejaVuSans-3" transform="translate(3112.890625 0)"/>
     <use xlink:href="#DejaVuSans-51" transform="translate(3144.671875 0)"/>
     <use xlink:href="#DejaVuSans-52" transform="translate(3208.046875 0)"/>
     <use xlink:href="#DejaVuSans-3" transform="translate(3269.234375 0)"/>
     <use xlink:href="#DejaVuSans-51" transform="translate(3301.015625 0)"/>
     <use xlink:href="#DejaVuSans-48" transform="translate(3364.390625 0)"/>
     <use xlink:href="#DejaVuSans-5a" transform="translate(3425.921875 0)"/>
     <use xlink:href="#DejaVuSans-3" transform="translate(3507.703125 0)"/>
     <use xlink:href="#DejaVuSans-48" transform="translate(3539.484375 0)"/>
     <use xlink:href="#DejaVuSans-5b" transform="translate(3599.265625 0)"/>
     <use xlink:href="#DejaVuSans-53" transform="translate(3658.453125 0)"/>
     <use xlink:href="#DejaVuSans-48" transform="translate(3721.9375 0)"/>
     <use xlink:href="#DejaVuSans-55" transform="translate(3783.46875 0)"/>
     <use xlink:href="#DejaVuSans-4c" transform="translate(3824.578125 0)"/>
     <use xlink:href="#DejaVuSans-50" transform="translate(3852.359375 0)"/>
     <use xlink:href="#DejaVuSans-48" transform="translate(3949.765625 0)"/>
     <use xlink:href="#DejaVuSans-51" transform="translate(4011.296875 0)"/>
     <use xlink:href="#DejaVuSans-57" transform="translate(4074.671875 0)"/>
     <use xlink:href="#DejaVuSans-3" transform="translate(4113.875 0)"/>
     <use xlink:href="#DejaVuSans-52" transform="translate(4145.65625 0)"/>
     <use xlink:href="#DejaVuSans-55" transform="translate(4206.84375 0)"/>
     <use xlink:href="#DejaVuSans-3" transform="translate(4247.953125 0)"/>
     <use xlink:href="#DejaVuSans-2a" transform="translate(4279.734375 0)"/>
     <use xlink:href="#DejaVuSans-44" transform="translate(4357.21875 0)"/>
     <use xlink:href="#DejaVuSans-57" transform="translate(4418.5 0)"/>
     <use xlink:href="#DejaVuSans-48" transform="translate(4457.703125 0)"/>
     <use xlink:href="#DejaVuSans-3" transform="translate(4519.234375 0)"/>
     <use xlink:href="#DejaVuSans-19" transform="translate(4551.015625 0)"/>
     <use xlink:href="#DejaVuSans-3" transform="translate(4614.640625 0)"/>
     <use xlink:href="#DejaVuSans-44" transform="translate(4646.421875 0)"/>
     <use xlink:href="#DejaVuSans-58" transform="translate(4707.703125 0)"/>
     <use xlink:href="#DejaVuSans-57" transform="translate(4771.078125 0)"/>
     <use xlink:href="#DejaVuSans-4b" transform="translate(4810.28125 0)"/>
     <use xlink:href="#DejaVuSans-52" transform="translate(4873.65625 0)"/>
     <use xlink:href="#DejaVuSans-55" transform="translate(4934.84375 0)"/>
     <use xlink:href="#DejaVuSans-4c" transform="translate(4975.953125 0)"/>
     <use xlink:href="#DejaVuSans-57" transform="translate(5003.734375 0)"/>
     <use xlink:href="#DejaVuSans-5c" transform="translate(5042.9375 0)"/>
     <use xlink:href="#DejaVuSans-3" transform="translate(5102.125 0)"/>
     <use xlink:href="#DejaVuSans-4c" transform="translate(5133.90625 0)"/>
     <use xlink:href="#DejaVuSans-56" transform="translate(5161.6875 0)"/>
     <use xlink:href="#DejaVuSans-3" transform="translate(5213.78125 0)"/>
     <use xlink:href="#DejaVuSans-4c" transform="translate(5245.5625 0)"/>
     <use xlink:href="#DejaVuSans-51" transform="translate(5273.34375 0)"/>
     <use xlink:href="#DejaVuSans-57" transform="translate(5336.71875 0)"/>
     <use xlink:href="#DejaVuSans-55" transform="translate(5375.921875 0)"/>
     <use xlink:href="#DejaVuSans-52" transform="translate(5414.828125 0)"/>
     <use xlink:href="#DejaVuSans-47" transform="translate(5476.015625 0)"/>
     <use xlink:href="#DejaVuSans-58" transform="translate(5539.5 0)"/>
     <use xlink:href="#DejaVuSans-46" transform="translate(5602.875 0)"/>
     <use xlink:href="#DejaVuSans-48" transform="translate(5657.859375 0)"/>
     <use xlink:href="#DejaVuSans-47" transform="translate(5719.390625 0)"/>
     <use xlink:href="#DejaVuSans-11" transform="translate(5782.875 0)"/>
    </g>
   </g>
   <g id="text_3">
    <!-- Results: Gate 5 -->
    <g style="fill: #17202a" transform="translate(55.76832 94.354837) scale(0.1 -0.1)">
     <defs>
      <path id="DejaVuSans-Bold-35" d="M 2297 2597
Q 2675 2597 2839 2737
Q 3003 2878 3003 3200
Q 3003 3519 2839 3656
Q 2675 3794 2297 3794
L 1791 3794
L 1791 2597
L 2297 2597
z
M 1791 1766
L 1791 0
L 588 0
L 588 4666
L 2425 4666
Q 3347 4666 3776 4356
Q 4206 4047 4206 3378
Q 4206 2916 3982 2619
Q 3759 2322 3309 2181
Q 3556 2125 3751 1926
Q 3947 1728 4147 1325
L 4800 0
L 3519 0
L 2950 1159
Q 2778 1509 2601 1637
Q 2425 1766 2131 1766
L 1791 1766
z
" transform="scale(0.015625)"/>
      <path id="DejaVuSans-Bold-1d" d="M 716 3500
L 1844 3500
L 1844 2291
L 716 2291
L 716 3500
z
M 716 1209
L 1844 1209
L 1844 0
L 716 0
L 716 1209
z
" transform="scale(0.015625)"/>
      <path id="DejaVuSans-Bold-2a" d="M 4781 347
Q 4331 128 3847 18
Q 3363 -91 2847 -91
Q 1681 -91 1000 561
Q 319 1213 319 2328
Q 319 3456 1012 4103
Q 1706 4750 2913 4750
Q 3378 4750 3804 4662
Q 4231 4575 4609 4403
L 4609 3438
Q 4219 3659 3833 3768
Q 3447 3878 3059 3878
Q 2341 3878 1952 3476
Q 1563 3075 1563 2328
Q 1563 1588 1938 1184
Q 2313 781 3003 781
Q 3191 781 3352 804
Q 3513 828 3641 878
L 3641 1784
L 2906 1784
L 2906 2591
L 4781 2591
L 4781 347
z
" transform="scale(0.015625)"/>
      <path id="DejaVuSans-Bold-18" d="M 678 4666
L 3669 4666
L 3669 3781
L 1638 3781
L 1638 3059
Q 1775 3097 1914 3117
Q 2053 3138 2203 3138
Q 3056 3138 3531 2711
Q 4006 2284 4006 1522
Q 4006 766 3489 337
Q 2972 -91 2053 -91
Q 1656 -91 1267 -14
Q 878 63 494 219
L 494 1166
Q 875 947 1217 837
Q 1559 728 1863 728
Q 2300 728 2551 942
Q 2803 1156 2803 1522
Q 2803 1891 2551 2103
Q 2300 2316 1863 2316
Q 1603 2316 1309 2248
Q 1016 2181 678 2041
L 678 4666
z
" transform="scale(0.015625)"/>
     </defs>
     <use xlink:href="#DejaVuSans-Bold-35"/>
     <use xlink:href="#DejaVuSans-Bold-48" transform="translate(77 0)"/>
     <use xlink:href="#DejaVuSans-Bold-56" transform="translate(144.828125 0)"/>
     <use xlink:href="#DejaVuSans-Bold-58" transform="translate(204.34375 0)"/>
     <use xlink:href="#DejaVuSans-Bold-4f" transform="translate(275.53125 0)"/>
     <use xlink:href="#DejaVuSans-Bold-57" transform="translate(309.8125 0)"/>
     <use xlink:href="#DejaVuSans-Bold-56" transform="translate(357.609375 0)"/>
     <use xlink:href="#DejaVuSans-Bold-1d" transform="translate(417.125 0)"/>
     <use xlink:href="#DejaVuSans-Bold-3" transform="translate(457.109375 0)"/>
     <use xlink:href="#DejaVuSans-Bold-2a" transform="translate(491.921875 0)"/>
     <use xlink:href="#DejaVuSans-Bold-44" transform="translate(574 0)"/>
     <use xlink:href="#DejaVuSans-Bold-57" transform="translate(641.484375 0)"/>
     <use xlink:href="#DejaVuSans-Bold-48" transform="translate(689.28125 0)"/>
     <use xlink:href="#DejaVuSans-Bold-3" transform="translate(757.109375 0)"/>
     <use xlink:href="#DejaVuSans-Bold-18" transform="translate(791.921875 0)"/>
    </g>
   </g>
   <g id="text_4">
    <!-- Q01 failed against C06. -->
    <g style="fill: #17202a" transform="translate(55.76832 111.995066) scale(0.079 -0.079)">
     <defs>
      <path id="DejaVuSans-34" d="M 2522 4238
Q 1834 4238 1429 3725
Q 1025 3213 1025 2328
Q 1025 1447 1429 934
Q 1834 422 2522 422
Q 3209 422 3611 934
Q 4013 1447 4013 2328
Q 4013 3213 3611 3725
Q 3209 4238 2522 4238
z
M 3406 84
L 4238 -825
L 3475 -825
L 2784 -78
Q 2681 -84 2626 -87
Q 2572 -91 2522 -91
Q 1538 -91 948 567
Q 359 1225 359 2328
Q 359 3434 948 4092
Q 1538 4750 2522 4750
Q 3503 4750 4090 4092
Q 4678 3434 4678 2328
Q 4678 1516 4351 937
Q 4025 359 3406 84
z
" transform="scale(0.015625)"/>
      <path id="DejaVuSans-13" d="M 2034 4250
Q 1547 4250 1301 3770
Q 1056 3291 1056 2328
Q 1056 1369 1301 889
Q 1547 409 2034 409
Q 2525 409 2770 889
Q 3016 1369 3016 2328
Q 3016 3291 2770 3770
Q 2525 4250 2034 4250
z
M 2034 4750
Q 2819 4750 3233 4129
Q 3647 3509 3647 2328
Q 3647 1150 3233 529
Q 2819 -91 2034 -91
Q 1250 -91 836 529
Q 422 1150 422 2328
Q 422 3509 836 4129
Q 1250 4750 2034 4750
z
" transform="scale(0.015625)"/>
      <path id="DejaVuSans-14" d="M 794 531
L 1825 531
L 1825 4091
L 703 3866
L 703 4441
L 1819 4666
L 2450 4666
L 2450 531
L 3481 531
L 3481 0
L 794 0
L 794 531
z
" transform="scale(0.015625)"/>
      <path id="DejaVuSans-4a" d="M 2906 1791
Q 2906 2416 2648 2759
Q 2391 3103 1925 3103
Q 1463 3103 1205 2759
Q 947 2416 947 1791
Q 947 1169 1205 825
Q 1463 481 1925 481
Q 2391 481 2648 825
Q 2906 1169 2906 1791
z
M 3481 434
Q 3481 -459 3084 -895
Q 2688 -1331 1869 -1331
Q 1566 -1331 1297 -1286
Q 1028 -1241 775 -1147
L 775 -588
Q 1028 -725 1275 -790
Q 1522 -856 1778 -856
Q 2344 -856 2625 -561
Q 2906 -266 2906 331
L 2906 616
Q 2728 306 2450 153
Q 2172 0 1784 0
Q 1141 0 747 490
Q 353 981 353 1791
Q 353 2603 747 3093
Q 1141 3584 1784 3584
Q 2172 3584 2450 3431
Q 2728 3278 2906 2969
L 2906 3500
L 3481 3500
L 3481 434
z
" transform="scale(0.015625)"/>
      <path id="DejaVuSans-26" d="M 4122 4306
L 4122 3641
Q 3803 3938 3442 4084
Q 3081 4231 2675 4231
Q 1875 4231 1450 3742
Q 1025 3253 1025 2328
Q 1025 1406 1450 917
Q 1875 428 2675 428
Q 3081 428 3442 575
Q 3803 722 4122 1019
L 4122 359
Q 3791 134 3420 21
Q 3050 -91 2638 -91
Q 1578 -91 968 557
Q 359 1206 359 2328
Q 359 3453 968 4101
Q 1578 4750 2638 4750
Q 3056 4750 3426 4639
Q 3797 4528 4122 4306
z
" transform="scale(0.015625)"/>
     </defs>
     <use xlink:href="#DejaVuSans-34"/>
     <use xlink:href="#DejaVuSans-13" transform="translate(78.71875 0)"/>
     <use xlink:href="#DejaVuSans-14" transform="translate(142.34375 0)"/>
     <use xlink:href="#DejaVuSans-3" transform="translate(205.96875 0)"/>
     <use xlink:href="#DejaVuSans-49" transform="translate(237.75 0)"/>
     <use xlink:href="#DejaVuSans-44" transform="translate(272.953125 0)"/>
     <use xlink:href="#DejaVuSans-4c" transform="translate(334.234375 0)"/>
     <use xlink:href="#DejaVuSans-4f" transform="translate(362.015625 0)"/>
     <use xlink:href="#DejaVuSans-48" transform="translate(389.796875 0)"/>
     <use xlink:href="#DejaVuSans-47" transform="translate(451.328125 0)"/>
     <use xlink:href="#DejaVuSans-3" transform="translate(514.8125 0)"/>
     <use xlink:href="#DejaVuSans-44" transform="translate(546.59375 0)"/>
     <use xlink:href="#DejaVuSans-4a" transform="translate(607.875 0)"/>
     <use xlink:href="#DejaVuSans-44" transform="translate(671.359375 0)"/>
     <use xlink:href="#DejaVuSans-4c" transform="translate(732.640625 0)"/>
     <use xlink:href="#DejaVuSans-51" transform="translate(760.421875 0)"/>
     <use xlink:href="#DejaVuSans-56" transform="translate(823.796875 0)"/>
     <use xlink:href="#DejaVuSans-57" transform="translate(875.890625 0)"/>
     <use xlink:href="#DejaVuSans-3" transform="translate(915.09375 0)"/>
     <use xlink:href="#DejaVuSans-26" transform="translate(946.875 0)"/>
     <use xlink:href="#DejaVuSans-13" transform="translate(1016.703125 0)"/>
     <use xlink:href="#DejaVuSans-19" transform="translate(1080.328125 0)"/>
     <use xlink:href="#DejaVuSans-11" transform="translate(1143.953125 0)"/>
    </g>
    <!-- Q01 NRMSE 0.6466 -->
    <g style="fill: #17202a" transform="translate(55.76832 121.875621) scale(0.079 -0.079)">
     <defs>
      <path id="DejaVuSans-31" d="M 628 4666
L 1478 4666
L 3547 763
L 3547 4666
L 4159 4666
L 4159 0
L 3309 0
L 1241 3903
L 1241 0
L 628 0
L 628 4666
z
" transform="scale(0.015625)"/>
      <path id="DejaVuSans-30" d="M 628 4666
L 1569 4666
L 2759 1491
L 3956 4666
L 4897 4666
L 4897 0
L 4281 0
L 4281 4097
L 3078 897
L 2444 897
L 1241 4097
L 1241 0
L 628 0
L 628 4666
z
" transform="scale(0.015625)"/>
      <path id="DejaVuSans-36" d="M 3425 4513
L 3425 3897
Q 3066 4069 2747 4153
Q 2428 4238 2131 4238
Q 1616 4238 1336 4038
Q 1056 3838 1056 3469
Q 1056 3159 1242 3001
Q 1428 2844 1947 2747
L 2328 2669
Q 3034 2534 3370 2195
Q 3706 1856 3706 1288
Q 3706 609 3251 259
Q 2797 -91 1919 -91
Q 1588 -91 1214 -16
Q 841 59 441 206
L 441 856
Q 825 641 1194 531
Q 1563 422 1919 422
Q 2459 422 2753 634
Q 3047 847 3047 1241
Q 3047 1584 2836 1778
Q 2625 1972 2144 2069
L 1759 2144
Q 1053 2284 737 2584
Q 422 2884 422 3419
Q 422 4038 858 4394
Q 1294 4750 2059 4750
Q 2388 4750 2728 4690
Q 3069 4631 3425 4513
z
" transform="scale(0.015625)"/>
      <path id="DejaVuSans-28" d="M 628 4666
L 3578 4666
L 3578 4134
L 1259 4134
L 1259 2753
L 3481 2753
L 3481 2222
L 1259 2222
L 1259 531
L 3634 531
L 3634 0
L 628 0
L 628 4666
z
" transform="scale(0.015625)"/>
      <path id="DejaVuSans-17" d="M 2419 4116
L 825 1625
L 2419 1625
L 2419 4116
z
M 2253 4666
L 3047 4666
L 3047 1625
L 3713 1625
L 3713 1100
L 3047 1100
L 3047 0
L 2419 0
L 2419 1100
L 313 1100
L 313 1709
L 2253 4666
z
" transform="scale(0.015625)"/>
     </defs>
     <use xlink:href="#DejaVuSans-34"/>
     <use xlink:href="#DejaVuSans-13" transform="translate(78.71875 0)"/>
     <use xlink:href="#DejaVuSans-14" transform="translate(142.34375 0)"/>
     <use xlink:href="#DejaVuSans-3" transform="translate(205.96875 0)"/>
     <use xlink:href="#DejaVuSans-31" transform="translate(237.75 0)"/>
     <use xlink:href="#DejaVuSans-35" transform="translate(312.5625 0)"/>
     <use xlink:href="#DejaVuSans-30" transform="translate(382.046875 0)"/>
     <use xlink:href="#DejaVuSans-36" transform="translate(468.328125 0)"/>
     <use xlink:href="#DejaVuSans-28" transform="translate(531.8125 0)"/>
     <use xlink:href="#DejaVuSans-3" transform="translate(595 0)"/>
     <use xlink:href="#DejaVuSans-13" transform="translate(626.78125 0)"/>
     <use xlink:href="#DejaVuSans-11" transform="translate(690.40625 0)"/>
     <use xlink:href="#DejaVuSans-19" transform="translate(722.1875 0)"/>
     <use xlink:href="#DejaVuSans-17" transform="translate(785.8125 0)"/>
     <use xlink:href="#DejaVuSans-19" transform="translate(849.4375 0)"/>
     <use xlink:href="#DejaVuSans-19" transform="translate(913.0625 0)"/>
    </g>
    <!-- C06 NRMSE 0.0087 -->
    <g style="fill: #17202a" transform="translate(55.76832 131.966637) scale(0.079 -0.079)">
     <defs>
      <path id="DejaVuSans-1b" d="M 2034 2216
Q 1584 2216 1326 1975
Q 1069 1734 1069 1313
Q 1069 891 1326 650
Q 1584 409 2034 409
Q 2484 409 2743 651
Q 3003 894 3003 1313
Q 3003 1734 2745 1975
Q 2488 2216 2034 2216
z
M 1403 2484
Q 997 2584 770 2862
Q 544 3141 544 3541
Q 544 4100 942 4425
Q 1341 4750 2034 4750
Q 2731 4750 3128 4425
Q 3525 4100 3525 3541
Q 3525 3141 3298 2862
Q 3072 2584 2669 2484
Q 3125 2378 3379 2068
Q 3634 1759 3634 1313
Q 3634 634 3220 271
Q 2806 -91 2034 -91
Q 1263 -91 848 271
Q 434 634 434 1313
Q 434 1759 690 2068
Q 947 2378 1403 2484
z
M 1172 3481
Q 1172 3119 1398 2916
Q 1625 2713 2034 2713
Q 2441 2713 2670 2916
Q 2900 3119 2900 3481
Q 2900 3844 2670 4047
Q 2441 4250 2034 4250
Q 1625 4250 1398 4047
Q 1172 3844 1172 3481
z
" transform="scale(0.015625)"/>
      <path id="DejaVuSans-1a" d="M 525 4666
L 3525 4666
L 3525 4397
L 1831 0
L 1172 0
L 2766 4134
L 525 4134
L 525 4666
z
" transform="scale(0.015625)"/>
     </defs>
     <use xlink:href="#DejaVuSans-26"/>
     <use xlink:href="#DejaVuSans-13" transform="translate(69.828125 0)"/>
     <use xlink:href="#DejaVuSans-19" transform="translate(133.453125 0)"/>
     <use xlink:href="#DejaVuSans-3" transform="translate(197.078125 0)"/>
     <use xlink:href="#DejaVuSans-31" transform="translate(228.859375 0)"/>
     <use xlink:href="#DejaVuSans-35" transform="translate(303.671875 0)"/>
     <use xlink:href="#DejaVuSans-30" transform="translate(373.15625 0)"/>
     <use xlink:href="#DejaVuSans-36" transform="translate(459.4375 0)"/>
     <use xlink:href="#DejaVuSans-28" transform="translate(522.921875 0)"/>
     <use xlink:href="#DejaVuSans-3" transform="translate(586.109375 0)"/>
     <use xlink:href="#DejaVuSans-13" transform="translate(617.890625 0)"/>
     <use xlink:href="#DejaVuSans-11" transform="translate(681.515625 0)"/>
     <use xlink:href="#DejaVuSans-13" transform="translate(713.296875 0)"/>
     <use xlink:href="#DejaVuSans-13" transform="translate(776.921875 0)"/>
     <use xlink:href="#DejaVuSans-1b" transform="translate(840.546875 0)"/>
     <use xlink:href="#DejaVuSans-1a" transform="translate(904.171875 0)"/>
    </g>
    <!-- Zero qualifying regimes. -->
    <g style="fill: #17202a" transform="translate(55.76832 140.909066) scale(0.079 -0.079)">
     <defs>
      <path id="DejaVuSans-3d" d="M 359 4666
L 4025 4666
L 4025 4184
L 1075 531
L 4097 531
L 4097 0
L 288 0
L 288 481
L 3238 4134
L 359 4134
L 359 4666
z
" transform="scale(0.015625)"/>
      <path id="DejaVuSans-54" d="M 947 1747
Q 947 1113 1208 752
Q 1469 391 1925 391
Q 2381 391 2643 752
Q 2906 1113 2906 1747
Q 2906 2381 2643 2742
Q 2381 3103 1925 3103
Q 1469 3103 1208 2742
Q 947 2381 947 1747
z
M 2906 525
Q 2725 213 2448 61
Q 2172 -91 1784 -91
Q 1150 -91 751 415
Q 353 922 353 1747
Q 353 2572 751 3078
Q 1150 3584 1784 3584
Q 2172 3584 2448 3432
Q 2725 3281 2906 2969
L 2906 3500
L 3481 3500
L 3481 -1331
L 2906 -1331
L 2906 525
z
" transform="scale(0.015625)"/>
     </defs>
     <use xlink:href="#DejaVuSans-3d"/>
     <use xlink:href="#DejaVuSans-48" transform="translate(68.5 0)"/>
     <use xlink:href="#DejaVuSans-55" transform="translate(130.03125 0)"/>
     <use xlink:href="#DejaVuSans-52" transform="translate(168.9375 0)"/>
     <use xlink:href="#DejaVuSans-3" transform="translate(230.125 0)"/>
     <use xlink:href="#DejaVuSans-54" transform="translate(261.90625 0)"/>
     <use xlink:href="#DejaVuSans-58" transform="translate(325.390625 0)"/>
     <use xlink:href="#DejaVuSans-44" transform="translate(388.765625 0)"/>
     <use xlink:href="#DejaVuSans-4f" transform="translate(450.046875 0)"/>
     <use xlink:href="#DejaVuSans-4c" transform="translate(477.828125 0)"/>
     <use xlink:href="#DejaVuSans-49" transform="translate(505.609375 0)"/>
     <use xlink:href="#DejaVuSans-5c" transform="translate(539.0625 0)"/>
     <use xlink:href="#DejaVuSans-4c" transform="translate(598.25 0)"/>
     <use xlink:href="#DejaVuSans-51" transform="translate(626.03125 0)"/>
     <use xlink:href="#DejaVuSans-4a" transform="translate(689.40625 0)"/>
     <use xlink:href="#DejaVuSans-3" transform="translate(752.890625 0)"/>
     <use xlink:href="#DejaVuSans-55" transform="translate(784.671875 0)"/>
     <use xlink:href="#DejaVuSans-48" transform="translate(823.578125 0)"/>
     <use xlink:href="#DejaVuSans-4a" transform="translate(885.109375 0)"/>
     <use xlink:href="#DejaVuSans-4c" transform="translate(948.59375 0)"/>
     <use xlink:href="#DejaVuSans-50" transform="translate(976.375 0)"/>
     <use xlink:href="#DejaVuSans-48" transform="translate(1073.78125 0)"/>
     <use xlink:href="#DejaVuSans-56" transform="translate(1135.3125 0)"/>
     <use xlink:href="#DejaVuSans-11" transform="translate(1187.40625 0)"/>
    </g>
   </g>
   <g id="text_5">
    <!-- Appendix: 5X QML -->
    <g style="fill: #17202a" transform="translate(291.46752 94.354837) scale(0.1 -0.1)">
     <defs>
      <path id="DejaVuSans-Bold-24" d="M 3419 850
L 1538 850
L 1241 0
L 31 0
L 1759 4666
L 3194 4666
L 4922 0
L 3713 0
L 3419 850
z
M 1838 1716
L 3116 1716
L 2478 3572
L 1838 1716
z
" transform="scale(0.015625)"/>
      <path id="DejaVuSans-Bold-47" d="M 2919 2988
L 2919 4863
L 4044 4863
L 4044 0
L 2919 0
L 2919 506
Q 2688 197 2409 53
Q 2131 -91 1766 -91
Q 1119 -91 703 423
Q 288 938 288 1747
Q 288 2556 703 3070
Q 1119 3584 1766 3584
Q 2128 3584 2408 3439
Q 2688 3294 2919 2988
z
M 2181 722
Q 2541 722 2730 984
Q 2919 1247 2919 1747
Q 2919 2247 2730 2509
Q 2541 2772 2181 2772
Q 1825 2772 1636 2509
Q 1447 2247 1447 1747
Q 1447 1247 1636 984
Q 1825 722 2181 722
z
" transform="scale(0.015625)"/>
      <path id="DejaVuSans-Bold-5b" d="M 1422 1791
L 159 3500
L 1344 3500
L 2059 2463
L 2784 3500
L 3969 3500
L 2706 1797
L 4031 0
L 2847 0
L 2059 1106
L 1281 0
L 97 0
L 1422 1791
z
" transform="scale(0.015625)"/>
      <path id="DejaVuSans-Bold-3b" d="M 3188 2381
L 4806 0
L 3553 0
L 2463 1594
L 1381 0
L 122 0
L 1741 2381
L 184 4666
L 1441 4666
L 2463 3163
L 3481 4666
L 4744 4666
L 3188 2381
z
" transform="scale(0.015625)"/>
      <path id="DejaVuSans-Bold-34" d="M 2847 -84
L 2753 -84
Q 1600 -84 959 553
Q 319 1191 319 2328
Q 319 3463 958 4106
Q 1597 4750 2719 4750
Q 3853 4750 4486 4112
Q 5119 3475 5119 2328
Q 5119 1541 4783 972
Q 4447 403 3816 116
L 4756 -934
L 3609 -934
L 2847 -84
z
M 2719 3878
Q 2169 3878 1866 3472
Q 1563 3066 1563 2328
Q 1563 1578 1859 1179
Q 2156 781 2719 781
Q 3272 781 3575 1187
Q 3878 1594 3878 2328
Q 3878 3066 3575 3472
Q 3272 3878 2719 3878
z
" transform="scale(0.015625)"/>
      <path id="DejaVuSans-Bold-30" d="M 588 4666
L 2119 4666
L 3181 2169
L 4250 4666
L 5778 4666
L 5778 0
L 4641 0
L 4641 3413
L 3566 897
L 2803 897
L 1728 3413
L 1728 0
L 588 0
L 588 4666
z
" transform="scale(0.015625)"/>
      <path id="DejaVuSans-Bold-2f" d="M 588 4666
L 1791 4666
L 1791 909
L 3903 909
L 3903 0
L 588 0
L 588 4666
z
" transform="scale(0.015625)"/>
     </defs>
     <use xlink:href="#DejaVuSans-Bold-24"/>
     <use xlink:href="#DejaVuSans-Bold-53" transform="translate(77.390625 0)"/>
     <use xlink:href="#DejaVuSans-Bold-53" transform="translate(148.96875 0)"/>
     <use xlink:href="#DejaVuSans-Bold-48" transform="translate(220.546875 0)"/>
     <use xlink:href="#DejaVuSans-Bold-51" transform="translate(288.375 0)"/>
     <use xlink:href="#DejaVuSans-Bold-47" transform="translate(359.5625 0)"/>
     <use xlink:href="#DejaVuSans-Bold-4c" transform="translate(431.140625 0)"/>
     <use xlink:href="#DejaVuSans-Bold-5b" transform="translate(465.421875 0)"/>
     <use xlink:href="#DejaVuSans-Bold-1d" transform="translate(529.921875 0)"/>
     <use xlink:href="#DejaVuSans-Bold-3" transform="translate(569.90625 0)"/>
     <use xlink:href="#DejaVuSans-Bold-18" transform="translate(604.71875 0)"/>
     <use xlink:href="#DejaVuSans-Bold-3b" transform="translate(674.296875 0)"/>
     <use xlink:href="#DejaVuSans-Bold-3" transform="translate(751.390625 0)"/>
     <use xlink:href="#DejaVuSans-Bold-34" transform="translate(786.203125 0)"/>
     <use xlink:href="#DejaVuSans-Bold-30" transform="translate(871.21875 0)"/>
     <use xlink:href="#DejaVuSans-Bold-2f" transform="translate(970.734375 0)"/>
    </g>
   </g>
   <g id="text_6">
    <!-- Q01b and FQK are negative. -->
    <g style="fill: #17202a" transform="translate(291.46752 111.995066) scale(0.079 -0.079)">
     <defs>
      <path id="DejaVuSans-45" d="M 3116 1747
Q 3116 2381 2855 2742
Q 2594 3103 2138 3103
Q 1681 3103 1420 2742
Q 1159 2381 1159 1747
Q 1159 1113 1420 752
Q 1681 391 2138 391
Q 2594 391 2855 752
Q 3116 1113 3116 1747
z
M 1159 2969
Q 1341 3281 1617 3432
Q 1894 3584 2278 3584
Q 2916 3584 3314 3078
Q 3713 2572 3713 1747
Q 3713 922 3314 415
Q 2916 -91 2278 -91
Q 1894 -91 1617 61
Q 1341 213 1159 525
L 1159 0
L 581 0
L 581 4863
L 1159 4863
L 1159 2969
z
" transform="scale(0.015625)"/>
      <path id="DejaVuSans-29" d="M 628 4666
L 3309 4666
L 3309 4134
L 1259 4134
L 1259 2759
L 3109 2759
L 3109 2228
L 1259 2228
L 1259 0
L 628 0
L 628 4666
z
" transform="scale(0.015625)"/>
      <path id="DejaVuSans-2e" d="M 628 4666
L 1259 4666
L 1259 2694
L 3353 4666
L 4166 4666
L 1850 2491
L 4331 0
L 3500 0
L 1259 2247
L 1259 0
L 628 0
L 628 4666
z
" transform="scale(0.015625)"/>
     </defs>
     <use xlink:href="#DejaVuSans-34"/>
     <use xlink:href="#DejaVuSans-13" transform="translate(78.71875 0)"/>
     <use xlink:href="#DejaVuSans-14" transform="translate(142.34375 0)"/>
     <use xlink:href="#DejaVuSans-45" transform="translate(205.96875 0)"/>
     <use xlink:href="#DejaVuSans-3" transform="translate(269.453125 0)"/>
     <use xlink:href="#DejaVuSans-44" transform="translate(301.234375 0)"/>
     <use xlink:href="#DejaVuSans-51" transform="translate(362.515625 0)"/>
     <use xlink:href="#DejaVuSans-47" transform="translate(425.890625 0)"/>
     <use xlink:href="#DejaVuSans-3" transform="translate(489.375 0)"/>
     <use xlink:href="#DejaVuSans-29" transform="translate(521.15625 0)"/>
     <use xlink:href="#DejaVuSans-34" transform="translate(578.671875 0)"/>
     <use xlink:href="#DejaVuSans-2e" transform="translate(657.390625 0)"/>
     <use xlink:href="#DejaVuSans-3" transform="translate(722.96875 0)"/>
     <use xlink:href="#DejaVuSans-44" transform="translate(754.75 0)"/>
     <use xlink:href="#DejaVuSans-55" transform="translate(816.03125 0)"/>
     <use xlink:href="#DejaVuSans-48" transform="translate(854.9375 0)"/>
     <use xlink:href="#DejaVuSans-3" transform="translate(916.46875 0)"/>
     <use xlink:href="#DejaVuSans-51" transform="translate(948.25 0)"/>
     <use xlink:href="#DejaVuSans-48" transform="translate(1011.625 0)"/>
     <use xlink:href="#DejaVuSans-4a" transform="translate(1073.15625 0)"/>
     <use xlink:href="#DejaVuSans-44" transform="translate(1136.640625 0)"/>
     <use xlink:href="#DejaVuSans-57" transform="translate(1197.921875 0)"/>
     <use xlink:href="#DejaVuSans-4c" transform="translate(1237.125 0)"/>
     <use xlink:href="#DejaVuSans-59" transform="translate(1264.90625 0)"/>
     <use xlink:href="#DejaVuSans-48" transform="translate(1324.09375 0)"/>
     <use xlink:href="#DejaVuSans-11" transform="translate(1385.625 0)"/>
    </g>
    <!-- Q01b gap 95.8x -->
    <g style="fill: #17202a" transform="translate(291.46752 121.633066) scale(0.079 -0.079)">
     <defs>
      <path id="DejaVuSans-1c" d="M 703 97
L 703 672
Q 941 559 1184 500
Q 1428 441 1663 441
Q 2288 441 2617 861
Q 2947 1281 2994 2138
Q 2813 1869 2534 1725
Q 2256 1581 1919 1581
Q 1219 1581 811 2004
Q 403 2428 403 3163
Q 403 3881 828 4315
Q 1253 4750 1959 4750
Q 2769 4750 3195 4129
Q 3622 3509 3622 2328
Q 3622 1225 3098 567
Q 2575 -91 1691 -91
Q 1453 -91 1209 -44
Q 966 3 703 97
z
M 1959 2075
Q 2384 2075 2632 2365
Q 2881 2656 2881 3163
Q 2881 3666 2632 3958
Q 2384 4250 1959 4250
Q 1534 4250 1286 3958
Q 1038 3666 1038 3163
Q 1038 2656 1286 2365
Q 1534 2075 1959 2075
z
" transform="scale(0.015625)"/>
      <path id="DejaVuSans-18" d="M 691 4666
L 3169 4666
L 3169 4134
L 1269 4134
L 1269 2991
Q 1406 3038 1543 3061
Q 1681 3084 1819 3084
Q 2600 3084 3056 2656
Q 3513 2228 3513 1497
Q 3513 744 3044 326
Q 2575 -91 1722 -91
Q 1428 -91 1123 -41
Q 819 9 494 109
L 494 744
Q 775 591 1075 516
Q 1375 441 1709 441
Q 2250 441 2565 725
Q 2881 1009 2881 1497
Q 2881 1984 2565 2268
Q 2250 2553 1709 2553
Q 1456 2553 1204 2497
Q 953 2441 691 2322
L 691 4666
z
" transform="scale(0.015625)"/>
     </defs>
     <use xlink:href="#DejaVuSans-34"/>
     <use xlink:href="#DejaVuSans-13" transform="translate(78.71875 0)"/>
     <use xlink:href="#DejaVuSans-14" transform="translate(142.34375 0)"/>
     <use xlink:href="#DejaVuSans-45" transform="translate(205.96875 0)"/>
     <use xlink:href="#DejaVuSans-3" transform="translate(269.453125 0)"/>
     <use xlink:href="#DejaVuSans-4a" transform="translate(301.234375 0)"/>
     <use xlink:href="#DejaVuSans-44" transform="translate(364.71875 0)"/>
     <use xlink:href="#DejaVuSans-53" transform="translate(426 0)"/>
     <use xlink:href="#DejaVuSans-3" transform="translate(489.484375 0)"/>
     <use xlink:href="#DejaVuSans-1c" transform="translate(521.265625 0)"/>
     <use xlink:href="#DejaVuSans-18" transform="translate(584.890625 0)"/>
     <use xlink:href="#DejaVuSans-11" transform="translate(648.515625 0)"/>
     <use xlink:href="#DejaVuSans-1b" transform="translate(680.296875 0)"/>
     <use xlink:href="#DejaVuSans-5b" transform="translate(743.921875 0)"/>
    </g>
    <!-- FQK recall 0.1089 -->
    <g style="fill: #17202a" transform="translate(291.46752 131.583363) scale(0.079 -0.079)">
     <use xlink:href="#DejaVuSans-29"/>
     <use xlink:href="#DejaVuSans-34" transform="translate(57.515625 0)"/>
     <use xlink:href="#DejaVuSans-2e" transform="translate(136.234375 0)"/>
     <use xlink:href="#DejaVuSans-3" transform="translate(201.8125 0)"/>
     <use xlink:href="#DejaVuSans-55" transform="translate(233.59375 0)"/>
     <use xlink:href="#DejaVuSans-48" transform="translate(272.5 0)"/>
     <use xlink:href="#DejaVuSans-46" transform="translate(334.03125 0)"/>
     <use xlink:href="#DejaVuSans-44" transform="translate(389.015625 0)"/>
     <use xlink:href="#DejaVuSans-4f" transform="translate(450.296875 0)"/>
     <use xlink:href="#DejaVuSans-4f" transform="translate(478.078125 0)"/>
     <use xlink:href="#DejaVuSans-3" transform="translate(505.859375 0)"/>
     <use xlink:href="#DejaVuSans-13" transform="translate(537.640625 0)"/>
     <use xlink:href="#DejaVuSans-11" transform="translate(601.265625 0)"/>
     <use xlink:href="#DejaVuSans-14" transform="translate(633.046875 0)"/>
     <use xlink:href="#DejaVuSans-13" transform="translate(696.671875 0)"/>
     <use xlink:href="#DejaVuSans-1b" transform="translate(760.296875 0)"/>
     <use xlink:href="#DejaVuSans-1c" transform="translate(823.921875 0)"/>
    </g>
   </g>
   <g id="text_7">
    <!-- Discussion -->
    <g style="fill: #17202a" transform="translate(527.16672 94.354837) scale(0.1 -0.1)">
     <defs>
      <path id="DejaVuSans-Bold-52" d="M 2203 2784
Q 1831 2784 1636 2517
Q 1441 2250 1441 1747
Q 1441 1244 1636 976
Q 1831 709 2203 709
Q 2569 709 2762 976
Q 2956 1244 2956 1747
Q 2956 2250 2762 2517
Q 2569 2784 2203 2784
z
M 2203 3584
Q 3106 3584 3614 3096
Q 4122 2609 4122 1747
Q 4122 884 3614 396
Q 3106 -91 2203 -91
Q 1297 -91 786 396
Q 275 884 275 1747
Q 275 2609 786 3096
Q 1297 3584 2203 3584
z
" transform="scale(0.015625)"/>
     </defs>
     <use xlink:href="#DejaVuSans-Bold-27"/>
     <use xlink:href="#DejaVuSans-Bold-4c" transform="translate(83.015625 0)"/>
     <use xlink:href="#DejaVuSans-Bold-56" transform="translate(117.296875 0)"/>
     <use xlink:href="#DejaVuSans-Bold-46" transform="translate(176.8125 0)"/>
     <use xlink:href="#DejaVuSans-Bold-58" transform="translate(236.09375 0)"/>
     <use xlink:href="#DejaVuSans-Bold-56" transform="translate(307.28125 0)"/>
     <use xlink:href="#DejaVuSans-Bold-56" transform="translate(366.796875 0)"/>
     <use xlink:href="#DejaVuSans-Bold-4c" transform="translate(426.3125 0)"/>
     <use xlink:href="#DejaVuSans-Bold-52" transform="translate(460.59375 0)"/>
     <use xlink:href="#DejaVuSans-Bold-51" transform="translate(529.296875 0)"/>
    </g>
   </g>
   <g id="text_8">
    <!-- CSAFE-RF is future design only. -->
    <g style="fill: #17202a" transform="translate(527.16672 111.995066) scale(0.079 -0.079)">
     <defs>
      <path id="DejaVuSans-24" d="M 2188 4044
L 1331 1722
L 3047 1722
L 2188 4044
z
M 1831 4666
L 2547 4666
L 4325 0
L 3669 0
L 3244 1197
L 1141 1197
L 716 0
L 50 0
L 1831 4666
z
" transform="scale(0.015625)"/>
      <path id="DejaVuSans-10" d="M 313 2009
L 1997 2009
L 1997 1497
L 313 1497
L 313 2009
z
" transform="scale(0.015625)"/>
     </defs>
     <use xlink:href="#DejaVuSans-26"/>
     <use xlink:href="#DejaVuSans-36" transform="translate(69.828125 0)"/>
     <use xlink:href="#DejaVuSans-24" transform="translate(135.171875 0)"/>
     <use xlink:href="#DejaVuSans-29" transform="translate(203.578125 0)"/>
     <use xlink:href="#DejaVuSans-28" transform="translate(261.09375 0)"/>
     <use xlink:href="#DejaVuSans-10" transform="translate(324.28125 0)"/>
     <use xlink:href="#DejaVuSans-35" transform="translate(360.359375 0)"/>
     <use xlink:href="#DejaVuSans-29" transform="translate(429.84375 0)"/>
     <use xlink:href="#DejaVuSans-3" transform="translate(487.359375 0)"/>
     <use xlink:href="#DejaVuSans-4c" transform="translate(519.140625 0)"/>
     <use xlink:href="#DejaVuSans-56" transform="translate(546.921875 0)"/>
     <use xlink:href="#DejaVuSans-3" transform="translate(599.015625 0)"/>
     <use xlink:href="#DejaVuSans-49" transform="translate(630.796875 0)"/>
     <use xlink:href="#DejaVuSans-58" transform="translate(666 0)"/>
     <use xlink:href="#DejaVuSans-57" transform="translate(729.375 0)"/>
     <use xlink:href="#DejaVuSans-58" transform="translate(768.578125 0)"/>
     <use xlink:href="#DejaVuSans-55" transform="translate(831.953125 0)"/>
     <use xlink:href="#DejaVuSans-48" transform="translate(870.859375 0)"/>
     <use xlink:href="#DejaVuSans-3" transform="translate(932.390625 0)"/>
     <use xlink:href="#DejaVuSans-47" transform="translate(964.171875 0)"/>
     <use xlink:href="#DejaVuSans-48" transform="translate(1027.65625 0)"/>
     <use xlink:href="#DejaVuSans-56" transform="translate(1089.1875 0)"/>
     <use xlink:href="#DejaVuSans-4c" transform="translate(1141.28125 0)"/>
     <use xlink:href="#DejaVuSans-4a" transform="translate(1169.0625 0)"/>
     <use xlink:href="#DejaVuSans-51" transform="translate(1232.546875 0)"/>
     <use xlink:href="#DejaVuSans-3" transform="translate(1295.921875 0)"/>
     <use xlink:href="#DejaVuSans-52" transform="translate(1327.703125 0)"/>
     <use xlink:href="#DejaVuSans-51" transform="translate(1388.890625 0)"/>
     <use xlink:href="#DejaVuSans-4f" transform="translate(1452.265625 0)"/>
     <use xlink:href="#DejaVuSans-5c" transform="translate(1480.046875 0)"/>
     <use xlink:href="#DejaVuSans-11" transform="translate(1524.984375 0)"/>
    </g>
    <!-- Recall 0.8043 -->
    <g style="fill: #17202a" transform="translate(527.16672 122.398379) scale(0.079 -0.079)">
     <defs>
      <path id="DejaVuSans-16" d="M 2597 2516
Q 3050 2419 3304 2112
Q 3559 1806 3559 1356
Q 3559 666 3084 287
Q 2609 -91 1734 -91
Q 1441 -91 1130 -33
Q 819 25 488 141
L 488 750
Q 750 597 1062 519
Q 1375 441 1716 441
Q 2309 441 2620 675
Q 2931 909 2931 1356
Q 2931 1769 2642 2001
Q 2353 2234 1838 2234
L 1294 2234
L 1294 2753
L 1863 2753
Q 2328 2753 2575 2939
Q 2822 3125 2822 3475
Q 2822 3834 2567 4026
Q 2313 4219 1838 4219
Q 1578 4219 1281 4162
Q 984 4106 628 3988
L 628 4550
Q 988 4650 1302 4700
Q 1616 4750 1894 4750
Q 2613 4750 3031 4423
Q 3450 4097 3450 3541
Q 3450 3153 3228 2886
Q 3006 2619 2597 2516
z
" transform="scale(0.015625)"/>
     </defs>
     <use xlink:href="#DejaVuSans-35"/>
     <use xlink:href="#DejaVuSans-48" transform="translate(65 0)"/>
     <use xlink:href="#DejaVuSans-46" transform="translate(126.53125 0)"/>
     <use xlink:href="#DejaVuSans-44" transform="translate(181.515625 0)"/>
     <use xlink:href="#DejaVuSans-4f" transform="translate(242.796875 0)"/>
     <use xlink:href="#DejaVuSans-4f" transform="translate(270.578125 0)"/>
     <use xlink:href="#DejaVuSans-3" transform="translate(298.359375 0)"/>
     <use xlink:href="#DejaVuSans-13" transform="translate(330.140625 0)"/>
     <use xlink:href="#DejaVuSans-11" transform="translate(393.765625 0)"/>
     <use xlink:href="#DejaVuSans-1b" transform="translate(425.546875 0)"/>
     <use xlink:href="#DejaVuSans-13" transform="translate(489.171875 0)"/>
     <use xlink:href="#DejaVuSans-17" transform="translate(552.796875 0)"/>
     <use xlink:href="#DejaVuSans-16" transform="translate(616.421875 0)"/>
    </g>
    <!-- Brier 0.1422 -->
    <g style="fill: #17202a" transform="translate(527.16672 132.036379) scale(0.079 -0.079)">
     <defs>
      <path id="DejaVuSans-25" d="M 1259 2228
L 1259 519
L 2272 519
Q 2781 519 3026 730
Q 3272 941 3272 1375
Q 3272 1813 3026 2020
Q 2781 2228 2272 2228
L 1259 2228
z
M 1259 4147
L 1259 2741
L 2194 2741
Q 2656 2741 2882 2914
Q 3109 3088 3109 3444
Q 3109 3797 2882 3972
Q 2656 4147 2194 4147
L 1259 4147
z
M 628 4666
L 2241 4666
Q 2963 4666 3353 4366
Q 3744 4066 3744 3513
Q 3744 3084 3544 2831
Q 3344 2578 2956 2516
Q 3422 2416 3680 2098
Q 3938 1781 3938 1306
Q 3938 681 3513 340
Q 3088 0 2303 0
L 628 0
L 628 4666
z
" transform="scale(0.015625)"/>
      <path id="DejaVuSans-15" d="M 1228 531
L 3431 531
L 3431 0
L 469 0
L 469 531
Q 828 903 1448 1529
Q 2069 2156 2228 2338
Q 2531 2678 2651 2914
Q 2772 3150 2772 3378
Q 2772 3750 2511 3984
Q 2250 4219 1831 4219
Q 1534 4219 1204 4116
Q 875 4013 500 3803
L 500 4441
Q 881 4594 1212 4672
Q 1544 4750 1819 4750
Q 2544 4750 2975 4387
Q 3406 4025 3406 3419
Q 3406 3131 3298 2873
Q 3191 2616 2906 2266
Q 2828 2175 2409 1742
Q 1991 1309 1228 531
z
" transform="scale(0.015625)"/>
     </defs>
     <use xlink:href="#DejaVuSans-25"/>
     <use xlink:href="#DejaVuSans-55" transform="translate(68.609375 0)"/>
     <use xlink:href="#DejaVuSans-4c" transform="translate(109.71875 0)"/>
     <use xlink:href="#DejaVuSans-48" transform="translate(137.5 0)"/>
     <use xlink:href="#DejaVuSans-55" transform="translate(199.03125 0)"/>
     <use xlink:href="#DejaVuSans-3" transform="translate(240.140625 0)"/>
     <use xlink:href="#DejaVuSans-13" transform="translate(271.921875 0)"/>
     <use xlink:href="#DejaVuSans-11" transform="translate(335.546875 0)"/>
     <use xlink:href="#DejaVuSans-14" transform="translate(367.328125 0)"/>
     <use xlink:href="#DejaVuSans-17" transform="translate(430.953125 0)"/>
     <use xlink:href="#DejaVuSans-15" transform="translate(494.578125 0)"/>
     <use xlink:href="#DejaVuSans-15" transform="translate(558.203125 0)"/>
    </g>
   </g>
   <g id="text_9">
    <!-- Conclusion -->
    <g style="fill: #17202a" transform="translate(134.33472 218.540437) scale(0.1 -0.1)">
     <use xlink:href="#DejaVuSans-Bold-26"/>
     <use xlink:href="#DejaVuSans-Bold-52" transform="translate(73.390625 0)"/>
     <use xlink:href="#DejaVuSans-Bold-51" transform="translate(142.09375 0)"/>
     <use xlink:href="#DejaVuSans-Bold-46" transform="translate(213.28125 0)"/>
     <use xlink:href="#DejaVuSans-Bold-4f" transform="translate(272.5625 0)"/>
     <use xlink:href="#DejaVuSans-Bold-58" transform="translate(306.84375 0)"/>
     <use xlink:href="#DejaVuSans-Bold-56" transform="translate(378.03125 0)"/>
     <use xlink:href="#DejaVuSans-Bold-4c" transform="translate(437.546875 0)"/>
     <use xlink:href="#DejaVuSans-Bold-52" transform="translate(471.828125 0)"/>
     <use xlink:href="#DejaVuSans-Bold-51" transform="translate(540.53125 0)"/>
    </g>
   </g>
   <g id="text_10">
    <!-- No QML Gate 6 candidate -->
    <g style="fill: #17202a" transform="translate(134.33472 236.492963) scale(0.079 -0.079)">
     <defs>
      <path id="DejaVuSans-2f" d="M 628 4666
L 1259 4666
L 1259 531
L 3531 531
L 3531 0
L 628 0
L 628 4666
z
" transform="scale(0.015625)"/>
     </defs>
     <use xlink:href="#DejaVuSans-31"/>
     <use xlink:href="#DejaVuSans-52" transform="translate(74.8125 0)"/>
     <use xlink:href="#DejaVuSans-3" transform="translate(136 0)"/>
     <use xlink:href="#DejaVuSans-34" transform="translate(167.78125 0)"/>
     <use xlink:href="#DejaVuSans-30" transform="translate(246.5 0)"/>
     <use xlink:href="#DejaVuSans-2f" transform="translate(332.78125 0)"/>
     <use xlink:href="#DejaVuSans-3" transform="translate(388.5 0)"/>
     <use xlink:href="#DejaVuSans-2a" transform="translate(420.28125 0)"/>
     <use xlink:href="#DejaVuSans-44" transform="translate(497.765625 0)"/>
     <use xlink:href="#DejaVuSans-57" transform="translate(559.046875 0)"/>
     <use xlink:href="#DejaVuSans-48" transform="translate(598.25 0)"/>
     <use xlink:href="#DejaVuSans-3" transform="translate(659.78125 0)"/>
     <use xlink:href="#DejaVuSans-19" transform="translate(691.5625 0)"/>
     <use xlink:href="#DejaVuSans-3" transform="translate(755.1875 0)"/>
     <use xlink:href="#DejaVuSans-46" transform="translate(786.96875 0)"/>
     <use xlink:href="#DejaVuSans-44" transform="translate(841.953125 0)"/>
     <use xlink:href="#DejaVuSans-51" transform="translate(903.234375 0)"/>
     <use xlink:href="#DejaVuSans-47" transform="translate(966.609375 0)"/>
     <use xlink:href="#DejaVuSans-4c" transform="translate(1030.09375 0)"/>
     <use xlink:href="#DejaVuSans-47" transform="translate(1057.875 0)"/>
     <use xlink:href="#DejaVuSans-44" transform="translate(1121.359375 0)"/>
     <use xlink:href="#DejaVuSans-57" transform="translate(1182.640625 0)"/>
     <use xlink:href="#DejaVuSans-48" transform="translate(1221.84375 0)"/>
    </g>
    <!-- is eligible from P001. -->
    <g style="fill: #17202a" transform="translate(134.33472 245.818666) scale(0.079 -0.079)">
     <defs>
      <path id="DejaVuSans-33" d="M 1259 4147
L 1259 2394
L 2053 2394
Q 2494 2394 2734 2622
Q 2975 2850 2975 3272
Q 2975 3691 2734 3919
Q 2494 4147 2053 4147
L 1259 4147
z
M 628 4666
L 2053 4666
Q 2838 4666 3239 4311
Q 3641 3956 3641 3272
Q 3641 2581 3239 2228
Q 2838 1875 2053 1875
L 1259 1875
L 1259 0
L 628 0
L 628 4666
z
" transform="scale(0.015625)"/>
     </defs>
     <use xlink:href="#DejaVuSans-4c"/>
     <use xlink:href="#DejaVuSans-56" transform="translate(27.78125 0)"/>
     <use xlink:href="#DejaVuSans-3" transform="translate(79.875 0)"/>
     <use xlink:href="#DejaVuSans-48" transform="translate(111.65625 0)"/>
     <use xlink:href="#DejaVuSans-4f" transform="translate(173.1875 0)"/>
     <use xlink:href="#DejaVuSans-4c" transform="translate(200.96875 0)"/>
     <use xlink:href="#DejaVuSans-4a" transform="translate(228.75 0)"/>
     <use xlink:href="#DejaVuSans-4c" transform="translate(292.234375 0)"/>
     <use xlink:href="#DejaVuSans-45" transform="translate(320.015625 0)"/>
     <use xlink:href="#DejaVuSans-4f" transform="translate(383.5 0)"/>
     <use xlink:href="#DejaVuSans-48" transform="translate(411.28125 0)"/>
     <use xlink:href="#DejaVuSans-3" transform="translate(472.8125 0)"/>
     <use xlink:href="#DejaVuSans-49" transform="translate(504.59375 0)"/>
     <use xlink:href="#DejaVuSans-55" transform="translate(539.796875 0)"/>
     <use xlink:href="#DejaVuSans-52" transform="translate(578.703125 0)"/>
     <use xlink:href="#DejaVuSans-50" transform="translate(639.890625 0)"/>
     <use xlink:href="#DejaVuSans-3" transform="translate(737.296875 0)"/>
     <use xlink:href="#DejaVuSans-33" transform="translate(769.078125 0)"/>
     <use xlink:href="#DejaVuSans-13" transform="translate(829.375 0)"/>
     <use xlink:href="#DejaVuSans-13" transform="translate(893 0)"/>
     <use xlink:href="#DejaVuSans-14" transform="translate(956.625 0)"/>
     <use xlink:href="#DejaVuSans-11" transform="translate(1020.25 0)"/>
    </g>
    <!-- A later Gate 6 needs a -->
    <g style="fill: #17202a" transform="translate(134.33472 256.221979) scale(0.079 -0.079)">
     <use xlink:href="#DejaVuSans-24"/>
     <use xlink:href="#DejaVuSans-3" transform="translate(68.40625 0)"/>
     <use xlink:href="#DejaVuSans-4f" transform="translate(100.1875 0)"/>
     <use xlink:href="#DejaVuSans-44" transform="translate(127.96875 0)"/>
     <use xlink:href="#DejaVuSans-57" transform="translate(189.25 0)"/>
     <use xlink:href="#DejaVuSans-48" transform="translate(228.453125 0)"/>
     <use xlink:href="#DejaVuSans-55" transform="translate(289.984375 0)"/>
     <use xlink:href="#DejaVuSans-3" transform="translate(331.09375 0)"/>
     <use xlink:href="#DejaVuSans-2a" transform="translate(362.875 0)"/>
     <use xlink:href="#DejaVuSans-44" transform="translate(440.359375 0)"/>
     <use xlink:href="#DejaVuSans-57" transform="translate(501.640625 0)"/>
     <use xlink:href="#DejaVuSans-48" transform="translate(540.84375 0)"/>
     <use xlink:href="#DejaVuSans-3" transform="translate(602.375 0)"/>
     <use xlink:href="#DejaVuSans-19" transform="translate(634.15625 0)"/>
     <use xlink:href="#DejaVuSans-3" transform="translate(697.78125 0)"/>
     <use xlink:href="#DejaVuSans-51" transform="translate(729.5625 0)"/>
     <use xlink:href="#DejaVuSans-48" transform="translate(792.9375 0)"/>
     <use xlink:href="#DejaVuSans-48" transform="translate(854.46875 0)"/>
     <use xlink:href="#DejaVuSans-47" transform="translate(916 0)"/>
     <use xlink:href="#DejaVuSans-56" transform="translate(979.484375 0)"/>
     <use xlink:href="#DejaVuSans-3" transform="translate(1031.578125 0)"/>
     <use xlink:href="#DejaVuSans-44" transform="translate(1063.359375 0)"/>
    </g>
    <!-- separate human protocol. -->
    <g style="fill: #17202a" transform="translate(134.33472 265.094666) scale(0.079 -0.079)">
     <use xlink:href="#DejaVuSans-56"/>
     <use xlink:href="#DejaVuSans-48" transform="translate(52.09375 0)"/>
     <use xlink:href="#DejaVuSans-53" transform="translate(113.625 0)"/>
     <use xlink:href="#DejaVuSans-44" transform="translate(177.109375 0)"/>
     <use xlink:href="#DejaVuSans-55" transform="translate(238.390625 0)"/>
     <use xlink:href="#DejaVuSans-44" transform="translate(279.5 0)"/>
     <use xlink:href="#DejaVuSans-57" transform="translate(340.78125 0)"/>
     <use xlink:href="#DejaVuSans-48" transform="translate(379.984375 0)"/>
     <use xlink:href="#DejaVuSans-3" transform="translate(441.515625 0)"/>
     <use xlink:href="#DejaVuSans-4b" transform="translate(473.296875 0)"/>
     <use xlink:href="#DejaVuSans-58" transform="translate(536.671875 0)"/>
     <use xlink:href="#DejaVuSans-50" transform="translate(600.046875 0)"/>
     <use xlink:href="#DejaVuSans-44" transform="translate(697.453125 0)"/>
     <use xlink:href="#DejaVuSans-51" transform="translate(758.734375 0)"/>
     <use xlink:href="#DejaVuSans-3" transform="translate(822.109375 0)"/>
     <use xlink:href="#DejaVuSans-53" transform="translate(853.890625 0)"/>
     <use xlink:href="#DejaVuSans-55" transform="translate(917.375 0)"/>
     <use xlink:href="#DejaVuSans-52" transform="translate(956.28125 0)"/>
     <use xlink:href="#DejaVuSans-57" transform="translate(1017.46875 0)"/>
     <use xlink:href="#DejaVuSans-52" transform="translate(1056.671875 0)"/>
     <use xlink:href="#DejaVuSans-46" transform="translate(1117.859375 0)"/>
     <use xlink:href="#DejaVuSans-52" transform="translate(1172.84375 0)"/>
     <use xlink:href="#DejaVuSans-4f" transform="translate(1234.03125 0)"/>
     <use xlink:href="#DejaVuSans-11" transform="translate(1261.8125 0)"/>
    </g>
   </g>
   <g id="text_11">
    <!-- Next artifacts -->
    <g style="fill: #17202a" transform="translate(420.03072 218.540437) scale(0.1 -0.1)">
     <defs>
      <path id="DejaVuSans-Bold-31" d="M 588 4666
L 1931 4666
L 3628 1466
L 3628 4666
L 4769 4666
L 4769 0
L 3425 0
L 1728 3200
L 1728 0
L 588 0
L 588 4666
z
" transform="scale(0.015625)"/>
      <path id="DejaVuSans-Bold-49" d="M 2841 4863
L 2841 4128
L 2222 4128
Q 1984 4128 1890 4042
Q 1797 3956 1797 3744
L 1797 3500
L 2753 3500
L 2753 2700
L 1797 2700
L 1797 0
L 678 0
L 678 2700
L 122 2700
L 122 3500
L 678 3500
L 678 3744
Q 678 4316 997 4589
Q 1316 4863 1984 4863
L 2841 4863
z
" transform="scale(0.015625)"/>
     </defs>
     <use xlink:href="#DejaVuSans-Bold-31"/>
     <use xlink:href="#DejaVuSans-Bold-48" transform="translate(83.6875 0)"/>
     <use xlink:href="#DejaVuSans-Bold-5b" transform="translate(151.515625 0)"/>
     <use xlink:href="#DejaVuSans-Bold-57" transform="translate(216.015625 0)"/>
     <use xlink:href="#DejaVuSans-Bold-3" transform="translate(263.8125 0)"/>
     <use xlink:href="#DejaVuSans-Bold-44" transform="translate(298.625 0)"/>
     <use xlink:href="#DejaVuSans-Bold-55" transform="translate(366.109375 0)"/>
     <use xlink:href="#DejaVuSans-Bold-57" transform="translate(415.421875 0)"/>
     <use xlink:href="#DejaVuSans-Bold-4c" transform="translate(463.21875 0)"/>
     <use xlink:href="#DejaVuSans-Bold-49" transform="translate(497.5 0)"/>
     <use xlink:href="#DejaVuSans-Bold-44" transform="translate(541 0)"/>
     <use xlink:href="#DejaVuSans-Bold-46" transform="translate(608.484375 0)"/>
     <use xlink:href="#DejaVuSans-Bold-57" transform="translate(667.765625 0)"/>
     <use xlink:href="#DejaVuSans-Bold-56" transform="translate(715.5625 0)"/>
    </g>
   </g>
   <g id="text_12">
    <!-- Model card, simulator card, -->
    <g style="fill: #17202a" transform="translate(420.03072 236.542955) scale(0.079 -0.079)">
     <defs>
      <path id="DejaVuSans-f" d="M 750 794
L 1409 794
L 1409 256
L 897 -744
L 494 -744
L 750 256
L 750 794
z
" transform="scale(0.015625)"/>
     </defs>
     <use xlink:href="#DejaVuSans-30"/>
     <use xlink:href="#DejaVuSans-52" transform="translate(86.28125 0)"/>
     <use xlink:href="#DejaVuSans-47" transform="translate(147.46875 0)"/>
     <use xlink:href="#DejaVuSans-48" transform="translate(210.953125 0)"/>
     <use xlink:href="#DejaVuSans-4f" transform="translate(272.484375 0)"/>
     <use xlink:href="#DejaVuSans-3" transform="translate(300.265625 0)"/>
     <use xlink:href="#DejaVuSans-46" transform="translate(332.046875 0)"/>
     <use xlink:href="#DejaVuSans-44" transform="translate(387.03125 0)"/>
     <use xlink:href="#DejaVuSans-55" transform="translate(448.3125 0)"/>
     <use xlink:href="#DejaVuSans-47" transform="translate(487.671875 0)"/>
     <use xlink:href="#DejaVuSans-f" transform="translate(551.15625 0)"/>
     <use xlink:href="#DejaVuSans-3" transform="translate(582.9375 0)"/>
     <use xlink:href="#DejaVuSans-56" transform="translate(614.71875 0)"/>
     <use xlink:href="#DejaVuSans-4c" transform="translate(666.8125 0)"/>
     <use xlink:href="#DejaVuSans-50" transform="translate(694.59375 0)"/>
     <use xlink:href="#DejaVuSans-58" transform="translate(792 0)"/>
     <use xlink:href="#DejaVuSans-4f" transform="translate(855.375 0)"/>
     <use xlink:href="#DejaVuSans-44" transform="translate(883.15625 0)"/>
     <use xlink:href="#DejaVuSans-57" transform="translate(944.4375 0)"/>
     <use xlink:href="#DejaVuSans-52" transform="translate(983.640625 0)"/>
     <use xlink:href="#DejaVuSans-55" transform="translate(1044.828125 0)"/>
     <use xlink:href="#DejaVuSans-3" transform="translate(1085.9375 0)"/>
     <use xlink:href="#DejaVuSans-46" transform="translate(1117.71875 0)"/>
     <use xlink:href="#DejaVuSans-44" transform="translate(1172.703125 0)"/>
     <use xlink:href="#DejaVuSans-55" transform="translate(1233.984375 0)"/>
     <use xlink:href="#DejaVuSans-47" transform="translate(1273.34375 0)"/>
     <use xlink:href="#DejaVuSans-f" transform="translate(1336.828125 0)"/>
    </g>
    <!-- data card, limitation appendix, -->
    <g style="fill: #17202a" transform="translate(420.03072 245.818666) scale(0.079 -0.079)">
     <use xlink:href="#DejaVuSans-47"/>
     <use xlink:href="#DejaVuSans-44" transform="translate(63.484375 0)"/>
     <use xlink:href="#DejaVuSans-57" transform="translate(124.765625 0)"/>
     <use xlink:href="#DejaVuSans-44" transform="translate(163.96875 0)"/>
     <use xlink:href="#DejaVuSans-3" transform="translate(225.25 0)"/>
     <use xlink:href="#DejaVuSans-46" transform="translate(257.03125 0)"/>
     <use xlink:href="#DejaVuSans-44" transform="translate(312.015625 0)"/>
     <use xlink:href="#DejaVuSans-55" transform="translate(373.296875 0)"/>
     <use xlink:href="#DejaVuSans-47" transform="translate(412.65625 0)"/>
     <use xlink:href="#DejaVuSans-f" transform="translate(476.140625 0)"/>
     <use xlink:href="#DejaVuSans-3" transform="translate(507.921875 0)"/>
     <use xlink:href="#DejaVuSans-4f" transform="translate(539.703125 0)"/>
     <use xlink:href="#DejaVuSans-4c" transform="translate(567.484375 0)"/>
     <use xlink:href="#DejaVuSans-50" transform="translate(595.265625 0)"/>
     <use xlink:href="#DejaVuSans-4c" transform="translate(692.671875 0)"/>
     <use xlink:href="#DejaVuSans-57" transform="translate(720.453125 0)"/>
     <use xlink:href="#DejaVuSans-44" transform="translate(759.65625 0)"/>
     <use xlink:href="#DejaVuSans-57" transform="translate(820.9375 0)"/>
     <use xlink:href="#DejaVuSans-4c" transform="translate(860.140625 0)"/>
     <use xlink:href="#DejaVuSans-52" transform="translate(887.921875 0)"/>
     <use xlink:href="#DejaVuSans-51" transform="translate(949.109375 0)"/>
     <use xlink:href="#DejaVuSans-3" transform="translate(1012.484375 0)"/>
     <use xlink:href="#DejaVuSans-44" transform="translate(1044.265625 0)"/>
     <use xlink:href="#DejaVuSans-53" transform="translate(1105.546875 0)"/>
     <use xlink:href="#DejaVuSans-53" transform="translate(1169.03125 0)"/>
     <use xlink:href="#DejaVuSans-48" transform="translate(1232.515625 0)"/>
     <use xlink:href="#DejaVuSans-51" transform="translate(1294.046875 0)"/>
     <use xlink:href="#DejaVuSans-47" transform="translate(1357.421875 0)"/>
     <use xlink:href="#DejaVuSans-4c" transform="translate(1420.90625 0)"/>
     <use xlink:href="#DejaVuSans-5b" transform="translate(1448.6875 0)"/>
     <use xlink:href="#DejaVuSans-f" transform="translate(1507.875 0)"/>
    </g>
    <!-- and clean reproducibility audit. -->
    <g style="fill: #17202a" transform="translate(420.03072 255.456666) scale(0.079 -0.079)">
     <use xlink:href="#DejaVuSans-44"/>
     <use xlink:href="#DejaVuSans-51" transform="translate(61.28125 0)"/>
     <use xlink:href="#DejaVuSans-47" transform="translate(124.65625 0)"/>
     <use xlink:href="#DejaVuSans-3" transform="translate(188.140625 0)"/>
     <use xlink:href="#DejaVuSans-46" transform="translate(219.921875 0)"/>
     <use xlink:href="#DejaVuSans-4f" transform="translate(274.90625 0)"/>
     <use xlink:href="#DejaVuSans-48" transform="translate(302.6875 0)"/>
     <use xlink:href="#DejaVuSans-44" transform="translate(364.21875 0)"/>
     <use xlink:href="#DejaVuSans-51" transform="translate(425.5 0)"/>
     <use xlink:href="#DejaVuSans-3" transform="translate(488.875 0)"/>
     <use xlink:href="#DejaVuSans-55" transform="translate(520.65625 0)"/>
     <use xlink:href="#DejaVuSans-48" transform="translate(559.5625 0)"/>
     <use xlink:href="#DejaVuSans-53" transform="translate(621.09375 0)"/>
     <use xlink:href="#DejaVuSans-55" transform="translate(684.578125 0)"/>
     <use xlink:href="#DejaVuSans-52" transform="translate(723.484375 0)"/>
     <use xlink:href="#DejaVuSans-47" transform="translate(784.671875 0)"/>
     <use xlink:href="#DejaVuSans-58" transform="translate(848.15625 0)"/>
     <use xlink:href="#DejaVuSans-46" transform="translate(911.53125 0)"/>
     <use xlink:href="#DejaVuSans-4c" transform="translate(966.515625 0)"/>
     <use xlink:href="#DejaVuSans-45" transform="translate(994.296875 0)"/>
     <use xlink:href="#DejaVuSans-4c" transform="translate(1057.78125 0)"/>
     <use xlink:href="#DejaVuSans-4f" transform="translate(1085.5625 0)"/>
     <use xlink:href="#DejaVuSans-4c" transform="translate(1113.34375 0)"/>
     <use xlink:href="#DejaVuSans-57" transform="translate(1141.125 0)"/>
     <use xlink:href="#DejaVuSans-5c" transform="translate(1180.328125 0)"/>
     <use xlink:href="#DejaVuSans-3" transform="translate(1239.515625 0)"/>
     <use xlink:href="#DejaVuSans-44" transform="translate(1271.296875 0)"/>
     <use xlink:href="#DejaVuSans-58" transform="translate(1332.578125 0)"/>
     <use xlink:href="#DejaVuSans-47" transform="translate(1395.953125 0)"/>
     <use xlink:href="#DejaVuSans-4c" transform="translate(1459.4375 0)"/>
     <use xlink:href="#DejaVuSans-57" transform="translate(1487.21875 0)"/>
     <use xlink:href="#DejaVuSans-11" transform="translate(1526.421875 0)"/>
    </g>
   </g>
   <g id="patch_8">
    <path d="M 364.32 156.670016
Q 364.32 172.134967 364.32 186.258277
" style="fill: none; stroke: #68737d; stroke-width: 1.2; stroke-linecap: round"/>
    <path d="M 366.12 182.658277
L 364.32 186.258277
L 362.52 182.658277
z
" style="fill: #68737d; stroke: #68737d; stroke-width: 1.2; stroke-linecap: round"/>
   </g>
   <g id="text_13">
    <!-- Claim control -->
    <g style="fill: #17202a" transform="translate(162.90432 346.606837) scale(0.1 -0.1)">
     <use xlink:href="#DejaVuSans-Bold-26"/>
     <use xlink:href="#DejaVuSans-Bold-4f" transform="translate(73.390625 0)"/>
     <use xlink:href="#DejaVuSans-Bold-44" transform="translate(107.671875 0)"/>
     <use xlink:href="#DejaVuSans-Bold-4c" transform="translate(175.15625 0)"/>
     <use xlink:href="#DejaVuSans-Bold-50" transform="translate(209.4375 0)"/>
     <use xlink:href="#DejaVuSans-Bold-3" transform="translate(313.640625 0)"/>
     <use xlink:href="#DejaVuSans-Bold-46" transform="translate(348.453125 0)"/>
     <use xlink:href="#DejaVuSans-Bold-52" transform="translate(407.734375 0)"/>
     <use xlink:href="#DejaVuSans-Bold-51" transform="translate(476.4375 0)"/>
     <use xlink:href="#DejaVuSans-Bold-57" transform="translate(547.625 0)"/>
     <use xlink:href="#DejaVuSans-Bold-55" transform="translate(595.421875 0)"/>
     <use xlink:href="#DejaVuSans-Bold-52" transform="translate(644.734375 0)"/>
     <use xlink:href="#DejaVuSans-Bold-4f" transform="translate(713.4375 0)"/>
    </g>
   </g>
   <g id="text_14">
    <!-- Every manuscript statement must trace to a registered figure/table and must retain the development-only or future-only evidence label. -->
    <g style="fill: #17202a" transform="translate(162.90432 364.247066) scale(0.079 -0.079)">
     <defs>
      <path id="DejaVuSans-13af" d="M 3431 3500
L 3431 0
L 2853 0
L 2853 3053
L 1275 3053
L 1275 0
L 697 0
L 697 3053
L 147 3053
L 147 3500
L 697 3500
L 697 3744
Q 697 4316 967 4589
Q 1238 4863 1797 4863
L 2375 4863
L 2375 4384
L 1825 4384
Q 1516 4384 1395 4259
Q 1275 4134 1275 3809
L 1275 3500
L 3431 3500
z
M 2853 4856
L 3431 4856
L 3431 4128
L 2853 4128
L 2853 4856
z
" transform="scale(0.015625)"/>
      <path id="DejaVuSans-12" d="M 1625 4666
L 2156 4666
L 531 -594
L 0 -594
L 1625 4666
z
" transform="scale(0.015625)"/>
     </defs>
     <use xlink:href="#DejaVuSans-28"/>
     <use xlink:href="#DejaVuSans-59" transform="translate(63.1875 0)"/>
     <use xlink:href="#DejaVuSans-48" transform="translate(122.375 0)"/>
     <use xlink:href="#DejaVuSans-55" transform="translate(183.90625 0)"/>
     <use xlink:href="#DejaVuSans-5c" transform="translate(225.015625 0)"/>
     <use xlink:href="#DejaVuSans-3" transform="translate(284.203125 0)"/>
     <use xlink:href="#DejaVuSans-50" transform="translate(315.984375 0)"/>
     <use xlink:href="#DejaVuSans-44" transform="translate(413.390625 0)"/>
     <use xlink:href="#DejaVuSans-51" transform="translate(474.671875 0)"/>
     <use xlink:href="#DejaVuSans-58" transform="translate(538.046875 0)"/>
     <use xlink:href="#DejaVuSans-56" transform="translate(601.421875 0)"/>
     <use xlink:href="#DejaVuSans-46" transform="translate(653.515625 0)"/>
     <use xlink:href="#DejaVuSans-55" transform="translate(708.5 0)"/>
     <use xlink:href="#DejaVuSans-4c" transform="translate(749.609375 0)"/>
     <use xlink:href="#DejaVuSans-53" transform="translate(777.390625 0)"/>
     <use xlink:href="#DejaVuSans-57" transform="translate(840.875 0)"/>
     <use xlink:href="#DejaVuSans-3" transform="translate(880.078125 0)"/>
     <use xlink:href="#DejaVuSans-56" transform="translate(911.859375 0)"/>
     <use xlink:href="#DejaVuSans-57" transform="translate(963.953125 0)"/>
     <use xlink:href="#DejaVuSans-44" transform="translate(1003.15625 0)"/>
     <use xlink:href="#DejaVuSans-57" transform="translate(1064.4375 0)"/>
     <use xlink:href="#DejaVuSans-48" transform="translate(1103.640625 0)"/>
     <use xlink:href="#DejaVuSans-50" transform="translate(1165.171875 0)"/>
     <use xlink:href="#DejaVuSans-48" transform="translate(1262.578125 0)"/>
     <use xlink:href="#DejaVuSans-51" transform="translate(1324.109375 0)"/>
     <use xlink:href="#DejaVuSans-57" transform="translate(1387.484375 0)"/>
     <use xlink:href="#DejaVuSans-3" transform="translate(1426.6875 0)"/>
     <use xlink:href="#DejaVuSans-50" transform="translate(1458.46875 0)"/>
     <use xlink:href="#DejaVuSans-58" transform="translate(1555.875 0)"/>
     <use xlink:href="#DejaVuSans-56" transform="translate(1619.25 0)"/>
     <use xlink:href="#DejaVuSans-57" transform="translate(1671.34375 0)"/>
     <use xlink:href="#DejaVuSans-3" transform="translate(1710.546875 0)"/>
     <use xlink:href="#DejaVuSans-57" transform="translate(1742.328125 0)"/>
     <use xlink:href="#DejaVuSans-55" transform="translate(1781.53125 0)"/>
     <use xlink:href="#DejaVuSans-44" transform="translate(1822.640625 0)"/>
     <use xlink:href="#DejaVuSans-46" transform="translate(1883.921875 0)"/>
     <use xlink:href="#DejaVuSans-48" transform="translate(1938.90625 0)"/>
     <use xlink:href="#DejaVuSans-3" transform="translate(2000.4375 0)"/>
     <use xlink:href="#DejaVuSans-57" transform="translate(2032.21875 0)"/>
     <use xlink:href="#DejaVuSans-52" transform="translate(2071.421875 0)"/>
     <use xlink:href="#DejaVuSans-3" transform="translate(2132.609375 0)"/>
     <use xlink:href="#DejaVuSans-44" transform="translate(2164.390625 0)"/>
     <use xlink:href="#DejaVuSans-3" transform="translate(2225.671875 0)"/>
     <use xlink:href="#DejaVuSans-55" transform="translate(2257.453125 0)"/>
     <use xlink:href="#DejaVuSans-48" transform="translate(2296.359375 0)"/>
     <use xlink:href="#DejaVuSans-4a" transform="translate(2357.890625 0)"/>
     <use xlink:href="#DejaVuSans-4c" transform="translate(2421.375 0)"/>
     <use xlink:href="#DejaVuSans-56" transform="translate(2449.15625 0)"/>
     <use xlink:href="#DejaVuSans-57" transform="translate(2501.25 0)"/>
     <use xlink:href="#DejaVuSans-48" transform="translate(2540.453125 0)"/>
     <use xlink:href="#DejaVuSans-55" transform="translate(2601.984375 0)"/>
     <use xlink:href="#DejaVuSans-48" transform="translate(2640.890625 0)"/>
     <use xlink:href="#DejaVuSans-47" transform="translate(2702.421875 0)"/>
     <use xlink:href="#DejaVuSans-3" transform="translate(2765.90625 0)"/>
     <use xlink:href="#DejaVuSans-13af" transform="translate(2797.6875 0)"/>
     <use xlink:href="#DejaVuSans-4a" transform="translate(2860.671875 0)"/>
     <use xlink:href="#DejaVuSans-58" transform="translate(2924.15625 0)"/>
     <use xlink:href="#DejaVuSans-55" transform="translate(2987.53125 0)"/>
     <use xlink:href="#DejaVuSans-48" transform="translate(3026.4375 0)"/>
     <use xlink:href="#DejaVuSans-12" transform="translate(3087.96875 0)"/>
     <use xlink:href="#DejaVuSans-57" transform="translate(3121.65625 0)"/>
     <use xlink:href="#DejaVuSans-44" transform="translate(3160.859375 0)"/>
     <use xlink:href="#DejaVuSans-45" transform="translate(3222.140625 0)"/>
     <use xlink:href="#DejaVuSans-4f" transform="translate(3285.625 0)"/>
     <use xlink:href="#DejaVuSans-48" transform="translate(3313.40625 0)"/>
     <use xlink:href="#DejaVuSans-3" transform="translate(3374.9375 0)"/>
     <use xlink:href="#DejaVuSans-44" transform="translate(3406.71875 0)"/>
     <use xlink:href="#DejaVuSans-51" transform="translate(3468 0)"/>
     <use xlink:href="#DejaVuSans-47" transform="translate(3531.375 0)"/>
     <use xlink:href="#DejaVuSans-3" transform="translate(3594.859375 0)"/>
     <use xlink:href="#DejaVuSans-50" transform="translate(3626.640625 0)"/>
     <use xlink:href="#DejaVuSans-58" transform="translate(3724.046875 0)"/>
     <use xlink:href="#DejaVuSans-56" transform="translate(3787.421875 0)"/>
     <use xlink:href="#DejaVuSans-57" transform="translate(3839.515625 0)"/>
     <use xlink:href="#DejaVuSans-3" transform="translate(3878.71875 0)"/>
     <use xlink:href="#DejaVuSans-55" transform="translate(3910.5 0)"/>
     <use xlink:href="#DejaVuSans-48" transform="translate(3949.40625 0)"/>
     <use xlink:href="#DejaVuSans-57" transform="translate(4010.9375 0)"/>
     <use xlink:href="#DejaVuSans-44" transform="translate(4050.140625 0)"/>
     <use xlink:href="#DejaVuSans-4c" transform="translate(4111.421875 0)"/>
     <use xlink:href="#DejaVuSans-51" transform="translate(4139.203125 0)"/>
     <use xlink:href="#DejaVuSans-3" transform="translate(4202.578125 0)"/>
     <use xlink:href="#DejaVuSans-57" transform="translate(4234.359375 0)"/>
     <use xlink:href="#DejaVuSans-4b" transform="translate(4273.5625 0)"/>
     <use xlink:href="#DejaVuSans-48" transform="translate(4336.9375 0)"/>
     <use xlink:href="#DejaVuSans-3" transform="translate(4398.46875 0)"/>
     <use xlink:href="#DejaVuSans-47" transform="translate(4430.25 0)"/>
     <use xlink:href="#DejaVuSans-48" transform="translate(4493.734375 0)"/>
     <use xlink:href="#DejaVuSans-59" transform="translate(4555.265625 0)"/>
     <use xlink:href="#DejaVuSans-48" transform="translate(4614.453125 0)"/>
     <use xlink:href="#DejaVuSans-4f" transform="translate(4675.984375 0)"/>
     <use xlink:href="#DejaVuSans-52" transform="translate(4703.765625 0)"/>
     <use xlink:href="#DejaVuSans-53" transform="translate(4764.953125 0)"/>
     <use xlink:href="#DejaVuSans-50" transform="translate(4828.4375 0)"/>
     <use xlink:href="#DejaVuSans-48" transform="translate(4925.84375 0)"/>
     <use xlink:href="#DejaVuSans-51" transform="translate(4987.375 0)"/>
     <use xlink:href="#DejaVuSans-57" transform="translate(5050.75 0)"/>
     <use xlink:href="#DejaVuSans-10" transform="translate(5089.953125 0)"/>
     <use xlink:href="#DejaVuSans-52" transform="translate(5127.890625 0)"/>
     <use xlink:href="#DejaVuSans-51" transform="translate(5189.078125 0)"/>
     <use xlink:href="#DejaVuSans-4f" transform="translate(5252.453125 0)"/>
     <use xlink:href="#DejaVuSans-5c" transform="translate(5280.234375 0)"/>
     <use xlink:href="#DejaVuSans-3" transform="translate(5339.421875 0)"/>
     <use xlink:href="#DejaVuSans-52" transform="translate(5371.203125 0)"/>
     <use xlink:href="#DejaVuSans-55" transform="translate(5432.390625 0)"/>
     <use xlink:href="#DejaVuSans-3" transform="translate(5473.5 0)"/>
     <use xlink:href="#DejaVuSans-49" transform="translate(5505.28125 0)"/>
     <use xlink:href="#DejaVuSans-58" transform="translate(5540.484375 0)"/>
     <use xlink:href="#DejaVuSans-57" transform="translate(5603.859375 0)"/>
     <use xlink:href="#DejaVuSans-58" transform="translate(5643.0625 0)"/>
     <use xlink:href="#DejaVuSans-55" transform="translate(5706.4375 0)"/>
     <use xlink:href="#DejaVuSans-48" transform="translate(5745.34375 0)"/>
     <use xlink:href="#DejaVuSans-10" transform="translate(5806.875 0)"/>
     <use xlink:href="#DejaVuSans-52" transform="translate(5844.8125 0)"/>
     <use xlink:href="#DejaVuSans-51" transform="translate(5906 0)"/>
     <use xlink:href="#DejaVuSans-4f" transform="translate(5969.375 0)"/>
     <use xlink:href="#DejaVuSans-5c" transform="translate(5997.15625 0)"/>
     <use xlink:href="#DejaVuSans-3" transform="translate(6056.34375 0)"/>
     <use xlink:href="#DejaVuSans-48" transform="translate(6088.125 0)"/>
     <use xlink:href="#DejaVuSans-59" transform="translate(6149.65625 0)"/>
     <use xlink:href="#DejaVuSans-4c" transform="translate(6208.84375 0)"/>
     <use xlink:href="#DejaVuSans-47" transform="translate(6236.625 0)"/>
     <use xlink:href="#DejaVuSans-48" transform="translate(6300.109375 0)"/>
     <use xlink:href="#DejaVuSans-51" transform="translate(6361.640625 0)"/>
     <use xlink:href="#DejaVuSans-46" transform="translate(6425.015625 0)"/>
     <use xlink:href="#DejaVuSans-48" transform="translate(6480 0)"/>
     <use xlink:href="#DejaVuSans-3" transform="translate(6541.53125 0)"/>
     <use xlink:href="#DejaVuSans-4f" transform="translate(6573.3125 0)"/>
     <use xlink:href="#DejaVuSans-44" transform="translate(6601.09375 0)"/>
     <use xlink:href="#DejaVuSans-45" transform="translate(6662.375 0)"/>
     <use xlink:href="#DejaVuSans-48" transform="translate(6725.859375 0)"/>
     <use xlink:href="#DejaVuSans-4f" transform="translate(6787.390625 0)"/>
     <use xlink:href="#DejaVuSans-11" transform="translate(6815.171875 0)"/>
    </g>
   </g>
  </g>
 </g>
 <defs>
  <clipPath id="p72b567b683">
   <rect x="7.2" y="7.2" width="714.24" height="388.08"/>
  </clipPath>
 </defs>
</svg>
