<?xml version="1.0" encoding="utf-8" standalone="no"?>
<!DOCTYPE svg PUBLIC "-//W3C//DTD SVG 1.1//EN"
  "http://www.w3.org/Graphics/SVG/1.1/DTD/svg11.dtd">
<svg xmlns:xlink="http://www.w3.org/1999/xlink" width="711.9pt" height="402.48pt" viewBox="0 0 711.9 402.48" xmlns="http://www.w3.org/2000/svg" version="1.1">
 <metadata>
  <rdf:RDF xmlns:dc="http://purl.org/dc/elements/1.1/" xmlns:cc="http://creativecommons.org/ns#" xmlns:rdf="http://www.w3.org/1999/02/22-rdf-syntax-ns#">
   <cc:Work>
    <dc:type rdf:resource="http://purl.org/dc/dcmitype/StillImage"/>
    <dc:format>image/svg+xml</dc:format>
    <dc:creator>
     <cc:Agent>
      <dc:title>Matplotlib v3.11.0, https://matplotlib.org/</dc:title>
     </cc:Agent>
    </dc:creator>
   </cc:Work>
  </rdf:RDF>
 </metadata>
 <defs>
  <style type="text/css">*{stroke-linejoin: round; stroke-linecap: butt}</style>
 </defs>
 <g id="figure_1">
  <g id="patch_1">
   <path d="M 0 402.48
L 711.9 402.48
L 711.9 -0
L 0 -0
z
" style="fill: #ffffff"/>
  </g>
  <g id="axes_1">
   <g id="patch_2">
    <path d="M 50.445 159.32736
L 222.03 159.32736
Q 231.795 159.32736 231.795 153.89424
L 231.795 81.71136
Q 231.795 76.27824 222.03 76.27824
L 50.445 76.27824
Q 40.68 76.27824 40.68 81.71136
L 40.68 153.89424
Q 40.68 159.32736 50.445 159.32736
z
" clip-path="url(#p1ee58b8665)" style="fill: #e8f4ef; stroke: #1b7f5a; stroke-width: 1.2; stroke-linejoin: miter"/>
   </g>
   <g id="patch_3">
    <path d="M 273.645 159.32736
L 445.23 159.32736
Q 454.995 159.32736 454.995 153.89424
L 454.995 81.71136
Q 454.995 76.27824 445.23 76.27824
L 273.645 76.27824
Q 263.88 76.27824 263.88 81.71136
L 263.88 153.89424
Q 263.88 159.32736 273.645 159.32736
z
" clip-path="url(#p1ee58b8665)" style="fill: #e7f0f5; stroke: #246a8d; stroke-width: 1.2; stroke-linejoin: miter"/>
   </g>
   <g id="patch_4">
    <path d="M 496.845 159.32736
L 654.48 159.32736
Q 664.245 159.32736 664.245 153.89424
L 664.245 81.71136
Q 664.245 76.27824 654.48 76.27824
L 496.845 76.27824
Q 487.08 76.27824 487.08 81.71136
L 487.08 153.89424
Q 487.08 159.32736 496.845 159.32736
z
" clip-path="url(#p1ee58b8665)" style="fill: #f9e7e4; stroke: #a8483d; stroke-width: 1.2; stroke-linejoin: miter"/>
   </g>
   <g id="patch_5">
    <path d="M 99.27 291.27456
L 340.605 291.27456
Q 350.37 291.27456 350.37 285.84144
L 350.37 202.01616
Q 350.37 196.58304 340.605 196.58304
L 99.27 196.58304
Q 89.505 196.58304 89.505 202.01616
L 89.505 285.84144
Q 89.505 291.27456 99.27 291.27456
z
" clip-path="url(#p1ee58b8665)" style="fill: #fff4d8; stroke: #b7791f; stroke-width: 1.2; stroke-linejoin: miter"/>
   </g>
   <g id="patch_6">
    <path d="M 399.195 291.27456
L 619.605 291.27456
Q 629.37 291.27456 629.37 285.84144
L 629.37 202.01616
Q 629.37 196.58304 619.605 196.58304
L 399.195 196.58304
Q 389.43 196.58304 389.43 202.01616
L 389.43 285.84144
Q 389.43 291.27456 399.195 291.27456
z
" clip-path="url(#p1ee58b8665)" style="fill: #f1f4f5; stroke: #5e6a71; stroke-width: 1.2; stroke-linejoin: miter"/>
   </g>
   <g id="patch_7">
    <path d="M 148.095 372.77136
L 563.805 372.77136
Q 573.57 372.77136 573.57 367.33824
L 573.57 330.08256
Q 573.57 324.64944 563.805 324.64944
L 148.095 324.64944
Q 138.33 324.64944 138.33 330.08256
L 138.33 367.33824
Q 138.33 372.77136 148.095 372.77136
z
" clip-path="url(#p1ee58b8665)" style="fill: #e7f0f5; stroke: #246a8d; stroke-width: 1.2; stroke-linejoin: miter"/>
   </g>
   <g id="text_1">
    <!-- D031-C final claim/release review: READY -->
    <g style="fill: #172026" transform="translate(21.15 30.9999) scale(0.16 -0.16)">
     <defs>
      <path id="DejaVuSans-Bold-27" d="M 1791 3756
L 1791 909
L 2222 909
Q 2959 909 3348 1275
Q 3738 1641 3738 2338
Q 3738 3031 3350 3393
Q 2963 3756 2222 3756
L 1791 3756
z
M 588 4666
L 1856 4666
Q 2919 4666 3439 4514
Q 3959 4363 4331 4000
Q 4659 3684 4818 3271
Q 4978 2859 4978 2338
Q 4978 1809 4818 1395
Q 4659 981 4331 666
Q 3956 303 3431 151
Q 2906 0 1856 0
L 588 0
L 588 4666
z
" transform="scale(0.015625)"/>
      <path id="DejaVuSans-Bold-13" d="M 2944 2338
Q 2944 3213 2780 3570
Q 2616 3928 2228 3928
Q 1841 3928 1675 3570
Q 1509 3213 1509 2338
Q 1509 1453 1675 1090
Q 1841 728 2228 728
Q 2613 728 2778 1090
Q 2944 1453 2944 2338
z
M 4147 2328
Q 4147 1169 3647 539
Q 3147 -91 2228 -91
Q 1306 -91 806 539
Q 306 1169 306 2328
Q 306 3491 806 4120
Q 1306 4750 2228 4750
Q 3147 4750 3647 4120
Q 4147 3491 4147 2328
z
" transform="scale(0.015625)"/>
      <path id="DejaVuSans-Bold-16" d="M 2981 2516
Q 3453 2394 3698 2092
Q 3944 1791 3944 1325
Q 3944 631 3412 270
Q 2881 -91 1863 -91
Q 1503 -91 1142 -33
Q 781 25 428 141
L 428 1069
Q 766 900 1098 814
Q 1431 728 1753 728
Q 2231 728 2486 893
Q 2741 1059 2741 1369
Q 2741 1688 2480 1852
Q 2219 2016 1709 2016
L 1228 2016
L 1228 2791
L 1734 2791
Q 2188 2791 2409 2933
Q 2631 3075 2631 3366
Q 2631 3634 2415 3781
Q 2200 3928 1806 3928
Q 1516 3928 1219 3862
Q 922 3797 628 3669
L 628 4550
Q 984 4650 1334 4700
Q 1684 4750 2022 4750
Q 2931 4750 3382 4451
Q 3834 4153 3834 3553
Q 3834 3144 3618 2883
Q 3403 2622 2981 2516
z
" transform="scale(0.015625)"/>
      <path id="DejaVuSans-Bold-14" d="M 750 831
L 1813 831
L 1813 3847
L 722 3622
L 722 4441
L 1806 4666
L 2950 4666
L 2950 831
L 4013 831
L 4013 0
L 750 0
L 750 831
z
" transform="scale(0.015625)"/>
      <path id="DejaVuSans-Bold-10" d="M 347 2297
L 2309 2297
L 2309 1388
L 347 1388
L 347 2297
z
" transform="scale(0.015625)"/>
      <path id="DejaVuSans-Bold-26" d="M 4288 256
Q 3956 84 3597 -3
Q 3238 -91 2847 -91
Q 1681 -91 1000 561
Q 319 1213 319 2328
Q 319 3447 1000 4098
Q 1681 4750 2847 4750
Q 3238 4750 3597 4662
Q 3956 4575 4288 4403
L 4288 3438
Q 3953 3666 3628 3772
Q 3303 3878 2944 3878
Q 2300 3878 1931 3465
Q 1563 3053 1563 2328
Q 1563 1606 1931 1193
Q 2300 781 2944 781
Q 3303 781 3628 887
Q 3953 994 4288 1222
L 4288 256
z
" transform="scale(0.015625)"/>
      <path id="DejaVuSans-Bold-3" transform="scale(0.015625)"/>
      <path id="DejaVuSans-Bold-13ab" d="M 3078 4863
L 4206 4863
L 4206 3950
L 3078 3950
L 3078 4863
z
M 2847 4863
L 2847 4128
L 2228 4128
Q 1994 4128 1903 4042
Q 1813 3956 1813 3744
L 1813 3500
L 4206 3500
L 4206 0
L 3078 0
L 3078 2700
L 1813 2700
L 1813 0
L 684 0
L 684 2700
L 134 2700
L 134 3500
L 684 3500
L 684 3744
Q 684 4316 1003 4589
Q 1322 4863 1991 4863
L 2847 4863
z
" transform="scale(0.015625)"/>
      <path id="DejaVuSans-Bold-51" d="M 4056 2131
L 4056 0
L 2931 0
L 2931 347
L 2931 1631
Q 2931 2084 2911 2256
Q 2891 2428 2841 2509
Q 2775 2619 2662 2680
Q 2550 2741 2406 2741
Q 2056 2741 1856 2470
Q 1656 2200 1656 1722
L 1656 0
L 538 0
L 538 3500
L 1656 3500
L 1656 2988
Q 1909 3294 2193 3439
Q 2478 3584 2822 3584
Q 3428 3584 3742 3212
Q 4056 2841 4056 2131
z
" transform="scale(0.015625)"/>
      <path id="DejaVuSans-Bold-44" d="M 2106 1575
Q 1756 1575 1579 1456
Q 1403 1338 1403 1106
Q 1403 894 1545 773
Q 1688 653 1941 653
Q 2256 653 2472 879
Q 2688 1106 2688 1447
L 2688 1575
L 2106 1575
z
M 3816 1997
L 3816 0
L 2688 0
L 2688 519
Q 2463 200 2181 54
Q 1900 -91 1497 -91
Q 953 -91 614 226
Q 275 544 275 1050
Q 275 1666 698 1953
Q 1122 2241 2028 2241
L 2688 2241
L 2688 2328
Q 2688 2594 2478 2717
Q 2269 2841 1825 2841
Q 1466 2841 1156 2769
Q 847 2697 581 2553
L 581 3406
Q 941 3494 1303 3539
Q 1666 3584 2028 3584
Q 2975 3584 3395 3211
Q 3816 2838 3816 1997
z
" transform="scale(0.015625)"/>
      <path id="DejaVuSans-Bold-4f" d="M 538 4863
L 1656 4863
L 1656 0
L 538 0
L 538 4863
z
" transform="scale(0.015625)"/>
      <path id="DejaVuSans-Bold-46" d="M 3366 3391
L 3366 2478
Q 3138 2634 2908 2709
Q 2678 2784 2431 2784
Q 1963 2784 1702 2511
Q 1441 2238 1441 1747
Q 1441 1256 1702 982
Q 1963 709 2431 709
Q 2694 709 2930 787
Q 3166 866 3366 1019
L 3366 103
Q 3103 6 2833 -42
Q 2563 -91 2291 -91
Q 1344 -91 809 395
Q 275 881 275 1747
Q 275 2613 809 3098
Q 1344 3584 2291 3584
Q 2566 3584 2833 3536
Q 3100 3488 3366 3391
z
" transform="scale(0.015625)"/>
      <path id="DejaVuSans-Bold-4c" d="M 538 3500
L 1656 3500
L 1656 0
L 538 0
L 538 3500
z
M 538 4863
L 1656 4863
L 1656 3950
L 538 3950
L 538 4863
z
" transform="scale(0.015625)"/>
      <path id="DejaVuSans-Bold-50" d="M 3781 2919
Q 3994 3244 4286 3414
Q 4578 3584 4928 3584
Q 5531 3584 5847 3212
Q 6163 2841 6163 2131
L 6163 0
L 5038 0
L 5038 1825
Q 5041 1866 5042 1909
Q 5044 1953 5044 2034
Q 5044 2406 4934 2573
Q 4825 2741 4581 2741
Q 4263 2741 4089 2478
Q 3916 2216 3909 1719
L 3909 0
L 2784 0
L 2784 1825
Q 2784 2406 2684 2573
Q 2584 2741 2328 2741
Q 2006 2741 1831 2477
Q 1656 2213 1656 1722
L 1656 0
L 531 0
L 531 3500
L 1656 3500
L 1656 2988
Q 1863 3284 2130 3434
Q 2397 3584 2719 3584
Q 3081 3584 3359 3409
Q 3638 3234 3781 2919
z
" transform="scale(0.015625)"/>
      <path id="DejaVuSans-Bold-12" d="M 1644 4666
L 2338 4666
L 691 -594
L 0 -594
L 1644 4666
z
" transform="scale(0.015625)"/>
      <path id="DejaVuSans-Bold-55" d="M 3138 2547
Q 2991 2616 2845 2648
Q 2700 2681 2553 2681
Q 2122 2681 1889 2404
Q 1656 2128 1656 1613
L 1656 0
L 538 0
L 538 3500
L 1656 3500
L 1656 2925
Q 1872 3269 2151 3426
Q 2431 3584 2822 3584
Q 2878 3584 2943 3579
Q 3009 3575 3134 3559
L 3138 2547
z
" transform="scale(0.015625)"/>
      <path id="DejaVuSans-Bold-48" d="M 4031 1759
L 4031 1441
L 1416 1441
Q 1456 1047 1700 850
Q 1944 653 2381 653
Q 2734 653 3104 758
Q 3475 863 3866 1075
L 3866 213
Q 3469 63 3072 -14
Q 2675 -91 2278 -91
Q 1328 -91 801 392
Q 275 875 275 1747
Q 275 2603 792 3093
Q 1309 3584 2216 3584
Q 3041 3584 3536 3087
Q 4031 2591 4031 1759
z
M 2881 2131
Q 2881 2450 2695 2645
Q 2509 2841 2209 2841
Q 1884 2841 1681 2658
Q 1478 2475 1428 2131
L 2881 2131
z
" transform="scale(0.015625)"/>
      <path id="DejaVuSans-Bold-56" d="M 3272 3391
L 3272 2541
Q 2913 2691 2578 2766
Q 2244 2841 1947 2841
Q 1628 2841 1473 2761
Q 1319 2681 1319 2516
Q 1319 2381 1436 2309
Q 1553 2238 1856 2203
L 2053 2175
Q 2913 2066 3209 1816
Q 3506 1566 3506 1031
Q 3506 472 3093 190
Q 2681 -91 1863 -91
Q 1516 -91 1145 -36
Q 775 19 384 128
L 384 978
Q 719 816 1070 734
Q 1422 653 1784 653
Q 2113 653 2278 743
Q 2444 834 2444 1013
Q 2444 1163 2330 1236
Q 2216 1309 1875 1350
L 1678 1375
Q 931 1469 631 1722
Q 331 1975 331 2491
Q 331 3047 712 3315
Q 1094 3584 1881 3584
Q 2191 3584 2531 3537
Q 2872 3491 3272 3391
z
" transform="scale(0.015625)"/>
      <path id="DejaVuSans-Bold-59" d="M 97 3500
L 1216 3500
L 2088 1081
L 2956 3500
L 4078 3500
L 2700 0
L 1472 0
L 97 3500
z
" transform="scale(0.015625)"/>
      <path id="DejaVuSans-Bold-5a" d="M 225 3500
L 1313 3500
L 1900 1088
L 2491 3500
L 3425 3500
L 4013 1113
L 4603 3500
L 5691 3500
L 4769 0
L 3547 0
L 2956 2406
L 2369 0
L 1147 0
L 225 3500
z
" transform="scale(0.015625)"/>
      <path id="DejaVuSans-Bold-1d" d="M 716 3500
L 1844 3500
L 1844 2291
L 716 2291
L 716 3500
z
M 716 1209
L 1844 1209
L 1844 0
L 716 0
L 716 1209
z
" transform="scale(0.015625)"/>
      <path id="DejaVuSans-Bold-35" d="M 2297 2597
Q 2675 2597 2839 2737
Q 3003 2878 3003 3200
Q 3003 3519 2839 3656
Q 2675 3794 2297 3794
L 1791 3794
L 1791 2597
L 2297 2597
z
M 1791 1766
L 1791 0
L 588 0
L 588 4666
L 2425 4666
Q 3347 4666 3776 4356
Q 4206 4047 4206 3378
Q 4206 2916 3982 2619
Q 3759 2322 3309 2181
Q 3556 2125 3751 1926
Q 3947 1728 4147 1325
L 4800 0
L 3519 0
L 2950 1159
Q 2778 1509 2601 1637
Q 2425 1766 2131 1766
L 1791 1766
z
" transform="scale(0.015625)"/>
      <path id="DejaVuSans-Bold-28" d="M 588 4666
L 3834 4666
L 3834 3756
L 1791 3756
L 1791 2888
L 3713 2888
L 3713 1978
L 1791 1978
L 1791 909
L 3903 909
L 3903 0
L 588 0
L 588 4666
z
" transform="scale(0.015625)"/>
      <path id="DejaVuSans-Bold-24" d="M 3419 850
L 1538 850
L 1241 0
L 31 0
L 1759 4666
L 3194 4666
L 4922 0
L 3713 0
L 3419 850
z
M 1838 1716
L 3116 1716
L 2478 3572
L 1838 1716
z
" transform="scale(0.015625)"/>
      <path id="DejaVuSans-Bold-3c" d="M -63 4666
L 1253 4666
L 2316 3003
L 3378 4666
L 4697 4666
L 2919 1966
L 2919 0
L 1716 0
L 1716 1966
L -63 4666
z
" transform="scale(0.015625)"/>
     </defs>
     <use xlink:href="#DejaVuSans-Bold-27"/>
     <use xlink:href="#DejaVuSans-Bold-13" transform="translate(83.015625 0)"/>
     <use xlink:href="#DejaVuSans-Bold-16" transform="translate(152.59375 0)"/>
     <use xlink:href="#DejaVuSans-Bold-14" transform="translate(222.171875 0)"/>
     <use xlink:href="#DejaVuSans-Bold-10" transform="translate(291.75 0)"/>
     <use xlink:href="#DejaVuSans-Bold-26" transform="translate(333.25 0)"/>
     <use xlink:href="#DejaVuSans-Bold-3" transform="translate(406.640625 0)"/>
     <use xlink:href="#DejaVuSans-Bold-13ab" transform="translate(441.453125 0)"/>
     <use xlink:href="#DejaVuSans-Bold-51" transform="translate(515.578125 0)"/>
     <use xlink:href="#DejaVuSans-Bold-44" transform="translate(586.765625 0)"/>
     <use xlink:href="#DejaVuSans-Bold-4f" transform="translate(654.25 0)"/>
     <use xlink:href="#DejaVuSans-Bold-3" transform="translate(688.53125 0)"/>
     <use xlink:href="#DejaVuSans-Bold-46" transform="translate(723.34375 0)"/>
     <use xlink:href="#DejaVuSans-Bold-4f" transform="translate(782.625 0)"/>
     <use xlink:href="#DejaVuSans-Bold-44" transform="translate(816.90625 0)"/>
     <use xlink:href="#DejaVuSans-Bold-4c" transform="translate(884.390625 0)"/>
     <use xlink:href="#DejaVuSans-Bold-50" transform="translate(918.671875 0)"/>
     <use xlink:href="#DejaVuSans-Bold-12" transform="translate(1022.875 0)"/>
     <use xlink:href="#DejaVuSans-Bold-55" transform="translate(1059.40625 0)"/>
     <use xlink:href="#DejaVuSans-Bold-48" transform="translate(1108.71875 0)"/>
     <use xlink:href="#DejaVuSans-Bold-4f" transform="translate(1176.546875 0)"/>
     <use xlink:href="#DejaVuSans-Bold-48" transform="translate(1210.828125 0)"/>
     <use xlink:href="#DejaVuSans-Bold-44" transform="translate(1278.65625 0)"/>
     <use xlink:href="#DejaVuSans-Bold-56" transform="translate(1346.140625 0)"/>
     <use xlink:href="#DejaVuSans-Bold-48" transform="translate(1405.65625 0)"/>
     <use xlink:href="#DejaVuSans-Bold-3" transform="translate(1473.484375 0)"/>
     <use xlink:href="#DejaVuSans-Bold-55" transform="translate(1508.296875 0)"/>
     <use xlink:href="#DejaVuSans-Bold-48" transform="translate(1557.609375 0)"/>
     <use xlink:href="#DejaVuSans-Bold-59" transform="translate(1625.4375 0)"/>
     <use xlink:href="#DejaVuSans-Bold-4c" transform="translate(1690.625 0)"/>
     <use xlink:href="#DejaVuSans-Bold-48" transform="translate(1724.90625 0)"/>
     <use xlink:href="#DejaVuSans-Bold-5a" transform="translate(1792.734375 0)"/>
     <use xlink:href="#DejaVuSans-Bold-1d" transform="translate(1885.125 0)"/>
     <use xlink:href="#DejaVuSans-Bold-3" transform="translate(1925.109375 0)"/>
     <use xlink:href="#DejaVuSans-Bold-35" transform="translate(1959.921875 0)"/>
     <use xlink:href="#DejaVuSans-Bold-28" transform="translate(2036.921875 0)"/>
     <use xlink:href="#DejaVuSans-Bold-24" transform="translate(2105.234375 0)"/>
     <use xlink:href="#DejaVuSans-Bold-27" transform="translate(2182.625 0)"/>
     <use xlink:href="#DejaVuSans-Bold-3c" transform="translate(2258.359375 0)"/>
    </g>
   </g>
   <g id="text_2">
    <!-- The package is reviewed for claim boundaries; release still requires a human decision. -->
    <g style="fill: #5e6a71" transform="translate(21.15 49.117762) scale(0.092 -0.092)">
     <defs>
      <path id="DejaVuSans-37" d="M -19 4666
L 3928 4666
L 3928 4134
L 2272 4134
L 2272 0
L 1638 0
L 1638 4134
L -19 4134
L -19 4666
z
" transform="scale(0.015625)"/>
      <path id="DejaVuSans-4b" d="M 3513 2113
L 3513 0
L 2938 0
L 2938 2094
Q 2938 2591 2744 2837
Q 2550 3084 2163 3084
Q 1697 3084 1428 2787
Q 1159 2491 1159 1978
L 1159 0
L 581 0
L 581 4863
L 1159 4863
L 1159 2956
Q 1366 3272 1645 3428
Q 1925 3584 2291 3584
Q 2894 3584 3203 3211
Q 3513 2838 3513 2113
z
" transform="scale(0.015625)"/>
      <path id="DejaVuSans-48" d="M 3597 1894
L 3597 1613
L 953 1613
Q 991 1019 1311 708
Q 1631 397 2203 397
Q 2534 397 2845 478
Q 3156 559 3463 722
L 3463 178
Q 3153 47 2828 -22
Q 2503 -91 2169 -91
Q 1331 -91 842 396
Q 353 884 353 1716
Q 353 2575 817 3079
Q 1281 3584 2069 3584
Q 2775 3584 3186 3129
Q 3597 2675 3597 1894
z
M 3022 2063
Q 3016 2534 2758 2815
Q 2500 3097 2075 3097
Q 1594 3097 1305 2825
Q 1016 2553 972 2059
L 3022 2063
z
" transform="scale(0.015625)"/>
      <path id="DejaVuSans-3" transform="scale(0.015625)"/>
      <path id="DejaVuSans-53" d="M 1159 525
L 1159 -1331
L 581 -1331
L 581 3500
L 1159 3500
L 1159 2969
Q 1341 3281 1617 3432
Q 1894 3584 2278 3584
Q 2916 3584 3314 3078
Q 3713 2572 3713 1747
Q 3713 922 3314 415
Q 2916 -91 2278 -91
Q 1894 -91 1617 61
Q 1341 213 1159 525
z
M 3116 1747
Q 3116 2381 2855 2742
Q 2594 3103 2138 3103
Q 1681 3103 1420 2742
Q 1159 2381 1159 1747
Q 1159 1113 1420 752
Q 1681 391 2138 391
Q 2594 391 2855 752
Q 3116 1113 3116 1747
z
" transform="scale(0.015625)"/>
      <path id="DejaVuSans-44" d="M 2194 1759
Q 1497 1759 1228 1600
Q 959 1441 959 1056
Q 959 750 1161 570
Q 1363 391 1709 391
Q 2188 391 2477 730
Q 2766 1069 2766 1631
L 2766 1759
L 2194 1759
z
M 3341 1997
L 3341 0
L 2766 0
L 2766 531
Q 2569 213 2275 61
Q 1981 -91 1556 -91
Q 1019 -91 701 211
Q 384 513 384 1019
Q 384 1609 779 1909
Q 1175 2209 1959 2209
L 2766 2209
L 2766 2266
Q 2766 2663 2505 2880
Q 2244 3097 1772 3097
Q 1472 3097 1187 3025
Q 903 2953 641 2809
L 641 3341
Q 956 3463 1253 3523
Q 1550 3584 1831 3584
Q 2591 3584 2966 3190
Q 3341 2797 3341 1997
z
" transform="scale(0.015625)"/>
      <path id="DejaVuSans-46" d="M 3122 3366
L 3122 2828
Q 2878 2963 2633 3030
Q 2388 3097 2138 3097
Q 1578 3097 1268 2742
Q 959 2388 959 1747
Q 959 1106 1268 751
Q 1578 397 2138 397
Q 2388 397 2633 464
Q 2878 531 3122 666
L 3122 134
Q 2881 22 2623 -34
Q 2366 -91 2075 -91
Q 1284 -91 818 406
Q 353 903 353 1747
Q 353 2603 823 3093
Q 1294 3584 2113 3584
Q 2378 3584 2631 3529
Q 2884 3475 3122 3366
z
" transform="scale(0.015625)"/>
      <path id="DejaVuSans-4e" d="M 581 4863
L 1159 4863
L 1159 1991
L 2875 3500
L 3609 3500
L 1753 1863
L 3688 0
L 2938 0
L 1159 1709
L 1159 0
L 581 0
L 581 4863
z
" transform="scale(0.015625)"/>
      <path id="DejaVuSans-4a" d="M 2906 1791
Q 2906 2416 2648 2759
Q 2391 3103 1925 3103
Q 1463 3103 1205 2759
Q 947 2416 947 1791
Q 947 1169 1205 825
Q 1463 481 1925 481
Q 2391 481 2648 825
Q 2906 1169 2906 1791
z
M 3481 434
Q 3481 -459 3084 -895
Q 2688 -1331 1869 -1331
Q 1566 -1331 1297 -1286
Q 1028 -1241 775 -1147
L 775 -588
Q 1028 -725 1275 -790
Q 1522 -856 1778 -856
Q 2344 -856 2625 -561
Q 2906 -266 2906 331
L 2906 616
Q 2728 306 2450 153
Q 2172 0 1784 0
Q 1141 0 747 490
Q 353 981 353 1791
Q 353 2603 747 3093
Q 1141 3584 1784 3584
Q 2172 3584 2450 3431
Q 2728 3278 2906 2969
L 2906 3500
L 3481 3500
L 3481 434
z
" transform="scale(0.015625)"/>
      <path id="DejaVuSans-4c" d="M 603 3500
L 1178 3500
L 1178 0
L 603 0
L 603 3500
z
M 603 4863
L 1178 4863
L 1178 4134
L 603 4134
L 603 4863
z
" transform="scale(0.015625)"/>
      <path id="DejaVuSans-56" d="M 2834 3397
L 2834 2853
Q 2591 2978 2328 3040
Q 2066 3103 1784 3103
Q 1356 3103 1142 2972
Q 928 2841 928 2578
Q 928 2378 1081 2264
Q 1234 2150 1697 2047
L 1894 2003
Q 2506 1872 2764 1633
Q 3022 1394 3022 966
Q 3022 478 2636 193
Q 2250 -91 1575 -91
Q 1294 -91 989 -36
Q 684 19 347 128
L 347 722
Q 666 556 975 473
Q 1284 391 1588 391
Q 1994 391 2212 530
Q 2431 669 2431 922
Q 2431 1156 2273 1281
Q 2116 1406 1581 1522
L 1381 1569
Q 847 1681 609 1914
Q 372 2147 372 2553
Q 372 3047 722 3315
Q 1072 3584 1716 3584
Q 2034 3584 2315 3537
Q 2597 3491 2834 3397
z
" transform="scale(0.015625)"/>
      <path id="DejaVuSans-55" d="M 2631 2963
Q 2534 3019 2420 3045
Q 2306 3072 2169 3072
Q 1681 3072 1420 2755
Q 1159 2438 1159 1844
L 1159 0
L 581 0
L 581 3500
L 1159 3500
L 1159 2956
Q 1341 3275 1631 3429
Q 1922 3584 2338 3584
Q 2397 3584 2469 3576
Q 2541 3569 2628 3553
L 2631 2963
z
" transform="scale(0.015625)"/>
      <path id="DejaVuSans-59" d="M 191 3500
L 800 3500
L 1894 563
L 2988 3500
L 3597 3500
L 2284 0
L 1503 0
L 191 3500
z
" transform="scale(0.015625)"/>
      <path id="DejaVuSans-5a" d="M 269 3500
L 844 3500
L 1563 769
L 2278 3500
L 2956 3500
L 3675 769
L 4391 3500
L 4966 3500
L 4050 0
L 3372 0
L 2619 2869
L 1863 0
L 1184 0
L 269 3500
z
" transform="scale(0.015625)"/>
      <path id="DejaVuSans-47" d="M 2906 2969
L 2906 4863
L 3481 4863
L 3481 0
L 2906 0
L 2906 525
Q 2725 213 2448 61
Q 2172 -91 1784 -91
Q 1150 -91 751 415
Q 353 922 353 1747
Q 353 2572 751 3078
Q 1150 3584 1784 3584
Q 2172 3584 2448 3432
Q 2725 3281 2906 2969
z
M 947 1747
Q 947 1113 1208 752
Q 1469 391 1925 391
Q 2381 391 2643 752
Q 2906 1113 2906 1747
Q 2906 2381 2643 2742
Q 2381 3103 1925 3103
Q 1469 3103 1208 2742
Q 947 2381 947 1747
z
" transform="scale(0.015625)"/>
      <path id="DejaVuSans-49" d="M 2375 4863
L 2375 4384
L 1825 4384
Q 1516 4384 1395 4259
Q 1275 4134 1275 3809
L 1275 3500
L 2222 3500
L 2222 3053
L 1275 3053
L 1275 0
L 697 0
L 697 3053
L 147 3053
L 147 3500
L 697 3500
L 697 3744
Q 697 4328 969 4595
Q 1241 4863 1831 4863
L 2375 4863
z
" transform="scale(0.015625)"/>
      <path id="DejaVuSans-52" d="M 1959 3097
Q 1497 3097 1228 2736
Q 959 2375 959 1747
Q 959 1119 1226 758
Q 1494 397 1959 397
Q 2419 397 2687 759
Q 2956 1122 2956 1747
Q 2956 2369 2687 2733
Q 2419 3097 1959 3097
z
M 1959 3584
Q 2709 3584 3137 3096
Q 3566 2609 3566 1747
Q 3566 888 3137 398
Q 2709 -91 1959 -91
Q 1206 -91 779 398
Q 353 888 353 1747
Q 353 2609 779 3096
Q 1206 3584 1959 3584
z
" transform="scale(0.015625)"/>
      <path id="DejaVuSans-4f" d="M 603 4863
L 1178 4863
L 1178 0
L 603 0
L 603 4863
z
" transform="scale(0.015625)"/>
      <path id="DejaVuSans-50" d="M 3328 2828
Q 3544 3216 3844 3400
Q 4144 3584 4550 3584
Q 5097 3584 5394 3201
Q 5691 2819 5691 2113
L 5691 0
L 5113 0
L 5113 2094
Q 5113 2597 4934 2840
Q 4756 3084 4391 3084
Q 3944 3084 3684 2787
Q 3425 2491 3425 1978
L 3425 0
L 2847 0
L 2847 2094
Q 2847 2600 2669 2842
Q 2491 3084 2119 3084
Q 1678 3084 1418 2786
Q 1159 2488 1159 1978
L 1159 0
L 581 0
L 581 3500
L 1159 3500
L 1159 2956
Q 1356 3278 1631 3431
Q 1906 3584 2284 3584
Q 2666 3584 2933 3390
Q 3200 3197 3328 2828
z
" transform="scale(0.015625)"/>
      <path id="DejaVuSans-45" d="M 3116 1747
Q 3116 2381 2855 2742
Q 2594 3103 2138 3103
Q 1681 3103 1420 2742
Q 1159 2381 1159 1747
Q 1159 1113 1420 752
Q 1681 391 2138 391
Q 2594 391 2855 752
Q 3116 1113 3116 1747
z
M 1159 2969
Q 1341 3281 1617 3432
Q 1894 3584 2278 3584
Q 2916 3584 3314 3078
Q 3713 2572 3713 1747
Q 3713 922 3314 415
Q 2916 -91 2278 -91
Q 1894 -91 1617 61
Q 1341 213 1159 525
L 1159 0
L 581 0
L 581 4863
L 1159 4863
L 1159 2969
z
" transform="scale(0.015625)"/>
      <path id="DejaVuSans-58" d="M 544 1381
L 544 3500
L 1119 3500
L 1119 1403
Q 1119 906 1312 657
Q 1506 409 1894 409
Q 2359 409 2629 706
Q 2900 1003 2900 1516
L 2900 3500
L 3475 3500
L 3475 0
L 2900 0
L 2900 538
Q 2691 219 2414 64
Q 2138 -91 1772 -91
Q 1169 -91 856 284
Q 544 659 544 1381
z
M 1991 3584
L 1991 3584
z
" transform="scale(0.015625)"/>
      <path id="DejaVuSans-51" d="M 3513 2113
L 3513 0
L 2938 0
L 2938 2094
Q 2938 2591 2744 2837
Q 2550 3084 2163 3084
Q 1697 3084 1428 2787
Q 1159 2491 1159 1978
L 1159 0
L 581 0
L 581 3500
L 1159 3500
L 1159 2956
Q 1366 3272 1645 3428
Q 1925 3584 2291 3584
Q 2894 3584 3203 3211
Q 3513 2838 3513 2113
z
" transform="scale(0.015625)"/>
      <path id="DejaVuSans-1e" d="M 750 3309
L 1409 3309
L 1409 2516
L 750 2516
L 750 3309
z
M 750 794
L 1409 794
L 1409 256
L 897 -744
L 494 -744
L 750 256
L 750 794
z
" transform="scale(0.015625)"/>
      <path id="DejaVuSans-57" d="M 1172 4494
L 1172 3500
L 2356 3500
L 2356 3053
L 1172 3053
L 1172 1153
Q 1172 725 1289 603
Q 1406 481 1766 481
L 2356 481
L 2356 0
L 1766 0
Q 1100 0 847 248
Q 594 497 594 1153
L 594 3053
L 172 3053
L 172 3500
L 594 3500
L 594 4494
L 1172 4494
z
" transform="scale(0.015625)"/>
      <path id="DejaVuSans-54" d="M 947 1747
Q 947 1113 1208 752
Q 1469 391 1925 391
Q 2381 391 2643 752
Q 2906 1113 2906 1747
Q 2906 2381 2643 2742
Q 2381 3103 1925 3103
Q 1469 3103 1208 2742
Q 947 2381 947 1747
z
M 2906 525
Q 2725 213 2448 61
Q 2172 -91 1784 -91
Q 1150 -91 751 415
Q 353 922 353 1747
Q 353 2572 751 3078
Q 1150 3584 1784 3584
Q 2172 3584 2448 3432
Q 2725 3281 2906 2969
L 2906 3500
L 3481 3500
L 3481 -1331
L 2906 -1331
L 2906 525
z
" transform="scale(0.015625)"/>
      <path id="DejaVuSans-11" d="M 684 794
L 1344 794
L 1344 0
L 684 0
L 684 794
z
" transform="scale(0.015625)"/>
     </defs>
     <use xlink:href="#DejaVuSans-37"/>
     <use xlink:href="#DejaVuSans-4b" transform="translate(61.078125 0)"/>
     <use xlink:href="#DejaVuSans-48" transform="translate(124.453125 0)"/>
     <use xlink:href="#DejaVuSans-3" transform="translate(185.984375 0)"/>
     <use xlink:href="#DejaVuSans-53" transform="translate(217.765625 0)"/>
     <use xlink:href="#DejaVuSans-44" transform="translate(281.25 0)"/>
     <use xlink:href="#DejaVuSans-46" transform="translate(342.53125 0)"/>
     <use xlink:href="#DejaVuSans-4e" transform="translate(397.515625 0)"/>
     <use xlink:href="#DejaVuSans-44" transform="translate(453.671875 0)"/>
     <use xlink:href="#DejaVuSans-4a" transform="translate(514.953125 0)"/>
     <use xlink:href="#DejaVuSans-48" transform="translate(578.4375 0)"/>
     <use xlink:href="#DejaVuSans-3" transform="translate(639.96875 0)"/>
     <use xlink:href="#DejaVuSans-4c" transform="translate(671.75 0)"/>
     <use xlink:href="#DejaVuSans-56" transform="translate(699.53125 0)"/>
     <use xlink:href="#DejaVuSans-3" transform="translate(751.625 0)"/>
     <use xlink:href="#DejaVuSans-55" transform="translate(783.40625 0)"/>
     <use xlink:href="#DejaVuSans-48" transform="translate(822.3125 0)"/>
     <use xlink:href="#DejaVuSans-59" transform="translate(883.84375 0)"/>
     <use xlink:href="#DejaVuSans-4c" transform="translate(943.03125 0)"/>
     <use xlink:href="#DejaVuSans-48" transform="translate(970.8125 0)"/>
     <use xlink:href="#DejaVuSans-5a" transform="translate(1032.34375 0)"/>
     <use xlink:href="#DejaVuSans-48" transform="translate(1114.125 0)"/>
     <use xlink:href="#DejaVuSans-47" transform="translate(1175.65625 0)"/>
     <use xlink:href="#DejaVuSans-3" transform="translate(1239.140625 0)"/>
     <use xlink:href="#DejaVuSans-49" transform="translate(1270.921875 0)"/>
     <use xlink:href="#DejaVuSans-52" transform="translate(1306.125 0)"/>
     <use xlink:href="#DejaVuSans-55" transform="translate(1367.3125 0)"/>
     <use xlink:href="#DejaVuSans-3" transform="translate(1408.421875 0)"/>
     <use xlink:href="#DejaVuSans-46" transform="translate(1440.203125 0)"/>
     <use xlink:href="#DejaVuSans-4f" transform="translate(1495.1875 0)"/>
     <use xlink:href="#DejaVuSans-44" transform="translate(1522.96875 0)"/>
     <use xlink:href="#DejaVuSans-4c" transform="translate(1584.25 0)"/>
     <use xlink:href="#DejaVuSans-50" transform="translate(1612.03125 0)"/>
     <use xlink:href="#DejaVuSans-3" transform="translate(1709.4375 0)"/>
     <use xlink:href="#DejaVuSans-45" transform="translate(1741.21875 0)"/>
     <use xlink:href="#DejaVuSans-52" transform="translate(1804.703125 0)"/>
     <use xlink:href="#DejaVuSans-58" transform="translate(1865.890625 0)"/>
     <use xlink:href="#DejaVuSans-51" transform="translate(1929.265625 0)"/>
     <use xlink:href="#DejaVuSans-47" transform="translate(1992.640625 0)"/>
     <use xlink:href="#DejaVuSans-44" transform="translate(2056.125 0)"/>
     <use xlink:href="#DejaVuSans-55" transform="translate(2117.40625 0)"/>
     <use xlink:href="#DejaVuSans-4c" transform="translate(2158.515625 0)"/>
     <use xlink:href="#DejaVuSans-48" transform="translate(2186.296875 0)"/>
     <use xlink:href="#DejaVuSans-56" transform="translate(2247.828125 0)"/>
     <use xlink:href="#DejaVuSans-1e" transform="translate(2299.921875 0)"/>
     <use xlink:href="#DejaVuSans-3" transform="translate(2333.609375 0)"/>
     <use xlink:href="#DejaVuSans-55" transform="translate(2365.390625 0)"/>
     <use xlink:href="#DejaVuSans-48" transform="translate(2404.296875 0)"/>
     <use xlink:href="#DejaVuSans-4f" transform="translate(2465.828125 0)"/>
     <use xlink:href="#DejaVuSans-48" transform="translate(2493.609375 0)"/>
     <use xlink:href="#DejaVuSans-44" transform="translate(2555.140625 0)"/>
     <use xlink:href="#DejaVuSans-56" transform="translate(2616.421875 0)"/>
     <use xlink:href="#DejaVuSans-48" transform="translate(2668.515625 0)"/>
     <use xlink:href="#DejaVuSans-3" transform="translate(2730.046875 0)"/>
     <use xlink:href="#DejaVuSans-56" transform="translate(2761.828125 0)"/>
     <use xlink:href="#DejaVuSans-57" transform="translate(2813.921875 0)"/>
     <use xlink:href="#DejaVuSans-4c" transform="translate(2853.125 0)"/>
     <use xlink:href="#DejaVuSans-4f" transform="translate(2880.90625 0)"/>
     <use xlink:href="#DejaVuSans-4f" transform="translate(2908.6875 0)"/>
     <use xlink:href="#DejaVuSans-3" transform="translate(2936.46875 0)"/>
     <use xlink:href="#DejaVuSans-55" transform="translate(2968.25 0)"/>
     <use xlink:href="#DejaVuSans-48" transform="translate(3007.15625 0)"/>
     <use xlink:href="#DejaVuSans-54" transform="translate(3068.6875 0)"/>
     <use xlink:href="#DejaVuSans-58" transform="translate(3132.171875 0)"/>
     <use xlink:href="#DejaVuSans-4c" transform="translate(3195.546875 0)"/>
     <use xlink:href="#DejaVuSans-55" transform="translate(3223.328125 0)"/>
     <use xlink:href="#DejaVuSans-48" transform="translate(3262.234375 0)"/>
     <use xlink:href="#DejaVuSans-56" transform="translate(3323.765625 0)"/>
     <use xlink:href="#DejaVuSans-3" transform="translate(3375.859375 0)"/>
     <use xlink:href="#DejaVuSans-44" transform="translate(3407.640625 0)"/>
     <use xlink:href="#DejaVuSans-3" transform="translate(3468.921875 0)"/>
     <use xlink:href="#DejaVuSans-4b" transform="translate(3500.703125 0)"/>
     <use xlink:href="#DejaVuSans-58" transform="translate(3564.078125 0)"/>
     <use xlink:href="#DejaVuSans-50" transform="translate(3627.453125 0)"/>
     <use xlink:href="#DejaVuSans-44" transform="translate(3724.859375 0)"/>
     <use xlink:href="#DejaVuSans-51" transform="translate(3786.140625 0)"/>
     <use xlink:href="#DejaVuSans-3" transform="translate(3849.515625 0)"/>
     <use xlink:href="#DejaVuSans-47" transform="translate(3881.296875 0)"/>
     <use xlink:href="#DejaVuSans-48" transform="translate(3944.78125 0)"/>
     <use xlink:href="#DejaVuSans-46" transform="translate(4006.3125 0)"/>
     <use xlink:href="#DejaVuSans-4c" transform="translate(4061.296875 0)"/>
     <use xlink:href="#DejaVuSans-56" transform="translate(4089.078125 0)"/>
     <use xlink:href="#DejaVuSans-4c" transform="translate(4141.171875 0)"/>
     <use xlink:href="#DejaVuSans-52" transform="translate(4168.953125 0)"/>
     <use xlink:href="#DejaVuSans-51" transform="translate(4230.140625 0)"/>
     <use xlink:href="#DejaVuSans-11" transform="translate(4293.515625 0)"/>
    </g>
   </g>
   <g id="text_3">
    <!-- Allowed -->
    <g style="fill: #172026" transform="translate(61.605 102.268406) scale(0.102 -0.102)">
     <defs>
      <path id="DejaVuSans-Bold-52" d="M 2203 2784
Q 1831 2784 1636 2517
Q 1441 2250 1441 1747
Q 1441 1244 1636 976
Q 1831 709 2203 709
Q 2569 709 2762 976
Q 2956 1244 2956 1747
Q 2956 2250 2762 2517
Q 2569 2784 2203 2784
z
M 2203 3584
Q 3106 3584 3614 3096
Q 4122 2609 4122 1747
Q 4122 884 3614 396
Q 3106 -91 2203 -91
Q 1297 -91 786 396
Q 275 884 275 1747
Q 275 2609 786 3096
Q 1297 3584 2203 3584
z
" transform="scale(0.015625)"/>
      <path id="DejaVuSans-Bold-47" d="M 2919 2988
L 2919 4863
L 4044 4863
L 4044 0
L 2919 0
L 2919 506
Q 2688 197 2409 53
Q 2131 -91 1766 -91
Q 1119 -91 703 423
Q 288 938 288 1747
Q 288 2556 703 3070
Q 1119 3584 1766 3584
Q 2128 3584 2408 3439
Q 2688 3294 2919 2988
z
M 2181 722
Q 2541 722 2730 984
Q 2919 1247 2919 1747
Q 2919 2247 2730 2509
Q 2541 2772 2181 2772
Q 1825 2772 1636 2509
Q 1447 2247 1447 1747
Q 1447 1247 1636 984
Q 1825 722 2181 722
z
" transform="scale(0.015625)"/>
     </defs>
     <use xlink:href="#DejaVuSans-Bold-24"/>
     <use xlink:href="#DejaVuSans-Bold-4f" transform="translate(77.390625 0)"/>
     <use xlink:href="#DejaVuSans-Bold-4f" transform="translate(111.671875 0)"/>
     <use xlink:href="#DejaVuSans-Bold-52" transform="translate(145.953125 0)"/>
     <use xlink:href="#DejaVuSans-Bold-5a" transform="translate(214.65625 0)"/>
     <use xlink:href="#DejaVuSans-Bold-48" transform="translate(307.046875 0)"/>
     <use xlink:href="#DejaVuSans-Bold-47" transform="translate(374.875 0)"/>
    </g>
   </g>
   <g id="text_4">
    <!-- Negative public-data -->
    <g style="fill: #172026" transform="translate(61.605 119.84526) scale(0.08 -0.08)">
     <defs>
      <path id="DejaVuSans-31" d="M 628 4666
L 1478 4666
L 3547 763
L 3547 4666
L 4159 4666
L 4159 0
L 3309 0
L 1241 3903
L 1241 0
L 628 0
L 628 4666
z
" transform="scale(0.015625)"/>
      <path id="DejaVuSans-10" d="M 313 2009
L 1997 2009
L 1997 1497
L 313 1497
L 313 2009
z
" transform="scale(0.015625)"/>
     </defs>
     <use xlink:href="#DejaVuSans-31"/>
     <use xlink:href="#DejaVuSans-48" transform="translate(74.8125 0)"/>
     <use xlink:href="#DejaVuSans-4a" transform="translate(136.34375 0)"/>
     <use xlink:href="#DejaVuSans-44" transform="translate(199.828125 0)"/>
     <use xlink:href="#DejaVuSans-57" transform="translate(261.109375 0)"/>
     <use xlink:href="#DejaVuSans-4c" transform="translate(300.3125 0)"/>
     <use xlink:href="#DejaVuSans-59" transform="translate(328.09375 0)"/>
     <use xlink:href="#DejaVuSans-48" transform="translate(387.28125 0)"/>
     <use xlink:href="#DejaVuSans-3" transform="translate(448.8125 0)"/>
     <use xlink:href="#DejaVuSans-53" transform="translate(480.59375 0)"/>
     <use xlink:href="#DejaVuSans-58" transform="translate(544.078125 0)"/>
     <use xlink:href="#DejaVuSans-45" transform="translate(607.453125 0)"/>
     <use xlink:href="#DejaVuSans-4f" transform="translate(670.9375 0)"/>
     <use xlink:href="#DejaVuSans-4c" transform="translate(698.71875 0)"/>
     <use xlink:href="#DejaVuSans-46" transform="translate(726.5 0)"/>
     <use xlink:href="#DejaVuSans-10" transform="translate(781.484375 0)"/>
     <use xlink:href="#DejaVuSans-47" transform="translate(817.5625 0)"/>
     <use xlink:href="#DejaVuSans-44" transform="translate(881.046875 0)"/>
     <use xlink:href="#DejaVuSans-57" transform="translate(942.328125 0)"/>
     <use xlink:href="#DejaVuSans-44" transform="translate(981.53125 0)"/>
    </g>
    <!-- benchmark. -->
    <g style="fill: #172026" transform="translate(61.605 130.38026) scale(0.08 -0.08)">
     <use xlink:href="#DejaVuSans-45"/>
     <use xlink:href="#DejaVuSans-48" transform="translate(63.484375 0)"/>
     <use xlink:href="#DejaVuSans-51" transform="translate(125.015625 0)"/>
     <use xlink:href="#DejaVuSans-46" transform="translate(188.390625 0)"/>
     <use xlink:href="#DejaVuSans-4b" transform="translate(243.375 0)"/>
     <use xlink:href="#DejaVuSans-50" transform="translate(306.75 0)"/>
     <use xlink:href="#DejaVuSans-44" transform="translate(404.15625 0)"/>
     <use xlink:href="#DejaVuSans-55" transform="translate(465.4375 0)"/>
     <use xlink:href="#DejaVuSans-4e" transform="translate(506.546875 0)"/>
     <use xlink:href="#DejaVuSans-11" transform="translate(564.453125 0)"/>
    </g>
    <!--  -->
    <g style="fill: #172026" transform="translate(61.605 137.15776) scale(0.08 -0.08)"/>
    <!-- No P001 QML Gate-6 claim. -->
    <g style="fill: #172026" transform="translate(61.605 149.44151) scale(0.08 -0.08)">
     <defs>
      <path id="DejaVuSans-33" d="M 1259 4147
L 1259 2394
L 2053 2394
Q 2494 2394 2734 2622
Q 2975 2850 2975 3272
Q 2975 3691 2734 3919
Q 2494 4147 2053 4147
L 1259 4147
z
M 628 4666
L 2053 4666
Q 2838 4666 3239 4311
Q 3641 3956 3641 3272
Q 3641 2581 3239 2228
Q 2838 1875 2053 1875
L 1259 1875
L 1259 0
L 628 0
L 628 4666
z
" transform="scale(0.015625)"/>
      <path id="DejaVuSans-13" d="M 2034 4250
Q 1547 4250 1301 3770
Q 1056 3291 1056 2328
Q 1056 1369 1301 889
Q 1547 409 2034 409
Q 2525 409 2770 889
Q 3016 1369 3016 2328
Q 3016 3291 2770 3770
Q 2525 4250 2034 4250
z
M 2034 4750
Q 2819 4750 3233 4129
Q 3647 3509 3647 2328
Q 3647 1150 3233 529
Q 2819 -91 2034 -91
Q 1250 -91 836 529
Q 422 1150 422 2328
Q 422 3509 836 4129
Q 1250 4750 2034 4750
z
" transform="scale(0.015625)"/>
      <path id="DejaVuSans-14" d="M 794 531
L 1825 531
L 1825 4091
L 703 3866
L 703 4441
L 1819 4666
L 2450 4666
L 2450 531
L 3481 531
L 3481 0
L 794 0
L 794 531
z
" transform="scale(0.015625)"/>
      <path id="DejaVuSans-34" d="M 2522 4238
Q 1834 4238 1429 3725
Q 1025 3213 1025 2328
Q 1025 1447 1429 934
Q 1834 422 2522 422
Q 3209 422 3611 934
Q 4013 1447 4013 2328
Q 4013 3213 3611 3725
Q 3209 4238 2522 4238
z
M 3406 84
L 4238 -825
L 3475 -825
L 2784 -78
Q 2681 -84 2626 -87
Q 2572 -91 2522 -91
Q 1538 -91 948 567
Q 359 1225 359 2328
Q 359 3434 948 4092
Q 1538 4750 2522 4750
Q 3503 4750 4090 4092
Q 4678 3434 4678 2328
Q 4678 1516 4351 937
Q 4025 359 3406 84
z
" transform="scale(0.015625)"/>
      <path id="DejaVuSans-30" d="M 628 4666
L 1569 4666
L 2759 1491
L 3956 4666
L 4897 4666
L 4897 0
L 4281 0
L 4281 4097
L 3078 897
L 2444 897
L 1241 4097
L 1241 0
L 628 0
L 628 4666
z
" transform="scale(0.015625)"/>
      <path id="DejaVuSans-2f" d="M 628 4666
L 1259 4666
L 1259 531
L 3531 531
L 3531 0
L 628 0
L 628 4666
z
" transform="scale(0.015625)"/>
      <path id="DejaVuSans-2a" d="M 3809 666
L 3809 1919
L 2778 1919
L 2778 2438
L 4434 2438
L 4434 434
Q 4069 175 3628 42
Q 3188 -91 2688 -91
Q 1594 -91 976 548
Q 359 1188 359 2328
Q 359 3472 976 4111
Q 1594 4750 2688 4750
Q 3144 4750 3555 4637
Q 3966 4525 4313 4306
L 4313 3634
Q 3963 3931 3569 4081
Q 3175 4231 2741 4231
Q 1884 4231 1454 3753
Q 1025 3275 1025 2328
Q 1025 1384 1454 906
Q 1884 428 2741 428
Q 3075 428 3337 486
Q 3600 544 3809 666
z
" transform="scale(0.015625)"/>
      <path id="DejaVuSans-19" d="M 2113 2584
Q 1688 2584 1439 2293
Q 1191 2003 1191 1497
Q 1191 994 1439 701
Q 1688 409 2113 409
Q 2538 409 2786 701
Q 3034 994 3034 1497
Q 3034 2003 2786 2293
Q 2538 2584 2113 2584
z
M 3366 4563
L 3366 3988
Q 3128 4100 2886 4159
Q 2644 4219 2406 4219
Q 1781 4219 1451 3797
Q 1122 3375 1075 2522
Q 1259 2794 1537 2939
Q 1816 3084 2150 3084
Q 2853 3084 3261 2657
Q 3669 2231 3669 1497
Q 3669 778 3244 343
Q 2819 -91 2113 -91
Q 1303 -91 875 529
Q 447 1150 447 2328
Q 447 3434 972 4092
Q 1497 4750 2381 4750
Q 2619 4750 2861 4703
Q 3103 4656 3366 4563
z
" transform="scale(0.015625)"/>
     </defs>
     <use xlink:href="#DejaVuSans-31"/>
     <use xlink:href="#DejaVuSans-52" transform="translate(74.8125 0)"/>
     <use xlink:href="#DejaVuSans-3" transform="translate(136 0)"/>
     <use xlink:href="#DejaVuSans-33" transform="translate(167.78125 0)"/>
     <use xlink:href="#DejaVuSans-13" transform="translate(228.078125 0)"/>
     <use xlink:href="#DejaVuSans-13" transform="translate(291.703125 0)"/>
     <use xlink:href="#DejaVuSans-14" transform="translate(355.328125 0)"/>
     <use xlink:href="#DejaVuSans-3" transform="translate(418.953125 0)"/>
     <use xlink:href="#DejaVuSans-34" transform="translate(450.734375 0)"/>
     <use xlink:href="#DejaVuSans-30" transform="translate(529.453125 0)"/>
     <use xlink:href="#DejaVuSans-2f" transform="translate(615.734375 0)"/>
     <use xlink:href="#DejaVuSans-3" transform="translate(671.453125 0)"/>
     <use xlink:href="#DejaVuSans-2a" transform="translate(703.234375 0)"/>
     <use xlink:href="#DejaVuSans-44" transform="translate(780.71875 0)"/>
     <use xlink:href="#DejaVuSans-57" transform="translate(842 0)"/>
     <use xlink:href="#DejaVuSans-48" transform="translate(881.203125 0)"/>
     <use xlink:href="#DejaVuSans-10" transform="translate(942.734375 0)"/>
     <use xlink:href="#DejaVuSans-19" transform="translate(978.8125 0)"/>
     <use xlink:href="#DejaVuSans-3" transform="translate(1042.4375 0)"/>
     <use xlink:href="#DejaVuSans-46" transform="translate(1074.21875 0)"/>
     <use xlink:href="#DejaVuSans-4f" transform="translate(1129.203125 0)"/>
     <use xlink:href="#DejaVuSans-44" transform="translate(1156.984375 0)"/>
     <use xlink:href="#DejaVuSans-4c" transform="translate(1218.265625 0)"/>
     <use xlink:href="#DejaVuSans-50" transform="translate(1246.046875 0)"/>
     <use xlink:href="#DejaVuSans-11" transform="translate(1343.453125 0)"/>
    </g>
   </g>
   <g id="text_5">
    <!-- Required labels -->
    <g style="fill: #172026" transform="translate(284.805 102.268406) scale(0.102 -0.102)">
     <defs>
      <path id="DejaVuSans-Bold-54" d="M 2181 2772
Q 1825 2772 1636 2509
Q 1447 2247 1447 1747
Q 1447 1247 1636 984
Q 1825 722 2181 722
Q 2541 722 2730 984
Q 2919 1247 2919 1747
Q 2919 2247 2730 2509
Q 2541 2772 2181 2772
z
M 2919 506
Q 2688 197 2409 53
Q 2131 -91 1766 -91
Q 1119 -91 703 423
Q 288 938 288 1747
Q 288 2556 703 3067
Q 1119 3578 1766 3578
Q 2131 3578 2409 3434
Q 2688 3291 2919 2981
L 2919 3500
L 4044 3500
L 4044 -1331
L 2919 -1331
L 2919 506
z
" transform="scale(0.015625)"/>
      <path id="DejaVuSans-Bold-58" d="M 500 1363
L 500 3500
L 1625 3500
L 1625 3150
Q 1625 2866 1622 2436
Q 1619 2006 1619 1863
Q 1619 1441 1641 1255
Q 1663 1069 1716 984
Q 1784 875 1895 815
Q 2006 756 2150 756
Q 2500 756 2700 1025
Q 2900 1294 2900 1772
L 2900 3500
L 4019 3500
L 4019 0
L 2900 0
L 2900 506
Q 2647 200 2364 54
Q 2081 -91 1741 -91
Q 1134 -91 817 281
Q 500 653 500 1363
z
" transform="scale(0.015625)"/>
      <path id="DejaVuSans-Bold-45" d="M 2400 722
Q 2759 722 2948 984
Q 3138 1247 3138 1747
Q 3138 2247 2948 2509
Q 2759 2772 2400 2772
Q 2041 2772 1848 2508
Q 1656 2244 1656 1747
Q 1656 1250 1848 986
Q 2041 722 2400 722
z
M 1656 2988
Q 1888 3294 2169 3439
Q 2450 3584 2816 3584
Q 3463 3584 3878 3070
Q 4294 2556 4294 1747
Q 4294 938 3878 423
Q 3463 -91 2816 -91
Q 2450 -91 2169 54
Q 1888 200 1656 506
L 1656 0
L 538 0
L 538 4863
L 1656 4863
L 1656 2988
z
" transform="scale(0.015625)"/>
     </defs>
     <use xlink:href="#DejaVuSans-Bold-35"/>
     <use xlink:href="#DejaVuSans-Bold-48" transform="translate(77 0)"/>
     <use xlink:href="#DejaVuSans-Bold-54" transform="translate(144.828125 0)"/>
     <use xlink:href="#DejaVuSans-Bold-58" transform="translate(216.40625 0)"/>
     <use xlink:href="#DejaVuSans-Bold-4c" transform="translate(287.59375 0)"/>
     <use xlink:href="#DejaVuSans-Bold-55" transform="translate(321.875 0)"/>
     <use xlink:href="#DejaVuSans-Bold-48" transform="translate(371.1875 0)"/>
     <use xlink:href="#DejaVuSans-Bold-47" transform="translate(439.015625 0)"/>
     <use xlink:href="#DejaVuSans-Bold-3" transform="translate(510.59375 0)"/>
     <use xlink:href="#DejaVuSans-Bold-4f" transform="translate(545.40625 0)"/>
     <use xlink:href="#DejaVuSans-Bold-44" transform="translate(579.6875 0)"/>
     <use xlink:href="#DejaVuSans-Bold-45" transform="translate(647.171875 0)"/>
     <use xlink:href="#DejaVuSans-Bold-48" transform="translate(718.75 0)"/>
     <use xlink:href="#DejaVuSans-Bold-4f" transform="translate(786.578125 0)"/>
     <use xlink:href="#DejaVuSans-Bold-56" transform="translate(820.859375 0)"/>
    </g>
   </g>
   <g id="text_6">
    <!-- Development-only result. -->
    <g style="fill: #172026" transform="translate(284.805 119.84526) scale(0.08 -0.08)">
     <defs>
      <path id="DejaVuSans-27" d="M 1259 4147
L 1259 519
L 2022 519
Q 2988 519 3436 956
Q 3884 1394 3884 2338
Q 3884 3275 3436 3711
Q 2988 4147 2022 4147
L 1259 4147
z
M 628 4666
L 1925 4666
Q 3281 4666 3915 4102
Q 4550 3538 4550 2338
Q 4550 1131 3912 565
Q 3275 0 1925 0
L 628 0
L 628 4666
z
" transform="scale(0.015625)"/>
      <path id="DejaVuSans-5c" d="M 2059 -325
Q 1816 -950 1584 -1140
Q 1353 -1331 966 -1331
L 506 -1331
L 506 -850
L 844 -850
Q 1081 -850 1212 -737
Q 1344 -625 1503 -206
L 1606 56
L 191 3500
L 800 3500
L 1894 763
L 2988 3500
L 3597 3500
L 2059 -325
z
" transform="scale(0.015625)"/>
     </defs>
     <use xlink:href="#DejaVuSans-27"/>
     <use xlink:href="#DejaVuSans-48" transform="translate(77 0)"/>
     <use xlink:href="#DejaVuSans-59" transform="translate(138.53125 0)"/>
     <use xlink:href="#DejaVuSans-48" transform="translate(197.71875 0)"/>
     <use xlink:href="#DejaVuSans-4f" transform="translate(259.25 0)"/>
     <use xlink:href="#DejaVuSans-52" transform="translate(287.03125 0)"/>
     <use xlink:href="#DejaVuSans-53" transform="translate(348.21875 0)"/>
     <use xlink:href="#DejaVuSans-50" transform="translate(411.703125 0)"/>
     <use xlink:href="#DejaVuSans-48" transform="translate(509.109375 0)"/>
     <use xlink:href="#DejaVuSans-51" transform="translate(570.640625 0)"/>
     <use xlink:href="#DejaVuSans-57" transform="translate(634.015625 0)"/>
     <use xlink:href="#DejaVuSans-10" transform="translate(673.21875 0)"/>
     <use xlink:href="#DejaVuSans-52" transform="translate(711.15625 0)"/>
     <use xlink:href="#DejaVuSans-51" transform="translate(772.34375 0)"/>
     <use xlink:href="#DejaVuSans-4f" transform="translate(835.71875 0)"/>
     <use xlink:href="#DejaVuSans-5c" transform="translate(863.5 0)"/>
     <use xlink:href="#DejaVuSans-3" transform="translate(922.6875 0)"/>
     <use xlink:href="#DejaVuSans-55" transform="translate(954.46875 0)"/>
     <use xlink:href="#DejaVuSans-48" transform="translate(993.375 0)"/>
     <use xlink:href="#DejaVuSans-56" transform="translate(1054.90625 0)"/>
     <use xlink:href="#DejaVuSans-58" transform="translate(1107 0)"/>
     <use xlink:href="#DejaVuSans-4f" transform="translate(1170.375 0)"/>
     <use xlink:href="#DejaVuSans-57" transform="translate(1198.15625 0)"/>
     <use xlink:href="#DejaVuSans-11" transform="translate(1237.359375 0)"/>
    </g>
    <!-- Calibration/final-test locked. -->
    <g style="fill: #172026" transform="translate(284.805 130.065885) scale(0.08 -0.08)">
     <defs>
      <path id="DejaVuSans-26" d="M 4122 4306
L 4122 3641
Q 3803 3938 3442 4084
Q 3081 4231 2675 4231
Q 1875 4231 1450 3742
Q 1025 3253 1025 2328
Q 1025 1406 1450 917
Q 1875 428 2675 428
Q 3081 428 3442 575
Q 3803 722 4122 1019
L 4122 359
Q 3791 134 3420 21
Q 3050 -91 2638 -91
Q 1578 -91 968 557
Q 359 1206 359 2328
Q 359 3453 968 4101
Q 1578 4750 2638 4750
Q 3056 4750 3426 4639
Q 3797 4528 4122 4306
z
" transform="scale(0.015625)"/>
      <path id="DejaVuSans-12" d="M 1625 4666
L 2156 4666
L 531 -594
L 0 -594
L 1625 4666
z
" transform="scale(0.015625)"/>
      <path id="DejaVuSans-13af" d="M 3431 3500
L 3431 0
L 2853 0
L 2853 3053
L 1275 3053
L 1275 0
L 697 0
L 697 3053
L 147 3053
L 147 3500
L 697 3500
L 697 3744
Q 697 4316 967 4589
Q 1238 4863 1797 4863
L 2375 4863
L 2375 4384
L 1825 4384
Q 1516 4384 1395 4259
Q 1275 4134 1275 3809
L 1275 3500
L 3431 3500
z
M 2853 4856
L 3431 4856
L 3431 4128
L 2853 4128
L 2853 4856
z
" transform="scale(0.015625)"/>
     </defs>
     <use xlink:href="#DejaVuSans-26"/>
     <use xlink:href="#DejaVuSans-44" transform="translate(69.828125 0)"/>
     <use xlink:href="#DejaVuSans-4f" transform="translate(131.109375 0)"/>
     <use xlink:href="#DejaVuSans-4c" transform="translate(158.890625 0)"/>
     <use xlink:href="#DejaVuSans-45" transform="translate(186.671875 0)"/>
     <use xlink:href="#DejaVuSans-55" transform="translate(250.15625 0)"/>
     <use xlink:href="#DejaVuSans-44" transform="translate(291.265625 0)"/>
     <use xlink:href="#DejaVuSans-57" transform="translate(352.546875 0)"/>
     <use xlink:href="#DejaVuSans-4c" transform="translate(391.75 0)"/>
     <use xlink:href="#DejaVuSans-52" transform="translate(419.53125 0)"/>
     <use xlink:href="#DejaVuSans-51" transform="translate(480.71875 0)"/>
     <use xlink:href="#DejaVuSans-12" transform="translate(544.09375 0)"/>
     <use xlink:href="#DejaVuSans-13af" transform="translate(577.78125 0)"/>
     <use xlink:href="#DejaVuSans-51" transform="translate(640.765625 0)"/>
     <use xlink:href="#DejaVuSans-44" transform="translate(704.140625 0)"/>
     <use xlink:href="#DejaVuSans-4f" transform="translate(765.421875 0)"/>
     <use xlink:href="#DejaVuSans-10" transform="translate(793.203125 0)"/>
     <use xlink:href="#DejaVuSans-57" transform="translate(829.28125 0)"/>
     <use xlink:href="#DejaVuSans-48" transform="translate(868.484375 0)"/>
     <use xlink:href="#DejaVuSans-56" transform="translate(930.015625 0)"/>
     <use xlink:href="#DejaVuSans-57" transform="translate(982.109375 0)"/>
     <use xlink:href="#DejaVuSans-3" transform="translate(1021.3125 0)"/>
     <use xlink:href="#DejaVuSans-4f" transform="translate(1053.09375 0)"/>
     <use xlink:href="#DejaVuSans-52" transform="translate(1080.875 0)"/>
     <use xlink:href="#DejaVuSans-46" transform="translate(1142.0625 0)"/>
     <use xlink:href="#DejaVuSans-4e" transform="translate(1197.046875 0)"/>
     <use xlink:href="#DejaVuSans-48" transform="translate(1251.390625 0)"/>
     <use xlink:href="#DejaVuSans-47" transform="translate(1312.921875 0)"/>
     <use xlink:href="#DejaVuSans-11" transform="translate(1376.40625 0)"/>
    </g>
    <!-- No mission-loop validation. -->
    <g style="fill: #172026" transform="translate(284.805 139.36526) scale(0.08 -0.08)">
     <use xlink:href="#DejaVuSans-31"/>
     <use xlink:href="#DejaVuSans-52" transform="translate(74.8125 0)"/>
     <use xlink:href="#DejaVuSans-3" transform="translate(136 0)"/>
     <use xlink:href="#DejaVuSans-50" transform="translate(167.78125 0)"/>
     <use xlink:href="#DejaVuSans-4c" transform="translate(265.1875 0)"/>
     <use xlink:href="#DejaVuSans-56" transform="translate(292.96875 0)"/>
     <use xlink:href="#DejaVuSans-56" transform="translate(345.0625 0)"/>
     <use xlink:href="#DejaVuSans-4c" transform="translate(397.15625 0)"/>
     <use xlink:href="#DejaVuSans-52" transform="translate(424.9375 0)"/>
     <use xlink:href="#DejaVuSans-51" transform="translate(486.125 0)"/>
     <use xlink:href="#DejaVuSans-10" transform="translate(549.5 0)"/>
     <use xlink:href="#DejaVuSans-4f" transform="translate(585.578125 0)"/>
     <use xlink:href="#DejaVuSans-52" transform="translate(613.359375 0)"/>
     <use xlink:href="#DejaVuSans-52" transform="translate(674.546875 0)"/>
     <use xlink:href="#DejaVuSans-53" transform="translate(735.734375 0)"/>
     <use xlink:href="#DejaVuSans-3" transform="translate(799.21875 0)"/>
     <use xlink:href="#DejaVuSans-59" transform="translate(831 0)"/>
     <use xlink:href="#DejaVuSans-44" transform="translate(890.1875 0)"/>
     <use xlink:href="#DejaVuSans-4f" transform="translate(951.46875 0)"/>
     <use xlink:href="#DejaVuSans-4c" transform="translate(979.25 0)"/>
     <use xlink:href="#DejaVuSans-47" transform="translate(1007.03125 0)"/>
     <use xlink:href="#DejaVuSans-44" transform="translate(1070.515625 0)"/>
     <use xlink:href="#DejaVuSans-57" transform="translate(1131.796875 0)"/>
     <use xlink:href="#DejaVuSans-4c" transform="translate(1171 0)"/>
     <use xlink:href="#DejaVuSans-52" transform="translate(1198.78125 0)"/>
     <use xlink:href="#DejaVuSans-51" transform="translate(1259.96875 0)"/>
     <use xlink:href="#DejaVuSans-11" transform="translate(1323.34375 0)"/>
    </g>
    <!-- Release needs acceptance. -->
    <g style="fill: #172026" transform="translate(284.805 149.12526) scale(0.08 -0.08)">
     <defs>
      <path id="DejaVuSans-35" d="M 2841 2188
Q 3044 2119 3236 1894
Q 3428 1669 3622 1275
L 4263 0
L 3584 0
L 2988 1197
Q 2756 1666 2539 1819
Q 2322 1972 1947 1972
L 1259 1972
L 1259 0
L 628 0
L 628 4666
L 2053 4666
Q 2853 4666 3247 4331
Q 3641 3997 3641 3322
Q 3641 2881 3436 2590
Q 3231 2300 2841 2188
z
M 1259 4147
L 1259 2491
L 2053 2491
Q 2509 2491 2742 2702
Q 2975 2913 2975 3322
Q 2975 3731 2742 3939
Q 2509 4147 2053 4147
L 1259 4147
z
" transform="scale(0.015625)"/>
     </defs>
     <use xlink:href="#DejaVuSans-35"/>
     <use xlink:href="#DejaVuSans-48" transform="translate(65 0)"/>
     <use xlink:href="#DejaVuSans-4f" transform="translate(126.53125 0)"/>
     <use xlink:href="#DejaVuSans-48" transform="translate(154.3125 0)"/>
     <use xlink:href="#DejaVuSans-44" transform="translate(215.84375 0)"/>
     <use xlink:href="#DejaVuSans-56" transform="translate(277.125 0)"/>
     <use xlink:href="#DejaVuSans-48" transform="translate(329.21875 0)"/>
     <use xlink:href="#DejaVuSans-3" transform="translate(390.75 0)"/>
     <use xlink:href="#DejaVuSans-51" transform="translate(422.53125 0)"/>
     <use xlink:href="#DejaVuSans-48" transform="translate(485.90625 0)"/>
     <use xlink:href="#DejaVuSans-48" transform="translate(547.4375 0)"/>
     <use xlink:href="#DejaVuSans-47" transform="translate(608.96875 0)"/>
     <use xlink:href="#DejaVuSans-56" transform="translate(672.453125 0)"/>
     <use xlink:href="#DejaVuSans-3" transform="translate(724.546875 0)"/>
     <use xlink:href="#DejaVuSans-44" transform="translate(756.328125 0)"/>
     <use xlink:href="#DejaVuSans-46" transform="translate(817.609375 0)"/>
     <use xlink:href="#DejaVuSans-46" transform="translate(872.59375 0)"/>
     <use xlink:href="#DejaVuSans-48" transform="translate(927.578125 0)"/>
     <use xlink:href="#DejaVuSans-53" transform="translate(989.109375 0)"/>
     <use xlink:href="#DejaVuSans-57" transform="translate(1052.59375 0)"/>
     <use xlink:href="#DejaVuSans-44" transform="translate(1091.796875 0)"/>
     <use xlink:href="#DejaVuSans-51" transform="translate(1153.078125 0)"/>
     <use xlink:href="#DejaVuSans-46" transform="translate(1216.453125 0)"/>
     <use xlink:href="#DejaVuSans-48" transform="translate(1271.4375 0)"/>
     <use xlink:href="#DejaVuSans-11" transform="translate(1332.96875 0)"/>
    </g>
   </g>
   <g id="text_7">
    <!-- Prohibited -->
    <g style="fill: #172026" transform="translate(508.005 102.268406) scale(0.102 -0.102)">
     <defs>
      <path id="DejaVuSans-Bold-33" d="M 588 4666
L 2584 4666
Q 3475 4666 3951 4270
Q 4428 3875 4428 3144
Q 4428 2409 3951 2014
Q 3475 1619 2584 1619
L 1791 1619
L 1791 0
L 588 0
L 588 4666
z
M 1791 3794
L 1791 2491
L 2456 2491
Q 2806 2491 2997 2661
Q 3188 2831 3188 3144
Q 3188 3456 2997 3625
Q 2806 3794 2456 3794
L 1791 3794
z
" transform="scale(0.015625)"/>
      <path id="DejaVuSans-Bold-4b" d="M 4056 2131
L 4056 0
L 2931 0
L 2931 347
L 2931 1625
Q 2931 2084 2911 2256
Q 2891 2428 2841 2509
Q 2775 2619 2662 2680
Q 2550 2741 2406 2741
Q 2056 2741 1856 2470
Q 1656 2200 1656 1722
L 1656 0
L 538 0
L 538 4863
L 1656 4863
L 1656 2988
Q 1909 3294 2193 3439
Q 2478 3584 2822 3584
Q 3428 3584 3742 3212
Q 4056 2841 4056 2131
z
" transform="scale(0.015625)"/>
      <path id="DejaVuSans-Bold-57" d="M 1759 4494
L 1759 3500
L 2913 3500
L 2913 2700
L 1759 2700
L 1759 1216
Q 1759 972 1856 886
Q 1953 800 2241 800
L 2816 800
L 2816 0
L 1856 0
Q 1194 0 917 276
Q 641 553 641 1216
L 641 2700
L 84 2700
L 84 3500
L 641 3500
L 641 4494
L 1759 4494
z
" transform="scale(0.015625)"/>
     </defs>
     <use xlink:href="#DejaVuSans-Bold-33"/>
     <use xlink:href="#DejaVuSans-Bold-55" transform="translate(73.296875 0)"/>
     <use xlink:href="#DejaVuSans-Bold-52" transform="translate(122.609375 0)"/>
     <use xlink:href="#DejaVuSans-Bold-4b" transform="translate(191.3125 0)"/>
     <use xlink:href="#DejaVuSans-Bold-4c" transform="translate(262.5 0)"/>
     <use xlink:href="#DejaVuSans-Bold-45" transform="translate(296.78125 0)"/>
     <use xlink:href="#DejaVuSans-Bold-4c" transform="translate(368.359375 0)"/>
     <use xlink:href="#DejaVuSans-Bold-57" transform="translate(402.640625 0)"/>
     <use xlink:href="#DejaVuSans-Bold-48" transform="translate(450.4375 0)"/>
     <use xlink:href="#DejaVuSans-Bold-47" transform="translate(518.265625 0)"/>
    </g>
   </g>
   <g id="text_8">
    <!-- No quantum advantage. -->
    <g style="fill: #172026" transform="translate(508.005 119.84526) scale(0.08 -0.08)">
     <use xlink:href="#DejaVuSans-31"/>
     <use xlink:href="#DejaVuSans-52" transform="translate(74.8125 0)"/>
     <use xlink:href="#DejaVuSans-3" transform="translate(136 0)"/>
     <use xlink:href="#DejaVuSans-54" transform="translate(167.78125 0)"/>
     <use xlink:href="#DejaVuSans-58" transform="translate(231.265625 0)"/>
     <use xlink:href="#DejaVuSans-44" transform="translate(294.640625 0)"/>
     <use xlink:href="#DejaVuSans-51" transform="translate(355.921875 0)"/>
     <use xlink:href="#DejaVuSans-57" transform="translate(419.296875 0)"/>
     <use xlink:href="#DejaVuSans-58" transform="translate(458.5 0)"/>
     <use xlink:href="#DejaVuSans-50" transform="translate(521.875 0)"/>
     <use xlink:href="#DejaVuSans-3" transform="translate(619.28125 0)"/>
     <use xlink:href="#DejaVuSans-44" transform="translate(651.0625 0)"/>
     <use xlink:href="#DejaVuSans-47" transform="translate(712.34375 0)"/>
     <use xlink:href="#DejaVuSans-59" transform="translate(775.828125 0)"/>
     <use xlink:href="#DejaVuSans-44" transform="translate(835.015625 0)"/>
     <use xlink:href="#DejaVuSans-51" transform="translate(896.296875 0)"/>
     <use xlink:href="#DejaVuSans-57" transform="translate(959.671875 0)"/>
     <use xlink:href="#DejaVuSans-44" transform="translate(998.875 0)"/>
     <use xlink:href="#DejaVuSans-4a" transform="translate(1060.15625 0)"/>
     <use xlink:href="#DejaVuSans-48" transform="translate(1123.640625 0)"/>
     <use xlink:href="#DejaVuSans-11" transform="translate(1185.171875 0)"/>
    </g>
    <!-- No fuel-savings claim. -->
    <g style="fill: #172026" transform="translate(508.005 129.60526) scale(0.08 -0.08)">
     <use xlink:href="#DejaVuSans-31"/>
     <use xlink:href="#DejaVuSans-52" transform="translate(74.8125 0)"/>
     <use xlink:href="#DejaVuSans-3" transform="translate(136 0)"/>
     <use xlink:href="#DejaVuSans-49" transform="translate(167.78125 0)"/>
     <use xlink:href="#DejaVuSans-58" transform="translate(202.984375 0)"/>
     <use xlink:href="#DejaVuSans-48" transform="translate(266.359375 0)"/>
     <use xlink:href="#DejaVuSans-4f" transform="translate(327.890625 0)"/>
     <use xlink:href="#DejaVuSans-10" transform="translate(355.671875 0)"/>
     <use xlink:href="#DejaVuSans-56" transform="translate(391.75 0)"/>
     <use xlink:href="#DejaVuSans-44" transform="translate(443.84375 0)"/>
     <use xlink:href="#DejaVuSans-59" transform="translate(505.125 0)"/>
     <use xlink:href="#DejaVuSans-4c" transform="translate(564.3125 0)"/>
     <use xlink:href="#DejaVuSans-51" transform="translate(592.09375 0)"/>
     <use xlink:href="#DejaVuSans-4a" transform="translate(655.46875 0)"/>
     <use xlink:href="#DejaVuSans-56" transform="translate(718.953125 0)"/>
     <use xlink:href="#DejaVuSans-3" transform="translate(771.046875 0)"/>
     <use xlink:href="#DejaVuSans-46" transform="translate(802.828125 0)"/>
     <use xlink:href="#DejaVuSans-4f" transform="translate(857.8125 0)"/>
     <use xlink:href="#DejaVuSans-44" transform="translate(885.59375 0)"/>
     <use xlink:href="#DejaVuSans-4c" transform="translate(946.875 0)"/>
     <use xlink:href="#DejaVuSans-50" transform="translate(974.65625 0)"/>
     <use xlink:href="#DejaVuSans-11" transform="translate(1072.0625 0)"/>
    </g>
    <!-- No flight readiness. -->
    <g style="fill: #172026" transform="translate(508.005 139.36526) scale(0.08 -0.08)">
     <defs>
      <path id="DejaVuSans-13b0" d="M 1831 4863
L 3431 4863
L 3431 0
L 2853 0
L 2853 4384
L 1825 4384
Q 1516 4384 1395 4259
Q 1275 4134 1275 3809
L 1275 3500
L 2222 3500
L 2222 3053
L 1275 3053
L 1275 0
L 697 0
L 697 3053
L 147 3053
L 147 3500
L 697 3500
L 697 3744
Q 697 4328 969 4595
Q 1241 4863 1831 4863
z
" transform="scale(0.015625)"/>
     </defs>
     <use xlink:href="#DejaVuSans-31"/>
     <use xlink:href="#DejaVuSans-52" transform="translate(74.8125 0)"/>
     <use xlink:href="#DejaVuSans-3" transform="translate(136 0)"/>
     <use xlink:href="#DejaVuSans-13b0" transform="translate(167.78125 0)"/>
     <use xlink:href="#DejaVuSans-4c" transform="translate(230.765625 0)"/>
     <use xlink:href="#DejaVuSans-4a" transform="translate(258.546875 0)"/>
     <use xlink:href="#DejaVuSans-4b" transform="translate(322.03125 0)"/>
     <use xlink:href="#DejaVuSans-57" transform="translate(385.40625 0)"/>
     <use xlink:href="#DejaVuSans-3" transform="translate(424.609375 0)"/>
     <use xlink:href="#DejaVuSans-55" transform="translate(456.390625 0)"/>
     <use xlink:href="#DejaVuSans-48" transform="translate(495.296875 0)"/>
     <use xlink:href="#DejaVuSans-44" transform="translate(556.828125 0)"/>
     <use xlink:href="#DejaVuSans-47" transform="translate(618.109375 0)"/>
     <use xlink:href="#DejaVuSans-4c" transform="translate(681.59375 0)"/>
     <use xlink:href="#DejaVuSans-51" transform="translate(709.375 0)"/>
     <use xlink:href="#DejaVuSans-48" transform="translate(772.75 0)"/>
     <use xlink:href="#DejaVuSans-56" transform="translate(834.28125 0)"/>
     <use xlink:href="#DejaVuSans-56" transform="translate(886.375 0)"/>
     <use xlink:href="#DejaVuSans-11" transform="translate(938.46875 0)"/>
    </g>
    <!-- No NASA approval. -->
    <g style="fill: #172026" transform="translate(508.005 149.12526) scale(0.08 -0.08)">
     <defs>
      <path id="DejaVuSans-24" d="M 2188 4044
L 1331 1722
L 3047 1722
L 2188 4044
z
M 1831 4666
L 2547 4666
L 4325 0
L 3669 0
L 3244 1197
L 1141 1197
L 716 0
L 50 0
L 1831 4666
z
" transform="scale(0.015625)"/>
      <path id="DejaVuSans-36" d="M 3425 4513
L 3425 3897
Q 3066 4069 2747 4153
Q 2428 4238 2131 4238
Q 1616 4238 1336 4038
Q 1056 3838 1056 3469
Q 1056 3159 1242 3001
Q 1428 2844 1947 2747
L 2328 2669
Q 3034 2534 3370 2195
Q 3706 1856 3706 1288
Q 3706 609 3251 259
Q 2797 -91 1919 -91
Q 1588 -91 1214 -16
Q 841 59 441 206
L 441 856
Q 825 641 1194 531
Q 1563 422 1919 422
Q 2459 422 2753 634
Q 3047 847 3047 1241
Q 3047 1584 2836 1778
Q 2625 1972 2144 2069
L 1759 2144
Q 1053 2284 737 2584
Q 422 2884 422 3419
Q 422 4038 858 4394
Q 1294 4750 2059 4750
Q 2388 4750 2728 4690
Q 3069 4631 3425 4513
z
" transform="scale(0.015625)"/>
     </defs>
     <use xlink:href="#DejaVuSans-31"/>
     <use xlink:href="#DejaVuSans-52" transform="translate(74.8125 0)"/>
     <use xlink:href="#DejaVuSans-3" transform="translate(136 0)"/>
     <use xlink:href="#DejaVuSans-31" transform="translate(167.78125 0)"/>
     <use xlink:href="#DejaVuSans-24" transform="translate(242.59375 0)"/>
     <use xlink:href="#DejaVuSans-36" transform="translate(311 0)"/>
     <use xlink:href="#DejaVuSans-24" transform="translate(376.34375 0)"/>
     <use xlink:href="#DejaVuSans-3" transform="translate(444.75 0)"/>
     <use xlink:href="#DejaVuSans-44" transform="translate(476.53125 0)"/>
     <use xlink:href="#DejaVuSans-53" transform="translate(537.8125 0)"/>
     <use xlink:href="#DejaVuSans-53" transform="translate(601.296875 0)"/>
     <use xlink:href="#DejaVuSans-55" transform="translate(664.78125 0)"/>
     <use xlink:href="#DejaVuSans-52" transform="translate(703.6875 0)"/>
     <use xlink:href="#DejaVuSans-59" transform="translate(764.875 0)"/>
     <use xlink:href="#DejaVuSans-44" transform="translate(824.0625 0)"/>
     <use xlink:href="#DejaVuSans-4f" transform="translate(885.34375 0)"/>
     <use xlink:href="#DejaVuSans-11" transform="translate(913.125 0)"/>
    </g>
   </g>
   <g id="text_9">
    <!-- Evidence basis -->
    <g style="fill: #172026" transform="translate(110.43 222.573206) scale(0.102 -0.102)">
     <use xlink:href="#DejaVuSans-Bold-28"/>
     <use xlink:href="#DejaVuSans-Bold-59" transform="translate(68.3125 0)"/>
     <use xlink:href="#DejaVuSans-Bold-4c" transform="translate(133.5 0)"/>
     <use xlink:href="#DejaVuSans-Bold-47" transform="translate(167.78125 0)"/>
     <use xlink:href="#DejaVuSans-Bold-48" transform="translate(239.359375 0)"/>
     <use xlink:href="#DejaVuSans-Bold-51" transform="translate(307.1875 0)"/>
     <use xlink:href="#DejaVuSans-Bold-46" transform="translate(378.375 0)"/>
     <use xlink:href="#DejaVuSans-Bold-48" transform="translate(437.65625 0)"/>
     <use xlink:href="#DejaVuSans-Bold-3" transform="translate(505.484375 0)"/>
     <use xlink:href="#DejaVuSans-Bold-45" transform="translate(540.296875 0)"/>
     <use xlink:href="#DejaVuSans-Bold-44" transform="translate(611.875 0)"/>
     <use xlink:href="#DejaVuSans-Bold-56" transform="translate(679.359375 0)"/>
     <use xlink:href="#DejaVuSans-Bold-4c" transform="translate(738.875 0)"/>
     <use xlink:href="#DejaVuSans-Bold-56" transform="translate(773.15625 0)"/>
    </g>
   </g>
   <g id="text_10">
    <!-- D026-C claim matrix, -->
    <g style="fill: #172026" transform="translate(110.43 240.516935) scale(0.08 -0.08)">
     <defs>
      <path id="DejaVuSans-15" d="M 1228 531
L 3431 531
L 3431 0
L 469 0
L 469 531
Q 828 903 1448 1529
Q 2069 2156 2228 2338
Q 2531 2678 2651 2914
Q 2772 3150 2772 3378
Q 2772 3750 2511 3984
Q 2250 4219 1831 4219
Q 1534 4219 1204 4116
Q 875 4013 500 3803
L 500 4441
Q 881 4594 1212 4672
Q 1544 4750 1819 4750
Q 2544 4750 2975 4387
Q 3406 4025 3406 3419
Q 3406 3131 3298 2873
Q 3191 2616 2906 2266
Q 2828 2175 2409 1742
Q 1991 1309 1228 531
z
" transform="scale(0.015625)"/>
      <path id="DejaVuSans-5b" d="M 3513 3500
L 2247 1797
L 3578 0
L 2900 0
L 1881 1375
L 863 0
L 184 0
L 1544 1831
L 300 3500
L 978 3500
L 1906 2253
L 2834 3500
L 3513 3500
z
" transform="scale(0.015625)"/>
      <path id="DejaVuSans-f" d="M 750 794
L 1409 794
L 1409 256
L 897 -744
L 494 -744
L 750 256
L 750 794
z
" transform="scale(0.015625)"/>
     </defs>
     <use xlink:href="#DejaVuSans-27"/>
     <use xlink:href="#DejaVuSans-13" transform="translate(77 0)"/>
     <use xlink:href="#DejaVuSans-15" transform="translate(140.625 0)"/>
     <use xlink:href="#DejaVuSans-19" transform="translate(204.25 0)"/>
     <use xlink:href="#DejaVuSans-10" transform="translate(267.875 0)"/>
     <use xlink:href="#DejaVuSans-26" transform="translate(303.953125 0)"/>
     <use xlink:href="#DejaVuSans-3" transform="translate(373.78125 0)"/>
     <use xlink:href="#DejaVuSans-46" transform="translate(405.5625 0)"/>
     <use xlink:href="#DejaVuSans-4f" transform="translate(460.546875 0)"/>
     <use xlink:href="#DejaVuSans-44" transform="translate(488.328125 0)"/>
     <use xlink:href="#DejaVuSans-4c" transform="translate(549.609375 0)"/>
     <use xlink:href="#DejaVuSans-50" transform="translate(577.390625 0)"/>
     <use xlink:href="#DejaVuSans-3" transform="translate(674.796875 0)"/>
     <use xlink:href="#DejaVuSans-50" transform="translate(706.578125 0)"/>
     <use xlink:href="#DejaVuSans-44" transform="translate(803.984375 0)"/>
     <use xlink:href="#DejaVuSans-57" transform="translate(865.265625 0)"/>
     <use xlink:href="#DejaVuSans-55" transform="translate(904.46875 0)"/>
     <use xlink:href="#DejaVuSans-4c" transform="translate(945.578125 0)"/>
     <use xlink:href="#DejaVuSans-5b" transform="translate(973.359375 0)"/>
     <use xlink:href="#DejaVuSans-f" transform="translate(1032.546875 0)"/>
    </g>
    <!-- D027-C manuscript draft, -->
    <g style="fill: #172026" transform="translate(110.43 249.91006) scale(0.08 -0.08)">
     <defs>
      <path id="DejaVuSans-1a" d="M 525 4666
L 3525 4666
L 3525 4397
L 1831 0
L 1172 0
L 2766 4134
L 525 4134
L 525 4666
z
" transform="scale(0.015625)"/>
     </defs>
     <use xlink:href="#DejaVuSans-27"/>
     <use xlink:href="#DejaVuSans-13" transform="translate(77 0)"/>
     <use xlink:href="#DejaVuSans-15" transform="translate(140.625 0)"/>
     <use xlink:href="#DejaVuSans-1a" transform="translate(204.25 0)"/>
     <use xlink:href="#DejaVuSans-10" transform="translate(267.875 0)"/>
     <use xlink:href="#DejaVuSans-26" transform="translate(303.953125 0)"/>
     <use xlink:href="#DejaVuSans-3" transform="translate(373.78125 0)"/>
     <use xlink:href="#DejaVuSans-50" transform="translate(405.5625 0)"/>
     <use xlink:href="#DejaVuSans-44" transform="translate(502.96875 0)"/>
     <use xlink:href="#DejaVuSans-51" transform="translate(564.25 0)"/>
     <use xlink:href="#DejaVuSans-58" transform="translate(627.625 0)"/>
     <use xlink:href="#DejaVuSans-56" transform="translate(691 0)"/>
     <use xlink:href="#DejaVuSans-46" transform="translate(743.09375 0)"/>
     <use xlink:href="#DejaVuSans-55" transform="translate(798.078125 0)"/>
     <use xlink:href="#DejaVuSans-4c" transform="translate(839.1875 0)"/>
     <use xlink:href="#DejaVuSans-53" transform="translate(866.96875 0)"/>
     <use xlink:href="#DejaVuSans-57" transform="translate(930.453125 0)"/>
     <use xlink:href="#DejaVuSans-3" transform="translate(969.65625 0)"/>
     <use xlink:href="#DejaVuSans-47" transform="translate(1001.4375 0)"/>
     <use xlink:href="#DejaVuSans-55" transform="translate(1064.921875 0)"/>
     <use xlink:href="#DejaVuSans-44" transform="translate(1106.03125 0)"/>
     <use xlink:href="#DejaVuSans-49" transform="translate(1167.3125 0)"/>
     <use xlink:href="#DejaVuSans-57" transform="translate(1200.765625 0)"/>
     <use xlink:href="#DejaVuSans-f" transform="translate(1239.96875 0)"/>
    </g>
    <!-- D028-C release cards, -->
    <g style="fill: #172026" transform="translate(110.43 260.036935) scale(0.08 -0.08)">
     <defs>
      <path id="DejaVuSans-1b" d="M 2034 2216
Q 1584 2216 1326 1975
Q 1069 1734 1069 1313
Q 1069 891 1326 650
Q 1584 409 2034 409
Q 2484 409 2743 651
Q 3003 894 3003 1313
Q 3003 1734 2745 1975
Q 2488 2216 2034 2216
z
M 1403 2484
Q 997 2584 770 2862
Q 544 3141 544 3541
Q 544 4100 942 4425
Q 1341 4750 2034 4750
Q 2731 4750 3128 4425
Q 3525 4100 3525 3541
Q 3525 3141 3298 2862
Q 3072 2584 2669 2484
Q 3125 2378 3379 2068
Q 3634 1759 3634 1313
Q 3634 634 3220 271
Q 2806 -91 2034 -91
Q 1263 -91 848 271
Q 434 634 434 1313
Q 434 1759 690 2068
Q 947 2378 1403 2484
z
M 1172 3481
Q 1172 3119 1398 2916
Q 1625 2713 2034 2713
Q 2441 2713 2670 2916
Q 2900 3119 2900 3481
Q 2900 3844 2670 4047
Q 2441 4250 2034 4250
Q 1625 4250 1398 4047
Q 1172 3844 1172 3481
z
" transform="scale(0.015625)"/>
     </defs>
     <use xlink:href="#DejaVuSans-27"/>
     <use xlink:href="#DejaVuSans-13" transform="translate(77 0)"/>
     <use xlink:href="#DejaVuSans-15" transform="translate(140.625 0)"/>
     <use xlink:href="#DejaVuSans-1b" transform="translate(204.25 0)"/>
     <use xlink:href="#DejaVuSans-10" transform="translate(267.875 0)"/>
     <use xlink:href="#DejaVuSans-26" transform="translate(303.953125 0)"/>
     <use xlink:href="#DejaVuSans-3" transform="translate(373.78125 0)"/>
     <use xlink:href="#DejaVuSans-55" transform="translate(405.5625 0)"/>
     <use xlink:href="#DejaVuSans-48" transform="translate(444.46875 0)"/>
     <use xlink:href="#DejaVuSans-4f" transform="translate(506 0)"/>
     <use xlink:href="#DejaVuSans-48" transform="translate(533.78125 0)"/>
     <use xlink:href="#DejaVuSans-44" transform="translate(595.3125 0)"/>
     <use xlink:href="#DejaVuSans-56" transform="translate(656.59375 0)"/>
     <use xlink:href="#DejaVuSans-48" transform="translate(708.6875 0)"/>
     <use xlink:href="#DejaVuSans-3" transform="translate(770.21875 0)"/>
     <use xlink:href="#DejaVuSans-46" transform="translate(802 0)"/>
     <use xlink:href="#DejaVuSans-44" transform="translate(856.984375 0)"/>
     <use xlink:href="#DejaVuSans-55" transform="translate(918.265625 0)"/>
     <use xlink:href="#DejaVuSans-47" transform="translate(957.625 0)"/>
     <use xlink:href="#DejaVuSans-56" transform="translate(1021.109375 0)"/>
     <use xlink:href="#DejaVuSans-f" transform="translate(1073.203125 0)"/>
    </g>
    <!-- and D030-C clean audit PASS. -->
    <g style="fill: #172026" transform="translate(110.43 270.20506) scale(0.08 -0.08)">
     <defs>
      <path id="DejaVuSans-16" d="M 2597 2516
Q 3050 2419 3304 2112
Q 3559 1806 3559 1356
Q 3559 666 3084 287
Q 2609 -91 1734 -91
Q 1441 -91 1130 -33
Q 819 25 488 141
L 488 750
Q 750 597 1062 519
Q 1375 441 1716 441
Q 2309 441 2620 675
Q 2931 909 2931 1356
Q 2931 1769 2642 2001
Q 2353 2234 1838 2234
L 1294 2234
L 1294 2753
L 1863 2753
Q 2328 2753 2575 2939
Q 2822 3125 2822 3475
Q 2822 3834 2567 4026
Q 2313 4219 1838 4219
Q 1578 4219 1281 4162
Q 984 4106 628 3988
L 628 4550
Q 988 4650 1302 4700
Q 1616 4750 1894 4750
Q 2613 4750 3031 4423
Q 3450 4097 3450 3541
Q 3450 3153 3228 2886
Q 3006 2619 2597 2516
z
" transform="scale(0.015625)"/>
     </defs>
     <use xlink:href="#DejaVuSans-44"/>
     <use xlink:href="#DejaVuSans-51" transform="translate(61.28125 0)"/>
     <use xlink:href="#DejaVuSans-47" transform="translate(124.65625 0)"/>
     <use xlink:href="#DejaVuSans-3" transform="translate(188.140625 0)"/>
     <use xlink:href="#DejaVuSans-27" transform="translate(219.921875 0)"/>
     <use xlink:href="#DejaVuSans-13" transform="translate(296.921875 0)"/>
     <use xlink:href="#DejaVuSans-16" transform="translate(360.546875 0)"/>
     <use xlink:href="#DejaVuSans-13" transform="translate(424.171875 0)"/>
     <use xlink:href="#DejaVuSans-10" transform="translate(487.796875 0)"/>
     <use xlink:href="#DejaVuSans-26" transform="translate(523.875 0)"/>
     <use xlink:href="#DejaVuSans-3" transform="translate(593.703125 0)"/>
     <use xlink:href="#DejaVuSans-46" transform="translate(625.484375 0)"/>
     <use xlink:href="#DejaVuSans-4f" transform="translate(680.46875 0)"/>
     <use xlink:href="#DejaVuSans-48" transform="translate(708.25 0)"/>
     <use xlink:href="#DejaVuSans-44" transform="translate(769.78125 0)"/>
     <use xlink:href="#DejaVuSans-51" transform="translate(831.0625 0)"/>
     <use xlink:href="#DejaVuSans-3" transform="translate(894.4375 0)"/>
     <use xlink:href="#DejaVuSans-44" transform="translate(926.21875 0)"/>
     <use xlink:href="#DejaVuSans-58" transform="translate(987.5 0)"/>
     <use xlink:href="#DejaVuSans-47" transform="translate(1050.875 0)"/>
     <use xlink:href="#DejaVuSans-4c" transform="translate(1114.359375 0)"/>
     <use xlink:href="#DejaVuSans-57" transform="translate(1142.140625 0)"/>
     <use xlink:href="#DejaVuSans-3" transform="translate(1181.34375 0)"/>
     <use xlink:href="#DejaVuSans-33" transform="translate(1213.125 0)"/>
     <use xlink:href="#DejaVuSans-24" transform="translate(1267.03125 0)"/>
     <use xlink:href="#DejaVuSans-36" transform="translate(1335.4375 0)"/>
     <use xlink:href="#DejaVuSans-36" transform="translate(1398.921875 0)"/>
     <use xlink:href="#DejaVuSans-11" transform="translate(1462.40625 0)"/>
    </g>
   </g>
   <g id="text_11">
    <!-- Next human decision -->
    <g style="fill: #172026" transform="translate(410.355 222.573206) scale(0.102 -0.102)">
     <defs>
      <path id="DejaVuSans-Bold-31" d="M 588 4666
L 1931 4666
L 3628 1466
L 3628 4666
L 4769 4666
L 4769 0
L 3425 0
L 1728 3200
L 1728 0
L 588 0
L 588 4666
z
" transform="scale(0.015625)"/>
      <path id="DejaVuSans-Bold-5b" d="M 1422 1791
L 159 3500
L 1344 3500
L 2059 2463
L 2784 3500
L 3969 3500
L 2706 1797
L 4031 0
L 2847 0
L 2059 1106
L 1281 0
L 97 0
L 1422 1791
z
" transform="scale(0.015625)"/>
     </defs>
     <use xlink:href="#DejaVuSans-Bold-31"/>
     <use xlink:href="#DejaVuSans-Bold-48" transform="translate(83.6875 0)"/>
     <use xlink:href="#DejaVuSans-Bold-5b" transform="translate(151.515625 0)"/>
     <use xlink:href="#DejaVuSans-Bold-57" transform="translate(216.015625 0)"/>
     <use xlink:href="#DejaVuSans-Bold-3" transform="translate(263.8125 0)"/>
     <use xlink:href="#DejaVuSans-Bold-4b" transform="translate(298.625 0)"/>
     <use xlink:href="#DejaVuSans-Bold-58" transform="translate(369.8125 0)"/>
     <use xlink:href="#DejaVuSans-Bold-50" transform="translate(441 0)"/>
     <use xlink:href="#DejaVuSans-Bold-44" transform="translate(545.203125 0)"/>
     <use xlink:href="#DejaVuSans-Bold-51" transform="translate(612.6875 0)"/>
     <use xlink:href="#DejaVuSans-Bold-3" transform="translate(683.875 0)"/>
     <use xlink:href="#DejaVuSans-Bold-47" transform="translate(718.6875 0)"/>
     <use xlink:href="#DejaVuSans-Bold-48" transform="translate(790.265625 0)"/>
     <use xlink:href="#DejaVuSans-Bold-46" transform="translate(858.09375 0)"/>
     <use xlink:href="#DejaVuSans-Bold-4c" transform="translate(917.375 0)"/>
     <use xlink:href="#DejaVuSans-Bold-56" transform="translate(951.65625 0)"/>
     <use xlink:href="#DejaVuSans-Bold-4c" transform="translate(1011.171875 0)"/>
     <use xlink:href="#DejaVuSans-Bold-52" transform="translate(1045.453125 0)"/>
     <use xlink:href="#DejaVuSans-Bold-51" transform="translate(1114.15625 0)"/>
    </g>
   </g>
   <g id="text_12">
    <!-- Accept release package, -->
    <g style="fill: #172026" transform="translate(410.355 240.15006) scale(0.08 -0.08)">
     <use xlink:href="#DejaVuSans-24"/>
     <use xlink:href="#DejaVuSans-46" transform="translate(66.65625 0)"/>
     <use xlink:href="#DejaVuSans-46" transform="translate(121.640625 0)"/>
     <use xlink:href="#DejaVuSans-48" transform="translate(176.625 0)"/>
     <use xlink:href="#DejaVuSans-53" transform="translate(238.15625 0)"/>
     <use xlink:href="#DejaVuSans-57" transform="translate(301.640625 0)"/>
     <use xlink:href="#DejaVuSans-3" transform="translate(340.84375 0)"/>
     <use xlink:href="#DejaVuSans-55" transform="translate(372.625 0)"/>
     <use xlink:href="#DejaVuSans-48" transform="translate(411.53125 0)"/>
     <use xlink:href="#DejaVuSans-4f" transform="translate(473.0625 0)"/>
     <use xlink:href="#DejaVuSans-48" transform="translate(500.84375 0)"/>
     <use xlink:href="#DejaVuSans-44" transform="translate(562.375 0)"/>
     <use xlink:href="#DejaVuSans-56" transform="translate(623.65625 0)"/>
     <use xlink:href="#DejaVuSans-48" transform="translate(675.75 0)"/>
     <use xlink:href="#DejaVuSans-3" transform="translate(737.28125 0)"/>
     <use xlink:href="#DejaVuSans-53" transform="translate(769.0625 0)"/>
     <use xlink:href="#DejaVuSans-44" transform="translate(832.546875 0)"/>
     <use xlink:href="#DejaVuSans-46" transform="translate(893.828125 0)"/>
     <use xlink:href="#DejaVuSans-4e" transform="translate(948.8125 0)"/>
     <use xlink:href="#DejaVuSans-44" transform="translate(1004.96875 0)"/>
     <use xlink:href="#DejaVuSans-4a" transform="translate(1066.25 0)"/>
     <use xlink:href="#DejaVuSans-48" transform="translate(1129.734375 0)"/>
     <use xlink:href="#DejaVuSans-f" transform="translate(1191.265625 0)"/>
    </g>
    <!-- request revisions, -->
    <g style="fill: #172026" transform="translate(410.355 249.91006) scale(0.08 -0.08)">
     <use xlink:href="#DejaVuSans-55"/>
     <use xlink:href="#DejaVuSans-48" transform="translate(38.90625 0)"/>
     <use xlink:href="#DejaVuSans-54" transform="translate(100.4375 0)"/>
     <use xlink:href="#DejaVuSans-58" transform="translate(163.921875 0)"/>
     <use xlink:href="#DejaVuSans-48" transform="translate(227.296875 0)"/>
     <use xlink:href="#DejaVuSans-56" transform="translate(288.828125 0)"/>
     <use xlink:href="#DejaVuSans-57" transform="translate(340.921875 0)"/>
     <use xlink:href="#DejaVuSans-3" transform="translate(380.125 0)"/>
     <use xlink:href="#DejaVuSans-55" transform="translate(411.90625 0)"/>
     <use xlink:href="#DejaVuSans-48" transform="translate(450.8125 0)"/>
     <use xlink:href="#DejaVuSans-59" transform="translate(512.34375 0)"/>
     <use xlink:href="#DejaVuSans-4c" transform="translate(571.53125 0)"/>
     <use xlink:href="#DejaVuSans-56" transform="translate(599.3125 0)"/>
     <use xlink:href="#DejaVuSans-4c" transform="translate(651.40625 0)"/>
     <use xlink:href="#DejaVuSans-52" transform="translate(679.1875 0)"/>
     <use xlink:href="#DejaVuSans-51" transform="translate(740.375 0)"/>
     <use xlink:href="#DejaVuSans-56" transform="translate(803.75 0)"/>
     <use xlink:href="#DejaVuSans-f" transform="translate(855.84375 0)"/>
    </g>
    <!-- or reject release. -->
    <g style="fill: #172026" transform="translate(410.355 259.67006) scale(0.08 -0.08)">
     <defs>
      <path id="DejaVuSans-4d" d="M 603 3500
L 1178 3500
L 1178 -63
Q 1178 -731 923 -1031
Q 669 -1331 103 -1331
L -116 -1331
L -116 -844
L 38 -844
Q 366 -844 484 -692
Q 603 -541 603 -63
L 603 3500
z
M 603 4863
L 1178 4863
L 1178 4134
L 603 4134
L 603 4863
z
" transform="scale(0.015625)"/>
     </defs>
     <use xlink:href="#DejaVuSans-52"/>
     <use xlink:href="#DejaVuSans-55" transform="translate(61.1875 0)"/>
     <use xlink:href="#DejaVuSans-3" transform="translate(102.296875 0)"/>
     <use xlink:href="#DejaVuSans-55" transform="translate(134.078125 0)"/>
     <use xlink:href="#DejaVuSans-48" transform="translate(172.984375 0)"/>
     <use xlink:href="#DejaVuSans-4d" transform="translate(234.515625 0)"/>
     <use xlink:href="#DejaVuSans-48" transform="translate(262.296875 0)"/>
     <use xlink:href="#DejaVuSans-46" transform="translate(323.828125 0)"/>
     <use xlink:href="#DejaVuSans-57" transform="translate(378.8125 0)"/>
     <use xlink:href="#DejaVuSans-3" transform="translate(418.015625 0)"/>
     <use xlink:href="#DejaVuSans-55" transform="translate(449.796875 0)"/>
     <use xlink:href="#DejaVuSans-48" transform="translate(488.703125 0)"/>
     <use xlink:href="#DejaVuSans-4f" transform="translate(550.234375 0)"/>
     <use xlink:href="#DejaVuSans-48" transform="translate(578.015625 0)"/>
     <use xlink:href="#DejaVuSans-44" transform="translate(639.546875 0)"/>
     <use xlink:href="#DejaVuSans-56" transform="translate(700.828125 0)"/>
     <use xlink:href="#DejaVuSans-48" transform="translate(752.921875 0)"/>
     <use xlink:href="#DejaVuSans-11" transform="translate(814.453125 0)"/>
    </g>
    <!--  -->
    <g style="fill: #172026" transform="translate(410.355 267.22256) scale(0.08 -0.08)"/>
    <!-- No automatic release. -->
    <g style="fill: #172026" transform="translate(410.355 279.96506) scale(0.08 -0.08)">
     <use xlink:href="#DejaVuSans-31"/>
     <use xlink:href="#DejaVuSans-52" transform="translate(74.8125 0)"/>
     <use xlink:href="#DejaVuSans-3" transform="translate(136 0)"/>
     <use xlink:href="#DejaVuSans-44" transform="translate(167.78125 0)"/>
     <use xlink:href="#DejaVuSans-58" transform="translate(229.0625 0)"/>
     <use xlink:href="#DejaVuSans-57" transform="translate(292.4375 0)"/>
     <use xlink:href="#DejaVuSans-52" transform="translate(331.640625 0)"/>
     <use xlink:href="#DejaVuSans-50" transform="translate(392.828125 0)"/>
     <use xlink:href="#DejaVuSans-44" transform="translate(490.234375 0)"/>
     <use xlink:href="#DejaVuSans-57" transform="translate(551.515625 0)"/>
     <use xlink:href="#DejaVuSans-4c" transform="translate(590.71875 0)"/>
     <use xlink:href="#DejaVuSans-46" transform="translate(618.5 0)"/>
     <use xlink:href="#DejaVuSans-3" transform="translate(673.484375 0)"/>
     <use xlink:href="#DejaVuSans-55" transform="translate(705.265625 0)"/>
     <use xlink:href="#DejaVuSans-48" transform="translate(744.171875 0)"/>
     <use xlink:href="#DejaVuSans-4f" transform="translate(805.703125 0)"/>
     <use xlink:href="#DejaVuSans-48" transform="translate(833.484375 0)"/>
     <use xlink:href="#DejaVuSans-44" transform="translate(895.015625 0)"/>
     <use xlink:href="#DejaVuSans-56" transform="translate(956.296875 0)"/>
     <use xlink:href="#DejaVuSans-48" transform="translate(1008.390625 0)"/>
     <use xlink:href="#DejaVuSans-11" transform="translate(1069.921875 0)"/>
    </g>
   </g>
   <g id="text_13">
    <!-- Boundary -->
    <g style="fill: #172026" transform="translate(159.255 350.639606) scale(0.102 -0.102)">
     <defs>
      <path id="DejaVuSans-Bold-25" d="M 2456 2859
Q 2741 2859 2887 2984
Q 3034 3109 3034 3353
Q 3034 3594 2887 3720
Q 2741 3847 2456 3847
L 1791 3847
L 1791 2859
L 2456 2859
z
M 2497 819
Q 2859 819 3042 972
Q 3225 1125 3225 1434
Q 3225 1738 3044 1889
Q 2863 2041 2497 2041
L 1791 2041
L 1791 819
L 2497 819
z
M 3616 2497
Q 4003 2384 4215 2081
Q 4428 1778 4428 1338
Q 4428 663 3972 331
Q 3516 0 2584 0
L 588 0
L 588 4666
L 2394 4666
Q 3366 4666 3802 4372
Q 4238 4078 4238 3431
Q 4238 3091 4078 2852
Q 3919 2613 3616 2497
z
" transform="scale(0.015625)"/>
      <path id="DejaVuSans-Bold-5c" d="M 78 3500
L 1197 3500
L 2138 1125
L 2938 3500
L 4056 3500
L 2584 -331
Q 2363 -916 2067 -1148
Q 1772 -1381 1288 -1381
L 641 -1381
L 641 -647
L 991 -647
Q 1275 -647 1404 -556
Q 1534 -466 1606 -231
L 1638 -134
L 78 3500
z
" transform="scale(0.015625)"/>
     </defs>
     <use xlink:href="#DejaVuSans-Bold-25"/>
     <use xlink:href="#DejaVuSans-Bold-52" transform="translate(76.21875 0)"/>
     <use xlink:href="#DejaVuSans-Bold-58" transform="translate(144.921875 0)"/>
     <use xlink:href="#DejaVuSans-Bold-51" transform="translate(216.109375 0)"/>
     <use xlink:href="#DejaVuSans-Bold-47" transform="translate(287.296875 0)"/>
     <use xlink:href="#DejaVuSans-Bold-44" transform="translate(358.875 0)"/>
     <use xlink:href="#DejaVuSans-Bold-55" transform="translate(426.359375 0)"/>
     <use xlink:href="#DejaVuSans-Bold-5c" transform="translate(475.671875 0)"/>
    </g>
   </g>
   <g id="text_14">
    <!-- No release, tag, archive, Gate 6, locked data, QML invention, or quantum-advantage claim is authorized. -->
    <g style="fill: #172026" transform="translate(159.255 368.21646) scale(0.08 -0.08)">
     <defs>
      <path id="DejaVuSans-5d" d="M 353 3500
L 3084 3500
L 3084 2975
L 922 459
L 3084 459
L 3084 0
L 275 0
L 275 525
L 2438 3041
L 353 3041
L 353 3500
z
" transform="scale(0.015625)"/>
     </defs>
     <use xlink:href="#DejaVuSans-31"/>
     <use xlink:href="#DejaVuSans-52" transform="translate(74.8125 0)"/>
     <use xlink:href="#DejaVuSans-3" transform="translate(136 0)"/>
     <use xlink:href="#DejaVuSans-55" transform="translate(167.78125 0)"/>
     <use xlink:href="#DejaVuSans-48" transform="translate(206.6875 0)"/>
     <use xlink:href="#DejaVuSans-4f" transform="translate(268.21875 0)"/>
     <use xlink:href="#DejaVuSans-48" transform="translate(296 0)"/>
     <use xlink:href="#DejaVuSans-44" transform="translate(357.53125 0)"/>
     <use xlink:href="#DejaVuSans-56" transform="translate(418.8125 0)"/>
     <use xlink:href="#DejaVuSans-48" transform="translate(470.90625 0)"/>
     <use xlink:href="#DejaVuSans-f" transform="translate(532.4375 0)"/>
     <use xlink:href="#DejaVuSans-3" transform="translate(564.21875 0)"/>
     <use xlink:href="#DejaVuSans-57" transform="translate(596 0)"/>
     <use xlink:href="#DejaVuSans-44" transform="translate(635.203125 0)"/>
     <use xlink:href="#DejaVuSans-4a" transform="translate(696.484375 0)"/>
     <use xlink:href="#DejaVuSans-f" transform="translate(759.96875 0)"/>
     <use xlink:href="#DejaVuSans-3" transform="translate(791.75 0)"/>
     <use xlink:href="#DejaVuSans-44" transform="translate(823.53125 0)"/>
     <use xlink:href="#DejaVuSans-55" transform="translate(884.8125 0)"/>
     <use xlink:href="#DejaVuSans-46" transform="translate(923.71875 0)"/>
     <use xlink:href="#DejaVuSans-4b" transform="translate(978.703125 0)"/>
     <use xlink:href="#DejaVuSans-4c" transform="translate(1042.078125 0)"/>
     <use xlink:href="#DejaVuSans-59" transform="translate(1069.859375 0)"/>
     <use xlink:href="#DejaVuSans-48" transform="translate(1129.046875 0)"/>
     <use xlink:href="#DejaVuSans-f" transform="translate(1190.578125 0)"/>
     <use xlink:href="#DejaVuSans-3" transform="translate(1222.359375 0)"/>
     <use xlink:href="#DejaVuSans-2a" transform="translate(1254.140625 0)"/>
     <use xlink:href="#DejaVuSans-44" transform="translate(1331.625 0)"/>
     <use xlink:href="#DejaVuSans-57" transform="translate(1392.90625 0)"/>
     <use xlink:href="#DejaVuSans-48" transform="translate(1432.109375 0)"/>
     <use xlink:href="#DejaVuSans-3" transform="translate(1493.640625 0)"/>
     <use xlink:href="#DejaVuSans-19" transform="translate(1525.421875 0)"/>
     <use xlink:href="#DejaVuSans-f" transform="translate(1589.046875 0)"/>
     <use xlink:href="#DejaVuSans-3" transform="translate(1620.828125 0)"/>
     <use xlink:href="#DejaVuSans-4f" transform="translate(1652.609375 0)"/>
     <use xlink:href="#DejaVuSans-52" transform="translate(1680.390625 0)"/>
     <use xlink:href="#DejaVuSans-46" transform="translate(1741.578125 0)"/>
     <use xlink:href="#DejaVuSans-4e" transform="translate(1796.5625 0)"/>
     <use xlink:href="#DejaVuSans-48" transform="translate(1850.90625 0)"/>
     <use xlink:href="#DejaVuSans-47" transform="translate(1912.4375 0)"/>
     <use xlink:href="#DejaVuSans-3" transform="translate(1975.921875 0)"/>
     <use xlink:href="#DejaVuSans-47" transform="translate(2007.703125 0)"/>
     <use xlink:href="#DejaVuSans-44" transform="translate(2071.1875 0)"/>
     <use xlink:href="#DejaVuSans-57" transform="translate(2132.46875 0)"/>
     <use xlink:href="#DejaVuSans-44" transform="translate(2171.671875 0)"/>
     <use xlink:href="#DejaVuSans-f" transform="translate(2232.953125 0)"/>
     <use xlink:href="#DejaVuSans-3" transform="translate(2264.734375 0)"/>
     <use xlink:href="#DejaVuSans-34" transform="translate(2296.515625 0)"/>
     <use xlink:href="#DejaVuSans-30" transform="translate(2375.234375 0)"/>
     <use xlink:href="#DejaVuSans-2f" transform="translate(2461.515625 0)"/>
     <use xlink:href="#DejaVuSans-3" transform="translate(2517.234375 0)"/>
     <use xlink:href="#DejaVuSans-4c" transform="translate(2549.015625 0)"/>
     <use xlink:href="#DejaVuSans-51" transform="translate(2576.796875 0)"/>
     <use xlink:href="#DejaVuSans-59" transform="translate(2640.171875 0)"/>
     <use xlink:href="#DejaVuSans-48" transform="translate(2699.359375 0)"/>
     <use xlink:href="#DejaVuSans-51" transform="translate(2760.890625 0)"/>
     <use xlink:href="#DejaVuSans-57" transform="translate(2824.265625 0)"/>
     <use xlink:href="#DejaVuSans-4c" transform="translate(2863.46875 0)"/>
     <use xlink:href="#DejaVuSans-52" transform="translate(2891.25 0)"/>
     <use xlink:href="#DejaVuSans-51" transform="translate(2952.4375 0)"/>
     <use xlink:href="#DejaVuSans-f" transform="translate(3015.8125 0)"/>
     <use xlink:href="#DejaVuSans-3" transform="translate(3047.59375 0)"/>
     <use xlink:href="#DejaVuSans-52" transform="translate(3079.375 0)"/>
     <use xlink:href="#DejaVuSans-55" transform="translate(3140.5625 0)"/>
     <use xlink:href="#DejaVuSans-3" transform="translate(3181.671875 0)"/>
     <use xlink:href="#DejaVuSans-54" transform="translate(3213.453125 0)"/>
     <use xlink:href="#DejaVuSans-58" transform="translate(3276.9375 0)"/>
     <use xlink:href="#DejaVuSans-44" transform="translate(3340.3125 0)"/>
     <use xlink:href="#DejaVuSans-51" transform="translate(3401.59375 0)"/>
     <use xlink:href="#DejaVuSans-57" transform="translate(3464.96875 0)"/>
     <use xlink:href="#DejaVuSans-58" transform="translate(3504.171875 0)"/>
     <use xlink:href="#DejaVuSans-50" transform="translate(3567.546875 0)"/>
     <use xlink:href="#DejaVuSans-10" transform="translate(3664.953125 0)"/>
     <use xlink:href="#DejaVuSans-44" transform="translate(3701.03125 0)"/>
     <use xlink:href="#DejaVuSans-47" transform="translate(3762.3125 0)"/>
     <use xlink:href="#DejaVuSans-59" transform="translate(3825.796875 0)"/>
     <use xlink:href="#DejaVuSans-44" transform="translate(3884.984375 0)"/>
     <use xlink:href="#DejaVuSans-51" transform="translate(3946.265625 0)"/>
     <use xlink:href="#DejaVuSans-57" transform="translate(4009.640625 0)"/>
     <use xlink:href="#DejaVuSans-44" transform="translate(4048.84375 0)"/>
     <use xlink:href="#DejaVuSans-4a" transform="translate(4110.125 0)"/>
     <use xlink:href="#DejaVuSans-48" transform="translate(4173.609375 0)"/>
     <use xlink:href="#DejaVuSans-3" transform="translate(4235.140625 0)"/>
     <use xlink:href="#DejaVuSans-46" transform="translate(4266.921875 0)"/>
     <use xlink:href="#DejaVuSans-4f" transform="translate(4321.90625 0)"/>
     <use xlink:href="#DejaVuSans-44" transform="translate(4349.6875 0)"/>
     <use xlink:href="#DejaVuSans-4c" transform="translate(4410.96875 0)"/>
     <use xlink:href="#DejaVuSans-50" transform="translate(4438.75 0)"/>
     <use xlink:href="#DejaVuSans-3" transform="translate(4536.15625 0)"/>
     <use xlink:href="#DejaVuSans-4c" transform="translate(4567.9375 0)"/>
     <use xlink:href="#DejaVuSans-56" transform="translate(4595.71875 0)"/>
     <use xlink:href="#DejaVuSans-3" transform="translate(4647.8125 0)"/>
     <use xlink:href="#DejaVuSans-44" transform="translate(4679.59375 0)"/>
     <use xlink:href="#DejaVuSans-58" transform="translate(4740.875 0)"/>
     <use xlink:href="#DejaVuSans-57" transform="translate(4804.25 0)"/>
     <use xlink:href="#DejaVuSans-4b" transform="translate(4843.453125 0)"/>
     <use xlink:href="#DejaVuSans-52" transform="translate(4906.828125 0)"/>
     <use xlink:href="#DejaVuSans-55" transform="translate(4968.015625 0)"/>
     <use xlink:href="#DejaVuSans-4c" transform="translate(5009.125 0)"/>
     <use xlink:href="#DejaVuSans-5d" transform="translate(5036.90625 0)"/>
     <use xlink:href="#DejaVuSans-48" transform="translate(5089.390625 0)"/>
     <use xlink:href="#DejaVuSans-47" transform="translate(5150.921875 0)"/>
     <use xlink:href="#DejaVuSans-11" transform="translate(5214.40625 0)"/>
    </g>
   </g>
  </g>
 </g>
 <defs>
  <clipPath id="p1ee58b8665">
   <rect x="7.2" y="7.2" width="697.5" height="388.08"/>
  </clipPath>
 </defs>
</svg>
