<?xml version="1.0" encoding="utf-8" standalone="no"?>
<!DOCTYPE svg PUBLIC "-//W3C//DTD SVG 1.1//EN"
  "http://www.w3.org/Graphics/SVG/1.1/DTD/svg11.dtd">
<svg xmlns:xlink="http://www.w3.org/1999/xlink" width="836.596969pt" height="391.392pt" viewBox="0 0 836.596969 391.392" xmlns="http://www.w3.org/2000/svg" version="1.1">
 <metadata>
  <rdf:RDF xmlns:dc="http://purl.org/dc/elements/1.1/" xmlns:cc="http://creativecommons.org/ns#" xmlns:rdf="http://www.w3.org/1999/02/22-rdf-syntax-ns#">
   <cc:Work>
    <dc:type rdf:resource="http://purl.org/dc/dcmitype/StillImage"/>
    <dc:format>image/svg+xml</dc:format>
    <dc:creator>
     <cc:Agent>
      <dc:title>Matplotlib v3.11.0, https://matplotlib.org/</dc:title>
     </cc:Agent>
    </dc:creator>
   </cc:Work>
  </rdf:RDF>
 </metadata>
 <defs>
  <style type="text/css">*{stroke-linejoin: round; stroke-linecap: butt}</style>
 </defs>
 <g id="figure_1">
  <g id="patch_1">
   <path d="M 0 391.392
L 836.596969 391.392
L 836.596969 0
L 0 0
z
" style="fill: #ffffff"/>
  </g>
  <g id="axes_1">
   <g id="patch_2">
    <path d="M 37.1925 181.370304
L 221.3325 181.370304
Q 231.795 181.370304 231.795 175.715424
L 231.795 87.499296
Q 231.795 81.844416 221.3325 81.844416
L 37.1925 81.844416
Q 26.73 81.844416 26.73 87.499296
L 26.73 175.715424
Q 26.73 181.370304 37.1925 181.370304
z
" clip-path="url(#p1f69d3e10b)" style="fill: #eaf3f8; stroke: #0072b2; stroke-width: 1.2; stroke-linejoin: miter"/>
   </g>
   <g id="patch_3">
    <path d="M 267.3675 181.370304
L 451.5075 181.370304
Q 461.97 181.370304 461.97 175.715424
L 461.97 87.499296
Q 461.97 81.844416 451.5075 81.844416
L 267.3675 81.844416
Q 256.905 81.844416 256.905 87.499296
L 256.905 175.715424
Q 256.905 181.370304 267.3675 181.370304
z
" clip-path="url(#p1f69d3e10b)" style="fill: #fbedea; stroke: #b24a3b; stroke-width: 1.2; stroke-linejoin: miter"/>
   </g>
   <g id="patch_4">
    <path d="M 497.5425 181.370304
L 667.7325 181.370304
Q 678.195 181.370304 678.195 175.715424
L 678.195 87.499296
Q 678.195 81.844416 667.7325 81.844416
L 497.5425 81.844416
Q 487.08 81.844416 487.08 87.499296
L 487.08 175.715424
Q 487.08 181.370304 497.5425 181.370304
z
" clip-path="url(#p1f69d3e10b)" style="fill: #fff4d6; stroke: #e69f00; stroke-width: 1.2; stroke-linejoin: miter"/>
   </g>
   <g id="patch_5">
    <path d="M 155.7675 324.627264
L 556.1325 324.627264
Q 566.595 324.627264 566.595 318.972384
L 566.595 253.375776
Q 566.595 247.720896 556.1325 247.720896
L 155.7675 247.720896
Q 145.305 247.720896 145.305 253.375776
L 145.305 318.972384
Q 145.305 324.627264 155.7675 324.627264
z
" clip-path="url(#p1f69d3e10b)" style="fill: #f2f4f6; stroke: #68737d; stroke-width: 1.2; stroke-linejoin: miter"/>
   </g>
   <g id="text_1">
    <!-- D018-C interpretation: development evidence does not advance -->
    <g style="fill: #17202a" transform="translate(21.15 31.427104) scale(0.17 -0.17)">
     <defs>
      <path id="DejaVuSans-Bold-27" d="M 1791 3756
L 1791 909
L 2222 909
Q 2959 909 3348 1275
Q 3738 1641 3738 2338
Q 3738 3031 3350 3393
Q 2963 3756 2222 3756
L 1791 3756
z
M 588 4666
L 1856 4666
Q 2919 4666 3439 4514
Q 3959 4363 4331 4000
Q 4659 3684 4818 3271
Q 4978 2859 4978 2338
Q 4978 1809 4818 1395
Q 4659 981 4331 666
Q 3956 303 3431 151
Q 2906 0 1856 0
L 588 0
L 588 4666
z
" transform="scale(0.015625)"/>
      <path id="DejaVuSans-Bold-13" d="M 2944 2338
Q 2944 3213 2780 3570
Q 2616 3928 2228 3928
Q 1841 3928 1675 3570
Q 1509 3213 1509 2338
Q 1509 1453 1675 1090
Q 1841 728 2228 728
Q 2613 728 2778 1090
Q 2944 1453 2944 2338
z
M 4147 2328
Q 4147 1169 3647 539
Q 3147 -91 2228 -91
Q 1306 -91 806 539
Q 306 1169 306 2328
Q 306 3491 806 4120
Q 1306 4750 2228 4750
Q 3147 4750 3647 4120
Q 4147 3491 4147 2328
z
" transform="scale(0.015625)"/>
      <path id="DejaVuSans-Bold-14" d="M 750 831
L 1813 831
L 1813 3847
L 722 3622
L 722 4441
L 1806 4666
L 2950 4666
L 2950 831
L 4013 831
L 4013 0
L 750 0
L 750 831
z
" transform="scale(0.015625)"/>
      <path id="DejaVuSans-Bold-1b" d="M 2228 2088
Q 1891 2088 1709 1903
Q 1528 1719 1528 1375
Q 1528 1031 1709 848
Q 1891 666 2228 666
Q 2563 666 2741 848
Q 2919 1031 2919 1375
Q 2919 1722 2741 1905
Q 2563 2088 2228 2088
z
M 1350 2484
Q 925 2613 709 2878
Q 494 3144 494 3541
Q 494 4131 934 4440
Q 1375 4750 2228 4750
Q 3075 4750 3515 4442
Q 3956 4134 3956 3541
Q 3956 3144 3739 2878
Q 3522 2613 3097 2484
Q 3572 2353 3814 2058
Q 4056 1763 4056 1313
Q 4056 619 3595 264
Q 3134 -91 2228 -91
Q 1319 -91 855 264
Q 391 619 391 1313
Q 391 1763 633 2058
Q 875 2353 1350 2484
z
M 1631 3419
Q 1631 3141 1786 2991
Q 1941 2841 2228 2841
Q 2509 2841 2662 2991
Q 2816 3141 2816 3419
Q 2816 3697 2662 3845
Q 2509 3994 2228 3994
Q 1941 3994 1786 3844
Q 1631 3694 1631 3419
z
" transform="scale(0.015625)"/>
      <path id="DejaVuSans-Bold-10" d="M 347 2297
L 2309 2297
L 2309 1388
L 347 1388
L 347 2297
z
" transform="scale(0.015625)"/>
      <path id="DejaVuSans-Bold-26" d="M 4288 256
Q 3956 84 3597 -3
Q 3238 -91 2847 -91
Q 1681 -91 1000 561
Q 319 1213 319 2328
Q 319 3447 1000 4098
Q 1681 4750 2847 4750
Q 3238 4750 3597 4662
Q 3956 4575 4288 4403
L 4288 3438
Q 3953 3666 3628 3772
Q 3303 3878 2944 3878
Q 2300 3878 1931 3465
Q 1563 3053 1563 2328
Q 1563 1606 1931 1193
Q 2300 781 2944 781
Q 3303 781 3628 887
Q 3953 994 4288 1222
L 4288 256
z
" transform="scale(0.015625)"/>
      <path id="DejaVuSans-Bold-3" transform="scale(0.015625)"/>
      <path id="DejaVuSans-Bold-4c" d="M 538 3500
L 1656 3500
L 1656 0
L 538 0
L 538 3500
z
M 538 4863
L 1656 4863
L 1656 3950
L 538 3950
L 538 4863
z
" transform="scale(0.015625)"/>
      <path id="DejaVuSans-Bold-51" d="M 4056 2131
L 4056 0
L 2931 0
L 2931 347
L 2931 1631
Q 2931 2084 2911 2256
Q 2891 2428 2841 2509
Q 2775 2619 2662 2680
Q 2550 2741 2406 2741
Q 2056 2741 1856 2470
Q 1656 2200 1656 1722
L 1656 0
L 538 0
L 538 3500
L 1656 3500
L 1656 2988
Q 1909 3294 2193 3439
Q 2478 3584 2822 3584
Q 3428 3584 3742 3212
Q 4056 2841 4056 2131
z
" transform="scale(0.015625)"/>
      <path id="DejaVuSans-Bold-57" d="M 1759 4494
L 1759 3500
L 2913 3500
L 2913 2700
L 1759 2700
L 1759 1216
Q 1759 972 1856 886
Q 1953 800 2241 800
L 2816 800
L 2816 0
L 1856 0
Q 1194 0 917 276
Q 641 553 641 1216
L 641 2700
L 84 2700
L 84 3500
L 641 3500
L 641 4494
L 1759 4494
z
" transform="scale(0.015625)"/>
      <path id="DejaVuSans-Bold-48" d="M 4031 1759
L 4031 1441
L 1416 1441
Q 1456 1047 1700 850
Q 1944 653 2381 653
Q 2734 653 3104 758
Q 3475 863 3866 1075
L 3866 213
Q 3469 63 3072 -14
Q 2675 -91 2278 -91
Q 1328 -91 801 392
Q 275 875 275 1747
Q 275 2603 792 3093
Q 1309 3584 2216 3584
Q 3041 3584 3536 3087
Q 4031 2591 4031 1759
z
M 2881 2131
Q 2881 2450 2695 2645
Q 2509 2841 2209 2841
Q 1884 2841 1681 2658
Q 1478 2475 1428 2131
L 2881 2131
z
" transform="scale(0.015625)"/>
      <path id="DejaVuSans-Bold-55" d="M 3138 2547
Q 2991 2616 2845 2648
Q 2700 2681 2553 2681
Q 2122 2681 1889 2404
Q 1656 2128 1656 1613
L 1656 0
L 538 0
L 538 3500
L 1656 3500
L 1656 2925
Q 1872 3269 2151 3426
Q 2431 3584 2822 3584
Q 2878 3584 2943 3579
Q 3009 3575 3134 3559
L 3138 2547
z
" transform="scale(0.015625)"/>
      <path id="DejaVuSans-Bold-53" d="M 1656 506
L 1656 -1331
L 538 -1331
L 538 3500
L 1656 3500
L 1656 2988
Q 1888 3294 2169 3439
Q 2450 3584 2816 3584
Q 3463 3584 3878 3070
Q 4294 2556 4294 1747
Q 4294 938 3878 423
Q 3463 -91 2816 -91
Q 2450 -91 2169 54
Q 1888 200 1656 506
z
M 2400 2772
Q 2041 2772 1848 2508
Q 1656 2244 1656 1747
Q 1656 1250 1848 986
Q 2041 722 2400 722
Q 2759 722 2948 984
Q 3138 1247 3138 1747
Q 3138 2247 2948 2509
Q 2759 2772 2400 2772
z
" transform="scale(0.015625)"/>
      <path id="DejaVuSans-Bold-44" d="M 2106 1575
Q 1756 1575 1579 1456
Q 1403 1338 1403 1106
Q 1403 894 1545 773
Q 1688 653 1941 653
Q 2256 653 2472 879
Q 2688 1106 2688 1447
L 2688 1575
L 2106 1575
z
M 3816 1997
L 3816 0
L 2688 0
L 2688 519
Q 2463 200 2181 54
Q 1900 -91 1497 -91
Q 953 -91 614 226
Q 275 544 275 1050
Q 275 1666 698 1953
Q 1122 2241 2028 2241
L 2688 2241
L 2688 2328
Q 2688 2594 2478 2717
Q 2269 2841 1825 2841
Q 1466 2841 1156 2769
Q 847 2697 581 2553
L 581 3406
Q 941 3494 1303 3539
Q 1666 3584 2028 3584
Q 2975 3584 3395 3211
Q 3816 2838 3816 1997
z
" transform="scale(0.015625)"/>
      <path id="DejaVuSans-Bold-52" d="M 2203 2784
Q 1831 2784 1636 2517
Q 1441 2250 1441 1747
Q 1441 1244 1636 976
Q 1831 709 2203 709
Q 2569 709 2762 976
Q 2956 1244 2956 1747
Q 2956 2250 2762 2517
Q 2569 2784 2203 2784
z
M 2203 3584
Q 3106 3584 3614 3096
Q 4122 2609 4122 1747
Q 4122 884 3614 396
Q 3106 -91 2203 -91
Q 1297 -91 786 396
Q 275 884 275 1747
Q 275 2609 786 3096
Q 1297 3584 2203 3584
z
" transform="scale(0.015625)"/>
      <path id="DejaVuSans-Bold-1d" d="M 716 3500
L 1844 3500
L 1844 2291
L 716 2291
L 716 3500
z
M 716 1209
L 1844 1209
L 1844 0
L 716 0
L 716 1209
z
" transform="scale(0.015625)"/>
      <path id="DejaVuSans-Bold-47" d="M 2919 2988
L 2919 4863
L 4044 4863
L 4044 0
L 2919 0
L 2919 506
Q 2688 197 2409 53
Q 2131 -91 1766 -91
Q 1119 -91 703 423
Q 288 938 288 1747
Q 288 2556 703 3070
Q 1119 3584 1766 3584
Q 2128 3584 2408 3439
Q 2688 3294 2919 2988
z
M 2181 722
Q 2541 722 2730 984
Q 2919 1247 2919 1747
Q 2919 2247 2730 2509
Q 2541 2772 2181 2772
Q 1825 2772 1636 2509
Q 1447 2247 1447 1747
Q 1447 1247 1636 984
Q 1825 722 2181 722
z
" transform="scale(0.015625)"/>
      <path id="DejaVuSans-Bold-59" d="M 97 3500
L 1216 3500
L 2088 1081
L 2956 3500
L 4078 3500
L 2700 0
L 1472 0
L 97 3500
z
" transform="scale(0.015625)"/>
      <path id="DejaVuSans-Bold-4f" d="M 538 4863
L 1656 4863
L 1656 0
L 538 0
L 538 4863
z
" transform="scale(0.015625)"/>
      <path id="DejaVuSans-Bold-50" d="M 3781 2919
Q 3994 3244 4286 3414
Q 4578 3584 4928 3584
Q 5531 3584 5847 3212
Q 6163 2841 6163 2131
L 6163 0
L 5038 0
L 5038 1825
Q 5041 1866 5042 1909
Q 5044 1953 5044 2034
Q 5044 2406 4934 2573
Q 4825 2741 4581 2741
Q 4263 2741 4089 2478
Q 3916 2216 3909 1719
L 3909 0
L 2784 0
L 2784 1825
Q 2784 2406 2684 2573
Q 2584 2741 2328 2741
Q 2006 2741 1831 2477
Q 1656 2213 1656 1722
L 1656 0
L 531 0
L 531 3500
L 1656 3500
L 1656 2988
Q 1863 3284 2130 3434
Q 2397 3584 2719 3584
Q 3081 3584 3359 3409
Q 3638 3234 3781 2919
z
" transform="scale(0.015625)"/>
      <path id="DejaVuSans-Bold-46" d="M 3366 3391
L 3366 2478
Q 3138 2634 2908 2709
Q 2678 2784 2431 2784
Q 1963 2784 1702 2511
Q 1441 2238 1441 1747
Q 1441 1256 1702 982
Q 1963 709 2431 709
Q 2694 709 2930 787
Q 3166 866 3366 1019
L 3366 103
Q 3103 6 2833 -42
Q 2563 -91 2291 -91
Q 1344 -91 809 395
Q 275 881 275 1747
Q 275 2613 809 3098
Q 1344 3584 2291 3584
Q 2566 3584 2833 3536
Q 3100 3488 3366 3391
z
" transform="scale(0.015625)"/>
      <path id="DejaVuSans-Bold-56" d="M 3272 3391
L 3272 2541
Q 2913 2691 2578 2766
Q 2244 2841 1947 2841
Q 1628 2841 1473 2761
Q 1319 2681 1319 2516
Q 1319 2381 1436 2309
Q 1553 2238 1856 2203
L 2053 2175
Q 2913 2066 3209 1816
Q 3506 1566 3506 1031
Q 3506 472 3093 190
Q 2681 -91 1863 -91
Q 1516 -91 1145 -36
Q 775 19 384 128
L 384 978
Q 719 816 1070 734
Q 1422 653 1784 653
Q 2113 653 2278 743
Q 2444 834 2444 1013
Q 2444 1163 2330 1236
Q 2216 1309 1875 1350
L 1678 1375
Q 931 1469 631 1722
Q 331 1975 331 2491
Q 331 3047 712 3315
Q 1094 3584 1881 3584
Q 2191 3584 2531 3537
Q 2872 3491 3272 3391
z
" transform="scale(0.015625)"/>
     </defs>
     <use xlink:href="#DejaVuSans-Bold-27"/>
     <use xlink:href="#DejaVuSans-Bold-13" transform="translate(83.015625 0)"/>
     <use xlink:href="#DejaVuSans-Bold-14" transform="translate(152.59375 0)"/>
     <use xlink:href="#DejaVuSans-Bold-1b" transform="translate(222.171875 0)"/>
     <use xlink:href="#DejaVuSans-Bold-10" transform="translate(291.75 0)"/>
     <use xlink:href="#DejaVuSans-Bold-26" transform="translate(333.25 0)"/>
     <use xlink:href="#DejaVuSans-Bold-3" transform="translate(406.640625 0)"/>
     <use xlink:href="#DejaVuSans-Bold-4c" transform="translate(441.453125 0)"/>
     <use xlink:href="#DejaVuSans-Bold-51" transform="translate(475.734375 0)"/>
     <use xlink:href="#DejaVuSans-Bold-57" transform="translate(546.921875 0)"/>
     <use xlink:href="#DejaVuSans-Bold-48" transform="translate(594.71875 0)"/>
     <use xlink:href="#DejaVuSans-Bold-55" transform="translate(662.546875 0)"/>
     <use xlink:href="#DejaVuSans-Bold-53" transform="translate(711.859375 0)"/>
     <use xlink:href="#DejaVuSans-Bold-55" transform="translate(783.4375 0)"/>
     <use xlink:href="#DejaVuSans-Bold-48" transform="translate(832.75 0)"/>
     <use xlink:href="#DejaVuSans-Bold-57" transform="translate(900.578125 0)"/>
     <use xlink:href="#DejaVuSans-Bold-44" transform="translate(948.375 0)"/>
     <use xlink:href="#DejaVuSans-Bold-57" transform="translate(1015.859375 0)"/>
     <use xlink:href="#DejaVuSans-Bold-4c" transform="translate(1063.65625 0)"/>
     <use xlink:href="#DejaVuSans-Bold-52" transform="translate(1097.9375 0)"/>
     <use xlink:href="#DejaVuSans-Bold-51" transform="translate(1166.640625 0)"/>
     <use xlink:href="#DejaVuSans-Bold-1d" transform="translate(1237.828125 0)"/>
     <use xlink:href="#DejaVuSans-Bold-3" transform="translate(1277.8125 0)"/>
     <use xlink:href="#DejaVuSans-Bold-47" transform="translate(1312.625 0)"/>
     <use xlink:href="#DejaVuSans-Bold-48" transform="translate(1384.203125 0)"/>
     <use xlink:href="#DejaVuSans-Bold-59" transform="translate(1452.03125 0)"/>
     <use xlink:href="#DejaVuSans-Bold-48" transform="translate(1517.21875 0)"/>
     <use xlink:href="#DejaVuSans-Bold-4f" transform="translate(1585.046875 0)"/>
     <use xlink:href="#DejaVuSans-Bold-52" transform="translate(1619.328125 0)"/>
     <use xlink:href="#DejaVuSans-Bold-53" transform="translate(1688.03125 0)"/>
     <use xlink:href="#DejaVuSans-Bold-50" transform="translate(1759.609375 0)"/>
     <use xlink:href="#DejaVuSans-Bold-48" transform="translate(1863.8125 0)"/>
     <use xlink:href="#DejaVuSans-Bold-51" transform="translate(1931.640625 0)"/>
     <use xlink:href="#DejaVuSans-Bold-57" transform="translate(2002.828125 0)"/>
     <use xlink:href="#DejaVuSans-Bold-3" transform="translate(2050.625 0)"/>
     <use xlink:href="#DejaVuSans-Bold-48" transform="translate(2085.4375 0)"/>
     <use xlink:href="#DejaVuSans-Bold-59" transform="translate(2153.265625 0)"/>
     <use xlink:href="#DejaVuSans-Bold-4c" transform="translate(2218.453125 0)"/>
     <use xlink:href="#DejaVuSans-Bold-47" transform="translate(2252.734375 0)"/>
     <use xlink:href="#DejaVuSans-Bold-48" transform="translate(2324.3125 0)"/>
     <use xlink:href="#DejaVuSans-Bold-51" transform="translate(2392.140625 0)"/>
     <use xlink:href="#DejaVuSans-Bold-46" transform="translate(2463.328125 0)"/>
     <use xlink:href="#DejaVuSans-Bold-48" transform="translate(2522.609375 0)"/>
     <use xlink:href="#DejaVuSans-Bold-3" transform="translate(2590.4375 0)"/>
     <use xlink:href="#DejaVuSans-Bold-47" transform="translate(2625.25 0)"/>
     <use xlink:href="#DejaVuSans-Bold-52" transform="translate(2696.828125 0)"/>
     <use xlink:href="#DejaVuSans-Bold-48" transform="translate(2765.53125 0)"/>
     <use xlink:href="#DejaVuSans-Bold-56" transform="translate(2833.359375 0)"/>
     <use xlink:href="#DejaVuSans-Bold-3" transform="translate(2892.875 0)"/>
     <use xlink:href="#DejaVuSans-Bold-51" transform="translate(2927.6875 0)"/>
     <use xlink:href="#DejaVuSans-Bold-52" transform="translate(2998.875 0)"/>
     <use xlink:href="#DejaVuSans-Bold-57" transform="translate(3067.578125 0)"/>
     <use xlink:href="#DejaVuSans-Bold-3" transform="translate(3115.375 0)"/>
     <use xlink:href="#DejaVuSans-Bold-44" transform="translate(3150.1875 0)"/>
     <use xlink:href="#DejaVuSans-Bold-47" transform="translate(3217.671875 0)"/>
     <use xlink:href="#DejaVuSans-Bold-59" transform="translate(3289.25 0)"/>
     <use xlink:href="#DejaVuSans-Bold-44" transform="translate(3354.4375 0)"/>
     <use xlink:href="#DejaVuSans-Bold-51" transform="translate(3421.921875 0)"/>
     <use xlink:href="#DejaVuSans-Bold-46" transform="translate(3493.109375 0)"/>
     <use xlink:href="#DejaVuSans-Bold-48" transform="translate(3552.390625 0)"/>
    </g>
   </g>
   <g id="text_2">
    <!-- No calibration, final-test, hardware, mission-loop, QML-invention, quantum-advantage, or Gate 6 authority follows from D017-C. -->
    <g style="fill: #68737d" transform="translate(21.15 52.117716) scale(0.095 -0.095)">
     <defs>
      <path id="DejaVuSans-31" d="M 628 4666
L 1478 4666
L 3547 763
L 3547 4666
L 4159 4666
L 4159 0
L 3309 0
L 1241 3903
L 1241 0
L 628 0
L 628 4666
z
" transform="scale(0.015625)"/>
      <path id="DejaVuSans-52" d="M 1959 3097
Q 1497 3097 1228 2736
Q 959 2375 959 1747
Q 959 1119 1226 758
Q 1494 397 1959 397
Q 2419 397 2687 759
Q 2956 1122 2956 1747
Q 2956 2369 2687 2733
Q 2419 3097 1959 3097
z
M 1959 3584
Q 2709 3584 3137 3096
Q 3566 2609 3566 1747
Q 3566 888 3137 398
Q 2709 -91 1959 -91
Q 1206 -91 779 398
Q 353 888 353 1747
Q 353 2609 779 3096
Q 1206 3584 1959 3584
z
" transform="scale(0.015625)"/>
      <path id="DejaVuSans-3" transform="scale(0.015625)"/>
      <path id="DejaVuSans-46" d="M 3122 3366
L 3122 2828
Q 2878 2963 2633 3030
Q 2388 3097 2138 3097
Q 1578 3097 1268 2742
Q 959 2388 959 1747
Q 959 1106 1268 751
Q 1578 397 2138 397
Q 2388 397 2633 464
Q 2878 531 3122 666
L 3122 134
Q 2881 22 2623 -34
Q 2366 -91 2075 -91
Q 1284 -91 818 406
Q 353 903 353 1747
Q 353 2603 823 3093
Q 1294 3584 2113 3584
Q 2378 3584 2631 3529
Q 2884 3475 3122 3366
z
" transform="scale(0.015625)"/>
      <path id="DejaVuSans-44" d="M 2194 1759
Q 1497 1759 1228 1600
Q 959 1441 959 1056
Q 959 750 1161 570
Q 1363 391 1709 391
Q 2188 391 2477 730
Q 2766 1069 2766 1631
L 2766 1759
L 2194 1759
z
M 3341 1997
L 3341 0
L 2766 0
L 2766 531
Q 2569 213 2275 61
Q 1981 -91 1556 -91
Q 1019 -91 701 211
Q 384 513 384 1019
Q 384 1609 779 1909
Q 1175 2209 1959 2209
L 2766 2209
L 2766 2266
Q 2766 2663 2505 2880
Q 2244 3097 1772 3097
Q 1472 3097 1187 3025
Q 903 2953 641 2809
L 641 3341
Q 956 3463 1253 3523
Q 1550 3584 1831 3584
Q 2591 3584 2966 3190
Q 3341 2797 3341 1997
z
" transform="scale(0.015625)"/>
      <path id="DejaVuSans-4f" d="M 603 4863
L 1178 4863
L 1178 0
L 603 0
L 603 4863
z
" transform="scale(0.015625)"/>
      <path id="DejaVuSans-4c" d="M 603 3500
L 1178 3500
L 1178 0
L 603 0
L 603 3500
z
M 603 4863
L 1178 4863
L 1178 4134
L 603 4134
L 603 4863
z
" transform="scale(0.015625)"/>
      <path id="DejaVuSans-45" d="M 3116 1747
Q 3116 2381 2855 2742
Q 2594 3103 2138 3103
Q 1681 3103 1420 2742
Q 1159 2381 1159 1747
Q 1159 1113 1420 752
Q 1681 391 2138 391
Q 2594 391 2855 752
Q 3116 1113 3116 1747
z
M 1159 2969
Q 1341 3281 1617 3432
Q 1894 3584 2278 3584
Q 2916 3584 3314 3078
Q 3713 2572 3713 1747
Q 3713 922 3314 415
Q 2916 -91 2278 -91
Q 1894 -91 1617 61
Q 1341 213 1159 525
L 1159 0
L 581 0
L 581 4863
L 1159 4863
L 1159 2969
z
" transform="scale(0.015625)"/>
      <path id="DejaVuSans-55" d="M 2631 2963
Q 2534 3019 2420 3045
Q 2306 3072 2169 3072
Q 1681 3072 1420 2755
Q 1159 2438 1159 1844
L 1159 0
L 581 0
L 581 3500
L 1159 3500
L 1159 2956
Q 1341 3275 1631 3429
Q 1922 3584 2338 3584
Q 2397 3584 2469 3576
Q 2541 3569 2628 3553
L 2631 2963
z
" transform="scale(0.015625)"/>
      <path id="DejaVuSans-57" d="M 1172 4494
L 1172 3500
L 2356 3500
L 2356 3053
L 1172 3053
L 1172 1153
Q 1172 725 1289 603
Q 1406 481 1766 481
L 2356 481
L 2356 0
L 1766 0
Q 1100 0 847 248
Q 594 497 594 1153
L 594 3053
L 172 3053
L 172 3500
L 594 3500
L 594 4494
L 1172 4494
z
" transform="scale(0.015625)"/>
      <path id="DejaVuSans-51" d="M 3513 2113
L 3513 0
L 2938 0
L 2938 2094
Q 2938 2591 2744 2837
Q 2550 3084 2163 3084
Q 1697 3084 1428 2787
Q 1159 2491 1159 1978
L 1159 0
L 581 0
L 581 3500
L 1159 3500
L 1159 2956
Q 1366 3272 1645 3428
Q 1925 3584 2291 3584
Q 2894 3584 3203 3211
Q 3513 2838 3513 2113
z
" transform="scale(0.015625)"/>
      <path id="DejaVuSans-f" d="M 750 794
L 1409 794
L 1409 256
L 897 -744
L 494 -744
L 750 256
L 750 794
z
" transform="scale(0.015625)"/>
      <path id="DejaVuSans-13af" d="M 3431 3500
L 3431 0
L 2853 0
L 2853 3053
L 1275 3053
L 1275 0
L 697 0
L 697 3053
L 147 3053
L 147 3500
L 697 3500
L 697 3744
Q 697 4316 967 4589
Q 1238 4863 1797 4863
L 2375 4863
L 2375 4384
L 1825 4384
Q 1516 4384 1395 4259
Q 1275 4134 1275 3809
L 1275 3500
L 3431 3500
z
M 2853 4856
L 3431 4856
L 3431 4128
L 2853 4128
L 2853 4856
z
" transform="scale(0.015625)"/>
      <path id="DejaVuSans-10" d="M 313 2009
L 1997 2009
L 1997 1497
L 313 1497
L 313 2009
z
" transform="scale(0.015625)"/>
      <path id="DejaVuSans-48" d="M 3597 1894
L 3597 1613
L 953 1613
Q 991 1019 1311 708
Q 1631 397 2203 397
Q 2534 397 2845 478
Q 3156 559 3463 722
L 3463 178
Q 3153 47 2828 -22
Q 2503 -91 2169 -91
Q 1331 -91 842 396
Q 353 884 353 1716
Q 353 2575 817 3079
Q 1281 3584 2069 3584
Q 2775 3584 3186 3129
Q 3597 2675 3597 1894
z
M 3022 2063
Q 3016 2534 2758 2815
Q 2500 3097 2075 3097
Q 1594 3097 1305 2825
Q 1016 2553 972 2059
L 3022 2063
z
" transform="scale(0.015625)"/>
      <path id="DejaVuSans-56" d="M 2834 3397
L 2834 2853
Q 2591 2978 2328 3040
Q 2066 3103 1784 3103
Q 1356 3103 1142 2972
Q 928 2841 928 2578
Q 928 2378 1081 2264
Q 1234 2150 1697 2047
L 1894 2003
Q 2506 1872 2764 1633
Q 3022 1394 3022 966
Q 3022 478 2636 193
Q 2250 -91 1575 -91
Q 1294 -91 989 -36
Q 684 19 347 128
L 347 722
Q 666 556 975 473
Q 1284 391 1588 391
Q 1994 391 2212 530
Q 2431 669 2431 922
Q 2431 1156 2273 1281
Q 2116 1406 1581 1522
L 1381 1569
Q 847 1681 609 1914
Q 372 2147 372 2553
Q 372 3047 722 3315
Q 1072 3584 1716 3584
Q 2034 3584 2315 3537
Q 2597 3491 2834 3397
z
" transform="scale(0.015625)"/>
      <path id="DejaVuSans-4b" d="M 3513 2113
L 3513 0
L 2938 0
L 2938 2094
Q 2938 2591 2744 2837
Q 2550 3084 2163 3084
Q 1697 3084 1428 2787
Q 1159 2491 1159 1978
L 1159 0
L 581 0
L 581 4863
L 1159 4863
L 1159 2956
Q 1366 3272 1645 3428
Q 1925 3584 2291 3584
Q 2894 3584 3203 3211
Q 3513 2838 3513 2113
z
" transform="scale(0.015625)"/>
      <path id="DejaVuSans-47" d="M 2906 2969
L 2906 4863
L 3481 4863
L 3481 0
L 2906 0
L 2906 525
Q 2725 213 2448 61
Q 2172 -91 1784 -91
Q 1150 -91 751 415
Q 353 922 353 1747
Q 353 2572 751 3078
Q 1150 3584 1784 3584
Q 2172 3584 2448 3432
Q 2725 3281 2906 2969
z
M 947 1747
Q 947 1113 1208 752
Q 1469 391 1925 391
Q 2381 391 2643 752
Q 2906 1113 2906 1747
Q 2906 2381 2643 2742
Q 2381 3103 1925 3103
Q 1469 3103 1208 2742
Q 947 2381 947 1747
z
" transform="scale(0.015625)"/>
      <path id="DejaVuSans-5a" d="M 269 3500
L 844 3500
L 1563 769
L 2278 3500
L 2956 3500
L 3675 769
L 4391 3500
L 4966 3500
L 4050 0
L 3372 0
L 2619 2869
L 1863 0
L 1184 0
L 269 3500
z
" transform="scale(0.015625)"/>
      <path id="DejaVuSans-50" d="M 3328 2828
Q 3544 3216 3844 3400
Q 4144 3584 4550 3584
Q 5097 3584 5394 3201
Q 5691 2819 5691 2113
L 5691 0
L 5113 0
L 5113 2094
Q 5113 2597 4934 2840
Q 4756 3084 4391 3084
Q 3944 3084 3684 2787
Q 3425 2491 3425 1978
L 3425 0
L 2847 0
L 2847 2094
Q 2847 2600 2669 2842
Q 2491 3084 2119 3084
Q 1678 3084 1418 2786
Q 1159 2488 1159 1978
L 1159 0
L 581 0
L 581 3500
L 1159 3500
L 1159 2956
Q 1356 3278 1631 3431
Q 1906 3584 2284 3584
Q 2666 3584 2933 3390
Q 3200 3197 3328 2828
z
" transform="scale(0.015625)"/>
      <path id="DejaVuSans-53" d="M 1159 525
L 1159 -1331
L 581 -1331
L 581 3500
L 1159 3500
L 1159 2969
Q 1341 3281 1617 3432
Q 1894 3584 2278 3584
Q 2916 3584 3314 3078
Q 3713 2572 3713 1747
Q 3713 922 3314 415
Q 2916 -91 2278 -91
Q 1894 -91 1617 61
Q 1341 213 1159 525
z
M 3116 1747
Q 3116 2381 2855 2742
Q 2594 3103 2138 3103
Q 1681 3103 1420 2742
Q 1159 2381 1159 1747
Q 1159 1113 1420 752
Q 1681 391 2138 391
Q 2594 391 2855 752
Q 3116 1113 3116 1747
z
" transform="scale(0.015625)"/>
      <path id="DejaVuSans-34" d="M 2522 4238
Q 1834 4238 1429 3725
Q 1025 3213 1025 2328
Q 1025 1447 1429 934
Q 1834 422 2522 422
Q 3209 422 3611 934
Q 4013 1447 4013 2328
Q 4013 3213 3611 3725
Q 3209 4238 2522 4238
z
M 3406 84
L 4238 -825
L 3475 -825
L 2784 -78
Q 2681 -84 2626 -87
Q 2572 -91 2522 -91
Q 1538 -91 948 567
Q 359 1225 359 2328
Q 359 3434 948 4092
Q 1538 4750 2522 4750
Q 3503 4750 4090 4092
Q 4678 3434 4678 2328
Q 4678 1516 4351 937
Q 4025 359 3406 84
z
" transform="scale(0.015625)"/>
      <path id="DejaVuSans-30" d="M 628 4666
L 1569 4666
L 2759 1491
L 3956 4666
L 4897 4666
L 4897 0
L 4281 0
L 4281 4097
L 3078 897
L 2444 897
L 1241 4097
L 1241 0
L 628 0
L 628 4666
z
" transform="scale(0.015625)"/>
      <path id="DejaVuSans-2f" d="M 628 4666
L 1259 4666
L 1259 531
L 3531 531
L 3531 0
L 628 0
L 628 4666
z
" transform="scale(0.015625)"/>
      <path id="DejaVuSans-59" d="M 191 3500
L 800 3500
L 1894 563
L 2988 3500
L 3597 3500
L 2284 0
L 1503 0
L 191 3500
z
" transform="scale(0.015625)"/>
      <path id="DejaVuSans-54" d="M 947 1747
Q 947 1113 1208 752
Q 1469 391 1925 391
Q 2381 391 2643 752
Q 2906 1113 2906 1747
Q 2906 2381 2643 2742
Q 2381 3103 1925 3103
Q 1469 3103 1208 2742
Q 947 2381 947 1747
z
M 2906 525
Q 2725 213 2448 61
Q 2172 -91 1784 -91
Q 1150 -91 751 415
Q 353 922 353 1747
Q 353 2572 751 3078
Q 1150 3584 1784 3584
Q 2172 3584 2448 3432
Q 2725 3281 2906 2969
L 2906 3500
L 3481 3500
L 3481 -1331
L 2906 -1331
L 2906 525
z
" transform="scale(0.015625)"/>
      <path id="DejaVuSans-58" d="M 544 1381
L 544 3500
L 1119 3500
L 1119 1403
Q 1119 906 1312 657
Q 1506 409 1894 409
Q 2359 409 2629 706
Q 2900 1003 2900 1516
L 2900 3500
L 3475 3500
L 3475 0
L 2900 0
L 2900 538
Q 2691 219 2414 64
Q 2138 -91 1772 -91
Q 1169 -91 856 284
Q 544 659 544 1381
z
M 1991 3584
L 1991 3584
z
" transform="scale(0.015625)"/>
      <path id="DejaVuSans-4a" d="M 2906 1791
Q 2906 2416 2648 2759
Q 2391 3103 1925 3103
Q 1463 3103 1205 2759
Q 947 2416 947 1791
Q 947 1169 1205 825
Q 1463 481 1925 481
Q 2391 481 2648 825
Q 2906 1169 2906 1791
z
M 3481 434
Q 3481 -459 3084 -895
Q 2688 -1331 1869 -1331
Q 1566 -1331 1297 -1286
Q 1028 -1241 775 -1147
L 775 -588
Q 1028 -725 1275 -790
Q 1522 -856 1778 -856
Q 2344 -856 2625 -561
Q 2906 -266 2906 331
L 2906 616
Q 2728 306 2450 153
Q 2172 0 1784 0
Q 1141 0 747 490
Q 353 981 353 1791
Q 353 2603 747 3093
Q 1141 3584 1784 3584
Q 2172 3584 2450 3431
Q 2728 3278 2906 2969
L 2906 3500
L 3481 3500
L 3481 434
z
" transform="scale(0.015625)"/>
      <path id="DejaVuSans-2a" d="M 3809 666
L 3809 1919
L 2778 1919
L 2778 2438
L 4434 2438
L 4434 434
Q 4069 175 3628 42
Q 3188 -91 2688 -91
Q 1594 -91 976 548
Q 359 1188 359 2328
Q 359 3472 976 4111
Q 1594 4750 2688 4750
Q 3144 4750 3555 4637
Q 3966 4525 4313 4306
L 4313 3634
Q 3963 3931 3569 4081
Q 3175 4231 2741 4231
Q 1884 4231 1454 3753
Q 1025 3275 1025 2328
Q 1025 1384 1454 906
Q 1884 428 2741 428
Q 3075 428 3337 486
Q 3600 544 3809 666
z
" transform="scale(0.015625)"/>
      <path id="DejaVuSans-19" d="M 2113 2584
Q 1688 2584 1439 2293
Q 1191 2003 1191 1497
Q 1191 994 1439 701
Q 1688 409 2113 409
Q 2538 409 2786 701
Q 3034 994 3034 1497
Q 3034 2003 2786 2293
Q 2538 2584 2113 2584
z
M 3366 4563
L 3366 3988
Q 3128 4100 2886 4159
Q 2644 4219 2406 4219
Q 1781 4219 1451 3797
Q 1122 3375 1075 2522
Q 1259 2794 1537 2939
Q 1816 3084 2150 3084
Q 2853 3084 3261 2657
Q 3669 2231 3669 1497
Q 3669 778 3244 343
Q 2819 -91 2113 -91
Q 1303 -91 875 529
Q 447 1150 447 2328
Q 447 3434 972 4092
Q 1497 4750 2381 4750
Q 2619 4750 2861 4703
Q 3103 4656 3366 4563
z
" transform="scale(0.015625)"/>
      <path id="DejaVuSans-5c" d="M 2059 -325
Q 1816 -950 1584 -1140
Q 1353 -1331 966 -1331
L 506 -1331
L 506 -850
L 844 -850
Q 1081 -850 1212 -737
Q 1344 -625 1503 -206
L 1606 56
L 191 3500
L 800 3500
L 1894 763
L 2988 3500
L 3597 3500
L 2059 -325
z
" transform="scale(0.015625)"/>
      <path id="DejaVuSans-49" d="M 2375 4863
L 2375 4384
L 1825 4384
Q 1516 4384 1395 4259
Q 1275 4134 1275 3809
L 1275 3500
L 2222 3500
L 2222 3053
L 1275 3053
L 1275 0
L 697 0
L 697 3053
L 147 3053
L 147 3500
L 697 3500
L 697 3744
Q 697 4328 969 4595
Q 1241 4863 1831 4863
L 2375 4863
z
" transform="scale(0.015625)"/>
      <path id="DejaVuSans-27" d="M 1259 4147
L 1259 519
L 2022 519
Q 2988 519 3436 956
Q 3884 1394 3884 2338
Q 3884 3275 3436 3711
Q 2988 4147 2022 4147
L 1259 4147
z
M 628 4666
L 1925 4666
Q 3281 4666 3915 4102
Q 4550 3538 4550 2338
Q 4550 1131 3912 565
Q 3275 0 1925 0
L 628 0
L 628 4666
z
" transform="scale(0.015625)"/>
      <path id="DejaVuSans-13" d="M 2034 4250
Q 1547 4250 1301 3770
Q 1056 3291 1056 2328
Q 1056 1369 1301 889
Q 1547 409 2034 409
Q 2525 409 2770 889
Q 3016 1369 3016 2328
Q 3016 3291 2770 3770
Q 2525 4250 2034 4250
z
M 2034 4750
Q 2819 4750 3233 4129
Q 3647 3509 3647 2328
Q 3647 1150 3233 529
Q 2819 -91 2034 -91
Q 1250 -91 836 529
Q 422 1150 422 2328
Q 422 3509 836 4129
Q 1250 4750 2034 4750
z
" transform="scale(0.015625)"/>
      <path id="DejaVuSans-14" d="M 794 531
L 1825 531
L 1825 4091
L 703 3866
L 703 4441
L 1819 4666
L 2450 4666
L 2450 531
L 3481 531
L 3481 0
L 794 0
L 794 531
z
" transform="scale(0.015625)"/>
      <path id="DejaVuSans-1a" d="M 525 4666
L 3525 4666
L 3525 4397
L 1831 0
L 1172 0
L 2766 4134
L 525 4134
L 525 4666
z
" transform="scale(0.015625)"/>
      <path id="DejaVuSans-26" d="M 4122 4306
L 4122 3641
Q 3803 3938 3442 4084
Q 3081 4231 2675 4231
Q 1875 4231 1450 3742
Q 1025 3253 1025 2328
Q 1025 1406 1450 917
Q 1875 428 2675 428
Q 3081 428 3442 575
Q 3803 722 4122 1019
L 4122 359
Q 3791 134 3420 21
Q 3050 -91 2638 -91
Q 1578 -91 968 557
Q 359 1206 359 2328
Q 359 3453 968 4101
Q 1578 4750 2638 4750
Q 3056 4750 3426 4639
Q 3797 4528 4122 4306
z
" transform="scale(0.015625)"/>
      <path id="DejaVuSans-11" d="M 684 794
L 1344 794
L 1344 0
L 684 0
L 684 794
z
" transform="scale(0.015625)"/>
     </defs>
     <use xlink:href="#DejaVuSans-31"/>
     <use xlink:href="#DejaVuSans-52" transform="translate(74.8125 0)"/>
     <use xlink:href="#DejaVuSans-3" transform="translate(136 0)"/>
     <use xlink:href="#DejaVuSans-46" transform="translate(167.78125 0)"/>
     <use xlink:href="#DejaVuSans-44" transform="translate(222.765625 0)"/>
     <use xlink:href="#DejaVuSans-4f" transform="translate(284.046875 0)"/>
     <use xlink:href="#DejaVuSans-4c" transform="translate(311.828125 0)"/>
     <use xlink:href="#DejaVuSans-45" transform="translate(339.609375 0)"/>
     <use xlink:href="#DejaVuSans-55" transform="translate(403.09375 0)"/>
     <use xlink:href="#DejaVuSans-44" transform="translate(444.203125 0)"/>
     <use xlink:href="#DejaVuSans-57" transform="translate(505.484375 0)"/>
     <use xlink:href="#DejaVuSans-4c" transform="translate(544.6875 0)"/>
     <use xlink:href="#DejaVuSans-52" transform="translate(572.46875 0)"/>
     <use xlink:href="#DejaVuSans-51" transform="translate(633.65625 0)"/>
     <use xlink:href="#DejaVuSans-f" transform="translate(697.03125 0)"/>
     <use xlink:href="#DejaVuSans-3" transform="translate(728.8125 0)"/>
     <use xlink:href="#DejaVuSans-13af" transform="translate(760.59375 0)"/>
     <use xlink:href="#DejaVuSans-51" transform="translate(823.578125 0)"/>
     <use xlink:href="#DejaVuSans-44" transform="translate(886.953125 0)"/>
     <use xlink:href="#DejaVuSans-4f" transform="translate(948.234375 0)"/>
     <use xlink:href="#DejaVuSans-10" transform="translate(976.015625 0)"/>
     <use xlink:href="#DejaVuSans-57" transform="translate(1012.09375 0)"/>
     <use xlink:href="#DejaVuSans-48" transform="translate(1051.296875 0)"/>
     <use xlink:href="#DejaVuSans-56" transform="translate(1112.828125 0)"/>
     <use xlink:href="#DejaVuSans-57" transform="translate(1164.921875 0)"/>
     <use xlink:href="#DejaVuSans-f" transform="translate(1204.125 0)"/>
     <use xlink:href="#DejaVuSans-3" transform="translate(1235.90625 0)"/>
     <use xlink:href="#DejaVuSans-4b" transform="translate(1267.6875 0)"/>
     <use xlink:href="#DejaVuSans-44" transform="translate(1331.0625 0)"/>
     <use xlink:href="#DejaVuSans-55" transform="translate(1392.34375 0)"/>
     <use xlink:href="#DejaVuSans-47" transform="translate(1431.703125 0)"/>
     <use xlink:href="#DejaVuSans-5a" transform="translate(1495.1875 0)"/>
     <use xlink:href="#DejaVuSans-44" transform="translate(1576.96875 0)"/>
     <use xlink:href="#DejaVuSans-55" transform="translate(1638.25 0)"/>
     <use xlink:href="#DejaVuSans-48" transform="translate(1677.15625 0)"/>
     <use xlink:href="#DejaVuSans-f" transform="translate(1738.6875 0)"/>
     <use xlink:href="#DejaVuSans-3" transform="translate(1770.46875 0)"/>
     <use xlink:href="#DejaVuSans-50" transform="translate(1802.25 0)"/>
     <use xlink:href="#DejaVuSans-4c" transform="translate(1899.65625 0)"/>
     <use xlink:href="#DejaVuSans-56" transform="translate(1927.4375 0)"/>
     <use xlink:href="#DejaVuSans-56" transform="translate(1979.53125 0)"/>
     <use xlink:href="#DejaVuSans-4c" transform="translate(2031.625 0)"/>
     <use xlink:href="#DejaVuSans-52" transform="translate(2059.40625 0)"/>
     <use xlink:href="#DejaVuSans-51" transform="translate(2120.59375 0)"/>
     <use xlink:href="#DejaVuSans-10" transform="translate(2183.96875 0)"/>
     <use xlink:href="#DejaVuSans-4f" transform="translate(2220.046875 0)"/>
     <use xlink:href="#DejaVuSans-52" transform="translate(2247.828125 0)"/>
     <use xlink:href="#DejaVuSans-52" transform="translate(2309.015625 0)"/>
     <use xlink:href="#DejaVuSans-53" transform="translate(2370.203125 0)"/>
     <use xlink:href="#DejaVuSans-f" transform="translate(2433.6875 0)"/>
     <use xlink:href="#DejaVuSans-3" transform="translate(2465.46875 0)"/>
     <use xlink:href="#DejaVuSans-34" transform="translate(2497.25 0)"/>
     <use xlink:href="#DejaVuSans-30" transform="translate(2575.96875 0)"/>
     <use xlink:href="#DejaVuSans-2f" transform="translate(2662.25 0)"/>
     <use xlink:href="#DejaVuSans-10" transform="translate(2716.21875 0)"/>
     <use xlink:href="#DejaVuSans-4c" transform="translate(2752.296875 0)"/>
     <use xlink:href="#DejaVuSans-51" transform="translate(2780.078125 0)"/>
     <use xlink:href="#DejaVuSans-59" transform="translate(2843.453125 0)"/>
     <use xlink:href="#DejaVuSans-48" transform="translate(2902.640625 0)"/>
     <use xlink:href="#DejaVuSans-51" transform="translate(2964.171875 0)"/>
     <use xlink:href="#DejaVuSans-57" transform="translate(3027.546875 0)"/>
     <use xlink:href="#DejaVuSans-4c" transform="translate(3066.75 0)"/>
     <use xlink:href="#DejaVuSans-52" transform="translate(3094.53125 0)"/>
     <use xlink:href="#DejaVuSans-51" transform="translate(3155.71875 0)"/>
     <use xlink:href="#DejaVuSans-f" transform="translate(3219.09375 0)"/>
     <use xlink:href="#DejaVuSans-3" transform="translate(3250.875 0)"/>
     <use xlink:href="#DejaVuSans-54" transform="translate(3282.65625 0)"/>
     <use xlink:href="#DejaVuSans-58" transform="translate(3346.140625 0)"/>
     <use xlink:href="#DejaVuSans-44" transform="translate(3409.515625 0)"/>
     <use xlink:href="#DejaVuSans-51" transform="translate(3470.796875 0)"/>
     <use xlink:href="#DejaVuSans-57" transform="translate(3534.171875 0)"/>
     <use xlink:href="#DejaVuSans-58" transform="translate(3573.375 0)"/>
     <use xlink:href="#DejaVuSans-50" transform="translate(3636.75 0)"/>
     <use xlink:href="#DejaVuSans-10" transform="translate(3734.15625 0)"/>
     <use xlink:href="#DejaVuSans-44" transform="translate(3770.234375 0)"/>
     <use xlink:href="#DejaVuSans-47" transform="translate(3831.515625 0)"/>
     <use xlink:href="#DejaVuSans-59" transform="translate(3895 0)"/>
     <use xlink:href="#DejaVuSans-44" transform="translate(3954.1875 0)"/>
     <use xlink:href="#DejaVuSans-51" transform="translate(4015.46875 0)"/>
     <use xlink:href="#DejaVuSans-57" transform="translate(4078.84375 0)"/>
     <use xlink:href="#DejaVuSans-44" transform="translate(4118.046875 0)"/>
     <use xlink:href="#DejaVuSans-4a" transform="translate(4179.328125 0)"/>
     <use xlink:href="#DejaVuSans-48" transform="translate(4242.8125 0)"/>
     <use xlink:href="#DejaVuSans-f" transform="translate(4304.34375 0)"/>
     <use xlink:href="#DejaVuSans-3" transform="translate(4336.125 0)"/>
     <use xlink:href="#DejaVuSans-52" transform="translate(4367.90625 0)"/>
     <use xlink:href="#DejaVuSans-55" transform="translate(4429.09375 0)"/>
     <use xlink:href="#DejaVuSans-3" transform="translate(4470.203125 0)"/>
     <use xlink:href="#DejaVuSans-2a" transform="translate(4501.984375 0)"/>
     <use xlink:href="#DejaVuSans-44" transform="translate(4579.46875 0)"/>
     <use xlink:href="#DejaVuSans-57" transform="translate(4640.75 0)"/>
     <use xlink:href="#DejaVuSans-48" transform="translate(4679.953125 0)"/>
     <use xlink:href="#DejaVuSans-3" transform="translate(4741.484375 0)"/>
     <use xlink:href="#DejaVuSans-19" transform="translate(4773.265625 0)"/>
     <use xlink:href="#DejaVuSans-3" transform="translate(4836.890625 0)"/>
     <use xlink:href="#DejaVuSans-44" transform="translate(4868.671875 0)"/>
     <use xlink:href="#DejaVuSans-58" transform="translate(4929.953125 0)"/>
     <use xlink:href="#DejaVuSans-57" transform="translate(4993.328125 0)"/>
     <use xlink:href="#DejaVuSans-4b" transform="translate(5032.53125 0)"/>
     <use xlink:href="#DejaVuSans-52" transform="translate(5095.90625 0)"/>
     <use xlink:href="#DejaVuSans-55" transform="translate(5157.09375 0)"/>
     <use xlink:href="#DejaVuSans-4c" transform="translate(5198.203125 0)"/>
     <use xlink:href="#DejaVuSans-57" transform="translate(5225.984375 0)"/>
     <use xlink:href="#DejaVuSans-5c" transform="translate(5265.1875 0)"/>
     <use xlink:href="#DejaVuSans-3" transform="translate(5324.375 0)"/>
     <use xlink:href="#DejaVuSans-49" transform="translate(5356.15625 0)"/>
     <use xlink:href="#DejaVuSans-52" transform="translate(5391.359375 0)"/>
     <use xlink:href="#DejaVuSans-4f" transform="translate(5452.546875 0)"/>
     <use xlink:href="#DejaVuSans-4f" transform="translate(5480.328125 0)"/>
     <use xlink:href="#DejaVuSans-52" transform="translate(5508.109375 0)"/>
     <use xlink:href="#DejaVuSans-5a" transform="translate(5569.296875 0)"/>
     <use xlink:href="#DejaVuSans-56" transform="translate(5651.078125 0)"/>
     <use xlink:href="#DejaVuSans-3" transform="translate(5703.171875 0)"/>
     <use xlink:href="#DejaVuSans-49" transform="translate(5734.953125 0)"/>
     <use xlink:href="#DejaVuSans-55" transform="translate(5770.15625 0)"/>
     <use xlink:href="#DejaVuSans-52" transform="translate(5809.0625 0)"/>
     <use xlink:href="#DejaVuSans-50" transform="translate(5870.25 0)"/>
     <use xlink:href="#DejaVuSans-3" transform="translate(5967.65625 0)"/>
     <use xlink:href="#DejaVuSans-27" transform="translate(5999.4375 0)"/>
     <use xlink:href="#DejaVuSans-13" transform="translate(6076.4375 0)"/>
     <use xlink:href="#DejaVuSans-14" transform="translate(6140.0625 0)"/>
     <use xlink:href="#DejaVuSans-1a" transform="translate(6203.6875 0)"/>
     <use xlink:href="#DejaVuSans-10" transform="translate(6267.3125 0)"/>
     <use xlink:href="#DejaVuSans-26" transform="translate(6303.390625 0)"/>
     <use xlink:href="#DejaVuSans-11" transform="translate(6373.21875 0)"/>
    </g>
   </g>
   <g id="text_3">
    <!-- CRES -->
    <g style="fill: #17202a" transform="translate(49.05 107.920462) scale(0.11 -0.11)">
     <defs>
      <path id="DejaVuSans-Bold-35" d="M 2297 2597
Q 2675 2597 2839 2737
Q 3003 2878 3003 3200
Q 3003 3519 2839 3656
Q 2675 3794 2297 3794
L 1791 3794
L 1791 2597
L 2297 2597
z
M 1791 1766
L 1791 0
L 588 0
L 588 4666
L 2425 4666
Q 3347 4666 3776 4356
Q 4206 4047 4206 3378
Q 4206 2916 3982 2619
Q 3759 2322 3309 2181
Q 3556 2125 3751 1926
Q 3947 1728 4147 1325
L 4800 0
L 3519 0
L 2950 1159
Q 2778 1509 2601 1637
Q 2425 1766 2131 1766
L 1791 1766
z
" transform="scale(0.015625)"/>
      <path id="DejaVuSans-Bold-28" d="M 588 4666
L 3834 4666
L 3834 3756
L 1791 3756
L 1791 2888
L 3713 2888
L 3713 1978
L 1791 1978
L 1791 909
L 3903 909
L 3903 0
L 588 0
L 588 4666
z
" transform="scale(0.015625)"/>
      <path id="DejaVuSans-Bold-36" d="M 3834 4519
L 3834 3531
Q 3450 3703 3084 3790
Q 2719 3878 2394 3878
Q 1963 3878 1756 3759
Q 1550 3641 1550 3391
Q 1550 3203 1689 3098
Q 1828 2994 2194 2919
L 2706 2816
Q 3484 2659 3812 2340
Q 4141 2022 4141 1434
Q 4141 663 3683 286
Q 3225 -91 2284 -91
Q 1841 -91 1394 -6
Q 947 78 500 244
L 500 1259
Q 947 1022 1364 901
Q 1781 781 2169 781
Q 2563 781 2772 912
Q 2981 1044 2981 1288
Q 2981 1506 2839 1625
Q 2697 1744 2272 1838
L 1806 1941
Q 1106 2091 782 2419
Q 459 2747 459 3303
Q 459 4000 909 4375
Q 1359 4750 2203 4750
Q 2588 4750 2994 4692
Q 3400 4634 3834 4519
z
" transform="scale(0.015625)"/>
     </defs>
     <use xlink:href="#DejaVuSans-Bold-26"/>
     <use xlink:href="#DejaVuSans-Bold-35" transform="translate(73.390625 0)"/>
     <use xlink:href="#DejaVuSans-Bold-28" transform="translate(150.390625 0)"/>
     <use xlink:href="#DejaVuSans-Bold-36" transform="translate(218.703125 0)"/>
    </g>
   </g>
   <g id="text_4">
    <!-- Best model: ridge_residual -->
    <g style="fill: #17202a" transform="translate(49.05 127.659959) scale(0.083 -0.083)">
     <defs>
      <path id="DejaVuSans-25" d="M 1259 2228
L 1259 519
L 2272 519
Q 2781 519 3026 730
Q 3272 941 3272 1375
Q 3272 1813 3026 2020
Q 2781 2228 2272 2228
L 1259 2228
z
M 1259 4147
L 1259 2741
L 2194 2741
Q 2656 2741 2882 2914
Q 3109 3088 3109 3444
Q 3109 3797 2882 3972
Q 2656 4147 2194 4147
L 1259 4147
z
M 628 4666
L 2241 4666
Q 2963 4666 3353 4366
Q 3744 4066 3744 3513
Q 3744 3084 3544 2831
Q 3344 2578 2956 2516
Q 3422 2416 3680 2098
Q 3938 1781 3938 1306
Q 3938 681 3513 340
Q 3088 0 2303 0
L 628 0
L 628 4666
z
" transform="scale(0.015625)"/>
      <path id="DejaVuSans-1d" d="M 750 794
L 1409 794
L 1409 0
L 750 0
L 750 794
z
M 750 3309
L 1409 3309
L 1409 2516
L 750 2516
L 750 3309
z
" transform="scale(0.015625)"/>
      <path id="DejaVuSans-42" d="M 3263 -1063
L 3263 -1509
L -63 -1509
L -63 -1063
L 3263 -1063
z
" transform="scale(0.015625)"/>
     </defs>
     <use xlink:href="#DejaVuSans-25"/>
     <use xlink:href="#DejaVuSans-48" transform="translate(68.609375 0)"/>
     <use xlink:href="#DejaVuSans-56" transform="translate(130.140625 0)"/>
     <use xlink:href="#DejaVuSans-57" transform="translate(182.234375 0)"/>
     <use xlink:href="#DejaVuSans-3" transform="translate(221.4375 0)"/>
     <use xlink:href="#DejaVuSans-50" transform="translate(253.21875 0)"/>
     <use xlink:href="#DejaVuSans-52" transform="translate(350.625 0)"/>
     <use xlink:href="#DejaVuSans-47" transform="translate(411.8125 0)"/>
     <use xlink:href="#DejaVuSans-48" transform="translate(475.296875 0)"/>
     <use xlink:href="#DejaVuSans-4f" transform="translate(536.828125 0)"/>
     <use xlink:href="#DejaVuSans-1d" transform="translate(564.609375 0)"/>
     <use xlink:href="#DejaVuSans-3" transform="translate(598.296875 0)"/>
     <use xlink:href="#DejaVuSans-55" transform="translate(630.078125 0)"/>
     <use xlink:href="#DejaVuSans-4c" transform="translate(671.1875 0)"/>
     <use xlink:href="#DejaVuSans-47" transform="translate(698.96875 0)"/>
     <use xlink:href="#DejaVuSans-4a" transform="translate(762.453125 0)"/>
     <use xlink:href="#DejaVuSans-48" transform="translate(825.9375 0)"/>
     <use xlink:href="#DejaVuSans-42" transform="translate(887.46875 0)"/>
     <use xlink:href="#DejaVuSans-55" transform="translate(937.46875 0)"/>
     <use xlink:href="#DejaVuSans-48" transform="translate(976.375 0)"/>
     <use xlink:href="#DejaVuSans-56" transform="translate(1037.90625 0)"/>
     <use xlink:href="#DejaVuSans-4c" transform="translate(1090 0)"/>
     <use xlink:href="#DejaVuSans-47" transform="translate(1117.78125 0)"/>
     <use xlink:href="#DejaVuSans-58" transform="translate(1181.265625 0)"/>
     <use xlink:href="#DejaVuSans-44" transform="translate(1244.640625 0)"/>
     <use xlink:href="#DejaVuSans-4f" transform="translate(1305.921875 0)"/>
    </g>
    <!-- Mean residual NRMSE: 0.8265 -->
    <g style="fill: #17202a" transform="translate(49.05 138.954444) scale(0.083 -0.083)">
     <defs>
      <path id="DejaVuSans-35" d="M 2841 2188
Q 3044 2119 3236 1894
Q 3428 1669 3622 1275
L 4263 0
L 3584 0
L 2988 1197
Q 2756 1666 2539 1819
Q 2322 1972 1947 1972
L 1259 1972
L 1259 0
L 628 0
L 628 4666
L 2053 4666
Q 2853 4666 3247 4331
Q 3641 3997 3641 3322
Q 3641 2881 3436 2590
Q 3231 2300 2841 2188
z
M 1259 4147
L 1259 2491
L 2053 2491
Q 2509 2491 2742 2702
Q 2975 2913 2975 3322
Q 2975 3731 2742 3939
Q 2509 4147 2053 4147
L 1259 4147
z
" transform="scale(0.015625)"/>
      <path id="DejaVuSans-36" d="M 3425 4513
L 3425 3897
Q 3066 4069 2747 4153
Q 2428 4238 2131 4238
Q 1616 4238 1336 4038
Q 1056 3838 1056 3469
Q 1056 3159 1242 3001
Q 1428 2844 1947 2747
L 2328 2669
Q 3034 2534 3370 2195
Q 3706 1856 3706 1288
Q 3706 609 3251 259
Q 2797 -91 1919 -91
Q 1588 -91 1214 -16
Q 841 59 441 206
L 441 856
Q 825 641 1194 531
Q 1563 422 1919 422
Q 2459 422 2753 634
Q 3047 847 3047 1241
Q 3047 1584 2836 1778
Q 2625 1972 2144 2069
L 1759 2144
Q 1053 2284 737 2584
Q 422 2884 422 3419
Q 422 4038 858 4394
Q 1294 4750 2059 4750
Q 2388 4750 2728 4690
Q 3069 4631 3425 4513
z
" transform="scale(0.015625)"/>
      <path id="DejaVuSans-28" d="M 628 4666
L 3578 4666
L 3578 4134
L 1259 4134
L 1259 2753
L 3481 2753
L 3481 2222
L 1259 2222
L 1259 531
L 3634 531
L 3634 0
L 628 0
L 628 4666
z
" transform="scale(0.015625)"/>
      <path id="DejaVuSans-1b" d="M 2034 2216
Q 1584 2216 1326 1975
Q 1069 1734 1069 1313
Q 1069 891 1326 650
Q 1584 409 2034 409
Q 2484 409 2743 651
Q 3003 894 3003 1313
Q 3003 1734 2745 1975
Q 2488 2216 2034 2216
z
M 1403 2484
Q 997 2584 770 2862
Q 544 3141 544 3541
Q 544 4100 942 4425
Q 1341 4750 2034 4750
Q 2731 4750 3128 4425
Q 3525 4100 3525 3541
Q 3525 3141 3298 2862
Q 3072 2584 2669 2484
Q 3125 2378 3379 2068
Q 3634 1759 3634 1313
Q 3634 634 3220 271
Q 2806 -91 2034 -91
Q 1263 -91 848 271
Q 434 634 434 1313
Q 434 1759 690 2068
Q 947 2378 1403 2484
z
M 1172 3481
Q 1172 3119 1398 2916
Q 1625 2713 2034 2713
Q 2441 2713 2670 2916
Q 2900 3119 2900 3481
Q 2900 3844 2670 4047
Q 2441 4250 2034 4250
Q 1625 4250 1398 4047
Q 1172 3844 1172 3481
z
" transform="scale(0.015625)"/>
      <path id="DejaVuSans-15" d="M 1228 531
L 3431 531
L 3431 0
L 469 0
L 469 531
Q 828 903 1448 1529
Q 2069 2156 2228 2338
Q 2531 2678 2651 2914
Q 2772 3150 2772 3378
Q 2772 3750 2511 3984
Q 2250 4219 1831 4219
Q 1534 4219 1204 4116
Q 875 4013 500 3803
L 500 4441
Q 881 4594 1212 4672
Q 1544 4750 1819 4750
Q 2544 4750 2975 4387
Q 3406 4025 3406 3419
Q 3406 3131 3298 2873
Q 3191 2616 2906 2266
Q 2828 2175 2409 1742
Q 1991 1309 1228 531
z
" transform="scale(0.015625)"/>
      <path id="DejaVuSans-18" d="M 691 4666
L 3169 4666
L 3169 4134
L 1269 4134
L 1269 2991
Q 1406 3038 1543 3061
Q 1681 3084 1819 3084
Q 2600 3084 3056 2656
Q 3513 2228 3513 1497
Q 3513 744 3044 326
Q 2575 -91 1722 -91
Q 1428 -91 1123 -41
Q 819 9 494 109
L 494 744
Q 775 591 1075 516
Q 1375 441 1709 441
Q 2250 441 2565 725
Q 2881 1009 2881 1497
Q 2881 1984 2565 2268
Q 2250 2553 1709 2553
Q 1456 2553 1204 2497
Q 953 2441 691 2322
L 691 4666
z
" transform="scale(0.015625)"/>
     </defs>
     <use xlink:href="#DejaVuSans-30"/>
     <use xlink:href="#DejaVuSans-48" transform="translate(86.28125 0)"/>
     <use xlink:href="#DejaVuSans-44" transform="translate(147.8125 0)"/>
     <use xlink:href="#DejaVuSans-51" transform="translate(209.09375 0)"/>
     <use xlink:href="#DejaVuSans-3" transform="translate(272.46875 0)"/>
     <use xlink:href="#DejaVuSans-55" transform="translate(304.25 0)"/>
     <use xlink:href="#DejaVuSans-48" transform="translate(343.15625 0)"/>
     <use xlink:href="#DejaVuSans-56" transform="translate(404.6875 0)"/>
     <use xlink:href="#DejaVuSans-4c" transform="translate(456.78125 0)"/>
     <use xlink:href="#DejaVuSans-47" transform="translate(484.5625 0)"/>
     <use xlink:href="#DejaVuSans-58" transform="translate(548.046875 0)"/>
     <use xlink:href="#DejaVuSans-44" transform="translate(611.421875 0)"/>
     <use xlink:href="#DejaVuSans-4f" transform="translate(672.703125 0)"/>
     <use xlink:href="#DejaVuSans-3" transform="translate(700.484375 0)"/>
     <use xlink:href="#DejaVuSans-31" transform="translate(732.265625 0)"/>
     <use xlink:href="#DejaVuSans-35" transform="translate(807.078125 0)"/>
     <use xlink:href="#DejaVuSans-30" transform="translate(876.5625 0)"/>
     <use xlink:href="#DejaVuSans-36" transform="translate(962.84375 0)"/>
     <use xlink:href="#DejaVuSans-28" transform="translate(1026.328125 0)"/>
     <use xlink:href="#DejaVuSans-1d" transform="translate(1089.515625 0)"/>
     <use xlink:href="#DejaVuSans-3" transform="translate(1123.203125 0)"/>
     <use xlink:href="#DejaVuSans-13" transform="translate(1154.984375 0)"/>
     <use xlink:href="#DejaVuSans-11" transform="translate(1218.609375 0)"/>
     <use xlink:href="#DejaVuSans-1b" transform="translate(1250.390625 0)"/>
     <use xlink:href="#DejaVuSans-15" transform="translate(1314.015625 0)"/>
     <use xlink:href="#DejaVuSans-19" transform="translate(1377.640625 0)"/>
     <use xlink:href="#DejaVuSans-18" transform="translate(1441.265625 0)"/>
    </g>
    <!--  -->
    <g style="fill: #17202a" transform="translate(49.05 146.2351) scale(0.083 -0.083)"/>
    <!-- Interpretation: useful baseline only, -->
    <g style="fill: #17202a" transform="translate(49.05 158.900381) scale(0.083 -0.083)">
     <defs>
      <path id="DejaVuSans-2c" d="M 628 4666
L 1259 4666
L 1259 0
L 628 0
L 628 4666
z
" transform="scale(0.015625)"/>
     </defs>
     <use xlink:href="#DejaVuSans-2c"/>
     <use xlink:href="#DejaVuSans-51" transform="translate(29.5 0)"/>
     <use xlink:href="#DejaVuSans-57" transform="translate(92.875 0)"/>
     <use xlink:href="#DejaVuSans-48" transform="translate(132.078125 0)"/>
     <use xlink:href="#DejaVuSans-55" transform="translate(193.609375 0)"/>
     <use xlink:href="#DejaVuSans-53" transform="translate(234.71875 0)"/>
     <use xlink:href="#DejaVuSans-55" transform="translate(298.203125 0)"/>
     <use xlink:href="#DejaVuSans-48" transform="translate(337.109375 0)"/>
     <use xlink:href="#DejaVuSans-57" transform="translate(398.640625 0)"/>
     <use xlink:href="#DejaVuSans-44" transform="translate(437.84375 0)"/>
     <use xlink:href="#DejaVuSans-57" transform="translate(499.125 0)"/>
     <use xlink:href="#DejaVuSans-4c" transform="translate(538.328125 0)"/>
     <use xlink:href="#DejaVuSans-52" transform="translate(566.109375 0)"/>
     <use xlink:href="#DejaVuSans-51" transform="translate(627.296875 0)"/>
     <use xlink:href="#DejaVuSans-1d" transform="translate(690.671875 0)"/>
     <use xlink:href="#DejaVuSans-3" transform="translate(724.359375 0)"/>
     <use xlink:href="#DejaVuSans-58" transform="translate(756.140625 0)"/>
     <use xlink:href="#DejaVuSans-56" transform="translate(819.515625 0)"/>
     <use xlink:href="#DejaVuSans-48" transform="translate(871.609375 0)"/>
     <use xlink:href="#DejaVuSans-49" transform="translate(933.140625 0)"/>
     <use xlink:href="#DejaVuSans-58" transform="translate(968.34375 0)"/>
     <use xlink:href="#DejaVuSans-4f" transform="translate(1031.71875 0)"/>
     <use xlink:href="#DejaVuSans-3" transform="translate(1059.5 0)"/>
     <use xlink:href="#DejaVuSans-45" transform="translate(1091.28125 0)"/>
     <use xlink:href="#DejaVuSans-44" transform="translate(1154.765625 0)"/>
     <use xlink:href="#DejaVuSans-56" transform="translate(1216.046875 0)"/>
     <use xlink:href="#DejaVuSans-48" transform="translate(1268.140625 0)"/>
     <use xlink:href="#DejaVuSans-4f" transform="translate(1329.671875 0)"/>
     <use xlink:href="#DejaVuSans-4c" transform="translate(1357.453125 0)"/>
     <use xlink:href="#DejaVuSans-51" transform="translate(1385.234375 0)"/>
     <use xlink:href="#DejaVuSans-48" transform="translate(1448.609375 0)"/>
     <use xlink:href="#DejaVuSans-3" transform="translate(1510.140625 0)"/>
     <use xlink:href="#DejaVuSans-52" transform="translate(1541.921875 0)"/>
     <use xlink:href="#DejaVuSans-51" transform="translate(1603.109375 0)"/>
     <use xlink:href="#DejaVuSans-4f" transform="translate(1666.484375 0)"/>
     <use xlink:href="#DejaVuSans-5c" transform="translate(1694.265625 0)"/>
     <use xlink:href="#DejaVuSans-f" transform="translate(1753.453125 0)"/>
    </g>
    <!-- not a qualifying result. -->
    <g style="fill: #17202a" transform="translate(49.05 169.275381) scale(0.083 -0.083)">
     <use xlink:href="#DejaVuSans-51"/>
     <use xlink:href="#DejaVuSans-52" transform="translate(63.375 0)"/>
     <use xlink:href="#DejaVuSans-57" transform="translate(124.5625 0)"/>
     <use xlink:href="#DejaVuSans-3" transform="translate(163.765625 0)"/>
     <use xlink:href="#DejaVuSans-44" transform="translate(195.546875 0)"/>
     <use xlink:href="#DejaVuSans-3" transform="translate(256.828125 0)"/>
     <use xlink:href="#DejaVuSans-54" transform="translate(288.609375 0)"/>
     <use xlink:href="#DejaVuSans-58" transform="translate(352.09375 0)"/>
     <use xlink:href="#DejaVuSans-44" transform="translate(415.46875 0)"/>
     <use xlink:href="#DejaVuSans-4f" transform="translate(476.75 0)"/>
     <use xlink:href="#DejaVuSans-4c" transform="translate(504.53125 0)"/>
     <use xlink:href="#DejaVuSans-49" transform="translate(532.3125 0)"/>
     <use xlink:href="#DejaVuSans-5c" transform="translate(565.765625 0)"/>
     <use xlink:href="#DejaVuSans-4c" transform="translate(624.953125 0)"/>
     <use xlink:href="#DejaVuSans-51" transform="translate(652.734375 0)"/>
     <use xlink:href="#DejaVuSans-4a" transform="translate(716.109375 0)"/>
     <use xlink:href="#DejaVuSans-3" transform="translate(779.59375 0)"/>
     <use xlink:href="#DejaVuSans-55" transform="translate(811.375 0)"/>
     <use xlink:href="#DejaVuSans-48" transform="translate(850.28125 0)"/>
     <use xlink:href="#DejaVuSans-56" transform="translate(911.8125 0)"/>
     <use xlink:href="#DejaVuSans-58" transform="translate(963.90625 0)"/>
     <use xlink:href="#DejaVuSans-4f" transform="translate(1027.28125 0)"/>
     <use xlink:href="#DejaVuSans-57" transform="translate(1055.0625 0)"/>
     <use xlink:href="#DejaVuSans-11" transform="translate(1094.265625 0)"/>
    </g>
   </g>
   <g id="text_5">
    <!-- CSAFE -->
    <g style="fill: #17202a" transform="translate(279.225 107.920462) scale(0.11 -0.11)">
     <defs>
      <path id="DejaVuSans-Bold-24" d="M 3419 850
L 1538 850
L 1241 0
L 31 0
L 1759 4666
L 3194 4666
L 4922 0
L 3713 0
L 3419 850
z
M 1838 1716
L 3116 1716
L 2478 3572
L 1838 1716
z
" transform="scale(0.015625)"/>
      <path id="DejaVuSans-Bold-29" d="M 588 4666
L 3834 4666
L 3834 3756
L 1791 3756
L 1791 2888
L 3713 2888
L 3713 1978
L 1791 1978
L 1791 0
L 588 0
L 588 4666
z
" transform="scale(0.015625)"/>
     </defs>
     <use xlink:href="#DejaVuSans-Bold-26"/>
     <use xlink:href="#DejaVuSans-Bold-36" transform="translate(75.25 0)"/>
     <use xlink:href="#DejaVuSans-Bold-24" transform="translate(147.265625 0)"/>
     <use xlink:href="#DejaVuSans-Bold-29" transform="translate(224.65625 0)"/>
     <use xlink:href="#DejaVuSans-Bold-28" transform="translate(292.96875 0)"/>
    </g>
   </g>
   <g id="text_6">
    <!-- Best Brier: 0.1311 -->
    <g style="fill: #17202a" transform="translate(279.225 128.579444) scale(0.083 -0.083)">
     <defs>
      <path id="DejaVuSans-16" d="M 2597 2516
Q 3050 2419 3304 2112
Q 3559 1806 3559 1356
Q 3559 666 3084 287
Q 2609 -91 1734 -91
Q 1441 -91 1130 -33
Q 819 25 488 141
L 488 750
Q 750 597 1062 519
Q 1375 441 1716 441
Q 2309 441 2620 675
Q 2931 909 2931 1356
Q 2931 1769 2642 2001
Q 2353 2234 1838 2234
L 1294 2234
L 1294 2753
L 1863 2753
Q 2328 2753 2575 2939
Q 2822 3125 2822 3475
Q 2822 3834 2567 4026
Q 2313 4219 1838 4219
Q 1578 4219 1281 4162
Q 984 4106 628 3988
L 628 4550
Q 988 4650 1302 4700
Q 1616 4750 1894 4750
Q 2613 4750 3031 4423
Q 3450 4097 3450 3541
Q 3450 3153 3228 2886
Q 3006 2619 2597 2516
z
" transform="scale(0.015625)"/>
     </defs>
     <use xlink:href="#DejaVuSans-25"/>
     <use xlink:href="#DejaVuSans-48" transform="translate(68.609375 0)"/>
     <use xlink:href="#DejaVuSans-56" transform="translate(130.140625 0)"/>
     <use xlink:href="#DejaVuSans-57" transform="translate(182.234375 0)"/>
     <use xlink:href="#DejaVuSans-3" transform="translate(221.4375 0)"/>
     <use xlink:href="#DejaVuSans-25" transform="translate(253.21875 0)"/>
     <use xlink:href="#DejaVuSans-55" transform="translate(321.828125 0)"/>
     <use xlink:href="#DejaVuSans-4c" transform="translate(362.9375 0)"/>
     <use xlink:href="#DejaVuSans-48" transform="translate(390.71875 0)"/>
     <use xlink:href="#DejaVuSans-55" transform="translate(452.25 0)"/>
     <use xlink:href="#DejaVuSans-1d" transform="translate(491.609375 0)"/>
     <use xlink:href="#DejaVuSans-3" transform="translate(525.296875 0)"/>
     <use xlink:href="#DejaVuSans-13" transform="translate(557.078125 0)"/>
     <use xlink:href="#DejaVuSans-11" transform="translate(620.703125 0)"/>
     <use xlink:href="#DejaVuSans-14" transform="translate(652.484375 0)"/>
     <use xlink:href="#DejaVuSans-16" transform="translate(716.109375 0)"/>
     <use xlink:href="#DejaVuSans-14" transform="translate(779.734375 0)"/>
     <use xlink:href="#DejaVuSans-14" transform="translate(843.359375 0)"/>
    </g>
    <!-- Mean recall: 0.0139 -->
    <g style="fill: #17202a" transform="translate(279.225 138.954444) scale(0.083 -0.083)">
     <defs>
      <path id="DejaVuSans-1c" d="M 703 97
L 703 672
Q 941 559 1184 500
Q 1428 441 1663 441
Q 2288 441 2617 861
Q 2947 1281 2994 2138
Q 2813 1869 2534 1725
Q 2256 1581 1919 1581
Q 1219 1581 811 2004
Q 403 2428 403 3163
Q 403 3881 828 4315
Q 1253 4750 1959 4750
Q 2769 4750 3195 4129
Q 3622 3509 3622 2328
Q 3622 1225 3098 567
Q 2575 -91 1691 -91
Q 1453 -91 1209 -44
Q 966 3 703 97
z
M 1959 2075
Q 2384 2075 2632 2365
Q 2881 2656 2881 3163
Q 2881 3666 2632 3958
Q 2384 4250 1959 4250
Q 1534 4250 1286 3958
Q 1038 3666 1038 3163
Q 1038 2656 1286 2365
Q 1534 2075 1959 2075
z
" transform="scale(0.015625)"/>
     </defs>
     <use xlink:href="#DejaVuSans-30"/>
     <use xlink:href="#DejaVuSans-48" transform="translate(86.28125 0)"/>
     <use xlink:href="#DejaVuSans-44" transform="translate(147.8125 0)"/>
     <use xlink:href="#DejaVuSans-51" transform="translate(209.09375 0)"/>
     <use xlink:href="#DejaVuSans-3" transform="translate(272.46875 0)"/>
     <use xlink:href="#DejaVuSans-55" transform="translate(304.25 0)"/>
     <use xlink:href="#DejaVuSans-48" transform="translate(343.15625 0)"/>
     <use xlink:href="#DejaVuSans-46" transform="translate(404.6875 0)"/>
     <use xlink:href="#DejaVuSans-44" transform="translate(459.671875 0)"/>
     <use xlink:href="#DejaVuSans-4f" transform="translate(520.953125 0)"/>
     <use xlink:href="#DejaVuSans-4f" transform="translate(548.734375 0)"/>
     <use xlink:href="#DejaVuSans-1d" transform="translate(576.515625 0)"/>
     <use xlink:href="#DejaVuSans-3" transform="translate(610.203125 0)"/>
     <use xlink:href="#DejaVuSans-13" transform="translate(641.984375 0)"/>
     <use xlink:href="#DejaVuSans-11" transform="translate(705.609375 0)"/>
     <use xlink:href="#DejaVuSans-13" transform="translate(737.390625 0)"/>
     <use xlink:href="#DejaVuSans-14" transform="translate(801.015625 0)"/>
     <use xlink:href="#DejaVuSans-16" transform="translate(864.640625 0)"/>
     <use xlink:href="#DejaVuSans-1c" transform="translate(928.265625 0)"/>
    </g>
    <!--  -->
    <g style="fill: #17202a" transform="translate(279.225 146.2351) scale(0.083 -0.083)"/>
    <!-- Interpretation: fails safety utility -->
    <g style="fill: #17202a" transform="translate(279.225 158.900381) scale(0.083 -0.083)">
     <use xlink:href="#DejaVuSans-2c"/>
     <use xlink:href="#DejaVuSans-51" transform="translate(29.5 0)"/>
     <use xlink:href="#DejaVuSans-57" transform="translate(92.875 0)"/>
     <use xlink:href="#DejaVuSans-48" transform="translate(132.078125 0)"/>
     <use xlink:href="#DejaVuSans-55" transform="translate(193.609375 0)"/>
     <use xlink:href="#DejaVuSans-53" transform="translate(234.71875 0)"/>
     <use xlink:href="#DejaVuSans-55" transform="translate(298.203125 0)"/>
     <use xlink:href="#DejaVuSans-48" transform="translate(337.109375 0)"/>
     <use xlink:href="#DejaVuSans-57" transform="translate(398.640625 0)"/>
     <use xlink:href="#DejaVuSans-44" transform="translate(437.84375 0)"/>
     <use xlink:href="#DejaVuSans-57" transform="translate(499.125 0)"/>
     <use xlink:href="#DejaVuSans-4c" transform="translate(538.328125 0)"/>
     <use xlink:href="#DejaVuSans-52" transform="translate(566.109375 0)"/>
     <use xlink:href="#DejaVuSans-51" transform="translate(627.296875 0)"/>
     <use xlink:href="#DejaVuSans-1d" transform="translate(690.671875 0)"/>
     <use xlink:href="#DejaVuSans-3" transform="translate(724.359375 0)"/>
     <use xlink:href="#DejaVuSans-49" transform="translate(756.140625 0)"/>
     <use xlink:href="#DejaVuSans-44" transform="translate(791.34375 0)"/>
     <use xlink:href="#DejaVuSans-4c" transform="translate(852.625 0)"/>
     <use xlink:href="#DejaVuSans-4f" transform="translate(880.40625 0)"/>
     <use xlink:href="#DejaVuSans-56" transform="translate(908.1875 0)"/>
     <use xlink:href="#DejaVuSans-3" transform="translate(960.28125 0)"/>
     <use xlink:href="#DejaVuSans-56" transform="translate(992.0625 0)"/>
     <use xlink:href="#DejaVuSans-44" transform="translate(1044.15625 0)"/>
     <use xlink:href="#DejaVuSans-49" transform="translate(1105.4375 0)"/>
     <use xlink:href="#DejaVuSans-48" transform="translate(1140.640625 0)"/>
     <use xlink:href="#DejaVuSans-57" transform="translate(1202.171875 0)"/>
     <use xlink:href="#DejaVuSans-5c" transform="translate(1241.375 0)"/>
     <use xlink:href="#DejaVuSans-3" transform="translate(1300.5625 0)"/>
     <use xlink:href="#DejaVuSans-58" transform="translate(1332.34375 0)"/>
     <use xlink:href="#DejaVuSans-57" transform="translate(1395.71875 0)"/>
     <use xlink:href="#DejaVuSans-4c" transform="translate(1434.921875 0)"/>
     <use xlink:href="#DejaVuSans-4f" transform="translate(1462.703125 0)"/>
     <use xlink:href="#DejaVuSans-4c" transform="translate(1490.484375 0)"/>
     <use xlink:href="#DejaVuSans-57" transform="translate(1518.265625 0)"/>
     <use xlink:href="#DejaVuSans-5c" transform="translate(1557.46875 0)"/>
    </g>
    <!-- under frozen selection. -->
    <g style="fill: #17202a" transform="translate(279.225 170.079444) scale(0.083 -0.083)">
     <defs>
      <path id="DejaVuSans-5d" d="M 353 3500
L 3084 3500
L 3084 2975
L 922 459
L 3084 459
L 3084 0
L 275 0
L 275 525
L 2438 3041
L 353 3041
L 353 3500
z
" transform="scale(0.015625)"/>
     </defs>
     <use xlink:href="#DejaVuSans-58"/>
     <use xlink:href="#DejaVuSans-51" transform="translate(63.375 0)"/>
     <use xlink:href="#DejaVuSans-47" transform="translate(126.75 0)"/>
     <use xlink:href="#DejaVuSans-48" transform="translate(190.234375 0)"/>
     <use xlink:href="#DejaVuSans-55" transform="translate(251.765625 0)"/>
     <use xlink:href="#DejaVuSans-3" transform="translate(292.875 0)"/>
     <use xlink:href="#DejaVuSans-49" transform="translate(324.65625 0)"/>
     <use xlink:href="#DejaVuSans-55" transform="translate(359.859375 0)"/>
     <use xlink:href="#DejaVuSans-52" transform="translate(398.765625 0)"/>
     <use xlink:href="#DejaVuSans-5d" transform="translate(459.953125 0)"/>
     <use xlink:href="#DejaVuSans-48" transform="translate(512.4375 0)"/>
     <use xlink:href="#DejaVuSans-51" transform="translate(573.96875 0)"/>
     <use xlink:href="#DejaVuSans-3" transform="translate(637.34375 0)"/>
     <use xlink:href="#DejaVuSans-56" transform="translate(669.125 0)"/>
     <use xlink:href="#DejaVuSans-48" transform="translate(721.21875 0)"/>
     <use xlink:href="#DejaVuSans-4f" transform="translate(782.75 0)"/>
     <use xlink:href="#DejaVuSans-48" transform="translate(810.53125 0)"/>
     <use xlink:href="#DejaVuSans-46" transform="translate(872.0625 0)"/>
     <use xlink:href="#DejaVuSans-57" transform="translate(927.046875 0)"/>
     <use xlink:href="#DejaVuSans-4c" transform="translate(966.25 0)"/>
     <use xlink:href="#DejaVuSans-52" transform="translate(994.03125 0)"/>
     <use xlink:href="#DejaVuSans-51" transform="translate(1055.21875 0)"/>
     <use xlink:href="#DejaVuSans-11" transform="translate(1118.59375 0)"/>
    </g>
   </g>
   <g id="text_7">
    <!-- Future-only signal -->
    <g style="fill: #17202a" transform="translate(509.4 107.921321) scale(0.11 -0.11)">
     <defs>
      <path id="DejaVuSans-Bold-58" d="M 500 1363
L 500 3500
L 1625 3500
L 1625 3150
Q 1625 2866 1622 2436
Q 1619 2006 1619 1863
Q 1619 1441 1641 1255
Q 1663 1069 1716 984
Q 1784 875 1895 815
Q 2006 756 2150 756
Q 2500 756 2700 1025
Q 2900 1294 2900 1772
L 2900 3500
L 4019 3500
L 4019 0
L 2900 0
L 2900 506
Q 2647 200 2364 54
Q 2081 -91 1741 -91
Q 1134 -91 817 281
Q 500 653 500 1363
z
" transform="scale(0.015625)"/>
      <path id="DejaVuSans-Bold-5c" d="M 78 3500
L 1197 3500
L 2138 1125
L 2938 3500
L 4056 3500
L 2584 -331
Q 2363 -916 2067 -1148
Q 1772 -1381 1288 -1381
L 641 -1381
L 641 -647
L 991 -647
Q 1275 -647 1404 -556
Q 1534 -466 1606 -231
L 1638 -134
L 78 3500
z
" transform="scale(0.015625)"/>
      <path id="DejaVuSans-Bold-4a" d="M 2919 594
Q 2688 288 2409 144
Q 2131 0 1766 0
Q 1125 0 706 504
Q 288 1009 288 1791
Q 288 2575 706 3076
Q 1125 3578 1766 3578
Q 2131 3578 2409 3434
Q 2688 3291 2919 2981
L 2919 3500
L 4044 3500
L 4044 353
Q 4044 -491 3511 -936
Q 2978 -1381 1966 -1381
Q 1638 -1381 1331 -1331
Q 1025 -1281 716 -1178
L 716 -306
Q 1009 -475 1290 -558
Q 1572 -641 1856 -641
Q 2406 -641 2662 -400
Q 2919 -159 2919 353
L 2919 594
z
M 2181 2772
Q 1834 2772 1640 2515
Q 1447 2259 1447 1791
Q 1447 1309 1634 1061
Q 1822 813 2181 813
Q 2531 813 2725 1069
Q 2919 1325 2919 1791
Q 2919 2259 2725 2515
Q 2531 2772 2181 2772
z
" transform="scale(0.015625)"/>
     </defs>
     <use xlink:href="#DejaVuSans-Bold-29"/>
     <use xlink:href="#DejaVuSans-Bold-58" transform="translate(63.328125 0)"/>
     <use xlink:href="#DejaVuSans-Bold-57" transform="translate(134.515625 0)"/>
     <use xlink:href="#DejaVuSans-Bold-58" transform="translate(182.3125 0)"/>
     <use xlink:href="#DejaVuSans-Bold-55" transform="translate(253.5 0)"/>
     <use xlink:href="#DejaVuSans-Bold-48" transform="translate(302.8125 0)"/>
     <use xlink:href="#DejaVuSans-Bold-10" transform="translate(370.640625 0)"/>
     <use xlink:href="#DejaVuSans-Bold-52" transform="translate(412.140625 0)"/>
     <use xlink:href="#DejaVuSans-Bold-51" transform="translate(480.84375 0)"/>
     <use xlink:href="#DejaVuSans-Bold-4f" transform="translate(552.03125 0)"/>
     <use xlink:href="#DejaVuSans-Bold-5c" transform="translate(586.3125 0)"/>
     <use xlink:href="#DejaVuSans-Bold-3" transform="translate(651.5 0)"/>
     <use xlink:href="#DejaVuSans-Bold-56" transform="translate(686.3125 0)"/>
     <use xlink:href="#DejaVuSans-Bold-4c" transform="translate(745.828125 0)"/>
     <use xlink:href="#DejaVuSans-Bold-4a" transform="translate(780.109375 0)"/>
     <use xlink:href="#DejaVuSans-Bold-51" transform="translate(851.6875 0)"/>
     <use xlink:href="#DejaVuSans-Bold-44" transform="translate(922.875 0)"/>
     <use xlink:href="#DejaVuSans-Bold-4f" transform="translate(990.359375 0)"/>
    </g>
   </g>
   <g id="text_8">
    <!-- Logistic head had much higher recall -->
    <g style="fill: #17202a" transform="translate(509.4 127.775381) scale(0.083 -0.083)">
     <use xlink:href="#DejaVuSans-2f"/>
     <use xlink:href="#DejaVuSans-52" transform="translate(53.96875 0)"/>
     <use xlink:href="#DejaVuSans-4a" transform="translate(115.15625 0)"/>
     <use xlink:href="#DejaVuSans-4c" transform="translate(178.640625 0)"/>
     <use xlink:href="#DejaVuSans-56" transform="translate(206.421875 0)"/>
     <use xlink:href="#DejaVuSans-57" transform="translate(258.515625 0)"/>
     <use xlink:href="#DejaVuSans-4c" transform="translate(297.71875 0)"/>
     <use xlink:href="#DejaVuSans-46" transform="translate(325.5 0)"/>
     <use xlink:href="#DejaVuSans-3" transform="translate(380.484375 0)"/>
     <use xlink:href="#DejaVuSans-4b" transform="translate(412.265625 0)"/>
     <use xlink:href="#DejaVuSans-48" transform="translate(475.640625 0)"/>
     <use xlink:href="#DejaVuSans-44" transform="translate(537.171875 0)"/>
     <use xlink:href="#DejaVuSans-47" transform="translate(598.453125 0)"/>
     <use xlink:href="#DejaVuSans-3" transform="translate(661.9375 0)"/>
     <use xlink:href="#DejaVuSans-4b" transform="translate(693.71875 0)"/>
     <use xlink:href="#DejaVuSans-44" transform="translate(757.09375 0)"/>
     <use xlink:href="#DejaVuSans-47" transform="translate(818.375 0)"/>
     <use xlink:href="#DejaVuSans-3" transform="translate(881.859375 0)"/>
     <use xlink:href="#DejaVuSans-50" transform="translate(913.640625 0)"/>
     <use xlink:href="#DejaVuSans-58" transform="translate(1011.046875 0)"/>
     <use xlink:href="#DejaVuSans-46" transform="translate(1074.421875 0)"/>
     <use xlink:href="#DejaVuSans-4b" transform="translate(1129.40625 0)"/>
     <use xlink:href="#DejaVuSans-3" transform="translate(1192.78125 0)"/>
     <use xlink:href="#DejaVuSans-4b" transform="translate(1224.5625 0)"/>
     <use xlink:href="#DejaVuSans-4c" transform="translate(1287.9375 0)"/>
     <use xlink:href="#DejaVuSans-4a" transform="translate(1315.71875 0)"/>
     <use xlink:href="#DejaVuSans-4b" transform="translate(1379.203125 0)"/>
     <use xlink:href="#DejaVuSans-48" transform="translate(1442.578125 0)"/>
     <use xlink:href="#DejaVuSans-55" transform="translate(1504.109375 0)"/>
     <use xlink:href="#DejaVuSans-3" transform="translate(1545.21875 0)"/>
     <use xlink:href="#DejaVuSans-55" transform="translate(1577 0)"/>
     <use xlink:href="#DejaVuSans-48" transform="translate(1615.90625 0)"/>
     <use xlink:href="#DejaVuSans-46" transform="translate(1677.4375 0)"/>
     <use xlink:href="#DejaVuSans-44" transform="translate(1732.421875 0)"/>
     <use xlink:href="#DejaVuSans-4f" transform="translate(1793.703125 0)"/>
     <use xlink:href="#DejaVuSans-4f" transform="translate(1821.484375 0)"/>
    </g>
    <!-- but worse Brier. -->
    <g style="fill: #17202a" transform="translate(509.4 138.954444) scale(0.083 -0.083)">
     <use xlink:href="#DejaVuSans-45"/>
     <use xlink:href="#DejaVuSans-58" transform="translate(63.484375 0)"/>
     <use xlink:href="#DejaVuSans-57" transform="translate(126.859375 0)"/>
     <use xlink:href="#DejaVuSans-3" transform="translate(166.0625 0)"/>
     <use xlink:href="#DejaVuSans-5a" transform="translate(197.84375 0)"/>
     <use xlink:href="#DejaVuSans-52" transform="translate(279.625 0)"/>
     <use xlink:href="#DejaVuSans-55" transform="translate(340.8125 0)"/>
     <use xlink:href="#DejaVuSans-56" transform="translate(381.921875 0)"/>
     <use xlink:href="#DejaVuSans-48" transform="translate(434.015625 0)"/>
     <use xlink:href="#DejaVuSans-3" transform="translate(495.546875 0)"/>
     <use xlink:href="#DejaVuSans-25" transform="translate(527.328125 0)"/>
     <use xlink:href="#DejaVuSans-55" transform="translate(595.9375 0)"/>
     <use xlink:href="#DejaVuSans-4c" transform="translate(637.046875 0)"/>
     <use xlink:href="#DejaVuSans-48" transform="translate(664.828125 0)"/>
     <use xlink:href="#DejaVuSans-55" transform="translate(726.359375 0)"/>
     <use xlink:href="#DejaVuSans-11" transform="translate(758.296875 0)"/>
    </g>
    <!--  -->
    <g style="fill: #17202a" transform="translate(509.4 146.2351) scale(0.083 -0.083)"/>
    <!-- Use only for a future recall-first -->
    <g style="fill: #17202a" transform="translate(509.4 158.900381) scale(0.083 -0.083)">
     <defs>
      <path id="DejaVuSans-38" d="M 556 4666
L 1191 4666
L 1191 1831
Q 1191 1081 1462 751
Q 1734 422 2344 422
Q 2950 422 3222 751
Q 3494 1081 3494 1831
L 3494 4666
L 4128 4666
L 4128 1753
Q 4128 841 3676 375
Q 3225 -91 2344 -91
Q 1459 -91 1007 375
Q 556 841 556 1753
L 556 4666
z
" transform="scale(0.015625)"/>
     </defs>
     <use xlink:href="#DejaVuSans-38"/>
     <use xlink:href="#DejaVuSans-56" transform="translate(73.1875 0)"/>
     <use xlink:href="#DejaVuSans-48" transform="translate(125.28125 0)"/>
     <use xlink:href="#DejaVuSans-3" transform="translate(186.8125 0)"/>
     <use xlink:href="#DejaVuSans-52" transform="translate(218.59375 0)"/>
     <use xlink:href="#DejaVuSans-51" transform="translate(279.78125 0)"/>
     <use xlink:href="#DejaVuSans-4f" transform="translate(343.15625 0)"/>
     <use xlink:href="#DejaVuSans-5c" transform="translate(370.9375 0)"/>
     <use xlink:href="#DejaVuSans-3" transform="translate(430.125 0)"/>
     <use xlink:href="#DejaVuSans-49" transform="translate(461.90625 0)"/>
     <use xlink:href="#DejaVuSans-52" transform="translate(497.109375 0)"/>
     <use xlink:href="#DejaVuSans-55" transform="translate(558.296875 0)"/>
     <use xlink:href="#DejaVuSans-3" transform="translate(599.40625 0)"/>
     <use xlink:href="#DejaVuSans-44" transform="translate(631.1875 0)"/>
     <use xlink:href="#DejaVuSans-3" transform="translate(692.46875 0)"/>
     <use xlink:href="#DejaVuSans-49" transform="translate(724.25 0)"/>
     <use xlink:href="#DejaVuSans-58" transform="translate(759.453125 0)"/>
     <use xlink:href="#DejaVuSans-57" transform="translate(822.828125 0)"/>
     <use xlink:href="#DejaVuSans-58" transform="translate(862.03125 0)"/>
     <use xlink:href="#DejaVuSans-55" transform="translate(925.40625 0)"/>
     <use xlink:href="#DejaVuSans-48" transform="translate(964.3125 0)"/>
     <use xlink:href="#DejaVuSans-3" transform="translate(1025.84375 0)"/>
     <use xlink:href="#DejaVuSans-55" transform="translate(1057.625 0)"/>
     <use xlink:href="#DejaVuSans-48" transform="translate(1096.53125 0)"/>
     <use xlink:href="#DejaVuSans-46" transform="translate(1158.0625 0)"/>
     <use xlink:href="#DejaVuSans-44" transform="translate(1213.046875 0)"/>
     <use xlink:href="#DejaVuSans-4f" transform="translate(1274.328125 0)"/>
     <use xlink:href="#DejaVuSans-4f" transform="translate(1302.109375 0)"/>
     <use xlink:href="#DejaVuSans-10" transform="translate(1329.890625 0)"/>
     <use xlink:href="#DejaVuSans-13af" transform="translate(1365.96875 0)"/>
     <use xlink:href="#DejaVuSans-55" transform="translate(1428.953125 0)"/>
     <use xlink:href="#DejaVuSans-56" transform="translate(1470.0625 0)"/>
     <use xlink:href="#DejaVuSans-57" transform="translate(1522.15625 0)"/>
    </g>
    <!-- protocol, not D017 rescue. -->
    <g style="fill: #17202a" transform="translate(509.4 169.275381) scale(0.083 -0.083)">
     <use xlink:href="#DejaVuSans-53"/>
     <use xlink:href="#DejaVuSans-55" transform="translate(63.484375 0)"/>
     <use xlink:href="#DejaVuSans-52" transform="translate(102.390625 0)"/>
     <use xlink:href="#DejaVuSans-57" transform="translate(163.578125 0)"/>
     <use xlink:href="#DejaVuSans-52" transform="translate(202.78125 0)"/>
     <use xlink:href="#DejaVuSans-46" transform="translate(263.96875 0)"/>
     <use xlink:href="#DejaVuSans-52" transform="translate(318.953125 0)"/>
     <use xlink:href="#DejaVuSans-4f" transform="translate(380.140625 0)"/>
     <use xlink:href="#DejaVuSans-f" transform="translate(407.921875 0)"/>
     <use xlink:href="#DejaVuSans-3" transform="translate(439.703125 0)"/>
     <use xlink:href="#DejaVuSans-51" transform="translate(471.484375 0)"/>
     <use xlink:href="#DejaVuSans-52" transform="translate(534.859375 0)"/>
     <use xlink:href="#DejaVuSans-57" transform="translate(596.046875 0)"/>
     <use xlink:href="#DejaVuSans-3" transform="translate(635.25 0)"/>
     <use xlink:href="#DejaVuSans-27" transform="translate(667.03125 0)"/>
     <use xlink:href="#DejaVuSans-13" transform="translate(744.03125 0)"/>
     <use xlink:href="#DejaVuSans-14" transform="translate(807.65625 0)"/>
     <use xlink:href="#DejaVuSans-1a" transform="translate(871.28125 0)"/>
     <use xlink:href="#DejaVuSans-3" transform="translate(934.90625 0)"/>
     <use xlink:href="#DejaVuSans-55" transform="translate(966.6875 0)"/>
     <use xlink:href="#DejaVuSans-48" transform="translate(1005.59375 0)"/>
     <use xlink:href="#DejaVuSans-56" transform="translate(1067.125 0)"/>
     <use xlink:href="#DejaVuSans-46" transform="translate(1119.21875 0)"/>
     <use xlink:href="#DejaVuSans-58" transform="translate(1174.203125 0)"/>
     <use xlink:href="#DejaVuSans-48" transform="translate(1237.578125 0)"/>
     <use xlink:href="#DejaVuSans-11" transform="translate(1299.109375 0)"/>
    </g>
   </g>
   <g id="text_9">
    <!-- Official D018-C decision -->
    <g style="fill: #17202a" transform="translate(167.625 273.797801) scale(0.11 -0.11)">
     <defs>
      <path id="DejaVuSans-Bold-32" d="M 2719 3878
Q 2169 3878 1866 3472
Q 1563 3066 1563 2328
Q 1563 1594 1866 1187
Q 2169 781 2719 781
Q 3272 781 3575 1187
Q 3878 1594 3878 2328
Q 3878 3066 3575 3472
Q 3272 3878 2719 3878
z
M 2719 4750
Q 3844 4750 4481 4106
Q 5119 3463 5119 2328
Q 5119 1197 4481 553
Q 3844 -91 2719 -91
Q 1597 -91 958 553
Q 319 1197 319 2328
Q 319 3463 958 4106
Q 1597 4750 2719 4750
z
" transform="scale(0.015625)"/>
      <path id="DejaVuSans-Bold-13ad" d="M 2841 4863
L 2841 4128
L 2222 4128
Q 1984 4128 1891 4044
Q 1797 3956 1797 3744
L 1797 3500
L 3078 3500
L 3078 3744
Q 3078 4316 3397 4588
Q 3716 4863 4384 4863
L 5241 4863
L 5241 4128
L 4622 4128
Q 4388 4128 4297 4044
Q 4206 3956 4206 3744
L 4206 3500
L 6600 3500
L 6600 0
L 5472 0
L 5472 2700
L 4206 2700
L 4206 0
L 4197 0
L 3078 0
L 3078 2700
L 1797 2700
L 1797 0
L 678 0
L 678 2700
L 122 2700
L 122 3500
L 678 3500
L 678 3744
Q 678 4316 997 4588
Q 1316 4863 1984 4863
L 2841 4863
z
M 5472 4863
L 6600 4863
L 6600 3950
L 5472 3950
L 5472 4863
z
" transform="scale(0.015625)"/>
     </defs>
     <use xlink:href="#DejaVuSans-Bold-32"/>
     <use xlink:href="#DejaVuSans-Bold-13ad" transform="translate(85.015625 0)"/>
     <use xlink:href="#DejaVuSans-Bold-46" transform="translate(196.546875 0)"/>
     <use xlink:href="#DejaVuSans-Bold-4c" transform="translate(255.828125 0)"/>
     <use xlink:href="#DejaVuSans-Bold-44" transform="translate(290.109375 0)"/>
     <use xlink:href="#DejaVuSans-Bold-4f" transform="translate(357.59375 0)"/>
     <use xlink:href="#DejaVuSans-Bold-3" transform="translate(391.875 0)"/>
     <use xlink:href="#DejaVuSans-Bold-27" transform="translate(426.6875 0)"/>
     <use xlink:href="#DejaVuSans-Bold-13" transform="translate(509.703125 0)"/>
     <use xlink:href="#DejaVuSans-Bold-14" transform="translate(579.28125 0)"/>
     <use xlink:href="#DejaVuSans-Bold-1b" transform="translate(648.859375 0)"/>
     <use xlink:href="#DejaVuSans-Bold-10" transform="translate(718.4375 0)"/>
     <use xlink:href="#DejaVuSans-Bold-26" transform="translate(759.9375 0)"/>
     <use xlink:href="#DejaVuSans-Bold-3" transform="translate(833.328125 0)"/>
     <use xlink:href="#DejaVuSans-Bold-47" transform="translate(868.140625 0)"/>
     <use xlink:href="#DejaVuSans-Bold-48" transform="translate(939.71875 0)"/>
     <use xlink:href="#DejaVuSans-Bold-46" transform="translate(1007.546875 0)"/>
     <use xlink:href="#DejaVuSans-Bold-4c" transform="translate(1066.828125 0)"/>
     <use xlink:href="#DejaVuSans-Bold-56" transform="translate(1101.109375 0)"/>
     <use xlink:href="#DejaVuSans-Bold-4c" transform="translate(1160.625 0)"/>
     <use xlink:href="#DejaVuSans-Bold-52" transform="translate(1194.90625 0)"/>
     <use xlink:href="#DejaVuSans-Bold-51" transform="translate(1263.609375 0)"/>
    </g>
   </g>
   <g id="text_10">
    <!-- NO_ADVANCE. D017 remains development-only evidence. D019, if opened, must be a future-only redesign discussion with no locked-data or mission authority. -->
    <g style="fill: #17202a" transform="translate(167.625 293.536439) scale(0.083 -0.083)">
     <defs>
      <path id="DejaVuSans-32" d="M 2522 4238
Q 1834 4238 1429 3725
Q 1025 3213 1025 2328
Q 1025 1447 1429 934
Q 1834 422 2522 422
Q 3209 422 3611 934
Q 4013 1447 4013 2328
Q 4013 3213 3611 3725
Q 3209 4238 2522 4238
z
M 2522 4750
Q 3503 4750 4090 4092
Q 4678 3434 4678 2328
Q 4678 1225 4090 567
Q 3503 -91 2522 -91
Q 1538 -91 948 565
Q 359 1222 359 2328
Q 359 3434 948 4092
Q 1538 4750 2522 4750
z
" transform="scale(0.015625)"/>
      <path id="DejaVuSans-24" d="M 2188 4044
L 1331 1722
L 3047 1722
L 2188 4044
z
M 1831 4666
L 2547 4666
L 4325 0
L 3669 0
L 3244 1197
L 1141 1197
L 716 0
L 50 0
L 1831 4666
z
" transform="scale(0.015625)"/>
      <path id="DejaVuSans-39" d="M 1831 0
L 50 4666
L 709 4666
L 2188 738
L 3669 4666
L 4325 4666
L 2547 0
L 1831 0
z
" transform="scale(0.015625)"/>
      <path id="DejaVuSans-4e" d="M 581 4863
L 1159 4863
L 1159 1991
L 2875 3500
L 3609 3500
L 1753 1863
L 3688 0
L 2938 0
L 1159 1709
L 1159 0
L 581 0
L 581 4863
z
" transform="scale(0.015625)"/>
     </defs>
     <use xlink:href="#DejaVuSans-31"/>
     <use xlink:href="#DejaVuSans-32" transform="translate(74.8125 0)"/>
     <use xlink:href="#DejaVuSans-42" transform="translate(153.53125 0)"/>
     <use xlink:href="#DejaVuSans-24" transform="translate(203.53125 0)"/>
     <use xlink:href="#DejaVuSans-27" transform="translate(271.9375 0)"/>
     <use xlink:href="#DejaVuSans-39" transform="translate(347.1875 0)"/>
     <use xlink:href="#DejaVuSans-24" transform="translate(409.203125 0)"/>
     <use xlink:href="#DejaVuSans-31" transform="translate(477.609375 0)"/>
     <use xlink:href="#DejaVuSans-26" transform="translate(552.421875 0)"/>
     <use xlink:href="#DejaVuSans-28" transform="translate(622.25 0)"/>
     <use xlink:href="#DejaVuSans-11" transform="translate(685.4375 0)"/>
     <use xlink:href="#DejaVuSans-3" transform="translate(717.21875 0)"/>
     <use xlink:href="#DejaVuSans-27" transform="translate(749 0)"/>
     <use xlink:href="#DejaVuSans-13" transform="translate(826 0)"/>
     <use xlink:href="#DejaVuSans-14" transform="translate(889.625 0)"/>
     <use xlink:href="#DejaVuSans-1a" transform="translate(953.25 0)"/>
     <use xlink:href="#DejaVuSans-3" transform="translate(1016.875 0)"/>
     <use xlink:href="#DejaVuSans-55" transform="translate(1048.65625 0)"/>
     <use xlink:href="#DejaVuSans-48" transform="translate(1087.5625 0)"/>
     <use xlink:href="#DejaVuSans-50" transform="translate(1149.09375 0)"/>
     <use xlink:href="#DejaVuSans-44" transform="translate(1246.5 0)"/>
     <use xlink:href="#DejaVuSans-4c" transform="translate(1307.78125 0)"/>
     <use xlink:href="#DejaVuSans-51" transform="translate(1335.5625 0)"/>
     <use xlink:href="#DejaVuSans-56" transform="translate(1398.9375 0)"/>
     <use xlink:href="#DejaVuSans-3" transform="translate(1451.03125 0)"/>
     <use xlink:href="#DejaVuSans-47" transform="translate(1482.8125 0)"/>
     <use xlink:href="#DejaVuSans-48" transform="translate(1546.296875 0)"/>
     <use xlink:href="#DejaVuSans-59" transform="translate(1607.828125 0)"/>
     <use xlink:href="#DejaVuSans-48" transform="translate(1667.015625 0)"/>
     <use xlink:href="#DejaVuSans-4f" transform="translate(1728.546875 0)"/>
     <use xlink:href="#DejaVuSans-52" transform="translate(1756.328125 0)"/>
     <use xlink:href="#DejaVuSans-53" transform="translate(1817.515625 0)"/>
     <use xlink:href="#DejaVuSans-50" transform="translate(1881 0)"/>
     <use xlink:href="#DejaVuSans-48" transform="translate(1978.40625 0)"/>
     <use xlink:href="#DejaVuSans-51" transform="translate(2039.9375 0)"/>
     <use xlink:href="#DejaVuSans-57" transform="translate(2103.3125 0)"/>
     <use xlink:href="#DejaVuSans-10" transform="translate(2142.515625 0)"/>
     <use xlink:href="#DejaVuSans-52" transform="translate(2180.453125 0)"/>
     <use xlink:href="#DejaVuSans-51" transform="translate(2241.640625 0)"/>
     <use xlink:href="#DejaVuSans-4f" transform="translate(2305.015625 0)"/>
     <use xlink:href="#DejaVuSans-5c" transform="translate(2332.796875 0)"/>
     <use xlink:href="#DejaVuSans-3" transform="translate(2391.984375 0)"/>
     <use xlink:href="#DejaVuSans-48" transform="translate(2423.765625 0)"/>
     <use xlink:href="#DejaVuSans-59" transform="translate(2485.296875 0)"/>
     <use xlink:href="#DejaVuSans-4c" transform="translate(2544.484375 0)"/>
     <use xlink:href="#DejaVuSans-47" transform="translate(2572.265625 0)"/>
     <use xlink:href="#DejaVuSans-48" transform="translate(2635.75 0)"/>
     <use xlink:href="#DejaVuSans-51" transform="translate(2697.28125 0)"/>
     <use xlink:href="#DejaVuSans-46" transform="translate(2760.65625 0)"/>
     <use xlink:href="#DejaVuSans-48" transform="translate(2815.640625 0)"/>
     <use xlink:href="#DejaVuSans-11" transform="translate(2877.171875 0)"/>
     <use xlink:href="#DejaVuSans-3" transform="translate(2908.953125 0)"/>
     <use xlink:href="#DejaVuSans-27" transform="translate(2940.734375 0)"/>
     <use xlink:href="#DejaVuSans-13" transform="translate(3017.734375 0)"/>
     <use xlink:href="#DejaVuSans-14" transform="translate(3081.359375 0)"/>
     <use xlink:href="#DejaVuSans-1c" transform="translate(3144.984375 0)"/>
     <use xlink:href="#DejaVuSans-f" transform="translate(3208.609375 0)"/>
     <use xlink:href="#DejaVuSans-3" transform="translate(3240.390625 0)"/>
     <use xlink:href="#DejaVuSans-4c" transform="translate(3272.171875 0)"/>
     <use xlink:href="#DejaVuSans-49" transform="translate(3299.953125 0)"/>
     <use xlink:href="#DejaVuSans-3" transform="translate(3335.15625 0)"/>
     <use xlink:href="#DejaVuSans-52" transform="translate(3366.9375 0)"/>
     <use xlink:href="#DejaVuSans-53" transform="translate(3428.125 0)"/>
     <use xlink:href="#DejaVuSans-48" transform="translate(3491.609375 0)"/>
     <use xlink:href="#DejaVuSans-51" transform="translate(3553.140625 0)"/>
     <use xlink:href="#DejaVuSans-48" transform="translate(3616.515625 0)"/>
     <use xlink:href="#DejaVuSans-47" transform="translate(3678.046875 0)"/>
     <use xlink:href="#DejaVuSans-f" transform="translate(3741.53125 0)"/>
     <use xlink:href="#DejaVuSans-3" transform="translate(3773.3125 0)"/>
     <use xlink:href="#DejaVuSans-50" transform="translate(3805.09375 0)"/>
     <use xlink:href="#DejaVuSans-58" transform="translate(3902.5 0)"/>
     <use xlink:href="#DejaVuSans-56" transform="translate(3965.875 0)"/>
     <use xlink:href="#DejaVuSans-57" transform="translate(4017.96875 0)"/>
     <use xlink:href="#DejaVuSans-3" transform="translate(4057.171875 0)"/>
     <use xlink:href="#DejaVuSans-45" transform="translate(4088.953125 0)"/>
     <use xlink:href="#DejaVuSans-48" transform="translate(4152.4375 0)"/>
     <use xlink:href="#DejaVuSans-3" transform="translate(4213.96875 0)"/>
     <use xlink:href="#DejaVuSans-44" transform="translate(4245.75 0)"/>
     <use xlink:href="#DejaVuSans-3" transform="translate(4307.03125 0)"/>
     <use xlink:href="#DejaVuSans-49" transform="translate(4338.8125 0)"/>
     <use xlink:href="#DejaVuSans-58" transform="translate(4374.015625 0)"/>
     <use xlink:href="#DejaVuSans-57" transform="translate(4437.390625 0)"/>
     <use xlink:href="#DejaVuSans-58" transform="translate(4476.59375 0)"/>
     <use xlink:href="#DejaVuSans-55" transform="translate(4539.96875 0)"/>
     <use xlink:href="#DejaVuSans-48" transform="translate(4578.875 0)"/>
     <use xlink:href="#DejaVuSans-10" transform="translate(4640.40625 0)"/>
     <use xlink:href="#DejaVuSans-52" transform="translate(4678.34375 0)"/>
     <use xlink:href="#DejaVuSans-51" transform="translate(4739.53125 0)"/>
     <use xlink:href="#DejaVuSans-4f" transform="translate(4802.90625 0)"/>
     <use xlink:href="#DejaVuSans-5c" transform="translate(4830.6875 0)"/>
     <use xlink:href="#DejaVuSans-3" transform="translate(4889.875 0)"/>
     <use xlink:href="#DejaVuSans-55" transform="translate(4921.65625 0)"/>
     <use xlink:href="#DejaVuSans-48" transform="translate(4960.5625 0)"/>
     <use xlink:href="#DejaVuSans-47" transform="translate(5022.09375 0)"/>
     <use xlink:href="#DejaVuSans-48" transform="translate(5085.578125 0)"/>
     <use xlink:href="#DejaVuSans-56" transform="translate(5147.109375 0)"/>
     <use xlink:href="#DejaVuSans-4c" transform="translate(5199.203125 0)"/>
     <use xlink:href="#DejaVuSans-4a" transform="translate(5226.984375 0)"/>
     <use xlink:href="#DejaVuSans-51" transform="translate(5290.46875 0)"/>
     <use xlink:href="#DejaVuSans-3" transform="translate(5353.84375 0)"/>
     <use xlink:href="#DejaVuSans-47" transform="translate(5385.625 0)"/>
     <use xlink:href="#DejaVuSans-4c" transform="translate(5449.109375 0)"/>
     <use xlink:href="#DejaVuSans-56" transform="translate(5476.890625 0)"/>
     <use xlink:href="#DejaVuSans-46" transform="translate(5528.984375 0)"/>
     <use xlink:href="#DejaVuSans-58" transform="translate(5583.96875 0)"/>
     <use xlink:href="#DejaVuSans-56" transform="translate(5647.34375 0)"/>
     <use xlink:href="#DejaVuSans-56" transform="translate(5699.4375 0)"/>
     <use xlink:href="#DejaVuSans-4c" transform="translate(5751.53125 0)"/>
     <use xlink:href="#DejaVuSans-52" transform="translate(5779.3125 0)"/>
     <use xlink:href="#DejaVuSans-51" transform="translate(5840.5 0)"/>
     <use xlink:href="#DejaVuSans-3" transform="translate(5903.875 0)"/>
     <use xlink:href="#DejaVuSans-5a" transform="translate(5935.65625 0)"/>
     <use xlink:href="#DejaVuSans-4c" transform="translate(6017.4375 0)"/>
     <use xlink:href="#DejaVuSans-57" transform="translate(6045.21875 0)"/>
     <use xlink:href="#DejaVuSans-4b" transform="translate(6084.421875 0)"/>
     <use xlink:href="#DejaVuSans-3" transform="translate(6147.796875 0)"/>
     <use xlink:href="#DejaVuSans-51" transform="translate(6179.578125 0)"/>
     <use xlink:href="#DejaVuSans-52" transform="translate(6242.953125 0)"/>
     <use xlink:href="#DejaVuSans-3" transform="translate(6304.140625 0)"/>
     <use xlink:href="#DejaVuSans-4f" transform="translate(6335.921875 0)"/>
     <use xlink:href="#DejaVuSans-52" transform="translate(6363.703125 0)"/>
     <use xlink:href="#DejaVuSans-46" transform="translate(6424.890625 0)"/>
     <use xlink:href="#DejaVuSans-4e" transform="translate(6479.875 0)"/>
     <use xlink:href="#DejaVuSans-48" transform="translate(6534.21875 0)"/>
     <use xlink:href="#DejaVuSans-47" transform="translate(6595.75 0)"/>
     <use xlink:href="#DejaVuSans-10" transform="translate(6659.234375 0)"/>
     <use xlink:href="#DejaVuSans-47" transform="translate(6695.3125 0)"/>
     <use xlink:href="#DejaVuSans-44" transform="translate(6758.796875 0)"/>
     <use xlink:href="#DejaVuSans-57" transform="translate(6820.078125 0)"/>
     <use xlink:href="#DejaVuSans-44" transform="translate(6859.28125 0)"/>
     <use xlink:href="#DejaVuSans-3" transform="translate(6920.5625 0)"/>
     <use xlink:href="#DejaVuSans-52" transform="translate(6952.34375 0)"/>
     <use xlink:href="#DejaVuSans-55" transform="translate(7013.53125 0)"/>
     <use xlink:href="#DejaVuSans-3" transform="translate(7054.640625 0)"/>
     <use xlink:href="#DejaVuSans-50" transform="translate(7086.421875 0)"/>
     <use xlink:href="#DejaVuSans-4c" transform="translate(7183.828125 0)"/>
     <use xlink:href="#DejaVuSans-56" transform="translate(7211.609375 0)"/>
     <use xlink:href="#DejaVuSans-56" transform="translate(7263.703125 0)"/>
     <use xlink:href="#DejaVuSans-4c" transform="translate(7315.796875 0)"/>
     <use xlink:href="#DejaVuSans-52" transform="translate(7343.578125 0)"/>
     <use xlink:href="#DejaVuSans-51" transform="translate(7404.765625 0)"/>
     <use xlink:href="#DejaVuSans-3" transform="translate(7468.140625 0)"/>
     <use xlink:href="#DejaVuSans-44" transform="translate(7499.921875 0)"/>
     <use xlink:href="#DejaVuSans-58" transform="translate(7561.203125 0)"/>
     <use xlink:href="#DejaVuSans-57" transform="translate(7624.578125 0)"/>
     <use xlink:href="#DejaVuSans-4b" transform="translate(7663.78125 0)"/>
     <use xlink:href="#DejaVuSans-52" transform="translate(7727.15625 0)"/>
     <use xlink:href="#DejaVuSans-55" transform="translate(7788.34375 0)"/>
     <use xlink:href="#DejaVuSans-4c" transform="translate(7829.453125 0)"/>
     <use xlink:href="#DejaVuSans-57" transform="translate(7857.234375 0)"/>
     <use xlink:href="#DejaVuSans-5c" transform="translate(7896.4375 0)"/>
     <use xlink:href="#DejaVuSans-11" transform="translate(7941.375 0)"/>
    </g>
   </g>
   <g id="patch_6">
    <path d="M 355.95 190.155248
Q 355.95 218.316611 355.95 245.136333
" style="fill: none; stroke: #68737d; stroke-width: 1.2; stroke-linecap: round"/>
    <path d="M 357.75 241.536333
L 355.95 245.136333
L 354.15 241.536333
z
" style="fill: #68737d; stroke: #68737d; stroke-width: 1.2; stroke-linecap: round"/>
   </g>
  </g>
 </g>
 <defs>
  <clipPath id="p1f69d3e10b">
   <rect x="7.2" y="7.2" width="697.5" height="376.992"/>
  </clipPath>
 </defs>
</svg>
