<?xml version="1.0" encoding="utf-8" standalone="no"?>
<!DOCTYPE svg PUBLIC "-//W3C//DTD SVG 1.1//EN"
  "http://www.w3.org/Graphics/SVG/1.1/DTD/svg11.dtd">
<svg xmlns:xlink="http://www.w3.org/1999/xlink" width="670.79952pt" height="310.79952pt" viewBox="0 0 670.79952 310.79952" xmlns="http://www.w3.org/2000/svg" version="1.1">
 <metadata>
  <rdf:RDF xmlns:dc="http://purl.org/dc/elements/1.1/" xmlns:cc="http://creativecommons.org/ns#" xmlns:rdf="http://www.w3.org/1999/02/22-rdf-syntax-ns#">
   <cc:Work>
    <dc:type rdf:resource="http://purl.org/dc/dcmitype/StillImage"/>
    <dc:format>image/svg+xml</dc:format>
    <dc:creator>
     <cc:Agent>
      <dc:title>QMLforArtemisIV make_research_figures.py</dc:title>
     </cc:Agent>
    </dc:creator>
   </cc:Work>
  </rdf:RDF>
 </metadata>
 <defs>
  <style type="text/css">*{stroke-linejoin: round; stroke-linecap: butt}</style>
 </defs>
 <g id="figure_1">
  <g id="patch_1">
   <path d="M 0 310.79952
L 670.79952 310.79952
L 670.79952 0
L 0 0
z
" style="fill: #ffffff"/>
  </g>
  <g id="axes_1">
   <g id="patch_2">
    <path d="M 39.653281 287.59952
L 663.59952 287.59952
L 663.59952 22.318125
L 39.653281 22.318125
z
" style="fill: #ffffff"/>
   </g>
   <g id="matplotlib.axis_1">
    <g id="xtick_1">
     <g id="line2d_1">
      <path d="M 84.455745 287.59952
L 84.455745 22.318125
" clip-path="url(#p9f271a87c5)" style="fill: none; stroke: #d7dce1; stroke-width: 0.6; stroke-linecap: square"/>
     </g>
     <g id="line2d_2">
      <defs>
       <path id="m4fb4cdcd68" d="M 0 0
L 0 3.5
" style="stroke: #000000; stroke-width: 0.8"/>
      </defs>
      <g>
       <use xlink:href="#m4fb4cdcd68" x="84.455745" y="287.59952" style="stroke: #000000; stroke-width: 0.8"/>
      </g>
     </g>
     <g id="text_1">
      <!-- G01 -->
      <g transform="translate(75.242698 301.437411) scale(0.09 -0.09)">
       <defs>
        <path id="DejaVuSans-2a" d="M 3809 666
L 3809 1919
L 2778 1919
L 2778 2438
L 4434 2438
L 4434 434
Q 4069 175 3628 42
Q 3188 -91 2688 -91
Q 1594 -91 976 548
Q 359 1188 359 2328
Q 359 3472 976 4111
Q 1594 4750 2688 4750
Q 3144 4750 3555 4637
Q 3966 4525 4313 4306
L 4313 3634
Q 3963 3931 3569 4081
Q 3175 4231 2741 4231
Q 1884 4231 1454 3753
Q 1025 3275 1025 2328
Q 1025 1384 1454 906
Q 1884 428 2741 428
Q 3075 428 3337 486
Q 3600 544 3809 666
z
" transform="scale(0.015625)"/>
        <path id="DejaVuSans-13" d="M 2034 4250
Q 1547 4250 1301 3770
Q 1056 3291 1056 2328
Q 1056 1369 1301 889
Q 1547 409 2034 409
Q 2525 409 2770 889
Q 3016 1369 3016 2328
Q 3016 3291 2770 3770
Q 2525 4250 2034 4250
z
M 2034 4750
Q 2819 4750 3233 4129
Q 3647 3509 3647 2328
Q 3647 1150 3233 529
Q 2819 -91 2034 -91
Q 1250 -91 836 529
Q 422 1150 422 2328
Q 422 3509 836 4129
Q 1250 4750 2034 4750
z
" transform="scale(0.015625)"/>
        <path id="DejaVuSans-14" d="M 794 531
L 1825 531
L 1825 4091
L 703 3866
L 703 4441
L 1819 4666
L 2450 4666
L 2450 531
L 3481 531
L 3481 0
L 794 0
L 794 531
z
" transform="scale(0.015625)"/>
       </defs>
       <use xlink:href="#DejaVuSans-2a"/>
       <use xlink:href="#DejaVuSans-13" transform="translate(77.484375 0)"/>
       <use xlink:href="#DejaVuSans-14" transform="translate(141.109375 0)"/>
      </g>
     </g>
    </g>
    <g id="xtick_2">
     <g id="line2d_3">
      <path d="M 125.558923 287.59952
L 125.558923 22.318125
" clip-path="url(#p9f271a87c5)" style="fill: none; stroke: #d7dce1; stroke-width: 0.6; stroke-linecap: square"/>
     </g>
     <g id="line2d_4">
      <g>
       <use xlink:href="#m4fb4cdcd68" x="125.558923" y="287.59952" style="stroke: #000000; stroke-width: 0.8"/>
      </g>
     </g>
     <g id="text_2">
      <!-- G02 -->
      <g transform="translate(116.345876 301.437411) scale(0.09 -0.09)">
       <defs>
        <path id="DejaVuSans-15" d="M 1228 531
L 3431 531
L 3431 0
L 469 0
L 469 531
Q 828 903 1448 1529
Q 2069 2156 2228 2338
Q 2531 2678 2651 2914
Q 2772 3150 2772 3378
Q 2772 3750 2511 3984
Q 2250 4219 1831 4219
Q 1534 4219 1204 4116
Q 875 4013 500 3803
L 500 4441
Q 881 4594 1212 4672
Q 1544 4750 1819 4750
Q 2544 4750 2975 4387
Q 3406 4025 3406 3419
Q 3406 3131 3298 2873
Q 3191 2616 2906 2266
Q 2828 2175 2409 1742
Q 1991 1309 1228 531
z
" transform="scale(0.015625)"/>
       </defs>
       <use xlink:href="#DejaVuSans-2a"/>
       <use xlink:href="#DejaVuSans-13" transform="translate(77.484375 0)"/>
       <use xlink:href="#DejaVuSans-15" transform="translate(141.109375 0)"/>
      </g>
     </g>
    </g>
    <g id="xtick_3">
     <g id="line2d_5">
      <path d="M 166.662101 287.59952
L 166.662101 22.318125
" clip-path="url(#p9f271a87c5)" style="fill: none; stroke: #d7dce1; stroke-width: 0.6; stroke-linecap: square"/>
     </g>
     <g id="line2d_6">
      <g>
       <use xlink:href="#m4fb4cdcd68" x="166.662101" y="287.59952" style="stroke: #000000; stroke-width: 0.8"/>
      </g>
     </g>
     <g id="text_3">
      <!-- G03 -->
      <g transform="translate(157.449054 301.437411) scale(0.09 -0.09)">
       <defs>
        <path id="DejaVuSans-16" d="M 2597 2516
Q 3050 2419 3304 2112
Q 3559 1806 3559 1356
Q 3559 666 3084 287
Q 2609 -91 1734 -91
Q 1441 -91 1130 -33
Q 819 25 488 141
L 488 750
Q 750 597 1062 519
Q 1375 441 1716 441
Q 2309 441 2620 675
Q 2931 909 2931 1356
Q 2931 1769 2642 2001
Q 2353 2234 1838 2234
L 1294 2234
L 1294 2753
L 1863 2753
Q 2328 2753 2575 2939
Q 2822 3125 2822 3475
Q 2822 3834 2567 4026
Q 2313 4219 1838 4219
Q 1578 4219 1281 4162
Q 984 4106 628 3988
L 628 4550
Q 988 4650 1302 4700
Q 1616 4750 1894 4750
Q 2613 4750 3031 4423
Q 3450 4097 3450 3541
Q 3450 3153 3228 2886
Q 3006 2619 2597 2516
z
" transform="scale(0.015625)"/>
       </defs>
       <use xlink:href="#DejaVuSans-2a"/>
       <use xlink:href="#DejaVuSans-13" transform="translate(77.484375 0)"/>
       <use xlink:href="#DejaVuSans-16" transform="translate(141.109375 0)"/>
      </g>
     </g>
    </g>
    <g id="xtick_4">
     <g id="line2d_7">
      <path d="M 207.765278 287.59952
L 207.765278 22.318125
" clip-path="url(#p9f271a87c5)" style="fill: none; stroke: #d7dce1; stroke-width: 0.6; stroke-linecap: square"/>
     </g>
     <g id="line2d_8">
      <g>
       <use xlink:href="#m4fb4cdcd68" x="207.765278" y="287.59952" style="stroke: #000000; stroke-width: 0.8"/>
      </g>
     </g>
     <g id="text_4">
      <!-- G04 -->
      <g transform="translate(198.552232 301.437411) scale(0.09 -0.09)">
       <defs>
        <path id="DejaVuSans-17" d="M 2419 4116
L 825 1625
L 2419 1625
L 2419 4116
z
M 2253 4666
L 3047 4666
L 3047 1625
L 3713 1625
L 3713 1100
L 3047 1100
L 3047 0
L 2419 0
L 2419 1100
L 313 1100
L 313 1709
L 2253 4666
z
" transform="scale(0.015625)"/>
       </defs>
       <use xlink:href="#DejaVuSans-2a"/>
       <use xlink:href="#DejaVuSans-13" transform="translate(77.484375 0)"/>
       <use xlink:href="#DejaVuSans-17" transform="translate(141.109375 0)"/>
      </g>
     </g>
    </g>
    <g id="xtick_5">
     <g id="line2d_9">
      <path d="M 248.868456 287.59952
L 248.868456 22.318125
" clip-path="url(#p9f271a87c5)" style="fill: none; stroke: #d7dce1; stroke-width: 0.6; stroke-linecap: square"/>
     </g>
     <g id="line2d_10">
      <g>
       <use xlink:href="#m4fb4cdcd68" x="248.868456" y="287.59952" style="stroke: #000000; stroke-width: 0.8"/>
      </g>
     </g>
     <g id="text_5">
      <!-- G05 -->
      <g transform="translate(239.655409 301.437411) scale(0.09 -0.09)">
       <defs>
        <path id="DejaVuSans-18" d="M 691 4666
L 3169 4666
L 3169 4134
L 1269 4134
L 1269 2991
Q 1406 3038 1543 3061
Q 1681 3084 1819 3084
Q 2600 3084 3056 2656
Q 3513 2228 3513 1497
Q 3513 744 3044 326
Q 2575 -91 1722 -91
Q 1428 -91 1123 -41
Q 819 9 494 109
L 494 744
Q 775 591 1075 516
Q 1375 441 1709 441
Q 2250 441 2565 725
Q 2881 1009 2881 1497
Q 2881 1984 2565 2268
Q 2250 2553 1709 2553
Q 1456 2553 1204 2497
Q 953 2441 691 2322
L 691 4666
z
" transform="scale(0.015625)"/>
       </defs>
       <use xlink:href="#DejaVuSans-2a"/>
       <use xlink:href="#DejaVuSans-13" transform="translate(77.484375 0)"/>
       <use xlink:href="#DejaVuSans-18" transform="translate(141.109375 0)"/>
      </g>
     </g>
    </g>
    <g id="xtick_6">
     <g id="line2d_11">
      <path d="M 289.971634 287.59952
L 289.971634 22.318125
" clip-path="url(#p9f271a87c5)" style="fill: none; stroke: #d7dce1; stroke-width: 0.6; stroke-linecap: square"/>
     </g>
     <g id="line2d_12">
      <g>
       <use xlink:href="#m4fb4cdcd68" x="289.971634" y="287.59952" style="stroke: #000000; stroke-width: 0.8"/>
      </g>
     </g>
     <g id="text_6">
      <!-- G06 -->
      <g transform="translate(280.758587 301.437411) scale(0.09 -0.09)">
       <defs>
        <path id="DejaVuSans-19" d="M 2113 2584
Q 1688 2584 1439 2293
Q 1191 2003 1191 1497
Q 1191 994 1439 701
Q 1688 409 2113 409
Q 2538 409 2786 701
Q 3034 994 3034 1497
Q 3034 2003 2786 2293
Q 2538 2584 2113 2584
z
M 3366 4563
L 3366 3988
Q 3128 4100 2886 4159
Q 2644 4219 2406 4219
Q 1781 4219 1451 3797
Q 1122 3375 1075 2522
Q 1259 2794 1537 2939
Q 1816 3084 2150 3084
Q 2853 3084 3261 2657
Q 3669 2231 3669 1497
Q 3669 778 3244 343
Q 2819 -91 2113 -91
Q 1303 -91 875 529
Q 447 1150 447 2328
Q 447 3434 972 4092
Q 1497 4750 2381 4750
Q 2619 4750 2861 4703
Q 3103 4656 3366 4563
z
" transform="scale(0.015625)"/>
       </defs>
       <use xlink:href="#DejaVuSans-2a"/>
       <use xlink:href="#DejaVuSans-13" transform="translate(77.484375 0)"/>
       <use xlink:href="#DejaVuSans-19" transform="translate(141.109375 0)"/>
      </g>
     </g>
    </g>
    <g id="xtick_7">
     <g id="line2d_13">
      <path d="M 331.074812 287.59952
L 331.074812 22.318125
" clip-path="url(#p9f271a87c5)" style="fill: none; stroke: #d7dce1; stroke-width: 0.6; stroke-linecap: square"/>
     </g>
     <g id="line2d_14">
      <g>
       <use xlink:href="#m4fb4cdcd68" x="331.074812" y="287.59952" style="stroke: #000000; stroke-width: 0.8"/>
      </g>
     </g>
     <g id="text_7">
      <!-- G07 -->
      <g transform="translate(321.861765 301.437411) scale(0.09 -0.09)">
       <defs>
        <path id="DejaVuSans-1a" d="M 525 4666
L 3525 4666
L 3525 4397
L 1831 0
L 1172 0
L 2766 4134
L 525 4134
L 525 4666
z
" transform="scale(0.015625)"/>
       </defs>
       <use xlink:href="#DejaVuSans-2a"/>
       <use xlink:href="#DejaVuSans-13" transform="translate(77.484375 0)"/>
       <use xlink:href="#DejaVuSans-1a" transform="translate(141.109375 0)"/>
      </g>
     </g>
    </g>
    <g id="xtick_8">
     <g id="line2d_15">
      <path d="M 372.17799 287.59952
L 372.17799 22.318125
" clip-path="url(#p9f271a87c5)" style="fill: none; stroke: #d7dce1; stroke-width: 0.6; stroke-linecap: square"/>
     </g>
     <g id="line2d_16">
      <g>
       <use xlink:href="#m4fb4cdcd68" x="372.17799" y="287.59952" style="stroke: #000000; stroke-width: 0.8"/>
      </g>
     </g>
     <g id="text_8">
      <!-- G08 -->
      <g transform="translate(362.964943 301.437411) scale(0.09 -0.09)">
       <defs>
        <path id="DejaVuSans-1b" d="M 2034 2216
Q 1584 2216 1326 1975
Q 1069 1734 1069 1313
Q 1069 891 1326 650
Q 1584 409 2034 409
Q 2484 409 2743 651
Q 3003 894 3003 1313
Q 3003 1734 2745 1975
Q 2488 2216 2034 2216
z
M 1403 2484
Q 997 2584 770 2862
Q 544 3141 544 3541
Q 544 4100 942 4425
Q 1341 4750 2034 4750
Q 2731 4750 3128 4425
Q 3525 4100 3525 3541
Q 3525 3141 3298 2862
Q 3072 2584 2669 2484
Q 3125 2378 3379 2068
Q 3634 1759 3634 1313
Q 3634 634 3220 271
Q 2806 -91 2034 -91
Q 1263 -91 848 271
Q 434 634 434 1313
Q 434 1759 690 2068
Q 947 2378 1403 2484
z
M 1172 3481
Q 1172 3119 1398 2916
Q 1625 2713 2034 2713
Q 2441 2713 2670 2916
Q 2900 3119 2900 3481
Q 2900 3844 2670 4047
Q 2441 4250 2034 4250
Q 1625 4250 1398 4047
Q 1172 3844 1172 3481
z
" transform="scale(0.015625)"/>
       </defs>
       <use xlink:href="#DejaVuSans-2a"/>
       <use xlink:href="#DejaVuSans-13" transform="translate(77.484375 0)"/>
       <use xlink:href="#DejaVuSans-1b" transform="translate(141.109375 0)"/>
      </g>
     </g>
    </g>
    <g id="xtick_9">
     <g id="line2d_17">
      <path d="M 413.281167 287.59952
L 413.281167 22.318125
" clip-path="url(#p9f271a87c5)" style="fill: none; stroke: #d7dce1; stroke-width: 0.6; stroke-linecap: square"/>
     </g>
     <g id="line2d_18">
      <g>
       <use xlink:href="#m4fb4cdcd68" x="413.281167" y="287.59952" style="stroke: #000000; stroke-width: 0.8"/>
      </g>
     </g>
     <g id="text_9">
      <!-- G09 -->
      <g transform="translate(404.06812 301.437411) scale(0.09 -0.09)">
       <defs>
        <path id="DejaVuSans-1c" d="M 703 97
L 703 672
Q 941 559 1184 500
Q 1428 441 1663 441
Q 2288 441 2617 861
Q 2947 1281 2994 2138
Q 2813 1869 2534 1725
Q 2256 1581 1919 1581
Q 1219 1581 811 2004
Q 403 2428 403 3163
Q 403 3881 828 4315
Q 1253 4750 1959 4750
Q 2769 4750 3195 4129
Q 3622 3509 3622 2328
Q 3622 1225 3098 567
Q 2575 -91 1691 -91
Q 1453 -91 1209 -44
Q 966 3 703 97
z
M 1959 2075
Q 2384 2075 2632 2365
Q 2881 2656 2881 3163
Q 2881 3666 2632 3958
Q 2384 4250 1959 4250
Q 1534 4250 1286 3958
Q 1038 3666 1038 3163
Q 1038 2656 1286 2365
Q 1534 2075 1959 2075
z
" transform="scale(0.015625)"/>
       </defs>
       <use xlink:href="#DejaVuSans-2a"/>
       <use xlink:href="#DejaVuSans-13" transform="translate(77.484375 0)"/>
       <use xlink:href="#DejaVuSans-1c" transform="translate(141.109375 0)"/>
      </g>
     </g>
    </g>
    <g id="xtick_10">
     <g id="line2d_19">
      <path d="M 454.384345 287.59952
L 454.384345 22.318125
" clip-path="url(#p9f271a87c5)" style="fill: none; stroke: #d7dce1; stroke-width: 0.6; stroke-linecap: square"/>
     </g>
     <g id="line2d_20">
      <g>
       <use xlink:href="#m4fb4cdcd68" x="454.384345" y="287.59952" style="stroke: #000000; stroke-width: 0.8"/>
      </g>
     </g>
     <g id="text_10">
      <!-- G10 -->
      <g transform="translate(445.171298 301.437411) scale(0.09 -0.09)">
       <use xlink:href="#DejaVuSans-2a"/>
       <use xlink:href="#DejaVuSans-14" transform="translate(77.484375 0)"/>
       <use xlink:href="#DejaVuSans-13" transform="translate(141.109375 0)"/>
      </g>
     </g>
    </g>
    <g id="xtick_11">
     <g id="line2d_21">
      <path d="M 495.487523 287.59952
L 495.487523 22.318125
" clip-path="url(#p9f271a87c5)" style="fill: none; stroke: #d7dce1; stroke-width: 0.6; stroke-linecap: square"/>
     </g>
     <g id="line2d_22">
      <g>
       <use xlink:href="#m4fb4cdcd68" x="495.487523" y="287.59952" style="stroke: #000000; stroke-width: 0.8"/>
      </g>
     </g>
     <g id="text_11">
      <!-- G11 -->
      <g transform="translate(486.274476 301.437411) scale(0.09 -0.09)">
       <use xlink:href="#DejaVuSans-2a"/>
       <use xlink:href="#DejaVuSans-14" transform="translate(77.484375 0)"/>
       <use xlink:href="#DejaVuSans-14" transform="translate(141.109375 0)"/>
      </g>
     </g>
    </g>
    <g id="xtick_12">
     <g id="line2d_23">
      <path d="M 536.590701 287.59952
L 536.590701 22.318125
" clip-path="url(#p9f271a87c5)" style="fill: none; stroke: #d7dce1; stroke-width: 0.6; stroke-linecap: square"/>
     </g>
     <g id="line2d_24">
      <g>
       <use xlink:href="#m4fb4cdcd68" x="536.590701" y="287.59952" style="stroke: #000000; stroke-width: 0.8"/>
      </g>
     </g>
     <g id="text_12">
      <!-- G12 -->
      <g transform="translate(527.377654 301.437411) scale(0.09 -0.09)">
       <use xlink:href="#DejaVuSans-2a"/>
       <use xlink:href="#DejaVuSans-14" transform="translate(77.484375 0)"/>
       <use xlink:href="#DejaVuSans-15" transform="translate(141.109375 0)"/>
      </g>
     </g>
    </g>
    <g id="xtick_13">
     <g id="line2d_25">
      <path d="M 577.693878 287.59952
L 577.693878 22.318125
" clip-path="url(#p9f271a87c5)" style="fill: none; stroke: #d7dce1; stroke-width: 0.6; stroke-linecap: square"/>
     </g>
     <g id="line2d_26">
      <g>
       <use xlink:href="#m4fb4cdcd68" x="577.693878" y="287.59952" style="stroke: #000000; stroke-width: 0.8"/>
      </g>
     </g>
     <g id="text_13">
      <!-- G13 -->
      <g transform="translate(568.480832 301.437411) scale(0.09 -0.09)">
       <use xlink:href="#DejaVuSans-2a"/>
       <use xlink:href="#DejaVuSans-14" transform="translate(77.484375 0)"/>
       <use xlink:href="#DejaVuSans-16" transform="translate(141.109375 0)"/>
      </g>
     </g>
    </g>
    <g id="xtick_14">
     <g id="line2d_27">
      <path d="M 618.797056 287.59952
L 618.797056 22.318125
" clip-path="url(#p9f271a87c5)" style="fill: none; stroke: #d7dce1; stroke-width: 0.6; stroke-linecap: square"/>
     </g>
     <g id="line2d_28">
      <g>
       <use xlink:href="#m4fb4cdcd68" x="618.797056" y="287.59952" style="stroke: #000000; stroke-width: 0.8"/>
      </g>
     </g>
     <g id="text_14">
      <!-- G14 -->
      <g transform="translate(609.584009 301.437411) scale(0.09 -0.09)">
       <use xlink:href="#DejaVuSans-2a"/>
       <use xlink:href="#DejaVuSans-14" transform="translate(77.484375 0)"/>
       <use xlink:href="#DejaVuSans-17" transform="translate(141.109375 0)"/>
      </g>
     </g>
    </g>
   </g>
   <g id="matplotlib.axis_2">
    <g id="ytick_1">
     <g id="line2d_29">
      <path d="M 39.653281 287.59952
L 663.59952 287.59952
" clip-path="url(#p9f271a87c5)" style="fill: none; stroke: #d7dce1; stroke-width: 0.6; stroke-linecap: square"/>
     </g>
     <g id="line2d_30">
      <defs>
       <path id="m12a980ddc3" d="M 0 0
L -3.5 0
" style="stroke: #000000; stroke-width: 0.8"/>
      </defs>
      <g>
       <use xlink:href="#m12a980ddc3" x="39.653281" y="287.59952" style="stroke: #000000; stroke-width: 0.8"/>
      </g>
     </g>
     <g id="text_15">
      <!-- 0 -->
      <g transform="translate(26.927031 291.018465) scale(0.09 -0.09)">
       <use xlink:href="#DejaVuSans-13"/>
      </g>
     </g>
    </g>
    <g id="ytick_2">
     <g id="line2d_31">
      <path d="M 39.653281 232.889917
L 663.59952 232.889917
" clip-path="url(#p9f271a87c5)" style="fill: none; stroke: #d7dce1; stroke-width: 0.6; stroke-linecap: square"/>
     </g>
     <g id="line2d_32">
      <g>
       <use xlink:href="#m12a980ddc3" x="39.653281" y="232.889917" style="stroke: #000000; stroke-width: 0.8"/>
      </g>
     </g>
     <g id="text_16">
      <!-- 10 -->
      <g transform="translate(21.200781 236.308862) scale(0.09 -0.09)">
       <use xlink:href="#DejaVuSans-14"/>
       <use xlink:href="#DejaVuSans-13" transform="translate(63.625 0)"/>
      </g>
     </g>
    </g>
    <g id="ytick_3">
     <g id="line2d_33">
      <path d="M 39.653281 178.180314
L 663.59952 178.180314
" clip-path="url(#p9f271a87c5)" style="fill: none; stroke: #d7dce1; stroke-width: 0.6; stroke-linecap: square"/>
     </g>
     <g id="line2d_34">
      <g>
       <use xlink:href="#m12a980ddc3" x="39.653281" y="178.180314" style="stroke: #000000; stroke-width: 0.8"/>
      </g>
     </g>
     <g id="text_17">
      <!-- 20 -->
      <g transform="translate(21.200781 181.599259) scale(0.09 -0.09)">
       <use xlink:href="#DejaVuSans-15"/>
       <use xlink:href="#DejaVuSans-13" transform="translate(63.625 0)"/>
      </g>
     </g>
    </g>
    <g id="ytick_4">
     <g id="line2d_35">
      <path d="M 39.653281 123.47071
L 663.59952 123.47071
" clip-path="url(#p9f271a87c5)" style="fill: none; stroke: #d7dce1; stroke-width: 0.6; stroke-linecap: square"/>
     </g>
     <g id="line2d_36">
      <g>
       <use xlink:href="#m12a980ddc3" x="39.653281" y="123.47071" style="stroke: #000000; stroke-width: 0.8"/>
      </g>
     </g>
     <g id="text_18">
      <!-- 30 -->
      <g transform="translate(21.200781 126.889656) scale(0.09 -0.09)">
       <use xlink:href="#DejaVuSans-16"/>
       <use xlink:href="#DejaVuSans-13" transform="translate(63.625 0)"/>
      </g>
     </g>
    </g>
    <g id="ytick_5">
     <g id="line2d_37">
      <path d="M 39.653281 68.761107
L 663.59952 68.761107
" clip-path="url(#p9f271a87c5)" style="fill: none; stroke: #d7dce1; stroke-width: 0.6; stroke-linecap: square"/>
     </g>
     <g id="line2d_38">
      <g>
       <use xlink:href="#m12a980ddc3" x="39.653281" y="68.761107" style="stroke: #000000; stroke-width: 0.8"/>
      </g>
     </g>
     <g id="text_19">
      <!-- 40 -->
      <g transform="translate(21.200781 72.180052) scale(0.09 -0.09)">
       <use xlink:href="#DejaVuSans-17"/>
       <use xlink:href="#DejaVuSans-13" transform="translate(63.625 0)"/>
      </g>
     </g>
    </g>
    <g id="text_20">
     <!-- Latest generation attempt (s per 500 rows) -->
     <g transform="translate(14.798437 263.258041) rotate(-90) scale(0.1 -0.1)">
      <defs>
       <path id="DejaVuSans-2f" d="M 628 4666
L 1259 4666
L 1259 531
L 3531 531
L 3531 0
L 628 0
L 628 4666
z
" transform="scale(0.015625)"/>
       <path id="DejaVuSans-44" d="M 2194 1759
Q 1497 1759 1228 1600
Q 959 1441 959 1056
Q 959 750 1161 570
Q 1363 391 1709 391
Q 2188 391 2477 730
Q 2766 1069 2766 1631
L 2766 1759
L 2194 1759
z
M 3341 1997
L 3341 0
L 2766 0
L 2766 531
Q 2569 213 2275 61
Q 1981 -91 1556 -91
Q 1019 -91 701 211
Q 384 513 384 1019
Q 384 1609 779 1909
Q 1175 2209 1959 2209
L 2766 2209
L 2766 2266
Q 2766 2663 2505 2880
Q 2244 3097 1772 3097
Q 1472 3097 1187 3025
Q 903 2953 641 2809
L 641 3341
Q 956 3463 1253 3523
Q 1550 3584 1831 3584
Q 2591 3584 2966 3190
Q 3341 2797 3341 1997
z
" transform="scale(0.015625)"/>
       <path id="DejaVuSans-57" d="M 1172 4494
L 1172 3500
L 2356 3500
L 2356 3053
L 1172 3053
L 1172 1153
Q 1172 725 1289 603
Q 1406 481 1766 481
L 2356 481
L 2356 0
L 1766 0
Q 1100 0 847 248
Q 594 497 594 1153
L 594 3053
L 172 3053
L 172 3500
L 594 3500
L 594 4494
L 1172 4494
z
" transform="scale(0.015625)"/>
       <path id="DejaVuSans-48" d="M 3597 1894
L 3597 1613
L 953 1613
Q 991 1019 1311 708
Q 1631 397 2203 397
Q 2534 397 2845 478
Q 3156 559 3463 722
L 3463 178
Q 3153 47 2828 -22
Q 2503 -91 2169 -91
Q 1331 -91 842 396
Q 353 884 353 1716
Q 353 2575 817 3079
Q 1281 3584 2069 3584
Q 2775 3584 3186 3129
Q 3597 2675 3597 1894
z
M 3022 2063
Q 3016 2534 2758 2815
Q 2500 3097 2075 3097
Q 1594 3097 1305 2825
Q 1016 2553 972 2059
L 3022 2063
z
" transform="scale(0.015625)"/>
       <path id="DejaVuSans-56" d="M 2834 3397
L 2834 2853
Q 2591 2978 2328 3040
Q 2066 3103 1784 3103
Q 1356 3103 1142 2972
Q 928 2841 928 2578
Q 928 2378 1081 2264
Q 1234 2150 1697 2047
L 1894 2003
Q 2506 1872 2764 1633
Q 3022 1394 3022 966
Q 3022 478 2636 193
Q 2250 -91 1575 -91
Q 1294 -91 989 -36
Q 684 19 347 128
L 347 722
Q 666 556 975 473
Q 1284 391 1588 391
Q 1994 391 2212 530
Q 2431 669 2431 922
Q 2431 1156 2273 1281
Q 2116 1406 1581 1522
L 1381 1569
Q 847 1681 609 1914
Q 372 2147 372 2553
Q 372 3047 722 3315
Q 1072 3584 1716 3584
Q 2034 3584 2315 3537
Q 2597 3491 2834 3397
z
" transform="scale(0.015625)"/>
       <path id="DejaVuSans-3" transform="scale(0.015625)"/>
       <path id="DejaVuSans-4a" d="M 2906 1791
Q 2906 2416 2648 2759
Q 2391 3103 1925 3103
Q 1463 3103 1205 2759
Q 947 2416 947 1791
Q 947 1169 1205 825
Q 1463 481 1925 481
Q 2391 481 2648 825
Q 2906 1169 2906 1791
z
M 3481 434
Q 3481 -459 3084 -895
Q 2688 -1331 1869 -1331
Q 1566 -1331 1297 -1286
Q 1028 -1241 775 -1147
L 775 -588
Q 1028 -725 1275 -790
Q 1522 -856 1778 -856
Q 2344 -856 2625 -561
Q 2906 -266 2906 331
L 2906 616
Q 2728 306 2450 153
Q 2172 0 1784 0
Q 1141 0 747 490
Q 353 981 353 1791
Q 353 2603 747 3093
Q 1141 3584 1784 3584
Q 2172 3584 2450 3431
Q 2728 3278 2906 2969
L 2906 3500
L 3481 3500
L 3481 434
z
" transform="scale(0.015625)"/>
       <path id="DejaVuSans-51" d="M 3513 2113
L 3513 0
L 2938 0
L 2938 2094
Q 2938 2591 2744 2837
Q 2550 3084 2163 3084
Q 1697 3084 1428 2787
Q 1159 2491 1159 1978
L 1159 0
L 581 0
L 581 3500
L 1159 3500
L 1159 2956
Q 1366 3272 1645 3428
Q 1925 3584 2291 3584
Q 2894 3584 3203 3211
Q 3513 2838 3513 2113
z
" transform="scale(0.015625)"/>
       <path id="DejaVuSans-55" d="M 2631 2963
Q 2534 3019 2420 3045
Q 2306 3072 2169 3072
Q 1681 3072 1420 2755
Q 1159 2438 1159 1844
L 1159 0
L 581 0
L 581 3500
L 1159 3500
L 1159 2956
Q 1341 3275 1631 3429
Q 1922 3584 2338 3584
Q 2397 3584 2469 3576
Q 2541 3569 2628 3553
L 2631 2963
z
" transform="scale(0.015625)"/>
       <path id="DejaVuSans-4c" d="M 603 3500
L 1178 3500
L 1178 0
L 603 0
L 603 3500
z
M 603 4863
L 1178 4863
L 1178 4134
L 603 4134
L 603 4863
z
" transform="scale(0.015625)"/>
       <path id="DejaVuSans-52" d="M 1959 3097
Q 1497 3097 1228 2736
Q 959 2375 959 1747
Q 959 1119 1226 758
Q 1494 397 1959 397
Q 2419 397 2687 759
Q 2956 1122 2956 1747
Q 2956 2369 2687 2733
Q 2419 3097 1959 3097
z
M 1959 3584
Q 2709 3584 3137 3096
Q 3566 2609 3566 1747
Q 3566 888 3137 398
Q 2709 -91 1959 -91
Q 1206 -91 779 398
Q 353 888 353 1747
Q 353 2609 779 3096
Q 1206 3584 1959 3584
z
" transform="scale(0.015625)"/>
       <path id="DejaVuSans-50" d="M 3328 2828
Q 3544 3216 3844 3400
Q 4144 3584 4550 3584
Q 5097 3584 5394 3201
Q 5691 2819 5691 2113
L 5691 0
L 5113 0
L 5113 2094
Q 5113 2597 4934 2840
Q 4756 3084 4391 3084
Q 3944 3084 3684 2787
Q 3425 2491 3425 1978
L 3425 0
L 2847 0
L 2847 2094
Q 2847 2600 2669 2842
Q 2491 3084 2119 3084
Q 1678 3084 1418 2786
Q 1159 2488 1159 1978
L 1159 0
L 581 0
L 581 3500
L 1159 3500
L 1159 2956
Q 1356 3278 1631 3431
Q 1906 3584 2284 3584
Q 2666 3584 2933 3390
Q 3200 3197 3328 2828
z
" transform="scale(0.015625)"/>
       <path id="DejaVuSans-53" d="M 1159 525
L 1159 -1331
L 581 -1331
L 581 3500
L 1159 3500
L 1159 2969
Q 1341 3281 1617 3432
Q 1894 3584 2278 3584
Q 2916 3584 3314 3078
Q 3713 2572 3713 1747
Q 3713 922 3314 415
Q 2916 -91 2278 -91
Q 1894 -91 1617 61
Q 1341 213 1159 525
z
M 3116 1747
Q 3116 2381 2855 2742
Q 2594 3103 2138 3103
Q 1681 3103 1420 2742
Q 1159 2381 1159 1747
Q 1159 1113 1420 752
Q 1681 391 2138 391
Q 2594 391 2855 752
Q 3116 1113 3116 1747
z
" transform="scale(0.015625)"/>
       <path id="DejaVuSans-b" d="M 1984 4856
Q 1566 4138 1362 3434
Q 1159 2731 1159 2009
Q 1159 1288 1364 580
Q 1569 -128 1984 -844
L 1484 -844
Q 1016 -109 783 600
Q 550 1309 550 2009
Q 550 2706 781 3412
Q 1013 4119 1484 4856
L 1984 4856
z
" transform="scale(0.015625)"/>
       <path id="DejaVuSans-5a" d="M 269 3500
L 844 3500
L 1563 769
L 2278 3500
L 2956 3500
L 3675 769
L 4391 3500
L 4966 3500
L 4050 0
L 3372 0
L 2619 2869
L 1863 0
L 1184 0
L 269 3500
z
" transform="scale(0.015625)"/>
       <path id="DejaVuSans-c" d="M 513 4856
L 1013 4856
Q 1481 4119 1714 3412
Q 1947 2706 1947 2009
Q 1947 1309 1714 600
Q 1481 -109 1013 -844
L 513 -844
Q 928 -128 1133 580
Q 1338 1288 1338 2009
Q 1338 2731 1133 3434
Q 928 4138 513 4856
z
" transform="scale(0.015625)"/>
      </defs>
      <use xlink:href="#DejaVuSans-2f"/>
      <use xlink:href="#DejaVuSans-44" transform="translate(55.71875 0)"/>
      <use xlink:href="#DejaVuSans-57" transform="translate(117 0)"/>
      <use xlink:href="#DejaVuSans-48" transform="translate(156.203125 0)"/>
      <use xlink:href="#DejaVuSans-56" transform="translate(217.734375 0)"/>
      <use xlink:href="#DejaVuSans-57" transform="translate(269.828125 0)"/>
      <use xlink:href="#DejaVuSans-3" transform="translate(309.03125 0)"/>
      <use xlink:href="#DejaVuSans-4a" transform="translate(340.8125 0)"/>
      <use xlink:href="#DejaVuSans-48" transform="translate(404.296875 0)"/>
      <use xlink:href="#DejaVuSans-51" transform="translate(465.828125 0)"/>
      <use xlink:href="#DejaVuSans-48" transform="translate(529.203125 0)"/>
      <use xlink:href="#DejaVuSans-55" transform="translate(590.734375 0)"/>
      <use xlink:href="#DejaVuSans-44" transform="translate(631.84375 0)"/>
      <use xlink:href="#DejaVuSans-57" transform="translate(693.125 0)"/>
      <use xlink:href="#DejaVuSans-4c" transform="translate(732.328125 0)"/>
      <use xlink:href="#DejaVuSans-52" transform="translate(760.109375 0)"/>
      <use xlink:href="#DejaVuSans-51" transform="translate(821.296875 0)"/>
      <use xlink:href="#DejaVuSans-3" transform="translate(884.671875 0)"/>
      <use xlink:href="#DejaVuSans-44" transform="translate(916.453125 0)"/>
      <use xlink:href="#DejaVuSans-57" transform="translate(977.734375 0)"/>
      <use xlink:href="#DejaVuSans-57" transform="translate(1016.9375 0)"/>
      <use xlink:href="#DejaVuSans-48" transform="translate(1056.140625 0)"/>
      <use xlink:href="#DejaVuSans-50" transform="translate(1117.671875 0)"/>
      <use xlink:href="#DejaVuSans-53" transform="translate(1215.078125 0)"/>
      <use xlink:href="#DejaVuSans-57" transform="translate(1278.5625 0)"/>
      <use xlink:href="#DejaVuSans-3" transform="translate(1317.765625 0)"/>
      <use xlink:href="#DejaVuSans-b" transform="translate(1349.546875 0)"/>
      <use xlink:href="#DejaVuSans-56" transform="translate(1388.5625 0)"/>
      <use xlink:href="#DejaVuSans-3" transform="translate(1440.65625 0)"/>
      <use xlink:href="#DejaVuSans-53" transform="translate(1472.4375 0)"/>
      <use xlink:href="#DejaVuSans-48" transform="translate(1535.921875 0)"/>
      <use xlink:href="#DejaVuSans-55" transform="translate(1597.453125 0)"/>
      <use xlink:href="#DejaVuSans-3" transform="translate(1638.5625 0)"/>
      <use xlink:href="#DejaVuSans-18" transform="translate(1670.34375 0)"/>
      <use xlink:href="#DejaVuSans-13" transform="translate(1733.96875 0)"/>
      <use xlink:href="#DejaVuSans-13" transform="translate(1797.59375 0)"/>
      <use xlink:href="#DejaVuSans-3" transform="translate(1861.21875 0)"/>
      <use xlink:href="#DejaVuSans-55" transform="translate(1893 0)"/>
      <use xlink:href="#DejaVuSans-52" transform="translate(1931.90625 0)"/>
      <use xlink:href="#DejaVuSans-5a" transform="translate(1993.09375 0)"/>
      <use xlink:href="#DejaVuSans-56" transform="translate(2074.875 0)"/>
      <use xlink:href="#DejaVuSans-c" transform="translate(2126.96875 0)"/>
     </g>
    </g>
   </g>
   <g id="patch_3">
    <path d="M 68.014474 287.59952
L 100.897016 287.59952
L 100.897016 34.950572
L 68.014474 34.950572
z
" clip-path="url(#p9f271a87c5)" style="fill: #0072b2"/>
   </g>
   <g id="patch_4">
    <path d="M 109.117652 287.59952
L 142.000194 287.59952
L 142.000194 48.026168
L 109.117652 48.026168
z
" clip-path="url(#p9f271a87c5)" style="fill: #0072b2"/>
   </g>
   <g id="patch_5">
    <path d="M 150.220829 287.59952
L 183.103372 287.59952
L 183.103372 93.489848
L 150.220829 93.489848
z
" clip-path="url(#p9f271a87c5)" style="fill: #0072b2"/>
   </g>
   <g id="patch_6">
    <path d="M 191.324007 287.59952
L 224.206549 287.59952
L 224.206549 112.857047
L 191.324007 112.857047
z
" clip-path="url(#p9f271a87c5)" style="fill: #0072b2"/>
   </g>
   <g id="patch_7">
    <path d="M 232.427185 287.59952
L 265.309727 287.59952
L 265.309727 143.713264
L 232.427185 143.713264
z
" clip-path="url(#p9f271a87c5)" style="fill: #0072b2"/>
   </g>
   <g id="patch_8">
    <path d="M 273.530363 287.59952
L 306.412905 287.59952
L 306.412905 177.25025
L 273.530363 177.25025
z
" clip-path="url(#p9f271a87c5)" style="fill: #0072b2"/>
   </g>
   <g id="patch_9">
    <path d="M 314.633541 287.59952
L 347.516083 287.59952
L 347.516083 223.808123
L 314.633541 223.808123
z
" clip-path="url(#p9f271a87c5)" style="fill: #0072b2"/>
   </g>
   <g id="patch_10">
    <path d="M 355.736718 287.59952
L 388.619261 287.59952
L 388.619261 254.664339
L 355.736718 254.664339
z
" clip-path="url(#p9f271a87c5)" style="fill: #0072b2"/>
   </g>
   <g id="patch_11">
    <path d="M 396.839896 287.59952
L 429.722438 287.59952
L 429.722438 43.375851
L 396.839896 43.375851
z
" clip-path="url(#p9f271a87c5)" style="fill: #0072b2"/>
   </g>
   <g id="patch_12">
    <path d="M 437.943074 287.59952
L 470.825616 287.59952
L 470.825616 71.934264
L 437.943074 71.934264
z
" clip-path="url(#p9f271a87c5)" style="fill: #0072b2"/>
   </g>
   <g id="patch_13">
    <path d="M 479.046252 287.59952
L 511.928794 287.59952
L 511.928794 126.862706
L 479.046252 126.862706
z
" clip-path="url(#p9f271a87c5)" style="fill: #0072b2"/>
   </g>
   <g id="patch_14">
    <path d="M 520.14943 287.59952
L 553.031972 287.59952
L 553.031972 185.347272
L 520.14943 185.347272
z
" clip-path="url(#p9f271a87c5)" style="fill: #0072b2"/>
   </g>
   <g id="patch_15">
    <path d="M 561.252607 287.59952
L 594.13515 287.59952
L 594.13515 108.37086
L 561.252607 108.37086
z
" clip-path="url(#p9f271a87c5)" style="fill: #0072b2"/>
   </g>
   <g id="patch_16">
    <path d="M 602.355785 287.59952
L 635.238327 287.59952
L 635.238327 253.843695
L 602.355785 253.843695
z
" clip-path="url(#p9f271a87c5)" style="fill: #0072b2"/>
   </g>
   <g id="patch_17">
    <path d="M 39.653281 287.59952
L 39.653281 22.318125
" style="fill: none; stroke: #000000; stroke-width: 0.8; stroke-linejoin: miter; stroke-linecap: square"/>
   </g>
   <g id="patch_18">
    <path d="M 39.653281 287.59952
L 663.59952 287.59952
" style="fill: none; stroke: #000000; stroke-width: 0.8; stroke-linejoin: miter; stroke-linecap: square"/>
   </g>
   <g id="text_21">
    <!-- 3 attempts -->
    <g style="fill: #d55e00" transform="translate(65.247308 30.950572) scale(0.07 -0.07)">
     <use xlink:href="#DejaVuSans-16"/>
     <use xlink:href="#DejaVuSans-3" transform="translate(63.625 0)"/>
     <use xlink:href="#DejaVuSans-44" transform="translate(95.40625 0)"/>
     <use xlink:href="#DejaVuSans-57" transform="translate(156.6875 0)"/>
     <use xlink:href="#DejaVuSans-57" transform="translate(195.890625 0)"/>
     <use xlink:href="#DejaVuSans-48" transform="translate(235.09375 0)"/>
     <use xlink:href="#DejaVuSans-50" transform="translate(296.625 0)"/>
     <use xlink:href="#DejaVuSans-53" transform="translate(394.03125 0)"/>
     <use xlink:href="#DejaVuSans-57" transform="translate(457.515625 0)"/>
     <use xlink:href="#DejaVuSans-56" transform="translate(496.71875 0)"/>
    </g>
   </g>
   <g id="text_22">
    <!-- Attempt throughput: 14.3 rows/s -->
    <g style="fill: #5b6573" transform="translate(510.02162 35.582195) scale(0.09 -0.09)">
     <defs>
      <path id="DejaVuSans-24" d="M 2188 4044
L 1331 1722
L 3047 1722
L 2188 4044
z
M 1831 4666
L 2547 4666
L 4325 0
L 3669 0
L 3244 1197
L 1141 1197
L 716 0
L 50 0
L 1831 4666
z
" transform="scale(0.015625)"/>
      <path id="DejaVuSans-4b" d="M 3513 2113
L 3513 0
L 2938 0
L 2938 2094
Q 2938 2591 2744 2837
Q 2550 3084 2163 3084
Q 1697 3084 1428 2787
Q 1159 2491 1159 1978
L 1159 0
L 581 0
L 581 4863
L 1159 4863
L 1159 2956
Q 1366 3272 1645 3428
Q 1925 3584 2291 3584
Q 2894 3584 3203 3211
Q 3513 2838 3513 2113
z
" transform="scale(0.015625)"/>
      <path id="DejaVuSans-58" d="M 544 1381
L 544 3500
L 1119 3500
L 1119 1403
Q 1119 906 1312 657
Q 1506 409 1894 409
Q 2359 409 2629 706
Q 2900 1003 2900 1516
L 2900 3500
L 3475 3500
L 3475 0
L 2900 0
L 2900 538
Q 2691 219 2414 64
Q 2138 -91 1772 -91
Q 1169 -91 856 284
Q 544 659 544 1381
z
M 1991 3584
L 1991 3584
z
" transform="scale(0.015625)"/>
      <path id="DejaVuSans-1d" d="M 750 794
L 1409 794
L 1409 0
L 750 0
L 750 794
z
M 750 3309
L 1409 3309
L 1409 2516
L 750 2516
L 750 3309
z
" transform="scale(0.015625)"/>
      <path id="DejaVuSans-11" d="M 684 794
L 1344 794
L 1344 0
L 684 0
L 684 794
z
" transform="scale(0.015625)"/>
      <path id="DejaVuSans-12" d="M 1625 4666
L 2156 4666
L 531 -594
L 0 -594
L 1625 4666
z
" transform="scale(0.015625)"/>
     </defs>
     <use xlink:href="#DejaVuSans-24"/>
     <use xlink:href="#DejaVuSans-57" transform="translate(66.65625 0)"/>
     <use xlink:href="#DejaVuSans-57" transform="translate(105.859375 0)"/>
     <use xlink:href="#DejaVuSans-48" transform="translate(145.0625 0)"/>
     <use xlink:href="#DejaVuSans-50" transform="translate(206.59375 0)"/>
     <use xlink:href="#DejaVuSans-53" transform="translate(304 0)"/>
     <use xlink:href="#DejaVuSans-57" transform="translate(367.484375 0)"/>
     <use xlink:href="#DejaVuSans-3" transform="translate(406.6875 0)"/>
     <use xlink:href="#DejaVuSans-57" transform="translate(438.46875 0)"/>
     <use xlink:href="#DejaVuSans-4b" transform="translate(477.671875 0)"/>
     <use xlink:href="#DejaVuSans-55" transform="translate(541.046875 0)"/>
     <use xlink:href="#DejaVuSans-52" transform="translate(579.953125 0)"/>
     <use xlink:href="#DejaVuSans-58" transform="translate(641.140625 0)"/>
     <use xlink:href="#DejaVuSans-4a" transform="translate(704.515625 0)"/>
     <use xlink:href="#DejaVuSans-4b" transform="translate(768 0)"/>
     <use xlink:href="#DejaVuSans-53" transform="translate(831.375 0)"/>
     <use xlink:href="#DejaVuSans-58" transform="translate(894.859375 0)"/>
     <use xlink:href="#DejaVuSans-57" transform="translate(958.234375 0)"/>
     <use xlink:href="#DejaVuSans-1d" transform="translate(997.4375 0)"/>
     <use xlink:href="#DejaVuSans-3" transform="translate(1031.125 0)"/>
     <use xlink:href="#DejaVuSans-14" transform="translate(1062.90625 0)"/>
     <use xlink:href="#DejaVuSans-17" transform="translate(1126.53125 0)"/>
     <use xlink:href="#DejaVuSans-11" transform="translate(1190.15625 0)"/>
     <use xlink:href="#DejaVuSans-16" transform="translate(1221.9375 0)"/>
     <use xlink:href="#DejaVuSans-3" transform="translate(1285.5625 0)"/>
     <use xlink:href="#DejaVuSans-55" transform="translate(1317.34375 0)"/>
     <use xlink:href="#DejaVuSans-52" transform="translate(1356.25 0)"/>
     <use xlink:href="#DejaVuSans-5a" transform="translate(1417.4375 0)"/>
     <use xlink:href="#DejaVuSans-56" transform="translate(1499.21875 0)"/>
     <use xlink:href="#DejaVuSans-12" transform="translate(1551.3125 0)"/>
     <use xlink:href="#DejaVuSans-56" transform="translate(1585 0)"/>
    </g>
   </g>
   <g id="text_23">
    <!-- Reference-laptop F0 generation runtime before D003 repair -->
    <g transform="translate(172.263901 16.318125) scale(0.12 -0.12)">
     <defs>
      <path id="DejaVuSans-35" d="M 2841 2188
Q 3044 2119 3236 1894
Q 3428 1669 3622 1275
L 4263 0
L 3584 0
L 2988 1197
Q 2756 1666 2539 1819
Q 2322 1972 1947 1972
L 1259 1972
L 1259 0
L 628 0
L 628 4666
L 2053 4666
Q 2853 4666 3247 4331
Q 3641 3997 3641 3322
Q 3641 2881 3436 2590
Q 3231 2300 2841 2188
z
M 1259 4147
L 1259 2491
L 2053 2491
Q 2509 2491 2742 2702
Q 2975 2913 2975 3322
Q 2975 3731 2742 3939
Q 2509 4147 2053 4147
L 1259 4147
z
" transform="scale(0.015625)"/>
      <path id="DejaVuSans-49" d="M 2375 4863
L 2375 4384
L 1825 4384
Q 1516 4384 1395 4259
Q 1275 4134 1275 3809
L 1275 3500
L 2222 3500
L 2222 3053
L 1275 3053
L 1275 0
L 697 0
L 697 3053
L 147 3053
L 147 3500
L 697 3500
L 697 3744
Q 697 4328 969 4595
Q 1241 4863 1831 4863
L 2375 4863
z
" transform="scale(0.015625)"/>
      <path id="DejaVuSans-46" d="M 3122 3366
L 3122 2828
Q 2878 2963 2633 3030
Q 2388 3097 2138 3097
Q 1578 3097 1268 2742
Q 959 2388 959 1747
Q 959 1106 1268 751
Q 1578 397 2138 397
Q 2388 397 2633 464
Q 2878 531 3122 666
L 3122 134
Q 2881 22 2623 -34
Q 2366 -91 2075 -91
Q 1284 -91 818 406
Q 353 903 353 1747
Q 353 2603 823 3093
Q 1294 3584 2113 3584
Q 2378 3584 2631 3529
Q 2884 3475 3122 3366
z
" transform="scale(0.015625)"/>
      <path id="DejaVuSans-10" d="M 313 2009
L 1997 2009
L 1997 1497
L 313 1497
L 313 2009
z
" transform="scale(0.015625)"/>
      <path id="DejaVuSans-4f" d="M 603 4863
L 1178 4863
L 1178 0
L 603 0
L 603 4863
z
" transform="scale(0.015625)"/>
      <path id="DejaVuSans-29" d="M 628 4666
L 3309 4666
L 3309 4134
L 1259 4134
L 1259 2759
L 3109 2759
L 3109 2228
L 1259 2228
L 1259 0
L 628 0
L 628 4666
z
" transform="scale(0.015625)"/>
      <path id="DejaVuSans-45" d="M 3116 1747
Q 3116 2381 2855 2742
Q 2594 3103 2138 3103
Q 1681 3103 1420 2742
Q 1159 2381 1159 1747
Q 1159 1113 1420 752
Q 1681 391 2138 391
Q 2594 391 2855 752
Q 3116 1113 3116 1747
z
M 1159 2969
Q 1341 3281 1617 3432
Q 1894 3584 2278 3584
Q 2916 3584 3314 3078
Q 3713 2572 3713 1747
Q 3713 922 3314 415
Q 2916 -91 2278 -91
Q 1894 -91 1617 61
Q 1341 213 1159 525
L 1159 0
L 581 0
L 581 4863
L 1159 4863
L 1159 2969
z
" transform="scale(0.015625)"/>
      <path id="DejaVuSans-27" d="M 1259 4147
L 1259 519
L 2022 519
Q 2988 519 3436 956
Q 3884 1394 3884 2338
Q 3884 3275 3436 3711
Q 2988 4147 2022 4147
L 1259 4147
z
M 628 4666
L 1925 4666
Q 3281 4666 3915 4102
Q 4550 3538 4550 2338
Q 4550 1131 3912 565
Q 3275 0 1925 0
L 628 0
L 628 4666
z
" transform="scale(0.015625)"/>
     </defs>
     <use xlink:href="#DejaVuSans-35"/>
     <use xlink:href="#DejaVuSans-48" transform="translate(65 0)"/>
     <use xlink:href="#DejaVuSans-49" transform="translate(126.53125 0)"/>
     <use xlink:href="#DejaVuSans-48" transform="translate(161.734375 0)"/>
     <use xlink:href="#DejaVuSans-55" transform="translate(223.265625 0)"/>
     <use xlink:href="#DejaVuSans-48" transform="translate(262.171875 0)"/>
     <use xlink:href="#DejaVuSans-51" transform="translate(323.703125 0)"/>
     <use xlink:href="#DejaVuSans-46" transform="translate(387.078125 0)"/>
     <use xlink:href="#DejaVuSans-48" transform="translate(442.0625 0)"/>
     <use xlink:href="#DejaVuSans-10" transform="translate(503.59375 0)"/>
     <use xlink:href="#DejaVuSans-4f" transform="translate(539.671875 0)"/>
     <use xlink:href="#DejaVuSans-44" transform="translate(567.453125 0)"/>
     <use xlink:href="#DejaVuSans-53" transform="translate(628.734375 0)"/>
     <use xlink:href="#DejaVuSans-57" transform="translate(692.21875 0)"/>
     <use xlink:href="#DejaVuSans-52" transform="translate(731.421875 0)"/>
     <use xlink:href="#DejaVuSans-53" transform="translate(792.609375 0)"/>
     <use xlink:href="#DejaVuSans-3" transform="translate(856.09375 0)"/>
     <use xlink:href="#DejaVuSans-29" transform="translate(887.875 0)"/>
     <use xlink:href="#DejaVuSans-13" transform="translate(945.390625 0)"/>
     <use xlink:href="#DejaVuSans-3" transform="translate(1009.015625 0)"/>
     <use xlink:href="#DejaVuSans-4a" transform="translate(1040.796875 0)"/>
     <use xlink:href="#DejaVuSans-48" transform="translate(1104.28125 0)"/>
     <use xlink:href="#DejaVuSans-51" transform="translate(1165.8125 0)"/>
     <use xlink:href="#DejaVuSans-48" transform="translate(1229.1875 0)"/>
     <use xlink:href="#DejaVuSans-55" transform="translate(1290.71875 0)"/>
     <use xlink:href="#DejaVuSans-44" transform="translate(1331.828125 0)"/>
     <use xlink:href="#DejaVuSans-57" transform="translate(1393.109375 0)"/>
     <use xlink:href="#DejaVuSans-4c" transform="translate(1432.3125 0)"/>
     <use xlink:href="#DejaVuSans-52" transform="translate(1460.09375 0)"/>
     <use xlink:href="#DejaVuSans-51" transform="translate(1521.28125 0)"/>
     <use xlink:href="#DejaVuSans-3" transform="translate(1584.65625 0)"/>
     <use xlink:href="#DejaVuSans-55" transform="translate(1616.4375 0)"/>
     <use xlink:href="#DejaVuSans-58" transform="translate(1657.546875 0)"/>
     <use xlink:href="#DejaVuSans-51" transform="translate(1720.921875 0)"/>
     <use xlink:href="#DejaVuSans-57" transform="translate(1784.296875 0)"/>
     <use xlink:href="#DejaVuSans-4c" transform="translate(1823.5 0)"/>
     <use xlink:href="#DejaVuSans-50" transform="translate(1851.28125 0)"/>
     <use xlink:href="#DejaVuSans-48" transform="translate(1948.6875 0)"/>
     <use xlink:href="#DejaVuSans-3" transform="translate(2010.21875 0)"/>
     <use xlink:href="#DejaVuSans-45" transform="translate(2042 0)"/>
     <use xlink:href="#DejaVuSans-48" transform="translate(2105.484375 0)"/>
     <use xlink:href="#DejaVuSans-49" transform="translate(2167.015625 0)"/>
     <use xlink:href="#DejaVuSans-52" transform="translate(2202.21875 0)"/>
     <use xlink:href="#DejaVuSans-55" transform="translate(2263.40625 0)"/>
     <use xlink:href="#DejaVuSans-48" transform="translate(2302.3125 0)"/>
     <use xlink:href="#DejaVuSans-3" transform="translate(2363.84375 0)"/>
     <use xlink:href="#DejaVuSans-27" transform="translate(2395.625 0)"/>
     <use xlink:href="#DejaVuSans-13" transform="translate(2472.625 0)"/>
     <use xlink:href="#DejaVuSans-13" transform="translate(2536.25 0)"/>
     <use xlink:href="#DejaVuSans-16" transform="translate(2599.875 0)"/>
     <use xlink:href="#DejaVuSans-3" transform="translate(2663.5 0)"/>
     <use xlink:href="#DejaVuSans-55" transform="translate(2695.28125 0)"/>
     <use xlink:href="#DejaVuSans-48" transform="translate(2734.1875 0)"/>
     <use xlink:href="#DejaVuSans-53" transform="translate(2795.71875 0)"/>
     <use xlink:href="#DejaVuSans-44" transform="translate(2859.203125 0)"/>
     <use xlink:href="#DejaVuSans-4c" transform="translate(2920.484375 0)"/>
     <use xlink:href="#DejaVuSans-55" transform="translate(2948.265625 0)"/>
    </g>
   </g>
  </g>
 </g>
 <defs>
  <clipPath id="p9f271a87c5">
   <rect x="39.653281" y="22.318125" width="623.946239" height="265.281395"/>
  </clipPath>
 </defs>
</svg>
